<?xml version="1.0" encoding="UTF-8" standalone="no"?>
<!DOCTYPE svg PUBLIC "-//W3C//DTD SVG 1.1//EN" "http://www.w3.org/Graphics/SVG/1.1/DTD/svg11.dtd">
<svg width="100%" height="100%" viewBox="0 0 1000 400" version="1.1" xmlns="http://www.w3.org/2000/svg" xmlns:xlink="http://www.w3.org/1999/xlink" xml:space="preserve" xmlns:serif="http://www.serif.com/" style="fill-rule:evenodd;clip-rule:evenodd;stroke-linejoin:round;stroke-miterlimit:2;">
    <g transform="matrix(2.37531,0,0,2.37531,338.042,258.699)">
        <g transform="matrix(1.85498,0,0,1.85498,23.4983,11.2306)">
            <path d="M0.492,3.127L-3.038,3.127L-3.783,5.823L-6.106,5.823L-3.142,-3.858C-3.103,-4.036 -3.008,-4.18 -2.859,-4.29C-2.71,-4.399 -2.542,-4.453 -2.353,-4.453L-0.208,-4.453C0.218,-4.453 0.481,-4.255 0.581,-3.858L3.545,5.823L1.236,5.823L0.492,3.127ZM0,1.37L-0.864,-1.773C-0.983,-2.269 -1.053,-2.592 -1.072,-2.741L-1.475,-2.741C-1.494,-2.641 -1.529,-2.483 -1.579,-2.264C-1.628,-2.046 -1.668,-1.881 -1.698,-1.773L-2.562,1.37L0,1.37ZM13.27,-4.453L13.27,5.005C13.27,5.55 13.002,5.823 12.466,5.823L11.051,5.823C10.823,5.823 10.644,5.771 10.515,5.667C10.386,5.563 10.262,5.392 10.143,5.153L7.447,-0.328C7.109,-1.053 6.9,-1.584 6.821,-1.921L6.657,-1.921C6.727,-1.425 6.762,-0.879 6.762,-0.283L6.762,5.823L4.602,5.823L4.602,-3.634C4.602,-4.18 4.875,-4.453 5.421,-4.453L6.806,-4.453C7.035,-4.453 7.213,-4.401 7.342,-4.297C7.472,-4.193 7.596,-4.021 7.715,-3.783L10.321,1.534C10.569,2.03 10.817,2.582 11.066,3.187L11.215,3.187C11.155,2.413 11.125,1.837 11.125,1.46L11.125,-4.453L13.27,-4.453ZM22.429,3.902L22.623,5.585C21.729,5.863 20.632,6.002 19.331,6.002C17.742,6.002 16.626,5.605 15.98,4.811C15.335,4.016 15.012,2.641 15.012,0.685C15.012,-1.271 15.335,-2.646 15.98,-3.44C16.626,-4.235 17.742,-4.632 19.331,-4.632C20.483,-4.632 21.511,-4.517 22.414,-4.289L22.221,-2.592C21.416,-2.641 20.453,-2.666 19.331,-2.666C18.587,-2.666 18.078,-2.43 17.804,-1.959C17.532,-1.487 17.395,-0.606 17.395,0.685C17.395,1.976 17.532,2.857 17.804,3.329C18.078,3.8 18.587,4.036 19.331,4.036C20.711,4.036 21.744,3.991 22.429,3.902ZM32.244,-4.453L32.244,5.823L29.98,5.823L29.98,1.236L26.347,1.236L26.347,5.823L24.082,5.823L24.082,-4.453L26.347,-4.453L26.347,-0.521L29.98,-0.521L29.98,-4.453L32.244,-4.453ZM34.947,-3.508C35.587,-4.268 36.732,-4.648 38.38,-4.648C40.028,-4.648 41.175,-4.268 41.82,-3.508C42.466,-2.749 42.788,-1.351 42.788,0.684C42.788,2.72 42.466,4.117 41.82,4.877C41.175,5.637 40.028,6.016 38.38,6.016C36.732,6.016 35.587,5.637 34.947,4.877C34.307,4.117 33.987,2.72 33.987,0.684C33.987,-1.351 34.307,-2.749 34.947,-3.508ZM39.966,-2.086C39.683,-2.572 39.154,-2.815 38.38,-2.815C37.606,-2.815 37.077,-2.572 36.794,-2.086C36.511,-1.599 36.369,-0.676 36.369,0.684C36.369,2.045 36.511,2.968 36.794,3.455C37.077,3.941 37.606,4.185 38.38,4.185C39.154,4.185 39.683,3.941 39.966,3.455C40.249,2.968 40.391,2.045 40.391,0.684C40.391,-0.676 40.249,-1.599 39.966,-2.086ZM52.618,5.823L50.221,5.823L49.445,2.68C49.347,2.352 49.216,2.127 49.051,2.002C48.888,1.878 48.651,1.816 48.344,1.816L46.751,1.801L46.751,5.823L44.516,5.823L44.516,-4.454C45.439,-4.544 46.745,-4.588 48.433,-4.588C49.814,-4.588 50.792,-4.37 51.367,-3.933C51.943,-3.496 52.23,-2.701 52.23,-1.55C52.23,-0.795 52.08,-0.204 51.777,0.223C51.475,0.65 50.971,0.908 50.265,0.997L50.265,1.072C51.05,1.25 51.537,1.767 51.724,2.621L52.618,5.823ZM46.751,0.059L48.389,0.059C48.985,0.059 49.391,-0.043 49.609,-0.246C49.829,-0.45 49.937,-0.835 49.937,-1.4C49.937,-1.967 49.83,-2.349 49.618,-2.547C49.403,-2.746 48.995,-2.845 48.389,-2.845L46.751,-2.831L46.751,0.059ZM0.29,16.083L-4.193,16.083L-5.325,19.479L-6.337,19.479L-2.897,9.485C-2.837,9.297 -2.708,9.202 -2.51,9.202L-1.393,9.202C-1.194,9.202 -1.065,9.297 -1.005,9.485L2.435,19.479L1.422,19.479L0.29,16.083ZM0.007,15.234L-1.467,10.811C-1.477,10.761 -1.517,10.635 -1.586,10.431C-1.656,10.228 -1.705,10.076 -1.735,9.977L-2.152,9.977L-2.435,10.811L-3.91,15.234L0.007,15.234ZM4.014,19.478L4.014,9.202C4.838,9.123 5.984,9.082 7.454,9.082C8.655,9.082 9.487,9.304 9.949,9.746C10.411,10.187 10.642,11.014 10.642,12.225C10.642,13.436 10.416,14.263 9.964,14.705C9.512,15.147 8.71,15.368 7.559,15.368C6.694,15.368 5.836,15.328 4.982,15.248L4.982,19.478L4.014,19.478ZM4.982,14.519L7.439,14.519C8.274,14.509 8.849,14.348 9.167,14.035C9.484,13.722 9.644,13.119 9.644,12.225C9.644,11.322 9.484,10.711 9.167,10.394C8.849,10.076 8.274,9.916 7.439,9.916C6.595,9.916 5.776,9.927 4.982,9.946L4.982,14.519ZM12.756,19.478L12.756,9.202C13.58,9.123 14.727,9.082 16.197,9.082C17.398,9.082 18.229,9.304 18.691,9.746C19.153,10.187 19.384,11.014 19.384,12.225C19.384,13.436 19.158,14.263 18.706,14.705C18.254,15.147 17.453,15.368 16.301,15.368C15.437,15.368 14.578,15.328 13.724,15.248L13.724,19.478L12.756,19.478ZM13.724,14.519L16.182,14.519C17.016,14.509 17.591,14.348 17.909,14.035C18.227,13.722 18.386,13.119 18.386,12.225C18.386,11.322 18.227,10.711 17.909,10.394C17.591,10.076 17.016,9.916 16.182,9.916C15.337,9.916 14.518,9.927 13.724,9.946L13.724,14.519ZM26.413,16.083L21.93,16.083L20.798,19.479L19.785,19.479L23.226,9.485C23.285,9.297 23.414,9.202 23.613,9.202L24.73,9.202C24.929,9.202 25.058,9.297 25.117,9.485L28.558,19.479L27.545,19.479L26.413,16.083ZM26.13,15.234L24.655,10.811C24.646,10.761 24.606,10.635 24.537,10.431C24.467,10.228 24.417,10.076 24.387,9.977L23.97,9.977L23.688,10.811L22.213,15.234L26.13,15.234ZM37.151,19.478L36.109,19.478L35.126,16.246C34.848,15.462 34.357,15.07 33.652,15.07C32.748,15.07 31.898,15.06 31.105,15.04L31.105,19.478L30.137,19.478L30.137,9.201C30.96,9.122 32.108,9.082 33.577,9.082C34.759,9.082 35.587,9.288 36.065,9.7C36.542,10.113 36.78,10.885 36.78,12.016C36.78,12.88 36.633,13.518 36.34,13.93C36.046,14.342 35.563,14.598 34.887,14.698L34.887,14.757C35.474,14.926 35.881,15.412 36.109,16.217L37.151,19.478ZM31.105,14.221L33.577,14.221C34.412,14.211 34.99,14.054 35.313,13.752C35.634,13.449 35.796,12.886 35.796,12.061C35.796,11.227 35.634,10.661 35.313,10.363C34.99,10.066 34.412,9.916 33.577,9.916C32.723,9.916 31.898,9.927 31.105,9.946L31.105,14.221ZM45.343,18.659L45.403,19.404C44.469,19.463 43.005,19.493 41.01,19.493C40.463,19.493 40.024,19.339 39.691,19.032C39.359,18.723 39.192,18.312 39.192,17.795L39.192,10.885C39.192,10.368 39.359,9.956 39.691,9.649C40.024,9.341 40.463,9.187 41.01,9.187C43.005,9.187 44.469,9.217 45.403,9.276L45.343,10.021L41.173,10.021C40.508,10.021 40.175,10.383 40.175,11.108L40.175,13.625L44.762,13.625L44.762,14.414L40.175,14.414L40.175,17.587C40.175,18.302 40.508,18.659 41.173,18.659L45.343,18.659ZM48.515,9.202L48.515,17.573C48.515,18.297 48.872,18.66 49.587,18.66L53.415,18.66L53.445,19.404C52.392,19.464 51.052,19.494 49.423,19.494C48.798,19.494 48.326,19.329 48.009,19.002C47.691,18.675 47.532,18.243 47.532,17.706L47.532,9.202L48.515,9.202ZM55.54,-4.35C55.968,-4.35 56.334,-4.199 56.636,-3.896C56.938,-3.594 57.089,-3.229 57.089,-2.801C57.089,-2.369 56.938,-2.001 56.636,-1.699C56.334,-1.396 55.968,-1.245 55.54,-1.245C55.108,-1.245 54.74,-1.396 54.438,-1.699C54.136,-2.001 53.984,-2.369 53.984,-2.801C53.984,-3.229 54.136,-3.594 54.438,-3.896C54.74,-4.199 55.108,-4.35 55.54,-4.35ZM55.54,-1.42C55.913,-1.42 56.233,-1.555 56.503,-1.824C56.773,-2.094 56.908,-2.42 56.908,-2.801C56.908,-3.183 56.774,-3.508 56.506,-3.778C56.239,-4.048 55.917,-4.183 55.54,-4.183C55.164,-4.183 54.841,-4.048 54.574,-3.778C54.307,-3.508 54.173,-3.183 54.173,-2.801C54.173,-2.42 54.307,-2.094 54.574,-1.824C54.841,-1.555 55.164,-1.42 55.54,-1.42ZM55.896,-2.745L55.896,-2.731C56.031,-2.708 56.122,-2.617 56.168,-2.459L56.399,-1.873L56.161,-1.873L55.945,-2.446C55.889,-2.589 55.782,-2.662 55.624,-2.662L55.066,-2.668L55.066,-1.873L54.843,-1.873L54.843,-3.736C55.005,-3.75 55.261,-3.757 55.61,-3.757C55.871,-3.757 56.054,-3.719 56.161,-3.642C56.268,-3.565 56.322,-3.427 56.322,-3.227C56.322,-3.073 56.289,-2.959 56.224,-2.885C56.159,-2.81 56.049,-2.764 55.896,-2.745ZM55.066,-2.829L55.603,-2.829C55.789,-2.833 55.918,-2.863 55.99,-2.916C56.063,-2.97 56.099,-3.066 56.099,-3.206C56.099,-3.35 56.063,-3.448 55.99,-3.499C55.918,-3.55 55.789,-3.576 55.603,-3.576L55.066,-3.576L55.066,-2.829Z" style="fill:rgb(245,52,64);"/>
        </g>
        <g transform="matrix(1.85498,0,0,1.85498,108.617,-15.8167)">
            <path d="M0,-13.43L2.961,-14.853L1.586,-11.952C1.36,-11.478 1.17,-10.968 1.01,-10.433C0.844,-9.899 0.715,-9.339 0.593,-8.764C0.356,-7.611 0.189,-6.407 -0.008,-5.121C-0.344,-5.687 -0.571,-6.3 -0.75,-6.925C-0.925,-7.552 -1.044,-8.197 -1.093,-8.855C-1.126,-9.246 -1.13,-9.642 -1.112,-10.039C-1.214,-9.91 -1.315,-9.78 -1.417,-9.65C-1.758,-9.196 -2.139,-8.783 -2.512,-8.356C-2.698,-8.142 -2.892,-7.936 -3.083,-7.725L-3.68,-7.119C-5.284,-5.51 -7.079,-4.06 -9.042,-2.818C-9.541,-2.523 -10.028,-2.201 -10.544,-1.928L-11.322,-1.522C-11.582,-1.386 -11.842,-1.251 -12.112,-1.134C-13.173,-0.625 -14.279,-0.201 -15.41,0.166C-17.674,0.894 -20.068,1.312 -22.483,1.368C-24.896,1.423 -27.329,1.133 -29.636,0.456C-30.206,0.27 -30.785,0.112 -31.343,-0.102C-31.623,-0.208 -31.902,-0.313 -32.178,-0.427L-32.592,-0.594L-32.996,-0.783C-34.081,-1.268 -35.123,-1.833 -36.111,-2.465C-38.092,-3.725 -39.876,-5.226 -41.43,-6.902C-42.209,-7.738 -42.927,-8.621 -43.589,-9.539C-43.634,-9.603 -43.678,-9.668 -43.723,-9.732C-43.719,-9.438 -43.727,-9.145 -43.752,-8.855C-43.801,-8.197 -43.919,-7.552 -44.095,-6.925C-44.273,-6.3 -44.501,-5.687 -44.837,-5.121C-45.034,-6.407 -45.201,-7.611 -45.438,-8.764C-45.559,-9.339 -45.688,-9.899 -45.855,-10.433C-46.014,-10.968 -46.205,-11.478 -46.43,-11.952L-47.806,-14.853L-44.845,-13.43C-44.361,-13.198 -43.847,-13.002 -43.313,-12.816C-42.776,-12.639 -42.224,-12.46 -41.651,-12.302L-39.892,-11.802C-39.289,-11.629 -38.676,-11.454 -38.029,-11.225C-38.634,-10.89 -39.278,-10.699 -39.93,-10.561C-40.583,-10.428 -41.25,-10.365 -41.922,-10.375C-42.045,-10.378 -42.168,-10.385 -42.291,-10.391C-41.931,-10.16 -41.565,-9.94 -41.209,-9.712C-40.757,-9.418 -40.288,-9.152 -39.826,-8.883C-37.98,-7.806 -36.118,-6.852 -34.22,-6.084C-33.754,-5.875 -33.271,-5.712 -32.793,-5.541C-32.322,-5.356 -31.837,-5.217 -31.36,-5.062L-31.002,-4.949L-30.638,-4.856C-30.395,-4.796 -30.155,-4.729 -29.916,-4.662C-29.437,-4.527 -28.945,-4.447 -28.464,-4.334C-26.524,-3.949 -24.564,-3.794 -22.605,-3.842C-18.686,-3.938 -14.762,-4.889 -10.929,-6.455C-9.008,-7.23 -7.111,-8.156 -5.215,-9.17L-4.497,-9.545C-4.263,-9.679 -4.031,-9.817 -3.792,-9.946C-3.534,-10.088 -3.275,-10.231 -3.018,-10.376C-3.658,-10.373 -4.292,-10.434 -4.915,-10.561C-5.566,-10.699 -6.211,-10.89 -6.815,-11.225C-6.168,-11.454 -5.555,-11.629 -4.952,-11.802L-3.193,-12.302C-2.621,-12.46 -2.068,-12.639 -1.532,-12.816C-0.998,-13.002 -0.483,-13.198 0,-13.43ZM-32.982,-25.266C-34.659,-25.266 -36.018,-26.625 -36.018,-28.302C-36.018,-29.979 -34.659,-31.338 -32.982,-31.338C-31.929,-31.338 -31.002,-30.802 -30.457,-29.987C-30.443,-29.994 -30.429,-30.001 -30.415,-30.007C-29.543,-30.387 -28.662,-30.677 -27.776,-30.913C-26.592,-31.216 -25.4,-31.41 -24.204,-31.506L-23.99,-34.306C-25.876,-34.958 -27.236,-36.747 -27.236,-38.852C-27.236,-41.506 -25.076,-43.666 -22.422,-43.666C-19.767,-43.666 -17.608,-41.506 -17.608,-38.852C-17.608,-36.676 -19.06,-34.835 -21.046,-34.241L-20.817,-31.514C-19.562,-31.422 -18.31,-31.224 -17.068,-30.905C-16.182,-30.669 -15.301,-30.379 -14.43,-30C-14.417,-29.994 -14.403,-29.988 -14.39,-29.982C-13.846,-30.799 -12.917,-31.338 -11.862,-31.338C-10.185,-31.338 -8.825,-29.979 -8.825,-28.302C-8.825,-26.625 -10.185,-25.266 -11.862,-25.266C-13.532,-25.266 -14.887,-26.616 -14.897,-28.284C-15.648,-28.304 -16.398,-28.323 -17.148,-28.335C-18.283,-28.353 -19.418,-28.367 -20.553,-28.375L-18.861,-8.221C-18.861,-8.221 -20.576,-7.107 -22.593,-7.107C-24.611,-7.107 -25.983,-8.221 -25.983,-8.221L-24.443,-28.375C-25.527,-28.366 -26.611,-28.352 -27.695,-28.334C-28.446,-28.322 -29.196,-28.303 -29.947,-28.284C-29.957,-26.615 -31.311,-25.266 -32.982,-25.266ZM-22.422,-40.565C-23.366,-40.565 -24.135,-39.796 -24.135,-38.852C-24.135,-37.907 -23.366,-37.139 -22.422,-37.139C-21.477,-37.139 -20.709,-37.907 -20.709,-38.852C-20.709,-39.796 -21.477,-40.565 -22.422,-40.565Z" style="fill:rgb(0,40,86);"/>
        </g>
    </g>
</svg>
