<?xml version="1.0" encoding="UTF-8" standalone="no"?>
<!DOCTYPE svg PUBLIC "-//W3C//DTD SVG 1.1//EN" "http://www.w3.org/Graphics/SVG/1.1/DTD/svg11.dtd">
<svg width="100%" height="100%" viewBox="0 0 1000 400" version="1.1" xmlns="http://www.w3.org/2000/svg" xmlns:xlink="http://www.w3.org/1999/xlink" xml:space="preserve" xmlns:serif="http://www.serif.com/" style="fill-rule:evenodd;clip-rule:evenodd;stroke-linejoin:round;stroke-miterlimit:2;">
    <g transform="matrix(0.716608,0,0,0.716608,-227.119,-196.81)">
        <g transform="matrix(1.39546,0,0,1.39546,260.436,197.798)">
            <path d="M150.361,366.817L158.315,345.964L161.383,345.964L169.307,366.817L166.537,366.817L164.332,361.187L155.246,361.187L153.042,366.817L150.361,366.817ZM156.021,358.833L163.558,358.833L159.774,348.794L156.021,358.833ZM178.751,351.445C180.598,351.445 182.082,352.002 183.204,353.114C184.326,354.226 184.887,355.974 184.887,358.357L184.887,366.817L182.445,366.817L182.445,358.506C182.445,356.937 182.092,355.74 181.387,354.916C180.682,354.092 179.664,353.68 178.334,353.68C176.904,353.68 175.782,354.176 174.967,355.169C174.153,356.162 173.746,357.513 173.746,359.221L173.746,366.817L171.303,366.817L171.303,351.624L173.418,351.624L173.746,353.68C174.898,352.19 176.566,351.445 178.751,351.445ZM201.57,361.574C201.252,363.262 200.507,364.588 199.336,365.551C198.164,366.514 196.674,366.996 194.867,366.996C193.397,366.996 192.107,366.668 190.994,366.013C189.882,365.357 189.018,364.439 188.403,363.257C187.787,362.076 187.479,360.72 187.479,359.191C187.479,357.662 187.792,356.311 188.418,355.139C189.043,353.968 189.922,353.059 191.054,352.414C192.186,351.768 193.487,351.445 194.956,351.445C196.744,351.445 198.218,351.922 199.38,352.875C200.542,353.829 201.272,355.139 201.57,356.808L199.097,356.808C198.859,355.835 198.362,355.06 197.608,354.484C196.853,353.908 195.94,353.62 194.867,353.62C193.417,353.62 192.241,354.137 191.337,355.169C190.433,356.202 189.982,357.543 189.982,359.191C189.982,360.859 190.433,362.215 191.337,363.257C192.241,364.3 193.417,364.821 194.867,364.821C195.979,364.821 196.913,364.533 197.667,363.957C198.422,363.381 198.909,362.587 199.127,361.574L201.57,361.574ZM204.4,345.964L206.843,345.964L206.843,366.817L204.4,366.817L204.4,345.964ZM224.389,364.583L224.389,366.817L223.049,366.817C222.075,366.817 221.38,366.619 220.963,366.221C220.546,365.824 220.328,365.238 220.308,364.464C219.136,366.152 217.438,366.996 215.214,366.996C213.526,366.996 212.17,366.599 211.147,365.804C210.125,365.01 209.613,363.928 209.613,362.557C209.613,361.028 210.135,359.856 211.177,359.042C212.22,358.228 213.734,357.821 215.72,357.821L220.189,357.821L220.189,356.778C220.189,355.785 219.856,355.01 219.191,354.454C218.525,353.898 217.597,353.62 216.405,353.62C215.353,353.62 214.484,353.854 213.799,354.32C213.114,354.787 212.692,355.408 212.533,356.182L210.09,356.182C210.269,354.693 210.929,353.531 212.071,352.697C213.213,351.863 214.697,351.445 216.524,351.445C218.471,351.445 219.975,351.917 221.038,352.861C222.1,353.804 222.631,355.159 222.631,356.927L222.631,363.481C222.631,364.216 222.969,364.583 223.644,364.583L224.389,364.583ZM220.189,359.876L215.482,359.876C213.218,359.876 212.086,360.72 212.086,362.408C212.086,363.163 212.384,363.769 212.979,364.225C213.575,364.682 214.38,364.911 215.392,364.911C216.882,364.911 218.054,364.518 218.908,363.734C219.762,362.949 220.189,361.912 220.189,360.621L220.189,359.876Z" style="fill:rgb(245,52,64);"/>
        </g>
        <g transform="matrix(1.39546,0,0,1.39546,1240.15,197.798)">
            <path d="M141.722,359.995C141.821,361.405 142.387,362.532 143.42,363.376C144.452,364.22 145.763,364.643 147.352,364.643C148.782,364.643 149.939,364.33 150.822,363.704C151.706,363.079 152.148,362.21 152.148,361.097C152.148,360.283 151.905,359.638 151.418,359.161C150.932,358.684 150.306,358.332 149.541,358.104C148.777,357.875 147.739,357.652 146.428,357.433C144.343,357.076 142.685,356.49 141.453,355.676C140.222,354.861 139.606,353.541 139.606,351.714C139.606,350.542 139.904,349.504 140.5,348.601C141.096,347.697 141.935,346.997 143.017,346.5C144.1,346.004 145.336,345.756 146.726,345.756C148.196,345.756 149.497,346.024 150.629,346.56C151.761,347.096 152.654,347.846 153.31,348.809C153.965,349.772 154.333,350.879 154.412,352.131L151.85,352.131C151.691,350.919 151.145,349.946 150.212,349.211C149.278,348.476 148.116,348.109 146.726,348.109C145.336,348.109 144.234,348.412 143.42,349.018C142.605,349.623 142.198,350.472 142.198,351.565C142.198,352.359 142.436,352.98 142.913,353.427C143.39,353.873 144.005,354.211 144.76,354.439C145.515,354.668 146.548,354.891 147.858,355.11C149.944,355.467 151.612,356.058 152.863,356.882C154.114,357.706 154.74,359.032 154.74,360.859C154.74,362.051 154.427,363.113 153.801,364.047C153.176,364.98 152.302,365.705 151.18,366.221C150.058,366.738 148.772,366.996 147.322,366.996C145.694,366.996 144.274,366.703 143.062,366.117C141.851,365.531 140.912,364.707 140.247,363.645C139.582,362.582 139.219,361.366 139.16,359.995L141.722,359.995ZM164.66,366.996C163.19,366.996 161.884,366.668 160.743,366.013C159.601,365.357 158.712,364.444 158.076,363.272C157.441,362.1 157.123,360.75 157.123,359.221C157.123,357.691 157.441,356.341 158.076,355.169C158.712,353.998 159.601,353.084 160.743,352.429C161.884,351.773 163.19,351.445 164.66,351.445C166.13,351.445 167.435,351.773 168.577,352.429C169.719,353.084 170.608,353.998 171.244,355.169C171.879,356.341 172.197,357.691 172.197,359.221C172.197,360.75 171.879,362.1 171.244,363.272C170.608,364.444 169.719,365.357 168.577,366.013C167.435,366.668 166.13,366.996 164.66,366.996ZM164.66,364.821C165.653,364.821 166.532,364.583 167.296,364.106C168.061,363.63 168.652,362.964 169.069,362.11C169.486,361.256 169.694,360.293 169.694,359.221C169.694,358.148 169.486,357.185 169.069,356.331C168.652,355.477 168.061,354.812 167.296,354.335C166.532,353.858 165.653,353.62 164.66,353.62C163.667,353.62 162.788,353.858 162.023,354.335C161.259,354.812 160.668,355.477 160.251,356.331C159.834,357.185 159.625,358.148 159.625,359.221C159.625,360.293 159.834,361.256 160.251,362.11C160.668,362.964 161.259,363.63 162.023,364.106C162.788,364.583 163.667,364.821 164.66,364.821ZM182.445,351.445C184.292,351.445 185.776,352.002 186.898,353.114C188.02,354.226 188.581,355.974 188.581,358.357L188.581,366.817L186.139,366.817L186.139,358.506C186.139,356.937 185.786,355.74 185.081,354.916C184.376,354.092 183.358,353.68 182.028,353.68C180.598,353.68 179.476,354.176 178.661,355.169C177.847,356.162 177.44,357.513 177.44,359.221L177.44,366.817L174.997,366.817L174.997,351.624L177.112,351.624L177.44,353.68C178.592,352.19 180.26,351.445 182.445,351.445ZM199.425,351.624L199.425,354.007L198.204,354.007C196.754,354.007 195.716,354.494 195.091,355.467C194.465,356.44 194.152,357.642 194.152,359.072L194.152,366.817L191.709,366.817L191.709,351.624L193.824,351.624L194.152,353.918C194.589,353.223 195.155,352.667 195.85,352.25C196.545,351.833 197.508,351.624 198.74,351.624L199.425,351.624ZM202.881,345.756C203.337,345.756 203.715,345.905 204.013,346.202C204.311,346.5 204.459,346.878 204.459,347.334C204.459,347.791 204.311,348.169 204.013,348.466C203.715,348.764 203.337,348.913 202.881,348.913C202.424,348.913 202.047,348.764 201.749,348.466C201.451,348.169 201.302,347.791 201.302,347.334C201.302,346.878 201.451,346.5 201.749,346.202C202.047,345.905 202.424,345.756 202.881,345.756ZM201.659,351.624L204.102,351.624L204.102,366.817L201.659,366.817L201.659,351.624ZM209.345,361.812C209.385,362.726 209.787,363.471 210.552,364.047C211.316,364.623 212.304,364.911 213.516,364.911C214.588,364.911 215.457,364.697 216.122,364.27C216.788,363.843 217.12,363.282 217.12,362.587C217.12,361.991 216.961,361.534 216.644,361.217C216.326,360.899 215.914,360.68 215.407,360.561C214.901,360.442 214.181,360.323 213.248,360.204C211.937,360.045 210.864,359.836 210.03,359.578C209.196,359.32 208.521,358.908 208.005,358.342C207.488,357.776 207.23,356.996 207.23,356.003C207.23,355.11 207.483,354.315 207.99,353.62C208.496,352.925 209.186,352.384 210.06,351.997C210.934,351.609 211.917,351.416 213.009,351.416C214.797,351.416 216.251,351.833 217.374,352.667C218.496,353.501 219.116,354.693 219.235,356.242L216.793,356.242C216.693,355.447 216.306,354.792 215.631,354.276C214.956,353.759 214.111,353.501 213.099,353.501C212.066,353.501 211.232,353.715 210.596,354.142C209.961,354.568 209.643,355.13 209.643,355.825C209.643,356.341 209.792,356.738 210.09,357.016C210.388,357.294 210.77,357.483 211.237,357.582C211.703,357.682 212.413,357.791 213.367,357.91C214.697,358.069 215.795,358.287 216.659,358.565C217.522,358.843 218.218,359.29 218.744,359.906C219.27,360.522 219.533,361.356 219.533,362.408C219.533,363.322 219.265,364.126 218.729,364.821C218.193,365.516 217.468,366.053 216.554,366.43C215.641,366.807 214.628,366.996 213.516,366.996C211.53,366.996 209.936,366.539 208.734,365.626C207.533,364.712 206.922,363.441 206.902,361.812L209.345,361.812ZM236.514,364.583L236.514,366.817L235.173,366.817C234.2,366.817 233.505,366.619 233.088,366.221C232.671,365.824 232.452,365.238 232.432,364.464C231.261,366.152 229.563,366.996 227.338,366.996C225.65,366.996 224.295,366.599 223.272,365.804C222.249,365.01 221.738,363.928 221.738,362.557C221.738,361.028 222.259,359.856 223.302,359.042C224.344,358.228 225.859,357.821 227.845,357.821L232.313,357.821L232.313,356.778C232.313,355.785 231.981,355.01 231.315,354.454C230.65,353.898 229.722,353.62 228.53,353.62C227.477,353.62 226.608,353.854 225.923,354.32C225.238,354.787 224.816,355.408 224.657,356.182L222.214,356.182C222.393,354.693 223.053,353.531 224.195,352.697C225.337,351.863 226.822,351.445 228.649,351.445C230.595,351.445 232.1,351.917 233.162,352.861C234.225,353.804 234.756,355.159 234.756,356.927L234.756,363.481C234.756,364.216 235.094,364.583 235.769,364.583L236.514,364.583ZM232.313,359.876L227.606,359.876C225.342,359.876 224.21,360.72 224.21,362.408C224.21,363.163 224.508,363.769 225.104,364.225C225.7,364.682 226.504,364.911 227.517,364.911C229.007,364.911 230.178,364.518 231.032,363.734C231.886,362.949 232.313,361.912 232.313,360.621L232.313,359.876Z" style="fill:rgb(245,52,64);"/>
        </g>
        <g transform="matrix(1.39546,0,0,1.39546,752.902,197.798)">
            <path d="M90.959,345.964C92.33,345.964 93.541,346.227 94.594,346.754C95.646,347.28 96.46,348.025 97.036,348.988C97.612,349.951 97.9,351.078 97.9,352.369C97.9,353.819 97.498,355.075 96.694,356.137C95.889,357.2 94.812,357.92 93.462,358.297L98.139,366.817L95.219,366.817L90.9,358.804L85.567,358.804L85.567,366.817L82.975,366.817L82.975,345.964L90.959,345.964ZM85.567,356.42L90.751,356.42C92.121,356.42 93.213,356.053 94.028,355.318C94.842,354.583 95.249,353.6 95.249,352.369C95.249,351.158 94.842,350.184 94.028,349.45C93.213,348.715 92.131,348.347 90.78,348.347L85.567,348.347L85.567,356.42ZM107.046,366.996C105.576,366.996 104.27,366.668 103.128,366.013C101.986,365.357 101.098,364.444 100.462,363.272C99.827,362.1 99.509,360.75 99.509,359.221C99.509,357.691 99.827,356.341 100.462,355.169C101.098,353.998 101.986,353.084 103.128,352.429C104.27,351.773 105.576,351.445 107.046,351.445C108.515,351.445 109.821,351.773 110.963,352.429C112.105,353.084 112.994,353.998 113.629,355.169C114.265,356.341 114.583,357.691 114.583,359.221C114.583,360.75 114.265,362.1 113.629,363.272C112.994,364.444 112.105,365.357 110.963,366.013C109.821,366.668 108.515,366.996 107.046,366.996ZM107.046,364.821C108.039,364.821 108.918,364.583 109.682,364.106C110.447,363.63 111.038,362.964 111.455,362.11C111.872,361.256 112.08,360.293 112.08,359.221C112.08,358.148 111.872,357.185 111.455,356.331C111.038,355.477 110.447,354.812 109.682,354.335C108.918,353.858 108.039,353.62 107.046,353.62C106.053,353.62 105.174,353.858 104.409,354.335C103.645,354.812 103.054,355.477 102.637,356.331C102.22,357.185 102.011,358.148 102.011,359.221C102.011,360.293 102.22,361.256 102.637,362.11C103.054,362.964 103.645,363.63 104.409,364.106C105.174,364.583 106.053,364.821 107.046,364.821ZM119.23,361.812C119.27,362.726 119.672,363.471 120.436,364.047C121.201,364.623 122.189,364.911 123.401,364.911C124.473,364.911 125.342,364.697 126.007,364.27C126.673,363.843 127.005,363.282 127.005,362.587C127.005,361.991 126.846,361.534 126.529,361.217C126.211,360.899 125.799,360.68 125.292,360.561C124.786,360.442 124.066,360.323 123.132,360.204C121.822,360.045 120.749,359.836 119.915,359.578C119.081,359.32 118.406,358.908 117.889,358.342C117.373,357.776 117.115,356.996 117.115,356.003C117.115,355.11 117.368,354.315 117.875,353.62C118.381,352.925 119.071,352.384 119.945,351.997C120.819,351.609 121.802,351.416 122.894,351.416C124.682,351.416 126.136,351.833 127.258,352.667C128.381,353.501 129.001,354.693 129.12,356.242L126.678,356.242C126.578,355.447 126.191,354.792 125.516,354.276C124.84,353.759 123.996,353.501 122.984,353.501C121.951,353.501 121.117,353.715 120.481,354.142C119.846,354.568 119.528,355.13 119.528,355.825C119.528,356.341 119.677,356.738 119.975,357.016C120.273,357.294 120.655,357.483 121.122,357.582C121.588,357.682 122.298,357.791 123.252,357.91C124.582,358.069 125.68,358.287 126.543,358.565C127.407,358.843 128.102,359.29 128.629,359.906C129.155,360.522 129.418,361.356 129.418,362.408C129.418,363.322 129.15,364.126 128.614,364.821C128.078,365.516 127.353,366.053 126.439,366.43C125.526,366.807 124.513,366.996 123.401,366.996C121.415,366.996 119.821,366.539 118.619,365.626C117.418,364.712 116.807,363.441 116.787,361.812L119.23,361.812ZM133.202,353.858L130.461,353.858L130.461,351.624L133.202,351.624L133.202,347.364L135.644,347.364L135.644,351.624L139.487,351.624L139.487,353.858L135.644,353.858L135.644,362.825C135.644,363.461 135.768,363.913 136.017,364.181C136.265,364.449 136.697,364.583 137.313,364.583L139.964,364.583L139.964,366.817L137.164,366.817C135.734,366.817 134.716,366.499 134.11,365.864C133.504,365.228 133.202,364.225 133.202,362.855L133.202,353.858ZM149.407,351.624L149.407,354.007L148.186,354.007C146.736,354.007 145.699,354.494 145.073,355.467C144.447,356.44 144.135,357.642 144.135,359.072L144.135,366.817L141.692,366.817L141.692,351.624L143.807,351.624L144.135,353.918C144.571,353.223 145.137,352.667 145.833,352.25C146.528,351.833 147.491,351.624 148.722,351.624L149.407,351.624ZM157.778,366.996C156.309,366.996 155.003,366.668 153.861,366.013C152.719,365.357 151.83,364.444 151.195,363.272C150.559,362.1 150.241,360.75 150.241,359.221C150.241,357.691 150.559,356.341 151.195,355.169C151.83,353.998 152.719,353.084 153.861,352.429C155.003,351.773 156.309,351.445 157.778,351.445C159.248,351.445 160.554,351.773 161.696,352.429C162.838,353.084 163.726,353.998 164.362,355.169C164.998,356.341 165.315,357.691 165.315,359.221C165.315,360.75 164.998,362.1 164.362,363.272C163.726,364.444 162.838,365.357 161.696,366.013C160.554,366.668 159.248,366.996 157.778,366.996ZM157.778,364.821C158.771,364.821 159.65,364.583 160.415,364.106C161.179,363.63 161.77,362.964 162.187,362.11C162.604,361.256 162.813,360.293 162.813,359.221C162.813,358.148 162.604,357.185 162.187,356.331C161.77,355.477 161.179,354.812 160.415,354.335C159.65,353.858 158.771,353.62 157.778,353.62C156.785,353.62 155.907,353.858 155.142,354.335C154.377,354.812 153.787,355.477 153.369,356.331C152.952,357.185 152.744,358.148 152.744,359.221C152.744,360.293 152.952,361.256 153.369,362.11C153.787,362.964 154.377,363.63 155.142,364.106C155.907,364.583 156.785,364.821 157.778,364.821ZM183.189,345.964C181.402,348.427 180.141,350.646 179.406,352.622C178.671,354.598 178.304,356.847 178.304,359.37C178.304,361.872 178.671,364.111 179.406,366.087C180.141,368.063 181.402,370.293 183.189,372.775L180.627,372.775C178.959,370.511 177.753,368.332 177.008,366.236C176.263,364.141 175.891,361.852 175.891,359.37C175.891,356.867 176.263,354.578 177.008,352.503C177.753,350.428 178.959,348.248 180.627,345.964L183.189,345.964ZM186.764,361.812C186.804,362.726 187.206,363.471 187.971,364.047C188.735,364.623 189.723,364.911 190.935,364.911C192.007,364.911 192.876,364.697 193.541,364.27C194.207,363.843 194.539,363.282 194.539,362.587C194.539,361.991 194.381,361.534 194.063,361.217C193.745,360.899 193.333,360.68 192.826,360.561C192.32,360.442 191.6,360.323 190.667,360.204C189.356,360.045 188.283,359.836 187.449,359.578C186.615,359.32 185.94,358.908 185.424,358.342C184.907,357.776 184.649,356.996 184.649,356.003C184.649,355.11 184.902,354.315 185.409,353.62C185.915,352.925 186.605,352.384 187.479,351.997C188.353,351.609 189.336,351.416 190.428,351.416C192.216,351.416 193.671,351.833 194.793,352.667C195.915,353.501 196.535,354.693 196.654,356.242L194.212,356.242C194.112,355.447 193.725,354.792 193.05,354.276C192.375,353.759 191.531,353.501 190.518,353.501C189.485,353.501 188.651,353.715 188.015,354.142C187.38,354.568 187.062,355.13 187.062,355.825C187.062,356.341 187.211,356.738 187.509,357.016C187.807,357.294 188.189,357.483 188.656,357.582C189.123,357.682 189.833,357.791 190.786,357.91C192.116,358.069 193.214,358.287 194.078,358.565C194.942,358.843 195.637,359.29 196.163,359.906C196.689,360.522 196.952,361.356 196.952,362.408C196.952,363.322 196.684,364.126 196.148,364.821C195.612,365.516 194.887,366.053 193.973,366.43C193.06,366.807 192.047,366.996 190.935,366.996C188.949,366.996 187.355,366.539 186.153,365.626C184.952,364.712 184.341,363.441 184.321,361.812L186.764,361.812ZM199.187,359.221C199.187,357.672 199.49,356.311 200.095,355.139C200.701,353.968 201.55,353.059 202.642,352.414C203.735,351.768 204.986,351.445 206.396,351.445C207.786,351.445 209.017,351.733 210.09,352.309C211.162,352.885 212.006,353.719 212.622,354.812C213.238,355.904 213.565,357.185 213.605,358.655C213.605,358.873 213.585,359.221 213.545,359.697L201.749,359.697L201.749,359.906C201.788,361.395 202.245,362.587 203.119,363.481C203.993,364.374 205.135,364.821 206.545,364.821C207.637,364.821 208.566,364.548 209.33,364.002C210.095,363.456 210.606,362.696 210.864,361.723L213.337,361.723C213.039,363.272 212.294,364.538 211.103,365.521C209.911,366.504 208.451,366.996 206.724,366.996C205.214,366.996 203.893,366.673 202.761,366.028C201.629,365.382 200.751,364.469 200.125,363.287C199.499,362.105 199.187,360.75 199.187,359.221ZM211.073,357.672C210.954,356.381 210.472,355.378 209.628,354.663C208.784,353.948 207.717,353.59 206.426,353.59C205.274,353.59 204.261,353.968 203.387,354.722C202.513,355.477 202.017,356.46 201.898,357.672L211.073,357.672ZM224.121,351.624L224.121,354.007L222.9,354.007C221.45,354.007 220.412,354.494 219.787,355.467C219.161,356.44 218.848,357.642 218.848,359.072L218.848,366.817L216.405,366.817L216.405,351.624L218.52,351.624L218.848,353.918C219.285,353.223 219.851,352.667 220.546,352.25C221.241,351.833 222.204,351.624 223.436,351.624L224.121,351.624ZM224.985,351.624L227.606,351.624L232.194,364.047L236.752,351.624L239.314,351.624L233.624,366.817L230.675,366.817L224.985,351.624ZM242.353,345.756C242.809,345.756 243.187,345.905 243.485,346.202C243.782,346.5 243.931,346.878 243.931,347.334C243.931,347.791 243.782,348.169 243.485,348.466C243.187,348.764 242.809,348.913 242.353,348.913C241.896,348.913 241.518,348.764 241.22,348.466C240.923,348.169 240.774,347.791 240.774,347.334C240.774,346.878 240.923,346.5 241.22,346.202C241.518,345.905 241.896,345.756 242.353,345.756ZM241.131,351.624L243.574,351.624L243.574,366.817L241.131,366.817L241.131,351.624ZM260.465,361.574C260.147,363.262 259.402,364.588 258.231,365.551C257.059,366.514 255.569,366.996 253.762,366.996C252.292,366.996 251.002,366.668 249.889,366.013C248.777,365.357 247.913,364.439 247.298,363.257C246.682,362.076 246.374,360.72 246.374,359.191C246.374,357.662 246.687,356.311 247.313,355.139C247.938,353.968 248.817,353.059 249.949,352.414C251.081,351.768 252.382,351.445 253.852,351.445C255.639,351.445 257.114,351.922 258.275,352.875C259.437,353.829 260.167,355.139 260.465,356.808L257.992,356.808C257.754,355.835 257.258,355.06 256.503,354.484C255.748,353.908 254.835,353.62 253.762,353.62C252.312,353.62 251.136,354.137 250.232,355.169C249.328,356.202 248.877,357.543 248.877,359.191C248.877,360.859 249.328,362.215 250.232,363.257C251.136,364.3 252.312,364.821 253.762,364.821C254.874,364.821 255.808,364.533 256.562,363.957C257.317,363.381 257.804,362.587 258.022,361.574L260.465,361.574ZM264.516,345.756C264.973,345.756 265.35,345.905 265.648,346.202C265.946,346.5 266.095,346.878 266.095,347.334C266.095,347.791 265.946,348.169 265.648,348.466C265.35,348.764 264.973,348.913 264.516,348.913C264.06,348.913 263.682,348.764 263.384,348.466C263.086,348.169 262.937,347.791 262.937,347.334C262.937,346.878 263.086,346.5 263.384,346.202C263.682,345.905 264.06,345.756 264.516,345.756ZM263.295,351.624L265.738,351.624L265.738,366.817L263.295,366.817L263.295,351.624ZM276.075,366.996C274.605,366.996 273.299,366.668 272.158,366.013C271.016,365.357 270.127,364.444 269.491,363.272C268.856,362.1 268.538,360.75 268.538,359.221C268.538,357.691 268.856,356.341 269.491,355.169C270.127,353.998 271.016,353.084 272.158,352.429C273.299,351.773 274.605,351.445 276.075,351.445C277.545,351.445 278.85,351.773 279.992,352.429C281.134,353.084 282.023,353.998 282.659,355.169C283.294,356.341 283.612,357.691 283.612,359.221C283.612,360.75 283.294,362.1 282.659,363.272C282.023,364.444 281.134,365.357 279.992,366.013C278.85,366.668 277.545,366.996 276.075,366.996ZM276.075,364.821C277.068,364.821 277.947,364.583 278.711,364.106C279.476,363.63 280.067,362.964 280.484,362.11C280.901,361.256 281.109,360.293 281.109,359.221C281.109,358.148 280.901,357.185 280.484,356.331C280.067,355.477 279.476,354.812 278.711,354.335C277.947,353.858 277.068,353.62 276.075,353.62C275.082,353.62 274.203,353.858 273.439,354.335C272.674,354.812 272.083,355.477 271.666,356.331C271.249,357.185 271.04,358.148 271.04,359.221C271.04,360.293 271.249,361.256 271.666,362.11C272.083,362.964 272.674,363.63 273.439,364.106C274.203,364.583 275.082,364.821 276.075,364.821ZM287.455,345.964C289.123,348.248 290.329,350.428 291.074,352.503C291.819,354.578 292.191,356.867 292.191,359.37C292.191,361.852 291.819,364.141 291.074,366.236C290.329,368.332 289.123,370.511 287.455,372.775L284.893,372.775C286.68,370.293 287.941,368.063 288.676,366.087C289.411,364.111 289.778,361.872 289.778,359.37C289.778,356.847 289.411,354.598 288.676,352.622C287.941,350.646 286.68,348.427 284.893,345.964L287.455,345.964Z" style="fill:rgb(245,52,64);"/>
        </g>
        <g transform="matrix(4.56384,0,0,4.56384,1607.61,566.057)">
            <path d="M-22.949,1.374C-25.209,1.384 -27.477,1.089 -29.636,0.456C-30.206,0.27 -30.785,0.112 -31.343,-0.102C-31.623,-0.208 -31.902,-0.313 -32.178,-0.427L-32.592,-0.594L-32.996,-0.783C-34.081,-1.268 -35.123,-1.833 -36.111,-2.465C-38.092,-3.725 -39.876,-5.226 -41.43,-6.902C-42.209,-7.738 -42.927,-8.621 -43.589,-9.539C-43.634,-9.603 -43.678,-9.668 -43.723,-9.732C-43.719,-9.438 -43.727,-9.145 -43.752,-8.855C-43.801,-8.197 -43.919,-7.552 -44.095,-6.925C-44.273,-6.3 -44.501,-5.687 -44.837,-5.121C-45.034,-6.407 -45.275,-7.598 -45.438,-8.764C-45.692,-10.581 -44.875,-13.06 -41.651,-12.302L-39.892,-11.802C-39.289,-11.629 -38.676,-11.454 -38.029,-11.225C-38.634,-10.89 -39.278,-10.699 -39.93,-10.561C-40.583,-10.428 -41.25,-10.365 -41.922,-10.375C-42.045,-10.378 -42.168,-10.385 -42.291,-10.391C-41.931,-10.16 -41.565,-9.94 -41.209,-9.712C-40.757,-9.418 -40.288,-9.152 -39.826,-8.883C-37.98,-7.806 -36.118,-6.852 -34.22,-6.084C-33.754,-5.875 -33.271,-5.712 -32.793,-5.541C-32.322,-5.356 -31.837,-5.217 -31.36,-5.062L-31.002,-4.949L-30.638,-4.856C-30.395,-4.796 -30.155,-4.729 -29.916,-4.662C-29.437,-4.527 -28.945,-4.447 -28.464,-4.334C-26.762,-3.996 -25.044,-3.835 -23.326,-3.834C-23.315,-3.839 -23.064,-3.837 -22.949,-3.836C-22.834,-3.837 -22.583,-3.839 -22.573,-3.834C-20.854,-3.835 -19.136,-3.996 -17.434,-4.334C-16.953,-4.447 -16.461,-4.527 -15.982,-4.662C-15.743,-4.729 -15.503,-4.796 -15.26,-4.856L-14.896,-4.949L-14.538,-5.062C-14.061,-5.217 -13.576,-5.356 -13.105,-5.541C-12.627,-5.712 -12.144,-5.875 -11.678,-6.084C-9.78,-6.852 -7.918,-7.806 -6.072,-8.883C-5.61,-9.152 -5.141,-9.418 -4.689,-9.712C-4.333,-9.94 -3.967,-10.16 -3.607,-10.391C-3.73,-10.385 -3.853,-10.378 -3.976,-10.375C-4.648,-10.365 -5.315,-10.428 -5.968,-10.561C-6.62,-10.699 -7.264,-10.89 -7.869,-11.225C-7.222,-11.454 -6.609,-11.629 -6.006,-11.802L-4.247,-12.302C-1.024,-13.06 -0.206,-10.581 -0.46,-8.764C-0.623,-7.598 -0.864,-6.407 -1.061,-5.121C-1.397,-5.687 -1.625,-6.3 -1.803,-6.925C-1.979,-7.552 -2.097,-8.197 -2.146,-8.855C-2.171,-9.145 -2.179,-9.438 -2.175,-9.732C-2.22,-9.668 -2.264,-9.603 -2.309,-9.539C-2.971,-8.621 -3.689,-7.738 -4.468,-6.902C-6.022,-5.226 -7.806,-3.725 -9.787,-2.465C-10.775,-1.833 -11.817,-1.268 -12.902,-0.783L-13.306,-0.594L-13.72,-0.427C-13.996,-0.313 -14.275,-0.208 -14.555,-0.102C-15.113,0.112 -15.692,0.27 -16.262,0.456C-18.421,1.089 -20.69,1.384 -22.949,1.374Z" style="fill:rgb(0,40,86);"/>
        </g>
        <g transform="matrix(0.943787,0,0,0.943787,551.229,420.654)">
            <path d="M-18.485,199.912L-20.038,197.86C-21.936,195.354 -28.805,192.077 -36.76,188.283C-60.39,177.014 -95.129,158.865 -97.762,117.785C-100.421,119.472 -102.678,122.329 -106.59,126.449C-105.695,109.156 -99.405,102.961 -96.46,100.249L-96.46,100.247L-96.458,100.248L-96.458,100.247L-96.455,100.25C-93.761,102.178 -86.345,105.629 -78.649,117.377C-78.649,117.377 -86.512,115.208 -91.386,115.875C-91.394,121.413 -88.375,127.3 -84.373,132.584C-70.71,148.644 -50.119,158.467 -35.082,165.639C-32.334,166.949 -29.82,168.15 -27.576,169.277L-27.576,78.682L-53.785,78.682C-55.707,82.614 -59.746,85.324 -64.413,85.324C-70.937,85.324 -76.234,80.027 -76.234,73.503C-76.234,66.979 -70.937,61.682 -64.413,61.682C-59.665,61.682 -55.567,64.487 -53.688,68.529L-27.576,68.529L-27.576,40.308C-38.005,36.567 -45.486,26.585 -45.486,14.885C-45.486,8.154 -43.004,1.995 -38.916,-2.739C-38.906,-2.75 -38.896,-2.761 -38.887,-2.772C-37.753,-4.079 -36.498,-5.277 -35.137,-6.347C-35.06,-6.407 -34.984,-6.468 -34.908,-6.527C-34.695,-6.69 -34.48,-6.849 -34.263,-7.006C-34.158,-7.082 -34.052,-7.157 -33.946,-7.232C-33.738,-7.377 -33.53,-7.521 -33.318,-7.661C-33.198,-7.741 -33.076,-7.817 -32.955,-7.894C-32.747,-8.027 -32.54,-8.16 -32.328,-8.287C-32.203,-8.362 -32.075,-8.432 -31.949,-8.505C-31.589,-8.712 -31.225,-8.912 -30.854,-9.104C-30.677,-9.196 -30.5,-9.289 -30.321,-9.378C-30.144,-9.465 -29.963,-9.546 -29.784,-9.629C-29.594,-9.717 -29.404,-9.805 -29.211,-9.889C-29.035,-9.965 -28.857,-10.039 -28.679,-10.112C-28.476,-10.195 -28.271,-10.276 -28.064,-10.355C-27.893,-10.42 -27.722,-10.485 -27.549,-10.546C-27.319,-10.629 -27.087,-10.706 -26.854,-10.782C-26.701,-10.832 -26.548,-10.885 -26.394,-10.932C-26.042,-11.04 -25.688,-11.141 -25.33,-11.235C-25.248,-11.257 -25.165,-11.277 -25.083,-11.298C-24.733,-11.386 -24.382,-11.468 -24.028,-11.542C-23.887,-11.571 -23.745,-11.596 -23.603,-11.623C-23.333,-11.676 -23.063,-11.725 -22.791,-11.769C-22.633,-11.794 -22.475,-11.817 -22.316,-11.84C-22.051,-11.878 -21.786,-11.912 -21.519,-11.941C-21.361,-11.959 -21.204,-11.977 -21.045,-11.992C-20.759,-12.019 -20.47,-12.039 -20.182,-12.058C-20.044,-12.066 -19.908,-12.078 -19.77,-12.084C-19.344,-12.104 -18.916,-12.117 -18.485,-12.117C-18.053,-12.117 -17.625,-12.104 -17.199,-12.084C-17.061,-12.078 -16.925,-12.066 -16.787,-12.058C-16.499,-12.039 -16.21,-12.019 -15.924,-11.992C-15.765,-11.977 -15.608,-11.959 -15.45,-11.941C-15.183,-11.912 -14.918,-11.878 -14.653,-11.84C-14.494,-11.817 -14.336,-11.794 -14.178,-11.769C-13.906,-11.725 -13.636,-11.676 -13.366,-11.623C-13.224,-11.596 -13.082,-11.571 -12.941,-11.542C-12.587,-11.468 -12.236,-11.386 -11.886,-11.298C-11.804,-11.277 -11.721,-11.257 -11.639,-11.235C-11.281,-11.141 -10.927,-11.04 -10.575,-10.932C-10.421,-10.885 -10.268,-10.832 -10.115,-10.782C-9.882,-10.706 -9.65,-10.629 -9.42,-10.546C-9.247,-10.485 -9.076,-10.42 -8.905,-10.355C-8.698,-10.276 -8.493,-10.195 -8.29,-10.112C-8.112,-10.039 -7.934,-9.965 -7.758,-9.889C-7.565,-9.805 -7.375,-9.717 -7.185,-9.629C-7.006,-9.546 -6.825,-9.465 -6.648,-9.378C-6.469,-9.289 -6.292,-9.196 -6.115,-9.104C-5.744,-8.912 -5.38,-8.712 -5.02,-8.505C-4.894,-8.432 -4.766,-8.362 -4.641,-8.287C-4.429,-8.16 -4.222,-8.027 -4.014,-7.894C-3.893,-7.817 -3.771,-7.741 -3.651,-7.661C-3.439,-7.521 -3.231,-7.377 -3.023,-7.232C-2.917,-7.157 -2.811,-7.082 -2.706,-7.006C-2.489,-6.849 -2.274,-6.69 -2.061,-6.527C-1.985,-6.468 -1.909,-6.407 -1.832,-6.347C-0.471,-5.277 0.784,-4.079 1.918,-2.772C1.927,-2.761 1.937,-2.75 1.947,-2.739C6.035,1.995 8.517,8.154 8.517,14.885C8.517,26.585 1.036,36.567 -9.393,40.308L-9.393,68.529L16.719,68.529C18.598,64.487 22.696,61.682 27.444,61.682C33.968,61.682 39.265,66.979 39.265,73.503C39.265,80.027 33.968,85.324 27.444,85.324C22.777,85.324 18.738,82.614 16.816,78.682L-9.393,78.682L-9.393,169.277C-7.149,168.15 -4.635,166.949 -1.887,165.639C13.15,158.467 33.741,148.644 47.404,132.584C51.406,127.3 54.425,121.413 54.417,115.875C49.543,115.208 41.68,117.377 41.68,117.377C49.376,105.629 56.792,102.178 59.486,100.25L59.489,100.247L59.489,100.248L59.491,100.247L59.491,100.249C62.436,102.961 68.726,109.156 69.621,126.449C65.709,122.329 63.452,119.472 60.793,117.785C58.16,158.865 23.421,177.014 -0.209,188.283C-8.164,192.077 -15.033,195.354 -16.931,197.86L-18.485,199.912ZM-18.485,2.864C-24.963,2.864 -30.223,8.124 -30.223,14.603C-30.223,21.082 -24.963,26.342 -18.485,26.342C-12.006,26.342 -6.746,21.082 -6.746,14.603C-6.746,8.124 -12.006,2.864 -18.485,2.864Z" style="fill:rgb(4,48,87);"/>
        </g>
        <g transform="matrix(1.15119,0,0,1.43566,439.074,267.882)">
            <path d="M500,102.271C518.574,102.271 535.326,106.508 547.51,116.961C559.344,127.115 567.01,143.377 567.01,168.139C567.01,192.902 559.344,209.163 547.51,219.317C535.326,229.771 518.574,234.008 500,234.008C481.414,234.008 464.637,229.32 452.446,218.617C440.612,208.228 432.99,191.959 432.99,168.139C432.99,142.038 440.721,125.788 452.556,115.967C464.727,105.867 481.445,102.271 500,102.271ZM444.688,161.492C444.567,163.624 444.506,165.839 444.506,168.139C444.506,188.956 450.607,203.311 460.948,212.39C470.932,221.154 484.78,224.774 500,224.774C515.232,224.774 529.105,221.585 539.096,213.012C549.437,204.14 555.494,189.777 555.494,168.139C555.494,160.997 554.834,154.648 553.578,149.026C513.871,158.458 485.97,140.393 481.706,133.256C474.486,151.923 454.684,159.033 444.688,161.492ZM476.07,165.873C481.484,165.873 485.88,169.397 485.88,173.739C485.88,178.08 481.484,181.605 476.07,181.605C470.656,181.605 466.26,178.08 466.26,173.739C466.26,169.397 470.656,165.873 476.07,165.873ZM523.93,165.873C529.344,165.873 533.74,169.397 533.74,173.739C533.74,178.08 529.344,181.605 523.93,181.605C518.516,181.605 514.12,178.08 514.12,173.739C514.12,169.397 518.516,165.873 523.93,165.873Z" style="fill:rgb(0,40,86);"/>
        </g>
    </g>
</svg>
