<?xml version="1.0" encoding="UTF-8" standalone="no"?>
<!DOCTYPE svg PUBLIC "-//W3C//DTD SVG 1.1//EN" "http://www.w3.org/Graphics/SVG/1.1/DTD/svg11.dtd">
<svg width="100%" height="100%" viewBox="0 0 1000 400" version="1.1" xmlns="http://www.w3.org/2000/svg" xmlns:xlink="http://www.w3.org/1999/xlink" xml:space="preserve" xmlns:serif="http://www.serif.com/" style="fill-rule:evenodd;clip-rule:evenodd;stroke-linejoin:round;stroke-miterlimit:2;">
    <g transform="matrix(1.15542,0,0,1.15542,-47.7418,-31.3637)">
        <g>
            <g transform="matrix(7.95878,0,0,7.95878,206.691,184.304)">
                <path d="M0,8.284L0,1.497C0,0.509 -0.148,-0.376 -0.443,-1.155C-0.739,-1.935 -1.192,-2.551 -1.804,-3.005C-2.416,-3.458 -3.195,-3.685 -4.143,-3.685C-5.233,-3.685 -6.245,-3.407 -7.177,-2.852C-7.75,-2.511 -8.271,-2.128 -8.754,-1.712C-8.833,-2.159 -8.98,-2.537 -9.195,-2.844C-9.537,-3.334 -10.084,-3.578 -10.838,-3.578L-12.275,-3.578L-12.489,-3.364L-12.489,11.754C-11.918,11.846 -11.276,11.892 -10.563,11.892C-9.85,11.892 -9.223,11.846 -8.683,11.754L-8.683,1.284C-8.593,1.192 -8.503,1.1 -8.408,1.015C-7.929,0.593 -7.427,0.274 -6.902,0.06C-6.377,-0.154 -5.901,-0.261 -5.473,-0.261C-4.82,-0.261 -4.379,-0.054 -4.15,0.358C-3.921,0.771 -3.806,1.421 -3.806,2.307L-3.806,9.599C-3.806,10.363 -3.656,10.95 -3.355,11.357C-3.055,11.764 -2.527,11.969 -1.773,11.969C-1.305,11.969 -0.861,11.892 -0.443,11.739C-0.025,11.586 0.326,11.393 0.611,11.158C0.387,10.791 0.229,10.361 0.138,9.867C0.046,9.372 0,8.845 0,8.284" style="fill:rgb(0,112,121);fill-rule:nonzero;"/>
            </g>
            <g transform="matrix(7.95878,0,0,7.95878,305.744,229.191)">
                <path d="M0,-2.935L-5.299,-2.935C-5.239,-4.039 -5.031,-4.916 -4.67,-5.557C-4.237,-6.326 -3.562,-6.711 -2.645,-6.711C-2.002,-6.711 -1.49,-6.556 -1.108,-6.245C-0.726,-5.934 -0.446,-5.521 -0.267,-5.007C-0.089,-4.492 0,-3.924 0,-3.302L0,-2.935ZM0.749,-8.599C-0.168,-9.175 -1.294,-9.462 -2.629,-9.462C-4.127,-9.462 -5.358,-9.108 -6.321,-8.4C-7.284,-7.692 -8.002,-6.731 -8.476,-5.519C-8.95,-4.306 -9.187,-2.935 -9.187,-1.407C-9.187,-0.377 -9.083,0.611 -8.874,1.559C-8.665,2.507 -8.316,3.355 -7.827,4.104C-7.337,4.853 -6.672,5.444 -5.832,5.878C-4.991,6.311 -3.939,6.527 -2.675,6.527C-1.605,6.527 -0.553,6.374 0.481,6.068C1.516,5.763 2.405,5.34 3.149,4.8C3.088,4.423 2.966,4.012 2.782,3.569C2.599,3.126 2.359,2.762 2.064,2.476C1.422,2.772 0.754,3.024 0.062,3.233C-0.632,3.442 -1.345,3.546 -2.079,3.546C-2.976,3.546 -3.656,3.337 -4.12,2.919C-4.583,2.502 -4.899,1.941 -5.067,1.238C-5.177,0.777 -5.248,0.281 -5.286,-0.245L3.271,-0.245C3.383,-0.704 3.46,-1.129 3.5,-1.521C3.542,-1.914 3.562,-2.39 3.562,-2.951C3.562,-4.174 3.322,-5.276 2.843,-6.26C2.364,-7.244 1.667,-8.023 0.749,-8.599" style="fill:rgb(0,112,121);fill-rule:nonzero;"/>
            </g>
            <g transform="matrix(7.95878,0,0,7.95878,419.961,278.824)">
                <path d="M0,-15.5C-0.887,-15.5 -1.626,-15.304 -2.217,-14.912C-2.808,-14.519 -3.282,-13.997 -3.638,-13.345C-3.743,-13.154 -3.836,-12.957 -3.924,-12.756C-4.085,-13.201 -4.286,-13.606 -4.533,-13.964C-5.119,-14.815 -5.998,-15.332 -7.169,-15.516C-7.435,-15.322 -7.692,-15.026 -7.941,-14.629C-8.191,-14.231 -8.357,-13.865 -8.438,-13.528C-8.173,-13.304 -7.916,-12.935 -7.667,-12.42C-7.417,-11.905 -7.292,-11.22 -7.292,-10.364L-7.292,-0.122C-6.731,-0.03 -6.1,0.016 -5.396,0.016C-4.683,0.016 -4.051,-0.03 -3.501,-0.122L-3.501,-9.926C-3.32,-10.247 -3.119,-10.538 -2.897,-10.8C-2.606,-11.141 -2.268,-11.416 -1.88,-11.625C-1.493,-11.834 -1.045,-11.938 -0.535,-11.938C-0.301,-11.908 -0.069,-11.882 0.16,-11.862C0.39,-11.842 0.616,-11.795 0.84,-11.725C1.167,-12.244 1.404,-12.848 1.551,-13.536C1.699,-14.224 1.773,-14.807 1.773,-15.286C1.488,-15.357 1.208,-15.411 0.932,-15.447C0.657,-15.482 0.346,-15.5 0,-15.5" style="fill:rgb(0,112,121);fill-rule:nonzero;"/>
            </g>
            <g transform="matrix(7.95878,0,0,7.95878,551.755,277.855)">
                <path d="M0,-15.241C-0.342,-15.282 -0.675,-15.302 -1.001,-15.302C-1.226,-15.302 -1.458,-15.292 -1.697,-15.271C-1.937,-15.251 -2.173,-15.21 -2.408,-15.149L-5.633,-2.981C-5.807,-2.981 -5.903,-3.063 -5.924,-3.226C-5.985,-3.541 -6.069,-3.936 -6.176,-4.41C-6.283,-4.885 -6.397,-5.384 -6.52,-5.908C-6.642,-6.433 -6.775,-6.925 -6.917,-7.384L-8.69,-13.697C-8.844,-14.339 -9.093,-14.784 -9.439,-15.034C-9.786,-15.284 -10.245,-15.409 -10.815,-15.409C-11.131,-15.409 -11.476,-15.361 -11.847,-15.264C-12.219,-15.167 -12.594,-15.032 -12.971,-14.859L-8.966,-1.804C-8.711,-0.969 -8.382,-0.43 -7.98,-0.191C-7.577,0.048 -7.009,0.168 -6.275,0.168C-5.807,0.168 -5.325,0.155 -4.831,0.13C-4.336,0.104 -3.881,0.061 -3.462,-0C-3.188,-0.856 -2.861,-1.89 -2.484,-3.103C-2.107,-4.316 -1.71,-5.608 -1.292,-6.978C-0.874,-8.349 -0.461,-9.717 -0.054,-11.083C0.354,-12.449 0.726,-13.702 1.062,-14.844L0.94,-14.996C0.654,-15.118 0.341,-15.2 0,-15.241" style="fill:rgb(0,112,121);fill-rule:nonzero;"/>
            </g>
            <g transform="matrix(7.95878,0,0,7.95878,646.355,197.379)">
                <path d="M0,5.059C-0.158,5.839 -0.441,6.466 -0.848,6.939C-1.256,7.413 -1.852,7.65 -2.637,7.65C-3.411,7.65 -4.007,7.413 -4.425,6.939C-4.843,6.466 -5.128,5.839 -5.281,5.059C-5.434,4.28 -5.511,3.436 -5.511,2.529C-5.511,1.633 -5.434,0.792 -5.281,0.007C-5.128,-0.778 -4.843,-1.41 -4.425,-1.889C-4.007,-2.368 -3.411,-2.607 -2.637,-2.607C-1.852,-2.607 -1.256,-2.368 -0.848,-1.889C-0.441,-1.41 -0.158,-0.778 0,0.007C0.158,0.792 0.237,1.633 0.237,2.529C0.237,3.436 0.158,4.28 0,5.059M3.378,-1.636C2.874,-2.834 2.117,-3.771 1.108,-4.449C0.1,-5.127 -1.154,-5.465 -2.652,-5.465C-4.13,-5.465 -5.371,-5.129 -6.375,-4.457C-7.378,-3.784 -8.138,-2.849 -8.652,-1.651C-9.167,-0.454 -9.424,0.939 -9.424,2.529C-9.424,4.109 -9.169,5.5 -8.66,6.703C-8.15,7.905 -7.394,8.842 -6.39,9.515C-5.386,10.187 -4.14,10.524 -2.652,10.524C-1.164,10.524 0.084,10.19 1.093,9.523C2.102,8.855 2.861,7.92 3.371,6.718C3.88,5.516 4.135,4.119 4.135,2.529C4.135,0.95 3.883,-0.439 3.378,-1.636" style="fill:rgb(0,112,121);fill-rule:nonzero;"/>
            </g>
            <g transform="matrix(6.76199,-4.19735,-4.19735,-6.76199,747.551,245.787)">
                <path d="M-2.077,2.719L6.702,2.719L9.536,7.285L0.758,7.286L-2.077,2.719Z" style="fill:rgb(129,188,0);fill-rule:nonzero;"/>
            </g>
            <g transform="matrix(-6.76224,-4.19694,-4.19694,6.76224,806.916,189.578)">
                <path d="M-9.537,7.285L-0.757,7.285L2.077,2.719L-6.703,2.719L-9.537,7.285Z" style="fill:rgb(0,112,121);fill-rule:nonzero;"/>
            </g>
            <g transform="matrix(-6.76224,-4.19694,-4.19694,6.76224,814.899,76.0414)">
                <path d="M-10.54,10.803L-1.76,10.803L3.08,3.005L-5.7,3.005L-10.54,10.803Z" style="fill:rgb(0,112,121);fill-rule:nonzero;"/>
            </g>
        </g>
    </g>
</svg>
