<?xml version="1.0" encoding="UTF-8" standalone="no"?>
<!DOCTYPE svg PUBLIC "-//W3C//DTD SVG 1.1//EN" "http://www.w3.org/Graphics/SVG/1.1/DTD/svg11.dtd">
<svg width="100%" height="100%" viewBox="0 0 1000 400" version="1.1" xmlns="http://www.w3.org/2000/svg" xmlns:xlink="http://www.w3.org/1999/xlink" xml:space="preserve" xmlns:serif="http://www.serif.com/" style="fill-rule:evenodd;clip-rule:evenodd;stroke-linejoin:round;stroke-miterlimit:2;">
    <g transform="matrix(0,-0.716608,-0.716608,0,928.537,119.067)">
        <g transform="matrix(0,-1.3467,-0.854373,0,370.326,1746.62)">
            <path d="M441.463,752.848L441.463,777.76L439.385,777.76L439.385,759.184L434.132,777.76L432.67,777.76L427.395,759.148L427.395,777.76L425.316,777.76L425.316,752.848L427.554,752.848L433.401,773.44L439.248,752.848L441.463,752.848ZM456.4,767.14C456.4,767.764 456.377,768.424 456.332,769.12L446.328,769.12C446.404,771.064 446.827,772.582 447.596,773.674C448.365,774.766 449.297,775.312 450.393,775.312C451.292,775.312 452.042,774.982 452.643,774.322C453.245,773.662 453.667,772.78 453.911,771.676L456.149,771.676C455.814,773.572 455.144,775.114 454.139,776.302C453.134,777.49 451.886,778.084 450.393,778.084C449.206,778.084 448.144,777.664 447.207,776.824C446.271,775.984 445.536,774.79 445.003,773.242C444.471,771.694 444.204,769.9 444.204,767.86C444.204,765.82 444.463,764.032 444.981,762.496C445.498,760.96 446.225,759.778 447.162,758.95C448.098,758.122 449.175,757.708 450.393,757.708C451.581,757.708 452.632,758.116 453.545,758.932C454.459,759.748 455.163,760.87 455.658,762.298C456.153,763.726 456.4,765.34 456.4,767.14ZM454.253,766.456C454.253,765.208 454.078,764.134 453.728,763.234C453.378,762.334 452.902,761.65 452.301,761.182C451.699,760.714 451.033,760.48 450.302,760.48C449.251,760.48 448.357,761.008 447.619,762.064C446.88,763.12 446.458,764.584 446.351,766.456L454.253,766.456ZM461.676,760.732L461.676,772.36C461.676,773.32 461.805,773.998 462.064,774.394C462.323,774.79 462.772,774.988 463.412,774.988L464.942,774.988L464.942,777.76L463.069,777.76C461.912,777.76 461.044,777.34 460.465,776.5C459.887,775.66 459.598,774.28 459.598,772.36L459.598,760.732L457.976,760.732L457.976,758.032L459.598,758.032L459.598,753.064L461.676,753.064L461.676,758.032L464.942,758.032L464.942,760.732L461.676,760.732ZM472.913,778.084C471.74,778.084 470.678,777.664 469.727,776.824C468.775,775.984 468.029,774.79 467.488,773.242C466.948,771.694 466.678,769.9 466.678,767.86C466.678,765.844 466.956,764.062 467.511,762.514C468.067,760.966 468.825,759.778 469.784,758.95C470.743,758.122 471.816,757.708 473.004,757.708C474.192,757.708 475.265,758.122 476.224,758.95C477.184,759.778 477.941,760.96 478.497,762.496C479.053,764.032 479.331,765.82 479.331,767.86C479.331,769.9 479.045,771.694 478.474,773.242C477.903,774.79 477.13,775.984 476.156,776.824C475.181,777.664 474.1,778.084 472.913,778.084ZM472.913,775.204C473.659,775.204 474.359,774.928 475.014,774.376C475.669,773.824 476.198,772.996 476.601,771.892C477.005,770.788 477.207,769.444 477.207,767.86C477.207,766.276 477.009,764.932 476.613,763.828C476.217,762.724 475.699,761.902 475.06,761.362C474.42,760.822 473.727,760.552 472.981,760.552C472.22,760.552 471.523,760.822 470.892,761.362C470.26,761.902 469.753,762.724 469.373,763.828C468.992,764.932 468.802,766.276 468.802,767.86C468.802,769.468 468.988,770.824 469.361,771.928C469.734,773.032 470.233,773.854 470.857,774.394C471.482,774.934 472.167,775.204 472.913,775.204ZM481.295,767.824C481.295,765.808 481.554,764.038 482.071,762.514C482.589,760.99 483.301,759.808 484.207,758.968C485.113,758.128 486.129,757.708 487.256,757.708C488.23,757.708 489.136,758.062 489.974,758.77C490.811,759.478 491.45,760.408 491.892,761.56L491.892,751.12L493.993,751.12L493.993,777.76L491.892,777.76L491.892,774.052C491.481,775.228 490.872,776.194 490.065,776.95C489.258,777.706 488.314,778.084 487.233,778.084C486.121,778.084 485.113,777.652 484.207,776.788C483.301,775.924 482.589,774.712 482.071,773.152C481.554,771.592 481.295,769.816 481.295,767.824ZM491.892,767.86C491.892,766.372 491.702,765.076 491.321,763.972C490.94,762.868 490.427,762.022 489.779,761.434C489.132,760.846 488.42,760.552 487.644,760.552C486.867,760.552 486.159,760.84 485.52,761.416C484.88,761.992 484.37,762.832 483.99,763.936C483.609,765.04 483.419,766.336 483.419,767.824C483.419,769.336 483.609,770.65 483.99,771.766C484.37,772.882 484.88,773.734 485.52,774.322C486.159,774.91 486.867,775.204 487.644,775.204C488.42,775.204 489.132,774.91 489.779,774.322C490.427,773.734 490.94,772.882 491.321,771.766C491.702,770.65 491.892,769.348 491.892,767.86ZM502.969,778.084C501.797,778.084 500.735,777.664 499.783,776.824C498.831,775.984 498.085,774.79 497.545,773.242C497.004,771.694 496.734,769.9 496.734,767.86C496.734,765.844 497.012,764.062 497.568,762.514C498.123,760.966 498.881,759.778 499.84,758.95C500.799,758.122 501.873,757.708 503.06,757.708C504.248,757.708 505.321,758.122 506.281,758.95C507.24,759.778 507.997,760.96 508.553,762.496C509.109,764.032 509.387,765.82 509.387,767.86C509.387,769.9 509.101,771.694 508.53,773.242C507.959,774.79 507.187,775.984 506.212,776.824C505.238,777.664 504.157,778.084 502.969,778.084ZM502.969,775.204C503.715,775.204 504.415,774.928 505.07,774.376C505.725,773.824 506.254,772.996 506.657,771.892C507.061,770.788 507.263,769.444 507.263,767.86C507.263,766.276 507.065,764.932 506.669,763.828C506.273,762.724 505.755,761.902 505.116,761.362C504.476,760.822 503.784,760.552 503.037,760.552C502.276,760.552 501.58,760.822 500.948,761.362C500.316,761.902 499.81,762.724 499.429,763.828C499.048,764.932 498.858,766.276 498.858,767.86C498.858,769.468 499.044,770.824 499.417,771.928C499.791,773.032 500.289,773.854 500.913,774.394C501.538,774.934 502.223,775.204 502.969,775.204ZM514.206,751.12L514.206,777.76L512.127,777.76L512.127,751.12L514.206,751.12ZM523.204,778.084C522.032,778.084 520.97,777.664 520.018,776.824C519.067,775.984 518.321,774.79 517.78,773.242C517.24,771.694 516.969,769.9 516.969,767.86C516.969,765.844 517.247,764.062 517.803,762.514C518.359,760.966 519.116,759.778 520.075,758.95C521.035,758.122 522.108,757.708 523.296,757.708C524.483,757.708 525.557,758.122 526.516,758.95C527.475,759.778 528.233,760.96 528.789,762.496C529.344,764.032 529.622,765.82 529.622,767.86C529.622,769.9 529.337,771.694 528.766,773.242C528.195,774.79 527.422,775.984 526.448,776.824C525.473,777.664 524.392,778.084 523.204,778.084ZM523.204,775.204C523.95,775.204 524.651,774.928 525.306,774.376C525.96,773.824 526.489,772.996 526.893,771.892C527.296,770.788 527.498,769.444 527.498,767.86C527.498,766.276 527.3,764.932 526.904,763.828C526.508,762.724 525.991,761.902 525.351,761.362C524.712,760.822 524.019,760.552 523.273,760.552C522.512,760.552 521.815,760.822 521.183,761.362C520.551,761.902 520.045,762.724 519.664,763.828C519.284,764.932 519.093,766.276 519.093,767.86C519.093,769.468 519.28,770.824 519.653,771.928C520.026,773.032 520.525,773.854 521.149,774.394C521.773,774.934 522.458,775.204 523.204,775.204ZM537.524,757.708C538.606,757.708 539.553,758.08 540.368,758.824C541.183,759.568 541.788,760.504 542.184,761.632L542.184,758.032L544.285,758.032L544.285,778.192C544.285,779.992 544.041,781.594 543.554,782.998C543.067,784.402 542.37,785.5 541.464,786.292C540.558,787.084 539.504,787.48 538.301,787.48C536.657,787.48 535.286,786.868 534.19,785.644C533.094,784.42 532.447,782.752 532.249,780.64L534.304,780.64C534.533,781.84 535.005,782.806 535.72,783.538C536.436,784.27 537.296,784.636 538.301,784.636C539.443,784.636 540.376,784.072 541.099,782.944C541.822,781.816 542.184,780.232 542.184,778.192L542.184,774.052C541.773,775.204 541.163,776.164 540.357,776.932C539.55,777.7 538.606,778.084 537.524,778.084C536.413,778.084 535.404,777.652 534.498,776.788C533.592,775.924 532.881,774.712 532.363,773.152C531.845,771.592 531.586,769.816 531.586,767.824C531.586,765.808 531.845,764.038 532.363,762.514C532.881,760.99 533.592,759.808 534.498,758.968C535.404,758.128 536.413,757.708 537.524,757.708ZM542.184,767.86C542.184,766.372 541.993,765.076 541.613,763.972C541.232,762.868 540.718,762.022 540.071,761.434C539.424,760.846 538.712,760.552 537.936,760.552C537.159,760.552 536.451,760.84 535.812,761.416C535.172,761.992 534.662,762.832 534.281,763.936C533.901,765.04 533.71,766.336 533.71,767.824C533.71,769.336 533.901,770.65 534.281,771.766C534.662,772.882 535.172,773.734 535.812,774.322C536.451,774.91 537.159,775.204 537.936,775.204C538.712,775.204 539.424,774.91 540.071,774.322C540.718,773.734 541.232,772.882 541.613,771.766C541.993,770.65 542.184,769.348 542.184,767.86ZM549.88,758.032L549.88,777.76L547.802,777.76L547.802,758.032L549.88,758.032ZM551.068,752.452L546.203,756.556L546.203,754.108L551.068,749.608L551.068,752.452ZM552.644,767.824C552.644,765.808 552.903,764.038 553.42,762.514C553.938,760.99 554.65,759.808 555.556,758.968C556.462,758.128 557.471,757.708 558.582,757.708C559.678,757.708 560.63,758.08 561.437,758.824C562.244,759.568 562.845,760.504 563.241,761.632L563.241,758.032L565.342,758.032L565.342,777.76L563.241,777.76L563.241,774.088C562.83,775.24 562.217,776.194 561.403,776.95C560.588,777.706 559.64,778.084 558.559,778.084C557.448,778.084 556.443,777.652 555.544,776.788C554.646,775.924 553.938,774.712 553.42,773.152C552.903,771.592 552.644,769.816 552.644,767.824ZM563.241,767.86C563.241,766.372 563.051,765.076 562.67,763.972C562.29,762.868 561.776,762.022 561.129,761.434C560.482,760.846 559.77,760.552 558.993,760.552C558.217,760.552 557.509,760.84 556.869,761.416C556.23,761.992 555.72,762.832 555.339,763.936C554.958,765.04 554.768,766.336 554.768,767.824C554.768,769.336 554.958,770.65 555.339,771.766C555.72,772.882 556.23,773.734 556.869,774.322C557.509,774.91 558.217,775.204 558.993,775.204C559.77,775.204 560.482,774.91 561.129,774.322C561.776,773.734 562.29,772.882 562.67,771.766C563.051,770.65 563.241,769.348 563.241,767.86Z" style="fill:rgb(59,59,63);"/>
        </g>
        <g transform="matrix(0,-1.29126,-0.854373,0,370.326,1958.49)">
            <path d="M971.283,765.196C971.283,762.748 971.648,760.546 972.378,758.59C973.109,756.634 974.105,755.104 975.368,754C976.63,752.896 978.032,752.344 979.572,752.344C981.382,752.344 982.962,753.004 984.312,754.324C985.662,755.644 986.646,757.516 987.266,759.94L984.669,759.94C984.209,758.428 983.546,757.264 982.681,756.448C981.815,755.632 980.779,755.224 979.572,755.224C978.413,755.224 977.373,755.632 976.452,756.448C975.531,757.264 974.808,758.422 974.284,759.922C973.76,761.422 973.498,763.18 973.498,765.196C973.498,767.188 973.76,768.934 974.284,770.434C974.808,771.934 975.531,773.092 976.452,773.908C977.373,774.724 978.413,775.132 979.572,775.132C980.779,775.132 981.815,774.73 982.681,773.926C983.546,773.122 984.209,771.964 984.669,770.452L987.266,770.452C986.646,772.852 985.662,774.706 984.312,776.014C982.962,777.322 981.382,777.976 979.572,777.976C978.032,777.976 976.63,777.43 975.368,776.338C974.105,775.246 973.109,773.728 972.378,771.784C971.648,769.84 971.283,767.644 971.283,765.196ZM996.174,778.084C994.952,778.084 993.844,777.664 992.852,776.824C991.859,775.984 991.081,774.79 990.517,773.242C989.953,771.694 989.672,769.9 989.672,767.86C989.672,765.844 989.961,764.062 990.541,762.514C991.121,760.966 991.911,759.778 992.911,758.95C993.911,758.122 995.031,757.708 996.27,757.708C997.508,757.708 998.628,758.122 999.628,758.95C1000.63,759.778 1001.42,760.96 1002,762.496C1002.58,764.032 1002.87,765.82 1002.87,767.86C1002.87,769.9 1002.57,771.694 1001.97,773.242C1001.38,774.79 1000.57,775.984 999.557,776.824C998.54,777.664 997.413,778.084 996.174,778.084ZM996.174,775.204C996.952,775.204 997.683,774.928 998.366,774.376C999.049,773.824 999.6,772.996 1000.02,771.892C1000.44,770.788 1000.65,769.444 1000.65,767.86C1000.65,766.276 1000.45,764.932 1000.03,763.828C999.62,762.724 999.08,761.902 998.413,761.362C997.746,760.822 997.024,760.552 996.246,760.552C995.452,760.552 994.725,760.822 994.066,761.362C993.407,761.902 992.879,762.724 992.482,763.828C992.085,764.932 991.887,766.276 991.887,767.86C991.887,769.468 992.081,770.824 992.47,771.928C992.859,773.032 993.38,773.854 994.031,774.394C994.682,774.934 995.396,775.204 996.174,775.204ZM1012.09,757.672C1013.67,757.672 1014.96,758.398 1015.95,759.85C1016.93,761.302 1017.42,763.396 1017.42,766.132L1017.42,777.76L1015.28,777.76L1015.28,766.6C1015.28,764.632 1014.95,763.126 1014.3,762.082C1013.65,761.038 1012.76,760.516 1011.63,760.516C1010.49,760.516 1009.58,761.056 1008.91,762.136C1008.23,763.216 1007.89,764.788 1007.89,766.852L1007.89,777.76L1005.73,777.76L1005.73,758.032L1007.89,758.032L1007.89,760.84C1008.32,759.832 1008.91,759.052 1009.64,758.5C1010.38,757.948 1011.2,757.672 1012.09,757.672ZM1032.88,767.14C1032.88,767.764 1032.86,768.424 1032.81,769.12L1022.38,769.12C1022.46,771.064 1022.9,772.582 1023.7,773.674C1024.5,774.766 1025.47,775.312 1026.62,775.312C1027.55,775.312 1028.34,774.982 1028.96,774.322C1029.59,773.662 1030.03,772.78 1030.28,771.676L1032.62,771.676C1032.27,773.572 1031.57,775.114 1030.52,776.302C1029.47,777.49 1028.17,778.084 1026.62,778.084C1025.38,778.084 1024.27,777.664 1023.29,776.824C1022.32,775.984 1021.55,774.79 1021,773.242C1020.44,771.694 1020.16,769.9 1020.16,767.86C1020.16,765.82 1020.43,764.032 1020.97,762.496C1021.51,760.96 1022.27,759.778 1023.25,758.95C1024.22,758.122 1025.35,757.708 1026.62,757.708C1027.86,757.708 1028.95,758.116 1029.9,758.932C1030.86,759.748 1031.59,760.87 1032.11,762.298C1032.62,763.726 1032.88,765.34 1032.88,767.14ZM1030.64,766.456C1030.64,765.208 1030.46,764.134 1030.09,763.234C1029.73,762.334 1029.23,761.65 1028.61,761.182C1027.98,760.714 1027.28,760.48 1026.52,760.48C1025.42,760.48 1024.49,761.008 1023.72,762.064C1022.95,763.12 1022.51,764.584 1022.4,766.456L1030.64,766.456ZM1034.93,767.86C1034.93,765.82 1035.2,764.038 1035.74,762.514C1036.28,760.99 1037.03,759.808 1037.99,758.968C1038.95,758.128 1040.05,757.708 1041.29,757.708C1042.89,757.708 1044.21,758.296 1045.26,759.472C1046.3,760.648 1046.98,762.28 1047.32,764.368L1044.98,764.368C1044.76,763.168 1044.33,762.22 1043.68,761.524C1043.04,760.828 1042.24,760.48 1041.29,760.48C1040.05,760.48 1039.05,761.122 1038.29,762.406C1037.53,763.69 1037.14,765.508 1037.14,767.86C1037.14,770.236 1037.53,772.072 1038.29,773.368C1039.05,774.664 1040.05,775.312 1041.29,775.312C1042.24,775.312 1043.04,774.976 1043.67,774.304C1044.31,773.632 1044.74,772.672 1044.98,771.424L1047.32,771.424C1046.97,773.44 1046.27,775.054 1045.22,776.266C1044.17,777.478 1042.86,778.084 1041.29,778.084C1040.05,778.084 1038.95,777.664 1037.99,776.824C1037.03,775.984 1036.28,774.796 1035.74,773.26C1035.2,771.724 1034.93,769.924 1034.93,767.86ZM1052.84,760.732L1052.84,772.36C1052.84,773.32 1052.98,773.998 1053.25,774.394C1053.52,774.79 1053.99,774.988 1054.65,774.988L1056.25,774.988L1056.25,777.76L1054.29,777.76C1053.09,777.76 1052.18,777.34 1051.58,776.5C1050.98,775.66 1050.67,774.28 1050.67,772.36L1050.67,760.732L1048.98,760.732L1048.98,758.032L1050.67,758.032L1050.67,753.064L1052.84,753.064L1052.84,758.032L1056.25,758.032L1056.25,760.732L1052.84,760.732ZM1059.99,754.828C1059.58,754.828 1059.22,754.612 1058.94,754.18C1058.65,753.748 1058.51,753.22 1058.51,752.596C1058.51,751.972 1058.65,751.444 1058.94,751.012C1059.22,750.58 1059.58,750.364 1059.99,750.364C1060.38,750.364 1060.72,750.58 1061,751.012C1061.28,751.444 1061.42,751.972 1061.42,752.596C1061.42,753.22 1061.28,753.748 1061,754.18C1060.72,754.612 1060.38,754.828 1059.99,754.828ZM1061.04,758.032L1061.04,777.76L1058.87,777.76L1058.87,758.032L1061.04,758.032ZM1069.59,774.736L1073.64,758.032L1075.95,758.032L1070.83,777.76L1068.3,777.76L1063.18,758.032L1065.51,758.032L1069.59,774.736ZM1079.21,754.828C1078.8,754.828 1078.45,754.612 1078.16,754.18C1077.88,753.748 1077.73,753.22 1077.73,752.596C1077.73,751.972 1077.88,751.444 1078.16,751.012C1078.45,750.58 1078.8,750.364 1079.21,750.364C1079.61,750.364 1079.94,750.58 1080.22,751.012C1080.5,751.444 1080.64,751.972 1080.64,752.596C1080.64,753.22 1080.5,753.748 1080.22,754.18C1079.94,754.612 1079.61,754.828 1079.21,754.828ZM1080.26,758.032L1080.26,777.76L1078.09,777.76L1078.09,758.032L1080.26,758.032ZM1083.14,767.824C1083.14,765.808 1083.41,764.038 1083.95,762.514C1084.49,760.99 1085.23,759.808 1086.18,758.968C1087.12,758.128 1088.18,757.708 1089.36,757.708C1090.37,757.708 1091.32,758.062 1092.19,758.77C1093.07,759.478 1093.73,760.408 1094.19,761.56L1094.19,751.12L1096.38,751.12L1096.38,777.76L1094.19,777.76L1094.19,774.052C1093.76,775.228 1093.13,776.194 1092.29,776.95C1091.44,777.706 1090.46,778.084 1089.33,778.084C1088.17,778.084 1087.12,777.652 1086.18,776.788C1085.23,775.924 1084.49,774.712 1083.95,773.152C1083.41,771.592 1083.14,769.816 1083.14,767.824ZM1094.19,767.86C1094.19,766.372 1093.99,765.076 1093.6,763.972C1093.2,762.868 1092.66,762.022 1091.99,761.434C1091.31,760.846 1090.57,760.552 1089.76,760.552C1088.95,760.552 1088.21,760.84 1087.55,761.416C1086.88,761.992 1086.35,762.832 1085.95,763.936C1085.55,765.04 1085.36,766.336 1085.36,767.824C1085.36,769.336 1085.55,770.65 1085.95,771.766C1086.35,772.882 1086.88,773.734 1087.55,774.322C1088.21,774.91 1088.95,775.204 1089.76,775.204C1090.57,775.204 1091.31,774.91 1091.99,774.322C1092.66,773.734 1093.2,772.882 1093.6,771.766C1093.99,770.65 1094.19,769.348 1094.19,767.86ZM1099.24,767.824C1099.24,765.808 1099.51,764.038 1100.05,762.514C1100.59,760.99 1101.33,759.808 1102.28,758.968C1103.22,758.128 1104.28,757.708 1105.43,757.708C1106.58,757.708 1107.57,758.08 1108.41,758.824C1109.25,759.568 1109.88,760.504 1110.3,761.632L1110.3,758.032L1112.49,758.032L1112.49,777.76L1110.3,777.76L1110.3,774.088C1109.87,775.24 1109.23,776.194 1108.38,776.95C1107.53,777.706 1106.54,778.084 1105.41,778.084C1104.25,778.084 1103.2,777.652 1102.27,776.788C1101.33,775.924 1100.59,774.712 1100.05,773.152C1099.51,771.592 1099.24,769.816 1099.24,767.824ZM1110.3,767.86C1110.3,766.372 1110.1,765.076 1109.7,763.972C1109.3,762.868 1108.77,762.022 1108.09,761.434C1107.42,760.846 1106.67,760.552 1105.86,760.552C1105.05,760.552 1104.32,760.84 1103.65,761.416C1102.98,761.992 1102.45,762.832 1102.05,763.936C1101.66,765.04 1101.46,766.336 1101.46,767.824C1101.46,769.336 1101.66,770.65 1102.05,771.766C1102.45,772.882 1102.98,773.734 1103.65,774.322C1104.32,774.91 1105.05,775.204 1105.86,775.204C1106.67,775.204 1107.42,774.91 1108.09,774.322C1108.77,773.734 1109.3,772.882 1109.7,771.766C1110.1,770.65 1110.3,769.348 1110.3,767.86ZM1115.34,767.824C1115.34,765.808 1115.61,764.038 1116.15,762.514C1116.69,760.99 1117.44,759.808 1118.38,758.968C1119.33,758.128 1120.39,757.708 1121.56,757.708C1122.58,757.708 1123.52,758.062 1124.4,758.77C1125.27,759.478 1125.94,760.408 1126.4,761.56L1126.4,751.12L1128.59,751.12L1128.59,777.76L1126.4,777.76L1126.4,774.052C1125.97,775.228 1125.33,776.194 1124.49,776.95C1123.65,777.706 1122.66,778.084 1121.54,778.084C1120.38,778.084 1119.33,777.652 1118.38,776.788C1117.44,775.924 1116.69,774.712 1116.15,773.152C1115.61,771.592 1115.34,769.816 1115.34,767.824ZM1126.4,767.86C1126.4,766.372 1126.2,765.076 1125.8,763.972C1125.4,762.868 1124.87,762.022 1124.19,761.434C1123.52,760.846 1122.78,760.552 1121.97,760.552C1121.16,760.552 1120.42,760.84 1119.75,761.416C1119.08,761.992 1118.55,762.832 1118.15,763.936C1117.76,765.04 1117.56,766.336 1117.56,767.824C1117.56,769.336 1117.76,770.65 1118.15,771.766C1118.55,772.882 1119.08,773.734 1119.75,774.322C1120.42,774.91 1121.16,775.204 1121.97,775.204C1122.78,775.204 1123.52,774.91 1124.19,774.322C1124.87,773.734 1125.4,772.882 1125.8,771.766C1126.2,770.65 1126.4,769.348 1126.4,767.86Z" style="fill:rgb(59,59,63);"/>
        </g>
        <g transform="matrix(0,-0.854373,-0.854373,0,370.326,1502.75)">
            <path d="M1466.76,752.668L1457.3,777.76L1453.52,777.76L1444.05,752.668L1447.54,752.668L1455.42,774.304L1463.31,752.668L1466.76,752.668ZM1478.95,778.084C1477.11,778.084 1475.43,777.664 1473.93,776.824C1472.43,775.984 1471.26,774.79 1470.4,773.242C1469.55,771.694 1469.12,769.9 1469.12,767.86C1469.12,765.844 1469.56,764.062 1470.44,762.514C1471.32,760.966 1472.51,759.778 1474.02,758.95C1475.53,758.122 1477.23,757.708 1479.1,757.708C1480.97,757.708 1482.66,758.122 1484.17,758.95C1485.68,759.778 1486.88,760.96 1487.76,762.496C1488.63,764.032 1489.07,765.82 1489.07,767.86C1489.07,769.9 1488.62,771.694 1487.72,773.242C1486.82,774.79 1485.6,775.984 1484.07,776.824C1482.53,777.664 1480.83,778.084 1478.95,778.084ZM1478.95,775.204C1480.13,775.204 1481.23,774.928 1482.27,774.376C1483.3,773.824 1484.13,772.996 1484.77,771.892C1485.4,770.788 1485.72,769.444 1485.72,767.86C1485.72,766.276 1485.41,764.932 1484.79,763.828C1484.16,762.724 1483.35,761.902 1482.34,761.362C1481.33,760.822 1480.24,760.552 1479.06,760.552C1477.86,760.552 1476.76,760.822 1475.77,761.362C1474.77,761.902 1473.97,762.724 1473.37,763.828C1472.77,764.932 1472.47,766.276 1472.47,767.86C1472.47,769.468 1472.77,770.824 1473.36,771.928C1473.94,773.032 1474.73,773.854 1475.71,774.394C1476.7,774.934 1477.78,775.204 1478.95,775.204ZM1496.65,751.12L1496.65,777.76L1493.37,777.76L1493.37,751.12L1496.65,751.12ZM1519.71,758.032L1519.71,777.76L1516.44,777.76L1516.44,774.844C1515.81,775.852 1514.94,776.638 1513.83,777.202C1512.71,777.766 1511.48,778.048 1510.14,778.048C1508.6,778.048 1507.22,777.73 1506,777.094C1504.77,776.458 1503.81,775.504 1503.1,774.232C1502.39,772.96 1502.04,771.412 1502.04,769.588L1502.04,758.032L1505.28,758.032L1505.28,769.156C1505.28,771.1 1505.77,772.594 1506.75,773.638C1507.74,774.682 1509.08,775.204 1510.78,775.204C1512.54,775.204 1513.92,774.664 1514.92,773.584C1515.93,772.504 1516.44,770.932 1516.44,768.868L1516.44,758.032L1519.71,758.032ZM1548.97,757.672C1550.5,757.672 1551.87,757.99 1553.07,758.626C1554.27,759.262 1555.22,760.216 1555.91,761.488C1556.61,762.76 1556.96,764.308 1556.96,766.132L1556.96,777.76L1553.72,777.76L1553.72,766.6C1553.72,764.632 1553.23,763.126 1552.26,762.082C1551.29,761.038 1549.97,760.516 1548.32,760.516C1546.61,760.516 1545.26,761.062 1544.25,762.154C1543.24,763.246 1542.74,764.824 1542.74,766.888L1542.74,777.76L1539.5,777.76L1539.5,766.6C1539.5,764.632 1539.01,763.126 1538.04,762.082C1537.07,761.038 1535.75,760.516 1534.1,760.516C1532.39,760.516 1531.04,761.062 1530.03,762.154C1529.02,763.246 1528.52,764.824 1528.52,766.888L1528.52,777.76L1525.24,777.76L1525.24,758.032L1528.52,758.032L1528.52,760.876C1529.17,759.844 1530.04,759.052 1531.13,758.5C1532.22,757.948 1533.43,757.672 1534.75,757.672C1536.4,757.672 1537.87,758.044 1539.14,758.788C1540.41,759.532 1541.36,760.624 1541.98,762.064C1542.53,760.672 1543.45,759.592 1544.72,758.824C1545.99,758.056 1547.41,757.672 1548.97,757.672ZM1580.31,767.14C1580.31,767.764 1580.27,768.424 1580.2,769.12L1564.43,769.12C1564.55,771.064 1565.22,772.582 1566.43,773.674C1567.64,774.766 1569.11,775.312 1570.84,775.312C1572.26,775.312 1573.44,774.982 1574.38,774.322C1575.33,773.662 1576,772.78 1576.38,771.676L1579.91,771.676C1579.38,773.572 1578.33,775.114 1576.74,776.302C1575.16,777.49 1573.19,778.084 1570.84,778.084C1568.97,778.084 1567.29,777.664 1565.82,776.824C1564.34,775.984 1563.18,774.79 1562.34,773.242C1561.5,771.694 1561.08,769.9 1561.08,767.86C1561.08,765.82 1561.49,764.032 1562.31,762.496C1563.12,760.96 1564.27,759.778 1565.75,758.95C1567.22,758.122 1568.92,757.708 1570.84,757.708C1572.71,757.708 1574.37,758.116 1575.81,758.932C1577.25,759.748 1578.36,760.87 1579.14,762.298C1579.92,763.726 1580.31,765.34 1580.31,767.14ZM1576.92,766.456C1576.92,765.208 1576.65,764.134 1576.1,763.234C1575.54,762.334 1574.79,761.65 1573.85,761.182C1572.9,760.714 1571.85,760.48 1570.69,760.48C1569.04,760.48 1567.63,761.008 1566.47,762.064C1565.3,763.12 1564.63,764.584 1564.47,766.456L1576.92,766.456ZM1594.23,757.672C1596.62,757.672 1598.57,758.398 1600.06,759.85C1601.55,761.302 1602.29,763.396 1602.29,766.132L1602.29,777.76L1599.05,777.76L1599.05,766.6C1599.05,764.632 1598.56,763.126 1597.57,762.082C1596.59,761.038 1595.25,760.516 1593.54,760.516C1591.81,760.516 1590.44,761.056 1589.42,762.136C1588.4,763.216 1587.89,764.788 1587.89,766.852L1587.89,777.76L1584.61,777.76L1584.61,758.032L1587.89,758.032L1587.89,760.84C1588.54,759.832 1589.42,759.052 1590.54,758.5C1591.65,757.948 1592.88,757.672 1594.23,757.672ZM1629.49,743.848L1619.63,783.88L1616.39,783.88L1626.21,743.848L1629.49,743.848ZM1647.26,755.332L1647.26,763.72L1656.4,763.72L1656.4,766.42L1647.26,766.42L1647.26,775.06L1657.48,775.06L1657.48,777.76L1643.98,777.76L1643.98,752.632L1657.48,752.632L1657.48,755.332L1647.26,755.332ZM1661.21,767.824C1661.21,765.808 1661.62,764.038 1662.44,762.514C1663.25,760.99 1664.38,759.808 1665.8,758.968C1667.23,758.128 1668.83,757.708 1670.61,757.708C1672.14,757.708 1673.57,758.062 1674.89,758.77C1676.21,759.478 1677.22,760.408 1677.92,761.56L1677.92,751.12L1681.23,751.12L1681.23,777.76L1677.92,777.76L1677.92,774.052C1677.27,775.228 1676.31,776.194 1675.04,776.95C1673.77,777.706 1672.28,778.084 1670.57,778.084C1668.82,778.084 1667.23,777.652 1665.8,776.788C1664.38,775.924 1663.25,774.712 1662.44,773.152C1661.62,771.592 1661.21,769.816 1661.21,767.824ZM1677.92,767.86C1677.92,766.372 1677.62,765.076 1677.02,763.972C1676.42,762.868 1675.61,762.022 1674.59,761.434C1673.57,760.846 1672.44,760.552 1671.22,760.552C1670,760.552 1668.88,760.84 1667.87,761.416C1666.87,761.992 1666.06,762.832 1665.46,763.936C1664.86,765.04 1664.56,766.336 1664.56,767.824C1664.56,769.336 1664.86,770.65 1665.46,771.766C1666.06,772.882 1666.87,773.734 1667.87,774.322C1668.88,774.91 1670,775.204 1671.22,775.204C1672.44,775.204 1673.57,774.91 1674.59,774.322C1675.61,773.734 1676.42,772.882 1677.02,771.766C1677.62,770.65 1677.92,769.348 1677.92,767.86ZM1688.45,754.828C1687.83,754.828 1687.3,754.612 1686.87,754.18C1686.43,753.748 1686.22,753.22 1686.22,752.596C1686.22,751.972 1686.43,751.444 1686.87,751.012C1687.3,750.58 1687.83,750.364 1688.45,750.364C1689.05,750.364 1689.56,750.58 1689.98,751.012C1690.4,751.444 1690.61,751.972 1690.61,752.596C1690.61,753.22 1690.4,753.748 1689.98,754.18C1689.56,754.612 1689.05,754.828 1688.45,754.828ZM1690.03,758.032L1690.03,777.76L1686.76,777.76L1686.76,758.032L1690.03,758.032ZM1699.49,758.032L1710.68,758.032L1710.68,777.76L1707.41,777.76L1707.41,760.732L1699.49,760.732L1699.49,777.76L1696.21,777.76L1696.21,760.732L1693.69,760.732L1693.69,758.032L1696.21,758.032L1696.21,756.628C1696.21,754.42 1696.78,752.806 1697.92,751.786C1699.06,750.766 1700.89,750.256 1703.41,750.256L1703.41,752.992C1701.97,752.992 1700.96,753.274 1700.37,753.838C1699.78,754.402 1699.49,755.332 1699.49,756.628L1699.49,758.032ZM1709.06,754.828C1708.44,754.828 1707.92,754.612 1707.5,754.18C1707.08,753.748 1706.87,753.22 1706.87,752.596C1706.87,751.972 1707.08,751.444 1707.5,751.012C1707.92,750.58 1708.44,750.364 1709.06,750.364C1709.69,750.364 1710.21,750.58 1710.63,751.012C1711.05,751.444 1711.26,751.972 1711.26,752.596C1711.26,753.22 1711.05,753.748 1710.63,754.18C1710.21,754.612 1709.69,754.828 1709.06,754.828ZM1714.92,767.86C1714.92,765.82 1715.33,764.038 1716.14,762.514C1716.96,760.99 1718.09,759.808 1719.54,758.968C1721,758.128 1722.66,757.708 1724.53,757.708C1726.95,757.708 1728.95,758.296 1730.52,759.472C1732.1,760.648 1733.13,762.28 1733.64,764.368L1730.11,764.368C1729.77,763.168 1729.12,762.22 1728.15,761.524C1727.18,760.828 1725.97,760.48 1724.53,760.48C1722.66,760.48 1721.15,761.122 1719.99,762.406C1718.84,763.69 1718.27,765.508 1718.27,767.86C1718.27,770.236 1718.84,772.072 1719.99,773.368C1721.15,774.664 1722.66,775.312 1724.53,775.312C1725.97,775.312 1727.17,774.976 1728.13,774.304C1729.09,773.632 1729.75,772.672 1730.11,771.424L1733.64,771.424C1733.11,773.44 1732.05,775.054 1730.47,776.266C1728.89,777.478 1726.91,778.084 1724.53,778.084C1722.66,778.084 1721,777.664 1719.54,776.824C1718.09,775.984 1716.96,774.796 1716.14,773.26C1715.33,771.724 1714.92,769.924 1714.92,767.86ZM1739.67,754.828C1739.05,754.828 1738.52,754.612 1738.09,754.18C1737.65,753.748 1737.44,753.22 1737.44,752.596C1737.44,751.972 1737.65,751.444 1738.09,751.012C1738.52,750.58 1739.05,750.364 1739.67,750.364C1740.27,750.364 1740.78,750.58 1741.2,751.012C1741.62,751.444 1741.83,751.972 1741.83,752.596C1741.83,753.22 1741.62,753.748 1741.2,754.18C1740.78,754.612 1740.27,754.828 1739.67,754.828ZM1741.26,758.032L1741.26,777.76L1737.98,777.76L1737.98,758.032L1741.26,758.032ZM1755.42,778.084C1753.58,778.084 1751.9,777.664 1750.4,776.824C1748.9,775.984 1747.73,774.79 1746.88,773.242C1746.02,771.694 1745.6,769.9 1745.6,767.86C1745.6,765.844 1746.04,764.062 1746.91,762.514C1747.79,760.966 1748.98,759.778 1750.49,758.95C1752.01,758.122 1753.7,757.708 1755.57,757.708C1757.44,757.708 1759.13,758.122 1760.64,758.95C1762.16,759.778 1763.35,760.96 1764.23,762.496C1765.1,764.032 1765.54,765.82 1765.54,767.86C1765.54,769.9 1765.09,771.694 1764.19,773.242C1763.29,774.79 1762.07,775.984 1760.54,776.824C1759,777.664 1757.3,778.084 1755.42,778.084ZM1755.42,775.204C1756.6,775.204 1757.7,774.928 1758.74,774.376C1759.77,773.824 1760.6,772.996 1761.24,771.892C1761.88,770.788 1762.19,769.444 1762.19,767.86C1762.19,766.276 1761.88,764.932 1761.26,763.828C1760.63,762.724 1759.82,761.902 1758.81,761.362C1757.8,760.822 1756.71,760.552 1755.53,760.552C1754.33,760.552 1753.24,760.822 1752.24,761.362C1751.24,761.902 1750.44,762.724 1749.85,763.828C1749.25,764.932 1748.94,766.276 1748.94,767.86C1748.94,769.468 1749.24,770.824 1749.83,771.928C1750.41,773.032 1751.2,773.854 1752.18,774.394C1753.17,774.934 1754.25,775.204 1755.42,775.204Z" style="fill:rgb(59,59,63);"/>
        </g>
        <g transform="matrix(0,-0.854373,-0.854373,0,340.758,1502.75)">
            <rect x="388.438" y="461.884" width="46.998" height="121.624" style="fill:rgb(0,112,121);"/>
        </g>
        <g transform="matrix(0,-0.854373,-0.854373,0,381.684,1502.75)">
            <rect x="466.58" y="461.884" width="46.998" height="169.526" style="fill:rgb(0,112,121);"/>
        </g>
        <g transform="matrix(0,-0.854373,-0.854373,0,444.67,1502.75)">
            <rect x="544.721" y="461.884" width="46.998" height="243.248" style="fill:rgb(0,112,121);"/>
        </g>
        <g transform="matrix(0,-0.854373,-0.854373,0,563.104,1493.56)">
            <rect x="909.317" y="600.505" width="104.628" height="104.627" style="fill:rgb(0,112,121);"/>
        </g>
        <g transform="matrix(0,-0.854373,-0.854373,0,326.236,1493.56)">
            <rect x="1047.79" y="461.884" width="104.628" height="104.627" style="fill:rgb(0,112,121);"/>
        </g>
        <g transform="matrix(0,-0.854373,-0.854373,0,444.671,1493.56)">
            <rect x="1013.95" y="566.587" width="33.843" height="33.843" style="fill:rgb(0,112,121);"/>
        </g>
        <g transform="matrix(-0.854373,0,0,-0.854373,-13.354,114.789)">
            <path d="M-29.864,-124.69L147.707,-124.69L169.037,-29.864L-74.211,-29.864L-29.864,-124.69Z" style="fill:rgb(0,112,121);fill-rule:nonzero;"/>
        </g>
        <g transform="matrix(-0.854373,0,0,-0.854373,-13.3543,-13.088)">
            <path d="M-74.211,-169.037L169.037,-169.037L147.707,-74.211L-29.864,-74.211L-74.211,-169.037Z" style="fill:rgb(0,112,121);fill-rule:nonzero;"/>
        </g>
    </g>
</svg>
