<?xml version="1.0" encoding="UTF-8" standalone="no"?>
<!DOCTYPE svg PUBLIC "-//W3C//DTD SVG 1.1//EN" "http://www.w3.org/Graphics/SVG/1.1/DTD/svg11.dtd">
<svg width="100%" height="100%" viewBox="0 0 1000 400" version="1.1" xmlns="http://www.w3.org/2000/svg" xmlns:xlink="http://www.w3.org/1999/xlink" xml:space="preserve" xmlns:serif="http://www.serif.com/" style="fill-rule:evenodd;clip-rule:evenodd;stroke-linejoin:round;stroke-miterlimit:2;">
    <g transform="matrix(0.716608,0,0,0.716608,-230.723,-196.81)">
        <g transform="matrix(1.39546,0,0,1.39546,245.141,212.719)">
            <path d="M163.232,351.116C157.604,351.116 154.076,347.14 154.076,341.148C154.076,335.212 157.744,331.18 163.428,331.18C167.768,331.18 170.932,333.7 171.66,337.76L169.084,337.76C168.328,335.044 166.256,333.42 163.316,333.42C159.2,333.42 156.568,336.612 156.568,341.148C156.568,345.656 159.088,348.876 163.204,348.876C166.228,348.876 168.328,347.28 169.056,344.536L171.632,344.536C170.904,348.596 167.656,351.116 163.232,351.116ZM180.816,351.116C176.532,351.116 173.732,348.176 173.732,343.808C173.732,339.468 176.476,336.5 180.508,336.5C184.54,336.5 187.172,339.048 187.284,343.276C187.284,343.584 187.256,343.92 187.228,344.256L176.14,344.256L176.14,344.452C176.224,347.168 177.932,349.072 180.648,349.072C182.664,349.072 184.232,348.008 184.708,346.16L187.032,346.16C186.472,349.016 184.12,351.116 180.816,351.116ZM176.28,342.352L184.82,342.352C184.596,339.888 182.916,338.516 180.536,338.516C178.436,338.516 176.504,340.028 176.28,342.352ZM196.524,336.668L197.168,336.668L197.168,338.908L196.02,338.908C193.024,338.908 192.212,341.4 192.212,343.668L192.212,350.948L189.916,350.948L189.916,336.668L191.904,336.668L192.212,338.824C192.884,337.732 193.976,336.668 196.524,336.668ZM209.6,338.852L209.6,331.348L211.896,331.348L211.896,350.948L209.908,350.948L209.6,348.652C208.648,349.968 207.108,351.116 204.7,351.116C200.752,351.116 197.84,348.456 197.84,343.808C197.84,339.44 200.752,336.5 204.7,336.5C207.108,336.5 208.732,337.48 209.6,338.852ZM204.924,349.072C207.724,349.072 209.628,346.916 209.628,343.864C209.628,340.728 207.724,338.544 204.924,338.544C202.096,338.544 200.192,340.7 200.192,343.808C200.192,346.916 202.096,349.072 204.924,349.072ZM216.208,334.26C215.368,334.26 214.724,333.644 214.724,332.776C214.724,331.908 215.368,331.292 216.208,331.292C217.048,331.292 217.692,331.908 217.692,332.776C217.692,333.644 217.048,334.26 216.208,334.26ZM215.032,350.948L215.032,336.668L217.328,336.668L217.328,350.948L215.032,350.948ZM221.528,347.224L221.528,338.768L218.952,338.768L218.952,336.668L221.528,336.668L221.528,332.664L223.824,332.664L223.824,336.668L227.52,336.668L227.52,338.768L223.824,338.768L223.824,347.196C223.824,348.4 224.244,348.848 225.476,348.848L227.744,348.848L227.744,350.948L225.252,350.948C222.508,350.948 221.528,349.744 221.528,347.224ZM235.948,351.116C231.776,351.116 228.864,348.148 228.864,343.808C228.864,339.468 231.776,336.5 235.948,336.5C240.12,336.5 243.032,339.468 243.032,343.808C243.032,348.148 240.12,351.116 235.948,351.116ZM235.948,349.072C238.776,349.072 240.68,346.86 240.68,343.808C240.68,340.756 238.776,338.544 235.948,338.544C233.12,338.544 231.216,340.756 231.216,343.808C231.216,346.86 233.12,349.072 235.948,349.072Z" style="fill:rgb(0,78,90);"/>
        </g>
        <g transform="matrix(1.39546,0,0,1.39546,1240.1,212.719)">
            <path d="M133.608,344.536L136.128,344.536C136.324,347.168 138.368,348.904 141.364,348.904C143.996,348.904 145.872,347.7 145.872,345.572C145.872,343.136 143.464,342.632 140.496,342.128C137.332,341.596 134.084,340.56 134.084,336.752C134.084,333.42 136.8,331.18 140.776,331.18C145.144,331.18 147.832,333.616 148.056,337.144L145.536,337.144C145.256,334.876 143.436,333.392 140.776,333.392C138.228,333.392 136.52,334.512 136.52,336.612C136.52,338.964 138.9,339.44 141.84,339.944C145.032,340.476 148.308,341.54 148.308,345.348C148.308,348.736 145.452,351.116 141.336,351.116C136.548,351.116 133.748,348.4 133.608,344.536ZM163.68,348.848L164.408,348.848L164.408,350.948L163.148,350.948C161.244,350.948 160.6,350.136 160.572,348.736C159.676,350.024 158.248,351.116 155.784,351.116C152.648,351.116 150.52,349.548 150.52,346.944C150.52,344.088 152.508,342.492 156.26,342.492L160.46,342.492L160.46,341.512C160.46,339.664 159.144,338.544 156.904,338.544C154.888,338.544 153.544,339.496 153.264,340.952L150.968,340.952C151.304,338.152 153.572,336.5 157.016,336.5C160.656,336.5 162.756,338.32 162.756,341.652L162.756,347.896C162.756,348.652 163.036,348.848 163.68,348.848ZM160.46,345.124L160.46,344.424L156.036,344.424C153.992,344.424 152.844,345.18 152.844,346.804C152.844,348.204 154.048,349.156 155.952,349.156C158.808,349.156 160.46,347.504 160.46,345.124ZM167.236,347.224L167.236,338.768L164.66,338.768L164.66,336.668L167.236,336.668L167.236,332.664L169.532,332.664L169.532,336.668L173.228,336.668L173.228,338.768L169.532,338.768L169.532,347.196C169.532,348.4 169.952,348.848 171.184,348.848L173.452,348.848L173.452,350.948L170.96,350.948C168.216,350.948 167.236,349.744 167.236,347.224ZM176.616,334.26C175.776,334.26 175.132,333.644 175.132,332.776C175.132,331.908 175.776,331.292 176.616,331.292C177.456,331.292 178.1,331.908 178.1,332.776C178.1,333.644 177.456,334.26 176.616,334.26ZM175.44,350.948L175.44,336.668L177.736,336.668L177.736,350.948L175.44,350.948ZM180.284,346.244L182.636,346.244C182.72,347.924 184.204,349.156 186.584,349.156C188.6,349.156 190.028,348.288 190.028,346.972C190.028,345.18 188.46,345.04 186.332,344.788C183.14,344.396 180.592,343.752 180.592,340.784C180.592,338.18 182.972,336.472 186.192,336.5C189.44,336.528 191.792,338.04 192.016,341.008L189.664,341.008C189.496,339.552 188.152,338.46 186.192,338.46C184.204,338.46 182.86,339.3 182.86,340.616C182.86,342.184 184.372,342.38 186.444,342.632C189.692,343.024 192.296,343.64 192.296,346.804C192.296,349.464 189.748,351.116 186.584,351.116C182.888,351.116 180.34,349.38 180.284,346.244ZM193.332,338.768L193.332,336.668L195.908,336.668L195.908,335.072C195.908,332.552 196.972,331.348 199.632,331.348L202.236,331.348L202.236,333.448L199.772,333.448C198.624,333.448 198.204,333.924 198.204,335.016L198.204,336.668L202.236,336.668L202.236,338.768L198.204,338.768L198.204,350.948L195.908,350.948L195.908,338.768L193.332,338.768ZM209.824,351.116C205.54,351.116 202.74,348.176 202.74,343.808C202.74,339.468 205.484,336.5 209.516,336.5C213.548,336.5 216.18,339.048 216.292,343.276C216.292,343.584 216.264,343.92 216.236,344.256L205.148,344.256L205.148,344.452C205.232,347.168 206.94,349.072 209.656,349.072C211.672,349.072 213.24,348.008 213.716,346.16L216.04,346.16C215.48,349.016 213.128,351.116 209.824,351.116ZM205.288,342.352L213.828,342.352C213.604,339.888 211.924,338.516 209.544,338.516C207.444,338.516 205.512,340.028 205.288,342.352ZM225.336,351.116C221.164,351.116 218.42,348.288 218.42,343.836C218.42,339.468 221.248,336.5 225.392,336.5C228.892,336.5 231.104,338.46 231.692,341.596L229.284,341.596C228.864,339.692 227.464,338.544 225.364,338.544C222.62,338.544 220.772,340.728 220.772,343.836C220.772,346.944 222.62,349.072 225.364,349.072C227.408,349.072 228.808,347.896 229.256,346.076L231.692,346.076C231.132,349.156 228.808,351.116 225.336,351.116ZM241.212,336.5C244.404,336.5 247.008,338.264 247.008,342.996L247.008,350.948L244.712,350.948L244.712,343.136C244.712,340.168 243.284,338.6 240.82,338.6C238.16,338.6 236.508,340.588 236.508,343.808L236.508,350.948L234.212,350.948L234.212,331.348L236.508,331.348L236.508,339.02C237.348,337.676 238.804,336.5 241.212,336.5ZM256.36,351.116C252.188,351.116 249.276,348.148 249.276,343.808C249.276,339.468 252.188,336.5 256.36,336.5C260.532,336.5 263.444,339.468 263.444,343.808C263.444,348.148 260.532,351.116 256.36,351.116ZM256.36,349.072C259.188,349.072 261.092,346.86 261.092,343.808C261.092,340.756 259.188,338.544 256.36,338.544C253.532,338.544 251.628,340.756 251.628,343.808C251.628,346.86 253.532,349.072 256.36,349.072Z" style="fill:rgb(0,78,90);"/>
        </g>
        <g transform="matrix(1.39546,0,0,1.39546,727.068,212.719)">
            <path d="M161.076,350.948L154.804,350.948L154.804,331.348L161.076,331.348C167.208,331.348 170.932,335.268 170.932,341.148C170.932,347 167.208,350.948 161.076,350.948ZM157.24,333.588L157.24,348.708L161.076,348.708C165.836,348.708 168.44,345.712 168.44,341.148C168.44,336.556 165.836,333.588 161.076,333.588L157.24,333.588ZM174.852,334.26C174.012,334.26 173.368,333.644 173.368,332.776C173.368,331.908 174.012,331.292 174.852,331.292C175.692,331.292 176.336,331.908 176.336,332.776C176.336,333.644 175.692,334.26 174.852,334.26ZM173.676,350.948L173.676,336.668L175.972,336.668L175.972,350.948L173.676,350.948ZM183.028,350.948L177.68,336.668L180.144,336.668L184.456,348.344L188.74,336.668L191.148,336.668L185.8,350.948L183.028,350.948ZM198.82,351.116C194.536,351.116 191.736,348.176 191.736,343.808C191.736,339.468 194.48,336.5 198.512,336.5C202.544,336.5 205.176,339.048 205.288,343.276C205.288,343.584 205.26,343.92 205.232,344.256L194.144,344.256L194.144,344.452C194.228,347.168 195.936,349.072 198.652,349.072C200.668,349.072 202.236,348.008 202.712,346.16L205.036,346.16C204.476,349.016 202.124,351.116 198.82,351.116ZM194.284,342.352L202.824,342.352C202.6,339.888 200.92,338.516 198.54,338.516C196.44,338.516 194.508,340.028 194.284,342.352ZM214.528,336.668L215.172,336.668L215.172,338.908L214.024,338.908C211.028,338.908 210.216,341.4 210.216,343.668L210.216,350.948L207.92,350.948L207.92,336.668L209.908,336.668L210.216,338.824C210.888,337.732 211.98,336.668 214.528,336.668ZM216.264,346.244L218.616,346.244C218.7,347.924 220.184,349.156 222.564,349.156C224.58,349.156 226.008,348.288 226.008,346.972C226.008,345.18 224.44,345.04 222.312,344.788C219.12,344.396 216.572,343.752 216.572,340.784C216.572,338.18 218.952,336.472 222.172,336.5C225.42,336.528 227.772,338.04 227.996,341.008L225.644,341.008C225.476,339.552 224.132,338.46 222.172,338.46C220.184,338.46 218.84,339.3 218.84,340.616C218.84,342.184 220.352,342.38 222.424,342.632C225.672,343.024 228.276,343.64 228.276,346.804C228.276,349.464 225.728,351.116 222.564,351.116C218.868,351.116 216.32,349.38 216.264,346.244ZM232,334.26C231.16,334.26 230.516,333.644 230.516,332.776C230.516,331.908 231.16,331.292 232,331.292C232.84,331.292 233.484,331.908 233.484,332.776C233.484,333.644 232.84,334.26 232,334.26ZM230.824,350.948L230.824,336.668L233.12,336.668L233.12,350.948L230.824,350.948ZM242.399,335.882C244.286,335.882 245.881,336.511 247.184,337.768C248.488,339.026 249.139,340.876 249.139,343.319C249.139,345.68 248.565,347.63 247.417,349.171C246.268,350.711 244.486,351.481 242.071,351.481C240.057,351.481 238.457,350.8 237.272,349.437C236.087,348.075 235.495,346.245 235.495,343.948C235.495,341.487 236.119,339.527 237.368,338.069C238.617,336.611 240.294,335.882 242.399,335.882ZM242.303,349.362C243.935,349.362 245.054,348.745 245.66,347.51C246.266,346.275 246.569,344.9 246.569,343.387C246.569,342.02 246.35,340.908 245.913,340.052C245.22,338.703 244.026,338.028 242.331,338.028C240.827,338.028 239.733,338.602 239.05,339.751C238.366,340.899 238.024,342.285 238.024,343.907C238.024,345.466 238.366,346.764 239.05,347.803C239.733,348.843 240.818,349.362 242.303,349.362ZM245.257,330.413L241.606,334.364L239.719,334.364L242.221,330.413L245.257,330.413ZM258.829,336.5C262.049,336.5 264.597,338.264 264.597,342.996L264.597,350.948L262.301,350.948L262.301,343.136C262.301,340.168 260.929,338.6 258.437,338.6C255.749,338.6 254.125,340.588 254.125,343.808L254.125,350.948L251.829,350.948L251.829,336.668L253.817,336.668L254.125,338.6C254.965,337.508 256.421,336.5 258.829,336.5Z" style="fill:rgb(0,78,90);"/>
        </g>
        <g transform="matrix(1.12456,0,0,1.12456,527.085,342.191)">
            <path d="M838.848,219.183C837.364,218.368 835.978,217.317 834.745,216.034L805.136,185.225C799.298,179.15 796.362,170.853 797.08,162.458C797.798,154.062 802.1,146.384 808.885,141.389L830.728,125.308C834.054,122.86 838.075,121.539 842.205,121.539L852.797,121.539C854.509,121.539 855.899,122.929 855.899,124.641C855.899,126.354 854.509,127.744 852.797,127.744L842.205,127.744C839.399,127.744 836.666,128.641 834.407,130.305L812.564,146.385C807.217,150.321 803.827,156.371 803.262,162.986C802.696,169.601 805.009,176.139 809.61,180.926L839.218,211.735C843.301,215.983 850.015,216.234 854.405,212.303L854.406,212.302C856.346,210.564 857.5,208.116 857.606,205.515C857.713,202.913 856.762,200.379 854.97,198.489L828.049,170.096C826.61,168.578 825.913,166.502 826.144,164.423C826.375,162.343 827.511,160.471 829.249,159.306L846.595,147.675C848.017,146.722 849.946,147.102 850.9,148.524C851.853,149.946 851.473,151.875 850.051,152.828L832.704,164.459C832.483,164.607 832.339,164.844 832.31,165.108C832.281,165.372 832.369,165.635 832.552,165.827L859.472,194.22C862.417,197.326 863.98,201.491 863.806,205.768C863.631,210.044 861.734,214.068 858.546,216.923L858.544,216.925C854.678,220.387 849.662,221.779 844.873,221.153L841.733,249.688C841.546,251.39 840.012,252.62 838.311,252.433C836.609,252.245 835.379,250.712 835.566,249.01L838.848,219.183ZM915.914,221.153C911.126,221.779 906.109,220.387 902.244,216.925L902.242,216.923C899.054,214.068 897.156,210.044 896.982,205.768C896.807,201.491 898.37,197.326 901.315,194.22L928.236,165.827C928.418,165.635 928.507,165.372 928.477,165.108C928.448,164.844 928.304,164.607 928.084,164.459L910.737,152.828C909.315,151.875 908.934,149.946 909.888,148.524C910.842,147.102 912.77,146.722 914.192,147.675L931.539,159.306C933.277,160.471 934.413,162.343 934.644,164.423C934.875,166.502 934.178,168.578 932.738,170.096L905.818,198.489C904.026,200.379 903.075,202.913 903.181,205.515C903.287,208.116 904.442,210.564 906.381,212.302L906.383,212.303C910.772,216.234 917.487,215.983 921.57,211.735L951.178,180.926C955.778,176.139 958.092,169.601 957.526,162.986C956.96,156.371 953.57,150.321 948.224,146.385L926.381,130.305C924.121,128.641 921.389,127.744 918.583,127.744L907.991,127.744C906.279,127.744 904.889,126.354 904.889,124.641C904.889,122.929 906.279,121.539 907.991,121.539L918.583,121.539C922.712,121.539 926.734,122.86 930.059,125.308L951.902,141.389C958.688,146.384 962.99,154.062 963.708,162.458C964.426,170.853 961.49,179.15 955.652,185.225L926.043,216.034C924.81,217.317 923.423,218.368 921.939,219.183L925.221,249.01C925.409,250.712 924.179,252.245 922.477,252.433C920.775,252.62 919.241,251.39 919.054,249.688L915.914,221.153ZM880.619,72.227C896.697,72.227 909.749,85.28 909.749,101.357C909.749,117.434 896.697,130.487 880.619,130.487C864.542,130.487 851.489,117.434 851.489,101.357C851.489,85.28 864.542,72.227 880.619,72.227ZM880.619,78.431C867.966,78.431 857.694,88.704 857.694,101.357C857.694,114.01 867.966,124.283 880.619,124.283C893.272,124.283 903.545,114.01 903.545,101.357C903.545,88.704 893.272,78.431 880.619,78.431Z" style="fill:rgb(208,44,47);"/>
        </g>
        <g transform="matrix(1.19029,0,0,1.19029,0.249634,313.003)">
            <path d="M856.471,99.219C897.649,99.219 931.081,132.651 931.081,173.829C931.081,215.008 897.649,248.44 856.471,248.44C815.292,248.44 781.86,215.008 781.86,173.829C781.86,132.651 815.292,99.219 856.471,99.219ZM856.471,105.081C818.527,105.081 787.722,135.886 787.722,173.829C787.722,211.773 818.527,242.578 856.471,242.578C894.414,242.578 925.219,211.773 925.219,173.829C925.219,135.886 894.414,105.081 856.471,105.081ZM879.804,200.941C873.371,204.032 865.604,206.199 856.471,206.199C824.605,206.199 810.018,179.841 810.018,179.841C809.232,178.427 809.743,176.641 811.157,175.856C812.571,175.071 814.357,175.581 815.142,176.995C815.142,176.995 828.153,200.337 856.471,200.337C859.492,200.337 862.346,200.072 865.035,199.598C865.569,198.867 867.373,195.945 867.373,189.782C867.373,175.874 872.753,172.191 877.668,170.983C882.937,169.688 886.642,171.937 888.977,176.428C890.23,178.836 891.038,182.018 891.425,185.605C896.141,180.928 898.46,176.946 898.46,176.946C899.272,175.548 901.068,175.071 902.467,175.884C903.865,176.696 904.341,178.492 903.529,179.89C903.529,179.89 896.138,192.649 880.904,200.396C880.578,200.655 880.202,200.839 879.804,200.941ZM872.235,197.734C873.777,197.202 875.25,196.604 876.653,195.956C876.978,194.384 877.504,190.666 877.06,184.317C876.948,182.703 878.166,181.301 879.78,181.189C881.394,181.076 882.795,182.295 882.908,183.908C883.155,187.437 883.151,190.233 883.023,192.423C884.007,191.78 884.943,191.119 885.831,190.45C885.799,185.989 885.222,181.912 883.777,179.132C882.788,177.232 881.297,176.128 879.067,176.676C875.777,177.484 873.235,180.473 873.235,189.782C873.235,193.059 872.813,195.68 872.235,197.734ZM846.985,159.782C847.253,161.378 846.176,162.891 844.581,163.159C842.986,163.427 841.473,162.35 841.204,160.755C841.204,160.755 840.759,158.192 839.21,155.623C837.797,153.278 835.394,150.883 831.317,150.883C827.22,150.883 824.772,153.294 823.315,155.651C821.724,158.227 821.238,160.797 821.238,160.797C820.947,162.388 819.418,163.443 817.827,163.152C816.236,162.86 815.181,161.332 815.473,159.741C815.473,159.741 816.115,156.152 818.328,152.57C820.677,148.768 824.709,145.021 831.317,145.021C837.946,145.021 841.932,148.784 844.231,152.597C846.395,156.187 846.985,159.782 846.985,159.782ZM897.414,159.782C897.682,161.378 896.605,162.891 895.01,163.159C893.415,163.427 891.902,162.35 891.633,160.755C891.633,160.755 891.188,158.192 889.639,155.623C888.226,153.278 885.823,150.883 881.746,150.883C877.649,150.883 875.2,153.294 873.744,155.651C872.153,158.227 871.667,160.797 871.667,160.797C871.376,162.388 869.847,163.443 868.256,163.152C866.665,162.86 865.61,161.332 865.901,159.741C865.901,159.741 866.544,156.152 868.757,152.57C871.106,148.768 875.138,145.021 881.746,145.021C888.375,145.021 892.361,148.784 894.66,152.597C896.824,156.187 897.414,159.782 897.414,159.782Z" style="fill:rgb(208,44,47);"/>
        </g>
        <g transform="matrix(1.05413,0,0,1.05413,352.275,330.455)">
            <path d="M143.269,255.629C141.956,254.359 141.921,252.262 143.191,250.95C144.461,249.637 146.558,249.602 147.871,250.872C147.871,250.872 153.129,255.859 161.656,255.859C170.738,255.859 179.404,250.439 179.404,250.439C180.956,249.476 182.998,249.953 183.962,251.504C184.926,253.056 184.449,255.098 182.897,256.062C182.897,256.062 172.515,262.478 161.656,262.478C150.243,262.478 143.269,255.629 143.269,255.629ZM162.391,192.797L162.4,192.797C163.179,192.77 169.393,192.707 176.999,197.141C184.811,201.694 190.664,206.12 193.9,213.23C197.25,220.59 198.95,225.813 195.919,234.352C193.909,240.014 190.133,243.889 185.644,245.21C182.514,246.131 178.973,245.876 175.271,243.966C168.916,240.686 165.459,239.047 162.474,239.047C159.465,239.047 153.004,242.018 149.015,243.991C146.648,245.162 142.795,245.285 139.05,243.994C133.603,242.114 128.584,237.468 128.802,230.573C128.946,226.032 128.852,221.817 129.357,218.18C129.968,213.783 131.443,210.145 134.582,207.455C139.832,202.956 145.527,198.179 149.87,195.902C154.598,193.424 157.515,192.804 162.391,192.797ZM162.474,199.416C158.749,199.416 156.538,199.88 152.943,201.765C148.937,203.865 143.731,208.332 138.889,212.481C136.982,214.115 136.284,216.419 135.913,219.091C135.437,222.522 135.553,226.499 135.418,230.782C135.301,234.477 138.289,236.729 141.209,237.736C143.043,238.369 144.921,238.632 146.08,238.058C150.903,235.673 158.837,232.428 162.474,232.428C166.135,232.428 170.514,234.062 178.307,238.084C180.264,239.094 182.121,239.347 183.776,238.86C186.463,238.07 188.478,235.527 189.681,232.137C192.004,225.592 190.444,221.614 187.876,215.972C185.194,210.08 180.139,206.632 173.666,202.859C167.52,199.276 162.63,199.412 162.63,199.412C162.578,199.414 162.526,199.416 162.474,199.416ZM152.439,212.946C155.874,213.209 156.369,218.626 154.802,222.862C153.236,227.098 150.524,229.925 147.169,229.142C144.246,228.459 143.772,223.465 145.339,219.229C146.905,214.993 149.64,212.731 152.439,212.946ZM173.17,212.946C175.969,212.731 178.704,214.993 180.271,219.229C181.837,223.465 181.363,228.459 178.44,229.142C175.085,229.925 172.374,227.098 170.807,222.862C169.24,218.626 169.735,213.209 173.17,212.946ZM76.203,111.423C74.694,110.394 74.305,108.333 75.335,106.824C76.364,105.315 78.425,104.926 79.934,105.956C79.934,105.956 85.285,109.595 92.279,111.419C100.572,113.583 107.291,115.974 113.204,123.313C118.966,130.464 122.442,142.752 122.442,142.752C122.933,144.511 121.904,146.339 120.145,146.83C118.385,147.321 116.558,146.291 116.067,144.532C116.067,144.532 113.098,133.731 108.05,127.466C103.154,121.389 97.475,119.615 90.608,117.824C82.442,115.694 76.203,111.423 76.203,111.423ZM242.633,105.956C244.141,104.926 246.202,105.315 247.232,106.824C248.261,108.333 247.872,110.394 246.364,111.423C246.364,111.423 240.124,115.694 231.958,117.824C225.092,119.615 219.413,121.389 214.517,127.466C209.469,133.731 206.5,144.532 206.5,144.532C206.009,146.291 204.181,147.321 202.422,146.83C200.663,146.339 199.633,144.511 200.124,142.752C200.124,142.752 203.601,130.464 209.362,123.313C215.276,115.974 221.995,113.583 230.288,111.419C237.281,109.595 242.633,105.956 242.633,105.956ZM129.802,168.771C133.628,168.771 136.735,171.878 136.735,175.705C136.735,179.532 133.628,182.639 129.802,182.639C125.975,182.639 122.868,179.532 122.868,175.705C122.868,171.878 125.975,168.771 129.802,168.771ZM196.378,168.771C200.205,168.771 203.312,171.878 203.312,175.705C203.312,179.532 200.205,182.639 196.378,182.639C192.551,182.639 189.444,179.532 189.444,175.705C189.444,171.878 192.551,168.771 196.378,168.771ZM130.892,257.407C132.475,258.318 133.021,260.343 132.11,261.926C131.199,263.509 129.174,264.055 127.591,263.144C127.591,263.144 95.197,245.02 107.055,187.981C102.778,188.417 97.523,188.4 92.933,187.087C87.866,185.639 83.602,182.674 81.636,177.522C79.586,172.147 78.674,164.608 77.886,156.943C77.153,149.814 76.519,142.572 74.897,137.136C72.492,129.073 67.078,117.015 62.586,107.004C62.571,106.97 62.557,106.937 62.543,106.903C60.9,102.887 61.611,98.292 64.392,94.961C67.17,91.635 71.557,90.115 75.797,91.009C82.605,92.399 88.27,94.091 95.718,96.725C100.199,98.31 103.616,98.334 106.794,98.546C112.593,98.933 117.782,99.687 125.739,107.835C132.086,114.335 134.772,118.756 135.93,121.508C136.012,121.703 136.088,121.893 136.159,122.077C143.811,119.95 162.474,116.414 188.54,122.49C190.144,118.464 191.767,114.865 193.602,111.88C196.142,107.75 199.129,104.738 202.867,103.104C206.135,101.674 213.339,100.277 220.88,98.573C227.776,97.015 234.994,95.207 239.179,92.615C240.241,91.957 241.42,91.313 242.667,90.696C247.865,87.876 254.289,88.712 258.592,92.774C262.894,96.836 264.097,103.199 261.583,108.548C258.325,116.149 254.78,123.811 252.154,128.116C245.61,138.84 243.997,158.213 241.253,170.459C240.465,173.977 239.58,176.963 238.534,179.135C237.602,181.073 236.481,182.462 235.287,183.303C229.024,187.716 223.95,188.611 217.005,187.907C220.54,202.449 228.31,239.113 196.118,262.935C194.65,264.022 192.576,263.712 191.489,262.244C190.403,260.775 190.713,258.701 192.181,257.615C225.58,232.9 211.074,192.858 209.425,184.617C209.211,183.551 209.535,182.448 210.291,181.667C211.047,180.885 212.139,180.525 213.212,180.703C220.803,181.963 225.466,182.126 231.474,177.893C232.161,177.409 232.581,176.37 233.078,175.077C234.206,172.14 235.067,168.025 235.929,163.36C238.262,150.732 240.581,134.375 246.503,124.668C249.022,120.54 252.4,113.173 255.523,105.884C255.541,105.844 255.559,105.805 255.577,105.765C256.896,102.996 256.278,99.693 254.048,97.587C251.818,95.481 248.484,95.054 245.795,96.529C245.754,96.552 245.712,96.574 245.669,96.595C244.589,97.129 243.575,97.678 242.664,98.242C238.005,101.129 230.018,103.294 222.339,105.029C215.306,106.618 208.567,107.835 205.519,109.168C202.939,110.296 200.993,112.497 199.24,115.347C197.188,118.684 195.459,122.873 193.664,127.573C193.064,129.143 191.383,130.014 189.754,129.599C155.971,120.983 134.805,129.457 134.805,129.457C134.408,129.618 133.985,129.701 133.557,129.701L130.319,125.791C130.319,125.791 130.062,124.348 129.141,122.664C127.84,120.288 125.41,116.973 121.003,112.46C114.829,106.137 110.853,105.45 106.354,105.15C102.665,104.904 98.712,104.805 93.51,102.965C86.389,100.446 80.975,98.821 74.464,97.493C74.455,97.491 74.446,97.489 74.438,97.487C72.593,97.096 70.682,97.756 69.473,99.204C68.274,100.64 67.96,102.615 68.651,104.351C73.258,114.619 78.775,126.98 81.24,135.244C82.962,141.016 83.692,148.697 84.471,156.266C85.194,163.298 85.94,170.232 87.821,175.163C89.001,178.256 91.711,179.854 94.752,180.723C100.272,182.302 106.948,181.542 110.646,180.735C111.76,180.491 112.921,180.839 113.718,181.655C114.515,182.471 114.836,183.639 114.568,184.748C101.225,239.791 130.892,257.407 130.892,257.407Z" style="fill:rgb(208,44,47);"/>
        </g>
    </g>
</svg>
