<?xml version="1.0" encoding="UTF-8" standalone="no"?>
<!DOCTYPE svg PUBLIC "-//W3C//DTD SVG 1.1//EN" "http://www.w3.org/Graphics/SVG/1.1/DTD/svg11.dtd">
<svg width="100%" height="100%" viewBox="0 0 1000 400" version="1.1" xmlns="http://www.w3.org/2000/svg" xmlns:xlink="http://www.w3.org/1999/xlink" xml:space="preserve" xmlns:serif="http://www.serif.com/" style="fill-rule:evenodd;clip-rule:evenodd;stroke-linejoin:round;stroke-miterlimit:2;">
    <g transform="matrix(0.716608,0,0,0.716608,-227.119,-196.81)">
        <g transform="matrix(1.86332,0,0,1.86332,1200.62,208.952)">
            <path d="M161.891,94.239C194.649,94.239 221.244,120.834 221.244,153.592C221.244,186.349 194.649,212.944 161.891,212.944C129.133,212.944 102.538,186.349 102.538,153.592C102.538,120.834 129.133,94.239 161.891,94.239ZM161.891,104.724C134.92,104.724 113.023,126.621 113.023,153.592C113.023,180.563 134.92,202.46 161.891,202.46C188.862,202.46 210.759,180.563 210.759,153.592C210.759,126.621 188.862,104.724 161.891,104.724Z" style="fill:rgb(0,165,157);"/>
        </g>
        <g transform="matrix(1.0299,0,0,1.0299,836.214,291.862)">
            <path d="M161.891,89.997C196.99,89.997 225.486,118.493 225.486,153.592C225.486,188.691 196.99,217.187 161.891,217.187C126.792,217.187 98.296,188.691 98.296,153.592C98.296,118.493 126.792,89.997 161.891,89.997ZM161.891,108.966C137.262,108.966 117.265,128.962 117.265,153.592C117.265,178.221 137.262,198.217 161.891,198.217C186.521,198.217 206.517,178.221 206.517,153.592C206.517,128.962 186.521,108.966 161.891,108.966Z" style="fill:rgb(0,165,157);"/>
        </g>
        <g transform="matrix(1.42424,0,0,1.24589,290.948,287.578)">
            <rect x="448.519" y="200" width="102.792" height="48.432" style="fill:rgb(0,165,157);"/>
        </g>
        <g transform="matrix(1.39546,0,0,1.7358,-175.951,153.845)">
            <path d="M551.31,200L448.519,248.432L448.519,200L551.31,200Z" style="fill:rgb(0,165,157);"/>
        </g>
        <g transform="matrix(1.39546,0,0,-1.7358,-175.951,836.204)">
            <path d="M551.31,200L448.519,248.432L448.519,200L551.31,200Z" style="fill:rgb(0,165,157);"/>
        </g>
        <g transform="matrix(3.46425,0,0,3.46425,-412.791,-140.045)">
            <path d="M240.887,236.883L241.931,236.883L241.931,245.283L240.887,245.283L240.887,236.883ZM246.419,239.091C247.163,239.091 247.761,239.315 248.213,239.763C248.665,240.211 248.891,240.915 248.891,241.875L248.891,245.283L247.907,245.283L247.907,241.935C247.907,241.303 247.765,240.821 247.481,240.489C247.197,240.157 246.787,239.991 246.251,239.991C245.675,239.991 245.223,240.191 244.895,240.591C244.567,240.991 244.403,241.535 244.403,242.223L244.403,245.283L243.419,245.283L243.419,239.163L244.271,239.163L244.403,239.991C244.867,239.391 245.539,239.091 246.419,239.091ZM250.559,240.063L249.455,240.063L249.455,239.163L250.559,239.163L250.559,237.447L251.543,237.447L251.543,239.163L253.091,239.163L253.091,240.063L251.543,240.063L251.543,243.675C251.543,243.931 251.593,244.113 251.693,244.221C251.793,244.329 251.967,244.383 252.215,244.383L253.283,244.383L253.283,245.283L252.155,245.283C251.579,245.283 251.169,245.155 250.925,244.899C250.681,244.643 250.559,244.239 250.559,243.687L250.559,240.063ZM253.607,242.223C253.607,241.599 253.729,241.051 253.973,240.579C254.217,240.107 254.559,239.741 254.999,239.481C255.439,239.221 255.943,239.091 256.511,239.091C257.071,239.091 257.567,239.207 257.999,239.439C258.431,239.671 258.771,240.007 259.019,240.447C259.267,240.887 259.399,241.403 259.415,241.995C259.415,242.083 259.407,242.223 259.391,242.415L254.639,242.415L254.639,242.499C254.655,243.099 254.839,243.579 255.191,243.939C255.543,244.299 256.003,244.479 256.571,244.479C257.011,244.479 257.385,244.369 257.693,244.149C258.001,243.929 258.207,243.623 258.311,243.231L259.307,243.231C259.187,243.855 258.887,244.365 258.407,244.761C257.927,245.157 257.339,245.355 256.643,245.355C256.035,245.355 255.503,245.225 255.047,244.965C254.591,244.705 254.237,244.337 253.985,243.861C253.733,243.385 253.607,242.839 253.607,242.223ZM258.395,241.599C258.347,241.079 258.153,240.675 257.813,240.387C257.473,240.099 257.043,239.955 256.523,239.955C256.059,239.955 255.651,240.107 255.299,240.411C254.947,240.715 254.747,241.111 254.699,241.599L258.395,241.599ZM263.651,239.163L263.651,240.123L263.159,240.123C262.575,240.123 262.157,240.319 261.905,240.711C261.653,241.103 261.527,241.587 261.527,242.163L261.527,245.283L260.543,245.283L260.543,239.163L261.395,239.163L261.527,240.087C261.703,239.807 261.931,239.583 262.211,239.415C262.491,239.247 262.879,239.163 263.375,239.163L263.651,239.163ZM269.987,244.383L269.987,245.283L269.447,245.283C269.055,245.283 268.775,245.203 268.607,245.043C268.439,244.883 268.351,244.647 268.343,244.335C267.871,245.015 267.187,245.355 266.291,245.355C265.611,245.355 265.065,245.195 264.653,244.875C264.241,244.555 264.035,244.119 264.035,243.567C264.035,242.951 264.245,242.479 264.665,242.151C265.085,241.823 265.695,241.659 266.495,241.659L268.295,241.659L268.295,241.239C268.295,240.839 268.161,240.527 267.893,240.303C267.625,240.079 267.251,239.967 266.771,239.967C266.347,239.967 265.997,240.061 265.721,240.249C265.445,240.437 265.275,240.687 265.211,240.999L264.227,240.999C264.299,240.399 264.565,239.931 265.025,239.595C265.485,239.259 266.083,239.091 266.819,239.091C267.603,239.091 268.209,239.281 268.637,239.661C269.065,240.041 269.279,240.587 269.279,241.299L269.279,243.939C269.279,244.235 269.415,244.383 269.687,244.383L269.987,244.383ZM268.295,242.487L266.399,242.487C265.487,242.487 265.031,242.827 265.031,243.507C265.031,243.811 265.151,244.055 265.391,244.239C265.631,244.423 265.955,244.515 266.363,244.515C266.963,244.515 267.435,244.357 267.779,244.041C268.123,243.725 268.295,243.307 268.295,242.787L268.295,242.487ZM276.203,243.171C276.075,243.851 275.775,244.385 275.303,244.773C274.831,245.161 274.231,245.355 273.503,245.355C272.911,245.355 272.391,245.223 271.943,244.959C271.495,244.695 271.147,244.325 270.899,243.849C270.651,243.373 270.527,242.827 270.527,242.211C270.527,241.595 270.653,241.051 270.905,240.579C271.157,240.107 271.511,239.741 271.967,239.481C272.423,239.221 272.947,239.091 273.539,239.091C274.259,239.091 274.853,239.283 275.321,239.667C275.789,240.051 276.083,240.579 276.203,241.251L275.207,241.251C275.111,240.859 274.911,240.547 274.607,240.315C274.303,240.083 273.935,239.967 273.503,239.967C272.919,239.967 272.445,240.175 272.081,240.591C271.717,241.007 271.535,241.547 271.535,242.211C271.535,242.883 271.717,243.429 272.081,243.849C272.445,244.269 272.919,244.479 273.503,244.479C273.951,244.479 274.327,244.363 274.631,244.131C274.935,243.899 275.131,243.579 275.219,243.171L276.203,243.171ZM282.671,243.171C282.543,243.851 282.243,244.385 281.771,244.773C281.299,245.161 280.699,245.355 279.971,245.355C279.379,245.355 278.859,245.223 278.411,244.959C277.963,244.695 277.615,244.325 277.367,243.849C277.119,243.373 276.995,242.827 276.995,242.211C276.995,241.595 277.121,241.051 277.373,240.579C277.625,240.107 277.979,239.741 278.435,239.481C278.891,239.221 279.415,239.091 280.007,239.091C280.727,239.091 281.321,239.283 281.789,239.667C282.257,240.051 282.551,240.579 282.671,241.251L281.675,241.251C281.579,240.859 281.379,240.547 281.075,240.315C280.771,240.083 280.403,239.967 279.971,239.967C279.387,239.967 278.913,240.175 278.549,240.591C278.185,241.007 278.003,241.547 278.003,242.211C278.003,242.883 278.185,243.429 278.549,243.849C278.913,244.269 279.387,244.479 279.971,244.479C280.419,244.479 280.795,244.363 281.099,244.131C281.403,243.899 281.599,243.579 281.687,243.171L282.671,243.171ZM284.303,236.799C284.487,236.799 284.639,236.859 284.759,236.979C284.879,237.099 284.939,237.251 284.939,237.435C284.939,237.619 284.879,237.771 284.759,237.891C284.639,238.011 284.487,238.071 284.303,238.071C284.119,238.071 283.967,238.011 283.847,237.891C283.727,237.771 283.667,237.619 283.667,237.435C283.667,237.251 283.727,237.099 283.847,236.979C283.967,236.859 284.119,236.799 284.303,236.799ZM283.811,239.163L284.795,239.163L284.795,245.283L283.811,245.283L283.811,239.163ZM288.959,245.355C288.367,245.355 287.841,245.223 287.381,244.959C286.921,244.695 286.563,244.327 286.307,243.855C286.051,243.383 285.923,242.839 285.923,242.223C285.923,241.607 286.051,241.063 286.307,240.591C286.563,240.119 286.921,239.751 287.381,239.487C287.841,239.223 288.367,239.091 288.959,239.091C289.551,239.091 290.077,239.223 290.537,239.487C290.997,239.751 291.355,240.119 291.611,240.591C291.867,241.063 291.995,241.607 291.995,242.223C291.995,242.839 291.867,243.383 291.611,243.855C291.355,244.327 290.997,244.695 290.537,244.959C290.077,245.223 289.551,245.355 288.959,245.355ZM288.959,244.479C289.359,244.479 289.713,244.383 290.021,244.191C290.329,243.999 290.567,243.731 290.735,243.387C290.903,243.043 290.987,242.655 290.987,242.223C290.987,241.791 290.903,241.403 290.735,241.059C290.567,240.715 290.329,240.447 290.021,240.255C289.713,240.063 289.359,239.967 288.959,239.967C288.559,239.967 288.205,240.063 287.897,240.255C287.589,240.447 287.351,240.715 287.183,241.059C287.015,241.403 286.931,241.791 286.931,242.223C286.931,242.655 287.015,243.043 287.183,243.387C287.351,243.731 287.589,243.999 287.897,244.191C288.205,244.383 288.559,244.479 288.959,244.479ZM288.599,238.431L289.619,236.811L290.771,236.811L289.367,238.431L288.599,238.431ZM296.123,239.091C296.867,239.091 297.465,239.315 297.917,239.763C298.369,240.211 298.595,240.915 298.595,241.875L298.595,245.283L297.611,245.283L297.611,241.935C297.611,241.303 297.469,240.821 297.185,240.489C296.901,240.157 296.491,239.991 295.955,239.991C295.379,239.991 294.927,240.191 294.599,240.591C294.271,240.991 294.107,241.535 294.107,242.223L294.107,245.283L293.123,245.283L293.123,239.163L293.975,239.163L294.107,239.991C294.571,239.391 295.243,239.091 296.123,239.091Z" style="fill:rgb(28,37,44);"/>
        </g>
        <g transform="matrix(3.46425,0,0,3.46425,68.744,-140.045)">
            <path d="M246.263,236.883L246.263,245.283L245.411,245.283L245.279,244.299C244.767,245.003 244.067,245.355 243.179,245.355C242.611,245.355 242.105,245.231 241.661,244.983C241.217,244.735 240.869,244.375 240.617,243.903C240.365,243.431 240.239,242.871 240.239,242.223C240.239,241.607 240.365,241.063 240.617,240.591C240.869,240.119 241.219,239.751 241.667,239.487C242.115,239.223 242.619,239.091 243.179,239.091C243.675,239.091 244.099,239.181 244.451,239.361C244.803,239.541 245.079,239.787 245.279,240.099L245.279,236.883L246.263,236.883ZM243.275,244.479C243.667,244.479 244.017,244.385 244.325,244.197C244.633,244.009 244.871,243.745 245.039,243.405C245.207,243.065 245.291,242.679 245.291,242.247C245.291,241.807 245.207,241.413 245.039,241.065C244.871,240.717 244.633,240.447 244.325,240.255C244.017,240.063 243.667,239.967 243.275,239.967C242.667,239.967 242.177,240.177 241.805,240.597C241.433,241.017 241.247,241.559 241.247,242.223C241.247,242.887 241.433,243.429 241.805,243.849C242.177,244.269 242.667,244.479 243.275,244.479ZM247.391,242.223C247.391,241.599 247.513,241.051 247.757,240.579C248.001,240.107 248.343,239.741 248.783,239.481C249.223,239.221 249.727,239.091 250.295,239.091C250.855,239.091 251.351,239.207 251.783,239.439C252.215,239.671 252.555,240.007 252.803,240.447C253.051,240.887 253.183,241.403 253.199,241.995C253.199,242.083 253.191,242.223 253.175,242.415L248.423,242.415L248.423,242.499C248.439,243.099 248.623,243.579 248.975,243.939C249.327,244.299 249.787,244.479 250.355,244.479C250.795,244.479 251.169,244.369 251.477,244.149C251.785,243.929 251.991,243.623 252.095,243.231L253.091,243.231C252.971,243.855 252.671,244.365 252.191,244.761C251.711,245.157 251.123,245.355 250.427,245.355C249.819,245.355 249.287,245.225 248.831,244.965C248.375,244.705 248.021,244.337 247.769,243.861C247.517,243.385 247.391,242.839 247.391,242.223ZM252.179,241.599C252.131,241.079 251.937,240.675 251.597,240.387C251.257,240.099 250.827,239.955 250.307,239.955C249.843,239.955 249.435,240.107 249.083,240.411C248.731,240.715 248.531,241.111 248.483,241.599L252.179,241.599ZM254.327,236.883L255.311,236.883L255.311,245.283L254.327,245.283L254.327,236.883ZM260.939,236.883L260.939,241.755C260.939,243.515 261.655,244.395 263.087,244.395C264.535,244.395 265.259,243.515 265.259,241.755L265.259,236.883L266.303,236.883L266.303,241.695C266.303,242.895 266.029,243.805 265.481,244.425C264.933,245.045 264.135,245.355 263.087,245.355C262.039,245.355 261.245,245.045 260.705,244.425C260.165,243.805 259.895,242.895 259.895,241.695L259.895,236.883L260.939,236.883ZM268.511,243.267C268.527,243.635 268.689,243.935 268.997,244.167C269.305,244.399 269.703,244.515 270.191,244.515C270.623,244.515 270.973,244.429 271.241,244.257C271.509,244.085 271.643,243.859 271.643,243.579C271.643,243.339 271.579,243.155 271.451,243.027C271.323,242.899 271.157,242.811 270.953,242.763C270.749,242.715 270.459,242.667 270.083,242.619C269.555,242.555 269.123,242.471 268.787,242.367C268.451,242.263 268.179,242.097 267.971,241.869C267.763,241.641 267.659,241.327 267.659,240.927C267.659,240.567 267.761,240.247 267.965,239.967C268.169,239.687 268.447,239.469 268.799,239.313C269.151,239.157 269.547,239.079 269.987,239.079C270.707,239.079 271.293,239.247 271.745,239.583C272.197,239.919 272.447,240.399 272.495,241.023L271.511,241.023C271.471,240.703 271.315,240.439 271.043,240.231C270.771,240.023 270.431,239.919 270.023,239.919C269.607,239.919 269.271,240.005 269.015,240.177C268.759,240.349 268.631,240.575 268.631,240.855C268.631,241.063 268.691,241.223 268.811,241.335C268.931,241.447 269.085,241.523 269.273,241.563C269.461,241.603 269.747,241.647 270.131,241.695C270.667,241.759 271.109,241.847 271.457,241.959C271.805,242.071 272.085,242.251 272.297,242.499C272.509,242.747 272.615,243.083 272.615,243.507C272.615,243.875 272.507,244.199 272.291,244.479C272.075,244.759 271.783,244.975 271.415,245.127C271.047,245.279 270.639,245.355 270.191,245.355C269.391,245.355 268.749,245.171 268.265,244.803C267.781,244.435 267.535,243.923 267.527,243.267L268.511,243.267ZM278.999,239.163L278.999,245.283L278.147,245.283L278.015,244.467C277.551,245.059 276.899,245.355 276.059,245.355C275.331,245.355 274.747,245.131 274.307,244.683C273.867,244.235 273.647,243.531 273.647,242.571L273.647,239.163L274.631,239.163L274.631,242.511C274.631,243.143 274.769,243.625 275.045,243.957C275.321,244.289 275.715,244.455 276.227,244.455C276.787,244.455 277.225,244.255 277.541,243.855C277.857,243.455 278.015,242.911 278.015,242.223L278.015,239.163L278.999,239.163ZM286.067,244.383L286.067,245.283L285.527,245.283C285.135,245.283 284.855,245.203 284.687,245.043C284.519,244.883 284.431,244.647 284.423,244.335C283.951,245.015 283.267,245.355 282.371,245.355C281.691,245.355 281.145,245.195 280.733,244.875C280.321,244.555 280.115,244.119 280.115,243.567C280.115,242.951 280.325,242.479 280.745,242.151C281.165,241.823 281.775,241.659 282.575,241.659L284.375,241.659L284.375,241.239C284.375,240.839 284.241,240.527 283.973,240.303C283.705,240.079 283.331,239.967 282.851,239.967C282.427,239.967 282.077,240.061 281.801,240.249C281.525,240.437 281.355,240.687 281.291,240.999L280.307,240.999C280.379,240.399 280.645,239.931 281.105,239.595C281.565,239.259 282.163,239.091 282.899,239.091C283.683,239.091 284.289,239.281 284.717,239.661C285.145,240.041 285.359,240.587 285.359,241.299L285.359,243.939C285.359,244.235 285.495,244.383 285.767,244.383L286.067,244.383ZM284.375,242.487L282.479,242.487C281.567,242.487 281.111,242.827 281.111,243.507C281.111,243.811 281.231,244.055 281.471,244.239C281.711,244.423 282.035,244.515 282.443,244.515C283.043,244.515 283.515,244.357 283.859,244.041C284.203,243.725 284.375,243.307 284.375,242.787L284.375,242.487ZM289.931,239.163L289.931,240.123L289.439,240.123C288.855,240.123 288.437,240.319 288.185,240.711C287.933,241.103 287.807,241.587 287.807,242.163L287.807,245.283L286.823,245.283L286.823,239.163L287.675,239.163L287.807,240.087C287.983,239.807 288.211,239.583 288.491,239.415C288.771,239.247 289.159,239.163 289.655,239.163L289.931,239.163ZM291.323,236.799C291.507,236.799 291.659,236.859 291.779,236.979C291.899,237.099 291.959,237.251 291.959,237.435C291.959,237.619 291.899,237.771 291.779,237.891C291.659,238.011 291.507,238.071 291.323,238.071C291.139,238.071 290.987,238.011 290.867,237.891C290.747,237.771 290.687,237.619 290.687,237.435C290.687,237.251 290.747,237.099 290.867,236.979C290.987,236.859 291.139,236.799 291.323,236.799ZM290.831,239.163L291.815,239.163L291.815,245.283L290.831,245.283L290.831,239.163ZM295.979,245.355C295.387,245.355 294.861,245.223 294.401,244.959C293.941,244.695 293.583,244.327 293.327,243.855C293.071,243.383 292.943,242.839 292.943,242.223C292.943,241.607 293.071,241.063 293.327,240.591C293.583,240.119 293.941,239.751 294.401,239.487C294.861,239.223 295.387,239.091 295.979,239.091C296.571,239.091 297.097,239.223 297.557,239.487C298.017,239.751 298.375,240.119 298.631,240.591C298.887,241.063 299.015,241.607 299.015,242.223C299.015,242.839 298.887,243.383 298.631,243.855C298.375,244.327 298.017,244.695 297.557,244.959C297.097,245.223 296.571,245.355 295.979,245.355ZM295.979,244.479C296.379,244.479 296.733,244.383 297.041,244.191C297.349,243.999 297.587,243.731 297.755,243.387C297.923,243.043 298.007,242.655 298.007,242.223C298.007,241.791 297.923,241.403 297.755,241.059C297.587,240.715 297.349,240.447 297.041,240.255C296.733,240.063 296.379,239.967 295.979,239.967C295.579,239.967 295.225,240.063 294.917,240.255C294.609,240.447 294.371,240.715 294.203,241.059C294.035,241.403 293.951,241.791 293.951,242.223C293.951,242.655 294.035,243.043 294.203,243.387C294.371,243.731 294.609,243.999 294.917,244.191C295.225,244.383 295.579,244.479 295.979,244.479Z" style="fill:rgb(28,37,44);"/>
        </g>
        <g transform="matrix(3.46425,0,0,3.46425,568.215,-140.045)">
            <path d="M239.177,243.171C239.049,243.851 238.749,244.385 238.277,244.773C237.805,245.161 237.205,245.355 236.477,245.355C235.885,245.355 235.365,245.223 234.917,244.959C234.469,244.695 234.121,244.325 233.873,243.849C233.625,243.373 233.501,242.827 233.501,242.211C233.501,241.595 233.627,241.051 233.879,240.579C234.131,240.107 234.485,239.741 234.941,239.481C235.397,239.221 235.921,239.091 236.513,239.091C237.233,239.091 237.827,239.283 238.295,239.667C238.763,240.051 239.057,240.579 239.177,241.251L238.181,241.251C238.085,240.859 237.885,240.547 237.581,240.315C237.277,240.083 236.909,239.967 236.477,239.967C235.893,239.967 235.419,240.175 235.055,240.591C234.691,241.007 234.509,241.547 234.509,242.211C234.509,242.883 234.691,243.429 235.055,243.849C235.419,244.269 235.893,244.479 236.477,244.479C236.925,244.479 237.301,244.363 237.605,244.131C237.909,243.899 238.105,243.579 238.193,243.171L239.177,243.171ZM243.005,245.355C242.413,245.355 241.887,245.223 241.427,244.959C240.967,244.695 240.609,244.327 240.353,243.855C240.097,243.383 239.969,242.839 239.969,242.223C239.969,241.607 240.097,241.063 240.353,240.591C240.609,240.119 240.967,239.751 241.427,239.487C241.887,239.223 242.413,239.091 243.005,239.091C243.597,239.091 244.123,239.223 244.583,239.487C245.043,239.751 245.401,240.119 245.657,240.591C245.913,241.063 246.041,241.607 246.041,242.223C246.041,242.839 245.913,243.383 245.657,243.855C245.401,244.327 245.043,244.695 244.583,244.959C244.123,245.223 243.597,245.355 243.005,245.355ZM243.005,244.479C243.405,244.479 243.759,244.383 244.067,244.191C244.375,243.999 244.613,243.731 244.781,243.387C244.949,243.043 245.033,242.655 245.033,242.223C245.033,241.791 244.949,241.403 244.781,241.059C244.613,240.715 244.375,240.447 244.067,240.255C243.759,240.063 243.405,239.967 243.005,239.967C242.605,239.967 242.251,240.063 241.943,240.255C241.635,240.447 241.397,240.715 241.229,241.059C241.061,241.403 240.977,241.791 240.977,242.223C240.977,242.655 241.061,243.043 241.229,243.387C241.397,243.731 241.635,243.999 241.943,244.191C242.251,244.383 242.605,244.479 243.005,244.479ZM250.169,239.091C250.913,239.091 251.511,239.315 251.963,239.763C252.415,240.211 252.641,240.915 252.641,241.875L252.641,245.283L251.657,245.283L251.657,241.935C251.657,241.303 251.515,240.821 251.231,240.489C250.947,240.157 250.537,239.991 250.001,239.991C249.425,239.991 248.973,240.191 248.645,240.591C248.317,240.991 248.153,241.535 248.153,242.223L248.153,245.283L247.169,245.283L247.169,239.163L248.021,239.163L248.153,239.991C248.617,239.391 249.289,239.091 250.169,239.091ZM256.829,242.223C256.829,241.599 256.951,241.051 257.195,240.579C257.439,240.107 257.781,239.741 258.221,239.481C258.661,239.221 259.165,239.091 259.733,239.091C260.293,239.091 260.789,239.207 261.221,239.439C261.653,239.671 261.993,240.007 262.241,240.447C262.489,240.887 262.621,241.403 262.637,241.995C262.637,242.083 262.629,242.223 262.613,242.415L257.861,242.415L257.861,242.499C257.877,243.099 258.061,243.579 258.413,243.939C258.765,244.299 259.225,244.479 259.793,244.479C260.233,244.479 260.607,244.369 260.915,244.149C261.223,243.929 261.429,243.623 261.533,243.231L262.529,243.231C262.409,243.855 262.109,244.365 261.629,244.761C261.149,245.157 260.561,245.355 259.865,245.355C259.257,245.355 258.725,245.225 258.269,244.965C257.813,244.705 257.459,244.337 257.207,243.861C256.955,243.385 256.829,242.839 256.829,242.223ZM261.617,241.599C261.569,241.079 261.375,240.675 261.035,240.387C260.695,240.099 260.265,239.955 259.745,239.955C259.281,239.955 258.873,240.107 258.521,240.411C258.169,240.715 257.969,241.111 257.921,241.599L261.617,241.599ZM263.765,236.883L264.749,236.883L264.749,245.283L263.765,245.283L263.765,236.883ZM269.381,236.883L270.701,236.883L273.677,243.855L276.617,236.883L277.913,236.883L277.913,245.283L276.893,245.283L276.893,238.659L274.109,245.283L273.185,245.283L270.401,238.659L270.401,245.283L269.381,245.283L269.381,236.883ZM284.669,239.163L284.669,245.283L283.817,245.283L283.685,244.467C283.221,245.059 282.569,245.355 281.729,245.355C281.001,245.355 280.417,245.131 279.977,244.683C279.537,244.235 279.317,243.531 279.317,242.571L279.317,239.163L280.301,239.163L280.301,242.511C280.301,243.143 280.439,243.625 280.715,243.957C280.991,244.289 281.385,244.455 281.897,244.455C282.457,244.455 282.895,244.255 283.211,243.855C283.527,243.455 283.685,242.911 283.685,242.223L283.685,239.163L284.669,239.163ZM289.013,239.091C289.757,239.091 290.355,239.315 290.807,239.763C291.259,240.211 291.485,240.915 291.485,241.875L291.485,245.283L290.501,245.283L290.501,241.935C290.501,241.303 290.359,240.821 290.075,240.489C289.791,240.157 289.381,239.991 288.845,239.991C288.269,239.991 287.817,240.191 287.489,240.591C287.161,240.991 286.997,241.535 286.997,242.223L286.997,245.283L286.013,245.283L286.013,239.163L286.865,239.163L286.997,239.991C287.461,239.391 288.133,239.091 289.013,239.091ZM298.553,236.883L298.553,245.283L297.701,245.283L297.569,244.299C297.057,245.003 296.357,245.355 295.469,245.355C294.901,245.355 294.395,245.231 293.951,244.983C293.507,244.735 293.159,244.375 292.907,243.903C292.655,243.431 292.529,242.871 292.529,242.223C292.529,241.607 292.655,241.063 292.907,240.591C293.159,240.119 293.509,239.751 293.957,239.487C294.405,239.223 294.909,239.091 295.469,239.091C295.965,239.091 296.389,239.181 296.741,239.361C297.093,239.541 297.369,239.787 297.569,240.099L297.569,236.883L298.553,236.883ZM295.565,244.479C295.957,244.479 296.307,244.385 296.615,244.197C296.923,244.009 297.161,243.745 297.329,243.405C297.497,243.065 297.581,242.679 297.581,242.247C297.581,241.807 297.497,241.413 297.329,241.065C297.161,240.717 296.923,240.447 296.615,240.255C296.307,240.063 295.957,239.967 295.565,239.967C294.957,239.967 294.467,240.177 294.095,240.597C293.723,241.017 293.537,241.559 293.537,242.223C293.537,242.887 293.723,243.429 294.095,243.849C294.467,244.269 294.957,244.479 295.565,244.479ZM302.717,245.355C302.125,245.355 301.599,245.223 301.139,244.959C300.679,244.695 300.321,244.327 300.065,243.855C299.809,243.383 299.681,242.839 299.681,242.223C299.681,241.607 299.809,241.063 300.065,240.591C300.321,240.119 300.679,239.751 301.139,239.487C301.599,239.223 302.125,239.091 302.717,239.091C303.309,239.091 303.835,239.223 304.295,239.487C304.755,239.751 305.113,240.119 305.369,240.591C305.625,241.063 305.753,241.607 305.753,242.223C305.753,242.839 305.625,243.383 305.369,243.855C305.113,244.327 304.755,244.695 304.295,244.959C303.835,245.223 303.309,245.355 302.717,245.355ZM302.717,244.479C303.117,244.479 303.471,244.383 303.779,244.191C304.087,243.999 304.325,243.731 304.493,243.387C304.661,243.043 304.745,242.655 304.745,242.223C304.745,241.791 304.661,241.403 304.493,241.059C304.325,240.715 304.087,240.447 303.779,240.255C303.471,240.063 303.117,239.967 302.717,239.967C302.317,239.967 301.963,240.063 301.655,240.255C301.347,240.447 301.109,240.715 300.941,241.059C300.773,241.403 300.689,241.791 300.689,242.223C300.689,242.655 300.773,243.043 300.941,243.387C301.109,243.731 301.347,243.999 301.655,244.191C301.963,244.383 302.317,244.479 302.717,244.479Z" style="fill:rgb(28,37,44);"/>
        </g>
    </g>
</svg>
