<?xml version="1.0" encoding="UTF-8" standalone="no"?>
<!DOCTYPE svg PUBLIC "-//W3C//DTD SVG 1.1//EN" "http://www.w3.org/Graphics/SVG/1.1/DTD/svg11.dtd">
<svg width="100%" height="100%" viewBox="0 0 1000 400" version="1.1" xmlns="http://www.w3.org/2000/svg" xmlns:xlink="http://www.w3.org/1999/xlink" xml:space="preserve" xmlns:serif="http://www.serif.com/" style="fill-rule:evenodd;clip-rule:evenodd;stroke-linejoin:round;stroke-miterlimit:2;">
    <g transform="matrix(2.37531,0,0,2.37531,338.042,258.699)">
        <g transform="matrix(2.83277,0,0,2.83277,-36.317,-44.5407)">
            <path d="M0,-3.111C4.859,-3.111 8.798,0.828 8.798,5.687C8.798,10.546 4.859,14.485 0,14.485C-4.859,14.485 -8.798,10.546 -8.798,5.687C-8.798,0.828 -4.859,-3.111 0,-3.111ZM0,11.374C3.136,11.374 5.687,8.823 5.687,5.687C5.687,2.551 3.136,0 0,0C-3.136,0 -5.687,2.551 -5.687,5.687C-5.687,8.823 -3.136,11.374 0,11.374ZM54.394,-3.086C59.223,-3.086 63.151,0.842 63.151,5.671L63.151,7.227L51.543,7.227C51.301,6.761 51.164,6.232 51.164,5.671C51.164,5.11 51.301,4.581 51.543,4.116L59.823,4.116C59.145,1.756 56.968,0.025 54.394,0.025C51.281,0.025 48.748,2.558 48.748,5.671C48.748,7.994 50.159,9.994 52.168,10.859C52.852,11.153 53.604,11.317 54.394,11.317C55.962,11.317 57.382,10.674 58.406,9.639L62.197,9.639C60.747,12.478 57.795,14.428 54.394,14.428C53.625,14.428 52.879,14.328 52.168,14.141C48.414,13.153 45.637,9.73 45.637,5.671C45.637,0.842 49.565,-3.086 54.394,-3.086ZM33.312,-2.663C37.55,-2.663 40.998,0.785 40.998,5.023L40.998,14.134L37.887,14.134L37.887,5.023C37.887,2.5 35.835,0.448 33.312,0.448C30.79,0.448 28.737,2.5 28.737,5.023L28.737,14.134L25.626,14.134L25.626,5.023C25.626,2.5 23.574,0.448 21.051,0.448C18.529,0.448 16.477,2.5 16.477,5.023L16.477,14.134L13.366,14.134L13.366,5.023C13.366,0.785 16.813,-2.663 21.051,-2.663C23.552,-2.663 25.777,-1.462 27.182,0.394C28.586,-1.462 30.811,-2.663 33.312,-2.663ZM74.892,-2.663C79.13,-2.663 82.578,0.785 82.578,5.023L82.578,14.134L79.467,14.134L79.467,5.023C79.467,2.5 77.415,0.448 74.892,0.448C72.37,0.448 70.317,2.5 70.317,5.023L70.317,14.134L67.206,14.134L67.206,5.023C67.206,0.785 70.654,-2.663 74.892,-2.663Z" style="fill:rgb(15,24,32);"/>
        </g>
        <g transform="matrix(2.83277,0,0,2.83277,-53.5391,3.3141)">
            <path d="M0,6.115L12.159,0L0,0L0,6.115Z" style="fill:rgb(0,188,181);fill-rule:nonzero;"/>
        </g>
    </g>
</svg>
