<?xml version="1.0" encoding="UTF-8" standalone="no"?>
<!DOCTYPE svg PUBLIC "-//W3C//DTD SVG 1.1//EN" "http://www.w3.org/Graphics/SVG/1.1/DTD/svg11.dtd">
<svg width="100%" height="100%" viewBox="0 0 1000 400" version="1.1" xmlns="http://www.w3.org/2000/svg" xmlns:xlink="http://www.w3.org/1999/xlink" xml:space="preserve" xmlns:serif="http://www.serif.com/" style="fill-rule:evenodd;clip-rule:evenodd;stroke-linejoin:round;stroke-miterlimit:2;">
    <g transform="matrix(2.37531,0,0,2.37531,338.042,258.699)">
        <g transform="matrix(3.06638,0,0,3.06638,60.6259,-40.4827)">
            <path d="M0,-4.737L-1.604,-1.259C-2.149,-0.282 -0.09,-0.28 -0.09,-0.28L-0.092,0L-2.985,0C-2.985,0 -1.866,-2.451 -1.474,-3.303L-0.81,-4.737L0,-4.737ZM9.74,-1.392C10.303,-0.418 11.847,-0.28 11.847,-0.28L11.847,-0L4.419,-0L4.419,-0.28C4.419,-0.28 6.71,-0.587 6.259,-1.52L4.638,-5.095L-1.172,-5.095L-3.537,-0L-4.346,-0L1.301,-12.196L1.036,-12.688L-4.828,-0L-6.917,-0L-6.917,-0.28C-6.917,-0.28 -5.615,-0.201 -4.866,-1.646L1.848,-16.141L2.952,-16.141L9.74,-1.392ZM-0.832,-5.83L4.293,-5.83L2.386,-9.891L0.672,-6.188L-0.138,-6.188L1.978,-10.76L1.71,-11.33L-0.832,-5.83Z" style="fill:rgb(50,62,72);"/>
        </g>
        <g transform="matrix(3.06638,0,0,3.06638,-36.758,3.95713)">
            <path d="M1.659,1.621L1.659,1.494C1.684,1.494 1.745,1.486 1.842,1.469C1.939,1.452 2.04,1.423 2.146,1.38C2.252,1.338 2.344,1.279 2.425,1.203C2.505,1.127 2.545,1.03 2.545,0.912C2.545,0.836 2.521,0.711 2.475,0.538C2.429,0.365 2.363,0.154 2.279,-0.095C2.194,-0.344 2.097,-0.62 1.988,-0.924C1.878,-1.228 1.76,-1.545 1.633,-1.874L-1.735,-1.874C-1.861,-1.553 -1.984,-1.247 -2.102,-0.956C-2.22,-0.665 -2.338,-0.371 -2.456,-0.076C-2.633,0.38 -2.722,0.701 -2.722,0.886C-2.722,0.996 -2.688,1.087 -2.621,1.159C-2.554,1.23 -2.467,1.29 -2.361,1.336C-2.256,1.382 -2.142,1.416 -2.019,1.437C-1.897,1.458 -1.781,1.477 -1.671,1.494L-1.671,1.621L-4.368,1.621L-4.368,1.481C-4.149,1.456 -3.961,1.397 -3.805,1.304C-3.649,1.211 -3.558,1.148 -3.532,1.114C-3.474,1.055 -3.376,0.916 -3.241,0.696C-3.106,0.477 -2.942,0.152 -2.747,-0.278C-2.57,-0.675 -2.372,-1.127 -2.152,-1.633C-1.933,-2.14 -1.707,-2.661 -1.475,-3.197C-1.243,-3.733 -1.013,-4.273 -0.785,-4.817C-0.557,-5.362 -0.342,-5.87 -0.139,-6.343L0.44,-7.673L0.95,-7.673C1.211,-6.972 1.46,-6.307 1.697,-5.678C1.933,-5.05 2.159,-4.444 2.374,-3.862C2.589,-3.279 2.798,-2.716 3.001,-2.171C3.203,-1.627 3.406,-1.089 3.609,-0.557C3.701,-0.295 3.788,-0.078 3.868,0.095C3.948,0.268 4.039,0.464 4.14,0.684C4.157,0.718 4.195,0.777 4.254,0.861C4.313,0.946 4.391,1.032 4.488,1.121C4.585,1.209 4.706,1.287 4.849,1.355C4.993,1.423 5.161,1.461 5.356,1.469L5.356,1.621L1.659,1.621ZM0,-6.052C-0.051,-5.942 -0.125,-5.769 -0.222,-5.533C-0.319,-5.296 -0.439,-5.009 -0.583,-4.672C-0.726,-4.334 -0.884,-3.952 -1.057,-3.526C-1.23,-3.1 -1.418,-2.638 -1.621,-2.14L1.532,-2.14C1.388,-2.52 1.243,-2.899 1.095,-3.279C0.947,-3.659 0.804,-4.024 0.665,-4.374C0.525,-4.725 0.399,-5.045 0.285,-5.337C0.171,-5.628 0.076,-5.866 0,-6.052ZM13.079,1.621C13.003,1.545 12.948,1.488 12.915,1.45C12.881,1.412 12.843,1.368 12.801,1.317C12.759,1.267 12.706,1.193 12.643,1.096C12.579,0.999 12.48,0.853 12.345,0.659C12.185,0.423 12.043,0.209 11.921,0.019C11.798,-0.171 11.674,-0.358 11.547,-0.544C11.421,-0.73 11.284,-0.918 11.136,-1.107C10.988,-1.297 10.813,-1.51 10.61,-1.747C10.441,-1.941 10.258,-2.122 10.06,-2.291C9.861,-2.46 9.652,-2.565 9.433,-2.608C9.272,-2.641 9.15,-2.658 9.066,-2.658C8.99,-2.658 8.893,-2.663 8.775,-2.671L8.775,-1.24C8.775,-0.835 8.779,-0.493 8.787,-0.215C8.796,0.055 8.804,0.287 8.813,0.481C8.821,0.676 8.867,0.836 8.952,0.963C9.019,1.072 9.15,1.184 9.344,1.298C9.538,1.412 9.808,1.478 10.155,1.494L10.155,1.621L6.103,1.621L6.103,1.494C6.314,1.461 6.517,1.41 6.711,1.343C6.905,1.275 7.057,1.174 7.167,1.039C7.209,0.988 7.242,0.912 7.268,0.811C7.293,0.709 7.312,0.595 7.325,0.469C7.338,0.342 7.348,0.207 7.356,0.064C7.365,-0.08 7.369,-0.219 7.369,-0.354C7.369,-0.472 7.371,-0.633 7.375,-0.835C7.38,-1.038 7.384,-1.259 7.388,-1.5C7.392,-1.741 7.394,-1.987 7.394,-2.241L7.394,-5.444C7.394,-5.596 7.392,-5.75 7.388,-5.906C7.384,-6.062 7.375,-6.21 7.363,-6.349C7.35,-6.489 7.329,-6.615 7.3,-6.729C7.27,-6.843 7.23,-6.925 7.179,-6.976C7.053,-7.111 6.911,-7.202 6.755,-7.248C6.599,-7.295 6.407,-7.335 6.179,-7.368L6.179,-7.495L6.698,-7.495C6.985,-7.495 7.31,-7.497 7.673,-7.501C8.036,-7.506 8.399,-7.508 8.762,-7.508L9.648,-7.508C10.213,-7.508 10.716,-7.491 11.155,-7.457C11.594,-7.423 11.995,-7.309 12.358,-7.115C12.729,-6.921 13.029,-6.657 13.257,-6.324C13.484,-5.99 13.598,-5.571 13.598,-5.064C13.598,-4.752 13.542,-4.471 13.428,-4.222C13.314,-3.973 13.162,-3.754 12.972,-3.564C12.782,-3.374 12.56,-3.211 12.307,-3.076C12.054,-2.941 11.788,-2.827 11.509,-2.734L11.509,-2.696C11.653,-2.621 11.792,-2.511 11.927,-2.367C12.062,-2.224 12.193,-2.063 12.32,-1.886C12.539,-1.565 12.778,-1.219 13.035,-0.848C13.292,-0.476 13.523,-0.147 13.725,0.14C14.037,0.579 14.341,0.899 14.637,1.102C14.932,1.305 15.278,1.435 15.675,1.494L15.675,1.621L13.079,1.621ZM11.826,-6.267C11.615,-6.596 11.307,-6.858 10.902,-7.052C10.699,-7.145 10.486,-7.212 10.262,-7.255C10.038,-7.297 9.804,-7.318 9.56,-7.318C9.382,-7.318 9.239,-7.313 9.129,-7.305C9.019,-7.297 8.935,-7.288 8.876,-7.28C8.867,-7.229 8.859,-7.185 8.85,-7.147C8.842,-7.109 8.836,-7.06 8.832,-7.001C8.827,-6.942 8.823,-6.86 8.819,-6.754C8.814,-6.649 8.808,-6.499 8.8,-6.305C8.791,-6.009 8.785,-5.676 8.781,-5.305C8.777,-4.933 8.775,-4.574 8.775,-4.229L8.775,-2.836C9.121,-2.836 9.443,-2.85 9.743,-2.88C10.043,-2.91 10.332,-2.971 10.61,-3.064C10.881,-3.148 11.112,-3.262 11.307,-3.405C11.501,-3.549 11.659,-3.711 11.782,-3.893C11.904,-4.074 11.995,-4.271 12.054,-4.482C12.113,-4.693 12.142,-4.912 12.142,-5.14C12.142,-5.562 12.037,-5.938 11.826,-6.267ZM23.664,1.621L23.664,1.482C24.027,1.465 24.331,1.389 24.575,1.254C24.82,1.119 24.985,0.963 25.069,0.785C25.12,0.676 25.158,0.538 25.183,0.374C25.209,0.209 25.225,0.043 25.234,-0.126C25.251,-0.683 25.259,-1.215 25.259,-1.722L25.259,-6.875C24.981,-6.25 24.725,-5.676 24.493,-5.153C24.261,-4.629 24.031,-4.119 23.803,-3.621C23.575,-3.123 23.345,-2.614 23.113,-2.095C22.881,-1.576 22.626,-1.004 22.347,-0.379C22.305,-0.295 22.246,-0.162 22.17,0.019C22.094,0.201 22.018,0.387 21.942,0.576C21.866,0.766 21.794,0.939 21.727,1.096C21.659,1.252 21.617,1.355 21.6,1.406L21.524,1.406C21.254,0.781 20.986,0.161 20.72,-0.455C20.454,-1.072 20.195,-1.665 19.941,-2.234C19.688,-2.804 19.452,-3.338 19.233,-3.836C19.013,-4.334 18.815,-4.777 18.638,-5.165C18.46,-5.554 18.314,-5.879 18.2,-6.14C18.087,-6.402 18.008,-6.579 17.966,-6.672C17.966,-6.115 17.964,-5.623 17.96,-5.197C17.956,-4.771 17.952,-4.349 17.947,-3.931C17.943,-3.513 17.941,-3.072 17.941,-2.608L17.941,-0.987C17.941,-0.59 17.954,-0.247 17.979,0.045C18.004,0.336 18.068,0.581 18.169,0.779C18.27,0.977 18.424,1.134 18.631,1.247C18.838,1.361 19.123,1.444 19.486,1.494L19.486,1.621L16.181,1.621L16.181,1.494C16.477,1.435 16.717,1.349 16.903,1.235C17.088,1.121 17.236,0.963 17.346,0.76C17.456,0.557 17.536,0.306 17.586,0.007C17.637,-0.293 17.667,-0.658 17.675,-1.089C17.692,-1.451 17.705,-1.88 17.713,-2.374C17.722,-2.867 17.726,-3.397 17.726,-3.963L17.726,-5.558C17.726,-5.727 17.722,-5.933 17.713,-6.178C17.705,-6.415 17.654,-6.607 17.561,-6.754C17.468,-6.902 17.359,-7.018 17.232,-7.103C17.105,-7.187 16.97,-7.248 16.827,-7.286C16.683,-7.324 16.561,-7.352 16.46,-7.369L16.46,-7.495L19.157,-7.495L22.182,-0.607C22.554,-1.409 22.917,-2.207 23.272,-3C23.626,-3.794 23.944,-4.511 24.227,-5.153C24.51,-5.794 24.742,-6.328 24.924,-6.754C25.105,-7.181 25.209,-7.427 25.234,-7.495L27.931,-7.495L27.931,-7.369C27.585,-7.36 27.321,-7.288 27.14,-7.153C26.958,-7.018 26.834,-6.858 26.766,-6.672C26.715,-6.529 26.682,-6.305 26.665,-6.001C26.648,-5.697 26.635,-5.397 26.627,-5.102C26.618,-4.697 26.614,-4.305 26.614,-3.925L26.614,-1.405C26.614,-0.958 26.618,-0.485 26.627,0.013C26.627,0.173 26.637,0.336 26.658,0.5C26.679,0.665 26.715,0.794 26.766,0.887C26.774,0.904 26.806,0.944 26.861,1.007C26.916,1.07 26.994,1.138 27.095,1.21C27.196,1.281 27.323,1.345 27.475,1.399C27.627,1.454 27.804,1.486 28.007,1.494L28.007,1.621L23.664,1.621ZM46.087,1.621C46.011,1.545 45.956,1.488 45.923,1.45C45.889,1.412 45.851,1.368 45.809,1.317C45.767,1.267 45.714,1.193 45.651,1.096C45.587,0.999 45.488,0.853 45.353,0.659C45.193,0.423 45.051,0.209 44.929,0.019C44.806,-0.171 44.682,-0.358 44.555,-0.544C44.429,-0.73 44.292,-0.918 44.144,-1.107C43.996,-1.297 43.821,-1.51 43.618,-1.747C43.449,-1.941 43.266,-2.122 43.068,-2.291C42.869,-2.46 42.66,-2.565 42.441,-2.608C42.28,-2.641 42.158,-2.658 42.074,-2.658C41.998,-2.658 41.901,-2.663 41.783,-2.671L41.783,-1.24C41.783,-0.835 41.787,-0.493 41.795,-0.215C41.804,0.055 41.812,0.287 41.821,0.481C41.829,0.676 41.875,0.836 41.96,0.963C42.027,1.072 42.158,1.184 42.352,1.298C42.546,1.412 42.816,1.478 43.163,1.494L43.163,1.621L39.111,1.621L39.111,1.494C39.322,1.461 39.525,1.41 39.719,1.343C39.913,1.275 40.065,1.174 40.175,1.039C40.217,0.988 40.25,0.912 40.276,0.811C40.301,0.709 40.32,0.595 40.333,0.469C40.346,0.342 40.356,0.207 40.364,0.064C40.373,-0.08 40.377,-0.219 40.377,-0.354C40.377,-0.472 40.379,-0.633 40.383,-0.835C40.388,-1.038 40.392,-1.259 40.396,-1.5C40.4,-1.741 40.402,-1.987 40.402,-2.241L40.402,-5.444C40.402,-5.596 40.4,-5.75 40.396,-5.906C40.392,-6.062 40.383,-6.21 40.371,-6.349C40.358,-6.489 40.337,-6.615 40.308,-6.729C40.278,-6.843 40.238,-6.925 40.187,-6.976C40.061,-7.111 39.919,-7.202 39.763,-7.248C39.607,-7.295 39.415,-7.335 39.187,-7.368L39.187,-7.495L39.706,-7.495C39.993,-7.495 40.318,-7.497 40.681,-7.501C41.044,-7.506 41.407,-7.508 41.77,-7.508L42.656,-7.508C43.221,-7.508 43.724,-7.491 44.163,-7.457C44.602,-7.423 45.003,-7.309 45.366,-7.115C45.737,-6.921 46.037,-6.657 46.265,-6.324C46.492,-5.99 46.606,-5.571 46.606,-5.064C46.606,-4.752 46.55,-4.471 46.436,-4.222C46.322,-3.973 46.17,-3.754 45.98,-3.564C45.79,-3.374 45.568,-3.211 45.315,-3.076C45.062,-2.941 44.796,-2.827 44.517,-2.734L44.517,-2.696C44.661,-2.621 44.8,-2.511 44.935,-2.367C45.07,-2.224 45.201,-2.063 45.328,-1.886C45.547,-1.565 45.786,-1.219 46.043,-0.848C46.3,-0.476 46.531,-0.147 46.733,0.14C47.045,0.579 47.349,0.899 47.645,1.102C47.94,1.305 48.286,1.435 48.683,1.494L48.683,1.621L46.087,1.621ZM44.834,-6.267C44.623,-6.596 44.315,-6.858 43.91,-7.052C43.707,-7.145 43.494,-7.212 43.27,-7.255C43.046,-7.297 42.812,-7.318 42.568,-7.318C42.39,-7.318 42.247,-7.313 42.137,-7.305C42.027,-7.297 41.943,-7.288 41.884,-7.28C41.875,-7.229 41.867,-7.185 41.858,-7.147C41.85,-7.109 41.844,-7.06 41.84,-7.001C41.835,-6.942 41.831,-6.86 41.827,-6.754C41.823,-6.649 41.816,-6.499 41.808,-6.305C41.799,-6.009 41.793,-5.676 41.789,-5.305C41.785,-4.933 41.783,-4.574 41.783,-4.229L41.783,-2.836C42.129,-2.836 42.451,-2.85 42.751,-2.88C43.051,-2.91 43.34,-2.971 43.618,-3.064C43.889,-3.148 44.12,-3.262 44.315,-3.405C44.509,-3.549 44.667,-3.711 44.79,-3.893C44.912,-4.074 45.003,-4.271 45.062,-4.482C45.121,-4.693 45.15,-4.912 45.15,-5.14C45.15,-5.562 45.045,-5.938 44.834,-6.267ZM49.455,1.621L49.455,1.494C49.666,1.461 49.862,1.406 50.044,1.33C50.225,1.254 50.379,1.144 50.506,1.001C50.548,0.95 50.58,0.878 50.601,0.785C50.622,0.693 50.639,0.583 50.652,0.456C50.664,0.33 50.672,0.197 50.677,0.057C50.681,-0.082 50.683,-0.219 50.683,-0.354C50.683,-0.472 50.685,-0.633 50.69,-0.835C50.694,-1.038 50.698,-1.259 50.702,-1.5C50.706,-1.741 50.708,-1.987 50.708,-2.241L50.708,-5.9C50.708,-6.052 50.702,-6.193 50.69,-6.324C50.677,-6.455 50.658,-6.573 50.633,-6.679C50.607,-6.784 50.569,-6.866 50.519,-6.925C50.4,-7.069 50.255,-7.172 50.082,-7.236C49.909,-7.299 49.713,-7.343 49.493,-7.369L49.493,-7.495L53.279,-7.495L53.279,-7.369C53.101,-7.343 52.912,-7.297 52.709,-7.229C52.506,-7.162 52.35,-7.027 52.241,-6.824C52.165,-6.68 52.124,-6.499 52.12,-6.28C52.116,-6.06 52.11,-5.853 52.101,-5.659C52.101,-5.448 52.099,-5.239 52.095,-5.033C52.091,-4.826 52.088,-4.617 52.088,-4.406L52.088,-0.164C52.088,0.081 52.093,0.317 52.101,0.545C52.11,0.773 52.148,0.933 52.215,1.026C52.317,1.17 52.477,1.279 52.696,1.355C52.916,1.431 53.114,1.478 53.292,1.494L53.292,1.621L49.455,1.621ZM64.249,-7.128C64.068,-7.01 63.926,-6.828 63.825,-6.584C63.8,-6.524 63.776,-6.427 63.755,-6.292C63.734,-6.157 63.715,-6.001 63.698,-5.824C63.681,-5.647 63.669,-5.459 63.66,-5.26C63.652,-5.062 63.648,-4.866 63.648,-4.672C63.639,-4.309 63.629,-3.903 63.616,-3.456C63.603,-3.009 63.588,-2.502 63.572,-1.937C63.563,-1.776 63.553,-1.574 63.54,-1.329C63.527,-1.084 63.487,-0.825 63.42,-0.55C63.352,-0.276 63.244,-0.002 63.097,0.273C62.949,0.547 62.74,0.796 62.47,1.02C62.2,1.243 61.854,1.421 61.432,1.551C61.01,1.682 60.491,1.748 59.875,1.748C59.267,1.748 58.754,1.684 58.336,1.558C57.918,1.431 57.574,1.26 57.304,1.045C57.034,0.83 56.825,0.593 56.678,0.336C56.53,0.078 56.42,-0.175 56.349,-0.424C56.277,-0.673 56.235,-0.901 56.222,-1.107C56.209,-1.314 56.203,-1.468 56.203,-1.57C56.203,-1.806 56.205,-2.114 56.209,-2.494C56.213,-2.874 56.216,-3.296 56.216,-3.76L56.216,-5.9C56.216,-6.052 56.209,-6.193 56.197,-6.324C56.184,-6.455 56.165,-6.573 56.139,-6.679C56.114,-6.784 56.076,-6.866 56.025,-6.925C55.907,-7.069 55.762,-7.172 55.589,-7.236C55.416,-7.299 55.219,-7.343 55,-7.369L55,-7.495L58.773,-7.495L58.773,-7.369C58.655,-7.352 58.528,-7.326 58.393,-7.293C58.258,-7.259 58.136,-7.206 58.026,-7.134C57.916,-7.062 57.824,-6.963 57.747,-6.837C57.672,-6.71 57.629,-6.55 57.621,-6.356C57.612,-6.136 57.606,-5.942 57.602,-5.773C57.598,-5.604 57.596,-5.44 57.596,-5.279L57.596,-2.76C57.596,-2.566 57.598,-2.378 57.602,-2.196C57.606,-2.015 57.608,-1.823 57.608,-1.62C57.616,-1.173 57.684,-0.766 57.811,-0.399C57.937,-0.031 58.115,0.281 58.343,0.538C58.571,0.796 58.849,0.994 59.178,1.134C59.507,1.273 59.883,1.342 60.305,1.342C60.786,1.342 61.194,1.288 61.527,1.178C61.86,1.068 62.139,0.916 62.363,0.722C62.586,0.528 62.763,0.304 62.894,0.051C63.025,-0.202 63.122,-0.472 63.186,-0.759C63.249,-1.046 63.291,-1.34 63.312,-1.639C63.333,-1.939 63.344,-2.232 63.344,-2.519L63.344,-4.672C63.344,-4.84 63.342,-5.014 63.338,-5.191C63.333,-5.368 63.327,-5.537 63.319,-5.697C63.31,-5.857 63.297,-6.007 63.28,-6.147C63.263,-6.286 63.238,-6.398 63.205,-6.482C63.12,-6.718 62.974,-6.911 62.768,-7.058C62.561,-7.206 62.255,-7.309 61.85,-7.369L61.85,-7.495L64.99,-7.495L64.99,-7.369C64.677,-7.326 64.43,-7.246 64.249,-7.128ZM72.568,0.215C72.404,0.536 72.176,0.81 71.884,1.038C71.593,1.266 71.245,1.435 70.84,1.544C70.435,1.654 69.991,1.709 69.51,1.709C69.097,1.709 68.742,1.684 68.447,1.633C68.151,1.582 67.906,1.521 67.712,1.449C67.518,1.378 67.373,1.312 67.276,1.253C67.178,1.194 67.117,1.165 67.092,1.165C67.067,1.165 67.012,1.215 66.928,1.316C66.843,1.418 66.767,1.515 66.699,1.608L66.585,1.608L66.548,-0.912L66.674,-0.912C66.75,-0.684 66.847,-0.462 66.965,-0.247C67.084,-0.032 67.212,0.171 67.351,0.361C67.491,0.551 67.639,0.717 67.795,0.861C67.951,1.004 68.101,1.114 68.244,1.19C68.387,1.266 68.578,1.342 68.814,1.418C69.05,1.494 69.278,1.532 69.498,1.532C70.122,1.532 70.629,1.361 71.017,1.019C71.405,0.677 71.599,0.215 71.599,-0.367C71.599,-0.604 71.561,-0.811 71.485,-0.988C71.41,-1.165 71.306,-1.319 71.175,-1.45C71.044,-1.581 70.89,-1.693 70.713,-1.785C70.536,-1.878 70.346,-1.963 70.143,-2.039C69.941,-2.115 69.764,-2.178 69.612,-2.229C69.46,-2.279 69.318,-2.328 69.187,-2.374C69.056,-2.421 68.922,-2.467 68.782,-2.514C68.643,-2.56 68.476,-2.621 68.282,-2.697C68.062,-2.781 67.852,-2.898 67.649,-3.045C67.447,-3.193 67.269,-3.366 67.117,-3.564C66.965,-3.763 66.843,-3.982 66.75,-4.223C66.657,-4.463 66.611,-4.719 66.611,-4.989C66.611,-5.445 66.694,-5.837 66.86,-6.166C67.027,-6.496 67.251,-6.77 67.532,-6.989C67.813,-7.209 68.137,-7.371 68.504,-7.477C68.871,-7.582 69.257,-7.635 69.662,-7.635C70.042,-7.635 70.367,-7.603 70.637,-7.54C70.907,-7.477 71.129,-7.407 71.302,-7.331C71.475,-7.255 71.606,-7.186 71.694,-7.122C71.783,-7.059 71.832,-7.027 71.84,-7.027C71.865,-7.027 71.918,-7.078 71.998,-7.179C72.078,-7.28 72.152,-7.382 72.22,-7.483L72.359,-7.483L72.359,-5.141L72.22,-5.141C72.119,-5.419 71.988,-5.696 71.827,-5.97C71.667,-6.244 71.481,-6.489 71.27,-6.704C71.059,-6.92 70.819,-7.095 70.549,-7.23C70.278,-7.365 69.979,-7.432 69.65,-7.432C69.388,-7.432 69.141,-7.395 68.909,-7.318C68.677,-7.243 68.474,-7.129 68.301,-6.977C68.128,-6.825 67.993,-6.637 67.896,-6.413C67.799,-6.189 67.75,-5.934 67.75,-5.647C67.75,-5.2 67.885,-4.841 68.155,-4.571C68.424,-4.301 68.774,-4.086 69.203,-3.925C69.371,-3.858 69.529,-3.799 69.676,-3.748C69.824,-3.697 69.969,-3.649 70.112,-3.602C70.255,-3.556 70.401,-3.507 70.548,-3.457C70.695,-3.406 70.849,-3.351 71.009,-3.292C71.581,-3.081 72.026,-2.775 72.341,-2.374C72.657,-1.973 72.815,-1.473 72.815,-0.874C72.815,-0.469 72.733,-0.106 72.568,0.215ZM34.654,1.621L34.654,1.494C34.679,1.494 34.74,1.486 34.837,1.469C34.934,1.452 35.035,1.423 35.141,1.38C35.247,1.338 35.339,1.279 35.42,1.203C35.5,1.127 35.54,1.03 35.54,0.912C35.54,0.836 35.516,0.711 35.47,0.538C35.424,0.365 35.358,0.154 35.274,-0.095C35.189,-0.344 35.092,-0.62 34.983,-0.924C34.873,-1.228 34.755,-1.545 34.628,-1.874L31.26,-1.874C31.134,-1.553 31.011,-1.247 30.893,-0.956C30.775,-0.665 30.657,-0.371 30.539,-0.076C30.362,0.38 30.273,0.701 30.273,0.886C30.273,0.996 30.307,1.087 30.374,1.159C30.441,1.23 30.528,1.29 30.634,1.336C30.739,1.382 30.853,1.416 30.976,1.437C31.098,1.458 31.214,1.477 31.324,1.494L31.324,1.621L28.627,1.621L28.627,1.481C28.846,1.456 29.034,1.397 29.19,1.304C29.346,1.211 29.437,1.148 29.463,1.114C29.521,1.055 29.619,0.916 29.754,0.696C29.889,0.477 30.053,0.152 30.247,-0.278C30.425,-0.675 30.623,-1.127 30.843,-1.633C31.062,-2.14 31.288,-2.661 31.52,-3.197C31.752,-3.733 31.982,-4.273 32.21,-4.817C32.438,-5.362 32.653,-5.87 32.856,-6.343L33.435,-7.673L33.945,-7.673C34.206,-6.972 34.455,-6.307 34.692,-5.678C34.928,-5.05 35.154,-4.444 35.369,-3.862C35.584,-3.279 35.793,-2.716 35.996,-2.171C36.198,-1.627 36.401,-1.089 36.604,-0.557C36.696,-0.295 36.783,-0.078 36.863,0.095C36.943,0.268 37.034,0.464 37.135,0.684C37.152,0.718 37.19,0.777 37.249,0.861C37.308,0.946 37.386,1.032 37.483,1.121C37.58,1.209 37.701,1.287 37.844,1.355C37.988,1.423 38.156,1.461 38.351,1.469L38.351,1.621L34.654,1.621ZM32.995,-6.052C32.944,-5.942 32.87,-5.769 32.773,-5.533C32.676,-5.296 32.556,-5.009 32.412,-4.672C32.269,-4.334 32.111,-3.952 31.938,-3.526C31.765,-3.1 31.577,-2.638 31.374,-2.14L34.527,-2.14C34.383,-2.52 34.238,-2.899 34.09,-3.279C33.942,-3.659 33.799,-4.024 33.66,-4.374C33.52,-4.725 33.394,-5.045 33.28,-5.337C33.166,-5.628 33.071,-5.866 32.995,-6.052Z" style="fill:rgb(50,62,72);"/>
        </g>
        <g transform="matrix(3.06638,0,0,3.06638,-26.1808,36.3169)">
            <path d="M56.199,-2.296L56.193,-2.204C56.193,-2.204 55.986,-2.232 55.757,-2.232C55.287,-2.232 54.962,-2.176 54.962,-2.176L54.962,-0.273C54.962,-0.206 54.974,-0.19 55.041,-0.173L55.186,-0.145L55.186,0.073L54.386,0.073L54.386,-0.15L54.532,-0.178C54.599,-0.19 54.61,-0.206 54.61,-0.279L54.61,-2.181C54.61,-2.248 54.599,-2.265 54.532,-2.282L54.386,-2.31L54.386,-2.528L54.901,-2.528L54.923,-2.388C54.929,-2.355 54.94,-2.299 55.013,-2.299C55.057,-2.299 55.097,-2.327 55.13,-2.349L55.399,-2.528C55.399,-2.528 55.706,-2.562 55.857,-2.562C56.003,-2.562 56.109,-2.556 56.215,-2.539L56.215,-2.528L56.691,-2.528L56.691,-3.222L57.044,-3.222L57.044,-2.528L57.788,-2.528L57.788,-2.254L57.044,-2.254L57.044,-0.603C57.044,-0.436 57.049,-0.324 57.128,-0.251C57.189,-0.195 57.296,-0.173 57.497,-0.173C57.626,-0.173 57.782,-0.2 57.782,-0.2L57.816,0.046C57.816,0.046 57.536,0.096 57.357,0.096C57.072,0.096 56.926,0.051 56.837,-0.038C56.714,-0.156 56.691,-0.374 56.691,-0.715L56.691,-2.254L56.199,-2.254L56.199,-2.296ZM0,-2.45L-0.045,-2.187C-0.045,-2.187 -0.448,-2.277 -0.862,-2.277C-1.572,-2.277 -1.729,-2.12 -1.729,-1.225C-1.729,-0.33 -1.572,-0.173 -0.862,-0.173C-0.448,-0.173 -0.045,-0.262 -0.045,-0.262L0,0.001C0,0.001 -0.431,0.112 -0.918,0.112C-1.79,0.112 -2.098,-0.123 -2.098,-1.225C-2.098,-2.327 -1.79,-2.562 -0.918,-2.562C-0.431,-2.562 0,-2.45 0,-2.45ZM1.684,0.113C0.683,0.113 0.504,-0.122 0.504,-1.225C0.504,-2.327 0.683,-2.562 1.684,-2.562C2.685,-2.562 2.864,-2.327 2.864,-1.225C2.864,-0.122 2.685,0.113 1.684,0.113ZM1.684,-2.282C0.946,-2.282 0.873,-2.17 0.873,-1.225C0.873,-0.279 0.946,-0.167 1.684,-0.167C2.422,-0.167 2.495,-0.279 2.495,-1.225C2.495,-2.17 2.422,-2.282 1.684,-2.282ZM5.523,-2.45L5.478,-2.187C5.478,-2.187 5.075,-2.277 4.661,-2.277C3.951,-2.277 3.794,-2.12 3.794,-1.225C3.794,-0.33 3.951,-0.173 4.661,-0.173C5.075,-0.173 5.478,-0.262 5.478,-0.262L5.523,0.001C5.523,0.001 5.092,0.112 4.605,0.112C3.733,0.112 3.425,-0.123 3.425,-1.225C3.425,-2.327 3.733,-2.562 4.605,-2.562C5.092,-2.562 5.523,-2.45 5.523,-2.45ZM6.139,-3.653L6.581,-3.653L6.581,-3.228L6.139,-3.228L6.139,-3.653ZM6.021,-0.145L6.167,-0.173C6.234,-0.189 6.245,-0.206 6.245,-0.273L6.245,-2.176C6.245,-2.248 6.234,-2.265 6.167,-2.276L6.021,-2.304L6.021,-2.528L6.597,-2.528L6.597,-0.279C6.597,-0.206 6.609,-0.189 6.676,-0.178L6.821,-0.15L6.821,0.074L6.021,0.074L6.021,-0.145ZM7.341,-2.31L7.341,-2.528L7.856,-2.528L7.878,-2.388C7.884,-2.355 7.895,-2.299 7.968,-2.299C8.012,-2.299 8.052,-2.327 8.085,-2.349L8.354,-2.528C8.354,-2.528 8.661,-2.562 8.813,-2.562C9.585,-2.562 9.786,-2.366 9.786,-1.611L9.786,-0.273C9.786,-0.206 9.797,-0.184 9.864,-0.173L10.01,-0.145L10.01,0.079L9.21,0.079L9.21,-0.145L9.355,-0.173C9.422,-0.184 9.434,-0.206 9.434,-0.273L9.434,-1.543C9.434,-2.159 9.327,-2.276 8.712,-2.276C8.32,-2.276 7.917,-2.181 7.917,-2.181L7.917,-0.273C7.917,-0.206 7.929,-0.19 7.996,-0.173L8.141,-0.145L8.141,0.073L7.341,0.073L7.341,-0.15L7.487,-0.178C7.554,-0.19 7.565,-0.206 7.565,-0.279L7.565,-2.181C7.565,-2.248 7.554,-2.265 7.487,-2.282L7.341,-2.31ZM11.364,-1.471L12.5,-1.488L12.5,-1.812C12.5,-2.014 12.433,-2.137 12.27,-2.21C12.153,-2.26 11.991,-2.277 11.761,-2.277C11.235,-2.277 10.715,-2.154 10.715,-2.154L10.665,-2.433C10.665,-2.433 11.123,-2.562 11.756,-2.562C12.119,-2.562 12.382,-2.528 12.561,-2.428C12.763,-2.327 12.852,-2.142 12.852,-1.823L12.852,-0.279C12.852,-0.207 12.863,-0.19 12.931,-0.179L13.076,-0.151L13.076,0.073L12.528,0.073L12.505,-0.067C12.5,-0.1 12.489,-0.156 12.416,-0.156C12.371,-0.156 12.332,-0.128 12.298,-0.106L12.035,0.073C12.035,0.073 11.739,0.112 11.504,0.112C10.715,0.112 10.486,-0.055 10.486,-0.688C10.486,-1.281 10.676,-1.46 11.364,-1.471ZM11.599,-1.208C11.112,-1.202 10.855,-1.264 10.855,-0.682C10.855,-0.201 11.056,-0.173 11.565,-0.173C11.951,-0.173 12.5,-0.296 12.5,-0.296L12.5,-1.225L11.599,-1.208ZM14.665,0.112C14.1,0.112 13.602,0.006 13.602,0.006L13.647,-0.28C13.647,-0.28 14.111,-0.184 14.671,-0.184C15.006,-0.184 15.258,-0.224 15.376,-0.352C15.454,-0.431 15.471,-0.537 15.471,-0.643C15.471,-0.766 15.459,-0.878 15.387,-0.951C15.286,-1.057 15.057,-1.08 14.62,-1.085C14.044,-1.102 13.58,-1.08 13.58,-1.813C13.58,-2.372 13.865,-2.562 14.637,-2.562C15.124,-2.562 15.61,-2.467 15.61,-2.467L15.571,-2.193C15.571,-2.193 15.062,-2.271 14.676,-2.271C14.022,-2.271 13.921,-2.109 13.921,-1.846C13.921,-1.745 13.915,-1.611 13.994,-1.533C14.122,-1.399 14.436,-1.421 14.799,-1.41C15.381,-1.393 15.818,-1.371 15.818,-0.654C15.818,-0.101 15.543,0.112 14.665,0.112ZM24.203,-2.45L24.158,-2.187C24.158,-2.187 23.755,-2.277 23.341,-2.277C22.631,-2.277 22.474,-2.12 22.474,-1.225C22.474,-0.33 22.631,-0.173 23.341,-0.173C23.755,-0.173 24.158,-0.262 24.158,-0.262L24.203,0.001C24.203,0.001 23.772,0.112 23.285,0.112C22.413,0.112 22.105,-0.123 22.105,-1.225C22.105,-2.327 22.413,-2.562 23.285,-2.562C23.772,-2.562 24.203,-2.45 24.203,-2.45ZM24.645,-0.145L24.791,-0.173C24.858,-0.19 24.869,-0.207 24.869,-0.274L24.869,-3.301C24.869,-3.373 24.858,-3.39 24.791,-3.401L24.645,-3.429L24.645,-3.653L25.221,-3.653L25.221,-0.279C25.221,-0.207 25.233,-0.19 25.3,-0.179L25.445,-0.151L25.445,0.073L24.645,0.073L24.645,-0.145ZM27.152,0.113C26.151,0.113 25.972,-0.122 25.972,-1.225C25.972,-2.327 26.151,-2.562 27.152,-2.562C28.153,-2.562 28.332,-2.327 28.332,-1.225C28.332,-0.122 28.153,0.113 27.152,0.113ZM27.152,-2.282C26.414,-2.282 26.341,-2.17 26.341,-1.225C26.341,-0.279 26.414,-0.167 27.152,-0.167C27.89,-0.167 27.963,-0.279 27.963,-1.225C27.963,-2.17 27.89,-2.282 27.152,-2.282ZM30,0.112C29.435,0.112 28.937,0.006 28.937,0.006L28.982,-0.28C28.982,-0.28 29.446,-0.184 30.006,-0.184C30.341,-0.184 30.593,-0.224 30.711,-0.352C30.789,-0.431 30.806,-0.537 30.806,-0.643C30.806,-0.766 30.794,-0.878 30.722,-0.951C30.621,-1.057 30.392,-1.08 29.955,-1.085C29.379,-1.102 28.915,-1.08 28.915,-1.813C28.915,-2.372 29.2,-2.562 29.972,-2.562C30.459,-2.562 30.945,-2.467 30.945,-2.467L30.906,-2.193C30.906,-2.193 30.397,-2.271 30.011,-2.271C29.357,-2.271 29.256,-2.109 29.256,-1.846C29.256,-1.745 29.25,-1.611 29.329,-1.533C29.457,-1.399 29.771,-1.421 30.134,-1.41C30.716,-1.393 31.153,-1.371 31.153,-0.654C31.153,-0.101 30.878,0.112 30,0.112ZM32.999,-0.178C33.508,-0.178 33.917,-0.268 33.917,-0.268L33.967,0.001C33.967,0.001 33.603,0.113 33.022,0.113C32.166,0.113 31.735,-0.044 31.735,-1.225C31.735,-1.577 31.785,-1.907 31.869,-2.103C32.02,-2.455 32.356,-2.562 32.954,-2.562C33.419,-2.562 33.754,-2.511 33.928,-2.299C34.068,-2.12 34.124,-1.874 34.124,-1.437C34.124,-1.337 34.118,-1.241 34.113,-1.135C34.018,-1.129 33.665,-1.09 33.245,-1.09C32.842,-1.09 32.473,-1.113 32.473,-1.113L32.3,-1.23C32.266,-1.253 32.244,-1.269 32.199,-1.269C32.093,-1.269 32.104,-1.169 32.104,-1.096C32.104,-0.861 32.11,-0.564 32.272,-0.385C32.406,-0.234 32.652,-0.178 32.999,-0.178ZM32.988,-2.282C32.166,-2.282 32.143,-2.137 32.11,-1.415C32.496,-1.353 32.949,-1.364 32.949,-1.364C32.949,-1.364 33.413,-1.353 33.749,-1.387C33.749,-2.198 33.592,-2.282 32.988,-2.282ZM35.595,0.096C35.31,0.096 35.164,0.051 35.075,-0.038C34.952,-0.156 34.929,-0.374 34.929,-0.715L34.929,-2.254L34.437,-2.254L34.437,-2.528L34.929,-2.528L34.929,-3.222L35.282,-3.222L35.282,-2.528L36.026,-2.528L36.026,-2.254L35.282,-2.254L35.282,-0.603C35.282,-0.436 35.287,-0.324 35.366,-0.251C35.427,-0.195 35.534,-0.173 35.735,-0.173C35.864,-0.173 36.02,-0.2 36.02,-0.2L36.054,0.046C36.054,0.046 35.774,0.096 35.595,0.096ZM37.682,0.112C37.117,0.112 36.619,0.006 36.619,0.006L36.664,-0.28C36.664,-0.28 37.128,-0.184 37.688,-0.184C38.023,-0.184 38.275,-0.224 38.393,-0.352C38.471,-0.431 38.488,-0.537 38.488,-0.643C38.488,-0.766 38.476,-0.878 38.404,-0.951C38.303,-1.057 38.074,-1.08 37.637,-1.085C37.061,-1.102 36.597,-1.08 36.597,-1.813C36.597,-2.372 36.882,-2.562 37.654,-2.562C38.141,-2.562 38.628,-2.467 38.628,-2.467L38.588,-2.193C38.588,-2.193 38.079,-2.271 37.693,-2.271C37.039,-2.271 36.938,-2.109 36.938,-1.846C36.938,-1.745 36.932,-1.611 37.011,-1.533C37.139,-1.399 37.453,-1.421 37.816,-1.41C38.398,-1.393 38.835,-1.371 38.835,-0.654C38.835,-0.101 38.56,0.112 37.682,0.112ZM47.622,-0.319C47.465,-0.022 47.174,0.112 46.649,0.112C46.38,0.112 46.106,0.062 45.837,0.011L45.837,0.834C45.837,0.906 45.848,0.923 45.916,0.934L46.061,0.962L46.061,1.186L45.261,1.186L45.261,0.968L45.406,0.94C45.474,0.923 45.485,0.906 45.485,0.839L45.485,-2.176C45.485,-2.249 45.474,-2.266 45.406,-2.277L45.261,-2.305L45.261,-2.529L45.804,-2.529L45.826,-2.389C45.832,-2.355 45.837,-2.299 45.916,-2.299C45.955,-2.299 45.994,-2.327 46.027,-2.35L46.296,-2.529C46.296,-2.529 46.548,-2.562 46.777,-2.562C47.588,-2.562 47.767,-2.092 47.767,-1.236C47.767,-0.822 47.728,-0.526 47.622,-0.319ZM46.615,-2.277C46.223,-2.277 45.837,-2.165 45.837,-2.165L45.837,-0.246C45.837,-0.246 46.19,-0.173 46.598,-0.173C47.258,-0.173 47.398,-0.352 47.398,-1.236C47.398,-2.07 47.264,-2.277 46.615,-2.277ZM50.923,-0.145L50.923,0.073L50.403,0.073L50.38,-0.067C50.375,-0.1 50.364,-0.156 50.291,-0.156C50.246,-0.156 50.212,-0.128 50.179,-0.106L49.91,0.073C49.91,0.073 49.642,0.112 49.491,0.112C48.719,0.112 48.517,-0.089 48.517,-0.844L48.517,-2.182C48.517,-2.249 48.506,-2.265 48.439,-2.282L48.293,-2.31L48.293,-2.528L48.87,-2.528L48.87,-0.912C48.87,-0.296 48.976,-0.173 49.591,-0.173C49.983,-0.173 50.347,-0.279 50.347,-0.279L50.347,-2.182C50.347,-2.249 50.336,-2.265 50.268,-2.282L50.123,-2.31L50.123,-2.528L50.699,-2.528L50.699,-0.274C50.699,-0.207 50.71,-0.19 50.778,-0.173L50.923,-0.145ZM52.708,-0.178C53.217,-0.178 53.626,-0.268 53.626,-0.268L53.676,0.001C53.676,0.001 53.312,0.113 52.731,0.113C51.875,0.113 51.444,-0.044 51.444,-1.225C51.444,-1.577 51.494,-1.907 51.578,-2.103C51.729,-2.455 52.065,-2.562 52.663,-2.562C53.128,-2.562 53.464,-2.511 53.637,-2.299C53.777,-2.12 53.833,-1.874 53.833,-1.437C53.833,-1.337 53.827,-1.241 53.822,-1.135C53.727,-1.129 53.374,-1.09 52.954,-1.09C52.552,-1.09 52.182,-1.113 52.182,-1.113L52.009,-1.23C51.975,-1.253 51.953,-1.269 51.908,-1.269C51.802,-1.269 51.813,-1.169 51.813,-1.096C51.813,-0.861 51.819,-0.564 51.981,-0.385C52.115,-0.234 52.361,-0.178 52.708,-0.178ZM52.697,-2.282C51.875,-2.282 51.852,-2.137 51.819,-1.415C52.205,-1.353 52.658,-1.364 52.658,-1.364C52.658,-1.364 53.122,-1.353 53.458,-1.387C53.458,-2.198 53.301,-2.282 52.697,-2.282ZM59.193,-1.471L60.329,-1.488L60.329,-1.812C60.329,-2.014 60.262,-2.137 60.099,-2.21C59.982,-2.26 59.82,-2.277 59.59,-2.277C59.064,-2.277 58.544,-2.154 58.544,-2.154L58.494,-2.433C58.494,-2.433 58.952,-2.562 59.585,-2.562C59.948,-2.562 60.211,-2.528 60.39,-2.428C60.592,-2.327 60.681,-2.142 60.681,-1.823L60.681,-0.279C60.681,-0.207 60.692,-0.19 60.76,-0.179L60.905,-0.151L60.905,0.073L60.357,0.073L60.334,-0.067C60.329,-0.1 60.318,-0.156 60.245,-0.156C60.2,-0.156 60.161,-0.128 60.127,-0.106L59.864,0.073C59.864,0.073 59.568,0.112 59.333,0.112C58.544,0.112 58.315,-0.055 58.315,-0.688C58.315,-1.281 58.505,-1.46 59.193,-1.471ZM59.428,-1.208C58.941,-1.202 58.684,-1.264 58.684,-0.682C58.684,-0.201 58.885,-0.173 59.394,-0.173C59.78,-0.173 60.329,-0.296 60.329,-0.296L60.329,-1.225L59.428,-1.208ZM62.494,0.112C61.929,0.112 61.431,0.006 61.431,0.006L61.476,-0.28C61.476,-0.28 61.94,-0.184 62.5,-0.184C62.835,-0.184 63.087,-0.224 63.204,-0.352C63.283,-0.431 63.3,-0.537 63.3,-0.643C63.3,-0.766 63.288,-0.878 63.216,-0.951C63.115,-1.057 62.886,-1.08 62.449,-1.085C61.873,-1.102 61.409,-1.08 61.409,-1.813C61.409,-2.372 61.694,-2.562 62.466,-2.562C62.953,-2.562 63.439,-2.467 63.439,-2.467L63.4,-2.193C63.4,-2.193 62.891,-2.271 62.505,-2.271C61.851,-2.271 61.75,-2.109 61.75,-1.846C61.75,-1.745 61.744,-1.611 61.823,-1.533C61.951,-1.399 62.265,-1.421 62.628,-1.41C63.21,-1.393 63.646,-1.371 63.646,-0.654C63.646,-0.101 63.372,0.112 62.494,0.112ZM18.726,-4.305L19.056,-4.305L19.056,1.382L18.726,1.382L18.726,-4.305ZM41.907,-4.305L42.237,-4.305L42.237,1.382L41.907,1.382L41.907,-4.305Z" style="fill:rgb(170,152,104);"/>
        </g>
    </g>
</svg>
