<?xml version="1.0" encoding="UTF-8" standalone="no"?>
<!DOCTYPE svg PUBLIC "-//W3C//DTD SVG 1.1//EN" "http://www.w3.org/Graphics/SVG/1.1/DTD/svg11.dtd">
<svg width="100%" height="100%" viewBox="0 0 1000 400" version="1.1" xmlns="http://www.w3.org/2000/svg" xmlns:xlink="http://www.w3.org/1999/xlink" xml:space="preserve" xmlns:serif="http://www.serif.com/" style="fill-rule:evenodd;clip-rule:evenodd;stroke-linejoin:round;stroke-miterlimit:2;">
    <g transform="matrix(0.716608,0,0,0.716608,-227.119,-196.81)">
        <g transform="matrix(3.46425,0,0,3.46425,-265.034,-527.254)">
            <path d="M195.027,350.94L201.519,350.94L201.519,351.9L198.795,351.9L198.795,359.34L197.751,359.34L197.751,351.9L195.027,351.9L195.027,350.94ZM204.987,353.22L204.987,354.18L204.495,354.18C203.911,354.18 203.493,354.376 203.241,354.768C202.989,355.16 202.863,355.644 202.863,356.22L202.863,359.34L201.879,359.34L201.879,353.22L202.731,353.22L202.863,354.144C203.039,353.864 203.267,353.64 203.547,353.472C203.827,353.304 204.215,353.22 204.711,353.22L204.987,353.22ZM205.323,356.28C205.323,355.656 205.445,355.108 205.689,354.636C205.933,354.164 206.275,353.798 206.715,353.538C207.155,353.278 207.659,353.148 208.227,353.148C208.787,353.148 209.283,353.264 209.715,353.496C210.147,353.728 210.487,354.064 210.735,354.504C210.983,354.944 211.115,355.46 211.131,356.052C211.131,356.14 211.123,356.28 211.107,356.472L206.355,356.472L206.355,356.556C206.371,357.156 206.555,357.636 206.907,357.996C207.259,358.356 207.719,358.536 208.287,358.536C208.727,358.536 209.101,358.426 209.409,358.206C209.717,357.986 209.923,357.68 210.027,357.288L211.023,357.288C210.903,357.912 210.603,358.422 210.123,358.818C209.643,359.214 209.055,359.412 208.359,359.412C207.751,359.412 207.219,359.282 206.763,359.022C206.307,358.762 205.953,358.394 205.701,357.918C205.449,357.442 205.323,356.896 205.323,356.28ZM210.111,355.656C210.063,355.136 209.869,354.732 209.529,354.444C209.189,354.156 208.759,354.012 208.239,354.012C207.775,354.012 207.367,354.164 207.015,354.468C206.663,354.772 206.463,355.168 206.415,355.656L210.111,355.656ZM213.003,357.324C213.019,357.692 213.181,357.992 213.489,358.224C213.797,358.456 214.195,358.572 214.683,358.572C215.115,358.572 215.465,358.486 215.733,358.314C216.001,358.142 216.135,357.916 216.135,357.636C216.135,357.396 216.071,357.212 215.943,357.084C215.815,356.956 215.649,356.868 215.445,356.82C215.241,356.772 214.951,356.724 214.575,356.676C214.047,356.612 213.615,356.528 213.279,356.424C212.943,356.32 212.671,356.154 212.463,355.926C212.255,355.698 212.151,355.384 212.151,354.984C212.151,354.624 212.253,354.304 212.457,354.024C212.661,353.744 212.939,353.526 213.291,353.37C213.643,353.214 214.039,353.136 214.479,353.136C215.199,353.136 215.785,353.304 216.237,353.64C216.689,353.976 216.939,354.456 216.987,355.08L216.003,355.08C215.963,354.76 215.807,354.496 215.535,354.288C215.263,354.08 214.923,353.976 214.515,353.976C214.099,353.976 213.763,354.062 213.507,354.234C213.251,354.406 213.123,354.632 213.123,354.912C213.123,355.12 213.183,355.28 213.303,355.392C213.423,355.504 213.577,355.58 213.765,355.62C213.953,355.66 214.239,355.704 214.623,355.752C215.159,355.816 215.601,355.904 215.949,356.016C216.297,356.128 216.577,356.308 216.789,356.556C217.001,356.804 217.107,357.14 217.107,357.564C217.107,357.932 216.999,358.256 216.783,358.536C216.567,358.816 216.275,359.032 215.907,359.184C215.539,359.336 215.131,359.412 214.683,359.412C213.883,359.412 213.241,359.228 212.757,358.86C212.273,358.492 212.027,357.98 212.019,357.324L213.003,357.324ZM222.231,356.592C222.271,357.16 222.499,357.614 222.915,357.954C223.331,358.294 223.859,358.464 224.499,358.464C225.075,358.464 225.541,358.338 225.897,358.086C226.253,357.834 226.431,357.484 226.431,357.036C226.431,356.708 226.333,356.448 226.137,356.256C225.941,356.064 225.689,355.922 225.381,355.83C225.073,355.738 224.655,355.648 224.127,355.56C223.287,355.416 222.619,355.18 222.123,354.852C221.627,354.524 221.379,353.992 221.379,353.256C221.379,352.784 221.499,352.366 221.739,352.002C221.979,351.638 222.317,351.356 222.753,351.156C223.189,350.956 223.687,350.856 224.247,350.856C224.839,350.856 225.363,350.964 225.819,351.18C226.275,351.396 226.635,351.698 226.899,352.086C227.163,352.474 227.311,352.92 227.343,353.424L226.311,353.424C226.247,352.936 226.027,352.544 225.651,352.248C225.275,351.952 224.807,351.804 224.247,351.804C223.687,351.804 223.243,351.926 222.915,352.17C222.587,352.414 222.423,352.756 222.423,353.196C222.423,353.516 222.519,353.766 222.711,353.946C222.903,354.126 223.151,354.262 223.455,354.354C223.759,354.446 224.175,354.536 224.703,354.624C225.543,354.768 226.215,355.006 226.719,355.338C227.223,355.67 227.475,356.204 227.475,356.94C227.475,357.42 227.349,357.848 227.097,358.224C226.845,358.6 226.493,358.892 226.041,359.1C225.589,359.308 225.071,359.412 224.487,359.412C223.831,359.412 223.259,359.294 222.771,359.058C222.283,358.822 221.905,358.49 221.637,358.062C221.369,357.634 221.223,357.144 221.199,356.592L222.231,356.592ZM228.435,356.28C228.435,355.656 228.557,355.108 228.801,354.636C229.045,354.164 229.387,353.798 229.827,353.538C230.267,353.278 230.771,353.148 231.339,353.148C231.899,353.148 232.395,353.264 232.827,353.496C233.259,353.728 233.599,354.064 233.847,354.504C234.095,354.944 234.227,355.46 234.243,356.052C234.243,356.14 234.235,356.28 234.219,356.472L229.467,356.472L229.467,356.556C229.483,357.156 229.667,357.636 230.019,357.996C230.371,358.356 230.831,358.536 231.399,358.536C231.839,358.536 232.213,358.426 232.521,358.206C232.829,357.986 233.035,357.68 233.139,357.288L234.135,357.288C234.015,357.912 233.715,358.422 233.235,358.818C232.755,359.214 232.167,359.412 231.471,359.412C230.863,359.412 230.331,359.282 229.875,359.022C229.419,358.762 229.065,358.394 228.813,357.918C228.561,357.442 228.435,356.896 228.435,356.28ZM233.223,355.656C233.175,355.136 232.981,354.732 232.641,354.444C232.301,354.156 231.871,354.012 231.351,354.012C230.887,354.012 230.479,354.164 230.127,354.468C229.775,354.772 229.575,355.168 229.527,355.656L233.223,355.656ZM238.479,353.22L238.479,354.18L237.987,354.18C237.403,354.18 236.985,354.376 236.733,354.768C236.481,355.16 236.355,355.644 236.355,356.22L236.355,359.34L235.371,359.34L235.371,353.22L236.223,353.22L236.355,354.144C236.531,353.864 236.759,353.64 237.039,353.472C237.319,353.304 237.707,353.22 238.203,353.22L238.479,353.22ZM238.827,353.22L239.883,353.22L241.731,358.224L243.567,353.22L244.599,353.22L242.307,359.34L241.119,359.34L238.827,353.22ZM245.823,350.856C246.007,350.856 246.159,350.916 246.279,351.036C246.399,351.156 246.459,351.308 246.459,351.492C246.459,351.676 246.399,351.828 246.279,351.948C246.159,352.068 246.007,352.128 245.823,352.128C245.639,352.128 245.487,352.068 245.367,351.948C245.247,351.828 245.187,351.676 245.187,351.492C245.187,351.308 245.247,351.156 245.367,351.036C245.487,350.916 245.639,350.856 245.823,350.856ZM245.331,353.22L246.315,353.22L246.315,359.34L245.331,359.34L245.331,353.22ZM253.119,357.228C252.991,357.908 252.691,358.442 252.219,358.83C251.747,359.218 251.147,359.412 250.419,359.412C249.827,359.412 249.307,359.28 248.859,359.016C248.411,358.752 248.063,358.382 247.815,357.906C247.567,357.43 247.443,356.884 247.443,356.268C247.443,355.652 247.569,355.108 247.821,354.636C248.073,354.164 248.427,353.798 248.883,353.538C249.339,353.278 249.863,353.148 250.455,353.148C251.175,353.148 251.769,353.34 252.237,353.724C252.705,354.108 252.999,354.636 253.119,355.308L252.123,355.308C252.027,354.916 251.827,354.604 251.523,354.372C251.219,354.14 250.851,354.024 250.419,354.024C249.835,354.024 249.361,354.232 248.997,354.648C248.633,355.064 248.451,355.604 248.451,356.268C248.451,356.94 248.633,357.486 248.997,357.906C249.361,358.326 249.835,358.536 250.419,358.536C250.867,358.536 251.243,358.42 251.547,358.188C251.851,357.956 252.047,357.636 252.135,357.228L253.119,357.228ZM254.751,350.856C254.935,350.856 255.087,350.916 255.207,351.036C255.327,351.156 255.387,351.308 255.387,351.492C255.387,351.676 255.327,351.828 255.207,351.948C255.087,352.068 254.935,352.128 254.751,352.128C254.567,352.128 254.415,352.068 254.295,351.948C254.175,351.828 254.115,351.676 254.115,351.492C254.115,351.308 254.175,351.156 254.295,351.036C254.415,350.916 254.567,350.856 254.751,350.856ZM254.259,353.22L255.243,353.22L255.243,359.34L254.259,359.34L254.259,353.22ZM259.407,359.412C258.815,359.412 258.289,359.28 257.829,359.016C257.369,358.752 257.011,358.384 256.755,357.912C256.499,357.44 256.371,356.896 256.371,356.28C256.371,355.664 256.499,355.12 256.755,354.648C257.011,354.176 257.369,353.808 257.829,353.544C258.289,353.28 258.815,353.148 259.407,353.148C259.999,353.148 260.525,353.28 260.985,353.544C261.445,353.808 261.803,354.176 262.059,354.648C262.315,355.12 262.443,355.664 262.443,356.28C262.443,356.896 262.315,357.44 262.059,357.912C261.803,358.384 261.445,358.752 260.985,359.016C260.525,359.28 259.999,359.412 259.407,359.412ZM259.407,358.536C259.807,358.536 260.161,358.44 260.469,358.248C260.777,358.056 261.015,357.788 261.183,357.444C261.351,357.1 261.435,356.712 261.435,356.28C261.435,355.848 261.351,355.46 261.183,355.116C261.015,354.772 260.777,354.504 260.469,354.312C260.161,354.12 259.807,354.024 259.407,354.024C259.007,354.024 258.653,354.12 258.345,354.312C258.037,354.504 257.799,354.772 257.631,355.116C257.463,355.46 257.379,355.848 257.379,356.28C257.379,356.712 257.463,357.1 257.631,357.444C257.799,357.788 258.037,358.056 258.345,358.248C258.653,358.44 259.007,358.536 259.407,358.536ZM264.315,357.324C264.331,357.692 264.493,357.992 264.801,358.224C265.109,358.456 265.507,358.572 265.995,358.572C266.427,358.572 266.777,358.486 267.045,358.314C267.313,358.142 267.447,357.916 267.447,357.636C267.447,357.396 267.383,357.212 267.255,357.084C267.127,356.956 266.961,356.868 266.757,356.82C266.553,356.772 266.263,356.724 265.887,356.676C265.359,356.612 264.927,356.528 264.591,356.424C264.255,356.32 263.983,356.154 263.775,355.926C263.567,355.698 263.463,355.384 263.463,354.984C263.463,354.624 263.565,354.304 263.769,354.024C263.973,353.744 264.251,353.526 264.603,353.37C264.955,353.214 265.351,353.136 265.791,353.136C266.511,353.136 267.097,353.304 267.549,353.64C268.001,353.976 268.251,354.456 268.299,355.08L267.315,355.08C267.275,354.76 267.119,354.496 266.847,354.288C266.575,354.08 266.235,353.976 265.827,353.976C265.411,353.976 265.075,354.062 264.819,354.234C264.563,354.406 264.435,354.632 264.435,354.912C264.435,355.12 264.495,355.28 264.615,355.392C264.735,355.504 264.889,355.58 265.077,355.62C265.265,355.66 265.551,355.704 265.935,355.752C266.471,355.816 266.913,355.904 267.261,356.016C267.609,356.128 267.889,356.308 268.101,356.556C268.313,356.804 268.419,357.14 268.419,357.564C268.419,357.932 268.311,358.256 268.095,358.536C267.879,358.816 267.587,359.032 267.219,359.184C266.851,359.336 266.443,359.412 265.995,359.412C265.195,359.412 264.553,359.228 264.069,358.86C263.585,358.492 263.339,357.98 263.331,357.324L264.315,357.324Z" style="fill:rgb(50,62,72);"/>
        </g>
        <g transform="matrix(3.46425,0,0,3.46425,271.449,-527.254)">
            <path d="M195.543,350.94L196.587,350.94L196.587,359.34L195.543,359.34L195.543,350.94ZM201.075,353.148C201.819,353.148 202.417,353.372 202.869,353.82C203.321,354.268 203.547,354.972 203.547,355.932L203.547,359.34L202.563,359.34L202.563,355.992C202.563,355.36 202.421,354.878 202.137,354.546C201.853,354.214 201.443,354.048 200.907,354.048C200.331,354.048 199.879,354.248 199.551,354.648C199.223,355.048 199.059,355.592 199.059,356.28L199.059,359.34L198.075,359.34L198.075,353.22L198.927,353.22L199.059,354.048C199.523,353.448 200.195,353.148 201.075,353.148ZM205.215,354.12L204.111,354.12L204.111,353.22L205.215,353.22L205.215,351.504L206.199,351.504L206.199,353.22L207.747,353.22L207.747,354.12L206.199,354.12L206.199,357.732C206.199,357.988 206.249,358.17 206.349,358.278C206.449,358.386 206.623,358.44 206.871,358.44L207.939,358.44L207.939,359.34L206.811,359.34C206.235,359.34 205.825,359.212 205.581,358.956C205.337,358.7 205.215,358.296 205.215,357.744L205.215,354.12ZM208.263,356.28C208.263,355.656 208.385,355.108 208.629,354.636C208.873,354.164 209.215,353.798 209.655,353.538C210.095,353.278 210.599,353.148 211.167,353.148C211.727,353.148 212.223,353.264 212.655,353.496C213.087,353.728 213.427,354.064 213.675,354.504C213.923,354.944 214.055,355.46 214.071,356.052C214.071,356.14 214.063,356.28 214.047,356.472L209.295,356.472L209.295,356.556C209.311,357.156 209.495,357.636 209.847,357.996C210.199,358.356 210.659,358.536 211.227,358.536C211.667,358.536 212.041,358.426 212.349,358.206C212.657,357.986 212.863,357.68 212.967,357.288L213.963,357.288C213.843,357.912 213.543,358.422 213.063,358.818C212.583,359.214 211.995,359.412 211.299,359.412C210.691,359.412 210.159,359.282 209.703,359.022C209.247,358.762 208.893,358.394 208.641,357.918C208.389,357.442 208.263,356.896 208.263,356.28ZM213.051,355.656C213.003,355.136 212.809,354.732 212.469,354.444C212.129,354.156 211.699,354.012 211.179,354.012C210.715,354.012 210.307,354.164 209.955,354.468C209.603,354.772 209.403,355.168 209.355,355.656L213.051,355.656ZM221.007,353.22L221.007,359.04C221.007,360.888 219.995,361.812 217.971,361.812C217.179,361.812 216.533,361.632 216.033,361.272C215.533,360.912 215.243,360.4 215.163,359.736L216.171,359.736C216.251,360.12 216.455,360.416 216.783,360.624C217.111,360.832 217.531,360.936 218.043,360.936C219.363,360.936 220.023,360.292 220.023,359.004L220.023,358.284C219.583,359.036 218.883,359.412 217.923,359.412C217.355,359.412 216.849,359.288 216.405,359.04C215.961,358.792 215.613,358.432 215.361,357.96C215.109,357.488 214.983,356.928 214.983,356.28C214.983,355.664 215.109,355.12 215.361,354.648C215.613,354.176 215.963,353.808 216.411,353.544C216.859,353.28 217.363,353.148 217.923,353.148C218.419,353.148 218.843,353.246 219.195,353.442C219.547,353.638 219.823,353.916 220.023,354.276L220.155,353.22L221.007,353.22ZM218.019,358.536C218.411,358.536 218.761,358.442 219.069,358.254C219.377,358.066 219.615,357.802 219.783,357.462C219.951,357.122 220.035,356.736 220.035,356.304C220.035,355.864 219.951,355.47 219.783,355.122C219.615,354.774 219.377,354.504 219.069,354.312C218.761,354.12 218.411,354.024 218.019,354.024C217.411,354.024 216.921,354.234 216.549,354.654C216.177,355.074 215.991,355.616 215.991,356.28C215.991,356.944 216.177,357.486 216.549,357.906C216.921,358.326 217.411,358.536 218.019,358.536ZM225.459,353.22L225.459,354.18L224.967,354.18C224.383,354.18 223.965,354.376 223.713,354.768C223.461,355.16 223.335,355.644 223.335,356.22L223.335,359.34L222.351,359.34L222.351,353.22L223.203,353.22L223.335,354.144C223.511,353.864 223.739,353.64 224.019,353.472C224.299,353.304 224.687,353.22 225.183,353.22L225.459,353.22ZM231.795,358.44L231.795,359.34L231.255,359.34C230.863,359.34 230.583,359.26 230.415,359.1C230.247,358.94 230.159,358.704 230.151,358.392C229.679,359.072 228.995,359.412 228.099,359.412C227.419,359.412 226.873,359.252 226.461,358.932C226.049,358.612 225.843,358.176 225.843,357.624C225.843,357.008 226.053,356.536 226.473,356.208C226.893,355.88 227.503,355.716 228.303,355.716L230.103,355.716L230.103,355.296C230.103,354.896 229.969,354.584 229.701,354.36C229.433,354.136 229.059,354.024 228.579,354.024C228.155,354.024 227.805,354.118 227.529,354.306C227.253,354.494 227.083,354.744 227.019,355.056L226.035,355.056C226.107,354.456 226.373,353.988 226.833,353.652C227.293,353.316 227.891,353.148 228.627,353.148C229.411,353.148 230.017,353.338 230.445,353.718C230.873,354.098 231.087,354.644 231.087,355.356L231.087,357.996C231.087,358.292 231.223,358.44 231.495,358.44L231.795,358.44ZM230.103,356.544L228.207,356.544C227.295,356.544 226.839,356.884 226.839,357.564C226.839,357.868 226.959,358.112 227.199,358.296C227.439,358.48 227.763,358.572 228.171,358.572C228.771,358.572 229.243,358.414 229.587,358.098C229.931,357.782 230.103,357.364 230.103,356.844L230.103,356.544ZM232.551,350.94L233.535,350.94L233.535,359.34L232.551,359.34L232.551,350.94Z" style="fill:rgb(50,62,72);"/>
        </g>
        <g transform="matrix(3.46425,0,0,3.46425,753.884,-527.254)">
            <path d="M195.543,350.94L200.895,350.94L200.895,351.9L196.587,351.9L196.587,354.588L200.175,354.588L200.175,355.548L196.587,355.548L196.587,358.38L201.051,358.38L201.051,359.34L195.543,359.34L195.543,350.94ZM202.083,350.94L203.067,350.94L203.067,359.34L202.083,359.34L202.083,350.94ZM204.195,356.28C204.195,355.656 204.317,355.108 204.561,354.636C204.805,354.164 205.147,353.798 205.587,353.538C206.027,353.278 206.531,353.148 207.099,353.148C207.659,353.148 208.155,353.264 208.587,353.496C209.019,353.728 209.359,354.064 209.607,354.504C209.855,354.944 209.987,355.46 210.003,356.052C210.003,356.14 209.995,356.28 209.979,356.472L205.227,356.472L205.227,356.556C205.243,357.156 205.427,357.636 205.779,357.996C206.131,358.356 206.591,358.536 207.159,358.536C207.599,358.536 207.973,358.426 208.281,358.206C208.589,357.986 208.795,357.68 208.899,357.288L209.895,357.288C209.775,357.912 209.475,358.422 208.995,358.818C208.515,359.214 207.927,359.412 207.231,359.412C206.623,359.412 206.091,359.282 205.635,359.022C205.179,358.762 204.825,358.394 204.573,357.918C204.321,357.442 204.195,356.896 204.195,356.28ZM208.983,355.656C208.935,355.136 208.741,354.732 208.401,354.444C208.061,354.156 207.631,354.012 207.111,354.012C206.647,354.012 206.239,354.164 205.887,354.468C205.535,354.772 205.335,355.168 205.287,355.656L208.983,355.656ZM216.939,353.22L216.939,359.04C216.939,360.888 215.927,361.812 213.903,361.812C213.111,361.812 212.465,361.632 211.965,361.272C211.465,360.912 211.175,360.4 211.095,359.736L212.103,359.736C212.183,360.12 212.387,360.416 212.715,360.624C213.043,360.832 213.463,360.936 213.975,360.936C215.295,360.936 215.955,360.292 215.955,359.004L215.955,358.284C215.515,359.036 214.815,359.412 213.855,359.412C213.287,359.412 212.781,359.288 212.337,359.04C211.893,358.792 211.545,358.432 211.293,357.96C211.041,357.488 210.915,356.928 210.915,356.28C210.915,355.664 211.041,355.12 211.293,354.648C211.545,354.176 211.895,353.808 212.343,353.544C212.791,353.28 213.295,353.148 213.855,353.148C214.351,353.148 214.775,353.246 215.127,353.442C215.479,353.638 215.755,353.916 215.955,354.276L216.087,353.22L216.939,353.22ZM213.951,358.536C214.343,358.536 214.693,358.442 215.001,358.254C215.309,358.066 215.547,357.802 215.715,357.462C215.883,357.122 215.967,356.736 215.967,356.304C215.967,355.864 215.883,355.47 215.715,355.122C215.547,354.774 215.309,354.504 215.001,354.312C214.693,354.12 214.343,354.024 213.951,354.024C213.343,354.024 212.853,354.234 212.481,354.654C212.109,355.074 211.923,355.616 211.923,356.28C211.923,356.944 212.109,357.486 212.481,357.906C212.853,358.326 213.343,358.536 213.951,358.536ZM224.007,358.44L224.007,359.34L223.467,359.34C223.075,359.34 222.795,359.26 222.627,359.1C222.459,358.94 222.371,358.704 222.363,358.392C221.891,359.072 221.207,359.412 220.311,359.412C219.631,359.412 219.085,359.252 218.673,358.932C218.261,358.612 218.055,358.176 218.055,357.624C218.055,357.008 218.265,356.536 218.685,356.208C219.105,355.88 219.715,355.716 220.515,355.716L222.315,355.716L222.315,355.296C222.315,354.896 222.181,354.584 221.913,354.36C221.645,354.136 221.271,354.024 220.791,354.024C220.367,354.024 220.017,354.118 219.741,354.306C219.465,354.494 219.295,354.744 219.231,355.056L218.247,355.056C218.319,354.456 218.585,353.988 219.045,353.652C219.505,353.316 220.103,353.148 220.839,353.148C221.623,353.148 222.229,353.338 222.657,353.718C223.085,354.098 223.299,354.644 223.299,355.356L223.299,357.996C223.299,358.292 223.435,358.44 223.707,358.44L224.007,358.44ZM222.315,356.544L220.419,356.544C219.507,356.544 219.051,356.884 219.051,357.564C219.051,357.868 219.171,358.112 219.411,358.296C219.651,358.48 219.975,358.572 220.383,358.572C220.983,358.572 221.455,358.414 221.799,358.098C222.143,357.782 222.315,357.364 222.315,356.844L222.315,356.544ZM227.763,353.148C228.507,353.148 229.105,353.372 229.557,353.82C230.009,354.268 230.235,354.972 230.235,355.932L230.235,359.34L229.251,359.34L229.251,355.992C229.251,355.36 229.109,354.878 228.825,354.546C228.541,354.214 228.131,354.048 227.595,354.048C227.019,354.048 226.567,354.248 226.239,354.648C225.911,355.048 225.747,355.592 225.747,356.28L225.747,359.34L224.763,359.34L224.763,353.22L225.615,353.22L225.747,354.048C226.211,353.448 226.883,353.148 227.763,353.148ZM231.903,354.12L230.799,354.12L230.799,353.22L231.903,353.22L231.903,351.504L232.887,351.504L232.887,353.22L234.435,353.22L234.435,354.12L232.887,354.12L232.887,357.732C232.887,357.988 232.937,358.17 233.037,358.278C233.137,358.386 233.311,358.44 233.559,358.44L234.627,358.44L234.627,359.34L233.499,359.34C232.923,359.34 232.513,359.212 232.269,358.956C232.025,358.7 231.903,358.296 231.903,357.744L231.903,354.12ZM234.951,356.28C234.951,355.656 235.073,355.108 235.317,354.636C235.561,354.164 235.903,353.798 236.343,353.538C236.783,353.278 237.287,353.148 237.855,353.148C238.415,353.148 238.911,353.264 239.343,353.496C239.775,353.728 240.115,354.064 240.363,354.504C240.611,354.944 240.743,355.46 240.759,356.052C240.759,356.14 240.751,356.28 240.735,356.472L235.983,356.472L235.983,356.556C235.999,357.156 236.183,357.636 236.535,357.996C236.887,358.356 237.347,358.536 237.915,358.536C238.355,358.536 238.729,358.426 239.037,358.206C239.345,357.986 239.551,357.68 239.655,357.288L240.651,357.288C240.531,357.912 240.231,358.422 239.751,358.818C239.271,359.214 238.683,359.412 237.987,359.412C237.379,359.412 236.847,359.282 236.391,359.022C235.935,358.762 235.581,358.394 235.329,357.918C235.077,357.442 234.951,356.896 234.951,356.28ZM239.739,355.656C239.691,355.136 239.497,354.732 239.157,354.444C238.817,354.156 238.387,354.012 237.867,354.012C237.403,354.012 236.995,354.164 236.643,354.468C236.291,354.772 236.091,355.168 236.043,355.656L239.739,355.656Z" style="fill:rgb(50,62,72);"/>
        </g>
        <g transform="matrix(2.66888,0,-0.767712,1.7305,-121.185,57.7545)">
            <path d="M316.29,200L316.29,299.194L307.189,299.194L307.189,200L316.29,200ZM334.267,200L334.267,299.194L325.166,299.194L325.166,200L334.267,200ZM352.244,200L352.244,299.194L343.143,299.194L343.143,200L352.244,200Z" style="fill:rgb(170,152,104);"/>
        </g>
        <g transform="matrix(1.39546,0,0,1.39546,324.911,274.641)">
            <path d="M452.378,145.943L452.378,92.596L463.808,92.596L463.808,145.943L452.378,145.943ZM517.763,128.18L470.808,128.18L470.808,116.75L517.763,116.75L517.763,128.18ZM481.57,164.372L428.224,164.372L428.224,152.943L481.57,152.943L481.57,164.372ZM500,182.135L488.57,182.135L488.57,135.18L500,135.18L500,182.135ZM524.763,145.943L524.763,92.596L536.192,92.596L536.192,145.943L524.763,145.943ZM560.347,164.372L507,164.372L507,152.943L560.347,152.943L560.347,164.372ZM517.763,200.565L470.808,200.565L470.808,189.135L517.763,189.135L517.763,200.565ZM524.763,224.719L524.763,171.372L536.192,171.372L536.192,224.719L524.763,224.719ZM452.378,224.719L452.378,171.372L463.808,171.372L463.808,224.719L452.378,224.719ZM445.378,128.18L428.224,128.18L428.224,116.75L445.378,116.75L445.378,128.18ZM543.192,116.75L560.347,116.75L560.347,128.18L543.192,128.18L543.192,116.75ZM488.57,109.75L488.57,92.596L500,92.596L500,109.75L488.57,109.75ZM500,207.565L500,224.719L488.57,224.719L488.57,207.565L500,207.565ZM543.192,189.135L560.347,189.135L560.347,200.565L543.192,200.565L543.192,189.135ZM445.378,200.565L428.224,200.565L428.224,189.135L445.378,189.135L445.378,200.565Z" style="fill:rgb(170,152,104);"/>
        </g>
        <g transform="matrix(9.39865,0,0,9.39865,-6456.44,-1467.83)">
            <path d="M849.342,218.761L849.342,218.499C849.394,218.499 849.521,218.482 849.721,218.447C849.922,218.412 850.131,218.351 850.349,218.264C850.567,218.177 850.759,218.055 850.925,217.898C851.09,217.741 851.173,217.54 851.173,217.296C851.173,217.139 851.125,216.882 851.029,216.524C850.933,216.167 850.798,215.731 850.624,215.216C850.449,214.702 850.249,214.131 850.022,213.503C849.795,212.875 849.551,212.221 849.29,211.541L842.331,211.541C842.07,212.204 841.817,212.836 841.573,213.438C841.329,214.039 841.084,214.645 840.84,215.256C840.474,216.197 840.291,216.86 840.291,217.244C840.291,217.47 840.361,217.658 840.5,217.806C840.64,217.954 840.818,218.077 841.036,218.172C841.254,218.268 841.49,218.338 841.743,218.382C841.996,218.425 842.235,218.465 842.462,218.499L842.462,218.761L836.89,218.761L836.89,218.473C837.344,218.421 837.732,218.299 838.054,218.107C838.377,217.915 838.564,217.784 838.617,217.715C838.739,217.593 838.939,217.305 839.218,216.851C839.497,216.398 839.837,215.727 840.239,214.837C840.605,214.017 841.015,213.084 841.468,212.038C841.921,210.992 842.388,209.915 842.868,208.807C843.347,207.7 843.822,206.584 844.293,205.459C844.764,204.334 845.209,203.283 845.627,202.307L845.366,201.731C845.68,201.592 845.963,201.426 846.216,201.234C846.469,201.042 846.691,200.842 846.883,200.633C847.075,200.423 847.236,200.223 847.367,200.031C847.498,199.839 847.598,199.682 847.668,199.56L847.877,199.56C848.418,201.008 848.932,202.381 849.42,203.68C849.909,204.979 850.375,206.231 850.82,207.434C851.265,208.637 851.696,209.801 852.115,210.926C852.533,212.051 852.952,213.163 853.37,214.262C853.562,214.802 853.741,215.251 853.907,215.609C854.072,215.966 854.26,216.372 854.469,216.825C854.504,216.895 854.583,217.017 854.705,217.191C854.827,217.366 854.988,217.545 855.189,217.728C855.389,217.911 855.638,218.072 855.934,218.212C856.231,218.351 856.579,218.43 856.98,218.447L856.98,218.761L849.342,218.761ZM845.915,202.909C845.81,203.135 845.658,203.493 845.457,203.981C845.257,204.469 845.008,205.062 844.712,205.76C844.415,206.457 844.088,207.247 843.731,208.127C843.373,209.008 842.985,209.963 842.567,210.992L849.08,210.992C848.784,210.207 848.483,209.422 848.178,208.637C847.873,207.853 847.576,207.098 847.288,206.375C847.001,205.651 846.739,204.988 846.504,204.387C846.268,203.785 846.072,203.292 845.915,202.909Z" style="fill:rgb(170,152,104);"/>
        </g>
    </g>
</svg>
