<?xml version="1.0" encoding="UTF-8" standalone="no"?>
<!DOCTYPE svg PUBLIC "-//W3C//DTD SVG 1.1//EN" "http://www.w3.org/Graphics/SVG/1.1/DTD/svg11.dtd">
<svg width="100%" height="100%" viewBox="0 0 30 30" version="1.1" xmlns="http://www.w3.org/2000/svg" xmlns:xlink="http://www.w3.org/1999/xlink" xml:space="preserve" xmlns:serif="http://www.serif.com/" style="fill-rule:evenodd;clip-rule:evenodd;stroke-linejoin:round;stroke-miterlimit:2;">
    <g transform="matrix(2.86227,0,0,2.86227,20.5428,26.4294)">
        <path d="M0,-8.256C0.128,-8.256 0.264,-8.249 0.411,-8.235L0.411,-8.235C1.344,-8.143 2.448,-7.31 2.579,-5.673L2.58,-5.661L2.58,-5.155L2.579,-5.144C2.47,-3.747 1.475,-2.012 -1.481,0.122C-1.753,0.319 -2.121,0.319 -2.393,0.122C-5.349,-2.012 -6.343,-3.747 -6.452,-5.144L-6.453,-5.155L-6.453,-5.661L-6.452,-5.673C-6.321,-7.31 -5.218,-8.143 -4.284,-8.235C-4.139,-8.249 -4.002,-8.256 -3.874,-8.256C-2.95,-8.256 -2.438,-7.918 -1.937,-7.374C-1.435,-7.918 -0.924,-8.256 0,-8.256ZM0,-7.656C-0.845,-7.656 -1.243,-7.278 -1.707,-6.726L-1.937,-6.453L-2.167,-6.726C-2.63,-7.278 -3.029,-7.656 -3.874,-7.656C-3.984,-7.656 -4.101,-7.649 -4.226,-7.637C-4.944,-7.567 -5.748,-6.892 -5.853,-5.637C-5.853,-5.637 -5.853,-5.179 -5.853,-5.178C-5.747,-3.889 -4.767,-2.332 -2.041,-0.364C-1.979,-0.319 -1.895,-0.319 -1.833,-0.364C0.895,-2.332 1.874,-3.89 1.98,-5.179C1.98,-5.179 1.98,-5.637 1.98,-5.639C1.874,-6.893 1.07,-7.567 0.353,-7.637C0.227,-7.649 0.11,-7.656 0,-7.656Z" style="fill:rgb(51,51,51);"/>
    </g>
</svg>
