<?xml version="1.0" encoding="UTF-8" standalone="no"?>
<!DOCTYPE svg PUBLIC "-//W3C//DTD SVG 1.1//EN" "http://www.w3.org/Graphics/SVG/1.1/DTD/svg11.dtd">
<svg width="100%" height="100%" viewBox="0 0 1000 400" version="1.1" xmlns="http://www.w3.org/2000/svg" xmlns:xlink="http://www.w3.org/1999/xlink" xml:space="preserve" xmlns:serif="http://www.serif.com/" style="fill-rule:evenodd;clip-rule:evenodd;stroke-linejoin:round;stroke-miterlimit:2;">
    <g transform="matrix(0.716608,0,0,0.716608,-227.119,-196.81)">
        <g transform="matrix(0.176404,0,0,0.176404,1389.11,631.008)">
            <path d="M989.775,-1269.97L989.775,-1064.37L651.36,-1064.37L651.36,0L396.638,0L396.638,-1064.37L58.222,-1064.37L58.222,-1269.97L989.775,-1269.97Z" style="fill:rgb(169,213,47);"/>
        </g>
        <g transform="matrix(-0.422472,0.613423,0.613423,0.422472,624.302,622.287)">
            <path d="M-225.285,-173.894L-263.513,-118.389L91.382,-118.388L129.61,-173.894L-225.285,-173.894Z" style="fill:rgb(169,213,47);"/>
        </g>
        <g transform="matrix(0.735015,0,0,0.735015,974.039,610.297)">
            <path d="M0,-276.964L110.551,-276.964C163.321,-276.964 206.098,-234.186 206.098,-181.417L206.098,-70.866C206.098,-18.096 163.321,24.681 110.551,24.681L0,24.681C-52.769,24.681 -95.547,-18.096 -95.547,-70.866L-95.547,-181.417C-95.547,-234.186 -52.769,-276.964 0,-276.964ZM0,-227.602C-25.507,-227.602 -46.185,-206.924 -46.185,-181.417L-46.185,-70.866C-46.185,-45.358 -25.507,-24.681 0,-24.681L110.551,-24.681C136.059,-24.681 156.736,-45.358 156.736,-70.866L156.736,-181.417C156.736,-206.924 136.059,-227.602 110.551,-227.602L0,-227.602Z" style="fill:rgb(169,213,47);"/>
        </g>
        <g transform="matrix(3.75325,0,0,3.75325,1399.16,743.655)">
            <path d="M0.416,-2.384L1.353,-2.384C1.426,-1.405 2.186,-0.76 3.3,-0.76C4.279,-0.76 4.976,-1.208 4.976,-1.999C4.976,-2.904 4.081,-3.092 2.977,-3.279C1.801,-3.477 0.593,-3.862 0.593,-5.278C0.593,-6.517 1.603,-7.349 3.081,-7.349C4.705,-7.349 5.705,-6.444 5.788,-5.132L4.851,-5.132C4.747,-5.975 4.07,-6.527 3.081,-6.527C2.134,-6.527 1.499,-6.111 1.499,-5.33C1.499,-4.455 2.384,-4.279 3.477,-4.091C4.664,-3.893 5.882,-3.498 5.882,-2.082C5.882,-0.822 4.82,0.062 3.29,0.062C1.509,0.062 0.468,-0.947 0.416,-2.384ZM7.339,-6.204C7.027,-6.204 6.787,-6.433 6.787,-6.756C6.787,-7.079 7.027,-7.308 7.339,-7.308C7.651,-7.308 7.891,-7.079 7.891,-6.756C7.891,-6.433 7.651,-6.204 7.339,-6.204ZM6.902,0L6.902,-5.309L7.755,-5.309L7.755,0L6.902,0ZM14.845,-5.372C15.948,-5.372 16.854,-4.737 16.854,-3.061L16.854,0L16,0L16,-3.008C16,-4.049 15.542,-4.591 14.741,-4.591C13.856,-4.591 13.314,-3.925 13.314,-2.842L13.314,0L12.461,0L12.461,-3.008C12.461,-4.049 11.992,-4.591 11.18,-4.591C10.306,-4.591 9.775,-3.862 9.775,-2.8L9.775,0L8.921,0L8.921,-5.309L9.66,-5.309L9.775,-4.58C10.056,-4.966 10.504,-5.372 11.326,-5.372C12.065,-5.372 12.7,-5.038 13.002,-4.362C13.325,-4.934 13.897,-5.372 14.845,-5.372ZM20.622,-5.372C22.09,-5.372 23.173,-4.383 23.173,-2.655C23.173,-1.031 22.09,0.062 20.622,0.062C19.727,0.062 19.123,-0.302 18.8,-0.812L18.8,2.082L17.947,2.082L17.947,-5.309L18.686,-5.309L18.8,-4.455C19.154,-4.945 19.727,-5.372 20.622,-5.372ZM20.539,-0.697C21.59,-0.697 22.298,-1.499 22.298,-2.655C22.298,-3.81 21.59,-4.612 20.539,-4.612C19.498,-4.612 18.79,-3.81 18.79,-2.675C18.79,-1.509 19.498,-0.697 20.539,-0.697ZM24.151,0L24.151,-7.287L25.005,-7.287L25.005,0L24.151,0ZM28.617,0.062C27.024,0.062 25.983,-1.031 25.983,-2.655C25.983,-4.268 27.004,-5.372 28.503,-5.372C30.002,-5.372 30.98,-4.424 31.022,-2.852C31.022,-2.738 31.011,-2.613 31.001,-2.488L26.879,-2.488L26.879,-2.415C26.91,-1.405 27.545,-0.697 28.555,-0.697C29.304,-0.697 29.887,-1.093 30.064,-1.78L30.928,-1.78C30.72,-0.718 29.845,0.062 28.617,0.062ZM26.931,-3.196L30.106,-3.196C30.022,-4.112 29.398,-4.622 28.513,-4.622C27.732,-4.622 27.014,-4.06 26.931,-3.196ZM31.492,-4.528L31.492,-5.309L35.719,-5.309L35.719,-4.664L32.492,-0.781L35.854,-0.781L35.854,0L31.357,0L31.357,-0.645L34.574,-4.528L31.492,-4.528ZM41.205,-0.781L41.476,-0.781L41.476,0L41.007,0C40.299,0 40.06,-0.302 40.049,-0.822C39.716,-0.344 39.185,0.062 38.269,0.062C37.103,0.062 36.312,-0.52 36.312,-1.489C36.312,-2.55 37.051,-3.144 38.446,-3.144L40.008,-3.144L40.008,-3.508C40.008,-4.195 39.518,-4.612 38.686,-4.612C37.936,-4.612 37.436,-4.258 37.332,-3.716L36.479,-3.716C36.604,-4.757 37.447,-5.372 38.727,-5.372C40.081,-5.372 40.861,-4.695 40.861,-3.456L40.861,-1.135C40.861,-0.854 40.965,-0.781 41.205,-0.781ZM40.008,-2.165L40.008,-2.426L38.363,-2.426C37.603,-2.426 37.176,-2.144 37.176,-1.541C37.176,-1.02 37.624,-0.666 38.332,-0.666C39.394,-0.666 40.008,-1.28 40.008,-2.165Z" style="fill:rgb(15,73,157);"/>
        </g>
        <g transform="matrix(3.75325,0,0,3.75325,934.92,743.655)">
            <path d="M0.708,0L0.708,-7.287L1.853,-7.287L4.435,-1.239L6.985,-7.287L8.109,-7.287L8.109,0L7.225,0L7.225,-5.746L4.809,0L4.008,0L1.593,-5.746L1.593,0L0.708,0ZM11.847,0.062C10.295,0.062 9.213,-1.041 9.213,-2.655C9.213,-4.268 10.295,-5.372 11.847,-5.372C13.398,-5.372 14.48,-4.268 14.48,-2.655C14.48,-1.041 13.398,0.062 11.847,0.062ZM11.847,-0.697C12.898,-0.697 13.606,-1.52 13.606,-2.655C13.606,-3.789 12.898,-4.612 11.847,-4.612C10.795,-4.612 10.087,-3.789 10.087,-2.655C10.087,-1.52 10.795,-0.697 11.847,-0.697ZM19.644,-4.497L19.644,-7.287L20.497,-7.287L20.497,0L19.758,0L19.644,-0.854C19.29,-0.364 18.717,0.062 17.822,0.062C16.354,0.062 15.271,-0.926 15.271,-2.655C15.271,-4.279 16.354,-5.372 17.822,-5.372C18.717,-5.372 19.321,-5.007 19.644,-4.497ZM17.905,-0.697C18.946,-0.697 19.654,-1.499 19.654,-2.634C19.654,-3.8 18.946,-4.612 17.905,-4.612C16.854,-4.612 16.146,-3.81 16.146,-2.655C16.146,-1.499 16.854,-0.697 17.905,-0.697ZM24.11,0.062C22.517,0.062 21.476,-1.031 21.476,-2.655C21.476,-4.268 22.496,-5.372 23.995,-5.372C25.494,-5.372 26.473,-4.424 26.514,-2.852C26.514,-2.738 26.504,-2.613 26.493,-2.488L22.371,-2.488L22.371,-2.415C22.402,-1.405 23.037,-0.697 24.047,-0.697C24.797,-0.697 25.38,-1.093 25.557,-1.78L26.421,-1.78C26.212,-0.718 25.338,0.062 24.11,0.062ZM22.423,-3.196L25.598,-3.196C25.515,-4.112 24.89,-4.622 24.005,-4.622C23.225,-4.622 22.506,-4.06 22.423,-3.196ZM29.95,-5.309L30.189,-5.309L30.189,-4.476L29.762,-4.476C28.648,-4.476 28.346,-3.55 28.346,-2.707L28.346,0L27.493,0L27.493,-5.309L28.232,-5.309L28.346,-4.508C28.596,-4.914 29.002,-5.309 29.95,-5.309ZM33.531,-5.372C34.728,-5.372 35.675,-4.716 35.675,-2.956L35.675,0L34.821,0L34.821,-2.904C34.821,-4.008 34.311,-4.591 33.385,-4.591C32.386,-4.591 31.782,-3.852 31.782,-2.655L31.782,0L30.928,0L30.928,-5.309L31.667,-5.309L31.782,-4.591C32.094,-4.997 32.635,-5.372 33.531,-5.372ZM39.152,0.062C37.601,0.062 36.518,-1.041 36.518,-2.655C36.518,-4.268 37.601,-5.372 39.152,-5.372C40.703,-5.372 41.786,-4.268 41.786,-2.655C41.786,-1.041 40.703,0.062 39.152,0.062ZM39.152,-0.697C40.203,-0.697 40.911,-1.52 40.911,-2.655C40.911,-3.789 40.203,-4.612 39.152,-4.612C38.101,-4.612 37.393,-3.789 37.393,-2.655C37.393,-1.52 38.101,-0.697 39.152,-0.697Z" style="fill:rgb(15,73,157);"/>
        </g>
        <g transform="matrix(3.75325,0,0,3.75325,509.582,743.655)">
            <path d="M1.051,0L0.115,0L2.894,-7.287L3.966,-7.287L6.735,0L5.767,0L4.997,-1.967L1.822,-1.967L1.051,0ZM3.404,-6.298L2.092,-2.79L4.726,-2.79L3.404,-6.298ZM9.588,0.062C8.037,0.062 7.017,-0.989 7.017,-2.644C7.017,-4.268 8.068,-5.372 9.609,-5.372C10.91,-5.372 11.732,-4.643 11.951,-3.477L11.056,-3.477C10.9,-4.185 10.379,-4.612 9.598,-4.612C8.578,-4.612 7.891,-3.8 7.891,-2.644C7.891,-1.489 8.578,-0.697 9.598,-0.697C10.358,-0.697 10.879,-1.135 11.045,-1.811L11.951,-1.811C11.743,-0.666 10.879,0.062 9.588,0.062ZM13.283,-1.385L13.283,-4.528L12.326,-4.528L12.326,-5.309L13.283,-5.309L13.283,-6.798L14.137,-6.798L14.137,-5.309L15.511,-5.309L15.511,-4.528L14.137,-4.528L14.137,-1.395C14.137,-0.947 14.293,-0.781 14.751,-0.781L15.594,-0.781L15.594,0L14.668,0C13.648,0 13.283,-0.448 13.283,-1.385ZM16.771,-6.204C16.458,-6.204 16.219,-6.433 16.219,-6.756C16.219,-7.079 16.458,-7.308 16.771,-7.308C17.083,-7.308 17.322,-7.079 17.322,-6.756C17.322,-6.433 17.083,-6.204 16.771,-6.204ZM16.334,0L16.334,-5.309L17.187,-5.309L17.187,0L16.334,0ZM19.81,0L17.822,-5.309L18.738,-5.309L20.341,-0.968L21.934,-5.309L22.829,-5.309L20.841,0L19.81,0ZM25.682,0.062C24.131,0.062 23.049,-1.041 23.049,-2.655C23.049,-4.268 24.131,-5.372 25.682,-5.372C27.233,-5.372 28.316,-4.268 28.316,-2.655C28.316,-1.041 27.233,0.062 25.682,0.062ZM25.682,-0.697C26.734,-0.697 27.442,-1.52 27.442,-2.655C27.442,-3.789 26.734,-4.612 25.682,-4.612C24.631,-4.612 23.923,-3.789 23.923,-2.655C23.923,-1.52 24.631,-0.697 25.682,-0.697Z" style="fill:rgb(15,73,157);"/>
        </g>
    </g>
</svg>
