<?xml version="1.0" encoding="UTF-8" standalone="no"?>
<!DOCTYPE svg PUBLIC "-//W3C//DTD SVG 1.1//EN" "http://www.w3.org/Graphics/SVG/1.1/DTD/svg11.dtd">
<svg width="100%" height="100%" viewBox="0 0 1000 400" version="1.1" xmlns="http://www.w3.org/2000/svg" xmlns:xlink="http://www.w3.org/1999/xlink" xml:space="preserve" xmlns:serif="http://www.serif.com/" style="fill-rule:evenodd;clip-rule:evenodd;stroke-linejoin:round;stroke-miterlimit:2;">
    <g transform="matrix(2.4758,0,0,2.4758,-182.043,-141.421)">
        <g transform="matrix(4.16667,0,0,4.16667,275.511,155.845)">
            <path d="M0,0.262C0.243,0.262 0.491,0.197 0.745,0.065C0.999,-0.066 1.231,-0.241 1.44,-0.459C1.649,-0.678 1.828,-0.928 1.975,-1.21C2.121,-1.491 2.22,-1.793 2.271,-2.113C2.318,-2.414 2.308,-2.674 2.241,-2.893C2.174,-3.112 2.063,-3.284 1.908,-3.41C1.753,-3.536 1.563,-3.599 1.34,-3.599L-1.035,-3.599L-2.477,0.262L0,0.262ZM-2.147,-5.042L1.991,-5.042C2.496,-5.042 2.91,-4.908 3.232,-4.641C3.554,-4.374 3.778,-4.027 3.905,-3.599C4.031,-3.172 4.057,-2.72 3.981,-2.244C3.906,-1.768 3.731,-1.297 3.458,-0.831C3.186,-0.364 2.844,0.06 2.434,0.444C2.023,0.828 1.571,1.134 1.079,1.362C0.586,1.59 0.078,1.704 -0.447,1.704L-3.012,1.704L-4.339,5.304L-5.986,5.304L-2.147,-5.042Z" style="fill:rgb(0,51,161);fill-rule:nonzero;"/>
        </g>
        <g transform="matrix(4.16667,0,0,4.16667,324.04,170.171)">
            <path d="M0,-9.646L-0.979,-9.908L0.383,-11.511L1.913,-11.511L0,-9.646ZM-1.685,-2.156L-1.531,-6.601L-4.683,-2.156L-1.685,-2.156ZM-1.569,-8.48L-0.126,-8.48L-0.104,1.865L-1.823,1.865L-1.726,-0.947L-5.541,-0.947L-7.535,1.865L-9.254,1.865L-1.569,-8.48Z" style="fill:rgb(0,51,161);fill-rule:nonzero;"/>
        </g>
        <g transform="matrix(4.16667,0,0,4.16667,351.152,140.845)">
            <path d="M0,7.461C0.622,7.461 1.203,7.332 1.744,7.075C2.285,6.817 2.767,6.473 3.19,6.04C3.613,5.608 3.964,5.112 4.242,4.554C4.52,3.996 4.707,3.41 4.804,2.798C4.892,2.244 4.876,1.759 4.758,1.341C4.639,0.923 4.414,0.595 4.083,0.357C3.751,0.12 3.313,0.001 2.77,0.001L0.905,0.001L-1.865,7.461L0,7.461ZM-0.208,-1.442L3.304,-1.442C4.188,-1.442 4.886,-1.265 5.398,-0.911C5.91,-0.556 6.257,-0.077 6.438,0.525C6.62,1.128 6.652,1.802 6.533,2.55C6.389,3.463 6.102,4.306 5.674,5.078C5.246,5.851 4.714,6.524 4.079,7.097C3.444,7.669 2.733,8.114 1.945,8.43C1.156,8.746 0.33,8.903 -0.534,8.903L-4.046,8.903L-0.208,-1.442Z" style="fill:rgb(0,51,161);fill-rule:nonzero;"/>
        </g>
        <g transform="matrix(4.16667,0,0,4.16667,397.764,177.944)">
            <path d="M0,-10.346L6.63,-10.346L6.096,-8.903L1.112,-8.903L0.02,-5.96L4.333,-5.96L3.841,-4.605L-0.487,-4.605L-1.658,-1.443L3.457,-1.443L2.922,0L-3.839,0L0,-10.346Z" style="fill:rgb(0,51,161);fill-rule:nonzero;"/>
        </g>
        <g transform="matrix(4.16667,0,0,4.16667,438.381,177.944)">
            <path d="M0,-10.346L1.646,-10.346L-1.658,-1.443L3.544,-1.443L3.009,0L-3.839,0L0,-10.346Z" style="fill:rgb(0,51,161);fill-rule:nonzero;"/>
        </g>
        <g transform="matrix(4.16667,0,0,4.16667,178.587,105.641)">
            <path d="M0,0.533L0.874,-1.867L-11.74,-1.867C-12.933,-1.867 -13.998,-1.121 -14.406,-0L-15.28,2.4L-2.666,2.4C-1.473,2.4 -0.408,1.654 0,0.533" style="fill:rgb(148,214,9);fill-rule:nonzero;"/>
        </g>
        <g transform="matrix(4.16667,0,0,4.16667,257.733,162.646)">
            <path d="M5.016,-15.548L-7.607,-15.548C-8.794,-15.548 -9.855,-14.805 -10.261,-13.69L-11.138,-11.281L-6.094,-11.281L-10.2,0L-7.639,0C-6.45,0 -5.389,-0.743 -4.982,-1.86L-1.553,-11.281L1.485,-11.281C2.672,-11.281 3.733,-12.024 4.139,-13.139L5.016,-15.548Z" style="fill:rgb(148,214,9);fill-rule:nonzero;"/>
        </g>
        <g transform="matrix(4.16667,0,0,4.16667,97.8213,123.42)">
            <path d="M0,9.414L2.559,9.414C3.749,9.414 4.812,8.67 5.219,7.551L6.414,4.268L11.638,4.268C12.828,4.268 13.891,3.523 14.297,2.405L15.173,0L3.427,0L0,9.414Z" style="fill:rgb(148,214,9);fill-rule:nonzero;"/>
        </g>
        <g transform="matrix(4.16667,0,0,4.16667,187.752,154.883)">
            <path d="M0,-11.822L-4.981,1.863L-2.431,1.863C-1.236,1.863 -0.168,1.116 0.241,-0.008L5.219,-13.685L2.66,-13.685C1.47,-13.685 0.407,-12.94 0,-11.822" style="fill:rgb(148,214,9);fill-rule:nonzero;"/>
        </g>
    </g>
</svg>
