<?xml version="1.0" encoding="UTF-8" standalone="no"?>
<!DOCTYPE svg PUBLIC "-//W3C//DTD SVG 1.1//EN" "http://www.w3.org/Graphics/SVG/1.1/DTD/svg11.dtd">
<svg width="100%" height="100%" viewBox="0 0 1000 400" version="1.1" xmlns="http://www.w3.org/2000/svg" xmlns:xlink="http://www.w3.org/1999/xlink" xml:space="preserve" xmlns:serif="http://www.serif.com/" style="fill-rule:evenodd;clip-rule:evenodd;stroke-linejoin:round;stroke-miterlimit:2;">
    <g transform="matrix(1.08905,0,0,1.08905,-31.5198,-28.7541)">
        <g transform="matrix(0.97269,0,0,0.97269,141.497,167.451)">
            <path d="M0,140.825C-4.123,140.825 -8.857,140.559 -14.201,140.033C-19.547,139.503 -24.796,138.845 -29.946,138.052C-35.098,137.259 -39.605,136.601 -43.469,136.072L-41.924,120.623C-38.19,121.019 -33.779,121.514 -28.689,122.108C-23.603,122.703 -18.614,123.197 -13.717,123.594C-8.824,123.99 -4.638,124.188 -1.16,124.188C7.727,124.188 14.327,122.207 18.643,118.246C22.956,114.284 25.115,108.079 25.115,99.628C25.115,95.007 24.246,91.343 22.507,88.634C20.769,85.929 17.837,83.751 13.717,82.098C9.594,80.449 4.057,78.963 -2.899,77.642C-12.431,75.661 -20.286,73.284 -26.469,70.511C-32.65,67.739 -37.224,63.811 -40.185,58.727C-43.149,53.644 -44.628,46.743 -44.628,38.028C-44.628,28.788 -42.86,21.39 -39.316,15.845C-35.775,10.298 -30.688,6.273 -24.053,3.763C-17.42,1.256 -9.661,0 -0.772,0C3.217,0 7.758,0.231 12.847,0.693C17.934,1.156 22.956,1.717 27.917,2.376C32.873,3.038 37.157,3.697 40.764,4.357L39.411,20.004C35.675,19.478 31.328,18.982 26.371,18.519C21.412,18.058 16.615,17.627 11.978,17.231C7.341,16.835 3.604,16.637 0.774,16.637C-8.114,16.637 -14.779,18.256 -19.223,21.489C-23.667,24.727 -25.888,29.777 -25.888,36.642C-25.888,41.925 -24.923,45.951 -22.991,48.724C-21.058,51.497 -17.84,53.675 -13.33,55.261C-8.824,56.845 -2.899,58.563 4.443,60.41C11.399,61.994 17.355,63.712 22.315,65.559C27.272,67.41 31.362,69.719 34.582,72.492C37.799,75.265 40.151,78.7 41.635,82.791C43.114,86.886 43.856,92.036 43.856,98.241C43.856,108.41 42.084,116.596 38.543,122.801C34.998,129.01 29.945,133.565 23.376,136.468C16.808,139.371 9.014,140.825 0,140.825" style="fill:rgb(77,88,89);fill-rule:nonzero;"/>
        </g>
        <g transform="matrix(0.97269,0,0,0.97269,233.953,205.982)">
            <path d="M0,101.212C-8.375,101.212 -14.78,99.461 -19.224,95.964C-23.667,92.467 -26.728,87.084 -28.4,79.821C-30.076,72.561 -30.912,63.184 -30.912,51.696L-30.912,0L-12.945,0L-12.945,51.497C-12.945,59.686 -12.557,66.222 -11.786,71.106C-11.012,75.993 -9.307,79.493 -6.666,81.603C-4.028,83.717 -0.066,84.773 5.215,84.773C10.366,84.773 15.099,84.049 19.416,82.594C23.729,81.142 27.24,79.756 29.946,78.435L29.946,0L47.719,0L47.719,99.232L29.946,99.232L29.946,92.498C25.821,94.875 21.411,96.923 16.711,98.637C12.008,100.352 6.438,101.212 0,101.212" style="fill:rgb(77,88,89);fill-rule:nonzero;"/>
        </g>
        <g transform="matrix(0.97269,0,0,0.97269,305.736,164.945)">
            <path d="M0,141.421L0,0L17.967,0L17.967,47.141C21.316,45.69 25.695,44.169 31.105,42.586C36.515,41.001 41.664,40.208 46.56,40.208C55.448,40.208 62.307,41.826 67.136,45.061C71.966,48.298 75.282,53.513 77.087,60.708C78.888,67.907 79.79,77.315 79.79,88.933L79.79,141.421L61.63,141.421L61.63,90.122C61.63,81.936 61.178,75.399 60.277,70.513C59.375,65.629 57.603,62.095 54.965,59.916C52.323,57.737 48.3,56.648 42.89,56.648C38.379,56.648 33.777,57.242 29.075,58.431C24.373,59.619 20.672,60.807 17.967,61.996L17.967,141.421L0,141.421Z" style="fill:rgb(77,88,89);fill-rule:nonzero;"/>
        </g>
        <g transform="matrix(0.97269,0,0,0.97269,-486.859,-294.894)">
            <path d="M919.56,475.721L937.526,475.721L937.526,494.934L919.56,494.934L919.56,475.721ZM919.56,514.939L937.526,514.939L937.526,614.17L919.56,614.17L919.56,514.939Z" style="fill:rgb(77,88,89);fill-rule:nonzero;"/>
        </g>
        <g transform="matrix(0.97269,0,0,0.97269,480.875,204.055)">
            <path d="M0,103.193C-3.351,103.193 -7.181,102.995 -11.496,102.6C-15.812,102.203 -20.063,101.707 -24.248,101.114C-28.434,100.52 -32.072,99.894 -35.162,99.232L-34.39,84.376C-31.172,84.773 -27.5,85.237 -23.377,85.763C-19.257,86.293 -15.234,86.723 -11.303,87.051C-7.375,87.382 -4.251,87.546 -1.933,87.546C2.96,87.546 7.018,87.085 10.238,86.16C13.456,85.237 15.905,83.684 17.58,81.505C19.253,79.326 20.092,76.324 20.092,72.493C20.092,69.456 19.445,67.114 18.16,65.462C16.87,63.812 14.489,62.425 11.012,61.302C7.534,60.182 2.445,59.093 -4.251,58.034C-11.466,56.846 -17.454,55.36 -22.217,53.578C-26.986,51.795 -30.527,49.056 -32.844,45.358C-35.162,41.662 -36.321,36.512 -36.321,29.908C-36.321,22.252 -34.617,16.276 -31.202,11.983C-27.792,7.694 -23.347,4.624 -17.871,2.773C-12.398,0.925 -6.635,0 -0.58,0C3.284,0 7.437,0.198 11.88,0.594C16.324,0.991 20.605,1.519 24.728,2.179C28.85,2.841 32.39,3.436 35.354,3.961L34.775,19.014C31.684,18.488 28.076,17.993 23.956,17.529C19.832,17.068 15.711,16.705 11.591,16.44C7.469,16.177 3.862,16.043 0.772,16.043C-2.836,16.043 -6.086,16.408 -8.985,17.133C-11.883,17.86 -14.138,19.182 -15.746,21.095C-17.357,23.01 -18.161,25.749 -18.161,29.314C-18.161,31.957 -17.582,34.068 -16.423,35.652C-15.263,37.237 -12.945,38.592 -9.467,39.712C-5.99,40.836 -1.033,41.926 5.409,42.981C13.394,44.302 19.769,45.952 24.536,47.932C29.299,49.914 32.777,52.754 34.968,56.449C37.156,60.148 38.252,65.232 38.252,71.7C38.252,83.455 34.871,91.64 28.11,96.261C21.347,100.885 11.977,103.193 0,103.193" style="fill:rgb(77,88,89);fill-rule:nonzero;"/>
        </g>
        <g transform="matrix(0.97269,0,0,0.97269,568.819,204.055)">
            <path d="M0,103.193C-3.351,103.193 -7.181,102.995 -11.495,102.6C-15.812,102.203 -20.061,101.707 -24.246,101.114C-28.432,100.52 -32.07,99.894 -35.161,99.232L-34.389,84.376C-31.171,84.773 -27.5,85.237 -23.376,85.763C-19.256,86.293 -15.231,86.723 -11.301,87.051C-7.375,87.382 -4.25,87.546 -1.932,87.546C2.963,87.546 7.018,87.085 10.241,86.16C13.458,85.237 15.906,83.684 17.581,81.505C19.255,79.326 20.093,76.324 20.093,72.493C20.093,69.456 19.447,67.114 18.161,65.462C16.872,63.812 14.49,62.425 11.012,61.302C7.535,60.182 2.446,59.093 -4.25,58.034C-11.464,56.846 -17.454,55.36 -22.218,53.578C-26.983,51.795 -30.525,49.056 -32.843,45.358C-35.161,41.662 -36.321,36.512 -36.321,29.908C-36.321,22.252 -34.615,16.276 -31.201,11.983C-27.789,7.694 -23.346,4.624 -17.87,2.773C-12.397,0.925 -6.635,0 -0.579,0C3.284,0 7.438,0.198 11.883,0.594C16.326,0.991 20.606,1.519 24.729,2.179C28.85,2.841 32.391,3.436 35.356,3.961L34.776,19.014C31.685,18.488 28.078,17.993 23.957,17.529C19.833,17.068 15.713,16.705 11.594,16.44C7.469,16.177 3.865,16.043 0.774,16.043C-2.835,16.043 -6.085,16.408 -8.984,17.133C-11.881,17.86 -14.136,19.182 -15.746,21.095C-17.358,23.01 -18.16,25.749 -18.16,29.314C-18.16,31.957 -17.58,34.068 -16.421,35.652C-15.262,37.237 -12.943,38.592 -9.467,39.712C-5.989,40.836 -1.031,41.926 5.411,42.981C13.394,44.302 19.77,45.952 24.537,47.932C29.3,49.914 32.777,52.754 34.969,56.449C37.158,60.148 38.254,65.232 38.254,71.7C38.254,83.455 34.872,91.64 28.11,96.261C21.349,100.885 11.978,103.193 0,103.193" style="fill:rgb(77,88,89);fill-rule:nonzero;"/>
        </g>
        <g transform="matrix(0.97269,0,0,0.97269,647.744,204.055)">
            <path d="M0,103.193C-9.147,103.193 -16.101,100.618 -20.866,95.469C-25.632,90.319 -28.014,82.727 -28.014,72.691C-28.014,65.956 -26.854,60.51 -24.537,56.35C-22.217,52.191 -18.774,49.056 -14.2,46.942C-9.629,44.831 -3.93,43.574 2.898,43.179L30.912,40.406L30.912,32.681C30.912,26.476 29.56,22.085 26.854,19.509C24.149,16.935 20.093,15.647 14.682,15.647C11.332,15.647 7.404,15.781 2.898,16.043C-1.612,16.31 -6.056,16.638 -10.433,17.034C-14.813,17.43 -18.74,17.827 -22.217,18.223L-22.992,4.753C-19.772,3.961 -15.938,3.237 -11.496,2.575C-7.051,1.916 -2.385,1.321 2.511,0.792C7.404,0.266 11.911,0 16.035,0C23.634,0 29.879,1.123 34.776,3.367C39.669,5.614 43.276,9.111 45.595,13.865C47.913,18.618 49.072,24.758 49.072,32.285L49.072,81.01C49.329,83.653 50.391,85.599 52.259,86.853C54.125,88.109 56.477,88.933 59.312,89.329L58.732,102.995C55.897,102.995 53.226,102.896 50.714,102.698C48.203,102.5 45.914,102.07 43.856,101.411C41.794,100.885 39.959,100.123 38.349,99.133C36.738,98.143 35.225,96.988 33.81,95.667C31.491,96.725 28.463,97.845 24.729,99.034C20.991,100.222 17.002,101.213 12.751,102.005C8.5,102.797 4.25,103.193 0,103.193M3.67,88.537C6.889,88.537 10.207,88.208 13.62,87.546C17.031,86.887 20.286,86.129 23.378,85.269C26.468,84.411 28.979,83.653 30.912,82.991L30.912,53.28L5.216,55.855C-0.192,56.251 -4.058,57.805 -6.375,60.51C-8.695,63.217 -9.854,67.08 -9.854,72.097C-9.854,77.247 -8.727,81.276 -6.472,84.178C-4.221,87.085 -0.839,88.537 3.67,88.537" style="fill:rgb(77,88,89);fill-rule:nonzero;"/>
        </g>
        <g transform="matrix(0.97269,0,0,0.97269,882.584,95.898)">
            <path d="M0,41.202C-3.786,41.202 -7.175,40.282 -10.167,38.44C-13.159,36.598 -15.513,34.118 -17.226,30.998C-18.94,27.878 -19.796,24.425 -19.796,20.639C-19.796,16.804 -18.94,13.338 -17.226,10.244C-15.513,7.149 -13.159,4.669 -10.167,2.802C-7.175,0.934 -3.786,0 0,0C3.836,0 7.25,0.934 10.243,2.802C13.235,4.669 15.587,7.163 17.302,10.282C19.015,13.403 19.871,16.855 19.871,20.639C19.871,24.425 19.015,27.878 17.302,30.998C15.587,34.118 13.235,36.598 10.243,38.44C7.25,40.282 3.836,41.202 0,41.202M0,38.44C3.273,38.44 6.202,37.634 8.784,36.023C11.367,34.412 13.388,32.264 14.846,29.579C16.303,26.893 17.032,23.914 17.032,20.639C17.032,17.366 16.303,14.375 14.846,11.663C13.388,8.952 11.367,6.79 8.784,5.18C6.202,3.569 3.273,2.762 0,2.762C-3.275,2.762 -6.19,3.569 -8.747,5.18C-11.305,6.79 -13.326,8.952 -14.809,11.663C-16.293,14.375 -17.033,17.366 -17.033,20.639C-17.033,23.914 -16.293,26.893 -14.809,29.579C-13.326,32.264 -11.305,34.412 -8.747,36.023C-6.19,37.634 -3.275,38.44 0,38.44M-8.056,32.071L-8.056,9.285L-0.461,9.285C2.403,9.285 4.564,9.783 6.023,10.782C7.48,11.778 8.209,13.607 8.209,16.267C8.209,18.108 7.902,19.579 7.287,20.678C6.675,21.779 5.55,22.584 3.914,23.095L8.67,32.071L5.293,32.071L0.612,23.402L-4.911,23.402L-4.911,32.071L-8.056,32.071ZM-4.911,20.639L0.69,20.639C2.274,20.639 3.414,20.321 4.105,19.681C4.795,19.042 5.14,17.93 5.14,16.344C5.14,14.707 4.68,13.581 3.759,12.968C2.838,12.353 1.405,12.046 -0.537,12.046L-4.911,12.046L-4.911,20.639Z" style="fill:rgb(77,88,89);fill-rule:nonzero;"/>
        </g>
        <g transform="matrix(0.97269,0,0,0.97269,796.263,204.867)">
            <path d="M0,64.094C35.342,64.094 64.094,35.342 64.094,0L35.873,0C35.873,19.781 19.781,35.874 0,35.874C-19.781,35.874 -35.874,19.781 -35.874,0L-64.094,0C-64.094,35.342 -35.342,64.094 0,64.094" style="fill:rgb(66,182,73);fill-rule:nonzero;"/>
        </g>
        <g transform="matrix(0.97269,0,0,0.97269,737.383,95.5697)">
            <path d="M0,86.494L31.574,86.494L60.534,45.116L89.493,86.494L121.067,86.494L60.534,0L0,86.494Z" style="fill:rgb(0,61,167);fill-rule:nonzero;"/>
        </g>
    </g>
</svg>
