<?xml version="1.0" encoding="UTF-8" standalone="no"?>
<!DOCTYPE svg PUBLIC "-//W3C//DTD SVG 1.1//EN" "http://www.w3.org/Graphics/SVG/1.1/DTD/svg11.dtd">
<svg width="100%" height="100%" viewBox="0 0 1000 400" version="1.1" xmlns="http://www.w3.org/2000/svg" xmlns:xlink="http://www.w3.org/1999/xlink" xml:space="preserve" xmlns:serif="http://www.serif.com/" style="fill-rule:evenodd;clip-rule:evenodd;stroke-linejoin:round;stroke-miterlimit:2;">
    <g transform="matrix(0.716608,0,0,0.716608,-227.119,-196.81)">
        <path d="M417.221,680.995C415.381,680.995 413.761,680.675 412.361,680.035C410.961,679.395 409.861,678.502 409.061,677.355C408.261,676.208 407.834,674.928 407.781,673.515L410.741,673.515C410.874,674.875 411.474,676.068 412.541,677.095C413.608,678.122 415.168,678.635 417.221,678.635C419.114,678.635 420.614,678.148 421.721,677.175C422.828,676.202 423.381,674.968 423.381,673.475C423.381,672.275 423.074,671.308 422.461,670.575C421.848,669.842 421.088,669.295 420.181,668.935C419.274,668.575 418.021,668.182 416.421,667.755C414.554,667.248 413.074,666.755 411.981,666.275C410.888,665.795 409.954,665.048 409.181,664.035C408.408,663.022 408.021,661.648 408.021,659.915C408.021,658.475 408.394,657.188 409.141,656.055C409.888,654.922 410.941,654.035 412.301,653.395C413.661,652.755 415.221,652.435 416.981,652.435C419.568,652.435 421.654,653.068 423.241,654.335C424.828,655.602 425.741,657.235 425.981,659.235L422.941,659.235C422.754,658.088 422.128,657.068 421.061,656.175C419.994,655.282 418.554,654.835 416.741,654.835C415.061,654.835 413.661,655.282 412.541,656.175C411.421,657.068 410.861,658.288 410.861,659.835C410.861,661.008 411.168,661.955 411.781,662.675C412.394,663.395 413.161,663.942 414.081,664.315C415.001,664.688 416.248,665.088 417.821,665.515C419.634,666.022 421.101,666.522 422.221,667.015C423.341,667.508 424.288,668.262 425.061,669.275C425.834,670.288 426.221,671.648 426.221,673.355C426.221,674.662 425.874,675.902 425.181,677.075C424.488,678.248 423.461,679.195 422.101,679.915C420.741,680.635 419.114,680.995 417.221,680.995ZM433.021,654.755C432.461,654.755 431.981,654.555 431.581,654.155C431.181,653.755 430.981,653.262 430.981,652.675C430.981,652.088 431.181,651.602 431.581,651.215C431.981,650.828 432.461,650.635 433.021,650.635C433.581,650.635 434.061,650.828 434.461,651.215C434.861,651.602 435.061,652.088 435.061,652.675C435.061,653.262 434.861,653.755 434.461,654.155C434.061,654.555 433.581,654.755 433.021,654.755ZM434.421,658.875L434.421,680.715L431.621,680.715L431.621,658.875L434.421,658.875ZM448.301,681.035C445.794,681.035 443.748,680.455 442.161,679.295C440.574,678.135 439.688,676.555 439.501,674.555L442.381,674.555C442.514,675.782 443.094,676.775 444.121,677.535C445.148,678.295 446.528,678.675 448.261,678.675C449.781,678.675 450.974,678.315 451.841,677.595C452.708,676.875 453.141,675.982 453.141,674.915C453.141,674.168 452.901,673.555 452.421,673.075C451.941,672.595 451.334,672.215 450.601,671.935C449.868,671.655 448.874,671.355 447.621,671.035C445.994,670.608 444.674,670.182 443.661,669.755C442.648,669.328 441.788,668.695 441.081,667.855C440.374,667.015 440.021,665.888 440.021,664.475C440.021,663.408 440.341,662.422 440.981,661.515C441.621,660.608 442.528,659.888 443.701,659.355C444.874,658.822 446.208,658.555 447.701,658.555C450.048,658.555 451.941,659.148 453.381,660.335C454.821,661.522 455.594,663.155 455.701,665.235L452.901,665.235C452.821,663.955 452.321,662.922 451.401,662.135C450.481,661.348 449.221,660.955 447.621,660.955C446.208,660.955 445.061,661.288 444.181,661.955C443.301,662.622 442.861,663.448 442.861,664.435C442.861,665.288 443.121,665.988 443.641,666.535C444.161,667.082 444.808,667.508 445.581,667.815C446.354,668.122 447.394,668.462 448.701,668.835C450.274,669.262 451.528,669.675 452.461,670.075C453.394,670.475 454.194,671.062 454.861,671.835C455.528,672.608 455.874,673.635 455.901,674.915C455.901,676.088 455.581,677.135 454.941,678.055C454.301,678.975 453.408,679.702 452.261,680.235C451.114,680.768 449.794,681.035 448.301,681.035ZM464.821,661.235L464.821,674.795C464.821,676.128 465.074,677.048 465.581,677.555C466.088,678.062 466.981,678.315 468.261,678.315L470.821,678.315L470.821,680.715L467.821,680.715C465.848,680.715 464.381,680.255 463.421,679.335C462.461,678.415 461.981,676.902 461.981,674.795L461.981,661.235L458.941,661.235L458.941,658.875L461.981,658.875L461.981,653.395L464.821,653.395L464.821,658.875L470.821,658.875L470.821,661.235L464.821,661.235ZM495.181,668.675C495.181,669.635 495.154,670.368 495.101,670.875L476.981,670.875C477.061,672.528 477.461,673.942 478.181,675.115C478.901,676.288 479.848,677.175 481.021,677.775C482.194,678.375 483.474,678.675 484.861,678.675C486.674,678.675 488.201,678.235 489.441,677.355C490.681,676.475 491.501,675.288 491.901,673.795L494.861,673.795C494.328,675.928 493.188,677.668 491.441,679.015C489.694,680.362 487.501,681.035 484.861,681.035C482.808,681.035 480.968,680.575 479.341,679.655C477.714,678.735 476.441,677.428 475.521,675.735C474.601,674.042 474.141,672.062 474.141,669.795C474.141,667.528 474.594,665.542 475.501,663.835C476.408,662.128 477.674,660.822 479.301,659.915C480.928,659.008 482.781,658.555 484.861,658.555C486.941,658.555 488.761,659.008 490.321,659.915C491.881,660.822 493.081,662.042 493.921,663.575C494.761,665.108 495.181,666.808 495.181,668.675ZM492.341,668.595C492.368,666.968 492.041,665.582 491.361,664.435C490.681,663.288 489.754,662.422 488.581,661.835C487.408,661.248 486.128,660.955 484.741,660.955C482.661,660.955 480.888,661.622 479.421,662.955C477.954,664.288 477.141,666.168 476.981,668.595L492.341,668.595ZM526.301,658.475C528.861,658.475 530.948,659.282 532.561,660.895C534.174,662.508 534.981,664.848 534.981,667.915L534.981,680.715L532.221,680.715L532.221,668.235C532.221,665.862 531.648,664.048 530.501,662.795C529.354,661.542 527.794,660.915 525.821,660.915C523.768,660.915 522.128,661.595 520.901,662.955C519.674,664.315 519.061,666.288 519.061,668.875L519.061,680.715L516.301,680.715L516.301,668.235C516.301,665.862 515.728,664.048 514.581,662.795C513.434,661.542 511.861,660.915 509.861,660.915C507.808,660.915 506.168,661.595 504.941,662.955C503.714,664.315 503.101,666.288 503.101,668.875L503.101,680.715L500.301,680.715L500.301,658.875L503.101,658.875L503.101,662.635C503.794,661.275 504.781,660.242 506.061,659.535C507.341,658.828 508.768,658.475 510.341,658.475C512.234,658.475 513.894,658.928 515.321,659.835C516.748,660.742 517.781,662.075 518.421,663.835C519.008,662.102 520.014,660.775 521.441,659.855C522.868,658.935 524.488,658.475 526.301,658.475ZM539.901,669.755C539.901,667.515 540.348,665.548 541.241,663.855C542.134,662.162 543.374,660.855 544.961,659.935C546.548,659.015 548.341,658.555 550.341,658.555C552.421,658.555 554.214,659.035 555.721,659.995C557.228,660.955 558.314,662.182 558.981,663.675L558.981,658.875L561.781,658.875L561.781,680.715L558.981,680.715L558.981,675.875C558.288,677.368 557.188,678.602 555.681,679.575C554.174,680.548 552.381,681.035 550.301,681.035C548.328,681.035 546.548,680.568 544.961,679.635C543.374,678.702 542.134,677.382 541.241,675.675C540.348,673.968 539.901,671.995 539.901,669.755ZM558.981,669.795C558.981,668.035 558.621,666.488 557.901,665.155C557.181,663.822 556.201,662.795 554.961,662.075C553.721,661.355 552.354,660.995 550.861,660.995C549.314,660.995 547.928,661.342 546.701,662.035C545.474,662.728 544.508,663.735 543.801,665.055C543.094,666.375 542.741,667.942 542.741,669.755C542.741,671.542 543.094,673.108 543.801,674.455C544.508,675.802 545.474,676.828 546.701,677.535C547.928,678.242 549.314,678.595 550.861,678.595C552.354,678.595 553.721,678.235 554.961,677.515C556.201,676.795 557.181,675.768 557.901,674.435C558.621,673.102 558.981,671.555 558.981,669.795ZM575.701,681.035C573.194,681.035 571.148,680.455 569.561,679.295C567.974,678.135 567.088,676.555 566.901,674.555L569.781,674.555C569.914,675.782 570.494,676.775 571.521,677.535C572.548,678.295 573.928,678.675 575.661,678.675C577.181,678.675 578.374,678.315 579.241,677.595C580.108,676.875 580.541,675.982 580.541,674.915C580.541,674.168 580.301,673.555 579.821,673.075C579.341,672.595 578.734,672.215 578.001,671.935C577.268,671.655 576.274,671.355 575.021,671.035C573.394,670.608 572.074,670.182 571.061,669.755C570.048,669.328 569.188,668.695 568.481,667.855C567.774,667.015 567.421,665.888 567.421,664.475C567.421,663.408 567.741,662.422 568.381,661.515C569.021,660.608 569.928,659.888 571.101,659.355C572.274,658.822 573.608,658.555 575.101,658.555C577.448,658.555 579.341,659.148 580.781,660.335C582.221,661.522 582.994,663.155 583.101,665.235L580.301,665.235C580.221,663.955 579.721,662.922 578.801,662.135C577.881,661.348 576.621,660.955 575.021,660.955C573.608,660.955 572.461,661.288 571.581,661.955C570.701,662.622 570.261,663.448 570.261,664.435C570.261,665.288 570.521,665.988 571.041,666.535C571.561,667.082 572.208,667.508 572.981,667.815C573.754,668.122 574.794,668.462 576.101,668.835C577.674,669.262 578.928,669.675 579.861,670.075C580.794,670.475 581.594,671.062 582.261,671.835C582.928,672.608 583.274,673.635 583.301,674.915C583.301,676.088 582.981,677.135 582.341,678.055C581.701,678.975 580.808,679.702 579.661,680.235C578.514,680.768 577.194,681.035 575.701,681.035Z" style="fill:rgb(25,35,77);"/>
    </g>
    <g transform="matrix(0.716608,0,0,0.716608,-227.119,-196.81)">
        <path d="M819.449,653.115L819.449,680.715L816.649,680.715L816.649,658.675L806.809,680.715L804.769,680.715L794.929,658.755L794.929,680.715L792.129,680.715L792.129,653.115L795.089,653.115L805.769,677.035L816.449,653.115L819.449,653.115ZM844.729,658.875L844.729,680.715L841.929,680.715L841.929,676.875C841.289,678.235 840.303,679.275 838.969,679.995C837.636,680.715 836.143,681.075 834.489,681.075C831.876,681.075 829.743,680.268 828.089,678.655C826.436,677.042 825.609,674.702 825.609,671.635L825.609,658.875L828.369,658.875L828.369,671.315C828.369,673.688 828.963,675.502 830.149,676.755C831.336,678.008 832.956,678.635 835.009,678.635C837.116,678.635 838.796,677.968 840.049,676.635C841.303,675.302 841.929,673.342 841.929,670.755L841.929,658.875L844.729,658.875ZM861.369,658.475C863.983,658.475 866.116,659.282 867.769,660.895C869.423,662.508 870.249,664.848 870.249,667.915L870.249,680.715L867.489,680.715L867.489,668.235C867.489,665.862 866.896,664.048 865.709,662.795C864.523,661.542 862.903,660.915 860.849,660.915C858.743,660.915 857.063,661.582 855.809,662.915C854.556,664.248 853.929,666.208 853.929,668.795L853.929,680.715L851.129,680.715L851.129,658.875L853.929,658.875L853.929,662.595C854.623,661.262 855.623,660.242 856.929,659.535C858.236,658.828 859.716,658.475 861.369,658.475ZM875.169,669.755C875.169,667.515 875.623,665.548 876.529,663.855C877.436,662.162 878.683,660.855 880.269,659.935C881.856,659.015 883.649,658.555 885.649,658.555C887.569,658.555 889.303,659.022 890.849,659.955C892.396,660.888 893.529,662.102 894.249,663.595L894.249,651.115L897.049,651.115L897.049,680.715L894.249,680.715L894.249,675.835C893.583,677.355 892.489,678.602 890.969,679.575C889.449,680.548 887.663,681.035 885.609,681.035C883.609,681.035 881.816,680.568 880.229,679.635C878.643,678.702 877.403,677.382 876.509,675.675C875.616,673.968 875.169,671.995 875.169,669.755ZM894.249,669.795C894.249,668.035 893.889,666.488 893.169,665.155C892.449,663.822 891.469,662.795 890.229,662.075C888.989,661.355 887.623,660.995 886.129,660.995C884.583,660.995 883.196,661.342 881.969,662.035C880.743,662.728 879.776,663.735 879.069,665.055C878.363,666.375 878.009,667.942 878.009,669.755C878.009,671.542 878.363,673.108 879.069,674.455C879.776,675.802 880.743,676.828 881.969,677.535C883.196,678.242 884.583,678.595 886.129,678.595C887.623,678.595 888.989,678.235 890.229,677.515C891.469,676.795 892.449,675.768 893.169,674.435C893.889,673.102 894.249,671.555 894.249,669.795ZM913.009,681.035C910.956,681.035 909.109,680.575 907.469,679.655C905.829,678.735 904.536,677.428 903.589,675.735C902.643,674.042 902.169,672.062 902.169,669.795C902.169,667.528 902.649,665.548 903.609,663.855C904.569,662.162 905.876,660.855 907.529,659.935C909.183,659.015 911.036,658.555 913.089,658.555C915.143,658.555 917.003,659.015 918.669,659.935C920.336,660.855 921.643,662.162 922.589,663.855C923.536,665.548 924.009,667.528 924.009,669.795C924.009,672.035 923.529,674.008 922.569,675.715C921.609,677.422 920.289,678.735 918.609,679.655C916.929,680.575 915.063,681.035 913.009,681.035ZM913.009,678.595C914.449,678.595 915.783,678.268 917.009,677.615C918.236,676.962 919.229,675.975 919.989,674.655C920.749,673.335 921.129,671.715 921.129,669.795C921.129,667.875 920.756,666.255 920.009,664.935C919.263,663.615 918.276,662.628 917.049,661.975C915.823,661.322 914.489,660.995 913.049,660.995C911.609,660.995 910.276,661.322 909.049,661.975C907.823,662.628 906.843,663.615 906.109,664.935C905.376,666.255 905.009,667.875 905.009,669.795C905.009,671.715 905.376,673.335 906.109,674.655C906.843,675.975 907.816,676.962 909.029,677.615C910.243,678.268 911.569,678.595 913.009,678.595Z" style="fill:rgb(25,35,77);"/>
    </g>
    <g transform="matrix(0.716608,0,0,0.716608,-227.119,-196.81)">
        <path d="M1158.54,680.995C1156.7,680.995 1155.08,680.675 1153.68,680.035C1152.28,679.395 1151.18,678.502 1150.38,677.355C1149.58,676.208 1149.15,674.928 1149.1,673.515L1152.06,673.515C1152.19,674.875 1152.79,676.068 1153.86,677.095C1154.93,678.122 1156.49,678.635 1158.54,678.635C1160.43,678.635 1161.93,678.148 1163.04,677.175C1164.15,676.202 1164.7,674.968 1164.7,673.475C1164.7,672.275 1164.39,671.308 1163.78,670.575C1163.17,669.842 1162.41,669.295 1161.5,668.935C1160.59,668.575 1159.34,668.182 1157.74,667.755C1155.87,667.248 1154.39,666.755 1153.3,666.275C1152.21,665.795 1151.27,665.048 1150.5,664.035C1149.73,663.022 1149.34,661.648 1149.34,659.915C1149.34,658.475 1149.71,657.188 1150.46,656.055C1151.21,654.922 1152.26,654.035 1153.62,653.395C1154.98,652.755 1156.54,652.435 1158.3,652.435C1160.89,652.435 1162.97,653.068 1164.56,654.335C1166.15,655.602 1167.06,657.235 1167.3,659.235L1164.26,659.235C1164.07,658.088 1163.45,657.068 1162.38,656.175C1161.31,655.282 1159.87,654.835 1158.06,654.835C1156.38,654.835 1154.98,655.282 1153.86,656.175C1152.74,657.068 1152.18,658.288 1152.18,659.835C1152.18,661.008 1152.49,661.955 1153.1,662.675C1153.71,663.395 1154.48,663.942 1155.4,664.315C1156.32,664.688 1157.57,665.088 1159.14,665.515C1160.95,666.022 1162.42,666.522 1163.54,667.015C1164.66,667.508 1165.61,668.262 1166.38,669.275C1167.15,670.288 1167.54,671.648 1167.54,673.355C1167.54,674.662 1167.19,675.902 1166.5,677.075C1165.81,678.248 1164.78,679.195 1163.42,679.915C1162.06,680.635 1160.43,680.995 1158.54,680.995ZM1182.5,681.035C1180.45,681.035 1178.6,680.575 1176.96,679.655C1175.32,678.735 1174.03,677.428 1173.08,675.735C1172.13,674.042 1171.66,672.062 1171.66,669.795C1171.66,667.528 1172.14,665.548 1173.1,663.855C1174.06,662.162 1175.37,660.855 1177.02,659.935C1178.67,659.015 1180.53,658.555 1182.58,658.555C1184.63,658.555 1186.49,659.015 1188.16,659.935C1189.83,660.855 1191.13,662.162 1192.08,663.855C1193.03,665.548 1193.5,667.528 1193.5,669.795C1193.5,672.035 1193.02,674.008 1192.06,675.715C1191.1,677.422 1189.78,678.735 1188.1,679.655C1186.42,680.575 1184.55,681.035 1182.5,681.035ZM1182.5,678.595C1183.94,678.595 1185.27,678.268 1186.5,677.615C1187.73,676.962 1188.72,675.975 1189.48,674.655C1190.24,673.335 1190.62,671.715 1190.62,669.795C1190.62,667.875 1190.25,666.255 1189.5,664.935C1188.75,663.615 1187.77,662.628 1186.54,661.975C1185.31,661.322 1183.98,660.995 1182.54,660.995C1181.1,660.995 1179.77,661.322 1178.54,661.975C1177.31,662.628 1176.33,663.615 1175.6,664.935C1174.87,666.255 1174.5,667.875 1174.5,669.795C1174.5,671.715 1174.87,673.335 1175.6,674.655C1176.33,675.975 1177.31,676.962 1178.52,677.615C1179.73,678.268 1181.06,678.595 1182.5,678.595ZM1208.86,658.475C1211.47,658.475 1213.61,659.282 1215.26,660.895C1216.91,662.508 1217.74,664.848 1217.74,667.915L1217.74,680.715L1214.98,680.715L1214.98,668.235C1214.98,665.862 1214.39,664.048 1213.2,662.795C1212.01,661.542 1210.39,660.915 1208.34,660.915C1206.23,660.915 1204.55,661.582 1203.3,662.915C1202.05,664.248 1201.42,666.208 1201.42,668.795L1201.42,680.715L1198.62,680.715L1198.62,658.875L1201.42,658.875L1201.42,662.595C1202.11,661.262 1203.11,660.242 1204.42,659.535C1205.73,658.828 1207.21,658.475 1208.86,658.475ZM1226.74,662.755C1227.35,661.395 1228.29,660.342 1229.56,659.595C1230.83,658.848 1232.38,658.475 1234.22,658.475L1234.22,661.395L1233.46,661.395C1231.43,661.395 1229.81,661.942 1228.58,663.035C1227.35,664.128 1226.74,665.955 1226.74,668.515L1226.74,680.715L1223.94,680.715L1223.94,658.875L1226.74,658.875L1226.74,662.755ZM1239.82,654.755C1239.26,654.755 1238.78,654.555 1238.38,654.155C1237.98,653.755 1237.78,653.262 1237.78,652.675C1237.78,652.088 1237.98,651.602 1238.38,651.215C1238.78,650.828 1239.26,650.635 1239.82,650.635C1240.38,650.635 1240.86,650.828 1241.26,651.215C1241.66,651.602 1241.86,652.088 1241.86,652.675C1241.86,653.262 1241.66,653.755 1241.26,654.155C1240.86,654.555 1240.38,654.755 1239.82,654.755ZM1241.22,658.875L1241.22,680.715L1238.42,680.715L1238.42,658.875L1241.22,658.875ZM1255.1,681.035C1252.59,681.035 1250.55,680.455 1248.96,679.295C1247.37,678.135 1246.49,676.555 1246.3,674.555L1249.18,674.555C1249.31,675.782 1249.89,676.775 1250.92,677.535C1251.95,678.295 1253.33,678.675 1255.06,678.675C1256.58,678.675 1257.77,678.315 1258.64,677.595C1259.51,676.875 1259.94,675.982 1259.94,674.915C1259.94,674.168 1259.7,673.555 1259.22,673.075C1258.74,672.595 1258.13,672.215 1257.4,671.935C1256.67,671.655 1255.67,671.355 1254.42,671.035C1252.79,670.608 1251.47,670.182 1250.46,669.755C1249.45,669.328 1248.59,668.695 1247.88,667.855C1247.17,667.015 1246.82,665.888 1246.82,664.475C1246.82,663.408 1247.14,662.422 1247.78,661.515C1248.42,660.608 1249.33,659.888 1250.5,659.355C1251.67,658.822 1253.01,658.555 1254.5,658.555C1256.85,658.555 1258.74,659.148 1260.18,660.335C1261.62,661.522 1262.39,663.155 1262.5,665.235L1259.7,665.235C1259.62,663.955 1259.12,662.922 1258.2,662.135C1257.28,661.348 1256.02,660.955 1254.42,660.955C1253.01,660.955 1251.86,661.288 1250.98,661.955C1250.1,662.622 1249.66,663.448 1249.66,664.435C1249.66,665.288 1249.92,665.988 1250.44,666.535C1250.96,667.082 1251.61,667.508 1252.38,667.815C1253.15,668.122 1254.19,668.462 1255.5,668.835C1257.07,669.262 1258.33,669.675 1259.26,670.075C1260.19,670.475 1260.99,671.062 1261.66,671.835C1262.33,672.608 1262.67,673.635 1262.7,674.915C1262.7,676.088 1262.38,677.135 1261.74,678.055C1261.1,678.975 1260.21,679.702 1259.06,680.235C1257.91,680.768 1256.59,681.035 1255.1,681.035ZM1266.7,669.755C1266.7,667.515 1267.15,665.548 1268.04,663.855C1268.93,662.162 1270.17,660.855 1271.76,659.935C1273.35,659.015 1275.14,658.555 1277.14,658.555C1279.22,658.555 1281.01,659.035 1282.52,659.995C1284.03,660.955 1285.11,662.182 1285.78,663.675L1285.78,658.875L1288.58,658.875L1288.58,680.715L1285.78,680.715L1285.78,675.875C1285.09,677.368 1283.99,678.602 1282.48,679.575C1280.97,680.548 1279.18,681.035 1277.1,681.035C1275.13,681.035 1273.35,680.568 1271.76,679.635C1270.17,678.702 1268.93,677.382 1268.04,675.675C1267.15,673.968 1266.7,671.995 1266.7,669.755ZM1285.78,669.795C1285.78,668.035 1285.42,666.488 1284.7,665.155C1283.98,663.822 1283,662.795 1281.76,662.075C1280.52,661.355 1279.15,660.995 1277.66,660.995C1276.11,660.995 1274.73,661.342 1273.5,662.035C1272.27,662.728 1271.31,663.735 1270.6,665.055C1269.89,666.375 1269.54,667.942 1269.54,669.755C1269.54,671.542 1269.89,673.108 1270.6,674.455C1271.31,675.802 1272.27,676.828 1273.5,677.535C1274.73,678.242 1276.11,678.595 1277.66,678.595C1279.15,678.595 1280.52,678.235 1281.76,677.515C1283,676.795 1283.98,675.768 1284.7,674.435C1285.42,673.102 1285.78,671.555 1285.78,669.795Z" style="fill:rgb(25,35,77);"/>
    </g>
    <g transform="matrix(0.716608,0,0,0.716608,-227.119,-196.81)">
        <path d="M1555.57,674.075L1542.85,674.075L1540.41,680.715L1537.45,680.715L1547.65,653.115L1550.81,653.115L1560.97,680.715L1558.01,680.715L1555.57,674.075ZM1554.73,671.755L1549.21,656.635L1543.69,671.755L1554.73,671.755ZM1574.61,658.555C1576.66,658.555 1578.45,659.035 1579.97,659.995C1581.49,660.955 1582.58,662.168 1583.25,663.635L1583.25,658.875L1586.05,658.875L1586.05,681.275C1586.05,683.275 1585.62,685.048 1584.75,686.595C1583.88,688.142 1582.68,689.335 1581.13,690.175C1579.58,691.015 1577.82,691.435 1575.85,691.435C1573.05,691.435 1570.72,690.768 1568.87,689.435C1567.02,688.102 1565.86,686.288 1565.41,683.995L1568.17,683.995C1568.65,685.515 1569.56,686.728 1570.91,687.635C1572.26,688.542 1573.9,688.995 1575.85,688.995C1577.26,688.995 1578.53,688.695 1579.65,688.095C1580.77,687.495 1581.65,686.608 1582.29,685.435C1582.93,684.262 1583.25,682.875 1583.25,681.275L1583.25,675.875C1582.56,677.368 1581.46,678.602 1579.95,679.575C1578.44,680.548 1576.66,681.035 1574.61,681.035C1572.61,681.035 1570.82,680.568 1569.23,679.635C1567.64,678.702 1566.4,677.382 1565.51,675.675C1564.62,673.968 1564.17,671.995 1564.17,669.755C1564.17,667.515 1564.62,665.548 1565.51,663.855C1566.4,662.162 1567.64,660.855 1569.23,659.935C1570.82,659.015 1572.61,658.555 1574.61,658.555ZM1583.25,669.795C1583.25,668.035 1582.89,666.488 1582.17,665.155C1581.45,663.822 1580.47,662.795 1579.23,662.075C1577.99,661.355 1576.62,660.995 1575.13,660.995C1573.58,660.995 1572.2,661.342 1570.97,662.035C1569.74,662.728 1568.78,663.735 1568.07,665.055C1567.36,666.375 1567.01,667.942 1567.01,669.755C1567.01,671.542 1567.36,673.108 1568.07,674.455C1568.78,675.802 1569.74,676.828 1570.97,677.535C1572.2,678.242 1573.58,678.595 1575.13,678.595C1576.62,678.595 1577.99,678.235 1579.23,677.515C1580.47,676.795 1581.45,675.768 1582.17,674.435C1582.89,673.102 1583.25,671.555 1583.25,669.795ZM1611.37,658.875L1611.37,680.715L1608.57,680.715L1608.57,676.875C1607.93,678.235 1606.94,679.275 1605.61,679.995C1604.28,680.715 1602.78,681.075 1601.13,681.075C1598.52,681.075 1596.38,680.268 1594.73,678.655C1593.08,677.042 1592.25,674.702 1592.25,671.635L1592.25,658.875L1595.01,658.875L1595.01,671.315C1595.01,673.688 1595.6,675.502 1596.79,676.755C1597.98,678.008 1599.6,678.635 1601.65,678.635C1603.76,678.635 1605.44,677.968 1606.69,676.635C1607.94,675.302 1608.57,673.342 1608.57,670.755L1608.57,658.875L1611.37,658.875ZM1616.49,669.755C1616.49,667.515 1616.94,665.548 1617.83,663.855C1618.72,662.162 1619.96,660.855 1621.55,659.935C1623.14,659.015 1624.93,658.555 1626.93,658.555C1629.01,658.555 1630.8,659.035 1632.31,659.995C1633.82,660.955 1634.9,662.182 1635.57,663.675L1635.57,658.875L1638.37,658.875L1638.37,680.715L1635.57,680.715L1635.57,675.875C1634.88,677.368 1633.78,678.602 1632.27,679.575C1630.76,680.548 1628.97,681.035 1626.89,681.035C1624.92,681.035 1623.14,680.568 1621.55,679.635C1619.96,678.702 1618.72,677.382 1617.83,675.675C1616.94,673.968 1616.49,671.995 1616.49,669.755ZM1635.57,669.795C1635.57,668.035 1635.21,666.488 1634.49,665.155C1633.77,663.822 1632.79,662.795 1631.55,662.075C1630.31,661.355 1628.94,660.995 1627.45,660.995C1625.9,660.995 1624.52,661.342 1623.29,662.035C1622.06,662.728 1621.1,663.735 1620.39,665.055C1619.68,666.375 1619.33,667.942 1619.33,669.755C1619.33,671.542 1619.68,673.108 1620.39,674.455C1621.1,675.802 1622.06,676.828 1623.29,677.535C1624.52,678.242 1625.9,678.595 1627.45,678.595C1628.94,678.595 1630.31,678.235 1631.55,677.515C1632.79,676.795 1633.77,675.768 1634.49,674.435C1635.21,673.102 1635.57,671.555 1635.57,669.795Z" style="fill:rgb(25,35,77);"/>
    </g>
    <g transform="matrix(1.01475,0,0,1.01475,-5.39703,3.42302)">
        <g transform="matrix(0.706189,0,0,0.706189,116.947,125.299)">
            <path d="M0,126.142L0,93.244L-44.155,63.071L0,32.898L0,0L-92.3,63.071L0,126.142Z" style="fill:rgb(0,61,167);fill-rule:nonzero;"/>
        </g>
        <g transform="matrix(0.706189,0,0,0.706189,145.948,214.379)">
            <path d="M0,-126.142L0,-93.244L44.156,-63.071L0,-32.898L0,0L92.3,-63.071L0,-126.142Z" style="fill:rgb(0,61,167);fill-rule:nonzero;"/>
        </g>
    </g>
    <g transform="matrix(0.716608,0,0,0.716608,387.781,220.965)">
        <path d="M0,-153.595C-40.811,-153.595 -74.011,-119.143 -74.011,-76.798C-74.011,-34.452 -40.811,0 -0.001,0C40.81,0 74.01,-34.452 74.01,-76.798C74.01,-119.143 40.81,-153.595 0,-153.595M-0.001,-33.814C-22.842,-33.814 -41.424,-53.097 -41.424,-76.798C-41.424,-100.499 -22.841,-119.781 0,-119.781C22.841,-119.781 41.424,-100.499 41.424,-76.798C41.424,-53.097 22.84,-33.814 -0.001,-33.814" style="fill:rgb(66,182,73);fill-rule:nonzero;"/>
    </g>
    <g transform="matrix(0.716608,0,0,0.716608,646.311,169.534)">
        <path d="M0,71.77C40.811,71.77 74.011,39.574 74.011,0L41.424,0C41.424,22.15 22.841,40.17 0,40.17C-22.841,40.17 -41.424,22.15 -41.424,0L-74.01,0C-74.01,39.574 -40.81,71.77 0,71.77" style="fill:rgb(77,88,89);fill-rule:nonzero;"/>
    </g>
    <g transform="matrix(0,-0.716608,-0.716608,0,928.537,119.067)">
        <path d="M-83.479,-33.953C-115.907,-33.953 -142.195,-7.665 -142.195,24.763C-142.195,57.191 -115.907,83.479 -83.479,83.479C-41,83.479 24.763,24.763 24.763,24.763C24.763,24.763 -41,-33.953 -83.479,-33.953" style="fill:rgb(0,61,167);fill-rule:nonzero;"/>
    </g>
</svg>
