<?xml version="1.0" encoding="UTF-8" standalone="no"?>
<!DOCTYPE svg PUBLIC "-//W3C//DTD SVG 1.1//EN" "http://www.w3.org/Graphics/SVG/1.1/DTD/svg11.dtd">
<svg width="100%" height="100%" viewBox="0 0 1000 400" version="1.1" xmlns="http://www.w3.org/2000/svg" xmlns:xlink="http://www.w3.org/1999/xlink" xml:space="preserve" xmlns:serif="http://www.serif.com/" style="fill-rule:evenodd;clip-rule:evenodd;stroke-linejoin:round;stroke-miterlimit:2;">
    <g>
        <g transform="matrix(0.840303,0,0,0.840303,-318.949,-286.37)">
            <path d="M412.5,666.715C412.5,663.968 413.1,661.508 414.3,659.335C415.5,657.162 417.14,655.468 419.22,654.255C421.3,653.042 423.62,652.435 426.18,652.435C429.3,652.435 431.973,653.175 434.2,654.655C436.427,656.135 438.047,658.222 439.06,660.915L435.78,660.915C434.98,659.022 433.76,657.542 432.12,656.475C430.48,655.408 428.5,654.875 426.18,654.875C424.127,654.875 422.28,655.355 420.64,656.315C419,657.275 417.713,658.655 416.78,660.455C415.847,662.255 415.38,664.342 415.38,666.715C415.38,669.088 415.847,671.168 416.78,672.955C417.713,674.742 419,676.115 420.64,677.075C422.28,678.035 424.127,678.515 426.18,678.515C428.5,678.515 430.48,677.988 432.12,676.935C433.76,675.882 434.98,674.422 435.78,672.555L439.06,672.555C438.047,675.222 436.42,677.288 434.18,678.755C431.94,680.222 429.273,680.955 426.18,680.955C423.62,680.955 421.3,680.348 419.22,679.135C417.14,677.922 415.5,676.235 414.3,674.075C413.1,671.915 412.5,669.462 412.5,666.715ZM447.42,662.755C448.033,661.395 448.973,660.342 450.24,659.595C451.507,658.848 453.06,658.475 454.9,658.475L454.9,661.395L454.14,661.395C452.113,661.395 450.487,661.942 449.26,663.035C448.033,664.128 447.42,665.955 447.42,668.515L447.42,680.715L444.62,680.715L444.62,658.875L447.42,658.875L447.42,662.755ZM478.86,668.675C478.86,669.635 478.833,670.368 478.78,670.875L460.66,670.875C460.74,672.528 461.14,673.942 461.86,675.115C462.58,676.288 463.527,677.175 464.7,677.775C465.873,678.375 467.153,678.675 468.54,678.675C470.353,678.675 471.88,678.235 473.12,677.355C474.36,676.475 475.18,675.288 475.58,673.795L478.54,673.795C478.007,675.928 476.867,677.668 475.12,679.015C473.373,680.362 471.18,681.035 468.54,681.035C466.487,681.035 464.647,680.575 463.02,679.655C461.393,678.735 460.12,677.428 459.2,675.735C458.28,674.042 457.82,672.062 457.82,669.795C457.82,667.528 458.273,665.542 459.18,663.835C460.087,662.128 461.353,660.822 462.98,659.915C464.607,659.008 466.46,658.555 468.54,658.555C470.62,658.555 472.44,659.008 474,659.915C475.56,660.822 476.76,662.042 477.6,663.575C478.44,665.108 478.86,666.808 478.86,668.675ZM476.02,668.595C476.047,666.968 475.72,665.582 475.04,664.435C474.36,663.288 473.433,662.422 472.26,661.835C471.087,661.248 469.807,660.955 468.42,660.955C466.34,660.955 464.567,661.622 463.1,662.955C461.633,664.288 460.82,666.168 460.66,668.595L476.02,668.595ZM482.7,669.795C482.7,667.528 483.153,665.548 484.06,663.855C484.967,662.162 486.22,660.855 487.82,659.935C489.42,659.015 491.247,658.555 493.3,658.555C495.993,658.555 498.213,659.222 499.96,660.555C501.707,661.888 502.833,663.702 503.34,665.995L500.34,665.995C499.967,664.422 499.16,663.188 497.92,662.295C496.68,661.402 495.14,660.955 493.3,660.955C491.833,660.955 490.513,661.288 489.34,661.955C488.167,662.622 487.24,663.615 486.56,664.935C485.88,666.255 485.54,667.875 485.54,669.795C485.54,671.715 485.88,673.342 486.56,674.675C487.24,676.008 488.167,677.008 489.34,677.675C490.513,678.342 491.833,678.675 493.3,678.675C495.14,678.675 496.68,678.228 497.92,677.335C499.16,676.442 499.967,675.195 500.34,673.595L503.34,673.595C502.833,675.835 501.7,677.635 499.94,678.995C498.18,680.355 495.967,681.035 493.3,681.035C491.247,681.035 489.42,680.575 487.82,679.655C486.22,678.735 484.967,677.428 484.06,675.735C483.153,674.042 482.7,672.062 482.7,669.795ZM509.9,654.755C509.34,654.755 508.86,654.555 508.46,654.155C508.06,653.755 507.86,653.262 507.86,652.675C507.86,652.088 508.06,651.602 508.46,651.215C508.86,650.828 509.34,650.635 509.9,650.635C510.46,650.635 510.94,650.828 511.34,651.215C511.74,651.602 511.94,652.088 511.94,652.675C511.94,653.262 511.74,653.755 511.34,654.155C510.94,654.555 510.46,654.755 509.9,654.755ZM511.3,658.875L511.3,680.715L508.5,680.715L508.5,658.875L511.3,658.875ZM543.66,658.475C546.22,658.475 548.307,659.282 549.92,660.895C551.533,662.508 552.34,664.848 552.34,667.915L552.34,680.715L549.58,680.715L549.58,668.235C549.58,665.862 549.007,664.048 547.86,662.795C546.713,661.542 545.153,660.915 543.18,660.915C541.127,660.915 539.487,661.595 538.26,662.955C537.033,664.315 536.42,666.288 536.42,668.875L536.42,680.715L533.66,680.715L533.66,668.235C533.66,665.862 533.087,664.048 531.94,662.795C530.793,661.542 529.22,660.915 527.22,660.915C525.167,660.915 523.527,661.595 522.3,662.955C521.073,664.315 520.46,666.288 520.46,668.875L520.46,680.715L517.66,680.715L517.66,658.875L520.46,658.875L520.46,662.635C521.153,661.275 522.14,660.242 523.42,659.535C524.7,658.828 526.127,658.475 527.7,658.475C529.593,658.475 531.253,658.928 532.68,659.835C534.107,660.742 535.14,662.075 535.78,663.835C536.367,662.102 537.373,660.775 538.8,659.855C540.227,658.935 541.847,658.475 543.66,658.475ZM559.94,654.755C559.38,654.755 558.9,654.555 558.5,654.155C558.1,653.755 557.9,653.262 557.9,652.675C557.9,652.088 558.1,651.602 558.5,651.215C558.9,650.828 559.38,650.635 559.94,650.635C560.5,650.635 560.98,650.828 561.38,651.215C561.78,651.602 561.98,652.088 561.98,652.675C561.98,653.262 561.78,653.755 561.38,654.155C560.98,654.555 560.5,654.755 559.94,654.755ZM561.34,658.875L561.34,680.715L558.54,680.715L558.54,658.875L561.34,658.875ZM587.46,668.675C587.46,669.635 587.433,670.368 587.38,670.875L569.26,670.875C569.34,672.528 569.74,673.942 570.46,675.115C571.18,676.288 572.127,677.175 573.3,677.775C574.473,678.375 575.753,678.675 577.14,678.675C578.953,678.675 580.48,678.235 581.72,677.355C582.96,676.475 583.78,675.288 584.18,673.795L587.14,673.795C586.607,675.928 585.467,677.668 583.72,679.015C581.973,680.362 579.78,681.035 577.14,681.035C575.087,681.035 573.247,680.575 571.62,679.655C569.993,678.735 568.72,677.428 567.8,675.735C566.88,674.042 566.42,672.062 566.42,669.795C566.42,667.528 566.873,665.542 567.78,663.835C568.687,662.128 569.953,660.822 571.58,659.915C573.207,659.008 575.06,658.555 577.14,658.555C579.22,658.555 581.04,659.008 582.6,659.915C584.16,660.822 585.36,662.042 586.2,663.575C587.04,665.108 587.46,666.808 587.46,668.675ZM584.62,668.595C584.647,666.968 584.32,665.582 583.64,664.435C582.96,663.288 582.033,662.422 580.86,661.835C579.687,661.248 578.407,660.955 577.02,660.955C574.94,660.955 573.167,661.622 571.7,662.955C570.233,664.288 569.42,666.168 569.26,668.595L584.62,668.595ZM602.82,658.475C605.433,658.475 607.567,659.282 609.22,660.895C610.873,662.508 611.7,664.848 611.7,667.915L611.7,680.715L608.94,680.715L608.94,668.235C608.94,665.862 608.347,664.048 607.16,662.795C605.973,661.542 604.353,660.915 602.3,660.915C600.193,660.915 598.513,661.582 597.26,662.915C596.007,664.248 595.38,666.208 595.38,668.795L595.38,680.715L592.58,680.715L592.58,658.875L595.38,658.875L595.38,662.595C596.073,661.262 597.073,660.242 598.38,659.535C599.687,658.828 601.167,658.475 602.82,658.475ZM621.54,661.235L621.54,674.795C621.54,676.128 621.793,677.048 622.3,677.555C622.807,678.062 623.7,678.315 624.98,678.315L627.54,678.315L627.54,680.715L624.54,680.715C622.567,680.715 621.1,680.255 620.14,679.335C619.18,678.415 618.7,676.902 618.7,674.795L618.7,661.235L615.66,661.235L615.66,658.875L618.7,658.875L618.7,653.395L621.54,653.395L621.54,658.875L627.54,658.875L627.54,661.235L621.54,661.235ZM641.7,681.035C639.647,681.035 637.8,680.575 636.16,679.655C634.52,678.735 633.227,677.428 632.28,675.735C631.333,674.042 630.86,672.062 630.86,669.795C630.86,667.528 631.34,665.548 632.3,663.855C633.26,662.162 634.567,660.855 636.22,659.935C637.873,659.015 639.727,658.555 641.78,658.555C643.833,658.555 645.693,659.015 647.36,659.935C649.027,660.855 650.333,662.162 651.28,663.855C652.227,665.548 652.7,667.528 652.7,669.795C652.7,672.035 652.22,674.008 651.26,675.715C650.3,677.422 648.98,678.735 647.3,679.655C645.62,680.575 643.753,681.035 641.7,681.035ZM641.7,678.595C643.14,678.595 644.473,678.268 645.7,677.615C646.927,676.962 647.92,675.975 648.68,674.655C649.44,673.335 649.82,671.715 649.82,669.795C649.82,667.875 649.447,666.255 648.7,664.935C647.953,663.615 646.967,662.628 645.74,661.975C644.513,661.322 643.18,660.995 641.74,660.995C640.3,660.995 638.967,661.322 637.74,661.975C636.513,662.628 635.533,663.615 634.8,664.935C634.067,666.255 633.7,667.875 633.7,669.795C633.7,671.715 634.067,673.335 634.8,674.655C635.533,675.975 636.507,676.962 637.72,677.615C638.933,678.268 640.26,678.595 641.7,678.595Z" style="fill:rgb(25,35,77);"/>
        </g>
        <g transform="matrix(0.840303,0,0,0.840303,-378.235,-285.983)">
            <path d="M963.541,652.755C966.634,652.755 969.287,653.315 971.501,654.435C973.714,655.555 975.407,657.168 976.581,659.275C977.754,661.382 978.341,663.888 978.341,666.795C978.341,669.675 977.754,672.162 976.581,674.255C975.407,676.348 973.714,677.948 971.501,679.055C969.287,680.162 966.634,680.715 963.541,680.715L955.261,680.715L955.261,652.755L963.541,652.755ZM963.541,678.395C967.434,678.395 970.401,677.375 972.441,675.335C974.481,673.295 975.501,670.448 975.501,666.795C975.501,663.115 974.481,660.242 972.441,658.175C970.401,656.108 967.434,655.075 963.541,655.075L958.061,655.075L958.061,678.395L963.541,678.395ZM984.901,654.755C984.341,654.755 983.861,654.555 983.461,654.155C983.061,653.755 982.861,653.262 982.861,652.675C982.861,652.088 983.061,651.602 983.461,651.215C983.861,650.828 984.341,650.635 984.901,650.635C985.461,650.635 985.941,650.828 986.341,651.215C986.741,651.602 986.941,652.088 986.941,652.675C986.941,653.262 986.741,653.755 986.341,654.155C985.941,654.555 985.461,654.755 984.901,654.755ZM986.301,658.875L986.301,680.715L983.501,680.715L983.501,658.875L986.301,658.875ZM995.461,662.755C996.074,661.395 997.014,660.342 998.281,659.595C999.547,658.848 1001.1,658.475 1002.94,658.475L1002.94,661.395L1002.18,661.395C1000.15,661.395 998.527,661.942 997.301,663.035C996.074,664.128 995.461,665.955 995.461,668.515L995.461,680.715L992.661,680.715L992.661,658.875L995.461,658.875L995.461,662.755ZM1026.9,668.675C1026.9,669.635 1026.87,670.368 1026.82,670.875L1008.7,670.875C1008.78,672.528 1009.18,673.942 1009.9,675.115C1010.62,676.288 1011.57,677.175 1012.74,677.775C1013.91,678.375 1015.19,678.675 1016.58,678.675C1018.39,678.675 1019.92,678.235 1021.16,677.355C1022.4,676.475 1023.22,675.288 1023.62,673.795L1026.58,673.795C1026.05,675.928 1024.91,677.668 1023.16,679.015C1021.41,680.362 1019.22,681.035 1016.58,681.035C1014.53,681.035 1012.69,680.575 1011.06,679.655C1009.43,678.735 1008.16,677.428 1007.24,675.735C1006.32,674.042 1005.86,672.062 1005.86,669.795C1005.86,667.528 1006.31,665.542 1007.22,663.835C1008.13,662.128 1009.39,660.822 1011.02,659.915C1012.65,659.008 1014.5,658.555 1016.58,658.555C1018.66,658.555 1020.48,659.008 1022.04,659.915C1023.6,660.822 1024.8,662.042 1025.64,663.575C1026.48,665.108 1026.9,666.808 1026.9,668.675ZM1024.06,668.595C1024.09,666.968 1023.76,665.582 1023.08,664.435C1022.4,663.288 1021.47,662.422 1020.3,661.835C1019.13,661.248 1017.85,660.955 1016.46,660.955C1014.38,660.955 1012.61,661.622 1011.14,662.955C1009.67,664.288 1008.86,666.168 1008.7,668.595L1024.06,668.595ZM1030.74,669.795C1030.74,667.528 1031.19,665.548 1032.1,663.855C1033.01,662.162 1034.26,660.855 1035.86,659.935C1037.46,659.015 1039.29,658.555 1041.34,658.555C1044.03,658.555 1046.25,659.222 1048,660.555C1049.75,661.888 1050.87,663.702 1051.38,665.995L1048.38,665.995C1048.01,664.422 1047.2,663.188 1045.96,662.295C1044.72,661.402 1043.18,660.955 1041.34,660.955C1039.87,660.955 1038.55,661.288 1037.38,661.955C1036.21,662.622 1035.28,663.615 1034.6,664.935C1033.92,666.255 1033.58,667.875 1033.58,669.795C1033.58,671.715 1033.92,673.342 1034.6,674.675C1035.28,676.008 1036.21,677.008 1037.38,677.675C1038.55,678.342 1039.87,678.675 1041.34,678.675C1043.18,678.675 1044.72,678.228 1045.96,677.335C1047.2,676.442 1048.01,675.195 1048.38,673.595L1051.38,673.595C1050.87,675.835 1049.74,677.635 1047.98,678.995C1046.22,680.355 1044.01,681.035 1041.34,681.035C1039.29,681.035 1037.46,680.575 1035.86,679.655C1034.26,678.735 1033.01,677.428 1032.1,675.735C1031.19,674.042 1030.74,672.062 1030.74,669.795ZM1055.26,669.795C1055.26,667.528 1055.71,665.548 1056.62,663.855C1057.53,662.162 1058.78,660.855 1060.38,659.935C1061.98,659.015 1063.81,658.555 1065.86,658.555C1068.55,658.555 1070.77,659.222 1072.52,660.555C1074.27,661.888 1075.39,663.702 1075.9,665.995L1072.9,665.995C1072.53,664.422 1071.72,663.188 1070.48,662.295C1069.24,661.402 1067.7,660.955 1065.86,660.955C1064.39,660.955 1063.07,661.288 1061.9,661.955C1060.73,662.622 1059.8,663.615 1059.12,664.935C1058.44,666.255 1058.1,667.875 1058.1,669.795C1058.1,671.715 1058.44,673.342 1059.12,674.675C1059.8,676.008 1060.73,677.008 1061.9,677.675C1063.07,678.342 1064.39,678.675 1065.86,678.675C1067.7,678.675 1069.24,678.228 1070.48,677.335C1071.72,676.442 1072.53,675.195 1072.9,673.595L1075.9,673.595C1075.39,675.835 1074.26,677.635 1072.5,678.995C1070.74,680.355 1068.53,681.035 1065.86,681.035C1063.81,681.035 1061.98,680.575 1060.38,679.655C1058.78,678.735 1057.53,677.428 1056.62,675.735C1055.71,674.042 1055.26,672.062 1055.26,669.795ZM1082.46,654.755C1081.9,654.755 1081.42,654.555 1081.02,654.155C1080.62,653.755 1080.42,653.262 1080.42,652.675C1080.42,652.088 1080.62,651.602 1081.02,651.215C1081.42,650.828 1081.9,650.635 1082.46,650.635C1083.02,650.635 1083.5,650.828 1083.9,651.215C1084.3,651.602 1084.5,652.088 1084.5,652.675C1084.5,653.262 1084.3,653.755 1083.9,654.155C1083.5,654.555 1083.02,654.755 1082.46,654.755ZM1083.86,658.875L1083.86,680.715L1081.06,680.715L1081.06,658.875L1083.86,658.875ZM1099.78,681.035C1097.73,681.035 1095.88,680.575 1094.24,679.655C1092.6,678.735 1091.31,677.428 1090.36,675.735C1089.41,674.042 1088.94,672.062 1088.94,669.795C1088.94,667.528 1089.42,665.548 1090.38,663.855C1091.34,662.162 1092.65,660.855 1094.3,659.935C1095.95,659.015 1097.81,658.555 1099.86,658.555C1101.91,658.555 1103.77,659.015 1105.44,659.935C1107.11,660.855 1108.41,662.162 1109.36,663.855C1110.31,665.548 1110.78,667.528 1110.78,669.795C1110.78,672.035 1110.3,674.008 1109.34,675.715C1108.38,677.422 1107.06,678.735 1105.38,679.655C1103.7,680.575 1101.83,681.035 1099.78,681.035ZM1099.78,678.595C1101.22,678.595 1102.55,678.268 1103.78,677.615C1105.01,676.962 1106,675.975 1106.76,674.655C1107.52,673.335 1107.9,671.715 1107.9,669.795C1107.9,667.875 1107.53,666.255 1106.78,664.935C1106.03,663.615 1105.05,662.628 1103.82,661.975C1102.59,661.322 1101.26,660.995 1099.82,660.995C1098.38,660.995 1097.05,661.322 1095.82,661.975C1094.59,662.628 1093.61,663.615 1092.88,664.935C1092.15,666.255 1091.78,667.875 1091.78,669.795C1091.78,671.715 1092.15,673.335 1092.88,674.655C1093.61,675.975 1094.59,676.962 1095.8,677.615C1097.01,678.268 1098.34,678.595 1099.78,678.595ZM1103.62,652.235L1095.42,656.995L1095.42,654.835L1103.62,649.715L1103.62,652.235ZM1126.14,658.475C1128.75,658.475 1130.89,659.282 1132.54,660.895C1134.19,662.508 1135.02,664.848 1135.02,667.915L1135.02,680.715L1132.26,680.715L1132.26,668.235C1132.26,665.862 1131.67,664.048 1130.48,662.795C1129.29,661.542 1127.67,660.915 1125.62,660.915C1123.51,660.915 1121.83,661.582 1120.58,662.915C1119.33,664.248 1118.7,666.208 1118.7,668.795L1118.7,680.715L1115.9,680.715L1115.9,658.875L1118.7,658.875L1118.7,662.595C1119.39,661.262 1120.39,660.242 1121.7,659.535C1123.01,658.828 1124.49,658.475 1126.14,658.475Z" style="fill:rgb(25,35,77);"/>
        </g>
        <g transform="matrix(0.840303,0,0,0.840303,420.562,118.665)">
            <path d="M-1.984,116.581L77.139,42.68L95.794,67.519L153.201,11L109.429,11L109.429,-11L191.053,-11L191.053,71.95L169.053,71.95L169.053,26.266L93.306,100.841L74.257,75.476L30.247,116.581L-1.984,116.581Z" style="fill:rgb(241,94,42);"/>
        </g>
        <g transform="matrix(0.840303,0,0,0.840303,-438.429,-290.437)">
            <path d="M1463.42,653.115L1463.42,680.715L1460.62,680.715L1460.62,658.675L1450.78,680.715L1448.74,680.715L1438.9,658.755L1438.9,680.715L1436.1,680.715L1436.1,653.115L1439.06,653.115L1449.74,677.035L1460.42,653.115L1463.42,653.115ZM1489.54,668.675C1489.54,669.635 1489.52,670.368 1489.46,670.875L1471.34,670.875C1471.42,672.528 1471.82,673.942 1472.54,675.115C1473.26,676.288 1474.21,677.175 1475.38,677.775C1476.56,678.375 1477.84,678.675 1479.22,678.675C1481.04,678.675 1482.56,678.235 1483.8,677.355C1485.04,676.475 1485.86,675.288 1486.26,673.795L1489.22,673.795C1488.69,675.928 1487.55,677.668 1485.8,679.015C1484.06,680.362 1481.86,681.035 1479.22,681.035C1477.17,681.035 1475.33,680.575 1473.7,679.655C1472.08,678.735 1470.8,677.428 1469.88,675.735C1468.96,674.042 1468.5,672.062 1468.5,669.795C1468.5,667.528 1468.95,665.542 1469.86,663.835C1470.77,662.128 1472.04,660.822 1473.66,659.915C1475.29,659.008 1477.14,658.555 1479.22,658.555C1481.3,658.555 1483.12,659.008 1484.68,659.915C1486.24,660.822 1487.44,662.042 1488.28,663.575C1489.12,665.108 1489.54,666.808 1489.54,668.675ZM1486.7,668.595C1486.73,666.968 1486.4,665.582 1485.72,664.435C1485.04,663.288 1484.12,662.422 1482.94,661.835C1481.77,661.248 1480.49,660.955 1479.1,660.955C1477.02,660.955 1475.25,661.622 1473.78,662.955C1472.32,664.288 1471.5,666.168 1471.34,668.595L1486.7,668.595ZM1498.3,661.235L1498.3,674.795C1498.3,676.128 1498.56,677.048 1499.06,677.555C1499.57,678.062 1500.46,678.315 1501.74,678.315L1504.3,678.315L1504.3,680.715L1501.3,680.715C1499.33,680.715 1497.86,680.255 1496.9,679.335C1495.94,678.415 1495.46,676.902 1495.46,674.795L1495.46,661.235L1492.42,661.235L1492.42,658.875L1495.46,658.875L1495.46,653.395L1498.3,653.395L1498.3,658.875L1504.3,658.875L1504.3,661.235L1498.3,661.235ZM1518.46,681.035C1516.41,681.035 1514.56,680.575 1512.92,679.655C1511.28,678.735 1509.99,677.428 1509.04,675.735C1508.1,674.042 1507.62,672.062 1507.62,669.795C1507.62,667.528 1508.1,665.548 1509.06,663.855C1510.02,662.162 1511.33,660.855 1512.98,659.935C1514.63,659.015 1516.49,658.555 1518.54,658.555C1520.6,658.555 1522.45,659.015 1524.12,659.935C1525.79,660.855 1527.1,662.162 1528.04,663.855C1528.99,665.548 1529.46,667.528 1529.46,669.795C1529.46,672.035 1528.98,674.008 1528.02,675.715C1527.06,677.422 1525.74,678.735 1524.06,679.655C1522.38,680.575 1520.52,681.035 1518.46,681.035ZM1518.46,678.595C1519.9,678.595 1521.24,678.268 1522.46,677.615C1523.69,676.962 1524.68,675.975 1525.44,674.655C1526.2,673.335 1526.58,671.715 1526.58,669.795C1526.58,667.875 1526.21,666.255 1525.46,664.935C1524.71,663.615 1523.73,662.628 1522.5,661.975C1521.28,661.322 1519.94,660.995 1518.5,660.995C1517.06,660.995 1515.73,661.322 1514.5,661.975C1513.28,662.628 1512.3,663.615 1511.56,664.935C1510.83,666.255 1510.46,667.875 1510.46,669.795C1510.46,671.715 1510.83,673.335 1511.56,674.655C1512.3,675.975 1513.27,676.962 1514.48,677.615C1515.69,678.268 1517.02,678.595 1518.46,678.595ZM1533.3,669.755C1533.3,667.515 1533.76,665.548 1534.66,663.855C1535.57,662.162 1536.82,660.855 1538.4,659.935C1539.99,659.015 1541.78,658.555 1543.78,658.555C1545.7,658.555 1547.43,659.022 1548.98,659.955C1550.53,660.888 1551.66,662.102 1552.38,663.595L1552.38,651.115L1555.18,651.115L1555.18,680.715L1552.38,680.715L1552.38,675.835C1551.72,677.355 1550.62,678.602 1549.1,679.575C1547.58,680.548 1545.8,681.035 1543.74,681.035C1541.74,681.035 1539.95,680.568 1538.36,679.635C1536.78,678.702 1535.54,677.382 1534.64,675.675C1533.75,673.968 1533.3,671.995 1533.3,669.755ZM1552.38,669.795C1552.38,668.035 1552.02,666.488 1551.3,665.155C1550.58,663.822 1549.6,662.795 1548.36,662.075C1547.12,661.355 1545.76,660.995 1544.26,660.995C1542.72,660.995 1541.33,661.342 1540.1,662.035C1538.88,662.728 1537.91,663.735 1537.2,665.055C1536.5,666.375 1536.14,667.942 1536.14,669.755C1536.14,671.542 1536.5,673.108 1537.2,674.455C1537.91,675.802 1538.88,676.828 1540.1,677.535C1541.33,678.242 1542.72,678.595 1544.26,678.595C1545.76,678.595 1547.12,678.235 1548.36,677.515C1549.6,676.795 1550.58,675.768 1551.3,674.435C1552.02,673.102 1552.38,671.555 1552.38,669.795ZM1571.14,681.035C1569.09,681.035 1567.24,680.575 1565.6,679.655C1563.96,678.735 1562.67,677.428 1561.72,675.735C1560.78,674.042 1560.3,672.062 1560.3,669.795C1560.3,667.528 1560.78,665.548 1561.74,663.855C1562.7,662.162 1564.01,660.855 1565.66,659.935C1567.32,659.015 1569.17,658.555 1571.22,658.555C1573.28,658.555 1575.13,659.015 1576.8,659.935C1578.47,660.855 1579.78,662.162 1580.72,663.855C1581.67,665.548 1582.14,667.528 1582.14,669.795C1582.14,672.035 1581.66,674.008 1580.7,675.715C1579.74,677.422 1578.42,678.735 1576.74,679.655C1575.06,680.575 1573.19,681.035 1571.14,681.035ZM1571.14,678.595C1572.58,678.595 1573.91,678.268 1575.14,677.615C1576.37,676.962 1577.36,675.975 1578.12,674.655C1578.88,673.335 1579.26,671.715 1579.26,669.795C1579.26,667.875 1578.89,666.255 1578.14,664.935C1577.39,663.615 1576.41,662.628 1575.18,661.975C1573.95,661.322 1572.62,660.995 1571.18,660.995C1569.74,660.995 1568.41,661.322 1567.18,661.975C1565.95,662.628 1564.98,663.615 1564.24,664.935C1563.51,666.255 1563.14,667.875 1563.14,669.795C1563.14,671.715 1563.51,673.335 1564.24,674.655C1564.98,675.975 1565.95,676.962 1567.16,677.615C1568.38,678.268 1569.7,678.595 1571.14,678.595ZM1590.06,651.115L1590.06,680.715L1587.26,680.715L1587.26,651.115L1590.06,651.115ZM1605.98,681.035C1603.93,681.035 1602.08,680.575 1600.44,679.655C1598.8,678.735 1597.51,677.428 1596.56,675.735C1595.62,674.042 1595.14,672.062 1595.14,669.795C1595.14,667.528 1595.62,665.548 1596.58,663.855C1597.54,662.162 1598.85,660.855 1600.5,659.935C1602.15,659.015 1604.01,658.555 1606.06,658.555C1608.12,658.555 1609.98,659.015 1611.64,659.935C1613.31,660.855 1614.62,662.162 1615.56,663.855C1616.51,665.548 1616.98,667.528 1616.98,669.795C1616.98,672.035 1616.5,674.008 1615.54,675.715C1614.58,677.422 1613.26,678.735 1611.58,679.655C1609.9,680.575 1608.04,681.035 1605.98,681.035ZM1605.98,678.595C1607.42,678.595 1608.76,678.268 1609.98,677.615C1611.21,676.962 1612.2,675.975 1612.96,674.655C1613.72,673.335 1614.1,671.715 1614.1,669.795C1614.1,667.875 1613.73,666.255 1612.98,664.935C1612.24,663.615 1611.25,662.628 1610.02,661.975C1608.8,661.322 1607.46,660.995 1606.02,660.995C1604.58,660.995 1603.25,661.322 1602.02,661.975C1600.8,662.628 1599.82,663.615 1599.08,664.935C1598.35,666.255 1597.98,667.875 1597.98,669.795C1597.98,671.715 1598.35,673.335 1599.08,674.655C1599.82,675.975 1600.79,676.962 1602,677.615C1603.22,678.268 1604.54,678.595 1605.98,678.595ZM1631.26,658.555C1633.32,658.555 1635.1,659.035 1636.62,659.995C1638.14,660.955 1639.24,662.168 1639.9,663.635L1639.9,658.875L1642.7,658.875L1642.7,681.275C1642.7,683.275 1642.27,685.048 1641.4,686.595C1640.54,688.142 1639.33,689.335 1637.78,690.175C1636.24,691.015 1634.48,691.435 1632.5,691.435C1629.7,691.435 1627.38,690.768 1625.52,689.435C1623.67,688.102 1622.52,686.288 1622.06,683.995L1624.82,683.995C1625.3,685.515 1626.22,686.728 1627.56,687.635C1628.91,688.542 1630.56,688.995 1632.5,688.995C1633.91,688.995 1635.18,688.695 1636.3,688.095C1637.42,687.495 1638.3,686.608 1638.94,685.435C1639.58,684.262 1639.9,682.875 1639.9,681.275L1639.9,675.875C1639.21,677.368 1638.11,678.602 1636.6,679.575C1635.1,680.548 1633.32,681.035 1631.26,681.035C1629.26,681.035 1627.47,680.568 1625.88,679.635C1624.3,678.702 1623.06,677.382 1622.16,675.675C1621.27,673.968 1620.82,671.995 1620.82,669.755C1620.82,667.515 1621.27,665.548 1622.16,663.855C1623.06,662.162 1624.3,660.855 1625.88,659.935C1627.47,659.015 1629.26,658.555 1631.26,658.555ZM1639.9,669.795C1639.9,668.035 1639.54,666.488 1638.82,665.155C1638.1,663.822 1637.12,662.795 1635.88,662.075C1634.64,661.355 1633.28,660.995 1631.78,660.995C1630.24,660.995 1628.85,661.342 1627.62,662.035C1626.39,662.728 1625.43,663.735 1624.72,665.055C1624.02,666.375 1623.66,667.942 1623.66,669.755C1623.66,671.542 1624.02,673.108 1624.72,674.455C1625.43,675.802 1626.39,676.828 1627.62,677.535C1628.85,678.242 1630.24,678.595 1631.78,678.595C1633.28,678.595 1634.64,678.235 1635.88,677.515C1637.12,676.795 1638.1,675.768 1638.82,674.435C1639.54,673.102 1639.9,671.555 1639.9,669.795ZM1651.9,658.875L1651.9,680.715L1649.1,680.715L1649.1,658.875L1651.9,658.875ZM1654.18,652.435L1645.98,657.195L1645.98,655.035L1654.18,649.915L1654.18,652.435ZM1656.98,669.755C1656.98,667.515 1657.43,665.548 1658.32,663.855C1659.22,662.162 1660.45,660.855 1662.04,659.935C1663.63,659.015 1665.42,658.555 1667.42,658.555C1669.5,658.555 1671.3,659.035 1672.8,659.995C1674.31,660.955 1675.39,662.182 1676.06,663.675L1676.06,658.875L1678.86,658.875L1678.86,680.715L1676.06,680.715L1676.06,675.875C1675.37,677.368 1674.27,678.602 1672.76,679.575C1671.26,680.548 1669.46,681.035 1667.38,681.035C1665.41,681.035 1663.63,680.568 1662.04,679.635C1660.45,678.702 1659.22,677.382 1658.32,675.675C1657.43,673.968 1656.98,671.995 1656.98,669.755ZM1676.06,669.795C1676.06,668.035 1675.7,666.488 1674.98,665.155C1674.26,663.822 1673.28,662.795 1672.04,662.075C1670.8,661.355 1669.43,660.995 1667.94,660.995C1666.39,660.995 1665.01,661.342 1663.78,662.035C1662.56,662.728 1661.59,663.735 1660.88,665.055C1660.17,666.375 1659.82,667.942 1659.82,669.755C1659.82,671.542 1660.17,673.108 1660.88,674.455C1661.59,675.802 1662.56,676.828 1663.78,677.535C1665.01,678.242 1666.39,678.595 1667.94,678.595C1669.43,678.595 1670.8,678.235 1672.04,677.515C1673.28,676.795 1674.26,675.768 1674.98,674.435C1675.7,673.102 1676.06,671.555 1676.06,669.795Z" style="fill:rgb(25,35,77);"/>
        </g>
        <g transform="matrix(0.840303,0,0,0.840303,75.2109,109.422)">
            <path d="M12.5,127.581L-12.5,127.581L-12.5,88.282L12.5,88.282L12.5,127.581ZM54.854,127.581L29.854,127.581L29.854,58.855L54.854,58.855L54.854,127.581ZM97.209,127.581L72.209,127.581L72.209,29.428L97.209,29.428L97.209,127.581ZM139.563,127.581L114.563,127.581L114.563,0L139.563,0L139.563,127.581Z" style="fill:rgb(241,94,42);"/>
        </g>
        <g transform="matrix(0.840303,0,0,0.840303,922.196,118.666)">
            <path d="M-0,94.581L-0,116.581L-123.45,116.581L-123.45,94.581L-0,94.581ZM-0,59.387L0,81.387L-123.45,81.387L-123.45,59.387L-0,59.387ZM-0,24.194L0,46.194L-123.45,46.194L-123.45,24.194L-0,24.194ZM0,-11L0,11L-123.45,11L-123.45,-11L0,-11Z" style="fill:rgb(241,94,42);"/>
        </g>
    </g>
</svg>
