<?xml version="1.0" encoding="UTF-8" standalone="no"?>
<!DOCTYPE svg PUBLIC "-//W3C//DTD SVG 1.1//EN" "http://www.w3.org/Graphics/SVG/1.1/DTD/svg11.dtd">
<svg width="100%" height="100%" viewBox="0 0 1000 400" version="1.1" xmlns="http://www.w3.org/2000/svg" xmlns:xlink="http://www.w3.org/1999/xlink" xml:space="preserve" xmlns:serif="http://www.serif.com/" style="fill-rule:evenodd;clip-rule:evenodd;stroke-linejoin:round;stroke-miterlimit:2;">
    <g transform="matrix(0.986098,0,0,0.986098,268.466,272.15)">
        <path d="M0,-146.335L-146.336,-146.335L-146.336,-97.556L-47.171,-97.556C-46.274,-97.556 -45.773,-96.523 -46.327,-95.819L-82.002,-50.493C-82.854,-49.411 -84.156,-48.778 -85.533,-48.778L-146.336,-48.778L-146.336,0L-117.363,0C-115.982,0 -114.677,-0.633 -113.824,-1.718L-78.134,-47.064C-77.282,-48.146 -75.98,-48.778 -74.603,-48.778L0,-48.778L0,-97.556L-36.181,-97.556C-37.077,-97.556 -37.579,-98.59 -37.024,-99.295L0,-146.335Z" style="fill:rgb(241,94,42);fill-rule:nonzero;"/>
    </g>
    <g transform="matrix(0.986098,0,0,0.986098,331.03,251.89)">
        <path d="M0,-105.243L0,-14.952L52.694,-14.952L52.694,0L-15.387,0L-15.387,-105.243L0,-105.243ZM90.871,-105.243L90.871,-0L75.483,-0L75.483,-105.243L90.871,-105.243ZM197.699,-31.681L197.419,-105.243L212.806,-105.243L212.806,3.629L212.516,3.629L135.881,-72.457L136.16,-0L120.628,-0L120.628,-108.726L121.208,-108.726L197.699,-31.681ZM294.916,-34.9L347.95,-108.872L348.095,-108.872L348.095,-0L332.708,-0L332.708,-64.667L294.82,-10.887L294.53,-10.887L257.659,-62.074L257.659,-0L242.707,-0L242.707,-108.872L242.852,-108.872L294.916,-34.9ZM393.241,-45.436L393.241,-14.952L448.838,-14.952L448.838,-0L377.854,-0L377.854,-105.243L446.806,-105.243L446.806,-90.436L393.241,-90.436L393.241,-60.387L440.999,-60.387L440.999,-45.436L393.241,-45.436ZM552.485,-0L532.597,-0L506.025,-40.903L481.79,-0L462.774,-0L497.35,-54.255L464.226,-105.243L483.823,-105.243L509.324,-66.154L532.452,-105.243L551.033,-105.243L517.72,-53.285L552.485,-0Z" style="fill:rgb(0,13,29);"/>
    </g>
</svg>
