<?xml version="1.0" encoding="UTF-8" standalone="no"?>
<!DOCTYPE svg PUBLIC "-//W3C//DTD SVG 1.1//EN" "http://www.w3.org/Graphics/SVG/1.1/DTD/svg11.dtd">
<svg width="100%" height="100%" viewBox="0 0 1000 400" version="1.1" xmlns="http://www.w3.org/2000/svg" xmlns:xlink="http://www.w3.org/1999/xlink" xml:space="preserve" xmlns:serif="http://www.serif.com/" style="fill-rule:evenodd;clip-rule:evenodd;stroke-linejoin:round;stroke-miterlimit:2;">
    <g transform="matrix(0.716608,0,0,0.716608,-230.723,-196.81)">
        <g>
            <g transform="matrix(1.71293,0,0,1.71293,1098.68,458.366)">
                <path d="M16.919,69.402C13.254,69.4 9.619,69.778 5.567,70.831C1.598,71.864 -2.532,74.105 -7.067,77.671C-7.248,77.814 -7.483,77.893 -7.723,77.893C-7.822,77.893 -7.921,77.879 -8.02,77.852L-8.021,77.852C-8.388,77.749 -8.641,77.472 -8.703,77.154C-8.99,75.699 -8.623,73.837 -8.287,72.196C-8.21,71.819 -8.135,71.458 -8.075,71.118C-7.704,69.067 -6.259,67.061 -3.742,65.184C-2.94,64.586 -2.05,64.12 -1.188,63.671C-0.464,63.294 0.221,62.938 0.837,62.507C1.214,62.243 1.549,61.935 1.873,61.637C1.929,61.585 1.986,61.533 2.043,61.481C1.243,61.174 0.262,61.117 -0.693,61.05C-0.961,61.031 -1.227,61.012 -1.486,60.988C-4.469,60.725 -7.4,60.485 -10.395,60.524C-14.479,60.57 -18.322,61.354 -23.247,63.139C-23.523,63.238 -23.84,63.219 -24.098,63.094L-24.1,63.093C-24.396,62.945 -24.578,62.682 -24.609,62.397C-24.776,60.9 -24.064,59.238 -23.417,57.775C-23.296,57.502 -23.179,57.236 -23.074,56.984L-22.892,56.544C-22.313,55.14 -21.709,53.691 -20.592,52.427C-20.041,51.803 -19.565,51.29 -19.064,50.839C-29.402,51.034 -39.776,51.429 -49.896,51.814C-58.48,52.141 -67.356,52.478 -76.074,52.689C-77.719,52.729 -79.416,52.786 -81.147,52.846C-90.481,53.164 -101.061,53.517 -109.809,51.197C-119.187,48.71 -127.174,42.489 -132.299,33.676C-138.555,22.914 -139.632,10.06 -135.127,0.129C-133.06,-4.429 -124.606,-13.223 -111.681,-11.235C-111.482,-11.204 -111.309,-11.123 -111.174,-11.009C-105.513,-11.066 -100.456,-11.592 -94.68,-13.68C-90.87,-15.059 -87.052,-17.652 -83.002,-21.6C-82.772,-21.824 -82.417,-21.933 -82.067,-21.869L-82.066,-21.869C-81.698,-21.799 -81.417,-21.553 -81.316,-21.249C-80.845,-19.828 -80.971,-17.945 -81.094,-16.284C-81.123,-15.903 -81.15,-15.535 -81.168,-15.193C-81.273,-13.117 -82.455,-10.991 -84.721,-8.897C-85.444,-8.229 -86.27,-7.686 -87.071,-7.162C-87.742,-6.724 -88.376,-6.31 -88.933,-5.828C-89.273,-5.532 -89.565,-5.196 -89.849,-4.871C-89.898,-4.816 -89.946,-4.759 -89.996,-4.703C-89.156,-4.463 -88.165,-4.491 -87.199,-4.511C-86.931,-4.516 -86.664,-4.521 -86.403,-4.521C-83.405,-4.523 -80.466,-4.548 -77.484,-4.85C-73.434,-5.257 -69.713,-6.378 -65.045,-8.59C-64.783,-8.713 -64.467,-8.727 -64.193,-8.622C-63.885,-8.506 -63.675,-8.263 -63.609,-7.988C-63.252,-6.515 -63.746,-4.798 -64.202,-3.286C-64.288,-3.004 -64.37,-2.729 -64.442,-2.469L-64.567,-2.015C-64.963,-0.564 -65.378,0.932 -66.328,2.288C-67.115,3.412 -67.729,4.207 -68.614,4.942C-46.342,4.8 -19.856,5.034 -9.429,6.497C-8.479,6.631 -7.413,6.772 -6.257,6.926C1.109,7.91 12.282,9.403 21.217,12.3C27.265,14.26 32.286,16.882 34.495,20.381C36.558,23.647 35.782,26.258 35.007,28.782C34.564,30.23 34.13,31.607 34.289,33.137C38.277,33.118 39.07,36.564 39.492,38.51C40.023,40.956 39.097,42.403 38.265,43.675C37.823,44.351 37.392,44.981 37.316,45.767C37.174,47.237 37.694,47.954 38.28,48.789C38.809,49.541 39.401,50.396 39.657,51.71C40.185,54.436 39.101,56.44 38.029,58.372C37.414,59.483 36.825,60.531 36.574,61.743C36.498,62.107 36.169,62.412 35.729,62.465C35.657,63.04 35.416,63.595 35.154,64.158C34.634,65.281 34.13,66.967 32.804,67.823C30.607,69.24 27.115,69.477 24.193,69.498C23.994,69.663 23.72,69.758 23.424,69.732C22.697,69.667 21.98,69.61 21.27,69.562C19.79,69.605 18.177,69.619 16.919,69.402ZM-116.945,4.005C-116.846,4.038 -116.747,4.071 -116.646,4.102C-116.932,3.365 -117.218,2.63 -117.517,1.904C-117.712,1.43 -117.912,0.954 -118.114,0.478C-118.121,0.551 -118.127,0.625 -118.131,0.701C-118.204,1.97 -117.094,2.919 -116.945,4.005ZM2.449,69.922C3.311,69.6 4.164,69.33 5.011,69.109C5.29,69.037 5.568,68.967 5.844,68.901C5.803,68.738 5.76,68.575 5.717,68.414L5.605,67.992C5.158,66.297 4.663,64.578 4.185,62.916C4.123,62.703 4.062,62.489 4,62.275C3.762,62.464 3.534,62.675 3.296,62.893C2.92,63.238 2.53,63.595 2.061,63.923C1.729,64.156 1.38,64.37 1.024,64.572C1.311,65.556 1.595,66.547 1.863,67.534L1.976,67.945C2.155,68.596 2.332,69.258 2.449,69.922ZM0.917,70.546C1.246,70.401 1.574,70.264 1.901,70.134C1.784,69.439 1.592,68.741 1.403,68.055L1.289,67.641C1.038,66.715 0.772,65.785 0.503,64.86C0.272,64.984 0.041,65.105 -0.188,65.224C-0.317,65.291 -0.447,65.359 -0.578,65.427C-0.431,65.926 -0.285,66.422 -0.14,66.912C0.213,68.104 0.572,69.325 0.917,70.546ZM-103.152,-9.75C-103.447,-9.709 -103.74,-9.671 -104.032,-9.636L-103.993,-9.543C-103.912,-9.345 -103.83,-9.147 -103.748,-8.949C-103.45,-8.986 -103.156,-9.024 -102.866,-9.062C-102.962,-9.292 -103.057,-9.521 -103.152,-9.75ZM-90.373,5.205C-90.185,5.202 -89.995,5.199 -89.804,5.195C-90.323,4.03 -90.796,2.849 -91.246,1.687C-91.56,0.878 -91.872,0.071 -92.2,-0.726C-92.836,-2.268 -93.517,-3.829 -94.176,-5.337C-94.867,-6.921 -95.581,-8.558 -96.246,-10.18L-96.41,-10.579C-96.487,-10.763 -96.562,-10.949 -96.636,-11.135C-96.803,-11.087 -96.969,-11.039 -97.135,-10.993C-97.03,-10.723 -96.921,-10.455 -96.811,-10.188L-96.645,-9.787C-95.984,-8.173 -95.271,-6.54 -94.582,-4.962C-93.922,-3.449 -93.239,-1.883 -92.6,-0.334C-92.27,0.468 -91.956,1.28 -91.64,2.094C-91.24,3.124 -90.823,4.171 -90.373,5.205ZM20.591,67.722C21.068,67.749 21.541,67.781 22.01,67.815L21.972,67.674C21.505,67.669 21.038,67.66 20.571,67.647L20.591,67.722ZM-89.182,5.184C-88.879,5.179 -88.572,5.173 -88.263,5.168C-88.872,3.837 -89.406,2.475 -89.922,1.143C-90.236,0.332 -90.549,-0.477 -90.878,-1.276C-91.185,-2.02 -91.502,-2.769 -91.822,-3.514C-91.951,-3.59 -92.076,-3.674 -92.199,-3.766C-92.42,-3.932 -92.544,-4.171 -92.556,-4.419C-92.563,-4.588 -92.518,-4.756 -92.424,-4.904C-92.569,-5.236 -92.713,-5.568 -92.857,-5.896C-93.547,-7.477 -94.26,-9.111 -94.924,-10.73L-95.089,-11.129C-95.148,-11.272 -95.206,-11.416 -95.264,-11.56C-95.538,-11.47 -95.811,-11.384 -96.083,-11.301C-96.009,-11.112 -95.932,-10.924 -95.855,-10.738L-95.689,-10.338C-95.027,-8.721 -94.313,-7.086 -93.623,-5.504C-92.964,-3.994 -92.282,-2.432 -91.644,-0.884C-91.315,-0.085 -91.001,0.725 -90.687,1.537C-90.219,2.747 -89.726,3.977 -89.182,5.184ZM-116.854,-6.891C-117.115,-6.708 -117.373,-6.518 -117.626,-6.322C-117.337,-6.429 -117.042,-6.532 -116.744,-6.63C-116.78,-6.717 -116.817,-6.804 -116.854,-6.891ZM-87.639,5.158C-86.457,5.138 -85.227,5.119 -83.956,5.101C-84.553,3.79 -85.08,2.45 -85.587,1.138C-85.9,0.328 -86.213,-0.479 -86.541,-1.277C-86.739,-1.756 -86.942,-2.237 -87.146,-2.718L-87.158,-2.718C-88.424,-2.694 -89.812,-2.685 -91.037,-3.14C-90.795,-2.572 -90.555,-2.002 -90.322,-1.435C-89.992,-0.633 -89.678,0.179 -89.362,0.993C-88.827,2.374 -88.275,3.786 -87.639,5.158ZM-106.022,5.484C-105.713,5.49 -105.408,5.495 -105.11,5.498C-105.451,4.676 -105.774,3.852 -106.088,3.039C-106.402,2.227 -106.716,1.419 -107.045,0.62C-107.681,-0.925 -108.363,-2.488 -109.024,-4C-109.278,-4.581 -109.534,-5.168 -109.79,-5.76C-110.054,-5.675 -110.32,-5.589 -110.588,-5.502C-110.321,-4.886 -110.054,-4.274 -109.79,-3.67C-109.13,-2.159 -108.448,-0.597 -107.811,0.95C-107.481,1.749 -107.168,2.559 -106.854,3.371C-106.584,4.07 -106.309,4.778 -106.022,5.484ZM9.327,50.908C9.061,50.892 8.794,50.876 8.528,50.862C8.863,52.032 9.154,53.211 9.434,54.369C9.64,55.217 9.845,56.063 10.066,56.9C10.497,58.524 10.971,60.169 11.43,61.761C11.858,63.248 12.299,64.779 12.708,66.301C12.981,66.311 13.257,66.322 13.536,66.334C13.212,65.162 12.875,63.991 12.545,62.847C12.086,61.253 11.611,59.605 11.18,57.977C10.957,57.137 10.751,56.288 10.545,55.437C10.181,53.939 9.802,52.404 9.327,50.908ZM-101.764,-9.963C-102.032,-9.918 -102.299,-9.875 -102.564,-9.835C-102.469,-9.604 -102.372,-9.373 -102.276,-9.142C-102.005,-9.179 -101.738,-9.217 -101.475,-9.255L-101.592,-9.54C-101.65,-9.68 -101.707,-9.821 -101.764,-9.963ZM-108.044,-9.303C-108.228,-9.294 -108.411,-9.286 -108.594,-9.278L-108.476,-8.992C-108.393,-8.79 -108.309,-8.588 -108.225,-8.386C-108.048,-8.41 -107.87,-8.433 -107.693,-8.456C-107.811,-8.739 -107.928,-9.021 -108.044,-9.303ZM12.825,51.192C12.389,51.148 11.952,51.106 11.513,51.069C11.887,52.341 12.201,53.63 12.507,54.891C12.713,55.741 12.918,56.587 13.14,57.425C13.571,59.046 14.044,60.688 14.501,62.277C14.893,63.641 15.297,65.042 15.677,66.44C15.786,66.446 15.896,66.452 16.006,66.458C16.337,66.476 16.671,66.495 17.006,66.513C16.924,66.219 16.842,65.925 16.759,65.632C16.69,65.627 16.621,65.623 16.552,65.618C16.617,65.608 16.682,65.598 16.747,65.589C16.516,64.769 16.281,63.953 16.05,63.151C15.591,61.561 15.117,59.916 14.686,58.29C14.463,57.45 14.257,56.6 14.05,55.748C13.686,54.24 13.303,52.697 12.825,51.192ZM-115.949,4.308C-115.864,4.331 -115.78,4.354 -115.694,4.376C-115.702,4.357 -115.709,4.338 -115.717,4.319C-116.031,3.509 -116.343,2.702 -116.671,1.904C-117.04,1.007 -117.425,0.105 -117.812,-0.789C-117.848,-0.697 -117.881,-0.604 -117.911,-0.509C-117.589,0.241 -117.27,0.995 -116.961,1.745C-116.631,2.544 -116.318,3.354 -116.004,4.166C-115.986,4.213 -115.967,4.261 -115.949,4.308ZM-106.532,-9.395C-106.835,-9.373 -107.136,-9.353 -107.435,-9.336C-107.325,-9.068 -107.214,-8.801 -107.102,-8.533C-106.806,-8.57 -106.511,-8.607 -106.217,-8.644C-106.323,-8.894 -106.428,-9.145 -106.532,-9.395ZM20.149,52.396C20.071,52.377 19.993,52.359 19.915,52.341C20.106,53.076 20.286,53.811 20.461,54.537C20.667,55.386 20.871,56.232 21.093,57.068C21.524,58.689 21.997,60.332 22.454,61.92C22.697,62.761 22.943,63.616 23.185,64.475C23.251,64.455 23.317,64.435 23.382,64.414C23.164,63.645 22.943,62.879 22.726,62.125C22.267,60.531 21.792,58.883 21.361,57.255C21.137,56.413 20.931,55.562 20.724,54.708C20.539,53.944 20.351,53.17 20.149,52.396ZM28.849,66.19C29.201,66.122 29.547,66.045 29.885,65.959C29.669,65.196 29.452,64.437 29.236,63.687C28.926,63.804 28.583,63.916 28.204,64.03C28.42,64.745 28.636,65.466 28.849,66.19ZM-102.435,5.486C-102.244,5.482 -102.059,5.479 -101.879,5.475C-102.303,4.477 -102.695,3.471 -103.078,2.482C-103.392,1.673 -103.704,0.866 -104.032,0.07C-104.668,-1.476 -105.351,-3.038 -106.011,-4.549C-106.436,-5.524 -106.87,-6.519 -107.296,-7.518C-107.474,-7.495 -107.652,-7.471 -107.831,-7.447C-107.362,-6.341 -106.88,-5.238 -106.41,-4.158C-105.75,-2.648 -105.068,-1.085 -104.431,0.462C-104.101,1.262 -103.787,2.072 -103.473,2.885C-103.14,3.745 -102.798,4.618 -102.435,5.486ZM-90.036,-13.816C-90.344,-13.643 -90.653,-13.477 -90.96,-13.319C-90.755,-12.636 -90.473,-11.957 -90.197,-11.289L-90.031,-10.888C-89.662,-9.987 -89.278,-9.084 -88.89,-8.186C-88.674,-8.331 -88.457,-8.473 -88.243,-8.613C-88.125,-8.69 -88.007,-8.768 -87.888,-8.846C-88.098,-9.331 -88.309,-9.813 -88.517,-10.29C-89.021,-11.446 -89.536,-12.63 -90.036,-13.816ZM23.792,66.683C23.864,66.681 23.936,66.679 24.007,66.677C23.873,66.177 23.736,65.676 23.596,65.176C23.528,65.189 23.46,65.201 23.392,65.214C23.528,65.704 23.662,66.194 23.792,66.683ZM5.562,50.741C5.098,50.727 4.634,50.716 4.17,50.707C4.541,51.964 4.864,53.234 5.167,54.482C5.373,55.333 5.579,56.181 5.802,57.02C6.233,58.644 6.706,60.29 7.165,61.881C7.645,63.545 8.14,65.267 8.588,66.967L8.699,67.387C8.777,67.679 8.854,67.974 8.925,68.27C9.379,68.193 9.827,68.124 10.272,68.063C10.239,67.936 10.205,67.809 10.171,67.682L10.059,67.26C9.612,65.564 9.118,63.846 8.639,62.184C8.18,60.591 7.705,58.943 7.274,57.314C7.05,56.475 6.845,55.625 6.639,54.774C6.316,53.439 5.969,52.08 5.562,50.741ZM27.564,66.402C27.774,66.373 27.982,66.342 28.188,66.308C27.982,65.608 27.772,64.91 27.563,64.218C27.403,64.264 27.238,64.311 27.067,64.359C27.04,64.366 27.013,64.374 26.985,64.381C27.179,65.05 27.373,65.725 27.564,66.402ZM10.891,51.018C10.578,50.993 10.264,50.97 9.95,50.949C10.403,52.403 10.769,53.886 11.12,55.334C11.326,56.183 11.531,57.028 11.753,57.865C12.184,59.489 12.658,61.135 13.116,62.726C13.46,63.919 13.811,65.14 14.148,66.362C14.45,66.376 14.755,66.391 15.064,66.407C14.697,65.061 14.309,63.711 13.93,62.397C13.472,60.806 12.998,59.162 12.567,57.536C12.344,56.696 12.138,55.846 11.931,54.994C11.613,53.68 11.285,52.337 10.891,51.018ZM23.521,67.939C23.498,67.849 23.475,67.759 23.451,67.669C23.16,67.674 22.868,67.676 22.576,67.676L22.613,67.814L22.626,67.863C22.926,67.887 23.225,67.913 23.521,67.939ZM-116.351,-5.706C-116.776,-5.566 -117.19,-5.416 -117.591,-5.256C-117.382,-4.768 -117.171,-4.283 -116.962,-3.801C-116.563,-3.981 -116.16,-4.154 -115.755,-4.319C-115.954,-4.778 -116.153,-5.241 -116.351,-5.706ZM2.381,50.68C2.08,50.677 1.78,50.675 1.48,50.673C1.984,52.235 2.38,53.835 2.758,55.397C2.964,56.247 3.17,57.095 3.393,57.935C3.624,58.805 3.867,59.682 4.114,60.553C4.194,60.617 4.272,60.684 4.349,60.755C4.554,60.943 4.649,61.195 4.628,61.448C4.616,61.591 4.567,61.729 4.484,61.851C4.575,62.168 4.666,62.483 4.756,62.796C5.236,64.46 5.731,66.181 6.179,67.882L6.291,68.301C6.332,68.456 6.373,68.612 6.412,68.768C6.697,68.703 6.981,68.642 7.262,68.583C7.211,68.379 7.158,68.175 7.103,67.972L6.991,67.552C6.544,65.852 6.049,64.131 5.569,62.466C5.111,60.875 4.637,59.231 4.206,57.605C3.983,56.765 3.777,55.916 3.571,55.065C3.219,53.612 2.838,52.131 2.381,50.68ZM-104.486,5.502C-103.988,5.503 -103.508,5.5 -103.053,5.495C-103.395,4.672 -103.718,3.848 -104.033,3.035C-104.346,2.225 -104.659,1.418 -104.987,0.62C-105.623,-0.923 -106.304,-2.482 -106.962,-3.991C-107.445,-5.099 -107.94,-6.232 -108.421,-7.367C-108.871,-7.305 -109.322,-7.24 -109.771,-7.171C-109.62,-6.815 -109.467,-6.46 -109.314,-6.106C-109.009,-6.149 -108.702,-6.187 -108.392,-6.219C-108.67,-6.124 -108.953,-6.031 -109.241,-5.937C-108.983,-5.342 -108.725,-4.751 -108.47,-4.167C-107.81,-2.654 -107.127,-1.089 -106.489,0.461C-106.158,1.263 -105.844,2.075 -105.529,2.889C-105.194,3.753 -104.851,4.63 -104.486,5.502ZM33.257,64.67C33.347,64.509 33.431,64.339 33.512,64.157C33.381,63.713 33.25,63.27 33.121,62.832C32.668,61.304 32.201,59.726 31.773,58.163C31.354,57.759 30.913,57.376 30.454,57.014C30.532,57.3 30.612,57.586 30.693,57.871L30.699,57.89C31.668,58.675 32.264,59.622 31.904,60.256C31.851,60.628 31.783,60.959 31.698,61.253C31.912,61.953 32.127,62.649 32.34,63.336C32.498,63.845 32.657,64.359 32.816,64.876C32.958,64.802 33.098,64.725 33.236,64.645L33.257,64.67ZM-94.781,5.293C-94.221,5.281 -93.639,5.269 -93.038,5.257C-93.471,4.25 -93.873,3.236 -94.26,2.237C-94.574,1.428 -94.886,0.622 -95.214,-0.175C-95.85,-1.721 -96.533,-3.283 -97.193,-4.795C-97.883,-6.376 -98.596,-8.01 -99.26,-9.629L-99.425,-10.028C-99.474,-10.148 -99.523,-10.267 -99.571,-10.387C-100.114,-10.268 -100.652,-10.161 -101.185,-10.064C-101.136,-9.942 -101.086,-9.82 -101.036,-9.699L-100.889,-9.345C-100.525,-9.402 -100.17,-9.462 -99.826,-9.525L-99.575,-8.569C-99.877,-8.513 -100.186,-8.461 -100.502,-8.41C-99.949,-7.087 -99.37,-5.762 -98.808,-4.474C-98.147,-2.96 -97.464,-1.395 -96.826,0.155C-96.496,0.954 -96.183,1.764 -95.869,2.576C-95.521,3.475 -95.163,4.387 -94.781,5.293ZM-115.298,-6.028C-115.467,-5.98 -115.635,-5.93 -115.802,-5.879C-115.609,-5.428 -115.415,-4.978 -115.221,-4.53C-115.058,-4.593 -114.895,-4.655 -114.731,-4.715C-114.92,-5.15 -115.109,-5.588 -115.298,-6.028ZM-91.479,-13.059C-92.298,-12.66 -93.116,-12.313 -93.934,-12.017C-94.196,-11.923 -94.457,-11.831 -94.717,-11.742C-94.657,-11.59 -94.595,-11.439 -94.533,-11.289L-94.367,-10.888C-93.706,-9.273 -92.993,-7.641 -92.304,-6.063C-92.2,-5.826 -92.096,-5.587 -91.991,-5.347C-91.794,-5.545 -91.608,-5.76 -91.413,-5.982C-91.083,-6.361 -90.74,-6.751 -90.315,-7.12C-90.015,-7.38 -89.697,-7.622 -89.372,-7.854C-89.784,-8.808 -90.195,-9.77 -90.588,-10.73L-90.753,-11.129C-91.015,-11.763 -91.277,-12.407 -91.479,-13.059ZM-110.75,-8.013C-110.864,-8.287 -110.978,-8.561 -111.09,-8.835L-111.247,-9.215C-111.549,-9.212 -111.849,-9.21 -112.147,-9.21C-112.105,-9.108 -112.063,-9.005 -112.021,-8.904L-111.856,-8.504C-111.77,-8.292 -111.682,-8.081 -111.594,-7.869C-111.314,-7.919 -111.032,-7.967 -110.75,-8.013ZM-92.415,5.244C-91.953,5.235 -91.48,5.226 -90.996,5.217C-91.422,4.226 -91.819,3.228 -92.2,2.244C-92.514,1.432 -92.827,0.624 -93.156,-0.175C-93.793,-1.721 -94.475,-3.283 -95.135,-4.795C-95.825,-6.376 -96.538,-8.01 -97.202,-9.63L-97.367,-10.029C-97.478,-10.298 -97.588,-10.569 -97.694,-10.841C-98.133,-10.725 -98.57,-10.616 -99.003,-10.516C-98.959,-10.406 -98.914,-10.297 -98.869,-10.188L-98.703,-9.787C-98.041,-8.173 -97.329,-6.54 -96.64,-4.962C-95.979,-3.449 -95.296,-1.883 -94.658,-0.334C-94.328,0.466 -94.015,1.275 -93.701,2.087C-93.295,3.133 -92.872,4.195 -92.415,5.244ZM3.556,50.695C3.368,50.692 3.18,50.69 2.992,50.687C3.433,52.107 3.804,53.549 4.146,54.963C4.352,55.811 4.557,56.657 4.779,57.494C5.21,59.115 5.683,60.757 6.14,62.346C6.62,64.013 7.117,65.737 7.566,67.441L7.677,67.86C7.731,68.062 7.784,68.264 7.835,68.468C8.007,68.435 8.179,68.402 8.35,68.371C8.279,68.079 8.203,67.788 8.126,67.499L8.014,67.078C7.567,65.382 7.073,63.663 6.594,62.001C6.135,60.408 5.66,58.76 5.229,57.132C5.005,56.289 4.799,55.438 4.592,54.584C4.279,53.298 3.944,51.988 3.556,50.695ZM-96.226,5.326C-95.956,5.32 -95.681,5.313 -95.4,5.307C-95.76,4.445 -96.098,3.58 -96.428,2.726C-96.742,1.917 -97.054,1.11 -97.382,0.314C-98.018,-1.232 -98.7,-2.795 -99.361,-4.306C-99.934,-5.619 -100.523,-6.97 -101.087,-8.319C-101.347,-8.28 -101.611,-8.242 -101.879,-8.204C-101.458,-7.216 -101.029,-6.232 -100.608,-5.268C-99.947,-3.755 -99.264,-2.19 -98.626,-0.639C-98.296,0.16 -97.983,0.969 -97.669,1.781C-97.215,2.955 -96.746,4.151 -96.226,5.326ZM-113.456,-8.826C-113.689,-8.723 -113.926,-8.612 -114.165,-8.494C-114.02,-8.144 -113.872,-7.795 -113.724,-7.446C-113.469,-7.503 -113.212,-7.558 -112.954,-7.61C-113.057,-7.856 -113.158,-8.101 -113.259,-8.346L-113.423,-8.745C-113.434,-8.772 -113.445,-8.799 -113.456,-8.826ZM24.605,66.656C24.875,66.644 25.144,66.63 25.411,66.613C25.253,66.041 25.092,65.469 24.931,64.901C24.678,64.958 24.424,65.013 24.17,65.065C24.318,65.595 24.463,66.126 24.605,66.656ZM19.431,65.661C19.251,65.668 19.069,65.674 18.888,65.678C18.975,65.991 19.062,66.304 19.147,66.618C19.331,66.626 19.515,66.633 19.699,66.64C19.611,66.314 19.522,65.987 19.431,65.661ZM18.284,65.683C17.982,65.682 17.678,65.676 17.373,65.664C17.456,65.957 17.538,66.251 17.619,66.545C17.923,66.561 18.229,66.576 18.536,66.591C18.453,66.288 18.369,65.985 18.284,65.683ZM16.704,31.874C20.476,31.973 24.291,32.316 27.877,32.584C28.96,32.665 30.595,32.27 31.633,32.579C31.944,32.672 32.122,32.776 32.277,32.899C32.23,31.948 32.359,31.049 32.562,30.18C31.2,29.796 29.685,29.62 28.189,29.4C26.351,29.116 24.567,28.802 22.743,28.55C19.112,28.034 15.446,27.661 11.752,27.564C15.447,27.497 19.15,27.709 22.827,28.066C24.661,28.236 26.51,28.477 28.318,28.675C29.786,28.829 31.295,28.924 32.801,29.267C32.893,28.942 32.992,28.621 33.09,28.302C33.205,27.927 33.319,27.555 33.423,27.184C32.185,26.581 30.828,26.11 29.445,25.703C27.693,25.188 25.879,24.774 24.076,24.326C22.275,23.884 20.473,23.459 18.632,23.182C16.795,22.907 14.906,22.774 13.041,22.999C14.89,22.693 16.806,22.743 18.676,22.94C20.552,23.139 22.398,23.489 24.228,23.854C26.052,24.222 27.892,24.556 29.717,25.004C31.049,25.334 32.38,25.721 33.654,26.243C33.822,25.42 33.891,24.585 33.74,23.704C32.964,23.194 31.964,22.839 30.951,22.569C29.635,22.221 28.233,21.989 26.856,21.715C24.105,21.2 21.303,20.717 18.465,20.956C21.278,20.553 24.169,20.876 26.967,21.235C28.368,21.43 29.771,21.577 31.19,21.863C31.923,22.018 32.675,22.205 33.393,22.485C33.24,22.104 33.042,21.712 32.789,21.308C32.71,21.282 32.637,21.241 32.575,21.186C32.568,21.179 32.561,21.173 32.554,21.166L32.542,21.154C31.471,20.075 29.858,19.325 28.217,18.728C26.557,18.127 24.807,17.693 23.041,17.242C19.525,16.326 16.08,15.216 12.414,14.843C16.101,15.051 19.655,16.018 23.202,16.772C24.978,17.14 26.791,17.502 28.545,18.048C29.155,18.241 29.768,18.45 30.367,18.694C27.914,16.747 24.342,15.181 20.287,13.89C11.586,11.119 0.655,9.662 -6.551,8.7C-7.712,8.545 -8.783,8.402 -9.738,8.268C-26.476,5.92 -85.094,6.774 -100.186,7.222C-103.777,7.329 -110.937,7.537 -116.354,6.096C-120.117,5.096 -123.03,3.277 -123.541,0.202C-123.83,-1.538 -123.097,-3.323 -121.795,-4.955C-120.281,-6.852 -117.999,-8.547 -115.797,-9.724C-123.558,-9.57 -129.139,-5.15 -131.86,-1.525C-131.244,-0.141 -130.231,1.146 -129.071,2.314C-127.685,3.696 -126.062,4.926 -124.319,6.019C-123.441,6.563 -122.544,7.08 -121.579,7.489C-120.61,7.896 -119.583,8.214 -118.53,8.469C-117.479,8.728 -116.405,8.936 -115.336,9.159C-114.285,9.385 -113.125,9.382 -112.144,9.83C-113.146,9.42 -114.284,9.468 -115.368,9.278C-116.447,9.096 -117.531,8.926 -118.608,8.705C-119.683,8.487 -120.749,8.202 -121.77,7.819C-122.793,7.432 -123.743,6.935 -124.66,6.417C-126.494,5.37 -128.22,4.177 -129.736,2.796C-130.815,1.799 -131.81,0.701 -132.55,-0.529C-132.852,-0.053 -133.097,0.398 -133.285,0.811C-133.517,1.322 -133.733,1.841 -133.933,2.367C-131.657,6.788 -127.209,10.536 -121.697,12.399C-124.593,11.611 -127.276,10.271 -129.578,8.572C-131.469,7.172 -133.117,5.521 -134.394,3.671C-134.851,5.076 -135.204,6.528 -135.452,8.012C-135.212,8.631 -134.584,9.338 -133.976,9.936C-133.269,10.625 -132.484,11.275 -131.665,11.892C-130.842,12.507 -129.975,13.084 -129.064,13.61C-128.148,14.121 -127.199,14.635 -126.107,14.844C-127.221,14.715 -128.243,14.266 -129.22,13.817C-130.196,13.353 -131.136,12.834 -132.038,12.271C-132.937,11.704 -133.807,11.102 -134.623,10.434C-134.985,10.136 -135.335,9.826 -135.662,9.486C-135.836,10.944 -135.913,12.428 -135.893,13.927C-135.607,14.284 -135.107,14.63 -134.592,14.946C-133.844,15.42 -133.151,15.871 -132.392,16.293C-130.894,17.136 -129.298,17.865 -127.62,18.447C-125.943,19.019 -124.19,19.498 -122.425,19.88C-120.655,20.253 -118.833,20.491 -116.994,20.47C-118.829,20.573 -120.681,20.417 -122.49,20.119C-124.301,19.81 -126.076,19.412 -127.833,18.903C-129.582,18.385 -131.269,17.711 -132.867,16.912C-133.661,16.52 -134.448,16.063 -135.189,15.643C-135.398,15.519 -135.624,15.393 -135.85,15.253C-135.813,15.982 -135.754,16.713 -135.672,17.445C-135.641,17.467 -135.613,17.492 -135.587,17.52C-135.576,17.533 -135.564,17.546 -135.554,17.559L-135.534,17.586C-134.968,18.34 -133.768,18.905 -132.638,19.393C-131.473,19.866 -130.253,20.378 -129.114,20.915C-127.957,21.439 -126.798,21.955 -125.583,22.365C-124.374,22.779 -123.096,23.088 -121.771,23.112C-123.094,23.17 -124.424,22.939 -125.684,22.595C-126.952,22.255 -128.171,21.806 -129.377,21.353C-130.584,20.879 -131.762,20.473 -133.011,20.058C-133.829,19.749 -134.692,19.458 -135.469,18.975C-135.398,19.439 -135.318,19.902 -135.229,20.366C-135.172,20.419 -135.127,20.482 -135.102,20.555C-135.097,20.568 -135.092,20.584 -135.089,20.597C-134.87,21.481 -134.037,22.25 -133.038,22.823C-132.035,23.405 -130.866,23.827 -129.666,24.152C-128.464,24.479 -127.22,24.72 -125.959,24.879C-124.698,25.028 -123.413,25.135 -122.138,24.996C-123.399,25.216 -124.706,25.192 -125.991,25.122C-127.279,25.042 -128.563,24.879 -129.829,24.622C-131.093,24.365 -132.348,24.01 -133.512,23.442C-133.916,23.244 -134.321,23.012 -134.694,22.741C-134.451,23.682 -134.171,24.62 -133.855,25.551C-132.514,26.493 -130.935,27.229 -129.303,27.874C-127.623,28.537 -125.87,29.102 -124.132,29.703C-122.396,30.297 -120.655,30.874 -118.858,31.307C-117.065,31.738 -115.203,32.032 -113.319,31.968C-115.196,32.114 -117.096,31.9 -118.932,31.544C-120.774,31.186 -122.567,30.679 -124.341,30.16C-126.11,29.637 -127.9,29.147 -129.659,28.545C-130.908,28.116 -132.148,27.633 -133.32,27.029C-132.994,27.877 -132.638,28.719 -132.251,29.551L-132.248,29.555C-131.539,30.401 -130.323,30.997 -129.068,31.455C-127.803,31.913 -126.437,32.264 -125.1,32.655C-122.428,33.403 -119.7,34.122 -116.848,34.128C-119.695,34.288 -122.531,33.72 -125.27,33.123C-126.64,32.809 -128.018,32.543 -129.392,32.137C-130.04,31.939 -130.7,31.713 -131.325,31.417C-131.073,31.895 -130.809,32.37 -130.536,32.84C-130.21,33.401 -129.872,33.951 -129.522,34.489C-128.259,34.674 -127.125,35.092 -126.026,35.467C-124.709,35.922 -123.369,36.353 -121.918,36.366C-123.356,36.521 -124.827,36.236 -126.213,35.931C-127.112,35.733 -128.01,35.531 -128.888,35.435C-128.376,36.174 -127.841,36.89 -127.285,37.583C-126.273,38.067 -125.185,38.465 -124.062,38.784C-122.55,39.207 -120.965,39.492 -119.345,39.551C-120.963,39.656 -122.608,39.532 -124.217,39.256C-124.904,39.135 -125.586,38.986 -126.259,38.805C-125.824,39.301 -125.378,39.783 -124.921,40.251C-118.977,42.779 -112.281,44.133 -105.53,44.32C-111.535,44.429 -117.617,43.619 -123.297,41.813C-119.257,45.459 -114.477,48.089 -109.244,49.477C-100.764,51.728 -90.382,51.368 -81.223,51.054C-79.485,50.995 -77.78,50.937 -76.128,50.897C-67.425,50.686 -58.556,50.349 -49.98,50.023C-38.881,49.601 -27.476,49.166 -16.141,48.995C-16.097,48.976 -16.052,48.956 -16.008,48.936C-15.693,48.797 -15.33,48.828 -15.048,48.98C-12.735,48.949 -10.425,48.929 -8.122,48.923C-7.007,48.92 -5.86,48.911 -4.687,48.902C-3.157,48.889 -1.588,48.877 0,48.877C8.216,48.877 17.005,49.218 24.153,51.652C28.732,53.211 32.642,55.628 35.324,59.342C35.606,58.73 35.93,58.144 36.249,57.567C36.601,56.933 36.949,56.312 37.227,55.669C37.159,55.622 37.103,55.562 37.066,55.491C37.062,55.485 37.059,55.478 37.056,55.471L37.053,55.465C36.303,53.843 34.95,52.404 33.416,51.147C31.866,49.89 30.099,48.806 28.231,47.868C27.29,47.402 26.334,46.965 25.324,46.641C24.309,46.319 23.249,46.09 22.17,45.927C21.092,45.76 19.998,45.644 18.907,45.514C17.834,45.38 16.68,45.481 15.649,45.12C16.697,45.442 17.823,45.297 18.924,45.392C20.021,45.482 21.12,45.557 22.218,45.686C23.315,45.81 24.409,46.002 25.472,46.295C26.538,46.593 27.544,47.006 28.521,47.443C30.474,48.327 32.339,49.366 34.017,50.61C35.426,51.669 36.736,52.877 37.675,54.308C37.827,53.606 37.858,52.856 37.696,52.021C37.503,51.024 37.061,50.408 36.599,49.751C36.202,49.186 35.8,48.61 35.551,47.867C32.671,44.748 28.576,42.331 23.938,41.211C26.915,41.746 29.749,42.849 32.25,44.341C33.334,44.99 34.36,45.715 35.307,46.509C35.295,46.232 35.302,45.933 35.334,45.611C35.373,45.205 35.47,44.832 35.603,44.481C35.247,43.95 34.626,43.392 34.03,42.916C33.242,42.29 32.381,41.711 31.49,41.168C30.596,40.626 29.661,40.127 28.69,39.682C27.717,39.252 26.709,38.822 25.596,38.708C26.721,38.74 27.792,39.1 28.82,39.462C29.849,39.841 30.848,40.276 31.814,40.76C32.779,41.246 33.718,41.771 34.612,42.365C35.059,42.663 35.492,42.979 35.901,43.335C35.962,43.39 36.024,43.446 36.084,43.502C36.233,43.249 36.392,43.004 36.55,42.762C37.153,41.84 37.741,40.965 37.645,39.583C37.339,39.365 36.959,39.161 36.574,38.972C35.771,38.565 35.027,38.176 34.219,37.82C32.624,37.11 30.947,36.522 29.207,36.087C27.467,35.662 25.664,35.336 23.862,35.106C22.055,34.886 20.213,34.805 18.387,34.984C20.199,34.724 22.061,34.722 23.896,34.863C25.736,35.015 27.551,35.259 29.361,35.615C31.166,35.98 32.927,36.506 34.615,37.165C35.454,37.487 36.293,37.874 37.082,38.228C37.196,38.281 37.313,38.335 37.434,38.391C37.092,36.95 36.683,35.904 35.897,35.351C35.343,34.963 34.607,34.844 33.596,34.982C33.051,35.056 32.579,34.725 32.473,34.286C27.15,33.806 22.09,32.133 16.704,31.874ZM16.704,31.874C16.056,31.857 15.409,31.847 14.765,31.845C15.417,31.832 16.063,31.843 16.704,31.874ZM-31.02,28.487C-29.949,28.953 -29.204,29.438 -28.787,29.942C-28.37,30.445 -28.064,31.221 -27.869,32.27C-27.613,33.648 -27.254,34.574 -26.79,35.047C-26.326,35.521 -25.716,35.775 -24.962,35.811C-24.752,35.827 -24.647,35.905 -24.648,36.042C-24.649,36.18 -24.77,36.248 -25.011,36.246C-27.191,36.232 -28.512,36.152 -28.974,36.008C-29.436,35.863 -29.775,35.079 -29.992,33.655C-30.193,32.27 -30.406,31.257 -30.631,30.617C-30.856,29.977 -31.219,29.486 -31.719,29.142C-32.219,28.798 -33.002,28.623 -34.068,28.616C-34.473,28.613 -34.933,28.652 -35.447,28.733C-35.489,29.214 -35.512,29.715 -35.515,30.235C-35.529,32.2 -35.51,33.471 -35.459,34.049C-35.409,34.626 -35.246,35.048 -34.971,35.314C-34.697,35.579 -34.237,35.722 -33.591,35.741C-33.31,35.751 -33.171,35.817 -33.172,35.939C-33.172,36.085 -33.344,36.156 -33.687,36.154L-39.467,36.115C-39.801,36.113 -39.968,36.039 -39.967,35.894C-39.966,35.764 -39.834,35.7 -39.569,35.701C-38.977,35.705 -38.566,35.62 -38.335,35.446C-38.105,35.272 -37.922,34.999 -37.787,34.63C-37.652,34.26 -37.581,33.589 -37.575,32.618L-37.583,30.278L-37.547,26.712C-37.535,24.892 -37.568,23.687 -37.645,23.098C-37.723,22.509 -37.867,22.112 -38.075,21.908C-38.284,21.704 -38.77,21.542 -39.532,21.423C-39.695,21.398 -39.776,21.333 -39.776,21.226C-39.775,21.104 -39.611,21.043 -39.284,21.046L-32.37,20.943C-30.463,20.956 -29.082,21.324 -28.227,22.049C-27.371,22.773 -26.947,23.655 -26.954,24.695C-26.958,25.353 -27.136,25.952 -27.486,26.492C-27.836,27.033 -28.249,27.424 -28.725,27.665C-29.202,27.907 -29.967,28.181 -31.02,28.487ZM-35.443,28.159C-33.948,28.139 -32.827,28.043 -32.078,27.872C-31.33,27.701 -30.691,27.32 -30.161,26.727C-29.632,26.134 -29.364,25.428 -29.359,24.61C-29.353,23.746 -29.64,22.991 -30.22,22.345C-30.799,21.699 -31.731,21.372 -33.016,21.363C-33.716,21.358 -34.491,21.445 -35.341,21.623C-35.449,23.725 -35.506,25.399 -35.515,26.645C-35.518,27.073 -35.494,27.578 -35.443,28.159ZM-80.097,28.158C-79.026,28.624 -78.282,29.109 -77.864,29.613C-77.447,30.116 -77.141,30.893 -76.946,31.941C-76.69,33.319 -76.331,34.245 -75.867,34.718C-75.403,35.192 -74.794,35.446 -74.039,35.482C-73.829,35.499 -73.724,35.576 -73.725,35.713C-73.726,35.851 -73.847,35.919 -74.088,35.917C-76.268,35.903 -77.589,35.823 -78.051,35.679C-78.513,35.534 -78.853,34.75 -79.069,33.326C-79.27,31.941 -79.483,30.929 -79.708,30.289C-79.934,29.649 -80.296,29.157 -80.796,28.813C-81.296,28.47 -82.079,28.294 -83.145,28.287C-83.55,28.284 -84.01,28.323 -84.524,28.404C-84.566,28.885 -84.589,29.386 -84.593,29.906C-84.606,31.871 -84.587,33.142 -84.536,33.72C-84.486,34.298 -84.323,34.719 -84.049,34.985C-83.774,35.25 -83.314,35.393 -82.668,35.413C-82.387,35.422 -82.248,35.488 -82.249,35.61C-82.25,35.756 -82.421,35.827 -82.764,35.825L-88.544,35.786C-88.878,35.784 -89.045,35.71 -89.044,35.565C-89.044,35.435 -88.911,35.371 -88.646,35.373C-88.054,35.377 -87.643,35.291 -87.412,35.117C-87.182,34.943 -86.999,34.671 -86.864,34.301C-86.729,33.931 -86.658,33.26 -86.652,32.289L-86.66,29.95L-86.624,26.383C-86.612,24.563 -86.645,23.359 -86.723,22.769C-86.8,22.18 -86.944,21.783 -87.152,21.579C-87.361,21.375 -87.847,21.214 -88.609,21.094C-88.772,21.07 -88.853,21.004 -88.853,20.897C-88.852,20.775 -88.688,20.715 -88.361,20.717L-81.448,20.614C-79.54,20.627 -78.159,20.996 -77.304,21.72C-76.448,22.444 -76.024,23.327 -76.031,24.366C-76.035,25.024 -76.213,25.623 -76.563,26.164C-76.913,26.704 -77.326,27.095 -77.803,27.337C-78.279,27.578 -79.044,27.852 -80.097,28.158ZM-84.52,27.831C-83.025,27.81 -81.904,27.714 -81.155,27.543C-80.407,27.373 -79.768,26.991 -79.238,26.398C-78.709,25.805 -78.441,25.1 -78.436,24.281C-78.43,23.418 -78.717,22.662 -79.297,22.016C-79.876,21.37 -80.808,21.043 -82.093,21.034C-82.793,21.029 -83.568,21.116 -84.418,21.294C-84.526,23.396 -84.583,25.07 -84.592,26.316C-84.595,26.744 -84.571,27.249 -84.52,27.831ZM-60.222,21.1C-60.002,21.958 -59.788,23.16 -59.58,24.706C-59.62,24.767 -59.663,24.797 -59.709,24.797C-59.764,24.797 -59.822,24.766 -59.884,24.704C-60.415,23.852 -60.925,23.202 -61.412,22.755C-61.9,22.309 -62.39,21.99 -62.883,21.799C-63.376,21.609 -64.226,21.509 -65.432,21.501C-66.569,21.494 -67.468,21.553 -68.131,21.678C-68.194,21.754 -68.226,21.895 -68.227,22.102C-68.228,22.155 -68.236,22.251 -68.252,22.388C-68.334,23 -68.384,24.658 -68.403,27.365C-68.403,27.48 -68.397,27.64 -68.382,27.847C-67.791,27.874 -67.386,27.888 -67.168,27.889C-66.187,27.896 -65.476,27.757 -65.034,27.474C-64.593,27.19 -64.205,26.575 -63.872,25.629C-63.816,25.469 -63.738,25.389 -63.637,25.39C-63.489,25.391 -63.416,25.502 -63.417,25.724L-63.467,26.182C-63.533,26.786 -63.569,27.409 -63.573,28.051C-63.58,29.091 -63.567,30.028 -63.533,30.861C-63.535,31.121 -63.61,31.251 -63.758,31.25C-63.867,31.249 -63.94,31.157 -63.978,30.973C-64.135,30.07 -64.473,29.418 -64.992,29.017C-65.511,28.616 -66.642,28.409 -68.386,28.397C-68.413,28.955 -68.431,29.858 -68.439,31.104C-68.45,32.717 -68.399,33.742 -68.285,34.179C-68.171,34.615 -67.893,34.963 -67.451,35.222C-67.009,35.481 -66.259,35.614 -65.2,35.621C-62.172,35.642 -60.211,34.63 -59.318,32.587C-59.207,32.336 -59.093,32.21 -58.977,32.211C-58.852,32.212 -58.79,32.296 -58.791,32.464C-58.792,32.556 -58.812,32.655 -58.852,32.762C-58.899,32.907 -59.016,33.449 -59.201,34.389C-59.242,34.587 -59.393,35.182 -59.657,36.175L-64.549,36.13C-65.25,36.126 -66.279,36.09 -67.637,36.024C-68.995,35.957 -70.198,35.919 -71.245,35.908C-72.292,35.897 -72.839,35.872 -72.885,35.834C-72.931,35.795 -72.954,35.753 -72.954,35.707C-72.953,35.554 -72.824,35.479 -72.567,35.48C-71.703,35.486 -71.133,35.264 -70.858,34.815C-70.583,34.366 -70.439,33.27 -70.427,31.526L-70.423,29.175L-70.373,26.973C-70.37,26.53 -70.39,25.691 -70.432,24.456C-70.475,23.22 -70.517,22.515 -70.558,22.339C-70.6,22.162 -70.72,21.988 -70.917,21.814C-71.114,21.641 -71.551,21.464 -72.227,21.284C-72.429,21.229 -72.53,21.144 -72.529,21.029C-72.528,20.892 -72.391,20.824 -72.119,20.826L-69.738,20.968C-68.897,21.012 -66.831,21.045 -63.538,21.067C-61.374,21.081 -60.268,21.092 -60.222,21.1ZM-50.545,21.658C-51.152,21.624 -51.58,21.606 -51.829,21.604C-53.511,21.593 -54.731,21.929 -55.491,22.612C-56.251,23.295 -56.694,23.903 -56.823,24.438C-56.863,24.629 -56.968,24.724 -57.14,24.722C-57.218,24.722 -57.291,24.687 -57.361,24.618C-57.316,23.708 -57.156,22.482 -56.881,20.939C-56.507,20.934 -56.27,20.932 -56.169,20.933C-55.561,20.937 -54.748,20.973 -53.729,21.041C-52.632,21.109 -50.95,21.151 -48.685,21.166C-46.365,21.182 -44.855,21.165 -44.154,21.116C-43.515,21.059 -42.639,21.035 -41.526,21.042C-41.436,21.593 -41.378,22.167 -41.351,22.764C-41.309,23.444 -41.265,23.923 -41.22,24.198C-41.213,24.259 -41.209,24.324 -41.21,24.393C-41.211,24.577 -41.293,24.668 -41.457,24.667C-41.558,24.666 -41.642,24.633 -41.707,24.568C-41.773,24.502 -41.921,24.285 -42.153,23.917C-42.553,23.295 -42.97,22.824 -43.404,22.503C-43.838,22.183 -44.323,21.975 -44.86,21.88C-45.396,21.785 -46.482,21.716 -48.116,21.675C-48.217,22.829 -48.273,24.147 -48.283,25.63C-48.316,30.539 -48.228,33.434 -48.02,34.314C-47.812,35.195 -47.05,35.64 -45.734,35.649C-45.415,35.651 -45.256,35.717 -45.257,35.847C-45.258,36 -45.41,36.075 -45.714,36.073L-52.895,36.025C-53.082,36.024 -53.175,35.951 -53.174,35.805C-53.173,35.66 -52.989,35.589 -52.623,35.591C-52.008,35.595 -51.511,35.428 -51.131,35.091C-50.751,34.753 -50.53,34.294 -50.468,33.713C-50.406,33.132 -50.365,31.454 -50.347,28.679C-50.331,26.309 -50.397,23.969 -50.545,21.658ZM-24.446,28.612C-24.439,27.579 -24.113,26.448 -23.466,25.217C-22.819,23.987 -21.88,22.974 -20.649,22.18C-19.418,21.385 -18.031,20.993 -16.49,21.003C-14.334,21.018 -12.558,21.787 -11.163,23.31C-9.768,24.833 -9.077,26.566 -9.09,28.508C-9.104,30.572 -9.895,32.419 -11.463,34.049C-13.031,35.679 -14.908,36.486 -17.096,36.471C-19.19,36.457 -20.942,35.727 -22.353,34.28C-23.764,32.833 -24.462,30.944 -24.446,28.612ZM-21.84,28.262C-21.848,29.508 -21.662,30.788 -21.282,32.102C-20.901,33.416 -20.297,34.372 -19.468,34.97C-18.639,35.568 -17.749,35.871 -16.8,35.877C-15.266,35.887 -14.033,35.163 -13.101,33.705C-12.169,32.247 -11.696,30.555 -11.683,28.628C-11.671,26.763 -12.131,25.121 -13.063,23.704C-13.996,22.287 -15.221,21.574 -16.739,21.564C-17.883,21.556 -18.839,21.926 -19.607,22.674C-20.375,23.422 -20.938,24.319 -21.295,25.364C-21.652,26.409 -21.834,27.375 -21.84,28.262ZM-108.371,5.395C-108.08,5.411 -107.791,5.425 -107.505,5.437C-107.763,4.798 -108.012,4.159 -108.257,3.528C-108.571,2.716 -108.884,1.908 -109.213,1.109C-109.849,-0.437 -110.531,-1.999 -111.192,-3.511C-111.417,-4.026 -111.644,-4.547 -111.871,-5.072C-112.111,-4.987 -112.35,-4.901 -112.587,-4.812C-112.537,-4.699 -112.488,-4.586 -112.439,-4.473C-111.779,-2.959 -111.096,-1.394 -110.457,0.156C-110.127,0.958 -109.813,1.769 -109.498,2.583C-109.136,3.513 -108.766,4.458 -108.371,5.395ZM-112.733,-9.122C-112.797,-9.098 -112.861,-9.073 -112.926,-9.047C-112.907,-8.999 -112.887,-8.951 -112.867,-8.904L-112.702,-8.503C-112.595,-8.244 -112.488,-7.984 -112.379,-7.724C-112.311,-7.737 -112.242,-7.751 -112.173,-7.763C-112.254,-7.958 -112.334,-8.152 -112.413,-8.346L-112.578,-8.744C-112.63,-8.869 -112.681,-8.996 -112.733,-9.122ZM-106.877,5.461C-106.801,5.463 -106.725,5.466 -106.649,5.468C-106.912,4.816 -107.164,4.165 -107.414,3.521C-107.727,2.712 -108.039,1.905 -108.367,1.109C-109.003,-0.434 -109.684,-1.994 -110.342,-3.503C-110.604,-4.103 -110.87,-4.711 -111.135,-5.323C-111.199,-5.301 -111.263,-5.28 -111.327,-5.258C-111.097,-4.727 -110.866,-4.199 -110.639,-3.678C-109.978,-2.165 -109.295,-0.6 -108.657,0.95C-108.326,1.752 -108.012,2.564 -107.697,3.378C-107.43,4.067 -107.16,4.764 -106.877,5.461ZM23.325,53.305C23.022,53.203 22.716,53.104 22.406,53.01C22.382,53.003 22.358,52.995 22.334,52.988C22.566,53.853 22.779,54.719 22.986,55.572C23.192,56.423 23.398,57.271 23.62,58.111C24.051,59.734 24.525,61.38 24.984,62.971C25.05,63.2 25.116,63.43 25.182,63.661C25.461,63.507 25.725,63.338 25.972,63.151C25.494,61.514 25.001,59.825 24.552,58.156C24.309,57.258 24.086,56.35 23.862,55.44C23.688,54.734 23.512,54.02 23.325,53.305ZM21.678,52.796C21.385,52.713 21.089,52.633 20.791,52.556C20.968,53.242 21.135,53.928 21.3,54.605C21.506,55.456 21.712,56.304 21.934,57.144C22.365,58.768 22.839,60.413 23.298,62.004C23.509,62.736 23.722,63.479 23.934,64.226C24.181,64.134 24.421,64.036 24.653,63.928C24.572,63.648 24.492,63.369 24.412,63.092C23.953,61.498 23.479,59.85 23.047,58.222C22.823,57.38 22.617,56.529 22.41,55.675C22.18,54.723 21.941,53.757 21.678,52.796ZM-3.476,50.685C-3.876,50.688 -4.274,50.691 -4.669,50.694C-5.846,50.703 -6.997,50.713 -8.116,50.716C-10.616,50.723 -13.123,50.746 -15.635,50.782C-17.151,51.522 -17.879,52.239 -19.035,53.548C-19.983,54.618 -20.487,55.86 -21.026,57.172L-21.21,57.617C-21.32,57.881 -21.443,58.158 -21.57,58.443C-21.927,59.251 -22.319,60.127 -22.517,60.959C-18.025,59.447 -14.335,58.776 -10.421,58.73C-8.684,58.709 -6.976,58.776 -5.272,58.887C-5.355,58.565 -5.437,58.243 -5.518,57.92C-5.995,56.011 -6.487,54.038 -7.193,52.173C-7.242,52.044 -7.156,51.906 -7.001,51.866C-6.961,51.856 -6.921,51.852 -6.881,51.856C-6.769,51.866 -6.669,51.93 -6.632,52.026C-5.918,53.915 -5.422,55.9 -4.943,57.82C-4.85,58.191 -4.757,58.56 -4.662,58.928C-4.076,58.97 -3.49,59.016 -2.903,59.065C-3.327,57.378 -3.781,55.658 -4.4,54.021C-4.449,53.892 -4.363,53.755 -4.208,53.714C-4.168,53.704 -4.128,53.701 -4.088,53.704C-3.976,53.714 -3.876,53.778 -3.839,53.874C-3.193,55.583 -2.727,57.37 -2.289,59.117C-1.956,59.145 -1.624,59.174 -1.29,59.204C-1.243,59.208 -1.196,59.212 -1.148,59.216C-1.275,58.771 -1.4,58.326 -1.521,57.882C-1.746,57.057 -1.954,56.224 -2.163,55.388C-2.551,53.831 -2.957,52.234 -3.476,50.685ZM-115.011,4.544C-114.692,4.617 -114.366,4.685 -114.036,4.748C-114.157,4.44 -114.277,4.133 -114.395,3.827C-114.709,3.018 -115.021,2.211 -115.349,1.415C-115.85,0.197 -116.38,-1.031 -116.905,-2.236C-117.121,-1.995 -117.314,-1.738 -117.479,-1.463C-117.018,-0.401 -116.556,0.676 -116.115,1.746C-115.786,2.546 -115.472,3.356 -115.157,4.169C-115.108,4.293 -115.06,4.418 -115.011,4.544ZM-109.972,5.285C-109.651,5.312 -109.33,5.335 -109.011,5.357C-109.377,4.48 -109.721,3.6 -110.057,2.733C-110.371,1.922 -110.685,1.113 -111.014,0.314C-111.65,-1.231 -112.332,-2.794 -112.992,-4.306C-113.035,-4.405 -113.078,-4.505 -113.122,-4.604C-113.39,-4.496 -113.654,-4.384 -113.912,-4.266C-113.86,-4.149 -113.809,-4.031 -113.758,-3.914C-113.098,-2.403 -112.416,-0.841 -111.779,0.706C-111.449,1.505 -111.136,2.315 -110.822,3.127C-110.546,3.84 -110.266,4.563 -109.972,5.285ZM15.993,67.623C16.435,67.615 16.873,67.612 17.307,67.615C17.297,67.579 17.288,67.543 17.278,67.507C16.83,67.484 16.384,67.459 15.943,67.435L15.993,67.623ZM14.502,67.672C14.801,67.658 15.098,67.646 15.393,67.637L15.352,67.483C15.345,67.456 15.337,67.429 15.33,67.402C15.023,67.385 14.719,67.369 14.417,67.355C14.446,67.46 14.474,67.566 14.502,67.672ZM-104.626,-9.568C-105.064,-9.52 -105.498,-9.479 -105.929,-9.443C-105.829,-9.201 -105.727,-8.959 -105.625,-8.717C-105.484,-8.734 -105.343,-8.751 -105.203,-8.769C-104.913,-8.804 -104.625,-8.839 -104.34,-8.875C-104.41,-9.045 -104.481,-9.215 -104.55,-9.385L-104.626,-9.568ZM-113.37,4.867C-112.867,4.952 -112.357,5.026 -111.842,5.09C-112.009,4.67 -112.173,4.25 -112.334,3.834C-112.648,3.023 -112.962,2.214 -113.291,1.415C-113.927,-0.13 -114.609,-1.693 -115.27,-3.205C-115.31,-3.296 -115.35,-3.388 -115.39,-3.48C-115.781,-3.233 -116.144,-2.965 -116.469,-2.671C-115.905,-1.379 -115.333,-0.056 -114.793,1.256C-114.463,2.055 -114.15,2.865 -113.836,3.677C-113.683,4.072 -113.528,4.469 -113.37,4.867ZM25.024,68.251C25.784,68.076 26.541,67.89 27.276,67.708C27.251,67.618 27.226,67.528 27.201,67.437C26.888,67.474 26.573,67.505 26.254,67.533C26.089,67.638 25.919,67.744 25.746,67.851C25.722,67.76 25.698,67.668 25.673,67.577C25.404,67.596 25.134,67.611 24.863,67.624C24.917,67.832 24.971,68.042 25.024,68.251ZM31.968,65.272C32.043,65.241 32.118,65.209 32.191,65.176C32.016,64.602 31.84,64.032 31.666,63.468C31.538,63.055 31.41,62.64 31.281,62.222C31.226,62.309 31.168,62.391 31.107,62.47C31.186,62.726 31.265,62.982 31.343,63.236C31.551,63.908 31.76,64.588 31.968,65.272ZM14.412,51.373C14.095,51.333 13.776,51.296 13.457,51.26C13.909,52.714 14.276,54.197 14.626,55.645C14.832,56.495 15.037,57.341 15.259,58.179C15.69,59.8 16.163,61.442 16.62,63.031C16.855,63.846 17.094,64.674 17.329,65.507C17.617,65.468 17.909,65.43 18.202,65.391C17.95,64.492 17.692,63.597 17.438,62.718C16.981,61.125 16.505,59.477 16.074,57.849C15.851,57.009 15.644,56.16 15.439,55.309C15.124,54.009 14.801,52.679 14.412,51.373ZM13.094,67.759C13.366,67.738 13.637,67.72 13.907,67.704C13.874,67.578 13.84,67.452 13.806,67.325C13.524,67.313 13.246,67.301 12.971,67.29C13.013,67.446 13.054,67.602 13.094,67.759ZM10.855,67.986C11.411,67.916 11.96,67.857 12.504,67.809C12.467,67.665 12.429,67.521 12.391,67.379L12.362,67.268C11.769,67.248 11.198,67.235 10.655,67.23L10.745,67.569C10.782,67.708 10.819,67.846 10.855,67.986ZM-112.563,-6.682C-112.82,-6.63 -113.075,-6.576 -113.328,-6.521C-113.158,-6.127 -112.988,-5.734 -112.819,-5.345C-112.573,-5.416 -112.326,-5.484 -112.078,-5.549C-112.24,-5.925 -112.402,-6.303 -112.563,-6.682ZM19.273,52.195C18.964,52.127 18.653,52.063 18.34,52.001C18.607,52.974 18.848,53.949 19.081,54.909C19.287,55.76 19.492,56.608 19.715,57.448C20.146,59.072 20.62,60.717 21.079,62.308C21.317,63.136 21.559,63.978 21.798,64.825C22.077,64.765 22.353,64.701 22.624,64.631C22.379,63.76 22.129,62.893 21.884,62.041C21.425,60.45 20.951,58.806 20.52,57.18C20.297,56.34 20.091,55.491 19.885,54.64C19.689,53.832 19.489,53.013 19.273,52.195ZM22.315,66.698C22.608,66.699 22.9,66.697 23.192,66.694C23.069,66.234 22.943,65.773 22.815,65.312C22.533,65.357 22.252,65.399 21.969,65.437C22.086,65.857 22.202,66.277 22.315,66.698ZM26.497,62.706C26.659,62.549 26.811,62.383 26.953,62.206C26.515,60.762 26.073,59.289 25.665,57.831C25.402,56.896 25.16,55.952 24.917,55.005C24.811,54.593 24.703,54.179 24.593,53.763C24.41,53.692 24.225,53.623 24.038,53.555C24.191,54.15 24.339,54.743 24.484,55.331C24.707,56.238 24.93,57.143 25.171,58.037C25.591,59.595 26.049,61.17 26.497,62.706ZM-85.697,-10.583C-84.099,-12.176 -83.234,-13.746 -83.155,-15.274C-83.138,-15.629 -83.11,-16.01 -83.081,-16.405C-83.017,-17.258 -82.947,-18.177 -82.973,-19.029C-84.557,-17.59 -86.114,-16.348 -87.657,-15.295C-87.509,-14.895 -87.346,-14.496 -87.183,-14.102L-87.017,-13.702C-86.591,-12.661 -86.145,-11.617 -85.697,-10.583ZM15.612,51.536C15.422,51.508 15.231,51.481 15.04,51.455C15.405,52.705 15.714,53.969 16.014,55.207C16.22,56.055 16.424,56.901 16.646,57.738C17.077,59.361 17.552,61.007 18.01,62.598C18.267,63.492 18.529,64.401 18.786,65.314C18.962,65.291 19.139,65.267 19.315,65.243C19.033,64.232 18.744,63.224 18.459,62.237C18,60.647 17.527,59.002 17.095,57.376C16.872,56.536 16.666,55.686 16.459,54.834C16.195,53.744 15.922,52.635 15.612,51.536ZM-88.151,-14.965C-88.613,-14.661 -89.075,-14.374 -89.535,-14.104C-89.019,-12.878 -88.486,-11.652 -87.965,-10.457C-87.779,-10.032 -87.592,-9.603 -87.404,-9.171C-86.961,-9.476 -86.53,-9.796 -86.148,-10.15L-86.138,-10.159C-86.625,-11.279 -87.111,-12.413 -87.574,-13.544L-87.739,-13.943C-87.879,-14.28 -88.019,-14.621 -88.151,-14.965ZM27.887,67.557C28.097,67.505 28.304,67.454 28.508,67.404C28.494,67.356 28.48,67.308 28.466,67.26C28.256,67.295 28.045,67.327 27.832,67.357C27.85,67.424 27.869,67.49 27.887,67.557ZM-118.121,-5.036C-118.379,-4.923 -118.632,-4.806 -118.878,-4.683C-118.663,-4.186 -118.449,-3.691 -118.236,-3.2C-117.986,-3.323 -117.735,-3.444 -117.483,-3.562C-117.695,-4.049 -117.908,-4.541 -118.121,-5.036ZM-113.896,-6.391C-114.18,-6.323 -114.462,-6.253 -114.74,-6.18C-114.557,-5.754 -114.374,-5.33 -114.191,-4.908C-113.919,-5.002 -113.646,-5.092 -113.371,-5.178C-113.546,-5.58 -113.722,-5.985 -113.896,-6.391ZM7.91,50.831C7.334,50.803 6.756,50.779 6.179,50.76C6.568,52.062 6.902,53.38 7.214,54.672C7.42,55.52 7.625,56.366 7.847,57.203C8.278,58.827 8.752,60.472 9.211,62.064C9.636,63.539 10.073,65.059 10.479,66.569L10.477,66.25C11.004,66.254 11.544,66.264 12.098,66.281C11.701,64.806 11.274,63.322 10.858,61.881C10.399,60.288 9.925,58.64 9.493,57.012C9.27,56.172 9.064,55.323 8.858,54.472C8.567,53.268 8.262,52.042 7.91,50.831ZM-111.782,-6.833C-111.851,-6.82 -111.919,-6.808 -111.987,-6.795C-111.83,-6.425 -111.672,-6.056 -111.513,-5.689C-111.446,-5.704 -111.38,-5.72 -111.313,-5.735C-111.47,-6.1 -111.627,-6.466 -111.782,-6.833ZM-1.105,71.52C-0.606,71.259 -0.111,71.015 0.381,70.787C0.027,69.526 -0.345,68.262 -0.71,67.029C-0.839,66.593 -0.97,66.151 -1.1,65.707C-1.579,65.97 -2.047,66.25 -2.471,66.566L-2.486,66.577C-2.146,67.732 -1.809,68.901 -1.493,70.063L-1.381,70.474C-1.286,70.82 -1.191,71.169 -1.105,71.52ZM-2.979,66.96C-4.773,68.405 -5.836,69.892 -6.11,71.409C-6.174,71.759 -6.25,72.134 -6.33,72.523C-6.501,73.358 -6.686,74.255 -6.771,75.097C-5.013,73.808 -3.306,72.713 -1.638,71.804C-1.733,71.396 -1.843,70.988 -1.954,70.583L-2.068,70.17C-2.357,69.101 -2.667,68.026 -2.979,66.96ZM29.818,57.285C29.733,56.976 29.65,56.667 29.567,56.357C29.462,56.284 29.356,56.211 29.249,56.14C29.336,56.466 29.423,56.792 29.513,57.117C29.616,57.17 29.718,57.227 29.818,57.285ZM-121.207,-2.255C-121.4,-1.835 -121.53,-1.414 -121.585,-0.997C-121.416,-1.235 -121.204,-1.45 -120.946,-1.657C-121.033,-1.856 -121.12,-2.055 -121.207,-2.255ZM0.87,50.671C-0.391,50.667 -1.641,50.672 -2.87,50.681C-2.366,52.204 -1.967,53.765 -1.587,55.288C-1.379,56.121 -1.172,56.952 -0.948,57.773C-0.812,58.269 -0.673,58.766 -0.531,59.263C0.768,59.355 2.194,59.475 3.375,60.08C3.185,59.402 2.999,58.722 2.82,58.047C2.596,57.204 2.389,56.353 2.182,55.499C1.794,53.9 1.39,52.259 0.87,50.671ZM-118.929,-2.854C-118.871,-2.884 -118.811,-2.914 -118.75,-2.944C-118.962,-3.431 -119.175,-3.922 -119.388,-4.416C-119.448,-4.383 -119.507,-4.35 -119.566,-4.316C-119.358,-3.835 -119.149,-3.357 -118.942,-2.883L-118.929,-2.854ZM21.384,65.509C20.934,65.559 20.482,65.6 20.028,65.629C20.123,65.973 20.217,66.317 20.309,66.661C20.776,66.675 21.244,66.686 21.71,66.692C21.603,66.298 21.495,65.903 21.384,65.509ZM-101.264,5.46C-100.926,5.451 -100.614,5.442 -100.333,5.433C-100.845,4.271 -101.307,3.091 -101.755,1.934C-102.068,1.124 -102.381,0.317 -102.709,-0.481C-103.345,-2.023 -104.026,-3.583 -104.684,-5.092C-105.059,-5.951 -105.441,-6.825 -105.817,-7.704C-106.111,-7.668 -106.407,-7.631 -106.704,-7.593C-106.291,-6.625 -105.87,-5.661 -105.458,-4.717C-104.798,-3.204 -104.114,-1.638 -103.476,-0.089C-103.146,0.71 -102.833,1.52 -102.519,2.332C-102.118,3.366 -101.71,4.419 -101.264,5.46ZM24.386,68.396C24.409,68.39 24.433,68.385 24.457,68.38C24.395,68.135 24.331,67.89 24.266,67.648C24.194,67.651 24.122,67.653 24.05,67.655C24.095,67.826 24.139,67.997 24.183,68.169C24.264,68.234 24.332,68.311 24.386,68.396ZM27.432,61.485C27.587,61.201 27.719,60.894 27.825,60.563C28.178,59.457 27.531,58.438 27.491,57.453C27.297,56.704 27.113,55.949 26.93,55.192C26.893,55.042 26.856,54.891 26.819,54.739C26.347,54.505 25.862,54.284 25.367,54.076C25.439,54.349 25.51,54.622 25.579,54.894C25.822,55.838 26.063,56.778 26.325,57.71C26.678,58.965 27.054,60.234 27.432,61.485ZM27.942,56.559C28.194,56.605 28.451,56.676 28.707,56.766C28.602,56.379 28.499,55.99 28.397,55.6C28.134,55.443 27.866,55.29 27.593,55.142C27.709,55.615 27.824,56.088 27.942,56.559ZM33.856,63.273C33.984,62.877 34.031,62.511 34.023,62.16C33.987,62.269 33.946,62.377 33.9,62.484C33.887,62.44 33.874,62.395 33.861,62.351C33.587,61.422 33.306,60.474 33.032,59.522C32.898,59.359 32.761,59.2 32.621,59.044C32.969,60.276 33.335,61.511 33.692,62.715C33.746,62.9 33.801,63.086 33.856,63.273ZM17.702,51.879C17.219,51.79 16.733,51.707 16.242,51.631C16.53,52.667 16.787,53.707 17.035,54.731C17.241,55.581 17.446,56.427 17.668,57.265C18.099,58.886 18.572,60.528 19.029,62.117C19.317,63.116 19.611,64.136 19.897,65.159C20.342,65.093 20.786,65.021 21.225,64.939C20.986,64.095 20.744,63.255 20.507,62.429C20.048,60.835 19.573,59.187 19.142,57.559C18.918,56.717 18.712,55.866 18.505,55.012C18.254,53.977 17.993,52.924 17.702,51.879ZM26.002,66.57C26.315,66.544 26.626,66.515 26.933,66.48C26.75,65.833 26.565,65.187 26.379,64.546C26.086,64.623 25.793,64.698 25.498,64.769C25.668,65.367 25.837,65.968 26.002,66.57ZM-109.207,-9.256C-109.685,-9.24 -110.159,-9.229 -110.628,-9.222L-110.533,-8.992C-110.412,-8.697 -110.29,-8.402 -110.166,-8.106C-109.716,-8.176 -109.265,-8.242 -108.814,-8.305C-108.888,-8.481 -108.96,-8.658 -109.033,-8.834L-109.198,-9.233L-109.207,-9.256ZM29.155,67.239C29.521,67.141 29.855,67.042 30.16,66.94L30.153,66.915C29.817,66.998 29.474,67.074 29.127,67.142C29.137,67.174 29.146,67.207 29.155,67.239ZM-120.061,-4.014C-120.365,-3.648 -120.636,-3.276 -120.863,-2.901C-120.732,-2.598 -120.601,-2.297 -120.47,-1.999C-120.171,-2.193 -119.829,-2.386 -119.441,-2.591L-119.496,-2.716C-119.683,-3.145 -119.872,-3.578 -120.061,-4.014ZM-109.9,-6.015C-110.053,-6.369 -110.205,-6.724 -110.356,-7.079C-110.639,-7.034 -110.922,-6.987 -111.203,-6.937C-111.05,-6.577 -110.896,-6.217 -110.741,-5.858C-110.463,-5.915 -110.182,-5.967 -109.9,-6.015ZM-83.333,5.092C-79.77,5.042 -75.898,4.997 -71.845,4.965C-71.767,4.844 -71.653,4.736 -71.507,4.654C-69.751,3.662 -69.095,2.877 -68.011,1.328C-67.208,0.181 -66.868,-1.097 -66.499,-2.446L-66.373,-2.905C-66.298,-3.178 -66.212,-3.464 -66.122,-3.76C-65.868,-4.601 -65.588,-5.513 -65.501,-6.363C-68.705,-4.929 -72.552,-3.542 -77.262,-3.067C-78.983,-2.894 -80.683,-2.809 -82.384,-2.767C-82.261,-2.455 -82.138,-2.142 -82.016,-1.827C-81.298,0.029 -80.555,1.947 -79.614,3.739C-79.549,3.863 -79.617,4.007 -79.765,4.061C-79.804,4.074 -79.844,4.081 -79.883,4.081C-79.996,4.081 -80.104,4.026 -80.152,3.934C-81.105,2.12 -81.853,0.19 -82.575,-1.677C-82.715,-2.037 -82.855,-2.396 -82.997,-2.754C-83.585,-2.743 -84.174,-2.737 -84.763,-2.733C-84.126,-1.094 -83.453,0.576 -82.627,2.149C-82.562,2.273 -82.63,2.417 -82.778,2.471C-82.817,2.485 -82.857,2.491 -82.897,2.491C-83.009,2.491 -83.117,2.437 -83.166,2.345C-84.028,0.703 -84.721,-1.032 -85.38,-2.73C-85.72,-2.729 -86.06,-2.728 -86.402,-2.728C-86.443,-2.728 -86.485,-2.728 -86.527,-2.728C-86.344,-2.296 -86.163,-1.865 -85.985,-1.435C-85.656,-0.635 -85.342,0.176 -85.027,0.988C-84.501,2.349 -83.956,3.74 -83.333,5.092ZM19.428,67.665C19.612,67.672 19.796,67.681 19.979,67.689L19.962,67.628C19.779,67.622 19.596,67.615 19.413,67.608L19.428,67.665ZM17.912,67.621C18.216,67.626 18.519,67.634 18.819,67.643L18.803,67.582C18.498,67.568 18.193,67.554 17.89,67.539C17.897,67.566 17.905,67.594 17.912,67.621ZM-111.193,5.167C-111.001,5.188 -110.807,5.208 -110.614,5.227C-110.878,4.574 -111.131,3.922 -111.381,3.277C-111.695,2.468 -112.007,1.661 -112.335,0.865C-112.971,-0.678 -113.652,-2.238 -114.31,-3.747C-114.35,-3.838 -114.389,-3.928 -114.429,-4.019C-114.586,-3.94 -114.741,-3.858 -114.892,-3.774C-114.834,-3.64 -114.776,-3.506 -114.717,-3.372C-114.056,-1.858 -113.373,-0.294 -112.735,1.256C-112.404,2.058 -112.09,2.87 -111.775,3.684C-111.585,4.175 -111.391,4.671 -111.193,5.167ZM-99.713,5.415C-99.301,5.403 -98.86,5.391 -98.394,5.379C-98.802,4.414 -99.18,3.441 -99.55,2.484C-99.863,1.674 -100.176,0.867 -100.504,0.069C-101.14,-1.474 -101.821,-3.033 -102.479,-4.542C-102.965,-5.654 -103.462,-6.793 -103.945,-7.934C-104.303,-7.89 -104.665,-7.846 -105.031,-7.801L-105.224,-7.777C-104.861,-6.93 -104.493,-6.088 -104.132,-5.259C-103.472,-3.748 -102.79,-2.186 -102.153,-0.639C-101.823,0.161 -101.509,0.972 -101.195,1.784C-100.729,2.986 -100.249,4.212 -99.713,5.415ZM-115.926,-7.507C-116.074,-7.414 -116.223,-7.318 -116.37,-7.221C-116.312,-7.082 -116.253,-6.942 -116.194,-6.803C-116.028,-6.853 -115.86,-6.903 -115.691,-6.951C-115.77,-7.136 -115.848,-7.321 -115.926,-7.507ZM-114.677,-8.23C-114.927,-8.097 -115.179,-7.956 -115.43,-7.808C-115.332,-7.573 -115.233,-7.338 -115.134,-7.104C-114.855,-7.177 -114.575,-7.248 -114.291,-7.315C-114.421,-7.62 -114.55,-7.925 -114.677,-8.23ZM-97.777,5.363C-97.476,5.356 -97.166,5.348 -96.846,5.34C-97.343,4.207 -97.792,3.059 -98.228,1.931C-98.542,1.122 -98.854,0.316 -99.182,-0.481C-99.818,-2.027 -100.501,-3.589 -101.161,-5.101C-101.594,-6.093 -102.036,-7.106 -102.469,-8.124C-102.76,-8.085 -103.055,-8.047 -103.353,-8.009C-102.883,-6.899 -102.399,-5.792 -101.927,-4.709C-101.267,-3.199 -100.585,-1.636 -99.948,-0.089C-99.618,0.711 -99.304,1.521 -98.99,2.334C-98.602,3.335 -98.207,4.355 -97.777,5.363ZM30.517,65.786C30.793,65.705 31.064,65.616 31.33,65.521C31.11,64.798 30.89,64.079 30.671,63.369C30.633,63.248 30.595,63.126 30.557,63.004C30.348,63.161 30.111,63.3 29.843,63.429C30.068,64.206 30.293,64.994 30.517,65.786Z" style="fill:rgb(178,110,4);"/>
            </g>
            <g transform="matrix(1.78276,0,0,1.78276,-338.095,250.832)">
                <path d="M468.104,96.169C473.315,93.043 479.612,89.014 494.259,89.972C511.534,91.102 521.362,100.52 527.371,108.785C533.319,116.964 543.667,138.827 542.872,161.691C542.03,185.923 534.733,195.467 523.453,201.96C516.546,205.937 507.973,205.594 501.283,202.423C496.778,200.287 493.134,196.873 491.381,192.67C486.957,182.063 493.437,172.115 503.037,170.09C512.739,168.043 521.663,175.194 520.524,184.933C520.019,189.254 517.918,192.27 515.024,193.843C512.147,195.406 508.449,195.549 504.658,194.017C499.793,192.051 498.658,187.922 498.966,184.483C499.174,182.157 500.078,180.164 500.883,179.328C501.886,178.288 502.927,178.048 503.7,178.159C504.467,178.268 505.039,178.72 505.317,179.288C505.596,179.86 505.609,180.576 505.152,181.268C504.533,182.525 504.062,183.709 503.871,184.796C503.706,185.74 503.752,186.599 504.17,187.342C504.773,188.414 506.078,189.198 508.268,189.765C513.758,191.187 516.833,183.752 512.692,178.905C510.56,176.409 507.339,175.942 504.42,176.773C501.445,177.621 498.75,179.811 497.772,182.714C495.792,188.591 499.806,193.952 506.783,195.848C513.953,197.796 522.773,192.218 525.652,183.569C528.609,174.685 525.491,162.115 520.485,155.313C517.516,151.278 512.158,148.861 507.845,147.664C505.248,146.943 503.041,146.647 502.004,146.78C499.729,148.626 497.904,150.808 496.26,152.567C495.032,153.881 493.887,154.968 492.756,155.591C491.228,156.431 489.354,157.855 487.288,158.993C485.037,160.233 482.568,161.122 480.068,160.788C477.658,160.467 476.331,161.098 475.03,161.482C473.429,161.956 471.86,162.181 469.037,160.683C467.699,159.973 467.277,159.171 467.26,158.557C467.245,158.035 467.478,157.5 468.026,157.029C468.583,156.55 469.563,156.092 470.756,155.697C473.152,154.905 476.469,154.293 478.274,153.82C484.88,149.96 487.169,147.381 489.529,142.227C484.818,141.241 478.213,137.346 476.2,136.113C474.803,137.251 471.117,140.26 470.147,141.125C469.722,141.504 468.875,141.932 467.749,142.316C465.437,143.104 461.857,143.811 458.931,143.993C456.499,144.144 455.546,143.825 454.712,143.422C454.039,143.098 453.47,142.67 451.907,142.42C450.999,142.274 449.127,142.248 447.43,142.051C446.136,141.901 444.938,141.637 444.209,141.218C443.568,140.849 443.207,140.35 443.113,139.785C443.028,139.277 443.151,138.64 443.733,137.911C444.797,136.577 446.704,135.847 449.011,135.583C452.046,135.237 455.799,135.651 458.838,136.052C460.558,135.682 461.861,134.643 462.928,133.261C463.852,132.066 464.601,130.621 465.269,129.089C459.912,129.157 452.199,128.571 444.04,124.255C435.308,119.635 430.578,116.731 426.528,115.039C422.001,113.148 421.873,109.072 422.505,104.213C422.545,103.913 422.72,103.647 422.982,103.495C424.21,102.777 426,102.22 427.813,101.603C429.452,101.045 431.115,100.439 432.294,99.536C438.629,94.678 443.566,93.299 447.633,92.435C454.135,91.054 454.819,89.95 459.859,86.773C461.286,85.874 462.531,84.743 463.93,83.799C465.469,82.76 467.179,81.936 469.422,81.766C469.686,81.746 469.947,81.834 470.145,82.009C470.344,82.185 470.462,82.434 470.473,82.699C470.722,88.455 469.271,93.283 468.104,96.169ZM425.539,112.101C425.982,112.547 426.553,112.928 427.282,113.233C431.369,114.94 436.145,117.864 444.955,122.525C453.532,127.062 461.597,127.272 466.719,127.098C467.049,127.086 467.363,127.243 467.553,127.514C467.743,127.784 467.783,128.133 467.66,128.44C465.828,133.008 463.447,137.171 459.052,138.005C458.95,138.024 458.844,138.027 458.741,138.014C455.823,137.625 452.174,137.192 449.233,137.528C447.52,137.723 446.053,138.142 445.262,139.132C445.184,139.229 445.11,139.368 445.072,139.443C445.105,139.468 445.149,139.501 445.184,139.521C445.355,139.619 445.568,139.698 445.807,139.769C447.697,140.326 450.932,140.281 452.217,140.488C453.74,140.732 454.491,141.107 455.15,141.45C455.929,141.855 456.549,142.18 458.809,142.04C461.566,141.868 464.939,141.206 467.118,140.463C467.918,140.191 468.543,139.934 468.845,139.664C470.062,138.579 475.507,134.154 475.507,134.154C475.835,133.887 476.298,133.861 476.654,134.09C476.654,134.09 485.817,140.043 491.024,140.479C491.338,140.505 491.62,140.68 491.782,140.951C491.943,141.221 491.965,141.552 491.841,141.841C489.08,148.241 486.823,151.108 479.143,155.579C479.069,155.622 478.989,155.656 478.905,155.678C476.793,156.246 472.27,157.007 470.018,158.081C469.765,158.202 469.489,158.399 469.328,158.521C469.471,158.639 469.712,158.826 469.955,158.954C472.561,160.338 473.775,159.829 475.314,159.343C476.592,158.939 478.052,158.545 480.327,158.849C482.416,159.128 484.462,158.315 486.344,157.279C488.41,156.141 490.285,154.716 491.813,153.876C492.794,153.336 493.766,152.37 494.83,151.231C496.579,149.36 498.533,147.035 500.979,145.093C501.095,145.001 501.23,144.937 501.374,144.904C502.443,144.665 505.154,144.886 508.369,145.778C513.054,147.079 518.835,149.77 522.061,154.153C527.38,161.381 530.651,174.746 527.508,184.187C524.287,193.865 514.293,199.916 506.269,197.736C498.052,195.503 493.586,189.012 495.917,182.09C497.095,178.593 500.301,175.912 503.884,174.891C507.525,173.854 511.521,174.52 514.18,177.634C519.624,184.007 514.996,193.528 507.778,191.66C504.886,190.911 503.26,189.716 502.464,188.301C501.282,186.199 501.895,183.432 503.43,180.335C503.453,180.289 503.479,180.245 503.509,180.203C503.521,180.186 503.534,180.159 503.543,180.141C503.516,180.127 503.463,180.102 503.423,180.096C503.1,180.05 502.712,180.251 502.292,180.686C501.677,181.325 501.074,182.88 500.915,184.658C500.672,187.375 501.548,190.649 505.391,192.202C508.572,193.488 511.676,193.435 514.089,192.123C516.486,190.821 518.162,188.284 518.581,184.706C519.562,176.315 511.8,170.241 503.441,172.005C494.979,173.79 489.288,182.568 493.187,191.917C494.763,195.696 498.07,198.735 502.121,200.655C508.264,203.567 516.135,203.915 522.477,200.264C533.28,194.046 540.11,184.83 540.916,161.623C541.693,139.287 531.599,117.926 525.789,109.936C520.041,102.032 510.652,93.006 494.132,91.925C477.538,90.839 472.068,96.444 466.343,99.427C465.955,99.629 465.48,99.549 465.18,99.231C464.88,98.913 464.827,98.434 465.051,98.058C465.051,98.058 468.588,92.101 468.544,83.858C466.815,84.206 465.486,85.054 464.231,85.985C463.124,86.806 462.072,87.692 460.902,88.429C455.605,91.767 454.873,92.898 448.039,94.349C444.181,95.169 439.496,96.479 433.484,101.089C432.155,102.108 430.293,102.826 428.443,103.455C426.961,103.96 425.489,104.405 424.383,104.961C424.161,106.739 424.023,108.399 424.334,109.801C424.342,109.802 424.351,109.804 424.36,109.806C424.36,109.806 439.312,113.278 447.677,116.837C450.098,117.867 451.852,118.499 453.2,118.808C454.364,119.075 455.175,119.095 455.855,118.885C456.819,118.587 457.512,117.874 458.536,116.995C458.946,116.643 459.564,116.69 459.916,117.1C460.268,117.51 460.221,118.128 459.811,118.48C458.539,119.572 457.63,120.384 456.434,120.754C454.696,121.292 452.259,120.913 446.911,118.638C440.324,115.835 429.594,113.093 425.539,112.101ZM447.294,95.061C451.897,95.061 455.633,98.797 455.633,103.399C455.633,108.002 451.897,111.738 447.294,111.738C442.692,111.738 438.956,108.002 438.956,103.399C438.956,98.797 442.692,95.061 447.294,95.061ZM447.294,97.018C443.772,97.018 440.913,99.877 440.913,103.399C440.913,106.922 443.772,109.781 447.294,109.781C450.816,109.781 453.676,106.922 453.676,103.399C453.676,99.877 450.816,97.018 447.294,97.018ZM447.294,101.147C448.538,101.147 449.547,102.156 449.547,103.399C449.547,104.643 448.538,105.652 447.294,105.652C446.051,105.652 445.041,104.643 445.041,103.399C445.041,102.156 446.051,101.147 447.294,101.147ZM447.294,103.103C447.131,103.103 446.998,103.236 446.998,103.399C446.998,103.563 447.131,103.695 447.294,103.695C447.458,103.695 447.59,103.563 447.59,103.399C447.59,103.236 447.458,103.103 447.294,103.103Z" style="fill:rgb(178,110,4);"/>
            </g>
            <g transform="matrix(3.7177,0,0,3.7177,-670.878,-242.347)">
                <g transform="matrix(10.51,0,0,10.51,488.472,253.072)">
                </g>
                <text x="418.581px" y="253.072px" style="font-family:'AeonikTRIAL-Regular', 'Aeonik TRIAL', sans-serif;font-size:10.51px;fill:rgb(42,35,30);">A<tspan x="425.265px " y="253.072px ">c</tspan>hur<tspan x="445.98px " y="253.072px ">a</tspan>do r<tspan x="469.891px " y="253.072px ">e</tspan>tr<tspan x="482.355px " y="253.072px ">o</tspan></text>
            </g>
            <g transform="matrix(3.7177,0,0,3.7177,-168.239,-242.347)">
                <g transform="matrix(10.51,0,0,10.51,480.143,253.072)">
                </g>
                <text x="426.91px" y="253.072px" style="font-family:'AeonikTRIAL-Regular', 'Aeonik TRIAL', sans-serif;font-size:10.51px;fill:rgb(42,35,30);">Ornament<tspan x="474.026px " y="253.072px ">o</tspan></text>
            </g>
            <g transform="matrix(3.7177,0,0,3.7177,-1163.73,-242.347)">
                <text x="429.752px" y="253.072px" style="font-family:'AeonikTRIAL-Regular', 'Aeonik TRIAL', sans-serif;font-size:10.51px;fill:rgb(42,35,30);">Camale</text>
                <text x="465.56px" y="253.072px" style="font-family:'Helvetica';font-size:10.51px;fill:rgb(42,35,30);"></text>
                <g transform="matrix(10.51,0,0,10.51,477.301,253.072)">
                </g>
                <text x="471.405px" y="253.072px" style="font-family:'AeonikTRIAL-Regular', 'Aeonik TRIAL', sans-serif;font-size:10.51px;fill:rgb(42,35,30);">n</text>
            </g>
            <g transform="matrix(-1.43146,-1.75304e-16,1.75304e-16,-1.43146,1566.97,440.581)">
                <path d="M34.269,28.705C-6.925,28.705 -40.37,-4.74 -40.37,-45.934C-40.37,-87.128 -6.925,-120.572 34.269,-120.572C75.463,-120.572 108.907,-87.128 108.907,-45.934C108.907,-4.74 75.463,28.705 34.269,28.705ZM34.269,26.267C74.118,26.267 106.47,-6.085 106.47,-45.934C106.47,-85.783 74.118,-118.135 34.269,-118.135C-5.58,-118.135 -37.932,-85.783 -37.932,-45.934C-37.932,-6.085 -5.58,26.267 34.269,26.267ZM81.659,-45.934C84.108,-45.235 86.318,-44.172 88.233,-42.782C93.271,-39.127 96.311,-33.207 96.303,-25.593C96.297,-19.824 95.079,-15.293 92.55,-11.686C90.023,-8.082 86.176,-5.387 80.826,-3.343C79.155,-2.704 77.465,-2.259 75.773,-1.993C77.078,1.106 77.626,4.415 76.923,7.405C76.401,9.621 74.873,11.431 72.808,12.727C69.868,14.573 65.834,15.37 62.366,14.892C58.262,14.327 54.978,12.01 54.791,7.792C54.697,5.695 55.833,3.455 57.594,1.943C59.381,0.409 61.777,-0.36 64.083,0.402C65.853,0.988 66.735,2.108 67.013,3.3C67.64,5.985 64.953,9.381 61.209,8.748C60.679,8.658 60.321,8.155 60.41,7.624C60.5,7.094 61.004,6.736 61.534,6.825C62.903,7.057 64.063,6.432 64.687,5.535C65.066,4.989 65.254,4.341 65.115,3.743C64.965,3.101 64.424,2.569 63.47,2.253C61.828,1.71 60.137,2.329 58.864,3.422C57.566,4.537 56.67,6.16 56.738,7.705C56.881,10.913 59.511,12.53 62.632,12.961C65.667,13.379 69.199,12.691 71.772,11.076C73.382,10.065 74.618,8.688 75.025,6.959C75.644,4.326 75.105,1.416 73.945,-1.309C73.881,-1.459 73.815,-1.61 73.747,-1.759C65.163,-1.122 56.735,-4.956 50.851,-11.349C51,-5.97 50.814,-1.383 48.144,3.595C46.219,7.182 44.762,9.179 42.807,10.404C40.865,11.621 38.401,12.083 34.363,12.466C34.362,12.466 34.361,12.466 34.361,12.466C34.3,12.472 34.238,12.472 34.177,12.466C30.137,12.083 27.672,11.62 25.73,10.403C23.775,9.178 22.319,7.181 20.394,3.594C17.723,-1.384 17.536,-5.97 17.685,-11.349C11.802,-4.956 3.375,-1.122 -5.21,-1.759C-5.278,-1.609 -5.344,-1.459 -5.408,-1.309C-6.568,1.416 -7.106,4.326 -6.487,6.959C-6.081,8.688 -4.846,10.065 -3.235,11.076C-0.662,12.691 2.869,13.379 5.904,12.961C9.026,12.53 11.656,10.913 11.799,7.705C11.867,6.16 10.971,4.537 9.673,3.422C8.399,2.33 6.709,1.71 5.067,2.253C4.113,2.569 3.572,3.101 3.423,3.743C3.283,4.341 3.471,4.989 3.851,5.535C4.474,6.432 5.634,7.057 7.003,6.825C7.534,6.736 8.037,7.094 8.127,7.624C8.216,8.155 7.859,8.658 7.328,8.748C3.585,9.381 0.897,5.985 1.524,3.3C1.802,2.108 2.684,0.988 4.454,0.402C6.759,-0.36 9.156,0.409 10.942,1.943C12.704,3.455 13.84,5.695 13.746,7.792C13.559,12.01 10.275,14.327 6.17,14.892C2.702,15.37 -1.332,14.573 -4.272,12.727C-6.336,11.431 -7.864,9.621 -8.385,7.405C-9.088,4.415 -8.54,1.106 -7.236,-1.993C-8.928,-2.259 -10.619,-2.704 -12.29,-3.342C-17.64,-5.386 -21.487,-8.082 -24.013,-11.686C-26.542,-15.293 -27.759,-19.825 -27.766,-25.593C-27.775,-33.207 -24.735,-39.127 -19.697,-42.783C-17.781,-44.172 -15.571,-45.235 -13.122,-45.934C-15.571,-46.632 -17.781,-47.695 -19.696,-49.085C-24.734,-52.74 -27.774,-58.66 -27.766,-66.274C-27.759,-72.043 -26.542,-76.574 -24.012,-80.182C-21.486,-83.785 -17.639,-86.481 -12.289,-88.525C-10.618,-89.163 -8.927,-89.608 -7.235,-89.874C-8.54,-92.973 -9.088,-96.282 -8.385,-99.272C-7.864,-101.489 -6.336,-103.298 -4.271,-104.594C-1.331,-106.44 2.703,-107.237 6.171,-106.759C10.276,-106.194 13.56,-103.877 13.747,-99.659C13.84,-97.563 12.704,-95.322 10.943,-93.81C9.157,-92.277 6.76,-91.507 4.455,-92.269C2.684,-92.855 1.803,-93.975 1.524,-95.167C0.897,-97.852 3.585,-101.248 7.328,-100.615C7.859,-100.526 8.217,-100.022 8.127,-99.492C8.037,-98.961 7.534,-98.603 7.003,-98.693C5.634,-98.924 4.475,-98.299 3.851,-97.402C3.471,-96.856 3.283,-96.209 3.423,-95.61C3.573,-94.968 4.114,-94.436 5.067,-94.12C6.71,-93.577 8.4,-94.197 9.673,-95.29C10.972,-96.404 11.868,-98.027 11.799,-99.573C11.657,-102.781 9.027,-104.398 5.905,-104.828C2.87,-105.246 -0.661,-104.558 -3.234,-102.943C-4.845,-101.932 -6.08,-100.555 -6.487,-98.826C-7.106,-96.193 -6.568,-93.284 -5.408,-90.558C-5.344,-90.408 -5.278,-90.258 -5.21,-90.108C3.375,-90.745 11.802,-86.911 17.686,-80.518C17.537,-85.897 17.724,-90.484 20.394,-95.462C22.319,-99.049 23.775,-101.046 25.73,-102.271C27.673,-103.488 30.136,-103.95 34.174,-104.333C34.175,-104.334 34.176,-104.334 34.177,-104.334C34.238,-104.339 34.299,-104.339 34.361,-104.334C38.401,-103.95 40.865,-103.488 42.808,-102.271C44.763,-101.046 46.219,-99.049 48.143,-95.461C50.815,-90.484 51.001,-85.897 50.853,-80.519C56.736,-86.911 65.163,-90.745 73.748,-90.109C73.815,-90.258 73.881,-90.408 73.945,-90.558C75.106,-93.284 75.644,-96.193 75.025,-98.826C74.618,-100.555 73.383,-101.932 71.772,-102.943C69.2,-104.558 65.668,-105.246 62.633,-104.828C59.511,-104.398 56.882,-102.781 56.739,-99.573C56.67,-98.027 57.567,-96.404 58.865,-95.29C60.138,-94.197 61.828,-93.577 63.471,-94.12C64.424,-94.436 64.965,-94.968 65.115,-95.61C65.255,-96.209 65.067,-96.856 64.687,-97.402C64.063,-98.299 62.904,-98.924 61.534,-98.693C61.004,-98.603 60.5,-98.961 60.411,-99.492C60.321,-100.022 60.679,-100.526 61.209,-100.615C64.953,-101.248 67.641,-97.852 67.014,-95.167C66.735,-93.975 65.854,-92.855 64.083,-92.269C61.778,-91.507 59.382,-92.277 57.595,-93.81C55.834,-95.322 54.698,-97.563 54.791,-99.659C54.979,-103.877 58.263,-106.194 62.367,-106.759C65.835,-107.237 69.869,-106.44 72.809,-104.594C74.874,-103.298 76.402,-101.489 76.923,-99.272C77.626,-96.282 77.078,-92.974 75.773,-89.875C77.465,-89.609 79.156,-89.164 80.827,-88.525C86.177,-86.481 90.024,-83.785 92.55,-80.182C95.079,-76.574 96.297,-72.043 96.303,-66.274C96.312,-58.66 93.273,-52.74 88.234,-49.085C86.319,-47.695 84.109,-46.632 81.659,-45.934ZM74.897,-3.836C76.648,-4.066 78.4,-4.503 80.131,-5.164C85.056,-7.046 88.627,-9.487 90.954,-12.805C93.277,-16.119 94.347,-20.295 94.354,-25.595C94.361,-32.499 91.656,-37.89 87.088,-41.204C83.735,-43.638 79.398,-44.95 74.433,-44.959C74.393,-44.959 74.353,-44.959 74.313,-44.959C72.482,-44.955 70.567,-44.775 68.585,-44.409C56.505,-42.178 54.063,-24.283 66.514,-22.229C68.905,-21.834 72.096,-22.29 74.582,-23.619C76.897,-24.857 78.603,-26.884 78.198,-29.786C77.914,-31.817 76.53,-33.45 74.761,-34.512C72.937,-35.607 70.692,-36.103 68.702,-35.761C68.172,-35.669 67.667,-36.026 67.576,-36.556C67.485,-37.086 67.841,-37.591 68.371,-37.682C70.797,-38.1 73.54,-37.518 75.764,-36.184C78.042,-34.817 79.763,-32.671 80.129,-30.056C80.661,-26.249 78.538,-23.524 75.501,-21.9C72.635,-20.367 68.954,-19.85 66.197,-20.305C61.987,-21 59.198,-23.243 57.699,-26.145C57.585,-25.246 57.272,-24.4 56.767,-23.672C55.712,-22.151 53.809,-21.08 51.031,-21.143C47.19,-21.232 45.753,-23.863 45.948,-26.051C46.076,-27.477 46.908,-28.745 48.245,-29.243C49.092,-29.559 50.168,-29.579 51.429,-29.041C51.924,-28.829 52.154,-28.256 51.943,-27.761C51.732,-27.266 51.159,-27.036 50.664,-27.247C49.855,-27.593 49.191,-27.596 48.706,-27.312C48.004,-26.901 47.745,-25.972 47.944,-25.121C48.195,-24.047 49.214,-23.135 51.076,-23.093C53.036,-23.048 54.42,-23.709 55.165,-24.783C56.285,-26.399 55.923,-28.807 54.205,-30.664C52.422,-32.595 50.146,-32.654 47.944,-31.826C44.308,-30.459 40.834,-26.784 39.559,-24.127C36.635,-18.023 35.275,-10.229 35.714,-3.286C36.259,-4.472 36.923,-5.653 37.73,-6.843C40.594,-11.064 43.153,-15.161 50.906,-16.015C55.229,-16.493 62.919,-14.8 66.79,-12.654C69.735,-11.02 72.849,-7.698 74.897,-3.836ZM35.245,10.419C38.251,10.104 40.208,9.732 41.772,8.752C43.502,7.668 44.722,5.847 46.425,2.673C49.308,-2.7 49.044,-7.601 48.823,-13.68C43.616,-12.412 41.61,-9.089 39.343,-5.748C35.869,-0.627 35.28,4.338 35.245,10.419ZM51.075,-14.072C56.396,-7.503 64.461,-3.337 72.771,-3.656C70.927,-6.852 68.33,-9.57 65.845,-10.949C62.256,-12.939 55.128,-14.52 51.119,-14.077C51.105,-14.076 51.09,-14.074 51.075,-14.072ZM-4.234,-3.655C4.077,-3.337 12.141,-7.503 17.462,-14.072C17.447,-14.074 17.432,-14.076 17.417,-14.077C13.409,-14.52 6.281,-12.939 2.692,-10.949C0.207,-9.57 -2.39,-6.851 -4.234,-3.655ZM19.713,-13.68C19.493,-7.601 19.229,-2.7 22.112,2.672C23.815,5.847 25.035,7.667 26.765,8.751C28.329,9.731 30.286,10.104 33.292,10.419C33.256,4.338 32.668,-0.627 29.193,-5.748C26.927,-9.089 24.921,-12.412 19.713,-13.68ZM-5.895,-44.959C-10.861,-44.949 -15.198,-43.638 -18.552,-41.204C-23.12,-37.89 -25.824,-32.499 -25.816,-25.595C-25.81,-20.295 -24.74,-16.119 -22.417,-12.805C-20.09,-9.487 -16.519,-7.046 -11.594,-5.164C-9.863,-4.502 -8.111,-4.066 -6.36,-3.835C-4.312,-7.698 -1.198,-11.02 1.747,-12.654C5.618,-14.8 13.308,-16.493 17.631,-16.015C25.384,-15.161 27.943,-11.064 30.806,-6.843C31.436,-5.915 31.978,-4.993 32.445,-4.069C32.724,-10.816 31.424,-18.264 28.745,-24.144C27.537,-26.796 24.245,-30.467 20.796,-31.831C18.732,-32.648 16.599,-32.586 14.928,-30.683C13.287,-28.814 12.947,-26.39 14.018,-24.764C14.716,-23.705 16.013,-23.049 17.85,-23.093C19.177,-23.125 20.047,-23.644 20.489,-24.377C21.054,-25.318 20.947,-26.566 20.24,-27.191C19.797,-27.582 19.124,-27.634 18.28,-27.255C17.789,-27.034 17.212,-27.254 16.991,-27.745C16.771,-28.235 16.99,-28.813 17.481,-29.033C19.233,-29.82 20.614,-29.462 21.531,-28.652C22.862,-27.475 23.224,-25.143 22.159,-23.373C21.436,-22.17 20.071,-21.196 17.897,-21.143C15.231,-21.079 13.403,-22.155 12.39,-23.691C11.636,-24.836 11.333,-26.271 11.514,-27.748C10.284,-24.087 7.297,-21.123 2.34,-20.305C-0.417,-19.85 -4.099,-20.367 -6.965,-21.899C-10.001,-23.523 -12.124,-26.248 -11.591,-30.056C-11.226,-32.671 -9.505,-34.818 -7.227,-36.185C-5.003,-37.519 -2.26,-38.1 0.166,-37.682C0.696,-37.59 1.052,-37.086 0.961,-36.555C0.869,-36.025 0.365,-35.669 -0.166,-35.76C-2.155,-36.103 -4.4,-35.607 -6.224,-34.513C-7.993,-33.451 -9.377,-31.817 -9.661,-29.786C-10.066,-26.883 -8.36,-24.857 -6.045,-23.619C-3.56,-22.289 -0.369,-21.834 2.022,-22.229C14.474,-24.283 12.033,-42.179 -0.047,-44.408C-2.029,-44.774 -3.945,-44.955 -5.775,-44.959C-5.815,-44.959 -5.855,-44.959 -5.895,-44.959ZM-6.359,-88.032C-8.11,-87.801 -9.862,-87.365 -11.593,-86.703C-16.519,-84.821 -20.09,-82.38 -22.416,-79.062C-24.74,-75.748 -25.81,-71.572 -25.816,-66.272C-25.823,-59.369 -23.119,-53.977 -18.551,-50.663C-15.197,-48.23 -10.86,-46.918 -5.895,-46.908C-5.855,-46.908 -5.815,-46.908 -5.775,-46.908C-3.945,-46.912 -2.029,-47.093 -0.047,-47.459C12.033,-49.689 14.475,-67.584 2.023,-69.638C-0.368,-70.033 -3.559,-69.578 -6.044,-68.248C-8.359,-67.01 -10.066,-64.984 -9.661,-62.081C-9.376,-60.05 -7.992,-58.417 -6.223,-57.355C-4.4,-56.261 -2.154,-55.764 -0.164,-56.107C0.366,-56.198 0.87,-55.842 0.962,-55.311C1.053,-54.781 0.697,-54.276 0.166,-54.185C-2.26,-53.768 -5.003,-54.349 -7.226,-55.683C-9.504,-57.05 -11.226,-59.197 -11.591,-61.811C-12.123,-65.618 -10,-68.344 -6.964,-69.968C-4.098,-71.5 -0.416,-72.017 2.341,-71.562C6.551,-70.867 9.34,-68.625 10.838,-65.722C10.952,-66.621 11.266,-67.467 11.771,-68.195C12.825,-69.716 14.729,-70.787 17.506,-70.724C21.347,-70.636 22.785,-68.005 22.589,-65.816C22.462,-64.39 21.629,-63.123 20.293,-62.624C19.446,-62.308 18.369,-62.289 17.108,-62.827C16.614,-63.038 16.383,-63.611 16.594,-64.106C16.806,-64.601 17.379,-64.831 17.874,-64.62C18.683,-64.275 19.347,-64.271 19.831,-64.555C20.533,-64.967 20.792,-65.895 20.594,-66.746C20.343,-67.82 19.324,-68.732 17.462,-68.775C15.501,-68.819 14.117,-68.158 13.373,-67.084C12.252,-65.468 12.615,-63.06 14.332,-61.203C16.115,-59.273 18.391,-59.214 20.594,-60.042C24.23,-61.409 27.704,-65.083 28.978,-67.741C31.902,-73.844 33.262,-81.639 32.824,-88.582C32.279,-87.395 31.615,-86.214 30.808,-85.025C27.943,-80.803 25.384,-76.706 17.632,-75.852C13.308,-75.375 5.618,-77.067 1.747,-79.213C-1.197,-80.847 -4.311,-84.169 -6.359,-88.032ZM33.292,-102.286C30.287,-101.972 28.33,-101.599 26.765,-100.619C25.035,-99.535 23.815,-97.715 22.112,-94.54C19.23,-89.168 19.494,-84.266 19.714,-78.187C24.921,-79.456 26.927,-82.778 29.194,-86.119C32.668,-91.24 33.258,-96.205 33.292,-102.286ZM17.463,-77.795C12.141,-84.364 4.077,-88.53 -4.233,-88.212C-2.39,-85.016 0.208,-82.297 2.693,-80.918C6.282,-78.929 13.409,-77.347 17.418,-77.79C17.433,-77.792 17.448,-77.793 17.463,-77.795ZM72.771,-88.212C64.461,-88.53 56.396,-84.364 51.075,-77.795C51.09,-77.793 51.106,-77.792 51.121,-77.79C55.128,-77.347 62.256,-78.929 65.845,-80.918C68.33,-82.297 70.928,-85.016 72.771,-88.212ZM48.824,-78.187C49.045,-84.266 49.309,-89.167 46.425,-94.539C44.722,-97.714 43.502,-99.534 41.772,-100.618C40.208,-101.599 38.251,-101.971 35.245,-102.287C35.281,-96.205 35.869,-91.24 39.345,-86.119C41.611,-82.778 43.617,-79.456 48.824,-78.187ZM74.433,-46.908C79.398,-46.918 83.736,-48.23 87.089,-50.663C91.657,-53.977 94.362,-59.368 94.354,-66.272C94.347,-71.572 93.278,-75.748 90.954,-79.062C88.628,-82.381 85.057,-84.822 80.132,-86.704C78.401,-87.365 76.648,-87.801 74.897,-88.032C72.849,-84.169 69.735,-80.847 66.791,-79.213C62.92,-77.067 55.229,-75.375 50.907,-75.852C43.153,-76.706 40.595,-80.803 37.731,-85.025C37.102,-85.952 36.559,-86.874 36.093,-87.798C35.814,-81.051 37.113,-73.604 39.792,-67.723C41,-65.071 44.292,-61.4 47.741,-60.036C49.805,-59.219 51.938,-59.282 53.61,-61.185C55.251,-63.053 55.591,-65.477 54.519,-67.103C53.822,-68.162 52.525,-68.819 50.688,-68.775C49.361,-68.743 48.49,-68.224 48.049,-67.49C47.483,-66.549 47.591,-65.301 48.298,-64.676C48.74,-64.286 49.413,-64.233 50.258,-64.613C50.749,-64.833 51.326,-64.613 51.546,-64.123C51.767,-63.632 51.547,-63.054 51.056,-62.834C49.305,-62.047 47.924,-62.405 47.007,-63.215C45.676,-64.392 45.313,-66.724 46.378,-68.494C47.101,-69.697 48.466,-70.671 50.641,-70.724C53.307,-70.788 55.135,-69.713 56.147,-68.176C56.902,-67.032 57.204,-65.596 57.024,-64.12C58.253,-67.78 61.241,-70.744 66.198,-71.562C68.955,-72.017 72.636,-71.501 75.502,-69.968C78.538,-68.344 80.661,-65.619 80.129,-61.811C79.764,-59.196 78.042,-57.05 75.764,-55.683C73.541,-54.348 70.798,-53.767 68.372,-54.186C67.842,-54.277 67.485,-54.782 67.577,-55.312C67.668,-55.842 68.173,-56.198 68.703,-56.107C70.692,-55.764 72.938,-56.26 74.761,-57.355C76.53,-58.416 77.914,-60.05 78.198,-62.081C78.604,-64.984 76.897,-67.011 74.582,-68.249C72.097,-69.578 68.906,-70.033 66.515,-69.638C54.064,-67.585 56.505,-49.689 68.584,-47.459C70.567,-47.093 72.482,-46.912 74.313,-46.908C74.353,-46.908 74.393,-46.908 74.433,-46.908ZM56.394,-31.047C56.033,-37.113 59.696,-43.839 66.613,-45.934C59.111,-48.205 55.438,-55.924 56.573,-62.341C56.241,-61.491 55.744,-60.66 55.075,-59.898C52.776,-57.281 49.862,-57.1 47.024,-58.223C43.12,-59.767 39.385,-63.913 38.018,-66.915C36.828,-69.527 35.898,-72.435 35.244,-75.457L35.244,-55.146C35.244,-54.608 34.807,-54.171 34.269,-54.171C33.731,-54.171 33.294,-54.608 33.294,-55.146L33.294,-73.969C32.639,-71.476 31.783,-69.084 30.736,-66.898C29.299,-63.901 25.38,-59.758 21.28,-58.217C18.325,-57.106 15.292,-57.29 12.9,-59.88C12.619,-60.183 12.367,-60.498 12.144,-60.82C12.504,-54.754 8.841,-48.028 1.925,-45.934C9.426,-43.662 13.1,-35.943 11.965,-29.526C12.296,-30.377 12.794,-31.207 13.463,-31.969C15.761,-34.586 18.675,-34.767 21.513,-33.645C25.417,-32.1 29.152,-27.954 30.52,-24.952C31.71,-22.34 32.64,-19.432 33.294,-16.411L33.294,-36.721C33.294,-37.259 33.73,-37.696 34.269,-37.696C34.807,-37.696 35.243,-37.259 35.243,-36.721L35.243,-17.898C35.898,-20.391 36.754,-22.784 37.801,-24.969C39.238,-27.966 43.157,-32.109 47.257,-33.65C50.212,-34.761 53.245,-34.577 55.637,-31.988C55.918,-31.684 56.17,-31.37 56.394,-31.047Z" style="fill:rgb(178,110,4);"/>
            </g>
            <g transform="matrix(-1.75304e-16,1.43146,1.43146,1.75304e-16,1564.62,506.117)">
                <path d="M-3.822,-3.821C-5.915,-3.821 -7.612,-2.11 -7.612,-0C-7.612,2.111 -5.915,3.822 -3.822,3.822C-1.728,3.822 -0.031,2.111 -0.031,-0C-0.031,-2.11 -1.728,-3.821 -3.822,-3.821" style="fill:rgb(178,110,4);fill-rule:nonzero;"/>
            </g>
            <g transform="matrix(1.75304e-16,-1.43146,-1.43146,-1.75304e-16,1471.21,506.116)">
                <path d="M3.821,-3.821C5.914,-3.821 7.611,-2.11 7.611,0C7.611,2.112 5.914,3.821 3.821,3.821C1.727,3.821 0.03,2.112 0.03,0C0.03,-2.11 1.727,-3.821 3.821,-3.821" style="fill:rgb(178,110,4);fill-rule:nonzero;"/>
            </g>
            <g transform="matrix(-0.995646,-1.02848,-1.02848,0.995646,1522.77,511.354)">
                <path d="M1.487,-3.507L8.506,-3.507L8.278,3.508L1.258,3.508L1.487,-3.507Z" style="fill:rgb(178,110,4);fill-rule:nonzero;"/>
            </g>
            <g transform="matrix(3.50607e-16,-1.43146,-1.43146,-3.50607e-16,1471.21,520.901)">
                <path d="M-3.822,-3.821C-5.915,-3.821 -7.612,-2.11 -7.612,-0C-7.612,2.111 -5.915,3.822 -3.822,3.822C-1.728,3.822 -0.031,2.111 -0.031,-0C-0.031,-2.11 -1.728,-3.821 -3.822,-3.821" style="fill:rgb(178,110,4);fill-rule:nonzero;"/>
            </g>
            <g transform="matrix(-3.50607e-16,1.43146,1.43146,3.50607e-16,1564.62,520.902)">
                <path d="M3.821,-3.821C5.914,-3.821 7.611,-2.11 7.611,0C7.611,2.112 5.914,3.821 3.821,3.821C1.727,3.821 0.03,2.112 0.03,0C0.03,-2.11 1.727,-3.821 3.821,-3.821" style="fill:rgb(178,110,4);fill-rule:nonzero;"/>
            </g>
            <g transform="matrix(0.995646,1.02848,1.02848,-0.995646,1513.05,522.504)">
                <path d="M1.487,-3.507L8.506,-3.507L8.278,3.508L1.258,3.508L1.487,-3.507Z" style="fill:rgb(178,110,4);fill-rule:nonzero;"/>
            </g>
        </g>
    </g>
</svg>
