<?xml version="1.0" encoding="UTF-8" standalone="no"?>
<!DOCTYPE svg PUBLIC "-//W3C//DTD SVG 1.1//EN" "http://www.w3.org/Graphics/SVG/1.1/DTD/svg11.dtd">
<svg width="100%" height="100%" viewBox="0 0 100 100" version="1.1" xmlns="http://www.w3.org/2000/svg" xmlns:xlink="http://www.w3.org/1999/xlink" xml:space="preserve" xmlns:serif="http://www.serif.com/" style="fill-rule:evenodd;clip-rule:evenodd;stroke-linejoin:round;stroke-miterlimit:2;">
    <g transform="matrix(0.945511,0,0,0.945511,2.72443,2.72443)">
        <path d="M101.763,20L101.763,80C101.763,92.011 92.011,101.763 80,101.763L20,101.763C7.989,101.763 -1.763,92.011 -1.763,80L-1.763,20C-1.763,7.989 7.989,-1.763 20,-1.763L80,-1.763C92.011,-1.763 101.763,7.989 101.763,20ZM98.237,20C98.237,9.935 90.065,1.763 80,1.763L20,1.763C9.935,1.763 1.763,9.935 1.763,20L1.763,80C1.763,90.065 9.935,98.237 20,98.237L80,98.237C90.065,98.237 98.237,90.065 98.237,80L98.237,20Z" style="fill:rgb(189,31,23);"/>
    </g>
    <g transform="matrix(0.35651,0,0,0.354473,-922.493,-1110.3)">
        <path d="M2636.41,3270.43C2636.41,3270.43 2664.17,3214 2726.66,3214C2788.96,3214 2820.01,3270.07 2820.01,3270.07C2820.78,3271.46 2820.8,3273.15 2820.06,3274.56C2820.06,3274.56 2788.93,3333.25 2727.61,3333.25C2666.23,3333.25 2636.44,3274.65 2636.44,3274.65C2635.77,3273.32 2635.76,3271.76 2636.41,3270.43ZM2645.93,3272.49C2651.65,3282.41 2678.46,3323.85 2727.61,3323.85C2776.6,3323.85 2804.37,3282.62 2810.5,3272.41C2804.27,3262.56 2776.38,3223.41 2726.66,3223.41C2676.9,3223.41 2651.42,3262.85 2645.93,3272.49ZM2764.26,3284.63C2759.57,3300.15 2745.22,3311.45 2728.27,3311.45C2707.51,3311.45 2690.66,3294.5 2690.66,3273.63C2690.66,3252.75 2707.51,3235.8 2728.27,3235.8C2749.02,3235.8 2765.88,3252.75 2765.88,3273.63C2765.88,3276.5 2765.56,3279.3 2764.95,3282C2764.98,3282.94 2764.73,3283.85 2764.26,3284.63ZM2756.15,3278.27C2756.4,3276.76 2756.53,3275.21 2756.53,3273.63C2756.53,3257.94 2743.86,3245.2 2728.27,3245.2C2726.7,3245.2 2725.15,3245.33 2723.65,3245.58C2723.41,3247.09 2723.28,3248.64 2723.28,3250.22C2723.28,3265.91 2735.94,3278.64 2751.54,3278.64C2753.11,3278.64 2754.65,3278.51 2756.15,3278.27ZM2713.94,3249.12C2705.61,3254.07 2700.01,3263.2 2700.01,3273.63C2700.01,3289.31 2712.67,3302.05 2728.27,3302.05C2738.64,3302.05 2747.71,3296.42 2752.63,3288.03C2752.27,3288.04 2751.9,3288.05 2751.54,3288.05C2730.78,3288.05 2713.93,3271.1 2713.93,3250.22C2713.93,3249.85 2713.93,3249.49 2713.94,3249.12ZM2665.59,3220.13C2667.59,3221.78 2667.88,3224.74 2666.24,3226.75C2664.6,3228.75 2661.65,3229.04 2659.66,3227.4L2636.73,3208.45C2634.74,3206.81 2634.45,3203.84 2636.08,3201.84C2637.72,3199.83 2640.67,3199.54 2642.66,3201.19L2665.59,3220.13ZM2659.66,3319.22C2661.65,3317.58 2664.6,3317.87 2666.24,3319.87C2667.88,3321.88 2667.59,3324.84 2665.59,3326.49L2642.66,3345.43C2640.67,3347.08 2637.72,3346.79 2636.08,3344.78C2634.45,3342.78 2634.74,3339.81 2636.73,3338.16L2659.66,3319.22ZM2690.92,3184.81C2690.07,3182.36 2691.36,3179.68 2693.79,3178.82C2696.23,3177.97 2698.9,3179.26 2699.74,3181.71L2707.89,3205.19C2708.74,3207.64 2707.45,3210.32 2705.01,3211.18C2702.58,3212.03 2699.91,3210.74 2699.06,3208.29L2690.92,3184.81ZM2699.74,3364.9C2698.9,3367.35 2696.23,3368.65 2693.79,3367.8C2691.36,3366.94 2690.07,3364.26 2690.92,3361.81L2699.06,3338.33C2699.91,3335.88 2702.58,3334.59 2705.01,3335.44C2707.45,3336.29 2708.74,3338.98 2707.89,3341.43L2699.74,3364.9ZM2755.96,3209.35C2755.06,3211.78 2752.36,3213.01 2749.94,3212.09C2747.53,3211.18 2746.3,3208.47 2747.21,3206.04L2755.9,3182.77C2756.81,3180.34 2759.51,3179.11 2761.92,3180.02C2764.34,3180.93 2765.56,3183.64 2764.65,3186.07L2755.96,3209.35ZM2747.21,3340.58C2746.3,3338.15 2747.53,3335.44 2749.94,3334.52C2752.36,3333.61 2755.06,3334.84 2755.96,3337.27L2764.65,3360.54C2765.56,3362.97 2764.34,3365.69 2761.92,3366.6C2759.51,3367.51 2756.81,3366.28 2755.9,3363.85L2747.21,3340.58ZM2812.66,3201.19C2814.65,3199.54 2817.6,3199.83 2819.24,3201.84C2820.88,3203.85 2820.59,3206.81 2818.59,3208.46L2795.64,3227.4C2793.65,3229.04 2790.7,3228.75 2789.06,3226.74C2787.43,3224.74 2787.72,3221.77 2789.71,3220.13L2812.66,3201.19ZM2818.59,3338.16C2820.59,3339.81 2820.88,3342.77 2819.24,3344.78C2817.6,3346.78 2814.65,3347.08 2812.66,3345.43L2789.71,3326.49C2787.72,3324.84 2787.43,3321.88 2789.06,3319.87C2790.7,3317.87 2793.65,3317.58 2795.64,3319.22L2818.59,3338.16Z" style="fill:rgb(17,28,78);"/>
    </g>
</svg>
