<?xml version="1.0" encoding="UTF-8" standalone="no"?>
<!DOCTYPE svg PUBLIC "-//W3C//DTD SVG 1.1//EN" "http://www.w3.org/Graphics/SVG/1.1/DTD/svg11.dtd">
<svg width="100%" height="100%" viewBox="0 0 100 100" version="1.1" xmlns="http://www.w3.org/2000/svg" xmlns:xlink="http://www.w3.org/1999/xlink" xml:space="preserve" xmlns:serif="http://www.serif.com/" style="fill-rule:evenodd;clip-rule:evenodd;stroke-linejoin:round;stroke-miterlimit:2;">
    <g transform="matrix(0.945511,0,0,0.945511,2.72443,2.72443)">
        <path d="M101.763,20L101.763,80C101.763,92.011 92.011,101.763 80,101.763L20,101.763C7.989,101.763 -1.763,92.011 -1.763,80L-1.763,20C-1.763,7.989 7.989,-1.763 20,-1.763L80,-1.763C92.011,-1.763 101.763,7.989 101.763,20ZM98.237,20C98.237,9.935 90.065,1.763 80,1.763L20,1.763C9.935,1.763 1.763,9.935 1.763,20L1.763,80C1.763,90.065 9.935,98.237 20,98.237L80,98.237C90.065,98.237 98.237,90.065 98.237,80L98.237,20Z" style="fill:rgb(189,31,23);"/>
    </g>
    <g transform="matrix(0.457251,0,0,0.457251,-1090.89,-1060.49)">
        <path d="M2429.61,2373.56L2493.47,2349.28C2494.3,2348.96 2495.22,2348.96 2496.05,2349.27L2561.55,2373.81C2562.83,2374.29 2563.73,2375.45 2563.89,2376.8C2563.89,2376.8 2569.91,2430.1 2551.97,2460.77C2533.96,2491.57 2497,2507.9 2497,2507.9C2496.17,2508.27 2495.23,2508.31 2494.37,2508.02C2494.37,2508.02 2456.29,2495.18 2437.43,2460.17C2418.71,2425.43 2427.32,2376.33 2427.32,2376.33C2427.54,2375.07 2428.41,2374.02 2429.61,2373.56ZM2434.18,2379.63C2432.84,2388.88 2428.38,2428 2443.84,2456.71C2459.33,2485.46 2488.78,2498.09 2495.37,2500.62C2501.84,2497.53 2530.73,2482.64 2545.68,2457.09C2560.54,2431.69 2557.78,2389.85 2556.87,2379.84L2494.78,2356.58L2434.18,2379.63ZM2493.05,2485.99C2487.61,2483.88 2464.9,2473.97 2452.91,2451.69C2439.36,2426.55 2445.56,2391.01 2445.56,2391.01C2445.78,2389.75 2446.66,2388.7 2447.86,2388.24L2493.57,2370.86C2494.02,2370.68 2494.51,2370.61 2494.98,2370.62L2495.11,2370.62C2495.83,2370.62 2496.51,2370.83 2497.08,2371.2L2543.03,2388.42C2544.31,2388.9 2545.21,2390.05 2545.37,2391.41C2545.37,2391.41 2549.69,2429.96 2536.7,2452.16C2523.65,2474.48 2496.88,2486.32 2496.88,2486.32C2496.37,2486.55 2495.81,2486.65 2495.26,2486.62C2495.21,2486.63 2495.16,2486.63 2495.11,2486.63C2494.34,2486.63 2493.64,2486.39 2493.05,2485.99ZM2491.46,2379.46L2452.43,2394.3C2451.39,2401.78 2448.69,2428.49 2459.32,2448.24C2468.18,2464.67 2483.51,2473.63 2491.46,2477.38L2491.46,2456.33C2477.76,2454.54 2467.17,2442.81 2467.17,2428.62C2467.17,2414.44 2477.76,2402.71 2491.46,2400.92L2491.46,2379.46ZM2498.75,2477.22C2506.5,2472.99 2521.76,2463.26 2530.41,2448.48C2540.64,2431 2539.04,2402.53 2538.34,2394.45L2498.75,2379.61L2498.75,2400.92C2512.45,2402.71 2523.04,2414.44 2523.04,2428.62C2523.04,2442.81 2512.45,2454.54 2498.75,2456.33L2498.75,2477.22ZM2495.11,2407.97C2483.71,2407.97 2474.46,2417.23 2474.46,2428.62C2474.46,2440.02 2483.71,2449.27 2495.11,2449.27C2506.5,2449.27 2515.75,2440.02 2515.75,2428.62C2515.75,2417.23 2506.5,2407.97 2495.11,2407.97ZM2481.7,2431.15C2480.16,2429.86 2479.95,2427.56 2481.24,2426.01C2482.53,2424.47 2484.83,2424.26 2486.37,2425.55L2492.89,2431L2503.41,2418.77C2504.72,2417.25 2507.03,2417.08 2508.55,2418.39C2510.08,2419.7 2510.25,2422 2508.94,2423.53L2496.08,2438.47C2494.78,2439.98 2492.51,2440.17 2490.98,2438.89L2481.7,2431.15Z" style="fill:rgb(17,28,78);"/>
    </g>
</svg>
