<?xml version="1.0" encoding="UTF-8" standalone="no"?>
<!DOCTYPE svg PUBLIC "-//W3C//DTD SVG 1.1//EN" "http://www.w3.org/Graphics/SVG/1.1/DTD/svg11.dtd">
<svg width="100%" height="100%" viewBox="0 0 100 100" version="1.1" xmlns="http://www.w3.org/2000/svg" xmlns:xlink="http://www.w3.org/1999/xlink" xml:space="preserve" xmlns:serif="http://www.serif.com/" style="fill-rule:evenodd;clip-rule:evenodd;stroke-linejoin:round;stroke-miterlimit:2;">
    <g transform="matrix(0.945511,0,0,0.945511,2.72443,2.72443)">
        <path d="M101.763,20L101.763,80C101.763,92.011 92.011,101.763 80,101.763L20,101.763C7.989,101.763 -1.763,92.011 -1.763,80L-1.763,20C-1.763,7.989 7.989,-1.763 20,-1.763L80,-1.763C92.011,-1.763 101.763,7.989 101.763,20ZM98.237,20C98.237,9.935 90.065,1.763 80,1.763L20,1.763C9.935,1.763 1.763,9.935 1.763,20L1.763,80C1.763,90.065 9.935,98.237 20,98.237L80,98.237C90.065,98.237 98.237,90.065 98.237,80L98.237,20Z" style="fill:rgb(189,31,23);"/>
    </g>
    <g transform="matrix(0.519813,-0.0327652,0.0327652,0.519813,-453.07,-46.8913)">
        <path d="M896.547,259.291C893.136,261.271 888.75,261.128 885.428,258.64L874.125,250.175C873.441,249.662 872.99,248.897 872.873,248.05C872.757,247.204 872.984,246.345 873.504,245.667L906.122,203.108C906.656,202.411 907.453,201.965 908.327,201.873C909.2,201.781 910.073,202.052 910.74,202.622L922.328,212.525C924.503,214.384 925.547,217.081 925.383,219.737C932.025,219.986 944.201,220.425 946.981,220.416C950.586,220.403 952.493,221.556 953.569,222.617C958.874,220.235 962.177,219.076 965.419,219.805C967.44,220.26 974.314,224.03 978.629,226.58C980.042,227.321 981.704,227.429 983.203,226.876L984.3,226.471C983.513,221.943 985.677,217.27 989.903,215.019L1001.88,208.641C1002.63,208.238 1003.52,208.156 1004.34,208.411C1005.15,208.667 1005.83,209.239 1006.23,210.001L1030.38,256.944C1031.17,258.486 1030.6,260.38 1029.08,261.214L1017.57,267.52C1015.19,268.827 1012.39,269.132 1009.78,268.37C1007.92,267.825 1006.26,266.766 1004.99,265.335L997.48,268.33C998.191,271.401 997.461,274.985 994.989,277.457C993.48,278.966 991.505,279.821 989.421,280.004C989.502,282.511 988.612,284.993 986.772,286.832C984.627,288.977 981.61,289.831 978.697,289.36C978.32,291.036 977.48,292.629 976.177,293.932C973.553,296.556 969.757,297.302 966.467,296.17C966.007,297.393 965.285,298.54 964.301,299.525C960.615,303.211 954.649,303.215 950.986,299.553L945.377,293.944L939.563,299.759C935.944,303.377 930.069,303.377 926.45,299.759C924.73,298.038 923.828,295.808 923.743,293.553C921.631,293.361 919.572,292.458 917.957,290.843C916.31,289.196 915.403,287.087 915.237,284.931C912.938,284.834 910.668,283.908 908.915,282.155C907.244,280.484 906.325,278.345 906.158,276.159C903.956,276.066 901.782,275.18 900.102,273.5C896.909,270.307 896.583,265.325 899.124,261.767L896.547,259.291ZM918.934,220.242C918.787,220.343 918.627,220.494 918.455,220.702C919.281,219.706 919.154,218.231 918.17,217.39L909.148,209.68C909.148,209.68 880.551,246.992 880.552,246.992L889.264,253.517C890.719,254.607 892.731,254.468 894.024,253.237C894.06,253.183 894.097,253.129 894.137,253.076L918.339,220.847C918.376,220.798 918.415,220.749 918.455,220.702C918.599,220.531 918.76,220.377 918.934,220.242ZM943.871,226.762C937.973,226.612 926.7,226.191 922.45,226.03L900.956,254.653L903.561,257.154L906.471,254.244C910.028,250.687 915.802,250.687 919.358,254.244C920.385,255.27 921.115,256.481 921.549,257.77C924.758,256.864 928.351,257.672 930.874,260.195C932.71,262.031 933.639,264.434 933.659,266.843C935.707,267.068 937.696,267.965 939.266,269.535C941.046,271.315 941.961,273.634 942.012,275.968C944.046,276.185 946.021,277.072 947.579,278.63C950.379,281.43 951.013,285.582 949.478,288.994L955.512,295.027C956.684,296.2 958.595,296.18 959.775,294.999C960.79,293.985 960.948,292.431 960.227,291.269L945.412,276.454C944.773,275.816 944.461,274.974 944.476,274.136C944.461,273.299 944.773,272.457 945.412,271.819C946.661,270.57 948.688,270.57 949.937,271.819L964.329,286.21C964.619,286.5 964.886,286.805 965.13,287.121L967.415,289.407C968.584,290.576 970.482,290.576 971.651,289.407C972.82,288.238 972.82,286.34 971.651,285.171L952.928,266.447C951.679,265.198 951.679,263.17 952.928,261.922C954.177,260.673 956.204,260.673 957.453,261.922L958.172,262.641C958.426,262.782 958.664,262.96 958.879,263.175L977.68,281.975C978.988,283.284 981.03,283.524 982.247,282.307C983.464,281.09 983.225,279.048 981.916,277.739L961.776,257.599C961.641,257.464 961.52,257.32 961.414,257.169L961.362,257.117C960.114,255.868 960.114,253.841 961.362,252.592C962.611,251.343 964.639,251.343 965.888,252.592L985.654,272.358C987.07,273.774 989.211,274.184 990.464,272.931C991.635,271.76 991.744,269.816 990.78,268.775C990.704,268.693 990.633,268.608 990.567,268.521C988.207,266.205 975.153,253.396 968.582,246.949C967.008,245.405 964.747,244.785 962.606,245.31L962.601,245.311C959.059,246.173 954.342,247.347 950.605,248.369C944.407,250.064 939.591,250.505 936.255,249.9C933.196,249.347 931.122,247.95 929.888,246.005C927.483,242.215 927.21,234.917 935.016,230.761C937.062,229.671 940.426,228.215 943.871,226.762ZM991.237,227.257L1008.93,259.84L1008.96,259.788L1009.29,260.386C1009.77,261.279 1010.6,261.941 1011.58,262.227C1012.55,262.513 1013.6,262.398 1014.5,261.909L1023.26,257.101L1002.02,215.816L992.912,220.667C990.848,221.767 989.98,224.271 990.92,226.412L991.27,227.21L991.237,227.257ZM943.054,283.155C941.933,282.034 940.113,282.034 938.992,283.155L930.976,291.172C929.855,292.292 929.855,294.112 930.976,295.233C932.096,296.354 933.916,296.354 935.037,295.233L943.054,287.217C944.174,286.096 944.174,284.276 943.054,283.155ZM934.74,274.06C933.574,272.893 931.679,272.893 930.513,274.06L922.483,282.09C921.316,283.257 921.316,285.151 922.483,286.318C923.649,287.484 925.544,287.484 926.71,286.318L934.74,278.288C935.907,277.121 935.907,275.227 934.74,274.06ZM926.349,264.721C925.134,263.506 923.161,263.506 921.945,264.721L913.44,273.226C912.225,274.441 912.225,276.414 913.44,277.629C914.655,278.845 916.628,278.845 917.844,277.629L926.349,269.124C927.564,267.909 927.564,265.936 926.349,264.721ZM914.833,258.769C913.774,257.71 912.055,257.71 910.997,258.769L904.627,265.138C903.569,266.197 903.569,267.916 904.627,268.975C905.686,270.033 907.405,270.033 908.464,268.975L914.833,262.605C915.892,261.547 915.892,259.828 914.833,258.769ZM985.419,232.88C982.17,234.079 978.563,233.821 975.517,232.173C975.481,232.154 975.445,232.133 975.41,232.113C971.692,229.912 965.774,226.445 964.014,226.049C963.129,225.85 962.253,226.03 961.22,226.358C959.67,226.851 957.898,227.681 955.668,228.69C950.979,230.812 941.98,234.303 938.024,236.409C934.751,238.153 934.283,240.987 935.292,242.577C935.849,243.454 937.044,243.652 938.626,243.744C941.241,243.896 944.679,243.355 948.917,242.196C952.708,241.159 957.494,239.968 961.082,239.094C965.376,238.042 969.908,239.285 973.064,242.381C978.924,248.131 989.943,258.942 993.931,262.855L1001.62,259.791L986.743,232.392L985.419,232.88ZM938.126,208.974C938.709,210.641 937.829,212.468 936.162,213.051C934.495,213.634 932.668,212.754 932.085,211.087L927.057,196.712C926.474,195.045 927.354,193.218 929.021,192.635C930.688,192.052 932.514,192.932 933.098,194.599L938.126,208.974ZM949.99,207.93C950.138,209.69 948.831,211.239 947.071,211.388C945.311,211.537 943.761,210.229 943.613,208.469L942.273,192.638C942.125,190.878 943.433,189.328 945.192,189.179C946.952,189.03 948.502,190.338 948.651,192.098L949.99,207.93ZM962.34,209.451C962.062,211.195 960.421,212.386 958.677,212.108C956.933,211.831 955.742,210.189 956.019,208.445L958.541,192.604C958.818,190.86 960.46,189.669 962.204,189.947C963.948,190.224 965.139,191.866 964.861,193.61L962.34,209.451ZM973.155,213.727C972.381,215.315 970.464,215.976 968.877,215.202C967.289,214.429 966.628,212.512 967.401,210.924L974.265,196.832C975.038,195.244 976.955,194.583 978.543,195.356C980.131,196.13 980.792,198.047 980.019,199.634L973.155,213.727Z" style="fill:rgb(17,28,78);"/>
    </g>
</svg>
