<?xml version="1.0" encoding="UTF-8" standalone="no"?>
<!DOCTYPE svg PUBLIC "-//W3C//DTD SVG 1.1//EN" "http://www.w3.org/Graphics/SVG/1.1/DTD/svg11.dtd">
<svg width="100%" height="100%" viewBox="0 0 100 100" version="1.1" xmlns="http://www.w3.org/2000/svg" xmlns:xlink="http://www.w3.org/1999/xlink" xml:space="preserve" xmlns:serif="http://www.serif.com/" style="fill-rule:evenodd;clip-rule:evenodd;stroke-linejoin:round;stroke-miterlimit:2;">
    <g transform="matrix(0.945511,0,0,0.945511,2.72443,2.72443)">
        <path d="M101.763,20L101.763,80C101.763,92.011 92.011,101.763 80,101.763L20,101.763C7.989,101.763 -1.763,92.011 -1.763,80L-1.763,20C-1.763,7.989 7.989,-1.763 20,-1.763L80,-1.763C92.011,-1.763 101.763,7.989 101.763,20ZM98.237,20C98.237,9.935 90.065,1.763 80,1.763L20,1.763C9.935,1.763 1.763,9.935 1.763,20L1.763,80C1.763,90.065 9.935,98.237 20,98.237L80,98.237C90.065,98.237 98.237,90.065 98.237,80L98.237,20Z" style="fill:rgb(0,83,191);"/>
    </g>
    <g transform="matrix(0.359526,0,0,0.359526,-1031.29,-1127.04)">
        <path d="M3033.6,3345.28C3029.32,3340.62 3020.76,3331.04 3017.42,3325.34C3012.6,3317.14 3012.45,3299.25 3012.45,3299.25C3012.46,3296.7 3014.55,3294.62 3017.11,3294.63C3019.66,3294.64 3021.74,3296.72 3021.73,3299.28C3021.73,3299.28 3021.48,3313.95 3025.41,3320.64C3028.48,3325.86 3036.3,3334.57 3040.33,3338.92C3040.57,3338.82 3040.81,3338.72 3041.05,3338.63L3078.34,3324.69C3078.1,3303.55 3078.99,3284.41 3076.89,3277.04C3076.3,3275 3074.23,3271.96 3071.76,3268.62C3065.17,3259.72 3055.47,3249.35 3055.47,3249.35C3053.72,3247.48 3053.82,3244.54 3055.69,3242.8C3057.56,3241.05 3060.49,3241.15 3062.24,3243.02C3062.24,3243.02 3072.35,3253.83 3079.21,3263.11C3082.51,3267.57 3085.02,3271.77 3085.8,3274.5C3088,3282.18 3087.34,3302.1 3087.6,3324.14C3091.65,3325.31 3095.12,3328.32 3096.71,3332.57L3099.09,3338.93C3101.76,3346.07 3098.13,3354.04 3090.98,3356.71L3053.12,3370.88C3045.97,3373.55 3038,3369.92 3035.33,3362.77L3032.95,3356.42C3031.53,3352.63 3031.89,3348.61 3033.6,3345.28ZM3088.03,3335.82C3087.14,3333.47 3084.52,3332.27 3082.17,3333.15L3044.3,3347.32C3041.95,3348.19 3040.76,3350.82 3041.64,3353.17L3044.01,3359.53C3044.89,3361.88 3047.52,3363.07 3049.87,3362.19L3087.74,3348.03C3090.09,3347.15 3091.28,3344.53 3090.4,3342.18L3088.03,3335.82ZM3050.32,3320.82C3052.76,3321.6 3054.1,3324.21 3053.32,3326.65C3052.53,3329.08 3049.92,3330.43 3047.48,3329.64C3047.48,3329.64 3040.7,3327.46 3035.47,3322.7C3031.51,3319.09 3028.48,3314.1 3028.9,3307.73C3029.45,3299.47 3029.64,3294.77 3029.71,3292.68L3019.24,3275.51C3015.76,3269.81 3016.97,3262.43 3022.08,3258.14C3024.64,3255.99 3027.97,3254.98 3031.29,3255.36C3034.59,3255.73 3037.59,3257.43 3039.6,3260.06C3045.06,3266.86 3053.65,3277.67 3058.69,3284.9C3061.27,3288.59 3062.93,3291.57 3063.32,3292.98C3064.01,3295.45 3062.56,3298 3060.09,3298.68C3057.63,3299.37 3055.07,3297.92 3054.39,3295.46C3054.13,3294.52 3052.8,3292.66 3051.09,3290.2C3046.13,3283.1 3037.68,3272.47 3032.33,3265.82C3032.3,3265.78 3032.28,3265.75 3032.25,3265.71C3031.77,3265.07 3031.04,3264.66 3030.25,3264.57C3029.46,3264.48 3028.66,3264.72 3028.05,3265.24C3026.44,3266.58 3026.06,3268.9 3027.15,3270.69L3038.34,3289.03C3038.79,3289.77 3039.03,3290.63 3039.01,3291.5C3039.01,3291.5 3038.96,3296.16 3038.15,3308.34C3037.94,3311.58 3039.7,3314.01 3041.72,3315.85C3045.46,3319.26 3050.32,3320.82 3050.32,3320.82ZM3019.37,3282.3C3021.33,3283.94 3021.58,3286.87 3019.93,3288.83C3018.28,3290.78 3015.36,3291.04 3013.4,3289.39C3013.4,3289.39 3009.5,3286.1 3005.23,3283.39C3003.93,3282.57 3002.28,3282.51 3000.93,3283.25L2977.79,3295.87C2974.43,3297.7 2970.34,3297.51 2967.16,3295.37C2963.99,3293.24 2962.27,3289.51 2962.71,3285.71L2965.79,3258.74C2965.94,3257.47 2965.51,3256.21 2964.62,3255.3L2947.29,3237.49C2944.63,3234.76 2943.71,3230.77 2944.9,3227.15C2946.09,3223.52 2949.2,3220.86 2952.96,3220.24L2979.37,3215.88C2980.74,3215.65 2981.92,3214.76 2982.51,3213.51L2992.65,3192.03C2994.29,3188.57 2997.71,3186.31 3001.53,3186.17C3005.36,3186.03 3008.94,3188.03 3010.83,3191.36L3023.77,3214.19C3024.46,3215.42 3025.72,3216.22 3027.12,3216.33L3052.61,3218.34C3056.51,3218.65 3059.9,3221.16 3061.33,3224.8C3062.77,3228.45 3062,3232.59 3059.36,3235.47C3051.66,3243.88 3043.62,3253.22 3043.62,3253.22C3041.95,3255.15 3039.03,3255.37 3037.09,3253.7C3035.15,3252.03 3034.93,3249.11 3036.6,3247.17C3036.6,3247.17 3044.73,3237.72 3052.52,3229.21C3052.77,3228.94 3052.84,3228.55 3052.71,3228.2C3052.57,3227.85 3052.25,3227.62 3051.88,3227.59L3026.39,3225.57C3021.92,3225.22 3017.92,3222.67 3015.7,3218.76L3002.76,3195.93C3002.58,3195.61 3002.24,3195.42 3001.88,3195.44C3001.52,3195.45 3001.19,3195.66 3001.04,3195.99L2990.89,3217.47C2989,3221.47 2985.26,3224.3 2980.88,3225.02L2954.47,3229.39C2954.12,3229.45 2953.82,3229.7 2953.71,3230.04C2953.6,3230.39 2953.68,3230.76 2953.93,3231.02L2971.26,3248.84C2974.09,3251.74 2975.46,3255.76 2975,3259.79L2971.92,3286.77C2971.88,3287.13 2972.04,3287.48 2972.34,3287.68C2972.64,3287.89 2973.03,3287.9 2973.35,3287.73L2996.49,3275.11C3000.81,3272.76 3006.05,3272.93 3010.2,3275.57C3014.99,3278.61 3019.37,3282.3 3019.37,3282.3ZM2919.76,3225.45C2917.2,3225.45 2915.12,3223.37 2915.12,3220.81C2915.12,3218.26 2917.2,3216.18 2919.76,3216.18L2934.18,3216.18C2936.74,3216.18 2938.81,3218.26 2938.81,3220.81C2938.81,3223.37 2936.74,3225.45 2934.18,3225.45L2919.76,3225.45ZM2924.22,3200.41C2922.16,3198.89 2921.72,3195.98 2923.24,3193.92C2924.75,3191.86 2927.66,3191.42 2929.72,3192.94L2941.49,3201.62C2943.55,3203.14 2943.98,3206.04 2942.47,3208.1C2940.95,3210.16 2938.04,3210.6 2935.98,3209.08L2924.22,3200.41ZM2939.91,3182.79C2938.7,3180.53 2939.55,3177.72 2941.81,3176.51C2944.06,3175.3 2946.88,3176.15 2948.08,3178.41L2954.76,3190.89C2955.97,3193.14 2955.12,3195.95 2952.87,3197.16C2950.61,3198.37 2947.8,3197.52 2946.59,3195.26L2939.91,3182.79ZM3056,3196.68C3054.59,3198.81 3051.71,3199.39 3049.58,3197.98C3047.44,3196.57 3046.86,3193.69 3048.28,3191.55L3056.64,3178.95C3058.05,3176.82 3060.93,3176.23 3063.06,3177.65C3065.19,3179.06 3065.78,3181.94 3064.36,3184.07L3056,3196.68ZM3067.74,3210.19C3065.64,3211.66 3062.75,3211.14 3061.28,3209.05C3059.82,3206.95 3060.33,3204.06 3062.42,3202.59L3073.51,3194.83C3075.61,3193.37 3078.5,3193.88 3079.97,3195.97C3081.43,3198.07 3080.92,3200.96 3078.83,3202.43L3067.74,3210.19ZM3070.62,3226.75C3068.07,3226.75 3065.99,3224.67 3065.99,3222.12C3065.99,3219.56 3068.07,3217.48 3070.62,3217.48L3084.52,3217.48C3087.08,3217.48 3089.16,3219.56 3089.16,3222.12C3089.16,3224.67 3087.08,3226.75 3084.52,3226.75L3070.62,3226.75Z" style="fill:rgb(17,28,78);"/>
    </g>
</svg>
