<?xml version="1.0" encoding="UTF-8" standalone="no"?>
<!DOCTYPE svg PUBLIC "-//W3C//DTD SVG 1.1//EN" "http://www.w3.org/Graphics/SVG/1.1/DTD/svg11.dtd">
<svg width="100%" height="100%" viewBox="0 0 1000 400" version="1.1" xmlns="http://www.w3.org/2000/svg" xmlns:xlink="http://www.w3.org/1999/xlink" xml:space="preserve" xmlns:serif="http://www.serif.com/" style="fill-rule:evenodd;clip-rule:evenodd;stroke-linejoin:round;stroke-miterlimit:2;">
    <g transform="matrix(0.716608,0,0,0.716608,-227.119,-196.81)">
        <g transform="matrix(2.1511,0,0,1.4103,96.3452,307.411)">
            <path d="M462.004,190.103L393.314,190.103C392.06,190.103 391.043,188.552 391.043,186.64L391.043,80.307C391.043,79.083 391.467,77.95 392.157,77.327L425.943,46.812C425.949,46.806 425.955,46.801 425.961,46.795C426.66,46.177 427.522,46.172 428.224,46.783L428.229,46.787L463.133,77.302C463.839,77.919 464.275,79.065 464.275,80.307L464.275,186.64C464.275,188.552 463.258,190.103 462.004,190.103ZM424.829,55.867L395.585,82.281C395.585,82.281 395.585,183.176 395.585,183.176C395.585,183.176 424.829,183.176 424.829,183.176L424.829,55.867ZM429.37,55.768L429.37,183.176C429.37,183.176 459.734,183.176 459.734,183.176L459.734,82.313L429.37,55.768Z" style="fill:rgb(150,120,94);"/>
        </g>
        <g transform="matrix(1.64225,0,0,1.25887,14.3899,318.853)">
            <path d="M310.018,203.88L277.731,203.88C276.088,203.88 274.757,202.143 274.757,200C274.757,200 274.757,121.718 274.757,121.717L256.487,121.717C255.248,121.717 254.14,120.716 253.703,119.205C253.267,117.693 253.595,115.986 254.525,114.921L316.701,43.775C317.823,42.491 319.501,42.491 320.623,43.775L382.798,114.921C383.729,115.986 384.057,117.693 383.62,119.205C383.184,120.716 382.075,121.717 380.837,121.717C380.837,121.717 364.049,121.717 364.049,121.718L364.049,200C364.049,202.143 362.718,203.88 361.075,203.88L328.788,203.88C327.145,203.88 325.814,202.143 325.814,200L325.814,171.011L312.992,171.011L312.992,200C312.992,202.143 311.661,203.88 310.018,203.88ZM307.044,196.12L307.044,167.131C307.044,164.989 308.376,163.252 310.018,163.252L328.788,163.252C330.43,163.252 331.762,164.989 331.762,167.131L331.762,196.12C331.762,196.12 358.101,196.12 358.101,196.12L358.101,117.838C358.101,115.695 359.433,113.958 361.075,113.958L372.936,113.958C372.936,113.958 318.662,51.852 318.662,51.852L264.387,113.958L277.731,113.958C279.373,113.958 280.705,115.695 280.705,117.838L280.705,196.12L307.044,196.12Z" style="fill:rgb(150,120,94);"/>
        </g>
        <g transform="matrix(1.41371,0,0,1.90448,400.283,209.928)">
            <path d="M722.389,189.248L722.389,179.723L832.347,179.723L832.347,189.248L722.389,189.248ZM722.389,166.986L722.389,157.461L832.347,157.461L832.347,166.986L722.389,166.986ZM722.389,144.724L722.389,135.199L832.347,135.199L832.347,144.724L722.389,144.724ZM722.389,122.462L722.389,112.937L832.347,112.937L832.347,122.462L722.389,122.462ZM722.389,100.2L722.389,90.675L832.347,90.675L832.347,100.2L722.389,100.2Z" style="fill:rgb(150,120,94);"/>
        </g>
        <g transform="matrix(3.81764,0,0,3.81764,-753.918,-164.996)">
            <path d="M320.584,232.222L317.821,224.546L318.83,224.546L321.176,231.092L323.512,224.546L324.499,224.546L321.736,232.222L320.584,232.222ZM325.672,225.686C325.343,225.686 325.091,225.445 325.091,225.105C325.091,224.765 325.343,224.524 325.672,224.524C326.001,224.524 326.254,224.765 326.254,225.105C326.254,225.445 326.001,225.686 325.672,225.686ZM325.212,232.222L325.212,226.629L326.111,226.629L326.111,232.222L325.212,232.222ZM328.874,232.222L326.78,226.629L327.745,226.629L329.434,231.202L331.111,226.629L332.055,226.629L329.96,232.222L328.874,232.222ZM333.184,225.686C332.855,225.686 332.603,225.445 332.603,225.105C332.603,224.765 332.855,224.524 333.184,224.524C333.513,224.524 333.765,224.765 333.765,225.105C333.765,225.445 333.513,225.686 333.184,225.686ZM332.723,232.222L332.723,226.629L333.623,226.629L333.623,232.222L332.723,232.222ZM337.428,232.288C335.75,232.288 334.653,231.136 334.653,229.425C334.653,227.726 335.728,226.563 337.307,226.563C338.886,226.563 339.917,227.561 339.961,229.217C339.961,229.338 339.95,229.469 339.939,229.601L335.597,229.601L335.597,229.678C335.629,230.741 336.298,231.487 337.362,231.487C338.152,231.487 338.766,231.07 338.952,230.347L339.862,230.347C339.643,231.465 338.722,232.288 337.428,232.288ZM335.651,228.855L338.996,228.855C338.908,227.89 338.25,227.353 337.318,227.353C336.496,227.353 335.739,227.945 335.651,228.855ZM343.733,226.563C344.994,226.563 345.992,227.254 345.992,229.107L345.992,232.222L345.093,232.222L345.093,229.162C345.093,228 344.556,227.386 343.58,227.386C342.527,227.386 341.891,228.164 341.891,229.425L341.891,232.222L340.992,232.222L340.992,226.629L341.77,226.629L341.891,227.386C342.22,226.958 342.79,226.563 343.733,226.563ZM351.486,227.484L351.486,224.546L352.385,224.546L352.385,232.222L351.607,232.222L351.486,231.323C351.113,231.838 350.51,232.288 349.567,232.288C348.021,232.288 346.88,231.246 346.88,229.425C346.88,227.715 348.021,226.563 349.567,226.563C350.51,226.563 351.146,226.947 351.486,227.484ZM349.655,231.487C350.751,231.487 351.497,230.643 351.497,229.447C351.497,228.219 350.751,227.364 349.655,227.364C348.547,227.364 347.802,228.208 347.802,229.425C347.802,230.643 348.547,231.487 349.655,231.487ZM358.559,231.399L358.844,231.399L358.844,232.222L358.351,232.222C357.605,232.222 357.353,231.904 357.342,231.355C356.991,231.86 356.432,232.288 355.467,232.288C354.239,232.288 353.405,231.673 353.405,230.654C353.405,229.535 354.184,228.91 355.653,228.91L357.298,228.91L357.298,228.526C357.298,227.802 356.783,227.364 355.905,227.364C355.116,227.364 354.589,227.737 354.48,228.307L353.581,228.307C353.712,227.21 354.6,226.563 355.949,226.563C357.375,226.563 358.197,227.276 358.197,228.581L358.197,231.026C358.197,231.323 358.307,231.399 358.559,231.399ZM357.298,229.941L357.298,229.667L355.565,229.667C354.765,229.667 354.315,229.963 354.315,230.599C354.315,231.147 354.787,231.52 355.533,231.52C356.651,231.52 357.298,230.873 357.298,229.941Z" style="fill:rgb(17,40,76);"/>
        </g>
        <g transform="matrix(3.81764,0,0,3.81764,-277.318,-163.682)">
            <path d="M312.869,232.222L312.869,224.546L317.76,224.546L317.76,225.423L313.823,225.423L313.823,227.879L317.102,227.879L317.102,228.756L313.823,228.756L313.823,231.344L317.902,231.344L317.902,232.222L312.869,232.222ZM323.001,227.484L323.001,224.546L323.901,224.546L323.901,232.222L323.122,232.222L323.001,231.323C322.628,231.838 322.025,232.288 321.082,232.288C319.536,232.288 318.396,231.246 318.396,229.425C318.396,227.715 319.536,226.563 321.082,226.563C322.025,226.563 322.661,226.947 323.001,227.484ZM321.17,231.487C322.267,231.487 323.012,230.643 323.012,229.447C323.012,228.219 322.267,227.364 321.17,227.364C320.062,227.364 319.317,228.208 319.317,229.425C319.317,230.643 320.062,231.487 321.17,231.487ZM325.589,225.686C325.26,225.686 325.008,225.445 325.008,225.105C325.008,224.765 325.26,224.524 325.589,224.524C325.918,224.524 326.17,224.765 326.17,225.105C326.17,225.445 325.918,225.686 325.589,225.686ZM325.129,232.222L325.129,226.629L326.028,226.629L326.028,232.222L325.129,232.222ZM326.664,227.452L326.664,226.629L327.673,226.629L327.673,226.004C327.673,225.017 328.089,224.546 329.131,224.546L330.151,224.546L330.151,225.368L329.186,225.368C328.736,225.368 328.572,225.554 328.572,225.982L328.572,226.629L330.151,226.629L330.151,227.452L328.572,227.452L328.572,232.222L327.673,232.222L327.673,227.452L326.664,227.452ZM331.259,225.686C330.93,225.686 330.677,225.445 330.677,225.105C330.677,224.765 330.93,224.524 331.259,224.524C331.588,224.524 331.84,224.765 331.84,225.105C331.84,225.445 331.588,225.686 331.259,225.686ZM330.798,232.222L330.798,226.629L331.697,226.629L331.697,232.222L330.798,232.222ZM335.437,232.288C333.803,232.288 332.728,231.18 332.728,229.436C332.728,227.726 333.836,226.563 335.459,226.563C336.829,226.563 337.696,227.331 337.926,228.559L336.983,228.559C336.818,227.813 336.27,227.364 335.448,227.364C334.373,227.364 333.649,228.219 333.649,229.436C333.649,230.654 334.373,231.487 335.448,231.487C336.248,231.487 336.796,231.026 336.972,230.314L337.926,230.314C337.707,231.52 336.796,232.288 335.437,232.288ZM343.858,231.399L344.144,231.399L344.144,232.222L343.65,232.222C342.904,232.222 342.652,231.904 342.641,231.355C342.29,231.86 341.731,232.288 340.766,232.288C339.538,232.288 338.705,231.673 338.705,230.654C338.705,229.535 339.483,228.91 340.953,228.91L342.597,228.91L342.597,228.526C342.597,227.802 342.082,227.364 341.205,227.364C340.415,227.364 339.889,227.737 339.779,228.307L338.88,228.307C339.012,227.21 339.9,226.563 341.249,226.563C342.674,226.563 343.497,227.276 343.497,228.581L343.497,231.026C343.497,231.323 343.606,231.399 343.858,231.399ZM342.597,229.941L342.597,229.667L340.865,229.667C340.064,229.667 339.615,229.963 339.615,230.599C339.615,231.147 340.086,231.52 340.832,231.52C341.95,231.52 342.597,230.873 342.597,229.941ZM347.28,232.288C345.646,232.288 344.571,231.18 344.571,229.436C344.571,227.726 345.679,226.563 347.302,226.563C348.673,226.563 349.539,227.331 349.769,228.559L348.826,228.559C348.662,227.813 348.113,227.364 347.291,227.364C346.216,227.364 345.492,228.219 345.492,229.436C345.492,230.654 346.216,231.487 347.291,231.487C348.091,231.487 348.64,231.026 348.815,230.314L349.769,230.314C349.55,231.52 348.64,232.288 347.28,232.288ZM351.217,225.686C350.888,225.686 350.635,225.445 350.635,225.105C350.635,224.765 350.888,224.524 351.217,224.524C351.546,224.524 351.798,224.765 351.798,225.105C351.798,225.445 351.546,225.686 351.217,225.686ZM350.756,232.222L350.756,226.629L351.655,226.629L351.655,232.222L350.756,232.222ZM355.289,226.321C356.028,226.321 356.653,226.567 357.163,227.06C357.674,227.553 357.929,228.277 357.929,229.234C357.929,230.158 357.704,230.922 357.254,231.526C356.805,232.129 356.107,232.431 355.161,232.431C354.372,232.431 353.745,232.164 353.281,231.63C352.817,231.096 352.585,230.38 352.585,229.48C352.585,228.516 352.83,227.749 353.319,227.178C353.808,226.607 354.465,226.321 355.289,226.321ZM355.252,231.601C355.891,231.601 356.329,231.359 356.566,230.875C356.804,230.391 356.922,229.853 356.922,229.261C356.922,228.725 356.837,228.29 356.665,227.954C356.394,227.426 355.926,227.162 355.262,227.162C354.674,227.162 354.245,227.387 353.977,227.836C353.71,228.286 353.576,228.829 353.576,229.464C353.576,230.075 353.71,230.583 353.977,230.99C354.245,231.397 354.67,231.601 355.252,231.601ZM356.408,224.179L354.979,225.727L354.24,225.727L355.22,224.179L356.408,224.179ZM361.724,226.563C362.985,226.563 363.983,227.254 363.983,229.107L363.983,232.222L363.083,232.222L363.083,229.162C363.083,228 362.546,227.386 361.57,227.386C360.517,227.386 359.881,228.164 359.881,229.425L359.881,232.222L358.982,232.222L358.982,226.629L359.761,226.629L359.881,227.386C360.21,226.958 360.781,226.563 361.724,226.563Z" style="fill:rgb(17,40,76);"/>
        </g>
        <g transform="matrix(3.81764,0,0,3.81764,207.038,-165.08)">
            <path d="M318.989,232.222L318.989,224.546L321.938,224.546C323.474,224.546 324.483,225.467 324.483,226.903C324.483,228.34 323.474,229.272 321.938,229.272L319.943,229.272L319.943,232.222L318.989,232.222ZM321.862,225.423L319.943,225.423L319.943,228.395L321.851,228.395C322.86,228.395 323.507,227.813 323.507,226.903C323.507,225.993 322.871,225.423 321.862,225.423ZM327.959,226.629L328.211,226.629L328.211,227.506L327.761,227.506C326.588,227.506 326.27,228.482 326.27,229.371L326.27,232.222L325.371,232.222L325.371,226.629L326.149,226.629L326.27,227.473C326.533,227.046 326.961,226.629 327.959,226.629ZM331.249,232.288C329.615,232.288 328.474,231.125 328.474,229.425C328.474,227.726 329.615,226.563 331.249,226.563C332.882,226.563 334.023,227.726 334.023,229.425C334.023,231.125 332.882,232.288 331.249,232.288ZM331.249,231.487C332.356,231.487 333.102,230.621 333.102,229.425C333.102,228.23 332.356,227.364 331.249,227.364C330.141,227.364 329.395,228.23 329.395,229.425C329.395,230.621 330.141,231.487 331.249,231.487ZM337.565,232.288C335.931,232.288 334.856,231.18 334.856,229.436C334.856,227.726 335.964,226.563 337.587,226.563C338.958,226.563 339.824,227.331 340.054,228.559L339.111,228.559C338.947,227.813 338.398,227.364 337.576,227.364C336.501,227.364 335.777,228.219 335.777,229.436C335.777,230.654 336.501,231.487 337.576,231.487C338.376,231.487 338.925,231.026 339.1,230.314L340.054,230.314C339.835,231.52 338.925,232.288 337.565,232.288ZM343.618,232.288C341.94,232.288 340.844,231.136 340.844,229.425C340.844,227.726 341.918,226.563 343.497,226.563C345.077,226.563 346.107,227.561 346.151,229.217C346.151,229.338 346.14,229.469 346.129,229.601L341.787,229.601L341.787,229.678C341.82,230.741 342.489,231.487 343.552,231.487C344.342,231.487 344.956,231.07 345.142,230.347L346.053,230.347C345.833,231.465 344.912,232.288 343.618,232.288ZM341.842,228.855L345.186,228.855C345.098,227.89 344.441,227.353 343.508,227.353C342.686,227.353 341.929,227.945 341.842,228.855ZM346.93,230.379L347.851,230.379C347.884,231.037 348.465,231.52 349.397,231.52C350.187,231.52 350.746,231.18 350.746,230.665C350.746,229.963 350.132,229.908 349.298,229.809C348.048,229.656 347.05,229.403 347.05,228.241C347.05,227.221 347.983,226.552 349.244,226.563C350.516,226.574 351.437,227.166 351.525,228.329L350.603,228.329C350.538,227.759 350.011,227.331 349.244,227.331C348.465,227.331 347.939,227.66 347.939,228.175C347.939,228.789 348.531,228.866 349.342,228.965C350.614,229.118 351.634,229.36 351.634,230.599C351.634,231.641 350.636,232.288 349.397,232.288C347.95,232.288 346.952,231.608 346.93,230.379ZM355.209,232.288C353.575,232.288 352.435,231.125 352.435,229.425C352.435,227.726 353.575,226.563 355.209,226.563C356.843,226.563 357.983,227.726 357.983,229.425C357.983,231.125 356.843,232.288 355.209,232.288ZM355.209,231.487C356.317,231.487 357.062,230.621 357.062,229.425C357.062,228.23 356.317,227.364 355.209,227.364C354.101,227.364 353.356,228.23 353.356,229.425C353.356,230.621 354.101,231.487 355.209,231.487Z" style="fill:rgb(17,40,76);"/>
        </g>
    </g>
</svg>
