<?xml version="1.0" encoding="UTF-8" standalone="no"?>
<!DOCTYPE svg PUBLIC "-//W3C//DTD SVG 1.1//EN" "http://www.w3.org/Graphics/SVG/1.1/DTD/svg11.dtd">
<svg width="100%" height="100%" viewBox="0 0 1000 400" version="1.1" xmlns="http://www.w3.org/2000/svg" xmlns:xlink="http://www.w3.org/1999/xlink" xml:space="preserve" xmlns:serif="http://www.serif.com/" style="fill-rule:evenodd;clip-rule:evenodd;stroke-linejoin:round;stroke-miterlimit:2;">
    <g transform="matrix(0.716608,0,0,0.716608,-227.119,-196.81)">
        <g transform="matrix(3.15788,0,0,3.15788,-68.1196,-343.767)">
            <path d="M184.608,330.882L181.836,330.882L181.836,322.221L184.608,322.221C187.317,322.221 188.963,323.953 188.963,326.551C188.963,329.137 187.317,330.882 184.608,330.882ZM182.912,323.211L182.912,329.892L184.608,329.892C186.711,329.892 187.862,328.568 187.862,326.551C187.862,324.522 186.711,323.211 184.608,323.211L182.912,323.211ZM193.083,330.956C191.19,330.956 189.953,329.657 189.953,327.727C189.953,325.809 191.165,324.497 192.947,324.497C194.729,324.497 195.892,325.623 195.941,327.492C195.941,327.628 195.929,327.776 195.917,327.925L191.017,327.925L191.017,328.011C191.054,329.212 191.809,330.053 193.009,330.053C193.9,330.053 194.593,329.583 194.803,328.766L195.83,328.766C195.583,330.028 194.543,330.956 193.083,330.956ZM191.079,327.083L194.853,327.083C194.754,325.994 194.011,325.388 192.959,325.388C192.031,325.388 191.178,326.056 191.079,327.083ZM200.346,330.882L200.346,322.221L201.361,322.221L201.361,330.882L200.346,330.882ZM208.327,329.954L208.649,329.954L208.649,330.882L208.092,330.882C207.25,330.882 206.966,330.523 206.953,329.904C206.558,330.474 205.926,330.956 204.838,330.956C203.452,330.956 202.512,330.263 202.512,329.113C202.512,327.85 203.39,327.145 205.048,327.145L206.904,327.145L206.904,326.712C206.904,325.895 206.322,325.401 205.333,325.401C204.442,325.401 203.848,325.821 203.724,326.465L202.709,326.465C202.858,325.227 203.86,324.497 205.382,324.497C206.991,324.497 207.919,325.302 207.919,326.774L207.919,329.533C207.919,329.867 208.042,329.954 208.327,329.954ZM206.904,328.308L206.904,327.999L204.949,327.999C204.046,327.999 203.538,328.333 203.538,329.051C203.538,329.669 204.071,330.09 204.912,330.09C206.174,330.09 206.904,329.36 206.904,328.308ZM213.19,323.507C212.818,323.507 212.534,323.235 212.534,322.852C212.534,322.468 212.818,322.196 213.19,322.196C213.561,322.196 213.845,322.468 213.845,322.852C213.845,323.235 213.561,323.507 213.19,323.507ZM212.67,330.882L212.67,324.572L213.684,324.572L213.684,330.882L212.67,330.882ZM220.044,325.537L220.044,322.221L221.059,322.221L221.059,330.882L220.18,330.882L220.044,329.867C219.624,330.449 218.943,330.956 217.879,330.956C216.134,330.956 214.848,329.781 214.848,327.727C214.848,325.797 216.134,324.497 217.879,324.497C218.943,324.497 219.661,324.93 220.044,325.537ZM217.978,330.053C219.215,330.053 220.057,329.1 220.057,327.751C220.057,326.366 219.215,325.401 217.978,325.401C216.728,325.401 215.887,326.353 215.887,327.727C215.887,329.1 216.728,330.053 217.978,330.053ZM225.352,330.956C223.459,330.956 222.222,329.657 222.222,327.727C222.222,325.809 223.435,324.497 225.216,324.497C226.998,324.497 228.161,325.623 228.211,327.492C228.211,327.628 228.198,327.776 228.186,327.925L223.286,327.925L223.286,328.011C223.323,329.212 224.078,330.053 225.278,330.053C226.169,330.053 226.862,329.583 227.072,328.766L228.099,328.766C227.852,330.028 226.812,330.956 225.352,330.956ZM223.348,327.083L227.122,327.083C227.023,325.994 226.28,325.388 225.229,325.388C224.301,325.388 223.447,326.056 223.348,327.083ZM234.954,329.954L235.276,329.954L235.276,330.882L234.719,330.882C233.877,330.882 233.593,330.523 233.581,329.904C233.185,330.474 232.554,330.956 231.465,330.956C230.079,330.956 229.139,330.263 229.139,329.113C229.139,327.85 230.017,327.145 231.675,327.145L233.531,327.145L233.531,326.712C233.531,325.895 232.95,325.401 231.96,325.401C231.069,325.401 230.475,325.821 230.351,326.465L229.337,326.465C229.485,325.227 230.487,324.497 232.009,324.497C233.618,324.497 234.546,325.302 234.546,326.774L234.546,329.533C234.546,329.867 234.669,329.954 234.954,329.954ZM233.531,328.308L233.531,327.999L231.576,327.999C230.673,327.999 230.166,328.333 230.166,329.051C230.166,329.669 230.698,330.09 231.539,330.09C232.801,330.09 233.531,329.36 233.531,328.308ZM189.605,337.696C189.153,338.573 188.859,339.219 188.724,339.634C188.52,340.264 188.418,340.991 188.418,341.817C188.418,342.651 188.534,343.414 188.767,344.104C188.911,344.53 189.195,345.143 189.617,345.943L189.095,345.943C188.675,345.287 188.415,344.868 188.314,344.687C188.214,344.506 188.104,344.26 187.986,343.949C187.825,343.523 187.713,343.069 187.65,342.585C187.618,342.335 187.602,342.096 187.602,341.869C187.602,341.017 187.736,340.259 188.003,339.595C188.173,339.172 188.527,338.539 189.065,337.696L189.605,337.696ZM190.127,344.139L190.127,343.511L192.531,341.426C193.105,340.931 193.583,340.453 193.583,339.782C193.583,339.004 193.052,338.562 192.23,338.562C191.435,338.562 190.905,339.092 190.905,339.941L190.905,340.056L190.162,340.056L190.162,339.897C190.162,338.73 190.984,337.899 192.23,337.899C193.565,337.899 194.343,338.633 194.343,339.746C194.343,340.674 193.742,341.258 193.008,341.885L191.152,343.458L194.387,343.458L194.387,344.139L190.127,344.139ZM198.709,340.321L198.709,337.952L199.433,337.952L199.433,344.139L198.806,344.139L198.709,343.414C198.408,343.83 197.922,344.192 197.162,344.192C195.916,344.192 194.997,343.352 194.997,341.885C194.997,340.506 195.916,339.578 197.162,339.578C197.922,339.578 198.435,339.888 198.709,340.321ZM197.233,343.547C198.116,343.547 198.717,342.866 198.717,341.903C198.717,340.913 198.116,340.224 197.233,340.224C196.34,340.224 195.739,340.904 195.739,341.885C195.739,342.866 196.34,343.547 197.233,343.547ZM207.142,340.592L207.142,341.317L202.641,341.317L202.641,340.592L207.142,340.592ZM207.142,342.443L207.142,343.181L202.641,343.181L202.641,342.443L207.142,342.443ZM210.587,338.871C210.322,338.871 210.118,338.677 210.118,338.403C210.118,338.129 210.322,337.935 210.587,337.935C210.852,337.935 211.055,338.129 211.055,338.403C211.055,338.677 210.852,338.871 210.587,338.871ZM210.216,344.139L210.216,339.631L210.94,339.631L210.94,344.139L210.216,344.139ZM215.483,340.321L215.483,337.952L216.208,337.952L216.208,344.139L215.58,344.139L215.483,343.414C215.182,343.83 214.696,344.192 213.936,344.192C212.69,344.192 211.771,343.352 211.771,341.885C211.771,340.506 212.69,339.578 213.936,339.578C214.696,339.578 215.209,339.888 215.483,340.321ZM214.007,343.547C214.891,343.547 215.492,342.866 215.492,341.903C215.492,340.913 214.891,340.224 214.007,340.224C213.114,340.224 212.513,340.904 212.513,341.885C212.513,342.866 213.114,343.547 214.007,343.547ZM219.274,344.192C217.922,344.192 217.038,343.264 217.038,341.885C217.038,340.515 217.905,339.578 219.177,339.578C220.45,339.578 221.281,340.383 221.316,341.717C221.316,341.814 221.307,341.921 221.298,342.027L217.798,342.027L217.798,342.088C217.825,342.946 218.364,343.547 219.221,343.547C219.858,343.547 220.353,343.211 220.503,342.628L221.236,342.628C221.06,343.529 220.317,344.192 219.274,344.192ZM217.843,341.426L220.538,341.426C220.468,340.648 219.937,340.215 219.186,340.215C218.523,340.215 217.913,340.692 217.843,341.426ZM226.133,343.476L226.362,343.476L226.362,344.139L225.965,344.139C225.364,344.139 225.161,343.883 225.152,343.441C224.869,343.847 224.418,344.192 223.64,344.192C222.651,344.192 221.979,343.697 221.979,342.875C221.979,341.974 222.606,341.47 223.791,341.47L225.116,341.47L225.116,341.16C225.116,340.577 224.701,340.224 223.994,340.224C223.358,340.224 222.933,340.524 222.845,340.984L222.12,340.984C222.226,340.1 222.942,339.578 224.029,339.578C225.178,339.578 225.841,340.153 225.841,341.205L225.841,343.176C225.841,343.414 225.929,343.476 226.133,343.476ZM225.116,342.301L225.116,342.08L223.72,342.08C223.075,342.08 222.712,342.318 222.712,342.831C222.712,343.273 223.092,343.573 223.693,343.573C224.595,343.573 225.116,343.052 225.116,342.301ZM226.731,345.943C227.188,345.051 227.483,344.401 227.615,343.992C227.817,343.374 227.917,342.649 227.917,341.817C227.917,340.986 227.801,340.225 227.568,339.534C227.424,339.109 227.141,338.496 226.718,337.696L227.24,337.696C227.683,338.404 227.951,338.84 228.045,339.006C228.138,339.171 228.24,339.399 228.349,339.69C228.487,340.049 228.586,340.405 228.645,340.756C228.704,341.107 228.733,341.445 228.733,341.77C228.733,342.621 228.598,343.381 228.327,344.048C228.158,344.477 227.805,345.108 227.27,345.943L226.731,345.943Z" style="fill:rgb(29,37,44);"/>
        </g>
        <g transform="matrix(3.15788,0,0,3.15788,356.074,-343.767)">
            <path d="M181.582,329.954L181.904,329.954L181.904,330.882L181.347,330.882C180.506,330.882 180.221,330.523 180.209,329.904C179.813,330.474 179.182,330.956 178.093,330.956C176.707,330.956 175.767,330.263 175.767,329.113C175.767,327.85 176.645,327.145 178.303,327.145L180.159,327.145L180.159,326.712C180.159,325.895 179.578,325.401 178.588,325.401C177.697,325.401 177.103,325.821 176.979,326.465L175.965,326.465C176.113,325.227 177.116,324.497 178.637,324.497C180.246,324.497 181.174,325.302 181.174,326.774L181.174,329.533C181.174,329.867 181.298,329.954 181.582,329.954ZM180.159,328.308L180.159,327.999L178.204,327.999C177.301,327.999 176.794,328.333 176.794,329.051C176.794,329.669 177.326,330.09 178.167,330.09C179.429,330.09 180.159,329.36 180.159,328.308ZM185.925,330.882L185.925,322.221L186.94,322.221L186.94,330.882L185.925,330.882ZM193.906,329.954L194.228,329.954L194.228,330.882L193.671,330.882C192.83,330.882 192.545,330.523 192.533,329.904C192.137,330.474 191.506,330.956 190.417,330.956C189.031,330.956 188.091,330.263 188.091,329.113C188.091,327.85 188.969,327.145 190.627,327.145L192.483,327.145L192.483,326.712C192.483,325.895 191.902,325.401 190.912,325.401C190.021,325.401 189.427,325.821 189.303,326.465L188.289,326.465C188.437,325.227 189.439,324.497 190.961,324.497C192.57,324.497 193.498,325.302 193.498,326.774L193.498,329.533C193.498,329.867 193.621,329.954 193.906,329.954ZM192.483,328.308L192.483,327.999L190.528,327.999C189.625,327.999 189.118,328.333 189.118,329.051C189.118,329.669 189.65,330.09 190.491,330.09C191.753,330.09 192.483,329.36 192.483,328.308ZM201.169,324.572L201.454,324.572L201.454,325.561L200.946,325.561C199.622,325.561 199.264,326.663 199.264,327.665L199.264,330.882L198.249,330.882L198.249,324.572L199.127,324.572L199.264,325.524C199.561,325.042 200.043,324.572 201.169,324.572ZM204.881,330.956C202.988,330.956 201.751,329.657 201.751,327.727C201.751,325.809 202.963,324.497 204.745,324.497C206.527,324.497 207.69,325.623 207.739,327.492C207.739,327.628 207.727,327.776 207.714,327.925L202.815,327.925L202.815,328.011C202.852,329.212 203.607,330.053 204.807,330.053C205.698,330.053 206.39,329.583 206.601,328.766L207.628,328.766C207.38,330.028 206.341,330.956 204.881,330.956ZM202.877,327.083L206.65,327.083C206.551,325.994 205.809,325.388 204.757,325.388C203.829,325.388 202.975,326.056 202.877,327.083ZM214.483,329.954L214.804,329.954L214.804,330.882L214.247,330.882C213.406,330.882 213.121,330.523 213.109,329.904C212.713,330.474 212.082,330.956 210.993,330.956C209.608,330.956 208.667,330.263 208.667,329.113C208.667,327.85 209.546,327.145 211.204,327.145L213.06,327.145L213.06,326.712C213.06,325.895 212.478,325.401 211.488,325.401C210.597,325.401 210.003,325.821 209.88,326.465L208.865,326.465C209.014,325.227 210.016,324.497 211.538,324.497C213.146,324.497 214.074,325.302 214.074,326.774L214.074,329.533C214.074,329.867 214.198,329.954 214.483,329.954ZM213.06,328.308L213.06,327.999L211.105,327.999C210.201,327.999 209.694,328.333 209.694,329.051C209.694,329.669 210.226,330.09 211.068,330.09C212.33,330.09 213.06,329.36 213.06,328.308ZM215.584,330.882L215.584,322.221L216.598,322.221L216.598,330.882L215.584,330.882ZM218.504,323.507C218.133,323.507 217.848,323.235 217.848,322.852C217.848,322.468 218.133,322.196 218.504,322.196C218.875,322.196 219.16,322.468 219.16,322.852C219.16,323.235 218.875,323.507 218.504,323.507ZM217.984,330.882L217.984,324.572L218.999,324.572L218.999,330.882L217.984,330.882ZM225.359,325.537L225.359,322.221L226.373,322.221L226.373,330.882L225.495,330.882L225.359,329.867C224.938,330.449 224.257,330.956 223.193,330.956C221.449,330.956 220.162,329.781 220.162,327.727C220.162,325.797 221.449,324.497 223.193,324.497C224.257,324.497 224.975,324.93 225.359,325.537ZM223.292,330.053C224.53,330.053 225.371,329.1 225.371,327.751C225.371,326.366 224.53,325.401 223.292,325.401C222.043,325.401 221.201,326.353 221.201,327.727C221.201,329.1 222.043,330.053 223.292,330.053ZM233.339,329.954L233.661,329.954L233.661,330.882L233.104,330.882C232.263,330.882 231.978,330.523 231.966,329.904C231.57,330.474 230.939,330.956 229.85,330.956C228.464,330.956 227.524,330.263 227.524,329.113C227.524,327.85 228.402,327.145 230.06,327.145L231.916,327.145L231.916,326.712C231.916,325.895 231.335,325.401 230.345,325.401C229.454,325.401 228.86,325.821 228.736,326.465L227.722,326.465C227.87,325.227 228.873,324.497 230.394,324.497C232.003,324.497 232.931,325.302 232.931,326.774L232.931,329.533C232.931,329.867 233.055,329.954 233.339,329.954ZM231.916,328.308L231.916,327.999L229.961,327.999C229.058,327.999 228.551,328.333 228.551,329.051C228.551,329.669 229.083,330.09 229.924,330.09C231.186,330.09 231.916,329.36 231.916,328.308ZM239.34,325.537L239.34,322.221L240.355,322.221L240.355,330.882L239.476,330.882L239.34,329.867C238.92,330.449 238.239,330.956 237.175,330.956C235.43,330.956 234.144,329.781 234.144,327.727C234.144,325.797 235.43,324.497 237.175,324.497C238.239,324.497 238.957,324.93 239.34,325.537ZM237.274,330.053C238.511,330.053 239.353,329.1 239.353,327.751C239.353,326.366 238.511,325.401 237.274,325.401C236.024,325.401 235.183,326.353 235.183,327.727C235.183,329.1 236.024,330.053 237.274,330.053ZM181.107,337.696C180.655,338.573 180.362,339.219 180.226,339.634C180.022,340.264 179.92,340.991 179.92,341.817C179.92,342.651 180.037,343.414 180.27,344.104C180.413,344.53 180.697,345.143 181.12,345.943L180.598,345.943C180.178,345.287 179.917,344.868 179.816,344.687C179.716,344.506 179.606,344.26 179.489,343.949C179.327,343.523 179.215,343.069 179.152,342.585C179.12,342.335 179.104,342.096 179.104,341.869C179.104,341.017 179.238,340.259 179.506,339.595C179.676,339.172 180.029,338.539 180.567,337.696L181.107,337.696ZM184.961,340.922C185.527,341.028 186.119,341.479 186.119,342.424C186.119,343.476 185.235,344.192 183.892,344.192C182.548,344.192 181.682,343.458 181.682,342.23L182.416,342.23C182.425,343.043 183.061,343.529 183.936,343.529C184.74,343.529 185.359,343.078 185.359,342.371C185.359,341.726 184.829,341.311 183.865,341.311L183.335,341.311L183.335,340.666L183.821,340.666C184.74,340.666 185.2,340.206 185.2,339.578C185.2,338.951 184.634,338.562 183.892,338.562C183.114,338.562 182.548,339.031 182.54,339.738L181.806,339.738C181.815,338.65 182.663,337.899 183.883,337.899C185.156,337.899 185.96,338.562 185.96,339.534C185.96,340.312 185.553,340.763 184.961,340.922ZM190.52,340.321L190.52,337.952L191.245,337.952L191.245,344.139L190.617,344.139L190.52,343.414C190.22,343.83 189.734,344.192 188.974,344.192C187.727,344.192 186.808,343.352 186.808,341.885C186.808,340.506 187.727,339.578 188.974,339.578C189.734,339.578 190.246,339.888 190.52,340.321ZM189.044,343.547C189.928,343.547 190.529,342.866 190.529,341.903C190.529,340.913 189.928,340.224 189.044,340.224C188.152,340.224 187.551,340.904 187.551,341.885C187.551,342.866 188.152,343.547 189.044,343.547ZM198.953,340.592L198.953,341.317L194.452,341.317L194.452,340.592L198.953,340.592ZM198.953,342.443L198.953,343.181L194.452,343.181L194.452,342.443L198.953,342.443ZM203.264,344.139L201.576,339.631L202.354,339.631L203.715,343.317L205.067,339.631L205.827,339.631L204.139,344.139L203.264,344.139ZM208.249,344.192C206.932,344.192 206.013,343.255 206.013,341.885C206.013,340.515 206.932,339.578 208.249,339.578C209.566,339.578 210.485,340.515 210.485,341.885C210.485,343.255 209.566,344.192 208.249,344.192ZM208.249,343.547C209.142,343.547 209.743,342.849 209.743,341.885C209.743,340.922 209.142,340.224 208.249,340.224C207.356,340.224 206.755,340.922 206.755,341.885C206.755,342.849 207.356,343.547 208.249,343.547ZM211.316,344.139L211.316,337.952L212.041,337.952L212.041,344.139L211.316,344.139ZM216.186,341.885L216.186,339.631L216.91,339.631L216.91,344.139L216.283,344.139L216.186,343.538C215.92,343.874 215.487,344.192 214.745,344.192C213.755,344.192 212.969,343.635 212.969,342.141L212.969,339.631L213.693,339.631L213.693,342.097C213.693,343.034 214.117,343.529 214.869,343.529C215.691,343.529 216.186,342.902 216.186,341.885ZM222.929,339.578C223.866,339.578 224.635,340.118 224.635,341.54L224.635,344.139L223.91,344.139L223.91,341.585C223.91,340.701 223.521,340.241 222.841,340.241C222.089,340.241 221.63,340.807 221.63,341.726L221.63,344.139L220.905,344.139L220.905,341.585C220.905,340.701 220.507,340.241 219.818,340.241C219.076,340.241 218.625,340.86 218.625,341.761L218.625,344.139L217.9,344.139L217.9,339.631L218.528,339.631L218.625,340.25C218.863,339.923 219.243,339.578 219.942,339.578C220.569,339.578 221.108,339.861 221.365,340.436C221.639,339.95 222.125,339.578 222.929,339.578ZM227.587,344.192C226.234,344.192 225.351,343.264 225.351,341.885C225.351,340.515 226.217,339.578 227.489,339.578C228.762,339.578 229.593,340.383 229.628,341.717C229.628,341.814 229.619,341.921 229.61,342.027L226.111,342.027L226.111,342.088C226.137,342.946 226.676,343.547 227.534,343.547C228.17,343.547 228.665,343.211 228.815,342.628L229.549,342.628C229.372,343.529 228.629,344.192 227.587,344.192ZM226.155,341.426L228.85,341.426C228.78,340.648 228.249,340.215 227.498,340.215C226.835,340.215 226.225,340.692 226.155,341.426ZM232.668,339.578C233.685,339.578 234.489,340.135 234.489,341.629L234.489,344.139L233.764,344.139L233.764,341.673C233.764,340.736 233.331,340.241 232.545,340.241C231.696,340.241 231.184,340.869 231.184,341.885L231.184,344.139L230.459,344.139L230.459,339.631L231.086,339.631L231.184,340.241C231.449,339.897 231.908,339.578 232.668,339.578ZM235.228,345.943C235.686,345.051 235.981,344.401 236.113,343.992C236.315,343.374 236.415,342.649 236.415,341.817C236.415,340.986 236.299,340.225 236.066,339.534C235.922,339.109 235.638,338.496 235.216,337.696L235.738,337.696C236.181,338.404 236.449,338.84 236.543,339.006C236.636,339.171 236.737,339.399 236.847,339.69C236.985,340.049 237.083,340.405 237.142,340.756C237.201,341.107 237.231,341.445 237.231,341.77C237.231,342.621 237.096,343.381 236.825,344.048C236.655,344.477 236.303,345.108 235.768,345.943L235.228,345.943Z" style="fill:rgb(29,37,44);"/>
        </g>
        <g transform="matrix(3.15788,0,0,3.15788,781.88,-343.767)">
            <path d="M174.553,330.956C172.71,330.956 171.497,329.706 171.497,327.739C171.497,325.809 172.747,324.497 174.578,324.497C176.125,324.497 177.102,325.363 177.362,326.749L176.298,326.749C176.112,325.908 175.494,325.401 174.566,325.401C173.353,325.401 172.537,326.366 172.537,327.739C172.537,329.113 173.353,330.053 174.566,330.053C175.469,330.053 176.088,329.533 176.286,328.729L177.362,328.729C177.115,330.09 176.088,330.956 174.553,330.956ZM181.383,330.956C179.54,330.956 178.253,329.645 178.253,327.727C178.253,325.809 179.54,324.497 181.383,324.497C183.227,324.497 184.514,325.809 184.514,327.727C184.514,329.645 183.227,330.956 181.383,330.956ZM181.383,330.053C182.633,330.053 183.474,329.075 183.474,327.727C183.474,326.378 182.633,325.401 181.383,325.401C180.134,325.401 179.292,326.378 179.292,327.727C179.292,329.075 180.134,330.053 181.383,330.053ZM188.77,324.497C190.193,324.497 191.319,325.277 191.319,327.368L191.319,330.882L190.304,330.882L190.304,327.43C190.304,326.118 189.698,325.425 188.597,325.425C187.409,325.425 186.691,326.304 186.691,327.727L186.691,330.882L185.677,330.882L185.677,324.572L186.555,324.572L186.691,325.425C187.063,324.943 187.706,324.497 188.77,324.497ZM200.834,325.537L200.834,322.221L201.849,322.221L201.849,330.882L200.97,330.882L200.834,329.867C200.413,330.449 199.733,330.956 198.669,330.956C196.924,330.956 195.637,329.781 195.637,327.727C195.637,325.797 196.924,324.497 198.669,324.497C199.733,324.497 200.45,324.93 200.834,325.537ZM198.768,330.053C200.005,330.053 200.846,329.1 200.846,327.751C200.846,326.366 200.005,325.401 198.768,325.401C197.518,325.401 196.677,326.353 196.677,327.727C196.677,329.1 197.518,330.053 198.768,330.053ZM203.754,323.507C203.383,323.507 203.098,323.235 203.098,322.852C203.098,322.468 203.383,322.196 203.754,322.196C204.125,322.196 204.41,322.468 204.41,322.852C204.41,323.235 204.125,323.507 203.754,323.507ZM203.234,330.882L203.234,324.572L204.249,324.572L204.249,330.882L203.234,330.882ZM208.555,324.572L208.839,324.572L208.839,325.561L208.332,325.561C207.008,325.561 206.649,326.663 206.649,327.665L206.649,330.882L205.635,330.882L205.635,324.572L206.513,324.572L206.649,325.524C206.946,325.042 207.429,324.572 208.555,324.572ZM212.267,330.956C210.374,330.956 209.136,329.657 209.136,327.727C209.136,325.809 210.349,324.497 212.131,324.497C213.912,324.497 215.076,325.623 215.125,327.492C215.125,327.628 215.113,327.776 215.1,327.925L210.2,327.925L210.2,328.011C210.238,329.212 210.992,330.053 212.193,330.053C213.083,330.053 213.776,329.583 213.987,328.766L215.014,328.766C214.766,330.028 213.727,330.956 212.267,330.956ZM210.262,327.083L214.036,327.083C213.937,325.994 213.195,325.388 212.143,325.388C211.215,325.388 210.361,326.056 210.262,327.083ZM219.122,330.956C217.278,330.956 216.065,329.706 216.065,327.739C216.065,325.809 217.315,324.497 219.146,324.497C220.693,324.497 221.67,325.363 221.93,326.749L220.866,326.749C220.681,325.908 220.062,325.401 219.134,325.401C217.921,325.401 217.105,326.366 217.105,327.739C217.105,329.113 217.921,330.053 219.134,330.053C220.037,330.053 220.656,329.533 220.854,328.729L221.93,328.729C221.683,330.09 220.656,330.956 219.122,330.956ZM225.877,330.956C224.034,330.956 222.821,329.706 222.821,327.739C222.821,325.809 224.071,324.497 225.902,324.497C227.449,324.497 228.426,325.363 228.686,326.749L227.622,326.749C227.436,325.908 226.818,325.401 225.89,325.401C224.677,325.401 223.86,326.366 223.86,327.739C223.86,329.113 224.677,330.053 225.89,330.053C226.793,330.053 227.412,329.533 227.61,328.729L228.686,328.729C228.439,330.09 227.412,330.956 225.877,330.956ZM230.319,323.507C229.948,323.507 229.663,323.235 229.663,322.852C229.663,322.468 229.948,322.196 230.319,322.196C230.69,322.196 230.975,322.468 230.975,322.852C230.975,323.235 230.69,323.507 230.319,323.507ZM229.8,330.882L229.8,324.572L230.814,324.572L230.814,330.882L229.8,330.882ZM234.915,324.224C235.748,324.224 236.453,324.502 237.029,325.058C237.605,325.614 237.893,326.431 237.893,327.511C237.893,328.554 237.639,329.416 237.132,330.096C236.624,330.777 235.837,331.118 234.77,331.118C233.879,331.118 233.173,330.816 232.649,330.214C232.125,329.612 231.864,328.804 231.864,327.789C231.864,326.701 232.139,325.835 232.691,325.191C233.243,324.546 233.984,324.224 234.915,324.224ZM234.872,330.181C235.593,330.181 236.088,329.908 236.355,329.362C236.623,328.817 236.757,328.209 236.757,327.541C236.757,326.937 236.661,326.445 236.467,326.067C236.161,325.471 235.633,325.173 234.884,325.173C234.22,325.173 233.736,325.426 233.434,325.934C233.132,326.441 232.981,327.054 232.981,327.77C232.981,328.459 233.132,329.033 233.434,329.492C233.736,329.951 234.216,330.181 234.872,330.181ZM236.177,321.807L234.564,323.553L233.73,323.553L234.836,321.807L236.177,321.807ZM242.175,324.497C243.598,324.497 244.724,325.277 244.724,327.368L244.724,330.882L243.709,330.882L243.709,327.43C243.709,326.118 243.103,325.425 242.001,325.425C240.814,325.425 240.096,326.304 240.096,327.727L240.096,330.882L239.081,330.882L239.081,324.572L239.96,324.572L240.096,325.425C240.467,324.943 241.111,324.497 242.175,324.497ZM170.351,337.696C169.899,338.573 169.606,339.219 169.471,339.634C169.266,340.264 169.164,340.991 169.164,341.817C169.164,342.651 169.281,343.414 169.514,344.104C169.658,344.53 169.941,345.143 170.364,345.943L169.842,345.943C169.422,345.287 169.161,344.868 169.061,344.687C168.96,344.506 168.851,344.26 168.733,343.949C168.572,343.523 168.459,343.069 168.396,342.585C168.364,342.335 168.349,342.096 168.349,341.869C168.349,341.017 168.482,340.259 168.75,339.595C168.92,339.172 169.274,338.539 169.812,337.696L170.351,337.696ZM171.28,344.139L171.28,337.952L175.124,337.952L175.124,338.659L172.049,338.659L172.049,340.727L174.594,340.727L174.594,341.434L172.049,341.434L172.049,344.139L171.28,344.139ZM175.84,344.139L175.84,337.952L176.565,337.952L176.565,344.139L175.84,344.139ZM179.632,344.192C178.28,344.192 177.396,343.264 177.396,341.885C177.396,340.515 178.262,339.578 179.535,339.578C180.807,339.578 181.638,340.383 181.673,341.717C181.673,341.814 181.665,341.921 181.656,342.027L178.156,342.027L178.156,342.088C178.182,342.946 178.722,343.547 179.579,343.547C180.215,343.547 180.71,343.211 180.86,342.628L181.594,342.628C181.417,343.529 180.675,344.192 179.632,344.192ZM178.2,341.426L180.896,341.426C180.825,340.648 180.295,340.215 179.543,340.215C178.881,340.215 178.271,340.692 178.2,341.426ZM184.528,344.192C183.211,344.192 182.345,343.299 182.345,341.894C182.345,340.515 183.238,339.578 184.546,339.578C185.65,339.578 186.349,340.197 186.534,341.187L185.774,341.187C185.642,340.586 185.2,340.224 184.537,340.224C183.671,340.224 183.087,340.913 183.087,341.894C183.087,342.875 183.671,343.547 184.537,343.547C185.182,343.547 185.624,343.176 185.765,342.601L186.534,342.601C186.358,343.573 185.624,344.192 184.528,344.192ZM189.539,339.578C190.547,339.578 191.369,340.135 191.369,341.629L191.369,344.139L190.644,344.139L190.644,341.673C190.644,340.736 190.193,340.241 189.415,340.241C188.576,340.241 188.054,340.869 188.054,341.885L188.054,344.139L187.33,344.139L187.33,337.952L188.054,337.952L188.054,340.374C188.32,339.95 188.779,339.578 189.539,339.578ZM196.283,343.476L196.512,343.476L196.512,344.139L196.115,344.139C195.514,344.139 195.31,343.883 195.302,343.441C195.019,343.847 194.568,344.192 193.79,344.192C192.8,344.192 192.129,343.697 192.129,342.875C192.129,341.974 192.756,341.47 193.941,341.47L195.266,341.47L195.266,341.16C195.266,340.577 194.851,340.224 194.144,340.224C193.507,340.224 193.083,340.524 192.995,340.984L192.27,340.984C192.376,340.1 193.092,339.578 194.179,339.578C195.328,339.578 195.991,340.153 195.991,341.205L195.991,343.176C195.991,343.414 196.079,343.476 196.283,343.476ZM195.266,342.301L195.266,342.08L193.87,342.08C193.225,342.08 192.862,342.318 192.862,342.831C192.862,343.273 193.242,343.573 193.843,343.573C194.745,343.573 195.266,343.052 195.266,342.301ZM203.788,340.592L203.788,341.317L199.287,341.317L199.287,340.592L203.788,340.592ZM203.788,342.443L203.788,343.181L199.287,343.181L199.287,342.443L203.788,342.443ZM208.938,344.192C207.586,344.192 206.702,343.264 206.702,341.885C206.702,340.515 207.569,339.578 208.841,339.578C210.114,339.578 210.945,340.383 210.98,341.717C210.98,341.814 210.971,341.921 210.962,342.027L207.462,342.027L207.462,342.088C207.489,342.946 208.028,343.547 208.885,343.547C209.522,343.547 210.017,343.211 210.167,342.628L210.9,342.628C210.724,343.529 209.981,344.192 208.938,344.192ZM207.507,341.426L210.202,341.426C210.132,340.648 209.601,340.215 208.85,340.215C208.187,340.215 207.577,340.692 207.507,341.426ZM211.607,342.654L212.35,342.654C212.376,343.184 212.845,343.573 213.596,343.573C214.232,343.573 214.683,343.299 214.683,342.884C214.683,342.318 214.188,342.274 213.516,342.194C212.509,342.071 211.705,341.867 211.705,340.931C211.705,340.109 212.456,339.57 213.472,339.578C214.498,339.587 215.24,340.065 215.311,341.001L214.568,341.001C214.515,340.542 214.091,340.197 213.472,340.197C212.845,340.197 212.421,340.462 212.421,340.878C212.421,341.373 212.898,341.434 213.552,341.514C214.577,341.638 215.399,341.832 215.399,342.831C215.399,343.67 214.595,344.192 213.596,344.192C212.429,344.192 211.625,343.644 211.607,342.654ZM216.539,342.963L216.539,340.294L215.726,340.294L215.726,339.631L216.539,339.631L216.539,338.368L217.264,338.368L217.264,339.631L218.43,339.631L218.43,340.294L217.264,340.294L217.264,342.955C217.264,343.335 217.396,343.476 217.785,343.476L218.501,343.476L218.501,344.139L217.715,344.139C216.848,344.139 216.539,343.759 216.539,342.963ZM221.214,339.631L221.418,339.631L221.418,340.339L221.055,340.339C220.11,340.339 219.853,341.125 219.853,341.841L219.853,344.139L219.129,344.139L219.129,339.631L219.756,339.631L219.853,340.312C220.065,339.967 220.41,339.631 221.214,339.631ZM225.872,343.476L226.102,343.476L226.102,344.139L225.704,344.139C225.103,344.139 224.9,343.883 224.891,343.441C224.608,343.847 224.157,344.192 223.38,344.192C222.39,344.192 221.718,343.697 221.718,342.875C221.718,341.974 222.346,341.47 223.53,341.47L224.856,341.47L224.856,341.16C224.856,340.577 224.44,340.224 223.733,340.224C223.097,340.224 222.673,340.524 222.584,340.984L221.86,340.984C221.966,340.1 222.681,339.578 223.769,339.578C224.917,339.578 225.58,340.153 225.58,341.205L225.58,343.176C225.58,343.414 225.669,343.476 225.872,343.476ZM224.856,342.301L224.856,342.08L223.459,342.08C222.814,342.08 222.452,342.318 222.452,342.831C222.452,343.273 222.832,343.573 223.433,343.573C224.334,343.573 224.856,343.052 224.856,342.301ZM226.994,342.963L226.994,340.294L226.181,340.294L226.181,339.631L226.994,339.631L226.994,338.368L227.719,338.368L227.719,339.631L228.886,339.631L228.886,340.294L227.719,340.294L227.719,342.955C227.719,343.335 227.852,343.476 228.241,343.476L228.956,343.476L228.956,344.139L228.17,344.139C227.304,344.139 226.994,343.759 226.994,342.963ZM231.546,344.192C230.194,344.192 229.31,343.264 229.31,341.885C229.31,340.515 230.176,339.578 231.449,339.578C232.721,339.578 233.552,340.383 233.588,341.717C233.588,341.814 233.579,341.921 233.57,342.027L230.07,342.027L230.07,342.088C230.097,342.946 230.636,343.547 231.493,343.547C232.129,343.547 232.624,343.211 232.774,342.628L233.508,342.628C233.331,343.529 232.589,344.192 231.546,344.192ZM230.114,341.426L232.81,341.426C232.739,340.648 232.209,340.215 231.458,340.215C230.795,340.215 230.185,340.692 230.114,341.426ZM237.971,340.409L238.068,339.631L238.696,339.631L238.696,343.918C238.696,345.217 238.007,345.959 236.46,345.959C235.311,345.959 234.507,345.42 234.392,344.431L235.134,344.431C235.258,344.996 235.762,345.314 236.513,345.314C237.459,345.314 237.971,344.872 237.971,343.891L237.971,343.361C237.671,343.874 237.185,344.192 236.425,344.192C235.178,344.192 234.259,343.352 234.259,341.885C234.259,340.506 235.178,339.578 236.425,339.578C237.185,339.578 237.688,339.905 237.971,340.409ZM236.495,343.547C237.379,343.547 237.98,342.866 237.98,341.903C237.98,340.913 237.379,340.224 236.495,340.224C235.603,340.224 235.002,340.904 235.002,341.885C235.002,342.866 235.603,343.547 236.495,343.547ZM240.057,338.871C239.792,338.871 239.589,338.677 239.589,338.403C239.589,338.129 239.792,337.935 240.057,337.935C240.322,337.935 240.525,338.129 240.525,338.403C240.525,338.677 240.322,338.871 240.057,338.871ZM239.686,344.139L239.686,339.631L240.41,339.631L240.41,344.139L239.686,344.139ZM245.386,343.476L245.616,343.476L245.616,344.139L245.218,344.139C244.617,344.139 244.414,343.883 244.405,343.441C244.122,343.847 243.672,344.192 242.894,344.192C241.904,344.192 241.232,343.697 241.232,342.875C241.232,341.974 241.86,341.47 243.044,341.47L244.37,341.47L244.37,341.16C244.37,340.577 243.954,340.224 243.247,340.224C242.611,340.224 242.187,340.524 242.099,340.984L241.374,340.984C241.48,340.1 242.196,339.578 243.283,339.578C244.432,339.578 245.095,340.153 245.095,341.205L245.095,343.176C245.095,343.414 245.183,343.476 245.386,343.476ZM244.37,342.301L244.37,342.08L242.973,342.08C242.328,342.08 241.966,342.318 241.966,342.831C241.966,343.273 242.346,343.573 242.947,343.573C243.848,343.573 244.37,343.052 244.37,342.301ZM245.984,345.943C246.442,345.051 246.737,344.401 246.869,343.992C247.07,343.374 247.171,342.649 247.171,341.817C247.171,340.986 247.055,340.225 246.821,339.534C246.678,339.109 246.394,338.496 245.971,337.696L246.494,337.696C246.937,338.404 247.205,338.84 247.298,339.006C247.392,339.171 247.493,339.399 247.603,339.69C247.741,340.049 247.839,340.405 247.898,340.756C247.957,341.107 247.987,341.445 247.987,341.77C247.987,342.621 247.851,343.381 247.581,344.048C247.411,344.477 247.059,345.108 246.524,345.943L245.984,345.943Z" style="fill:rgb(29,37,44);"/>
        </g>
        <g transform="matrix(1.39118,0,0,1.39118,155.511,282.473)">
            <path d="M364.631,94.217L364.631,192.143C364.631,193.805 363.284,195.152 361.622,195.152L263.695,195.152C262.033,195.152 260.686,193.805 260.686,192.143L260.686,94.217C260.686,92.555 262.033,91.207 263.695,91.207L361.622,91.207C363.284,91.207 364.631,92.555 364.631,94.217ZM358.613,97.226L266.705,97.226L266.705,189.134L358.613,189.134L358.613,97.226Z" style="fill:rgb(161,106,56);"/>
        </g>
        <g transform="matrix(0.948094,0,0,0.948094,1154.39,333.954)">
            <path d="M376.305,83.949L376.305,181.875C376.305,183.046 375.84,184.17 375.012,184.998L329.247,230.763C327.984,232.026 326.085,232.403 324.435,231.72C322.785,231.036 321.709,229.426 321.709,227.64C321.709,227.64 321.709,134.13 321.709,134.13L228.303,134.13C226.518,134.13 224.908,133.055 224.224,131.406C223.54,129.757 223.916,127.859 225.177,126.595L270.837,80.83C271.666,80 272.79,79.533 273.963,79.533L371.89,79.534C373.065,79.534 374.182,79.996 375.012,80.827C375.842,81.657 376.305,82.774 376.305,83.949ZM361.23,88.364C340.578,88.364 275.795,88.364 275.795,88.364L238.946,125.298L324.296,125.298L361.23,88.364ZM330.54,131.543L330.54,216.98L367.474,180.046L367.474,94.609L330.54,131.543Z" style="fill:rgb(161,106,56);"/>
        </g>
        <g transform="matrix(1.02106,0,0,1.02106,681.259,353.589)">
            <path d="M361.706,196.242C361.678,196.243 361.65,196.243 361.622,196.243L263.695,196.243C261.431,196.243 259.595,194.408 259.595,192.143L259.595,94.217C259.595,93.058 260.076,92.011 260.849,91.266C260.866,91.248 260.883,91.23 260.901,91.213L296.293,55.82C297.064,55.049 298.102,54.62 299.193,54.62L397.119,54.62C398.21,54.62 399.247,55.049 400.018,55.82C400.789,56.591 401.219,57.629 401.219,58.719L401.219,156.646C401.219,156.674 401.219,156.702 401.218,156.73C401.223,157.787 400.823,158.845 400.018,159.65L364.626,195.042C363.821,195.848 362.763,196.248 361.706,196.242ZM273.594,90.117L295.093,90.117L295.093,68.618L273.594,90.117ZM295.093,98.317L267.795,98.317L267.795,182.14L295.093,154.843L295.093,98.317ZM273.489,188.043L357.522,188.043L357.522,160.746L300.786,160.746L273.489,188.043ZM365.722,160.746L365.722,182.349L387.325,160.746L365.722,160.746ZM387.221,62.819L303.293,62.819L303.293,90.117L359.924,90.117L387.221,62.819ZM365.722,152.546L393.019,152.546L393.019,68.618L365.722,95.915L365.722,152.546ZM357.522,152.546L357.522,98.317L303.293,98.317L303.293,152.546L357.522,152.546Z" style="fill:rgb(161,106,56);"/>
        </g>
    </g>
</svg>
