<?xml version="1.0" encoding="UTF-8" standalone="no"?>
<!DOCTYPE svg PUBLIC "-//W3C//DTD SVG 1.1//EN" "http://www.w3.org/Graphics/SVG/1.1/DTD/svg11.dtd">
<svg width="100%" height="100%" viewBox="0 0 1000 400" version="1.1" xmlns="http://www.w3.org/2000/svg" xmlns:xlink="http://www.w3.org/1999/xlink" xml:space="preserve" xmlns:serif="http://www.serif.com/" style="fill-rule:evenodd;clip-rule:evenodd;stroke-linejoin:round;stroke-miterlimit:2;">
    <g transform="matrix(2.37531,0,0,2.37531,338.042,258.699)">
        <path d="M5.76,-14.688L6.082,-14.688L23.021,25.677L17.071,25.677L13.071,15.491L-1.833,15.491L-5.98,25.677L-11.126,25.677L5.76,-14.688ZM0,10.989L11.303,10.989L5.753,-3.143L0,10.989ZM39.041,14.913L49.771,-13.08L55.936,-13.08L38.835,27.499L21.681,-13.08L27.899,-13.08L39.041,14.913ZM68.855,-13.08L68.855,25.677L63.655,25.677L63.655,-13.08L68.855,-13.08ZM102.465,20.209C104.001,19.602 105.271,18.922 106.272,18.172L108.469,22.782C107.825,23.211 106.949,23.693 105.842,24.23C104.735,24.765 103.439,25.212 101.956,25.57C100.473,25.927 98.838,26.105 97.051,26.105C94.084,26.069 91.396,25.535 88.984,24.498C86.571,23.461 84.515,22.05 82.819,20.262C81.12,18.476 79.825,16.412 78.932,14.071C78.038,11.73 77.592,9.238 77.592,6.593C77.592,3.699 78.056,1.027 78.986,-1.421C79.914,-3.869 81.245,-5.996 82.979,-7.801C84.712,-9.604 86.749,-11.008 89.091,-12.008C91.431,-13.009 93.995,-13.509 96.783,-13.509C99.106,-13.509 101.214,-13.196 103.109,-12.572C105.002,-11.946 106.628,-11.222 107.986,-10.4L105.896,-5.469C104.824,-6.219 103.519,-6.916 101.983,-7.56C100.445,-8.202 98.766,-8.524 96.944,-8.524C95.049,-8.524 93.263,-8.149 91.583,-7.398C89.902,-6.648 88.42,-5.593 87.134,-4.236C85.847,-2.876 84.837,-1.305 84.105,0.482C83.372,2.27 83.006,4.217 83.006,6.325C83.006,8.398 83.336,10.337 83.998,12.142C84.658,13.947 85.606,15.519 86.839,16.858C88.071,18.199 89.564,19.244 91.315,19.994C93.066,20.745 95.031,21.12 97.212,21.12C99.177,21.12 100.928,20.817 102.465,20.209ZM130.233,-14.688L130.554,-14.688L147.494,25.677L141.543,25.677L137.544,15.491L122.639,15.491L118.493,25.677L113.347,25.677L130.233,-14.688ZM124.473,10.989L135.776,10.989L130.226,-3.143L124.473,10.989ZM4.98,36.716L4.98,49.982L3.714,49.982L3.714,36.716L4.98,36.716ZM17.599,46.901L17.599,36.715L18.865,36.715L18.865,50.527L9.939,39.836L9.939,49.981L8.673,49.981L8.673,36.229L17.599,46.901ZM22.319,36.156L29.189,45.861L35.982,36.15L35.982,49.981L34.716,49.981L34.716,40.19L29.191,48.075L23.585,40.165L23.585,49.981L22.319,49.981L22.319,36.156ZM48.703,37.484C49.732,38.087 50.556,38.917 51.151,39.952C51.747,40.988 52.048,42.13 52.048,43.348C52.048,44.565 51.747,45.708 51.151,46.744C50.555,47.78 49.732,48.609 48.703,49.211C47.674,49.814 46.541,50.12 45.336,50.12C44.131,50.12 42.999,49.814 41.969,49.211C40.941,48.61 40.117,47.78 39.521,46.744C38.926,45.708 38.624,44.565 38.624,43.348C38.624,42.13 38.926,40.988 39.521,39.952C40.117,38.917 40.94,38.087 41.969,37.484C42.999,36.881 44.131,36.576 45.336,36.576C46.541,36.576 47.673,36.881 48.703,37.484ZM45.336,48.834C46.315,48.834 47.231,48.585 48.058,48.097C48.885,47.607 49.55,46.936 50.035,46.101C50.518,45.267 50.763,44.341 50.763,43.348C50.763,42.355 50.518,41.429 50.035,40.595C49.551,39.761 48.885,39.089 48.058,38.599C47.231,38.11 46.315,37.862 45.336,37.862C44.356,37.862 43.44,38.11 42.615,38.599C41.786,39.09 41.117,39.762 40.628,40.597C40.138,41.429 39.89,42.354 39.89,43.348C39.89,44.341 40.138,45.267 40.628,46.1C41.118,46.935 41.787,47.607 42.615,48.097C43.44,48.585 44.356,48.834 45.336,48.834ZM63.266,44.137C63.719,44.73 63.949,45.413 63.949,46.165C63.949,46.652 63.84,47.136 63.625,47.602C63.41,48.066 63.098,48.483 62.697,48.843C62.283,49.201 61.793,49.483 61.238,49.682C60.686,49.88 60.093,49.981 59.478,49.981L54.551,49.981L54.571,36.715L58.447,36.715C59.694,36.715 60.705,37.072 61.451,37.777C61.798,38.096 62.07,38.471 62.257,38.888C62.446,39.306 62.541,39.746 62.541,40.194C62.541,40.752 62.41,41.271 62.151,41.733C61.923,42.139 61.644,42.469 61.32,42.716C61.433,42.756 61.538,42.798 61.634,42.839C62.27,43.116 62.819,43.552 63.266,44.137ZM59.946,42.083C60.257,41.952 60.564,41.714 60.856,41.381C61.138,41.056 61.275,40.668 61.275,40.194C61.275,39.817 61.171,39.471 60.957,39.133C60.746,38.801 60.424,38.527 60.001,38.318C59.571,38.107 59.049,38 58.447,38L55.837,38L55.837,42.328L58.407,42.328C58.753,42.328 59.043,42.309 59.269,42.271C59.496,42.233 59.724,42.17 59.946,42.083ZM55.837,43.613L55.837,48.715L59.478,48.715C60.12,48.715 60.692,48.588 61.178,48.339C61.663,48.091 62.04,47.768 62.298,47.38C62.554,46.996 62.684,46.587 62.684,46.165C62.684,45.694 62.533,45.262 62.237,44.881C61.934,44.491 61.568,44.199 61.149,44.014C60.541,43.748 59.759,43.613 58.824,43.613L55.837,43.613ZM68.096,36.716L68.096,49.982L66.83,49.982L66.83,36.716L68.096,36.716ZM73.033,36.715L73.033,48.715L80.273,48.715L80.273,49.981L71.767,49.981L71.767,36.715L73.033,36.715ZM84.797,36.716L84.797,49.982L83.531,49.982L83.531,36.716L84.797,36.716ZM87.352,49.981L93.719,36.29L99.732,49.981L98.354,49.981L96.905,46.709L90.282,46.709L88.755,49.981L87.352,49.981ZM93.67,39.397L90.871,45.442L96.343,45.442L93.67,39.397ZM107.649,44.257C107.375,44.29 107.083,44.312 106.779,44.321L111.445,49.981L109.771,49.981L104.108,43.102L106.09,43.102C107.041,43.102 107.817,42.98 108.399,42.739C108.811,42.546 109.182,42.241 109.493,41.836C109.796,41.441 109.951,41.003 109.951,40.531C109.951,40.109 109.821,39.7 109.565,39.316C109.307,38.929 108.93,38.606 108.445,38.357C107.958,38.108 107.385,37.981 106.745,37.981L103.322,37.981L103.322,49.981L102.055,49.981L102.055,36.715L106.745,36.715C107.372,36.715 107.966,36.816 108.514,37.014C109.063,37.213 109.55,37.502 109.963,37.874C110.364,38.234 110.676,38.647 110.891,39.103C111.107,39.563 111.216,40.044 111.216,40.531C111.216,41.297 110.983,41.991 110.523,42.598C110.069,43.197 109.522,43.634 108.9,43.897C108.479,44.087 108.056,44.209 107.649,44.257ZM115.819,36.716L115.819,49.982L114.552,49.982L114.552,36.716L115.819,36.716ZM124.741,36.29L130.754,49.981L129.375,49.981L127.927,46.709L121.304,46.709L119.777,49.981L118.374,49.981L124.741,36.29ZM124.692,39.397L121.893,45.442L127.365,45.442L124.692,39.397ZM32.194,-68.387L66.487,-84.24L100.78,-68.389L100.78,-65.052L66.487,-76.997L32.194,-65.052L32.194,-68.387ZM32.194,-57.456L66.487,-65.498L100.78,-57.456L100.78,-53.993L66.487,-58.133L32.194,-53.993L32.194,-57.456ZM32.194,-62.928L66.487,-74.874L100.78,-62.928L100.78,-59.516L66.487,-67.557L32.194,-59.516L32.194,-62.928ZM32.194,-51.971L66.487,-56.112L100.78,-51.971L100.78,-48.48L66.48,-48.719L32.194,-48.48L32.194,-51.971ZM32.194,-40.965L66.487,-37.298L100.78,-40.965L100.78,-37.497L66.487,-29.927L32.194,-37.497L32.194,-40.965ZM32.194,-46.475L66.48,-46.713L100.78,-46.475L100.78,-42.98L66.487,-39.315L32.194,-42.98L32.194,-46.475ZM66.487,-99.951L115.269,-70.085L102.125,-70.085L66.487,-87.828L30.853,-70.085L17.707,-70.085L66.487,-99.951Z" style="fill:rgb(17,40,76);"/>
    </g>
</svg>
