<?xml version="1.0" encoding="UTF-8" standalone="no"?>
<!DOCTYPE svg PUBLIC "-//W3C//DTD SVG 1.1//EN" "http://www.w3.org/Graphics/SVG/1.1/DTD/svg11.dtd">
<svg width="100%" height="100%" viewBox="0 0 1000 400" version="1.1" xmlns="http://www.w3.org/2000/svg" xmlns:xlink="http://www.w3.org/1999/xlink" xml:space="preserve" xmlns:serif="http://www.serif.com/" style="fill-rule:evenodd;clip-rule:evenodd;stroke-linejoin:round;stroke-miterlimit:2;">
    <g transform="matrix(7.7239,0,0,7.7239,-812.693,-59.4556)">
        <g>
            <g transform="matrix(1,0,0,1,146.865,32.3134)">
                <path d="M0,-5.01C-0.226,-5.285 -0.503,-5.496 -0.833,-5.644C-1.162,-5.791 -1.542,-5.865 -1.974,-5.865C-2.407,-5.865 -2.807,-5.781 -3.175,-5.614C-3.544,-5.447 -3.863,-5.214 -4.133,-4.914C-4.403,-4.615 -4.614,-4.259 -4.766,-3.846C-4.919,-3.434 -4.995,-2.986 -4.995,-2.505C-4.995,-2.014 -4.919,-1.565 -4.766,-1.157C-4.614,-0.75 -4.406,-0.396 -4.14,-0.096C-3.875,0.203 -3.563,0.437 -3.205,0.604C-2.846,0.77 -2.461,0.854 -2.048,0.854C-1.577,0.854 -1.159,0.756 -0.796,0.559C-0.432,0.363 -0.133,0.088 0.103,-0.266L2.018,1.163C1.576,1.782 1.017,2.239 0.339,2.533C-0.339,2.828 -1.036,2.976 -1.753,2.976C-2.569,2.976 -3.32,2.848 -4.008,2.592C-4.695,2.337 -5.289,1.971 -5.79,1.495C-6.291,1.019 -6.682,0.441 -6.962,-0.236C-7.242,-0.914 -7.382,-1.67 -7.382,-2.505C-7.382,-3.34 -7.242,-4.097 -6.962,-4.774C-6.682,-5.452 -6.291,-6.029 -5.79,-6.505C-5.289,-6.982 -4.695,-7.348 -4.008,-7.603C-3.32,-7.858 -2.569,-7.986 -1.753,-7.986C-1.459,-7.986 -1.152,-7.959 -0.833,-7.905C-0.513,-7.851 -0.199,-7.765 0.11,-7.647C0.42,-7.529 0.717,-7.372 1.002,-7.176C1.287,-6.979 1.542,-6.739 1.768,-6.454L0,-5.01Z" style="fill:rgb(28,37,44);fill-rule:nonzero;"/>
            </g>
            <g transform="matrix(1,0,0,1,152.699,29.808)">
                <path d="M0,0C0,0.491 0.076,0.941 0.228,1.348C0.38,1.756 0.599,2.109 0.884,2.409C1.169,2.709 1.51,2.942 1.908,3.109C2.306,3.276 2.75,3.359 3.241,3.359C3.732,3.359 4.177,3.276 4.575,3.109C4.973,2.942 5.314,2.709 5.599,2.409C5.883,2.109 6.102,1.756 6.254,1.348C6.406,0.941 6.483,0.491 6.483,0C6.483,-0.481 6.406,-0.928 6.254,-1.341C6.102,-1.753 5.883,-2.109 5.599,-2.409C5.314,-2.708 4.973,-2.942 4.575,-3.109C4.177,-3.276 3.732,-3.359 3.241,-3.359C2.75,-3.359 2.306,-3.276 1.908,-3.109C1.51,-2.942 1.169,-2.708 0.884,-2.409C0.599,-2.109 0.38,-1.753 0.228,-1.341C0.076,-0.928 0,-0.481 0,0M-2.387,0C-2.387,-0.835 -2.247,-1.591 -1.967,-2.269C-1.687,-2.947 -1.297,-3.524 -0.796,-4C-0.295,-4.477 0.299,-4.842 0.987,-5.098C1.675,-5.353 2.426,-5.481 3.241,-5.481C4.057,-5.481 4.808,-5.353 5.496,-5.098C6.183,-4.842 6.777,-4.477 7.278,-4C7.779,-3.524 8.17,-2.947 8.45,-2.269C8.729,-1.591 8.87,-0.835 8.87,0C8.87,0.835 8.729,1.591 8.45,2.269C8.17,2.947 7.779,3.524 7.278,4C6.777,4.477 6.183,4.843 5.496,5.098C4.808,5.353 4.057,5.481 3.241,5.481C2.426,5.481 1.675,5.353 0.987,5.098C0.299,4.843 -0.295,4.477 -0.796,4C-1.297,3.524 -1.687,2.947 -1.967,2.269C-2.247,1.591 -2.387,0.835 -2.387,0" style="fill:rgb(28,37,44);fill-rule:nonzero;"/>
            </g>
            <g transform="matrix(1,0,0,1,163.867,35.0234)">
                <path d="M0,-10.431L3.123,-10.431L7.558,-3.182L7.588,-3.182L7.588,-10.431L9.886,-10.431L9.886,0L6.88,0L2.328,-7.425L2.299,-7.425L2.299,0L0,0L0,-10.431Z" style="fill:rgb(28,37,44);fill-rule:nonzero;"/>
            </g>
            <g transform="matrix(1,0,0,1,183.433,32.3134)">
                <path d="M0,-5.01C-0.226,-5.285 -0.503,-5.496 -0.833,-5.644C-1.162,-5.791 -1.542,-5.865 -1.974,-5.865C-2.407,-5.865 -2.807,-5.781 -3.175,-5.614C-3.544,-5.447 -3.863,-5.214 -4.133,-4.914C-4.403,-4.615 -4.614,-4.259 -4.766,-3.846C-4.919,-3.434 -4.995,-2.986 -4.995,-2.505C-4.995,-2.014 -4.919,-1.565 -4.766,-1.157C-4.614,-0.75 -4.406,-0.396 -4.14,-0.096C-3.875,0.203 -3.563,0.437 -3.205,0.604C-2.846,0.77 -2.461,0.854 -2.048,0.854C-1.577,0.854 -1.159,0.756 -0.796,0.559C-0.432,0.363 -0.133,0.088 0.103,-0.266L2.018,1.163C1.576,1.782 1.017,2.239 0.339,2.533C-0.339,2.828 -1.036,2.976 -1.753,2.976C-2.569,2.976 -3.32,2.848 -4.008,2.592C-4.695,2.337 -5.289,1.971 -5.79,1.495C-6.291,1.019 -6.682,0.441 -6.962,-0.236C-7.242,-0.914 -7.382,-1.67 -7.382,-2.505C-7.382,-3.34 -7.242,-4.097 -6.962,-4.774C-6.682,-5.452 -6.291,-6.029 -5.79,-6.505C-5.289,-6.982 -4.695,-7.348 -4.008,-7.603C-3.32,-7.858 -2.569,-7.986 -1.753,-7.986C-1.459,-7.986 -1.152,-7.959 -0.833,-7.905C-0.513,-7.851 -0.199,-7.765 0.11,-7.647C0.42,-7.529 0.717,-7.372 1.002,-7.176C1.287,-6.979 1.542,-6.739 1.768,-6.454L0,-5.01Z" style="fill:rgb(28,37,44);fill-rule:nonzero;"/>
            </g>
            <g transform="matrix(1,0,0,1,187.529,35.0234)">
                <path d="M0,-10.431L7.087,-10.431L7.087,-8.309L2.298,-8.309L2.298,-6.365L6.822,-6.365L6.822,-4.243L2.298,-4.243L2.298,-2.121L7.352,-2.121L7.352,0L0,0L0,-10.431Z" style="fill:rgb(28,37,44);fill-rule:nonzero;"/>
            </g>
            <g transform="matrix(1,0,0,1,199.757,30.6033)">
                <path d="M0,-1.591L1.532,-1.591C1.738,-1.591 1.937,-1.61 2.129,-1.65C2.32,-1.689 2.492,-1.755 2.645,-1.849C2.797,-1.942 2.92,-2.07 3.013,-2.232C3.106,-2.394 3.153,-2.598 3.153,-2.843C3.153,-3.108 3.091,-3.322 2.969,-3.484C2.846,-3.646 2.689,-3.771 2.497,-3.86C2.306,-3.948 2.092,-4.005 1.856,-4.029C1.621,-4.054 1.395,-4.066 1.179,-4.066L0,-4.066L0,-1.591ZM-2.298,-6.011L1.576,-6.011C2.117,-6.011 2.627,-5.962 3.109,-5.864C3.59,-5.765 4.01,-5.596 4.369,-5.355C4.727,-5.115 5.012,-4.79 5.223,-4.383C5.434,-3.975 5.54,-3.462 5.54,-2.843C5.54,-2.234 5.441,-1.724 5.245,-1.311C5.048,-0.898 4.778,-0.569 4.435,-0.324C4.091,-0.078 3.683,0.096 3.212,0.199C2.74,0.302 2.229,0.354 1.679,0.354L0,0.354L0,4.42L-2.298,4.42L-2.298,-6.011Z" style="fill:rgb(28,37,44);fill-rule:nonzero;"/>
            </g>
            <g transform="matrix(1,0,0,1,209.496,32.9906)">
                <path d="M0,-6.365L-2.976,-6.365L-2.976,-8.398L5.275,-8.398L5.275,-6.365L2.298,-6.365L2.298,2.033L0,2.033L0,-6.365Z" style="fill:rgb(28,37,44);fill-rule:nonzero;"/>
            </g>
            <g transform="matrix(1,0,0,1,218.498,29.808)">
                <path d="M0,0C0,0.491 0.076,0.941 0.228,1.348C0.381,1.756 0.599,2.109 0.884,2.409C1.169,2.709 1.51,2.942 1.908,3.109C2.306,3.276 2.75,3.359 3.241,3.359C3.732,3.359 4.177,3.276 4.575,3.109C4.973,2.942 5.314,2.709 5.599,2.409C5.883,2.109 6.102,1.756 6.255,1.348C6.406,0.941 6.483,0.491 6.483,0C6.483,-0.481 6.406,-0.928 6.255,-1.341C6.102,-1.753 5.883,-2.109 5.599,-2.409C5.314,-2.708 4.973,-2.942 4.575,-3.109C4.177,-3.276 3.732,-3.359 3.241,-3.359C2.75,-3.359 2.306,-3.276 1.908,-3.109C1.51,-2.942 1.169,-2.708 0.884,-2.409C0.599,-2.109 0.381,-1.753 0.228,-1.341C0.076,-0.928 0,-0.481 0,0M-2.387,0C-2.387,-0.835 -2.247,-1.591 -1.967,-2.269C-1.687,-2.947 -1.297,-3.524 -0.796,-4C-0.295,-4.477 0.3,-4.842 0.987,-5.098C1.675,-5.353 2.426,-5.481 3.241,-5.481C4.057,-5.481 4.808,-5.353 5.496,-5.098C6.183,-4.842 6.778,-4.477 7.279,-4C7.779,-3.524 8.17,-2.947 8.45,-2.269C8.729,-1.591 8.87,-0.835 8.87,0C8.87,0.835 8.729,1.591 8.45,2.269C8.17,2.947 7.779,3.524 7.279,4C6.778,4.477 6.183,4.843 5.496,5.098C4.808,5.353 4.057,5.481 3.241,5.481C2.426,5.481 1.675,5.353 0.987,5.098C0.3,4.843 -0.295,4.477 -0.796,4C-1.297,3.524 -1.687,2.947 -1.967,2.269C-2.247,1.591 -2.387,0.835 -2.387,0" style="fill:rgb(28,37,44);fill-rule:nonzero;"/>
            </g>
            <g transform="matrix(1,0,0,1,145.737,39.8479)">
                <path d="M0,5.225L0,1.143L-2.287,4.407L-4.606,1.135L-4.606,5.225L-4.963,5.225L-4.963,0L-2.287,3.78L0.357,0L0.357,5.225L0,5.225Z" style="fill:rgb(161,106,56);fill-rule:nonzero;"/>
            </g>
            <g transform="matrix(1,0,0,1,150.43,44.1911)">
                <path d="M0,-3.462L-1.239,-0.786L1.183,-0.786L0,-3.462ZM-1.405,-0.429L-2.017,0.882L-2.414,0.882L0.016,-4.344L2.311,0.882L1.922,0.882L1.342,-0.429L-1.405,-0.429Z" style="fill:rgb(161,106,56);fill-rule:nonzero;"/>
            </g>
            <g transform="matrix(1,0,0,1,157.891,41.9087)">
                <path d="M0,1.167C0.135,1.365 0.202,1.579 0.202,1.806C0.202,2.002 0.155,2.189 0.06,2.366C-0.036,2.544 -0.174,2.698 -0.354,2.831C-0.724,3.096 -1.156,3.228 -1.648,3.228C-1.891,3.228 -2.124,3.193 -2.347,3.124C-2.569,3.056 -2.768,2.958 -2.942,2.831C-3.244,2.608 -3.427,2.336 -3.49,2.013L-3.149,1.822C-3.133,2.113 -2.99,2.352 -2.72,2.537C-2.582,2.643 -2.421,2.723 -2.236,2.779C-2.05,2.835 -1.854,2.862 -1.648,2.862C-1.224,2.862 -0.867,2.754 -0.576,2.537C-0.295,2.33 -0.155,2.087 -0.155,1.806C-0.155,1.642 -0.207,1.489 -0.31,1.346C-0.413,1.203 -0.557,1.081 -0.742,0.98C-0.917,0.89 -1.23,0.819 -1.68,0.766C-1.717,0.761 -1.85,0.739 -2.081,0.702C-2.311,0.665 -2.508,0.607 -2.672,0.528C-2.932,0.401 -3.136,0.233 -3.284,0.023C-3.432,-0.186 -3.506,-0.412 -3.506,-0.655C-3.506,-0.851 -3.457,-1.035 -3.359,-1.207C-3.261,-1.379 -3.122,-1.532 -2.942,-1.664C-2.768,-1.791 -2.569,-1.889 -2.347,-1.958C-2.124,-2.027 -1.891,-2.061 -1.648,-2.061C-1.156,-2.061 -0.724,-1.929 -0.354,-1.664C-0.046,-1.431 0.134,-1.161 0.187,-0.854L-0.155,-0.663C-0.16,-0.796 -0.199,-0.923 -0.27,-1.045C-0.341,-1.166 -0.444,-1.278 -0.576,-1.378C-0.719,-1.484 -0.883,-1.565 -1.068,-1.62C-1.254,-1.676 -1.447,-1.704 -1.648,-1.704C-1.849,-1.704 -2.044,-1.676 -2.232,-1.62C-2.42,-1.565 -2.582,-1.484 -2.72,-1.378C-2.858,-1.278 -2.963,-1.165 -3.038,-1.041C-3.112,-0.916 -3.149,-0.788 -3.149,-0.655C-3.149,-0.491 -3.088,-0.329 -2.966,-0.167C-2.844,-0.006 -2.694,0.12 -2.514,0.21C-2.402,0.263 -2.279,0.301 -2.144,0.325C-2.009,0.349 -1.836,0.374 -1.624,0.401C-1.587,0.406 -1.494,0.419 -1.346,0.44C-1.198,0.462 -1.055,0.491 -0.917,0.528C-0.78,0.565 -0.663,0.61 -0.568,0.663C-0.324,0.8 -0.135,0.968 0,1.167" style="fill:rgb(161,106,56);fill-rule:nonzero;"/>
            </g>
            <g transform="matrix(1,0,0,1,164.153,45.073)">
                <path d="M0,-5.162L0,-4.797L-2.041,-4.797L-2.041,0L-2.406,0L-2.406,-4.797L-4.455,-4.797L-4.455,-5.162L0,-5.162Z" style="fill:rgb(161,106,56);fill-rule:nonzero;"/>
            </g>
            <g transform="matrix(1,0,0,1,166.098,39.9109)">
                <path d="M0,5.162L0,0L3.343,0L3.343,0.366L0.357,0.366L0.357,2.398L2.684,2.398L2.684,2.764L0.357,2.764L0.357,4.789L3.343,4.789L3.343,5.162L0,5.162Z" style="fill:rgb(161,106,56);fill-rule:nonzero;"/>
            </g>
            <g transform="matrix(1,0,0,1,174.643,39.9109)">
                <path d="M0,5.162L-2.144,2.557L-1.509,2.557C-1.117,2.557 -0.799,2.507 -0.556,2.406C-0.376,2.322 -0.22,2.193 -0.087,2.021C0.045,1.849 0.111,1.66 0.111,1.454C0.111,1.268 0.056,1.092 -0.056,0.925C-0.167,0.759 -0.325,0.622 -0.532,0.516C-0.739,0.41 -0.977,0.358 -1.247,0.358L-2.692,0.358L-2.692,5.162L-3.049,5.162L-3.049,0L-1.247,0C-1.003,0 -0.776,0.039 -0.564,0.115C-0.352,0.192 -0.167,0.302 -0.008,0.445C0.146,0.583 0.263,0.739 0.345,0.913C0.428,1.088 0.469,1.268 0.469,1.454C0.469,1.745 0.381,2.005 0.207,2.236C0.032,2.466 -0.175,2.631 -0.413,2.732C-0.577,2.806 -0.737,2.852 -0.893,2.871C-1.05,2.89 -1.215,2.899 -1.39,2.899L0.477,5.162L0,5.162Z" style="fill:rgb(161,106,56);fill-rule:nonzero;"/>
            </g>
            <g transform="matrix(1,0,0,1,183.338,40.4267)">
                <path d="M0,4.13C0.206,4.024 0.365,3.888 0.476,3.721C0.588,3.554 0.643,3.378 0.643,3.193C0.643,2.986 0.578,2.8 0.449,2.633C0.319,2.466 0.164,2.343 -0.016,2.264C-0.27,2.153 -0.591,2.097 -0.977,2.097L-2.247,2.097L-2.247,4.289L-0.715,4.289C-0.445,4.289 -0.207,4.236 0,4.13M-2.247,1.732L-1.144,1.732C-1.001,1.732 -0.882,1.724 -0.786,1.708C-0.691,1.692 -0.596,1.666 -0.5,1.629C-0.363,1.57 -0.232,1.47 -0.107,1.327C0.017,1.184 0.079,1.009 0.079,0.803C0.079,0.639 0.033,0.484 -0.06,0.338C-0.152,0.193 -0.29,0.075 -0.473,-0.015C-0.655,-0.105 -0.874,-0.15 -1.128,-0.15L-2.247,-0.15L-2.247,1.732ZM0.742,2.427C0.914,2.652 1,2.907 1,3.193C1,3.378 0.96,3.56 0.877,3.737C0.795,3.914 0.678,4.072 0.524,4.209C0.365,4.347 0.179,4.454 -0.036,4.531C-0.25,4.608 -0.477,4.646 -0.715,4.646L-2.613,4.646L-2.605,-0.516L-1.128,-0.516C-0.646,-0.516 -0.262,-0.381 0.024,-0.111C0.156,0.011 0.258,0.151 0.329,0.31C0.401,0.469 0.437,0.633 0.437,0.803C0.437,1.014 0.388,1.208 0.29,1.382C0.192,1.557 0.071,1.692 -0.072,1.787L-0.143,1.835C-0.043,1.867 0.045,1.899 0.119,1.93C0.362,2.036 0.57,2.202 0.742,2.427" style="fill:rgb(161,106,56);fill-rule:nonzero;"/>
            </g>
            <g transform="matrix(1,0,0,1,189.389,39.9109)">
                <path d="M0,5.162L-2.144,2.557L-1.509,2.557C-1.117,2.557 -0.799,2.507 -0.556,2.406C-0.376,2.322 -0.22,2.193 -0.087,2.021C0.045,1.849 0.111,1.66 0.111,1.454C0.111,1.268 0.056,1.092 -0.056,0.925C-0.167,0.759 -0.325,0.622 -0.532,0.516C-0.739,0.41 -0.977,0.358 -1.247,0.358L-2.692,0.358L-2.692,5.162L-3.049,5.162L-3.049,0L-1.247,0C-1.003,0 -0.776,0.039 -0.564,0.115C-0.352,0.192 -0.167,0.302 -0.008,0.445C0.146,0.583 0.263,0.739 0.345,0.913C0.428,1.088 0.469,1.268 0.469,1.454C0.469,1.745 0.381,2.005 0.207,2.236C0.032,2.466 -0.175,2.631 -0.413,2.732C-0.577,2.806 -0.737,2.852 -0.893,2.871C-1.05,2.89 -1.215,2.899 -1.39,2.899L0.477,5.162L0,5.162Z" style="fill:rgb(161,106,56);fill-rule:nonzero;"/>
            </g>
            <g transform="matrix(1,0,0,1,194.25,44.7639)">
                <path d="M0,-4.543C-0.408,-4.543 -0.784,-4.441 -1.128,-4.237C-1.472,-4.033 -1.746,-3.758 -1.95,-3.411C-2.153,-3.065 -2.255,-2.685 -2.255,-2.272C-2.255,-1.859 -2.153,-1.479 -1.95,-1.132C-1.746,-0.785 -1.472,-0.51 -1.128,-0.306C-0.784,-0.102 -0.408,-0.001 0,-0.001C0.408,-0.001 0.783,-0.102 1.128,-0.306C1.472,-0.51 1.744,-0.785 1.946,-1.132C2.147,-1.479 2.247,-1.859 2.247,-2.272C2.247,-2.685 2.147,-3.065 1.946,-3.411C1.744,-3.758 1.472,-4.033 1.128,-4.237C0.783,-4.441 0.408,-4.543 0,-4.543M0,0.365C-0.471,0.365 -0.908,0.247 -1.31,0.011C-1.713,-0.224 -2.03,-0.545 -2.263,-0.95C-2.496,-1.355 -2.613,-1.795 -2.613,-2.272C-2.613,-2.748 -2.496,-3.189 -2.263,-3.594C-2.03,-3.999 -1.713,-4.319 -1.31,-4.555C-0.908,-4.79 -0.471,-4.908 0,-4.908C0.471,-4.908 0.908,-4.79 1.31,-4.555C1.713,-4.319 2.03,-3.999 2.263,-3.594C2.496,-3.189 2.613,-2.748 2.613,-2.272C2.613,-1.795 2.496,-1.355 2.263,-0.95C2.03,-0.545 1.713,-0.224 1.31,0.011C0.908,0.247 0.471,0.365 0,0.365" style="fill:rgb(161,106,56);fill-rule:nonzero;"/>
            </g>
            <g transform="matrix(1,0,0,1,202.802,39.9979)">
                <path d="M0,5.075L-0.476,5.075L-2.327,2.875L-3.994,5.162L-3.994,-0.087L-3.637,-0.087L-3.637,4.051L-0.627,-0.087L-0.175,-0.087L-2.112,2.566L0,5.075Z" style="fill:rgb(161,106,56);fill-rule:nonzero;"/>
            </g>
            <g transform="matrix(1,0,0,1,204.755,39.9109)">
                <path d="M0,5.162L0,0L3.343,0L3.343,0.366L0.357,0.366L0.357,2.398L2.684,2.398L2.684,2.764L0.357,2.764L0.357,4.789L3.343,4.789L3.343,5.162L0,5.162Z" style="fill:rgb(161,106,56);fill-rule:nonzero;"/>
            </g>
            <g transform="matrix(1,0,0,1,213.3,39.9109)">
                <path d="M0,5.162L-2.144,2.557L-1.509,2.557C-1.117,2.557 -0.8,2.507 -0.556,2.406C-0.376,2.322 -0.22,2.193 -0.087,2.021C0.045,1.849 0.111,1.66 0.111,1.454C0.111,1.268 0.056,1.092 -0.056,0.925C-0.167,0.759 -0.326,0.622 -0.532,0.516C-0.739,0.41 -0.977,0.358 -1.247,0.358L-2.692,0.358L-2.692,5.162L-3.049,5.162L-3.049,0L-1.247,0C-1.003,0 -0.776,0.039 -0.564,0.115C-0.352,0.192 -0.167,0.302 -0.008,0.445C0.146,0.583 0.263,0.739 0.345,0.913C0.428,1.088 0.469,1.268 0.469,1.454C0.469,1.745 0.381,2.005 0.207,2.236C0.032,2.466 -0.175,2.631 -0.413,2.732C-0.577,2.806 -0.737,2.852 -0.893,2.871C-1.05,2.89 -1.215,2.899 -1.39,2.899L0.477,5.162L0,5.162Z" style="fill:rgb(161,106,56);fill-rule:nonzero;"/>
            </g>
            <g transform="matrix(-0.707107,0.707107,0.707107,0.707107,125.696,33.8657)">
                <path d="M-5.179,-8.598L10.014,-8.598L3.561,-2.145L-11.632,-2.145L-5.179,-8.598Z" style="fill:rgb(161,106,56);fill-rule:nonzero;"/>
            </g>
            <g transform="matrix(0,1,1,0,127.391,29.6817)">
                <path d="M6.095,-4.648L15.391,-4.648L4.649,6.095L-4.648,6.095L6.095,-4.648Z" style="fill:rgb(161,106,56);fill-rule:nonzero;"/>
            </g>
        </g>
    </g>
</svg>
