<?xml version="1.0" encoding="UTF-8" standalone="no"?>
<!DOCTYPE svg PUBLIC "-//W3C//DTD SVG 1.1//EN" "http://www.w3.org/Graphics/SVG/1.1/DTD/svg11.dtd">
<svg width="100%" height="100%" viewBox="0 0 1000 400" version="1.1" xmlns="http://www.w3.org/2000/svg" xmlns:xlink="http://www.w3.org/1999/xlink" xml:space="preserve" xmlns:serif="http://www.serif.com/" style="fill-rule:evenodd;clip-rule:evenodd;stroke-linejoin:round;stroke-miterlimit:2;">
    <g transform="matrix(1.01308,0,0,1.01308,311.63,253.31)">
        <g>
            <g id="XMLID_416_" transform="matrix(0.672937,0,0,0.672937,-419.706,-389.124)">
                <path d="M581.4,717.2L571.5,717.2L571.5,744.3L567.6,744.3L567.6,717.2L557.8,717.2L557.8,713.7L581.4,713.7L581.4,717.2ZM593.9,716.6C595.7,714.3 598.8,713.1 603.3,713.1C607.8,713.1 610.9,714.3 612.7,716.6C614.5,718.9 615.4,723 615.4,729C615.4,734.9 614.5,739.1 612.7,741.4C610.9,743.7 607.8,744.9 603.3,744.9C598.8,744.9 595.7,743.7 593.9,741.4C592.1,739.1 591.2,735 591.2,729C591.2,723 592.1,718.9 593.9,716.6ZM609.5,719.3C608.3,717.5 606.3,716.6 603.3,716.6C600.3,716.6 598.2,717.5 597.1,719.3C595.9,721.1 595.4,724.3 595.4,729C595.4,733.7 596,736.9 597.1,738.7C598.3,740.5 600.3,741.4 603.3,741.4C606.3,741.4 608.4,740.5 609.5,738.7C610.7,736.9 611.2,733.7 611.2,729C611.2,724.3 610.7,721.1 609.5,719.3ZM628.5,744.2L628.5,713.7C632.3,713.4 636,713.3 639.4,713.3C643.8,713.3 646.9,714.4 648.6,716.7C650.4,719 651.3,723.1 651.3,728.9C651.3,734.8 650.4,738.8 648.6,741.1C646.8,743.4 643.7,744.5 639.4,744.5C636,744.6 632.4,744.5 628.5,744.2ZM632.4,716.8L632.4,741.2C635.1,741.3 637.4,741.3 639.4,741.3C642.3,741.3 644.4,740.4 645.5,738.6C646.7,736.8 647.2,733.6 647.2,729C647.2,724.4 646.6,721.2 645.5,719.4C644.3,717.6 642.3,716.7 639.4,716.7C637.5,716.7 635.2,716.7 632.4,716.8ZM666.1,716.6C667.9,714.3 671,713.1 675.5,713.1C680,713.1 683.1,714.3 684.9,716.6C686.7,718.9 687.6,723 687.6,729C687.6,734.9 686.7,739.1 684.9,741.4C683.1,743.7 680,744.9 675.5,744.9C671,744.9 667.9,743.7 666.1,741.4C664.3,739.1 663.4,735 663.4,729C663.4,723 664.3,718.9 666.1,716.6ZM681.7,719.3C680.5,717.5 678.5,716.6 675.5,716.6C672.5,716.6 670.4,717.5 669.3,719.3C668.1,721.1 667.6,724.3 667.6,729C667.6,733.7 668.2,736.9 669.3,738.7C670.5,740.5 672.5,741.4 675.5,741.4C678.5,741.4 680.6,740.5 681.7,738.7C682.9,736.9 683.4,733.7 683.4,729C683.4,724.3 682.9,721.1 681.7,719.3ZM717.2,744.1L717.2,713.7C719.7,713.4 723.2,713.3 727.7,713.3C731.4,713.3 734,714 735.4,715.3C736.8,716.6 737.5,719.2 737.5,722.8C737.5,726.5 736.8,729 735.4,730.3C734,731.6 731.6,732.3 728.1,732.3C725.7,732.3 723.3,732.2 721.1,731.9L721.1,744.1L717.2,744.1ZM721.2,729.1L727.6,729.1C729.9,729.1 731.4,728.6 732.3,727.8C733.1,727 733.6,725.3 733.6,722.9C733.6,720.5 733.2,718.8 732.3,718C731.4,717.1 729.9,716.7 727.7,716.7L721.2,716.7L721.2,729.1ZM764.6,734.7L752,734.7L749,744.3L745,744.3L754.8,714.8C755,714.1 755.5,713.7 756.3,713.7L760.4,713.7C761.2,713.7 761.7,714.1 761.9,714.8L771.7,744.3L767.7,744.3L764.6,734.7ZM763.6,731.3L759.8,719.2C759.5,718.4 759.3,717.6 759,716.7L757.8,716.7L757,719.2L753.2,731.3L763.6,731.3ZM804.1,744.2L799.9,744.2L797.2,734.6C796.8,733.4 796.3,732.6 795.7,732.1C795.1,731.6 794.2,731.4 793.2,731.4L786.5,731.4L786.5,744.2L782.7,744.2L782.7,713.7C785.2,713.4 788.7,713.3 793.2,713.3C796.8,713.3 799.4,713.9 800.9,715.2C802.4,716.5 803.1,718.8 803.1,722.1C803.1,724.6 802.7,726.5 801.8,727.7C800.9,728.9 799.5,729.7 797.5,730L797.5,730.2C798.3,730.4 799.1,730.9 799.8,731.6C800.5,732.4 801,733.3 801.3,734.5L804.1,744.2ZM786.4,728.1L793,728.1C795.3,728.1 796.9,727.7 797.7,726.9C798.6,726.1 799,724.6 799,722.3C799,720.1 798.6,718.6 797.7,717.8C796.8,717 795.3,716.6 793,716.6L786.4,716.6L786.4,728.1ZM832.8,734.7L820.2,734.7L817.2,744.3L813.2,744.3L823,714.8C823.2,714.1 823.7,713.7 824.5,713.7L828.6,713.7C829.4,713.7 829.9,714.1 830.1,714.8L839.9,744.3L835.9,744.3L832.8,734.7ZM831.7,731.3L827.9,719.2C827.6,718.4 827.4,717.6 827.1,716.7L825.9,716.7L825.1,719.2L821.3,731.3L831.7,731.3ZM886,717.2L876.1,717.2L876.1,744.3L872.2,744.3L872.2,717.2L862.4,717.2L862.4,713.7L886,713.7L886,717.2ZM919.5,713.7L919.5,732.5C919.5,737 918.7,740.1 917,742C915.3,743.9 912.5,744.8 908.5,744.8C904.4,744.8 901.5,743.9 899.8,742C898.1,740.1 897.3,737 897.3,732.5L897.3,713.7L901.2,713.7L901.2,732.5C901.2,735.8 901.7,738.1 902.8,739.3C903.9,740.6 905.7,741.2 908.4,741.2C911.1,741.2 912.9,740.6 914,739.3C915.1,738 915.6,735.7 915.6,732.5L915.6,713.7L919.5,713.7ZM944.5,731.3L938.2,729.7C936,729.2 934.5,728.2 933.6,726.8C932.7,725.4 932.2,723.5 932.2,721.2C932.2,719.4 932.4,718 932.8,716.9C933.2,715.8 933.8,715 934.7,714.5C935.6,714 936.6,713.6 937.7,713.4C938.8,713.2 940.3,713.1 942.1,713.1C945.7,713.2 948.7,713.5 951.2,714L950.9,716.8C948,716.7 945.2,716.6 942.3,716.6C941,716.6 940,716.6 939.4,716.7C938.8,716.8 938.2,716.9 937.6,717.2C937,717.5 936.6,718 936.4,718.6C936.2,719.2 936.1,720.1 936.1,721.2C936.1,722.8 936.4,724 937,724.7C937.6,725.4 938.6,725.9 940,726.2L946.2,727.7C948.5,728.3 950.1,729.2 951,730.6C951.9,732 952.4,733.9 952.4,736.3C952.4,739.7 951.6,741.9 950.1,743C948.6,744.1 945.9,744.6 942.2,744.6C939,744.6 935.8,744.3 932.7,743.8L933,740.9C938,741.1 941.1,741.2 942.3,741.1C944.7,741.1 946.3,740.8 947.2,740.2C948.1,739.6 948.5,738.3 948.5,736.2C948.5,734.5 948.2,733.3 947.6,732.7C946.9,732.2 945.9,731.7 944.5,731.3ZM1006,713.7L1010.4,713.7C1011.5,713.7 1012,714.2 1012,715.3L1013.3,744.2L1009.4,744.2L1008.3,716.9L1007.4,716.9L1000.6,739.4C1000.4,740.3 999.8,740.7 998.9,740.7L995.4,740.7C994.5,740.7 993.9,740.3 993.6,739.4L986.8,716.9L985.9,716.9L984.8,744.2L980.9,744.2L982.1,715.3C982.2,714.2 982.7,713.7 983.7,713.7L988.1,713.7C988.9,713.7 989.5,714.1 989.7,715L995.4,733.6C995.6,734.1 995.8,734.9 996.1,736C996.4,737 996.5,737.6 996.6,737.7L997.4,737.7C997.5,737.4 997.7,736.7 997.9,735.8C998.1,734.8 998.4,734.1 998.5,733.5L1004.2,715C1004.6,714.1 1005.2,713.7 1006,713.7ZM1043.2,734.7L1030.6,734.7L1027.6,744.3L1023.6,744.3L1033.4,714.8C1033.6,714.1 1034.1,713.7 1034.9,713.7L1039,713.7C1039.8,713.7 1040.3,714.1 1040.5,714.8L1050.3,744.3L1046.3,744.3L1043.2,734.7ZM1042.1,731.3L1038.3,719.2C1038,718.4 1037.8,717.6 1037.5,716.7L1036.3,716.7L1035.5,719.2L1031.7,731.3L1042.1,731.3ZM1072.1,731.3L1065.8,729.7C1063.6,729.2 1062.1,728.2 1061.2,726.8C1060.3,725.4 1059.8,723.5 1059.8,721.2C1059.8,719.4 1060,718 1060.4,716.9C1060.8,715.8 1061.4,715 1062.3,714.5C1063.2,714 1064.2,713.6 1065.3,713.4C1066.4,713.2 1067.9,713.1 1069.7,713.1C1073.3,713.2 1076.3,713.5 1078.8,714L1078.5,716.8C1075.6,716.7 1072.8,716.6 1069.9,716.6C1068.6,716.6 1067.6,716.6 1067,716.7C1066.4,716.8 1065.8,716.9 1065.2,717.2C1064.6,717.5 1064.2,718 1064,718.6C1063.8,719.2 1063.7,720.1 1063.7,721.2C1063.7,722.8 1064,724 1064.6,724.7C1065.2,725.4 1066.2,725.9 1067.6,726.2L1073.8,727.7C1076.1,728.3 1077.7,729.2 1078.6,730.6C1079.5,732 1080,733.9 1080,736.3C1080,739.7 1079.2,741.9 1077.7,743C1076.2,744.1 1073.5,744.6 1069.8,744.6C1066.6,744.6 1063.4,744.3 1060.3,743.8L1060.6,740.9C1065.6,741.1 1068.7,741.2 1069.9,741.1C1072.3,741.1 1073.9,740.8 1074.8,740.2C1075.7,739.6 1076.1,738.3 1076.1,736.2C1076.1,734.5 1075.8,733.3 1075.2,732.7C1074.5,732.2 1073.5,731.7 1072.1,731.3ZM1112,740.8L1112.4,743.7C1110,744.4 1107,744.7 1103.5,744.7C1099.1,744.7 1096,743.5 1094.2,741.2C1092.4,738.8 1091.5,734.8 1091.5,728.9C1091.5,723.1 1092.4,719 1094.2,716.6C1096,714.2 1099.1,713.1 1103.5,713.1C1106.7,713.1 1109.4,713.4 1111.8,714L1111.4,717C1108.7,716.7 1106.1,716.6 1103.5,716.6C1100.5,716.6 1098.5,717.5 1097.3,719.3C1096.2,721.1 1095.6,724.3 1095.6,729C1095.6,733.7 1096.2,736.9 1097.3,738.7C1098.4,740.5 1100.5,741.4 1103.5,741.4C1106.9,741.3 1109.7,741.2 1112,740.8ZM1125.5,716.6C1127.3,714.3 1130.4,713.1 1134.9,713.1C1139.4,713.1 1142.5,714.3 1144.3,716.6C1146.1,718.9 1147,723 1147,729C1147,734.9 1146.1,739.1 1144.3,741.4C1142.5,743.7 1139.4,744.9 1134.9,744.9C1130.4,744.9 1127.3,743.7 1125.5,741.4C1123.7,739.1 1122.8,735 1122.8,729C1122.8,723 1123.7,718.9 1125.5,716.6ZM1141.2,719.3C1140,717.5 1138,716.6 1135,716.6C1132,716.6 1129.9,717.5 1128.8,719.3C1127.6,721.1 1127.1,724.3 1127.1,729C1127.1,733.7 1127.7,736.9 1128.8,738.7C1130,740.5 1132,741.4 1135,741.4C1138,741.4 1140.1,740.5 1141.2,738.7C1142.4,736.9 1142.9,733.7 1142.9,729C1142.9,724.3 1142.3,721.1 1141.2,719.3ZM1180.4,717.2L1170.5,717.2L1170.5,744.3L1166.6,744.3L1166.6,717.2L1156.8,717.2L1156.8,713.7L1180.4,713.7L1180.4,717.2ZM1205.5,734.7L1192.9,734.7L1189.9,744.3L1185.9,744.3L1195.7,714.8C1195.9,714.1 1196.4,713.7 1197.2,713.7L1201.3,713.7C1202.1,713.7 1202.6,714.1 1202.8,714.8L1212.6,744.3L1208.6,744.3L1205.5,734.7ZM1204.4,731.3L1200.6,719.2C1200.3,718.4 1200.1,717.6 1199.8,716.7L1198.6,716.7L1197.8,719.2L1194,731.3L1204.4,731.3ZM1234.4,731.3L1228.1,729.7C1225.9,729.2 1224.4,728.2 1223.5,726.8C1222.6,725.4 1222.1,723.5 1222.1,721.2C1222.1,719.4 1222.3,718 1222.7,716.9C1223.1,715.8 1223.7,715 1224.6,714.5C1225.5,714 1226.5,713.6 1227.6,713.4C1228.7,713.2 1230.2,713.1 1232,713.1C1235.6,713.2 1238.6,713.5 1241.1,714L1240.8,716.8C1237.9,716.7 1235.1,716.6 1232.2,716.6C1230.9,716.6 1229.9,716.6 1229.3,716.7C1228.7,716.8 1228.1,716.9 1227.5,717.2C1226.9,717.5 1226.5,718 1226.3,718.6C1226.1,719.2 1226,720.1 1226,721.2C1226,722.8 1226.3,724 1226.9,724.7C1227.5,725.4 1228.5,725.9 1229.9,726.2L1236.1,727.7C1238.4,728.3 1240,729.2 1240.9,730.6C1241.8,732 1242.3,733.9 1242.3,736.3C1242.3,739.7 1241.5,741.9 1240,743C1238.5,744.1 1235.8,744.6 1232.1,744.6C1228.9,744.6 1225.7,744.3 1222.6,743.8L1222.9,740.9C1227.9,741.1 1231,741.2 1232.2,741.1C1234.6,741.1 1236.2,740.8 1237.1,740.2C1237.9,739.6 1238.4,738.3 1238.4,736.2C1238.4,734.5 1238.1,733.3 1237.5,732.7C1236.9,732.1 1235.8,731.7 1234.4,731.3Z" style="fill:rgb(59,191,173);"/>
            </g>
            <g id="XMLID_104_" transform="matrix(0.672937,0,0,0.672937,-419.706,-389.124)">
                <path d="M556.7,554.3C557.6,552.6 559.2,551.4 561.3,550.7C563.5,550 566.2,549.7 569.5,549.7C572.8,549.7 575.4,550 577.4,550.6C579.3,551.2 580.8,551.9 581.9,552.7C582.9,553.5 583.7,554.6 584.3,556.1C584.9,558 585.2,561 585.2,565L585.2,660.3C585.2,662.9 585.1,664.9 584.9,666.2C584.7,667.5 584.2,669 583.3,670.8C581.7,673.9 577.2,675.4 569.9,675.4C561.9,675.4 557.2,673.3 555.8,669C555.1,667.1 554.8,664.1 554.8,660.1L554.8,625.2L509.3,625.2L509.3,660.2C509.3,662.8 509.2,664.8 509,666.1C508.8,667.4 508.3,668.9 507.4,670.7C505.8,673.8 501.3,675.3 494,675.3C486,675.3 481.3,673.2 479.9,668.9C479.2,667 478.9,664 478.9,660L478.9,564.7C478.9,562.1 479,560.1 479.2,558.8C479.4,557.5 479.9,556 480.8,554.2C482.4,551.1 486.9,549.6 494.2,549.6C502.2,549.6 507,551.7 508.4,556C509,557.9 509.3,560.9 509.3,564.9L509.3,599.9L554.8,599.9L554.8,564.7C554.8,562.1 554.9,560.1 555.1,558.8C555.2,557.5 555.7,556 556.7,554.3ZM664.5,594.7C665.2,588.3 669.7,585.1 678.1,585.1C682.6,585.1 685.9,585.4 688.1,586.1C690.3,586.8 691.8,588 692.6,589.7C693.5,591.4 694,592.9 694.1,594.2C694.3,595.5 694.4,597.5 694.4,600.1L694.4,660.2C694.4,662.8 694.3,664.8 694.1,666.1C693.9,667.4 693.4,668.9 692.6,670.7C691,673.7 687.1,675.2 680.8,675.2C674.6,675.2 670.4,674.4 668.3,672.9C666.2,671.4 665,669.1 664.6,666.1C660.4,672.2 653.3,675.2 643.4,675.2C633.5,675.2 624.3,670.7 615.8,661.6C607.3,652.6 603.1,642.1 603.1,630.1C603.1,618.1 607.4,607.7 615.9,598.7C624.4,589.7 633.8,585.2 644,585.2C647.9,585.2 651.4,585.9 654.6,587.3C657.8,588.7 660,590 661.3,591.2C662.6,592.3 663.7,593.5 664.5,594.7ZM633.2,630.4C633.2,634.2 634.7,637.6 637.7,640.6C640.7,643.6 644.3,645.2 648.5,645.2C652.7,645.2 656.3,643.7 659.1,640.6C661.9,637.5 663.3,634.1 663.3,630.4C663.3,626.7 662,623.2 659.3,620C656.6,616.8 653,615.2 648.5,615.2C644,615.2 640.3,616.8 637.5,620C634.6,623.1 633.2,626.6 633.2,630.4ZM755.1,675.2C743.5,675.2 734,670.8 726.3,662.1C718.7,653.3 714.9,642.7 714.9,630.1L714.9,600.1C714.9,597.4 715,595.4 715.2,594.1C715.4,592.8 715.9,591.4 716.7,589.6C718.3,586.5 722.8,585 730.1,585C738.1,585 742.8,587.2 744.2,591.5C744.9,593.3 745.2,596.3 745.2,600.3L745.2,630.3C745.2,635 746.5,638.7 749.2,641.3C751.9,643.9 755.5,645.2 760,645.2C764.5,645.2 768.2,643.8 771,641.1C773.8,638.4 775.2,634.7 775.2,630.3L775.2,599.9C775.2,597.3 775.3,595.3 775.5,594C775.7,592.7 776.2,591.2 777.1,589.4C778.6,586.4 783,584.9 790.3,584.9C797.5,584.9 801.9,586.4 803.5,589.5C804.3,591.2 804.8,592.7 805,594.1C805.2,595.5 805.3,597.4 805.3,600L805.3,660.8C805.3,663.3 805.2,665.2 805,666.6C804.8,667.9 804.3,669.4 803.4,671C801.7,674 797.3,675.5 790.2,675.5C783.2,675.5 778.9,674.1 777.3,671.4C776.2,669.5 775.6,667.1 775.6,664.4C775.1,665.2 774.1,666.3 772.5,667.8C770.9,669.3 769.4,670.5 767.9,671.6C763.9,673.9 759.7,675.2 755.1,675.2ZM826.5,667.4C824.3,666 823.2,663.9 823.2,660.9C823.2,657.9 825.4,653.4 829.7,647.3C831,645.4 833,644.4 835.8,644.4C838.6,644.4 842.4,645.8 847.2,648.6C852,651.4 856.4,652.8 860.2,652.8C867.2,652.8 870.7,651.4 870.7,648.7C870.7,646.5 866.9,644.9 859.2,643.9C852,642.9 844.8,640.2 837.7,635.8C834.4,633.7 831.6,630.5 829.5,626.1C827.3,621.7 826.2,616.5 826.2,610.4C826.2,592.3 838.6,583.3 863.5,583.3C871.6,583.3 880,585.2 888.6,589.1C892.6,590.9 894.6,593.2 894.6,596C894.6,598.7 893.3,602.1 890.8,606.1C888.3,610.1 885.7,612.1 883.1,612.1C881.7,612.1 879.2,611.2 875.5,609.5C871.8,607.8 867.7,606.9 863.4,606.9C856.6,606.9 853.3,608.2 853.3,610.7C853.3,614.1 857.2,616.4 865,617.4C872.6,618.2 879.9,620.4 887,623.9C890.3,625.5 893.1,628.3 895.3,632.2C897.5,636.1 898.6,641.1 898.6,647.1C898.6,653 897.5,658.1 895.3,662.3C893.1,666.5 889.9,669.6 885.9,671.7C878.6,675.2 869.4,677 858.3,677C847.3,677.1 836.7,673.9 826.5,667.4ZM966.4,615.4L955.2,614.7L955.2,638.4C955.2,641.5 955.7,643.7 956.7,645.1C957.7,646.5 959.5,647.2 962.2,647.2C964.9,647.2 966.9,647.3 968.4,647.5C969.8,647.7 971.3,648.2 973,649.1C975.6,650.6 976.9,654.4 976.9,660.6C976.9,667.8 975.3,672.2 972.1,673.8C970.4,674.6 968.9,675.1 967.6,675.3C966.3,675.5 964.4,675.6 961.8,675.6C949.9,675.6 940.9,672.9 934.7,667.5C928.5,662.1 925.4,653 925.4,640.2L925.4,614.8C923.2,615.1 920.9,615.3 918.4,615.3C915.9,615.3 913.8,614.3 912.1,612.4C910.4,610.5 909.6,607.1 909.6,602.4C909.6,597.7 909.9,594.3 910.5,592.2C911.1,590.1 911.9,588.6 912.9,587.6C914.7,586.1 917,585.4 919.8,585.4L925.5,586.1L925.5,568.4C925.5,565.8 925.6,563.8 925.8,562.6C926,561.3 926.5,560 927.4,558.5C928.9,555.6 933.3,554.2 940.6,554.2C948.4,554.2 953,556.3 954.5,560.6C955.1,562.4 955.4,565.4 955.4,569.4L955.4,586.2C960.4,585.7 964.2,585.5 966.8,585.5C969.4,585.5 971.3,585.6 972.6,585.8C973.9,586 975.4,586.5 977.1,587.4C980.1,588.9 981.6,593.3 981.6,600.6C981.6,607.8 980.1,612.2 977,613.8C975.3,614.6 973.8,615.1 972.4,615.3C971,615.3 969.1,615.4 966.4,615.4ZM1026.1,568.3C1025.2,570 1023.7,571.1 1021.6,571.8C1019.4,572.5 1016.5,572.8 1012.9,572.8C1009.3,572.8 1006.4,572.5 1004.2,571.8C1002,571.1 1000.5,569.9 999.7,568.2C998.8,566.5 998.3,565 998.2,563.6C998,562.3 997.9,560.3 997.9,557.7C997.9,555.1 998,553.1 998.2,551.8C998.4,550.5 998.9,549 999.7,547.4C1001.3,544.3 1005.8,542.8 1013.1,542.8C1020.3,542.8 1024.7,544.3 1026.1,547.4C1027,549.1 1027.6,550.6 1027.7,552C1027.9,553.3 1028,555.3 1028,557.9C1028,560.5 1027.9,562.5 1027.7,563.8C1027.5,565.2 1027,566.6 1026.1,568.3ZM997.9,600.1C997.9,597.5 998,595.5 998.2,594.2C998.4,592.9 998.9,591.4 999.7,589.7C1001.3,586.7 1005.8,585.2 1013.1,585.2C1018.6,585.2 1022.5,586.2 1024.8,588.1C1026.7,589.7 1027.8,592.2 1027.9,595.5C1028,596.6 1028.1,598.3 1028.1,600.5L1028.1,660.6C1028.1,663.2 1028,665.2 1027.8,666.5C1027.6,667.8 1027.1,669.3 1026.2,671.1C1024.7,674.1 1020.3,675.6 1013,675.6C1005.8,675.6 1001.4,674.1 999.8,671C999,669.3 998.5,667.8 998.3,666.5C998.1,665.2 998,663.2 998,660.5L998,600.1L997.9,600.1ZM1135.7,619.5C1135.7,626.5 1134,631.7 1130.5,635.1C1127,638.5 1123.1,640.2 1118.9,640.2L1078.2,640.2C1078.2,643.4 1080.1,646.1 1083.9,648.3C1087.7,650.5 1091.5,651.6 1095.2,651.6C1101.8,651.6 1107,650.9 1110.8,649.5L1112.7,648.8C1115.4,647.5 1117.7,646.9 1119.6,646.9C1123.3,646.9 1126.4,649.5 1129,654.6C1130.5,657.7 1131.2,660.3 1131.2,662.5C1131.2,672.7 1119,677.8 1094.6,677.8C1086.1,677.8 1078.6,676.3 1072,673.4C1065.4,670.5 1060.3,666.6 1056.6,661.8C1049.4,652.5 1045.8,642.2 1045.8,630.7C1045.8,616.3 1050.5,604.8 1059.8,596.1C1069.1,587.5 1080.8,583.1 1094.7,583.1C1110.6,583.1 1122.3,588.7 1129.7,599.9C1133.8,605.9 1135.7,612.4 1135.7,619.5ZM1099.5,624.5C1103.8,624.5 1106,622.7 1106,619C1106,616.4 1105,614.3 1103,612.6C1101,610.9 1098.1,610.2 1094.4,610.2C1090.7,610.2 1087,611.7 1083.3,614.7C1079.6,617.7 1077.8,621 1077.8,624.4L1099.5,624.4L1099.5,624.5ZM1215.2,586.1C1217.4,586.8 1219.2,588 1220.6,589.6C1222,591.3 1222.7,593.9 1222.7,597.6C1222.7,601.3 1221.6,605.3 1219.4,609.6C1217.2,614 1214.1,616.1 1210,616.1C1207.9,616.1 1206,615.6 1204.1,614.7C1202.2,613.8 1199.7,613.3 1196.6,613.3C1193.5,613.3 1190.6,614.4 1187.9,616.6C1185.2,618.8 1183.9,621.4 1183.9,624.5L1183.9,660.5C1183.9,663.1 1183.8,665.1 1183.6,666.4C1183.4,667.7 1182.9,669.2 1182,671C1180.3,674 1175.8,675.5 1168.6,675.5C1163.1,675.5 1159.2,674.5 1156.8,672.6C1155,671 1153.9,668.5 1153.7,665.2L1153.7,600C1153.7,597.4 1153.8,595.4 1154,594.1C1154.2,592.8 1154.7,591.3 1155.5,589.7C1157.1,586.6 1161.6,585.1 1168.9,585.1C1175.8,585.1 1180.1,586.4 1181.8,589C1183.1,590.8 1183.7,592.7 1183.7,594.7C1184.3,593.9 1185.1,592.9 1186.2,591.8C1187.3,590.7 1189.6,589.1 1193.2,587.2C1196.7,585.3 1199.9,584.3 1202.6,584.3C1205.3,584.3 1207.5,584.4 1209.4,584.7C1211,584.9 1213,585.4 1215.2,586.1ZM1321.1,619.5C1321.1,626.5 1319.4,631.7 1315.9,635.1C1312.4,638.5 1308.5,640.2 1304.3,640.2L1263.6,640.2C1263.6,643.4 1265.5,646.1 1269.3,648.3C1273.1,650.5 1276.9,651.6 1280.6,651.6C1287.2,651.6 1292.4,650.9 1296.2,649.5L1298.1,648.8C1300.8,647.5 1303.1,646.9 1305,646.9C1308.7,646.9 1311.8,649.5 1314.4,654.6C1315.9,657.7 1316.6,660.3 1316.6,662.5C1316.6,672.7 1304.4,677.8 1280,677.8C1271.5,677.8 1264,676.3 1257.4,673.4C1250.8,670.5 1245.7,666.6 1242,661.8C1234.8,652.5 1231.2,642.2 1231.2,630.7C1231.2,616.3 1235.9,604.8 1245.2,596.1C1254.5,587.5 1266.2,583.1 1280.1,583.1C1296,583.1 1307.7,588.7 1315.1,599.9C1319.2,605.9 1321.1,612.4 1321.1,619.5ZM1284.9,624.5C1289.2,624.5 1291.4,622.7 1291.4,619C1291.4,616.4 1290.4,614.3 1288.4,612.6C1286.4,611 1283.5,610.2 1279.8,610.2C1276.1,610.2 1272.4,611.7 1268.7,614.7C1265,617.7 1263.2,621 1263.2,624.4L1284.9,624.4L1284.9,624.5Z" style="fill:rgb(0,117,201);"/>
            </g>
            <g id="XMLID_59_" transform="matrix(0.672937,0,0,0.672937,-419.706,-389.124)">
                <path d="M900,402.9L881.5,384.4C877.4,380.3 877.4,373.6 881.5,369.5C883.5,367.4 886.2,366.4 888.9,366.4C891.6,366.4 894.2,367.4 896.3,369.5L900,373.2L903.7,369.5C905.7,367.4 908.4,366.4 911.1,366.4C913.8,366.4 916.5,367.5 918.5,369.5C922.6,373.6 922.6,380.3 918.5,384.4L900,402.9ZM900,402.9L914.3,417.3C920.5,423.5 928.6,426.6 936.7,426.6C944.8,426.6 952.9,423.5 959.1,417.3L963.4,413C975.8,400.6 975.8,380.6 963.4,368.2L900,304.8L926.3,278.5C941.6,263.2 961.8,255.4 982,255.4C1001.2,255.4 1020.3,262.4 1035,276.7C1065.9,306.6 1066.2,356 1035.9,386.3L923.5,498.7C917,505.2 908.5,508.4 900,508.4C891.5,508.4 883,505.2 876.5,498.7L764.2,386.4C734.2,356.4 734.2,307.7 764.2,277.7C779.3,262.7 798.9,255.2 818.6,255.2C838.3,255.2 857.9,262.7 873,277.7L900,304.7L836.6,368.1C824.2,380.5 824.2,400.5 836.6,412.9L840.9,417.2C847.1,423.4 855.2,426.5 863.3,426.5C871.4,426.5 879.5,423.4 885.7,417.2L900,402.9ZM818.6,271.1C802.3,271.1 787,277.5 775.7,288.9C751.9,312.7 751.9,351.3 775.7,375.1L888,487.4C891.3,490.7 895.6,492.5 900.2,492.5C904.8,492.5 909.1,490.7 912.4,487.4L1024.7,375.1C1036.3,363.5 1042.6,348 1042.5,331.5C1042.4,315 1035.8,299.7 1023.9,288.2C1012.7,277.4 997.8,271.4 982,271.4C965.3,271.4 949.5,277.9 937.6,289.8L922.7,304.7L974.9,356.9C993.5,375.4 993.5,405.6 974.9,424.2L970.6,428.5C961.6,437.4 949.6,442.4 936.9,442.4C924.1,442.4 912.2,437.5 903.2,428.5L900.1,425.4L897,428.5C888,437.4 876,442.4 863.3,442.4C850.5,442.4 838.6,437.5 829.6,428.5L825.3,424.2C806.7,405.7 806.7,375.5 825.3,356.9L877.5,304.7L861.7,288.9C850.2,277.4 834.9,271.1 818.6,271.1ZM976.6,319.2C974.6,319.2 972.5,318.4 971,316.9C969,314.9 966.4,313.8 963.6,313.8C960.8,313.8 958.2,314.9 956.2,316.9C953.1,320 948,320 944.9,316.9C941.8,313.8 941.8,308.7 944.9,305.6C949.9,300.6 956.5,297.9 963.5,297.9C970.5,297.9 977.2,300.6 982.1,305.6C985.2,308.7 985.2,313.8 982.1,316.9C980.7,318.4 978.6,319.2 976.6,319.2ZM849.4,319.2C847.4,319.2 845.3,318.4 843.8,316.9C841.8,314.9 839.2,313.8 836.4,313.8C833.6,313.8 831,314.9 829,316.9C825.9,320 820.8,320 817.7,316.9C814.6,313.8 814.6,308.7 817.7,305.6C822.7,300.6 829.3,297.9 836.3,297.9C843.3,297.9 850,300.6 854.9,305.6C858,308.7 858,313.8 854.9,316.9C853.5,318.4 851.4,319.2 849.4,319.2Z" style="fill:rgb(251,83,115);"/>
            </g>
        </g>
    </g>
</svg>
