<?xml version="1.0" encoding="UTF-8" standalone="no"?>
<!DOCTYPE svg PUBLIC "-//W3C//DTD SVG 1.1//EN" "http://www.w3.org/Graphics/SVG/1.1/DTD/svg11.dtd">
<svg width="100%" height="100%" viewBox="0 0 1000 400" version="1.1" xmlns="http://www.w3.org/2000/svg" xmlns:xlink="http://www.w3.org/1999/xlink" xml:space="preserve" xmlns:serif="http://www.serif.com/" style="fill-rule:evenodd;clip-rule:evenodd;stroke-linejoin:round;stroke-miterlimit:2;">
    <g>
        <g id="XMLID_55_" transform="matrix(0.58083,0,0,0.58083,39.0242,-15.1395)">
            <path id="XMLID_59_" d="M1300.4,201.2C1314.7,201.2 1328,206.7 1338.1,216.8L1351.9,230.6L1306.2,276.3C1289.9,292.6 1289.9,319 1306.2,335.1L1310,338.9C1317.9,346.8 1328.3,351.1 1339.5,351.1C1350.6,351.1 1361.1,346.7 1369,338.9L1371.7,336.2L1374.4,338.9C1382.3,346.8 1392.7,351.1 1403.9,351.1C1415,351.1 1425.5,346.7 1433.4,338.9L1437.2,335.1C1453.5,318.8 1453.5,292.4 1437.2,276.3L1391.5,230.6L1404.5,217.6C1414.9,207.2 1428.7,201.5 1443.3,201.5C1457.1,201.5 1470.1,206.7 1479.9,216.2C1490.3,226.3 1496.1,239.6 1496.2,254.1C1496.3,268.5 1490.8,282.1 1480.6,292.2L1382.4,390.4C1379.5,393.3 1375.8,394.9 1371.7,394.9C1367.7,394.9 1363.9,393.3 1361,390.4L1262.8,292.2C1242,271.4 1242,237.6 1262.8,216.8C1272.8,206.8 1286.2,201.2 1300.4,201.2M1300.4,187.3C1283.2,187.3 1266,193.9 1252.8,207C1226.6,233.2 1226.6,275.8 1252.8,302L1351,400.2C1356.7,405.9 1364.1,408.7 1371.5,408.7C1378.9,408.7 1386.4,405.9 1392,400.2L1490.3,301.9C1516.8,275.4 1516.5,232.2 1489.5,206.1C1476.6,193.6 1459.9,187.5 1443.2,187.5C1425.5,187.5 1407.9,194.3 1394.5,207.7L1371.5,230.7L1426.9,286.1C1437.7,296.9 1437.7,314.4 1426.9,325.3L1423.1,329.1C1417.7,334.5 1410.6,337.2 1403.5,337.2C1396.4,337.2 1389.3,334.5 1383.9,329.1L1371.4,316.5L1358.9,329C1353.5,334.4 1346.4,337.1 1339.3,337.1C1332.2,337.1 1325.1,334.4 1319.7,329L1315.9,325.2C1305.1,314.4 1305.1,296.9 1315.9,286L1371.3,230.6L1348,207C1334.8,193.9 1317.7,187.3 1300.4,187.3Z" style="fill:rgb(251,83,115);fill-rule:nonzero;"/>
            <path id="XMLID_58_" d="M1381.3,284.6C1378.9,284.6 1376.6,285.5 1374.8,287.3L1371.6,290.5L1368.4,287.3C1366.6,285.5 1364.3,284.6 1361.9,284.6C1359.5,284.6 1357.2,285.5 1355.4,287.3C1351.8,290.9 1351.8,296.7 1355.4,300.3L1371.5,316.4L1387.6,300.3C1391.2,296.7 1391.2,290.9 1387.6,287.3C1386,285.5 1383.7,284.6 1381.3,284.6Z" style="fill:rgb(251,83,115);fill-rule:nonzero;"/>
            <path id="XMLID_57_" d="M1327.4,243.3C1325.7,243.3 1323.8,242.6 1322.5,241.3C1320.8,239.6 1318.5,238.6 1316,238.6C1313.5,238.6 1311.3,239.6 1309.5,241.3C1306.8,244 1302.3,244 1299.6,241.3C1296.9,238.6 1296.9,234.1 1299.6,231.4C1304,227 1309.7,224.7 1315.9,224.7C1322.1,224.7 1327.9,227.1 1332.2,231.4C1334.9,234.1 1334.9,238.6 1332.2,241.3C1331,242.6 1329.1,243.3 1327.4,243.3Z" style="fill:rgb(251,83,115);fill-rule:nonzero;"/>
            <path id="XMLID_56_" d="M1438.6,243.3C1436.9,243.3 1435,242.6 1433.7,241.3C1432,239.6 1429.7,238.6 1427.2,238.6C1424.8,238.6 1422.5,239.6 1420.7,241.3C1418,244 1413.5,244 1410.8,241.3C1408.1,238.6 1408.1,234.1 1410.8,231.4C1415.2,227 1420.9,224.7 1427.1,224.7C1433.3,224.7 1439.1,227.1 1443.4,231.4C1446.1,234.1 1446.1,238.6 1443.4,241.3C1442.2,242.6 1440.3,243.3 1438.6,243.3Z" style="fill:rgb(251,83,115);fill-rule:nonzero;"/>
        </g>
        <g transform="matrix(0.58083,0,0,0.58083,39.0242,22.4941)">
            <path d="M1233.9,486.4L1220,486.4L1217.7,493.1L1210.3,493.1L1222.8,458.1L1231,458.1L1243.5,493.1L1236.1,493.1L1233.9,486.4ZM1232,480.8L1227,466.2L1221.9,480.8L1232,480.8Z" style="fill:rgb(0,117,201);fill-rule:nonzero;"/>
            <path d="M1291,468C1293.1,470.1 1294.1,473 1294.1,476.7L1294.1,493L1287.1,493L1287.1,477.7C1287.1,475.5 1286.5,473.9 1285.4,472.7C1284.3,471.6 1282.8,471 1280.9,471C1279,471 1277.5,471.6 1276.4,472.7C1275.3,473.9 1274.7,475.5 1274.7,477.7L1274.7,493L1267.7,493L1267.7,477.7C1267.7,475.5 1267.2,473.9 1266.1,472.7C1265,471.6 1263.5,471 1261.6,471C1259.7,471 1258.1,471.6 1257,472.7C1255.9,473.9 1255.3,475.5 1255.3,477.7L1255.3,493L1248.3,493L1248.3,465.3L1255.3,465.3L1255.3,468.7C1256.2,467.5 1257.4,466.6 1258.8,465.9C1260.2,465.2 1261.8,464.9 1263.5,464.9C1265.7,464.9 1267.6,465.4 1269.3,466.3C1271,467.2 1272.3,468.5 1273.3,470.2C1274.2,468.6 1275.5,467.3 1277.2,466.3C1278.9,465.3 1280.8,464.9 1282.8,464.9C1286.1,464.9 1288.9,466 1291,468Z" style="fill:rgb(0,117,201);fill-rule:nonzero;"/>
            <path d="M1305.8,491.7C1303.7,490.5 1302,488.8 1300.8,486.7C1299.6,484.5 1299,482 1299,479.2C1299,476.4 1299.6,473.9 1300.9,471.7C1302.2,469.5 1303.9,467.9 1306,466.7C1308.2,465.5 1310.6,464.9 1313.2,464.9C1315.9,464.9 1318.3,465.5 1320.4,466.7C1322.6,467.9 1324.3,469.6 1325.5,471.7C1326.7,473.8 1327.4,476.4 1327.4,479.2C1327.4,482 1326.8,484.5 1325.5,486.7C1324.2,488.9 1322.5,490.5 1320.3,491.7C1318.1,492.9 1315.7,493.5 1313,493.5C1310.4,493.5 1308,492.9 1305.8,491.7ZM1316.6,486.4C1317.7,485.8 1318.6,484.9 1319.3,483.6C1320,482.4 1320.3,480.9 1320.3,479.1C1320.3,476.5 1319.6,474.4 1318.2,473C1316.8,471.6 1315.1,470.9 1313.1,470.9C1311.1,470.9 1309.4,471.6 1308.1,473C1306.8,474.4 1306.1,476.4 1306.1,479.1C1306.1,481.8 1306.8,483.8 1308.1,485.2C1309.4,486.6 1311.1,487.3 1313.1,487.3C1314.3,487.4 1315.5,487.1 1316.6,486.4Z" style="fill:rgb(0,117,201);fill-rule:nonzero;"/>
            <path d="M1343.2,466.2C1344.7,465.4 1346.3,465 1348.2,465L1348.2,472.3L1346.3,472.3C1344.1,472.3 1342.4,472.8 1341.3,473.8C1340.2,474.8 1339.6,476.6 1339.6,479.2L1339.6,493L1332.6,493L1332.6,465.3L1339.6,465.3L1339.6,469.6C1340.5,468.2 1341.7,467 1343.2,466.2Z" style="fill:rgb(0,117,201);fill-rule:nonzero;"/>
            <path d="M1375.5,466.1C1377.1,465.3 1378.9,464.8 1380.9,464.8C1383.3,464.8 1385.4,465.4 1387.3,466.6C1389.2,467.8 1390.7,469.4 1391.8,471.6C1392.9,473.7 1393.5,476.2 1393.5,479.1C1393.5,481.9 1392.9,484.4 1391.8,486.6C1390.7,488.8 1389.2,490.5 1387.3,491.7C1385.4,492.9 1383.2,493.5 1380.9,493.5C1378.9,493.5 1377.1,493.1 1375.5,492.3C1374,491.5 1372.7,490.4 1371.7,489.1L1371.7,506.3L1364.7,506.3L1364.7,465.4L1371.7,465.4L1371.7,469.4C1372.6,468.1 1373.9,467 1375.5,466.1ZM1385.4,474.7C1384.7,473.5 1383.8,472.6 1382.7,471.9C1381.6,471.3 1380.4,470.9 1379.1,470.9C1377.8,470.9 1376.6,471.2 1375.5,471.9C1374.4,472.6 1373.5,473.5 1372.8,474.7C1372.1,475.9 1371.8,477.4 1371.8,479.1C1371.8,480.8 1372.1,482.2 1372.8,483.4C1373.5,484.6 1374.4,485.6 1375.5,486.2C1376.6,486.8 1377.8,487.2 1379.1,487.2C1380.4,487.2 1381.6,486.9 1382.7,486.2C1383.8,485.5 1384.7,484.6 1385.4,483.4C1386.1,482.2 1386.4,480.7 1386.4,479C1386.4,477.4 1386,476 1385.4,474.7Z" style="fill:rgb(0,117,201);fill-rule:nonzero;"/>
            <path d="M1403.7,491.7C1401.6,490.5 1399.9,488.8 1398.7,486.7C1397.5,484.5 1396.9,482 1396.9,479.2C1396.9,476.4 1397.5,473.9 1398.8,471.7C1400.1,469.5 1401.8,467.9 1403.9,466.7C1406.1,465.5 1408.5,464.9 1411.1,464.9C1413.8,464.9 1416.2,465.5 1418.3,466.7C1420.5,467.9 1422.2,469.6 1423.4,471.7C1424.6,473.8 1425.3,476.4 1425.3,479.2C1425.3,482 1424.7,484.5 1423.4,486.7C1422.1,488.9 1420.4,490.5 1418.2,491.7C1416,492.9 1413.6,493.5 1410.9,493.5C1408.3,493.5 1405.9,492.9 1403.7,491.7ZM1414.5,486.4C1415.6,485.8 1416.5,484.9 1417.2,483.6C1417.9,482.4 1418.2,480.9 1418.2,479.1C1418.2,476.5 1417.5,474.4 1416.1,473C1414.7,471.6 1413,470.9 1411,470.9C1409,470.9 1407.3,471.6 1406,473C1404.7,474.4 1404,476.4 1404,479.1C1404,481.8 1404.7,483.8 1406,485.2C1407.3,486.6 1409,487.3 1411,487.3C1412.2,487.4 1413.4,487.1 1414.5,486.4Z" style="fill:rgb(0,117,201);fill-rule:nonzero;"/>
            <path d="M1441.1,466.2C1442.6,465.4 1444.2,465 1446.1,465L1446.1,472.3L1444.2,472.3C1442,472.3 1440.3,472.8 1439.2,473.8C1438.1,474.8 1437.5,476.6 1437.5,479.2L1437.5,493L1430.5,493L1430.5,465.3L1437.5,465.3L1437.5,469.6C1438.4,468.2 1439.6,467 1441.1,466.2Z" style="fill:rgb(0,117,201);fill-rule:nonzero;"/>
            <rect x="1462.6" y="456" width="7" height="37" style="fill:rgb(0,117,201);fill-rule:nonzero;"/>
            <path d="M1476.4,471.6C1477.5,469.4 1479,467.8 1480.9,466.6C1482.8,465.4 1485,464.8 1487.3,464.8C1489.4,464.8 1491.2,465.2 1492.7,466C1494.2,466.8 1495.5,467.9 1496.4,469.2L1496.4,465.2L1503.4,465.2L1503.4,493L1496.4,493L1496.4,489C1495.5,490.3 1494.3,491.4 1492.7,492.2C1491.1,493.1 1489.3,493.5 1487.2,493.5C1484.9,493.5 1482.7,492.9 1480.8,491.7C1478.9,490.5 1477.4,488.8 1476.3,486.6C1475.2,484.4 1474.6,481.9 1474.6,479.1C1474.7,476.3 1475.3,473.8 1476.4,471.6ZM1495.5,474.8C1494.8,473.6 1493.9,472.6 1492.8,472C1491.7,471.4 1490.4,471 1489.2,471C1487.9,471 1486.7,471.3 1485.6,472C1484.5,472.6 1483.6,473.6 1482.9,474.8C1482.2,476 1481.9,477.5 1481.9,479.1C1481.9,480.8 1482.2,482.2 1482.9,483.5C1483.6,484.7 1484.5,485.7 1485.6,486.4C1486.7,487.1 1487.9,487.4 1489.2,487.4C1490.5,487.4 1491.7,487.1 1492.8,486.4C1493.9,485.7 1494.8,484.8 1495.5,483.6C1496.2,482.4 1496.5,480.9 1496.5,479.2C1496.5,477.5 1496.2,476 1495.5,474.8Z" style="fill:rgb(0,117,201);fill-rule:nonzero;"/>
            <path d="M1514.9,492.2C1513.1,491.4 1511.7,490.3 1510.6,488.9C1509.5,487.5 1509,485.9 1508.9,484.2L1515.9,484.2C1516,485.3 1516.6,486.2 1517.5,486.9C1518.4,487.6 1519.6,487.9 1520.9,487.9C1522.2,487.9 1523.3,487.6 1524,487.1C1524.7,486.6 1525.1,485.9 1525.1,485C1525.1,484.1 1524.6,483.4 1523.7,483C1522.8,482.5 1521.3,482.1 1519.3,481.5C1517.2,481 1515.5,480.5 1514.2,480C1512.9,479.5 1511.7,478.7 1510.8,477.5C1509.9,476.4 1509.4,474.9 1509.4,473.1C1509.4,471.6 1509.8,470.2 1510.7,468.9C1511.6,467.6 1512.9,466.6 1514.5,465.9C1516.1,465.2 1518.1,464.8 1520.3,464.8C1523.6,464.8 1526.2,465.6 1528.2,467.3C1530.2,468.9 1531.2,471.2 1531.4,474L1524.7,474C1524.6,472.9 1524.1,472 1523.3,471.4C1522.5,470.8 1521.4,470.4 1520,470.4C1518.7,470.4 1517.8,470.6 1517.1,471.1C1516.4,471.6 1516.1,472.2 1516.1,473.1C1516.1,474 1516.6,474.7 1517.5,475.2C1518.4,475.7 1519.9,476.2 1521.8,476.7C1523.8,477.2 1525.5,477.7 1526.8,478.2C1528.1,478.7 1529.2,479.6 1530.2,480.7C1531.2,481.8 1531.6,483.3 1531.7,485.1C1531.7,486.7 1531.3,488.1 1530.4,489.4C1529.5,490.7 1528.3,491.7 1526.6,492.4C1524.9,493.1 1523,493.5 1520.8,493.5C1518.8,493.5 1516.7,493.1 1514.9,492.2Z" style="fill:rgb(0,117,201);fill-rule:nonzero;"/>
            <path d="M1289.7,528C1291.8,530.1 1292.8,533 1292.8,536.7L1292.8,553L1285.8,553L1285.8,537.7C1285.8,535.5 1285.2,533.9 1284.1,532.7C1283,531.6 1281.5,531 1279.6,531C1277.7,531 1276.2,531.6 1275.1,532.7C1274,533.9 1273.4,535.5 1273.4,537.7L1273.4,553L1266.4,553L1266.4,537.7C1266.4,535.5 1265.9,533.9 1264.8,532.7C1263.7,531.6 1262.2,531 1260.3,531C1258.4,531 1256.8,531.6 1255.7,532.7C1254.6,533.9 1254,535.5 1254,537.7L1254,553L1247,553L1247,525.3L1254,525.3L1254,528.7C1254.9,527.5 1256.1,526.6 1257.5,525.9C1258.9,525.2 1260.5,524.9 1262.2,524.9C1264.4,524.9 1266.3,525.4 1268,526.3C1269.7,527.2 1271,528.5 1272,530.2C1272.9,528.6 1274.2,527.3 1275.9,526.3C1277.6,525.3 1279.5,524.9 1281.5,524.9C1284.9,524.9 1287.6,526 1289.7,528Z" style="fill:rgb(0,117,201);fill-rule:nonzero;"/>
            <path d="M1299.3,531.6C1300.4,529.4 1301.9,527.8 1303.9,526.6C1305.8,525.4 1308,524.8 1310.3,524.8C1312.4,524.8 1314.2,525.2 1315.7,526C1317.2,526.8 1318.5,527.9 1319.4,529.2L1319.4,525.2L1326.5,525.2L1326.5,553L1319.4,553L1319.4,549C1318.5,550.3 1317.3,551.4 1315.7,552.2C1314.1,553.1 1312.3,553.5 1310.2,553.5C1307.9,553.5 1305.7,552.9 1303.8,551.7C1301.9,550.5 1300.4,548.8 1299.2,546.6C1298.1,544.4 1297.5,541.9 1297.5,539.1C1297.7,536.3 1298.2,533.8 1299.3,531.6ZM1318.5,534.8C1317.8,533.6 1316.9,532.6 1315.8,532C1314.7,531.4 1313.4,531 1312.1,531C1310.8,531 1309.6,531.3 1308.5,532C1307.4,532.6 1306.5,533.6 1305.8,534.8C1305.1,536 1304.8,537.5 1304.8,539.1C1304.8,540.8 1305.1,542.2 1305.8,543.5C1306.5,544.8 1307.4,545.7 1308.5,546.4C1309.6,547.1 1310.8,547.4 1312.1,547.4C1313.4,547.4 1314.6,547.1 1315.8,546.4C1316.9,545.7 1317.8,544.8 1318.5,543.6C1319.2,542.4 1319.5,540.9 1319.5,539.2C1319.5,537.5 1319.1,536 1318.5,534.8Z" style="fill:rgb(0,117,201);fill-rule:nonzero;"/>
            <path d="M1337.9,552.2C1336.1,551.4 1334.7,550.3 1333.6,548.9C1332.6,547.5 1332,545.9 1331.9,544.2L1338.9,544.2C1339,545.3 1339.6,546.2 1340.5,546.9C1341.4,547.6 1342.6,547.9 1343.9,547.9C1345.2,547.9 1346.3,547.6 1347,547.1C1347.7,546.6 1348.1,545.9 1348.1,545C1348.1,544.1 1347.6,543.4 1346.7,543C1345.8,542.6 1344.3,542.1 1342.3,541.5C1340.2,541 1338.5,540.5 1337.2,540C1335.9,539.5 1334.8,538.7 1333.8,537.5C1332.9,536.4 1332.4,534.9 1332.4,533.1C1332.4,531.6 1332.8,530.2 1333.7,528.9C1334.6,527.6 1335.9,526.6 1337.5,525.9C1339.1,525.2 1341.1,524.8 1343.3,524.8C1346.6,524.8 1349.2,525.6 1351.2,527.3C1353.2,528.9 1354.2,531.2 1354.4,534L1347.7,534C1347.6,532.9 1347.1,532 1346.3,531.4C1345.5,530.7 1344.4,530.4 1343,530.4C1341.7,530.4 1340.8,530.6 1340.1,531.1C1339.4,531.6 1339.1,532.2 1339.1,533.1C1339.1,534 1339.6,534.7 1340.5,535.2C1341.4,535.7 1342.9,536.2 1344.8,536.7C1346.8,537.2 1348.5,537.7 1349.8,538.2C1351.1,538.7 1352.2,539.6 1353.2,540.7C1354.1,541.8 1354.6,543.3 1354.7,545.1C1354.7,546.7 1354.3,548.1 1353.4,549.4C1352.5,550.7 1351.3,551.7 1349.6,552.4C1347.9,553.1 1346,553.5 1343.8,553.5C1341.7,553.5 1339.7,553.1 1337.9,552.2Z" style="fill:rgb(0,117,201);fill-rule:nonzero;"/>
            <path d="M1360.6,531.6C1361.8,529.4 1363.4,527.8 1365.4,526.6C1367.5,525.4 1369.8,524.8 1372.5,524.8C1375.9,524.8 1378.8,525.7 1381,527.4C1383.2,529.1 1384.8,531.5 1385.5,534.6L1378,534.6C1377.6,533.4 1376.9,532.5 1376,531.8C1375,531.1 1373.9,530.8 1372.5,530.8C1370.5,530.8 1368.9,531.5 1367.7,533C1366.5,534.5 1365.9,536.5 1365.9,539.2C1365.9,541.8 1366.5,543.9 1367.7,545.3C1368.9,546.7 1370.5,547.5 1372.5,547.5C1375.3,547.5 1377.2,546.2 1378,543.7L1385.5,543.7C1384.7,546.7 1383.2,549.1 1381,550.8C1378.7,552.6 1375.9,553.5 1372.5,553.5C1369.8,553.5 1367.5,552.9 1365.4,551.7C1363.3,550.5 1361.7,548.9 1360.6,546.7C1359.4,544.6 1358.8,542 1358.8,539.2C1358.8,536.4 1359.4,533.8 1360.6,531.6Z" style="fill:rgb(0,117,201);fill-rule:nonzero;"/>
            <path d="M1395.8,551.7C1393.7,550.5 1392,548.8 1390.8,546.7C1389.6,544.6 1389,542 1389,539.2C1389,536.4 1389.6,533.9 1390.9,531.7C1392.2,529.5 1393.9,527.9 1396,526.7C1398.2,525.5 1400.6,524.9 1403.2,524.9C1405.9,524.9 1408.3,525.5 1410.4,526.7C1412.6,527.9 1414.3,529.6 1415.5,531.7C1416.7,533.8 1417.4,536.4 1417.4,539.2C1417.4,542 1416.8,544.5 1415.5,546.7C1414.2,548.9 1412.5,550.5 1410.3,551.7C1408.1,552.9 1405.7,553.5 1403,553.5C1400.3,553.5 1397.9,552.9 1395.8,551.7ZM1406.6,546.4C1407.7,545.8 1408.6,544.9 1409.3,543.6C1410,542.4 1410.3,540.9 1410.3,539.1C1410.3,536.5 1409.6,534.4 1408.2,533C1406.8,531.6 1405.1,530.9 1403.1,530.9C1401.1,530.9 1399.4,531.6 1398.1,533C1396.7,534.4 1396.1,536.4 1396.1,539.1C1396.1,541.8 1396.8,543.8 1398.1,545.2C1399.4,546.6 1401.1,547.3 1403.1,547.3C1404.3,547.4 1405.5,547.1 1406.6,546.4Z" style="fill:rgb(0,117,201);fill-rule:nonzero;"/>
            <path d="M1430.8,531L1430.8,544.5C1430.8,545.4 1431,546.1 1431.5,546.5C1432,546.9 1432.7,547.1 1433.8,547.1L1437,547.1L1437,553L1432.6,553C1426.7,553 1423.7,550.1 1423.7,544.4L1423.7,531L1420.4,531L1420.4,525.2L1423.7,525.2L1423.7,518.4L1430.8,518.4L1430.8,525.2L1437,525.2L1437,531L1430.8,531Z" style="fill:rgb(0,117,201);fill-rule:nonzero;"/>
            <path d="M1441.9,531.6C1443,529.4 1444.5,527.8 1446.4,526.6C1448.3,525.4 1450.5,524.8 1452.8,524.8C1454.9,524.8 1456.7,525.2 1458.2,526C1459.7,526.8 1461,527.9 1461.9,529.2L1461.9,525.2L1468.9,525.2L1468.9,553L1461.9,553L1461.9,549C1461,550.3 1459.8,551.4 1458.2,552.2C1456.6,553.1 1454.8,553.5 1452.7,553.5C1450.4,553.5 1448.2,552.9 1446.3,551.7C1444.4,550.5 1442.9,548.8 1441.8,546.6C1440.7,544.4 1440.1,541.9 1440.1,539.1C1440.2,536.3 1440.8,533.8 1441.9,531.6ZM1461,534.8C1460.3,533.6 1459.4,532.6 1458.3,532C1457.2,531.4 1456,531 1454.7,531C1453.4,531 1452.2,531.3 1451.1,532C1450,532.6 1449.1,533.6 1448.4,534.8C1447.7,536 1447.4,537.5 1447.4,539.1C1447.4,540.8 1447.7,542.2 1448.4,543.5C1449.1,544.7 1450,545.7 1451.1,546.4C1452.2,547.1 1453.4,547.4 1454.7,547.4C1456,547.4 1457.2,547.1 1458.3,546.4C1459.4,545.7 1460.3,544.8 1461,543.6C1461.7,542.4 1462,540.9 1462,539.2C1462,537.5 1461.7,536 1461,534.8Z" style="fill:rgb(0,117,201);fill-rule:nonzero;"/>
            <path d="M1480.4,552.2C1478.6,551.4 1477.2,550.3 1476.1,548.9C1475.1,547.5 1474.5,545.9 1474.4,544.2L1481.5,544.2C1481.6,545.3 1482.2,546.2 1483.1,546.9C1484,547.6 1485.2,547.9 1486.5,547.9C1487.8,547.9 1488.9,547.6 1489.6,547.1C1490.3,546.6 1490.7,545.9 1490.7,545C1490.7,544.1 1490.2,543.4 1489.3,543C1488.4,542.5 1486.9,542.1 1484.9,541.5C1482.8,541 1481.1,540.5 1479.8,540C1478.5,539.5 1477.4,538.7 1476.4,537.5C1475.4,536.4 1475,534.9 1475,533.1C1475,531.6 1475.4,530.2 1476.3,528.9C1477.2,527.6 1478.5,526.6 1480.1,525.9C1481.7,525.2 1483.7,524.8 1485.9,524.8C1489.2,524.8 1491.8,525.6 1493.8,527.3C1495.8,528.9 1496.9,531.2 1497,534L1490.3,534C1490.2,532.9 1489.7,532 1488.9,531.4C1488.1,530.7 1487,530.4 1485.6,530.4C1484.3,530.4 1483.4,530.6 1482.7,531.1C1482,531.6 1481.7,532.2 1481.7,533.1C1481.7,534 1482.2,534.7 1483.1,535.2C1484,535.7 1485.5,536.2 1487.5,536.7C1489.5,537.2 1491.1,537.7 1492.5,538.2C1493.8,538.7 1494.9,539.6 1495.9,540.7C1496.8,541.8 1497.3,543.3 1497.4,545.1C1497.4,546.7 1497,548.1 1496.1,549.4C1495.2,550.7 1493.9,551.7 1492.3,552.4C1490.7,553.1 1488.7,553.5 1486.5,553.5C1484.2,553.5 1482.2,553.1 1480.4,552.2Z" style="fill:rgb(0,117,201);fill-rule:nonzero;"/>
        </g>
        <g transform="matrix(0.58083,0,0,0.58083,39.0242,-15.1395)">
            <path d="M290.384,240.218L290.392,240.226C317.425,265.547 317.422,306.637 290.209,331.958C290.148,332.015 290.089,332.072 290.03,332.13L289.808,332.353L186.5,429.258L83.192,332.353L82.97,332.13C82.917,332.077 82.863,332.025 82.808,331.974C55.77,306.649 55.77,265.551 82.808,240.226C109.764,214.978 161.445,218.598 180.224,264.603C181.251,267.119 183.661,268.795 186.377,268.883C189.093,268.971 191.607,267.453 192.795,265.009C202.14,245.771 215.366,233.785 229.763,228.115C250.906,219.789 274.355,225.155 290.384,240.218Z" style="fill:none;stroke:rgb(251,83,115);stroke-width:13.77px;"/>
        </g>
        <g transform="matrix(0.58083,0,0,0.58083,39.0242,3.84941)">
            <path d="M126.8,523L119.1,509.4L115.8,509.4L115.8,523L108.8,523L108.8,488.1L121.9,488.1C124.6,488.1 126.9,488.6 128.8,489.5C130.7,490.4 132.1,491.7 133.1,493.3C134,494.9 134.5,496.7 134.5,498.7C134.5,501 133.8,503.1 132.5,504.9C131.2,506.7 129.2,508 126.6,508.7L134.9,522.9L126.8,522.9L126.8,523ZM115.8,504.2L121.6,504.2C123.5,504.2 124.9,503.7 125.8,502.8C126.7,501.9 127.2,500.6 127.2,499C127.2,497.4 126.7,496.2 125.8,495.3C124.9,494.4 123.5,494 121.6,494L115.8,494L115.8,504.2Z" style="fill:rgb(0,117,201);fill-rule:nonzero;"/>
            <path d="M145.9,521.7C143.8,520.5 142.1,518.8 140.9,516.7C139.7,514.5 139.1,512 139.1,509.2C139.1,506.4 139.7,503.9 141,501.7C142.3,499.5 144,497.9 146.1,496.7C148.3,495.5 150.7,494.9 153.3,494.9C156,494.9 158.4,495.5 160.5,496.7C162.7,497.9 164.4,499.6 165.6,501.7C166.8,503.8 167.5,506.4 167.5,509.2C167.5,512 166.9,514.5 165.6,516.7C164.3,518.9 162.6,520.5 160.4,521.7C158.2,522.9 155.8,523.5 153.1,523.5C150.5,523.5 148.1,522.9 145.9,521.7ZM156.7,516.5C157.8,515.9 158.7,515 159.4,513.7C160.1,512.5 160.4,511 160.4,509.2C160.4,506.6 159.7,504.5 158.3,503.1C156.9,501.7 155.2,501 153.2,501C151.2,501 149.5,501.7 148.2,503.1C146.8,504.5 146.2,506.5 146.2,509.2C146.2,511.9 146.9,513.9 148.2,515.3C149.5,516.7 151.2,517.4 153.2,517.4C154.4,517.4 155.6,517.1 156.7,516.5Z" style="fill:rgb(0,117,201);fill-rule:nonzero;"/>
            <path d="M177.2,522.2C175.4,521.4 174,520.3 172.9,518.9C171.9,517.5 171.3,515.9 171.2,514.2L178.2,514.2C178.3,515.3 178.9,516.2 179.8,516.9C180.7,517.6 181.9,517.9 183.2,517.9C184.5,517.9 185.6,517.6 186.3,517.1C187,516.6 187.4,515.9 187.4,515C187.4,514.1 186.9,513.4 186,513C185.1,512.5 183.6,512.1 181.6,511.5C179.5,511 177.8,510.5 176.5,510C175.2,509.5 174.1,508.7 173.1,507.5C172.2,506.4 171.7,504.9 171.7,503.1C171.7,501.6 172.1,500.2 173,498.9C173.9,497.6 175.2,496.6 176.8,495.9C178.4,495.2 180.4,494.8 182.6,494.8C185.9,494.8 188.5,495.6 190.5,497.3C192.5,498.9 193.5,501.2 193.7,504L187,504C186.9,502.9 186.4,502 185.6,501.4C184.8,500.7 183.7,500.4 182.3,500.4C181,500.4 180.1,500.6 179.4,501.1C178.7,501.6 178.4,502.2 178.4,503.1C178.4,504 178.9,504.7 179.8,505.2C180.7,505.7 182.2,506.2 184.2,506.7C186.2,507.2 187.8,507.7 189.2,508.2C190.5,508.7 191.6,509.6 192.6,510.7C193.5,511.8 194,513.3 194.1,515.1C194.1,516.7 193.7,518.1 192.8,519.4C191.9,520.7 190.7,521.7 189,522.4C187.3,523.1 185.4,523.5 183.2,523.5C181.1,523.5 179,523.1 177.2,522.2Z" style="fill:rgb(0,117,201);fill-rule:nonzero;"/>
            <path d="M208.1,501L208.1,514.5C208.1,515.4 208.3,516.1 208.8,516.5C209.3,516.9 210,517.1 211.1,517.1L214.3,517.1L214.3,523L209.9,523C204,523 201,520.1 201,514.4L201,501L197.7,501L197.7,495.2L201,495.2L201,488.4L208.1,488.4L208.1,495.2L214.3,495.2L214.3,501L208.1,501Z" style="fill:rgb(0,117,201);fill-rule:nonzero;"/>
            <path d="M229.9,496.2C231.3,495.4 233,495 234.9,495L234.9,502.3L233,502.3C230.8,502.3 229.1,502.8 228,503.8C226.9,504.8 226.3,506.6 226.3,509.2L226.3,523L219.3,523L219.3,495.3L226.3,495.3L226.3,499.6C227.3,498.2 228.5,497 229.9,496.2Z" style="fill:rgb(0,117,201);fill-rule:nonzero;"/>
            <path d="M244.7,521.7C242.6,520.5 240.9,518.8 239.7,516.7C238.5,514.5 237.9,512 237.9,509.2C237.9,506.4 238.5,503.9 239.8,501.7C241.1,499.5 242.8,497.9 244.9,496.7C247.1,495.5 249.5,494.9 252.1,494.9C254.8,494.9 257.2,495.5 259.3,496.7C261.5,497.9 263.2,499.6 264.4,501.7C265.6,503.8 266.3,506.4 266.3,509.2C266.3,512 265.7,514.5 264.4,516.7C263.1,518.9 261.4,520.5 259.2,521.7C257,522.9 254.6,523.5 251.9,523.5C249.2,523.5 246.8,522.9 244.7,521.7ZM255.5,516.5C256.6,515.9 257.5,515 258.2,513.7C258.9,512.5 259.2,511 259.2,509.2C259.2,506.6 258.5,504.5 257.1,503.1C255.7,501.7 254,501 252,501C250,501 248.3,501.7 247,503.1C245.6,504.5 245,506.5 245,509.2C245,511.9 245.7,513.9 247,515.3C248.3,516.7 250,517.4 252,517.4C253.1,517.4 254.3,517.1 255.5,516.5Z" style="fill:rgb(0,117,201);fill-rule:nonzero;"/>
        </g>
        <g transform="matrix(0.58083,0,0,0.58083,39.0242,-15.1395)">
            <path d="M528.2,398.2C550.8,419.4 590.8,417.8 610.2,377.9C626,416.6 669.5,419.4 692.2,398.2C714.8,377 714.8,342.5 692.2,321.3C692.1,321.2 692,321.2 692,321.1L610.3,244.4L528.4,321C528.3,321.1 528.2,321.1 528.2,321.2C505.5,342.5 505.5,376.9 528.2,398.2Z" style="fill:none;fill-rule:nonzero;stroke:rgb(251,83,115);stroke-width:14px;stroke-linecap:round;stroke-miterlimit:10;"/>
        </g>
        <g transform="matrix(0.58083,0,0,0.58083,39.0242,3.84941)">
            <path d="M555.7,488.1L555.7,523L548.7,523L548.7,508.2L533.8,508.2L533.8,523L526.8,523L526.8,488.1L533.8,488.1L533.8,502.5L548.7,502.5L548.7,488.1L555.7,488.1Z" style="fill:rgb(0,117,201);fill-rule:nonzero;"/>
            <path d="M567.7,521.7C565.6,520.5 563.9,518.8 562.7,516.7C561.5,514.5 560.9,512 560.9,509.2C560.9,506.4 561.5,503.9 562.8,501.7C564.1,499.5 565.8,497.9 567.9,496.7C570.1,495.5 572.5,494.9 575.1,494.9C577.8,494.9 580.2,495.5 582.3,496.7C584.5,497.9 586.2,499.6 587.4,501.7C588.6,503.8 589.3,506.4 589.3,509.2C589.3,512 588.7,514.5 587.4,516.7C586.1,518.9 584.4,520.5 582.2,521.7C580,522.9 577.6,523.5 574.9,523.5C572.2,523.5 569.8,522.9 567.7,521.7ZM578.4,516.4C579.5,515.8 580.4,514.9 581.1,513.6C581.8,512.4 582.1,510.9 582.1,509.1C582.1,506.5 581.4,504.4 580,503C578.6,501.6 576.9,500.9 574.9,500.9C572.9,500.9 571.2,501.6 569.9,503C568.5,504.4 567.9,506.4 567.9,509.1C567.9,511.8 568.6,513.8 569.9,515.2C571.2,516.6 572.9,517.3 574.9,517.3C576.1,517.4 577.3,517.1 578.4,516.4Z" style="fill:rgb(0,117,201);fill-rule:nonzero;"/>
            <path d="M594.4,501.6C595.6,499.4 597.2,497.8 599.3,496.6C601.4,495.4 603.7,494.8 606.4,494.8C609.8,494.8 612.7,495.7 614.9,497.4C617.1,499.1 618.7,501.5 619.4,504.6L611.9,504.6C611.5,503.4 610.8,502.5 609.9,501.8C608.9,501.1 607.8,500.8 606.4,500.8C604.4,500.8 602.8,501.5 601.6,503C600.4,504.5 599.8,506.5 599.8,509.2C599.8,511.8 600.4,513.9 601.6,515.3C602.8,516.7 604.4,517.5 606.4,517.5C609.2,517.5 611.1,516.2 612,513.7L619.5,513.7C618.7,516.7 617.2,519.1 615,520.8C612.7,522.6 609.9,523.5 606.5,523.5C603.8,523.5 601.5,522.9 599.4,521.7C597.3,520.5 595.7,518.9 594.5,516.7C593.3,514.6 592.7,512 592.7,509.2C592.7,506.4 593.2,503.8 594.4,501.6Z" style="fill:rgb(0,117,201);fill-rule:nonzero;"/>
            <path d="M625,490.8C624.2,490 623.8,489 623.8,487.9C623.8,486.8 624.2,485.8 625,485C625.8,484.2 626.8,483.8 628.1,483.8C629.3,483.8 630.4,484.2 631.2,485C632,485.8 632.4,486.8 632.4,487.9C632.4,489 632,490 631.2,490.8C630.4,491.6 629.4,492 628.1,492C626.9,492 625.8,491.6 625,490.8ZM631.6,495.3L631.6,523L624.6,523L624.6,495.3L631.6,495.3Z" style="fill:rgb(0,117,201);fill-rule:nonzero;"/>
            <path d="M638.4,501.6C639.6,499.4 641.2,497.8 643.3,496.6C645.4,495.4 647.7,494.8 650.4,494.8C653.8,494.8 656.7,495.7 658.9,497.4C661.1,499.1 662.7,501.5 663.4,504.6L655.9,504.6C655.5,503.4 654.8,502.5 653.9,501.8C652.9,501.1 651.8,500.8 650.4,500.8C648.4,500.8 646.8,501.5 645.6,503C644.4,504.5 643.8,506.5 643.8,509.2C643.8,511.8 644.4,513.9 645.6,515.3C646.8,516.7 648.4,517.5 650.4,517.5C653.2,517.5 655.1,516.2 656,513.7L663.5,513.7C662.7,516.7 661.2,519.1 659,520.8C656.7,522.6 653.9,523.5 650.5,523.5C647.8,523.5 645.5,522.9 643.4,521.7C641.3,520.5 639.7,518.9 638.5,516.7C637.3,514.6 636.7,512 636.7,509.2C636.7,506.4 637.2,503.8 638.4,501.6Z" style="fill:rgb(0,117,201);fill-rule:nonzero;"/>
            <path d="M673.7,521.7C671.6,520.5 669.9,518.8 668.7,516.7C667.5,514.5 666.9,512 666.9,509.2C666.9,506.4 667.5,503.9 668.8,501.7C670.1,499.5 671.8,497.9 673.9,496.7C676.1,495.5 678.5,494.9 681.1,494.9C683.8,494.9 686.2,495.5 688.3,496.7C690.5,497.9 692.2,499.6 693.4,501.7C694.6,503.8 695.3,506.4 695.3,509.2C695.3,512 694.7,514.5 693.4,516.7C692.1,518.9 690.4,520.5 688.2,521.7C686,522.9 683.6,523.5 680.9,523.5C678.2,523.5 675.8,522.9 673.7,521.7ZM684.4,516.4C685.5,515.8 686.4,514.9 687.1,513.6C687.8,512.4 688.1,510.9 688.1,509.1C688.1,506.5 687.4,504.4 686,503C684.6,501.6 682.9,500.9 680.9,500.9C678.9,500.9 677.2,501.6 675.9,503C674.5,504.4 673.9,506.4 673.9,509.1C673.9,511.8 674.6,513.8 675.9,515.2C677.2,516.6 678.9,517.3 680.9,517.3C682.1,517.4 683.3,517.1 684.4,516.4Z" style="fill:rgb(0,117,201);fill-rule:nonzero;"/>
        </g>
        <g transform="matrix(0.58083,0,0,0.58083,39.0242,-15.1395)">
            <path d="M1031.1,280.1C1015.6,265.6 988.3,266.7 975.1,294C964.3,267.5 934.5,265.6 919.1,280.1C903.6,294.6 903.6,318.2 919.1,332.7C919.2,332.8 919.2,332.8 919.3,332.8L975.2,385.2L1031.1,332.8C1031.2,332.7 1031.2,332.7 1031.3,332.7C1046.6,318.1 1046.6,294.6 1031.1,280.1Z" style="fill:rgb(251,83,115);fill-rule:nonzero;"/>
        </g>
        <g transform="matrix(0.58083,0,0,0.58083,39.0242,3.84941)">
            <path d="M943.9,523L936.9,523L921.1,499L921.1,523L914.1,523L914.1,488L921.1,488L936.9,512L936.9,488L943.9,488L943.9,523Z" style="fill:rgb(0,117,201);fill-rule:nonzero;"/>
            <path d="M950.7,501.6C951.8,499.4 953.3,497.8 955.2,496.6C957.1,495.4 959.3,494.8 961.6,494.8C963.7,494.8 965.5,495.2 967,496C968.5,496.8 969.8,497.9 970.7,499.2L970.7,495.2L977.7,495.2L977.7,523L970.7,523L970.7,519C969.8,520.3 968.6,521.4 967,522.2C965.4,523.1 963.6,523.5 961.5,523.5C959.2,523.5 957,522.9 955.1,521.7C953.2,520.5 951.7,518.8 950.6,516.6C949.5,514.4 948.9,511.9 948.9,509.1C949,506.3 949.6,503.8 950.7,501.6ZM969.8,504.8C969.1,503.6 968.2,502.6 967.1,502C966,501.4 964.7,501 963.4,501C962.1,501 960.9,501.3 959.8,502C958.7,502.6 957.8,503.6 957.1,504.8C956.4,506 956.1,507.5 956.1,509.1C956.1,510.8 956.4,512.2 957.1,513.5C957.8,514.7 958.7,515.7 959.8,516.4C960.9,517.1 962.1,517.4 963.4,517.4C964.7,517.4 965.9,517.1 967.1,516.4C968.2,515.7 969.1,514.8 969.8,513.6C970.5,512.4 970.8,510.9 970.8,509.2C970.8,507.5 970.5,506 969.8,504.8Z" style="fill:rgb(0,117,201);fill-rule:nonzero;"/>
            <path d="M995.2,496.2C996.7,495.4 998.3,495 1000.2,495L1000.2,502.3L998.3,502.3C996.1,502.3 994.4,502.8 993.3,503.8C992.2,504.8 991.6,506.6 991.6,509.2L991.6,523L984.6,523L984.6,495.3L991.6,495.3L991.6,499.6C992.6,498.2 993.8,497 995.2,496.2Z" style="fill:rgb(0,117,201);fill-rule:nonzero;"/>
            <path d="M1005.4,490.9C1004.6,490.1 1004.2,489.1 1004.2,488C1004.2,486.9 1004.6,485.9 1005.4,485.1C1006.2,484.3 1007.2,483.9 1008.5,483.9C1009.8,483.9 1010.8,484.3 1011.6,485.1C1012.4,485.9 1012.8,486.9 1012.8,488C1012.8,489.1 1012.4,490.1 1011.6,490.9C1010.8,491.7 1009.8,492.1 1008.5,492.1C1007.2,492.1 1006.2,491.6 1005.4,490.9ZM1011.9,495.3L1011.9,523L1004.9,523L1004.9,495.3L1011.9,495.3Z" style="fill:rgb(0,117,201);fill-rule:nonzero;"/>
            <path d="M1025.2,517.3L1037.6,517.3L1037.6,523.1L1017.3,523.1L1017.3,517.4L1029.4,501.1L1017.4,501.1L1017.4,495.3L1037.5,495.3L1037.5,501L1025.2,517.3Z" style="fill:rgb(0,117,201);fill-rule:nonzero;"/>
        </g>
        <g transform="matrix(0.58083,0,0,0.58083,39.0242,-15.1395)">
            <path d="M1177.9,328.5L1177.9,341.3L1130.3,341.3L1130.3,328.5L1177.9,328.5ZM1177.9,350.1L1177.9,363L1130.3,363L1130.3,350.2L1177.9,350.2L1177.9,350.1Z" style="fill:rgb(0,117,201);fill-rule:nonzero;"/>
        </g>
        <g transform="matrix(0.58083,0,0,0.58083,39.0242,-15.1395)">
            <path d="M830.5,352.3L815.7,352.3L815.7,367.4L801.9,367.4L801.9,352.3L787.1,352.3L787.1,339.3L801.9,339.3L801.9,324.1L815.7,324.1L815.7,339.3L830.5,339.3L830.5,352.3Z" style="fill:rgb(0,117,201);fill-rule:nonzero;"/>
        </g>
        <g transform="matrix(0.58083,0,0,0.58083,39.0242,-15.1395)">
            <path d="M426.7,352.3L411.9,352.3L411.9,367.4L398.1,367.4L398.1,352.3L383.3,352.3L383.3,339.3L398.1,339.3L398.1,324.1L411.9,324.1L411.9,339.3L426.7,339.3L426.7,352.3Z" style="fill:rgb(0,117,201);fill-rule:nonzero;"/>
        </g>
    </g>
</svg>
