<?xml version="1.0" encoding="UTF-8" standalone="no"?>
<!DOCTYPE svg PUBLIC "-//W3C//DTD SVG 1.1//EN" "http://www.w3.org/Graphics/SVG/1.1/DTD/svg11.dtd">
<svg width="100%" height="100%" viewBox="0 0 1000 400" version="1.1" xmlns="http://www.w3.org/2000/svg" xmlns:xlink="http://www.w3.org/1999/xlink" xml:space="preserve" xmlns:serif="http://www.serif.com/" style="fill-rule:evenodd;clip-rule:evenodd;stroke-linejoin:round;stroke-miterlimit:2;">
    <g transform="matrix(5.07724,0,0,5.07724,-147.649,-159.804)">
        <g transform="matrix(1,0,0,1,95.7344,90.1404)">
            <path d="M0,-10.751L-0.48,-6.983C-0.48,-6.903 -0.448,-6.863 -0.384,-6.863L0.456,-6.863C1.063,-6.863 1.54,-7.079 1.883,-7.512C2.227,-7.943 2.399,-8.543 2.399,-9.311C2.399,-9.823 2.275,-10.211 2.027,-10.475C1.779,-10.738 1.423,-10.871 0.959,-10.871L0.12,-10.871C0.04,-10.871 0,-10.83 0,-10.751M1.08,-0.481C1.416,-0.865 1.631,-1.408 1.728,-2.112C1.743,-2.225 1.751,-2.393 1.751,-2.616C1.751,-3.177 1.631,-3.616 1.392,-3.937C1.152,-4.256 0.816,-4.416 0.384,-4.416L-0.672,-4.416C-0.736,-4.416 -0.784,-4.376 -0.816,-4.296L-1.32,-0.025C-1.352,0.055 -1.32,0.095 -1.224,0.095L-0.192,0.095C0.32,0.095 0.744,-0.098 1.08,-0.481M3.251,1.798C2.283,2.614 1.096,3.022 -0.312,3.022L-4.703,3.022C-4.783,3.022 -4.847,2.994 -4.895,2.938C-4.943,2.882 -4.959,2.814 -4.943,2.734L-2.951,-13.486C-2.936,-13.565 -2.899,-13.634 -2.843,-13.69C-2.788,-13.746 -2.72,-13.773 -2.64,-13.773L1.248,-13.773C2.655,-13.773 3.747,-13.458 4.523,-12.826C5.298,-12.194 5.687,-11.255 5.687,-10.007C5.687,-9.847 5.67,-9.575 5.639,-9.191C5.447,-7.623 4.775,-6.472 3.623,-5.736C3.559,-5.688 3.551,-5.64 3.599,-5.592C4.526,-4.856 4.991,-3.809 4.991,-2.448C4.991,-2.305 4.975,-2.057 4.943,-1.705C4.783,-0.185 4.219,0.982 3.251,1.798" style="fill:rgb(2,45,116);fill-rule:nonzero;"/>
        </g>
        <g transform="matrix(1,0,0,1,107.647,83.9241)">
            <path d="M0,6.143C0.231,5.887 0.38,5.551 0.444,5.135L0.948,1.008C0.996,0.592 0.932,0.256 0.756,0C0.58,-0.255 0.332,-0.383 0.012,-0.383C-0.308,-0.383 -0.584,-0.255 -0.816,0C-1.048,0.256 -1.188,0.592 -1.236,1.008L-1.764,5.135C-1.812,5.551 -1.748,5.887 -1.572,6.143C-1.396,6.399 -1.148,6.527 -0.828,6.527C-0.508,6.527 -0.232,6.399 0,6.143M1.512,-3.01C1.567,-3.067 1.635,-3.094 1.715,-3.094L4.451,-3.094C4.531,-3.094 4.595,-3.067 4.643,-3.01C4.691,-2.955 4.707,-2.886 4.691,-2.807L3.251,8.951C3.235,9.031 3.199,9.098 3.143,9.155C3.087,9.21 3.019,9.239 2.939,9.239L0.204,9.239C0.124,9.239 0.06,9.21 0.012,9.155C-0.036,9.098 -0.052,9.031 -0.036,8.951L0.06,8.279C0.06,8.215 0.044,8.182 0.012,8.182C-0.021,8.182 -0.052,8.206 -0.084,8.254C-0.66,9.039 -1.428,9.43 -2.388,9.43C-3.315,9.43 -4.003,9.159 -4.451,8.615C-4.899,8.071 -5.123,7.311 -5.123,6.335C-5.123,5.935 -5.107,5.623 -5.075,5.399L-4.499,0.745C-4.339,-0.567 -3.951,-1.567 -3.335,-2.254C-2.72,-2.943 -1.884,-3.287 -0.828,-3.287C0.132,-3.287 0.804,-2.894 1.187,-2.111C1.219,-2.063 1.248,-2.039 1.271,-2.039C1.295,-2.039 1.315,-2.071 1.332,-2.135L1.404,-2.807C1.419,-2.886 1.455,-2.955 1.512,-3.01" style="fill:rgb(2,45,116);fill-rule:nonzero;"/>
        </g>
        <g transform="matrix(1,0,0,1,121.192,92.8985)">
            <path d="M0,-11.973C0.112,-11.877 0.144,-11.757 0.096,-11.614L-0.696,-8.806C-0.728,-8.629 -0.848,-8.566 -1.056,-8.614C-1.2,-8.678 -1.4,-8.71 -1.656,-8.71C-1.896,-8.71 -2.104,-8.678 -2.28,-8.614C-2.648,-8.55 -2.959,-8.329 -3.215,-7.954C-3.471,-7.578 -3.631,-7.142 -3.695,-6.647L-4.511,-0.048C-4.527,0.032 -4.563,0.1 -4.619,0.156C-4.675,0.213 -4.743,0.24 -4.823,0.24L-7.558,0.24C-7.639,0.24 -7.702,0.213 -7.75,0.156C-7.798,0.1 -7.814,0.032 -7.798,-0.048L-6.358,-11.782C-6.343,-11.861 -6.307,-11.929 -6.25,-11.985C-6.195,-12.041 -6.127,-12.069 -6.046,-12.069L-3.312,-12.069C-3.231,-12.069 -3.167,-12.041 -3.119,-11.985C-3.071,-11.929 -3.056,-11.861 -3.071,-11.782L-3.191,-10.845C-3.208,-10.782 -3.2,-10.745 -3.167,-10.738C-3.135,-10.729 -3.104,-10.749 -3.071,-10.797C-2.56,-11.742 -1.856,-12.213 -0.96,-12.213C-0.528,-12.213 -0.208,-12.133 0,-11.973" style="fill:rgb(2,45,116);fill-rule:nonzero;"/>
        </g>
        <g transform="matrix(1,0,0,1,129.47,92.8985)">
            <path d="M0,-11.973C0.111,-11.877 0.144,-11.757 0.096,-11.614L-0.696,-8.806C-0.728,-8.629 -0.848,-8.566 -1.056,-8.614C-1.2,-8.678 -1.4,-8.71 -1.656,-8.71C-1.896,-8.71 -2.104,-8.678 -2.28,-8.614C-2.648,-8.55 -2.959,-8.329 -3.215,-7.954C-3.472,-7.578 -3.631,-7.142 -3.695,-6.647L-4.511,-0.048C-4.527,0.032 -4.563,0.1 -4.619,0.156C-4.675,0.213 -4.743,0.24 -4.823,0.24L-7.558,0.24C-7.639,0.24 -7.702,0.213 -7.75,0.156C-7.798,0.1 -7.814,0.032 -7.798,-0.048L-6.358,-11.782C-6.343,-11.861 -6.307,-11.929 -6.25,-11.985C-6.195,-12.041 -6.127,-12.069 -6.047,-12.069L-3.312,-12.069C-3.231,-12.069 -3.167,-12.041 -3.119,-11.985C-3.071,-11.929 -3.056,-11.861 -3.071,-11.782L-3.191,-10.845C-3.208,-10.782 -3.2,-10.745 -3.167,-10.738C-3.136,-10.729 -3.104,-10.749 -3.071,-10.797C-2.56,-11.742 -1.856,-12.213 -0.96,-12.213C-0.528,-12.213 -0.208,-12.133 0,-11.973" style="fill:rgb(2,45,116);fill-rule:nonzero;"/>
        </g>
        <g transform="matrix(1,0,0,1,134.316,90.0675)">
            <path d="M0,-6.143C-0.24,-5.887 -0.384,-5.559 -0.432,-5.16L-0.552,-4.223C-0.552,-4.143 -0.52,-4.103 -0.456,-4.103L1.56,-4.103C1.592,-4.103 1.62,-4.116 1.644,-4.139C1.668,-4.164 1.68,-4.191 1.68,-4.223L1.8,-5.16C1.848,-5.559 1.779,-5.887 1.596,-6.143C1.411,-6.399 1.159,-6.527 0.84,-6.527C0.52,-6.527 0.24,-6.399 0,-6.143M4.619,-2.1C4.562,-2.043 4.495,-2.016 4.415,-2.016L-0.72,-2.016C-0.752,-2.016 -0.78,-2.004 -0.804,-1.98C-0.828,-1.956 -0.84,-1.928 -0.84,-1.896L-0.96,-1.008C-1.008,-0.608 -0.939,-0.277 -0.756,-0.012C-0.572,0.252 -0.32,0.383 0,0.383C0.288,0.383 0.54,0.284 0.756,0.084C0.972,-0.117 1.128,-0.369 1.224,-0.672C1.287,-0.831 1.399,-0.913 1.56,-0.913L4.223,-0.768C4.303,-0.768 4.363,-0.74 4.403,-0.684C4.442,-0.628 4.455,-0.552 4.438,-0.456C4.183,0.776 3.655,1.708 2.855,2.339C2.056,2.971 0.983,3.287 -0.36,3.287C-1.624,3.287 -2.6,2.991 -3.287,2.399C-3.976,1.807 -4.319,0.975 -4.319,-0.096C-4.319,-0.241 -4.303,-0.456 -4.271,-0.745L-3.695,-5.399C-3.551,-6.615 -3.039,-7.59 -2.159,-8.327C-1.28,-9.062 -0.16,-9.43 1.199,-9.43C2.447,-9.43 3.419,-9.122 4.115,-8.506C4.811,-7.89 5.159,-7.055 5.159,-5.999C5.159,-5.887 5.143,-5.687 5.11,-5.399L4.727,-2.304C4.711,-2.224 4.675,-2.156 4.619,-2.1" style="fill:rgb(2,45,116);fill-rule:nonzero;"/>
        </g>
        <g transform="matrix(1,0,0,1,142.786,89.8271)">
            <path d="M0,-10.845C-0.304,-11.149 -0.456,-11.532 -0.456,-11.997C-0.456,-12.637 -0.256,-13.16 0.144,-13.569C0.544,-13.977 1.04,-14.181 1.632,-14.181C2.127,-14.181 2.52,-14.036 2.808,-13.748C3.096,-13.46 3.239,-13.076 3.239,-12.597C3.239,-11.989 3.035,-11.469 2.627,-11.037C2.22,-10.606 1.735,-10.39 1.176,-10.39C0.695,-10.39 0.304,-10.541 0,-10.845M-2.039,3.252C-2.088,3.195 -2.104,3.128 -2.088,3.048L-0.647,-8.71C-0.632,-8.789 -0.596,-8.858 -0.54,-8.913C-0.484,-8.97 -0.416,-8.997 -0.336,-8.997L2.399,-8.997C2.479,-8.997 2.543,-8.97 2.592,-8.913C2.64,-8.858 2.655,-8.789 2.64,-8.71L1.199,3.048C1.184,3.128 1.147,3.195 1.092,3.252C1.035,3.307 0.968,3.336 0.888,3.336L-1.848,3.336C-1.928,3.336 -1.991,3.307 -2.039,3.252" style="fill:rgb(2,45,116);fill-rule:nonzero;"/>
        </g>
        <g transform="matrix(1,0,0,1,154.255,92.8985)">
            <path d="M0,-11.973C0.112,-11.877 0.145,-11.757 0.096,-11.614L-0.695,-8.806C-0.728,-8.629 -0.848,-8.566 -1.056,-8.614C-1.199,-8.678 -1.399,-8.71 -1.655,-8.71C-1.896,-8.71 -2.104,-8.678 -2.279,-8.614C-2.647,-8.55 -2.959,-8.329 -3.215,-7.954C-3.471,-7.578 -3.631,-7.142 -3.695,-6.647L-4.511,-0.048C-4.527,0.032 -4.562,0.1 -4.619,0.156C-4.675,0.213 -4.743,0.24 -4.822,0.24L-7.558,0.24C-7.639,0.24 -7.702,0.213 -7.75,0.156C-7.798,0.1 -7.814,0.032 -7.798,-0.048L-6.358,-11.782C-6.343,-11.861 -6.307,-11.929 -6.25,-11.985C-6.194,-12.041 -6.127,-12.069 -6.046,-12.069L-3.312,-12.069C-3.231,-12.069 -3.167,-12.041 -3.119,-11.985C-3.071,-11.929 -3.056,-11.861 -3.071,-11.782L-3.191,-10.845C-3.207,-10.782 -3.199,-10.745 -3.167,-10.738C-3.135,-10.729 -3.104,-10.749 -3.071,-10.797C-2.56,-11.742 -1.855,-12.213 -0.96,-12.213C-0.527,-12.213 -0.208,-12.133 0,-11.973" style="fill:rgb(2,45,116);fill-rule:nonzero;"/>
        </g>
        <g transform="matrix(1,0,0,1,160.002,83.9497)">
            <path d="M0,6.093C0.247,5.838 0.396,5.51 0.443,5.11L0.972,0.958C1.02,0.559 0.947,0.231 0.756,-0.025C0.563,-0.281 0.3,-0.409 -0.036,-0.409C-0.372,-0.409 -0.66,-0.281 -0.9,-0.025C-1.14,0.231 -1.284,0.559 -1.332,0.958L-1.859,5.11C-1.908,5.51 -1.84,5.838 -1.656,6.093C-1.473,6.35 -1.212,6.478 -0.876,6.478C-0.54,6.478 -0.248,6.35 0,6.093M-4.151,8.492C-4.847,7.885 -5.195,7.045 -5.195,5.974C-5.195,5.718 -5.187,5.518 -5.171,5.373L-4.596,0.719C-4.451,-0.497 -3.936,-1.472 -3.048,-2.209C-2.16,-2.944 -1.036,-3.312 0.323,-3.312C1.587,-3.312 2.57,-3.004 3.275,-2.388C3.979,-1.772 4.331,-0.937 4.331,0.118C4.331,0.263 4.314,0.463 4.282,0.719L3.707,5.373C3.547,6.621 3.031,7.605 2.159,8.324C1.287,9.045 0.155,9.405 -1.236,9.405C-2.483,9.405 -3.455,9.101 -4.151,8.492" style="fill:rgb(2,45,116);fill-rule:nonzero;"/>
        </g>
        <g transform="matrix(1,0,0,1,135.644,71.0176)">
            <path d="M0,-20.116L0,-12.837L-8.084,-8.17L-16.168,-12.837L-16.168,-20.116L-23.244,-20.116L-23.244,-8.752L-8.084,0L7.075,-8.752L7.075,-20.116L0,-20.116Z" style="fill:rgb(2,45,116);fill-rule:nonzero;"/>
        </g>
        <g transform="matrix(1,0,0,1,127.559,48.3205)">
            <path d="M0,-12.312L-15.16,-3.56L-15.16,0L15.16,0L15.16,-3.56L0,-12.312Z" style="fill:rgb(255,128,48);fill-rule:nonzero;"/>
        </g>
        <g transform="matrix(1,0,0,1,96.0474,99.7736)">
            <path d="M0,5.857C-0.014,5.84 -0.018,5.821 -0.013,5.798L0.688,0.06C0.693,0.038 0.705,0.017 0.722,0.001C0.738,-0.016 0.758,-0.025 0.781,-0.025L1.405,-0.025C1.456,-0.025 1.481,0.003 1.481,0.06L0.856,5.148C0.851,5.154 0.851,5.161 0.856,5.17C0.862,5.177 0.871,5.182 0.882,5.182L2.713,5.182C2.764,5.182 2.789,5.211 2.789,5.266L2.722,5.798C2.71,5.854 2.679,5.882 2.629,5.882L0.055,5.882C0.033,5.882 0.014,5.874 0,5.857" style="fill:rgb(255,128,48);fill-rule:nonzero;"/>
        </g>
        <g transform="matrix(1,0,0,1,100.971,101.483)">
            <path d="M0,2.439C0.006,2.448 0.011,2.452 0.017,2.452L1.105,2.452C1.117,2.452 1.128,2.441 1.139,2.418L0.945,-0.578C0.945,-0.588 0.941,-0.594 0.933,-0.594C0.924,-0.594 0.917,-0.588 0.912,-0.578L0,2.418C-0.005,2.423 -0.005,2.431 0,2.439M1.249,4.097L1.19,3.126C1.19,3.116 1.186,3.107 1.177,3.102C1.169,3.096 1.159,3.093 1.147,3.093L-0.186,3.093C-0.197,3.093 -0.207,3.096 -0.215,3.102C-0.224,3.107 -0.228,3.116 -0.228,3.126L-0.523,4.097C-0.529,4.148 -0.56,4.173 -0.616,4.173L-1.24,4.173C-1.269,4.173 -1.288,4.165 -1.299,4.148C-1.311,4.131 -1.311,4.109 -1.299,4.081L0.625,-1.658C0.636,-1.708 0.667,-1.734 0.717,-1.734L1.452,-1.734C1.502,-1.734 1.527,-1.708 1.527,-1.658L2.051,4.081C2.051,4.142 2.022,4.173 1.966,4.173L1.333,4.173C1.277,4.173 1.249,4.148 1.249,4.097" style="fill:rgb(255,128,48);fill-rule:nonzero;"/>
        </g>
        <g transform="matrix(1,0,0,1,106.502,100.028)">
            <path d="M0,5.35C-0.233,5.12 -0.35,4.807 -0.35,4.413C-0.35,4.363 -0.345,4.281 -0.333,4.168L0.038,1.173C0.094,0.711 0.274,0.343 0.578,0.068C0.882,-0.209 1.256,-0.346 1.7,-0.346C2.1,-0.346 2.417,-0.234 2.654,-0.008C2.89,0.216 3.008,0.526 3.008,0.919C3.008,0.976 3.002,1.06 2.992,1.173L2.975,1.308C2.963,1.364 2.932,1.392 2.882,1.392L2.257,1.426C2.201,1.426 2.178,1.398 2.19,1.341L2.215,1.122C2.221,1.094 2.224,1.049 2.224,0.987C2.224,0.796 2.168,0.643 2.059,0.527C1.949,0.413 1.802,0.354 1.616,0.354C1.408,0.354 1.232,0.424 1.088,0.565C0.945,0.705 0.859,0.892 0.831,1.122L0.452,4.228C0.446,4.261 0.443,4.306 0.443,4.363C0.443,4.554 0.497,4.707 0.604,4.823C0.71,4.938 0.856,4.996 1.042,4.996C1.25,4.996 1.427,4.925 1.574,4.785C1.72,4.644 1.807,4.458 1.835,4.228L1.861,4.008C1.872,3.952 1.903,3.923 1.954,3.923L2.569,3.957C2.626,3.957 2.648,3.986 2.637,4.041L2.628,4.168C2.572,4.629 2.392,4.999 2.088,5.278C1.785,5.557 1.408,5.696 0.958,5.696C0.553,5.696 0.233,5.58 0,5.35" style="fill:rgb(255,128,48);fill-rule:nonzero;"/>
        </g>
        <g transform="matrix(1,0,0,1,111.097,101.483)">
            <path d="M0,2.439C0.005,2.448 0.011,2.452 0.017,2.452L1.105,2.452C1.117,2.452 1.128,2.441 1.139,2.418L0.945,-0.578C0.945,-0.588 0.941,-0.594 0.933,-0.594C0.924,-0.594 0.917,-0.588 0.912,-0.578L0,2.418C-0.006,2.423 -0.006,2.431 0,2.439M1.249,4.097L1.19,3.126C1.19,3.116 1.186,3.107 1.177,3.102C1.169,3.096 1.159,3.093 1.147,3.093L-0.186,3.093C-0.197,3.093 -0.207,3.096 -0.215,3.102C-0.224,3.107 -0.228,3.116 -0.228,3.126L-0.523,4.097C-0.529,4.148 -0.56,4.173 -0.616,4.173L-1.24,4.173C-1.269,4.173 -1.288,4.165 -1.299,4.148C-1.311,4.131 -1.311,4.109 -1.299,4.081L0.625,-1.658C0.636,-1.708 0.667,-1.734 0.717,-1.734L1.451,-1.734C1.502,-1.734 1.527,-1.708 1.527,-1.658L2.051,4.081C2.051,4.142 2.022,4.173 1.966,4.173L1.333,4.173C1.277,4.173 1.249,4.148 1.249,4.097" style="fill:rgb(255,128,48);fill-rule:nonzero;"/>
        </g>
        <g transform="matrix(1,0,0,1,114.304,100.028)">
            <path d="M0,5.35C-0.23,5.12 -0.346,4.81 -0.346,4.421C-0.346,4.376 -0.34,4.298 -0.329,4.185L-0.295,3.966C-0.295,3.944 -0.287,3.923 -0.27,3.907C-0.253,3.89 -0.23,3.881 -0.202,3.881L0.397,3.881C0.425,3.881 0.446,3.89 0.46,3.907C0.474,3.923 0.478,3.944 0.473,3.966L0.447,4.143C0.442,4.177 0.439,4.228 0.439,4.295C0.439,4.514 0.491,4.686 0.595,4.81C0.699,4.934 0.838,4.996 1.013,4.996C1.232,4.996 1.419,4.907 1.574,4.73C1.729,4.552 1.806,4.329 1.806,4.059C1.806,3.923 1.776,3.801 1.717,3.692C1.658,3.582 1.581,3.481 1.485,3.388C1.39,3.295 1.235,3.162 1.021,2.987C0.791,2.79 0.61,2.624 0.481,2.49C0.352,2.354 0.242,2.196 0.152,2.012C0.062,1.829 0.017,1.62 0.017,1.384C0.017,1.035 0.087,0.73 0.228,0.468C0.369,0.206 0.562,0.005 0.806,-0.135C1.051,-0.276 1.325,-0.346 1.629,-0.346C2.022,-0.346 2.333,-0.229 2.561,0.004C2.789,0.238 2.903,0.554 2.903,0.954C2.903,1.004 2.897,1.091 2.886,1.215L2.861,1.426C2.85,1.482 2.819,1.51 2.768,1.51L2.16,1.51C2.138,1.51 2.12,1.502 2.105,1.485C2.091,1.468 2.087,1.449 2.093,1.426L2.118,1.198C2.124,1.159 2.126,1.103 2.126,1.03C2.126,0.822 2.075,0.657 1.97,0.536C1.866,0.414 1.724,0.354 1.544,0.354C1.331,0.354 1.152,0.437 1.008,0.603C0.865,0.769 0.793,0.996 0.793,1.283C0.793,1.462 0.845,1.622 0.949,1.763C1.054,1.904 1.246,2.092 1.527,2.329C1.797,2.554 2.003,2.738 2.144,2.881C2.284,3.025 2.394,3.18 2.473,3.346C2.551,3.512 2.591,3.699 2.591,3.907C2.591,3.947 2.585,4.022 2.574,4.135C2.518,4.607 2.336,4.986 2.03,5.27C1.723,5.554 1.356,5.696 0.928,5.696C0.54,5.696 0.23,5.58 0,5.35" style="fill:rgb(255,128,48);fill-rule:nonzero;"/>
        </g>
        <g transform="matrix(1,0,0,1,118.827,101.483)">
            <path d="M0,2.439C0.006,2.448 0.011,2.452 0.017,2.452L1.105,2.452C1.117,2.452 1.128,2.441 1.139,2.418L0.945,-0.578C0.945,-0.588 0.941,-0.594 0.933,-0.594C0.924,-0.594 0.917,-0.588 0.912,-0.578L0,2.418C-0.006,2.423 -0.006,2.431 0,2.439M1.249,4.097L1.19,3.126C1.19,3.116 1.186,3.107 1.177,3.102C1.169,3.096 1.159,3.093 1.147,3.093L-0.186,3.093C-0.197,3.093 -0.207,3.096 -0.215,3.102C-0.224,3.107 -0.228,3.116 -0.228,3.126L-0.523,4.097C-0.529,4.148 -0.56,4.173 -0.616,4.173L-1.24,4.173C-1.269,4.173 -1.288,4.165 -1.299,4.148C-1.311,4.131 -1.311,4.109 -1.299,4.081L0.625,-1.658C0.636,-1.708 0.667,-1.734 0.717,-1.734L1.451,-1.734C1.502,-1.734 1.527,-1.708 1.527,-1.658L2.051,4.081C2.051,4.142 2.022,4.173 1.966,4.173L1.333,4.173C1.277,4.173 1.249,4.148 1.249,4.097" style="fill:rgb(255,128,48);fill-rule:nonzero;"/>
        </g>
        <g transform="matrix(1,0,0,1,127.256,104.956)">
            <path d="M0,-4.507L-1.839,-4.507C-1.845,-4.507 -1.852,-4.504 -1.86,-4.498C-1.869,-4.492 -1.873,-4.484 -1.873,-4.473L-2.101,-2.642C-2.101,-2.619 -2.09,-2.608 -2.067,-2.608L-0.945,-2.608C-0.889,-2.608 -0.866,-2.579 -0.877,-2.524L-0.945,-1.992C-0.945,-1.969 -0.954,-1.949 -0.97,-1.933C-0.987,-1.916 -1.007,-1.907 -1.029,-1.907L-2.152,-1.907C-2.168,-1.907 -2.183,-1.897 -2.194,-1.874L-2.498,0.616C-2.509,0.672 -2.54,0.7 -2.59,0.7L-3.215,0.7C-3.237,0.7 -3.256,0.691 -3.27,0.675C-3.284,0.658 -3.288,0.639 -3.282,0.616L-2.582,-5.122C-2.577,-5.145 -2.565,-5.165 -2.548,-5.182C-2.531,-5.198 -2.512,-5.207 -2.489,-5.207L0.084,-5.207C0.141,-5.207 0.163,-5.179 0.152,-5.122L0.093,-4.591C0.082,-4.534 0.051,-4.507 0,-4.507" style="fill:rgb(255,128,48);fill-rule:nonzero;"/>
        </g>
        <g transform="matrix(1,0,0,1,131.045,104.956)">
            <path d="M0,-4.507L-1.848,-4.507C-1.854,-4.507 -1.86,-4.504 -1.869,-4.498C-1.877,-4.492 -1.882,-4.484 -1.882,-4.473L-2.109,-2.642C-2.109,-2.619 -2.098,-2.608 -2.076,-2.608L-0.944,-2.608C-0.889,-2.608 -0.866,-2.579 -0.877,-2.524L-0.944,-1.992C-0.944,-1.969 -0.953,-1.949 -0.97,-1.933C-0.987,-1.916 -1.007,-1.907 -1.029,-1.907L-2.16,-1.907C-2.177,-1.907 -2.191,-1.897 -2.202,-1.874L-2.421,-0.034C-2.427,-0.028 -2.427,-0.022 -2.421,-0.013C-2.416,-0.005 -2.408,0 -2.396,0L-0.557,0C-0.506,0 -0.48,0.028 -0.48,0.084L-0.548,0.616C-0.56,0.672 -0.59,0.7 -0.641,0.7L-3.223,0.7C-3.246,0.7 -3.264,0.691 -3.278,0.675C-3.292,0.658 -3.296,0.639 -3.291,0.616L-2.59,-5.122C-2.585,-5.145 -2.573,-5.165 -2.557,-5.182C-2.54,-5.198 -2.52,-5.207 -2.498,-5.207L0.085,-5.207C0.141,-5.207 0.163,-5.179 0.152,-5.122L0.093,-4.591C0.082,-4.534 0.051,-4.507 0,-4.507" style="fill:rgb(255,128,48);fill-rule:nonzero;"/>
        </g>
        <g transform="matrix(1,0,0,1,133.134,104.947)">
            <path d="M0,-4.489C-0.009,-4.483 -0.013,-4.474 -0.013,-4.464L-0.24,-2.573C-0.246,-2.568 -0.246,-2.56 -0.24,-2.552C-0.235,-2.544 -0.227,-2.54 -0.215,-2.54L0.393,-2.54C0.64,-2.54 0.848,-2.649 1.017,-2.869C1.186,-3.089 1.27,-3.369 1.27,-3.713C1.27,-3.955 1.212,-4.145 1.097,-4.287C0.981,-4.427 0.825,-4.498 0.629,-4.498L0.021,-4.498C0.016,-4.498 0.009,-4.495 0,-4.489M0.789,0.693C0.772,0.681 0.761,0.664 0.755,0.642L0.308,-1.873C0.303,-1.889 0.294,-1.898 0.282,-1.898L-0.291,-1.898C-0.308,-1.898 -0.322,-1.887 -0.333,-1.865L-0.637,0.625C-0.648,0.681 -0.68,0.709 -0.729,0.709L-1.354,0.709C-1.377,0.709 -1.396,0.7 -1.409,0.684C-1.423,0.667 -1.428,0.648 -1.422,0.625L-0.722,-5.113C-0.716,-5.135 -0.705,-5.156 -0.687,-5.173C-0.671,-5.189 -0.651,-5.198 -0.629,-5.198L0.84,-5.198C1.211,-5.198 1.506,-5.072 1.726,-4.822C1.945,-4.572 2.055,-4.238 2.055,-3.822C2.055,-3.693 2.049,-3.592 2.038,-3.518C1.998,-3.164 1.892,-2.854 1.717,-2.591C1.543,-2.326 1.326,-2.137 1.067,-2.025C1.045,-2.008 1.036,-1.991 1.042,-1.974L1.557,0.616L1.557,0.633C1.557,0.684 1.531,0.709 1.48,0.709L0.84,0.709C0.822,0.709 0.806,0.703 0.789,0.693" style="fill:rgb(255,128,48);fill-rule:nonzero;"/>
        </g>
        <g transform="matrix(1,0,0,1,137.269,104.947)">
            <path d="M0,-4.489C-0.009,-4.483 -0.013,-4.474 -0.013,-4.464L-0.24,-2.573C-0.246,-2.568 -0.246,-2.56 -0.24,-2.552C-0.235,-2.544 -0.227,-2.54 -0.215,-2.54L0.393,-2.54C0.64,-2.54 0.848,-2.649 1.017,-2.869C1.186,-3.089 1.27,-3.369 1.27,-3.713C1.27,-3.955 1.212,-4.145 1.097,-4.287C0.981,-4.427 0.825,-4.498 0.629,-4.498L0.021,-4.498C0.016,-4.498 0.008,-4.495 0,-4.489M0.789,0.693C0.772,0.681 0.761,0.664 0.755,0.642L0.308,-1.873C0.302,-1.889 0.294,-1.898 0.282,-1.898L-0.291,-1.898C-0.309,-1.898 -0.322,-1.887 -0.333,-1.865L-0.638,0.625C-0.648,0.681 -0.68,0.709 -0.73,0.709L-1.354,0.709C-1.377,0.709 -1.396,0.7 -1.409,0.684C-1.424,0.667 -1.428,0.648 -1.422,0.625L-0.722,-5.113C-0.716,-5.135 -0.705,-5.156 -0.687,-5.173C-0.671,-5.189 -0.651,-5.198 -0.629,-5.198L0.84,-5.198C1.211,-5.198 1.506,-5.072 1.726,-4.822C1.945,-4.572 2.055,-4.238 2.055,-3.822C2.055,-3.693 2.049,-3.592 2.038,-3.518C1.998,-3.164 1.892,-2.854 1.717,-2.591C1.543,-2.326 1.326,-2.137 1.067,-2.025C1.045,-2.008 1.036,-1.991 1.042,-1.974L1.557,0.616L1.557,0.633C1.557,0.684 1.531,0.709 1.48,0.709L0.84,0.709C0.822,0.709 0.806,0.703 0.789,0.693" style="fill:rgb(255,128,48);fill-rule:nonzero;"/>
        </g>
        <g transform="matrix(1,0,0,1,143.272,104.956)">
            <path d="M0,-4.507L-1.848,-4.507C-1.854,-4.507 -1.861,-4.504 -1.869,-4.498C-1.878,-4.492 -1.882,-4.484 -1.882,-4.473L-2.109,-2.642C-2.109,-2.619 -2.099,-2.608 -2.076,-2.608L-0.945,-2.608C-0.889,-2.608 -0.866,-2.579 -0.878,-2.524L-0.945,-1.992C-0.945,-1.969 -0.954,-1.949 -0.971,-1.933C-0.987,-1.916 -1.007,-1.907 -1.029,-1.907L-2.16,-1.907C-2.177,-1.907 -2.191,-1.897 -2.202,-1.874L-2.422,-0.034C-2.428,-0.028 -2.428,-0.022 -2.422,-0.013C-2.416,-0.005 -2.408,0 -2.396,0L-0.557,0C-0.507,0 -0.481,0.028 -0.481,0.084L-0.549,0.616C-0.56,0.672 -0.591,0.7 -0.642,0.7L-3.224,0.7C-3.246,0.7 -3.265,0.691 -3.278,0.675C-3.293,0.658 -3.297,0.639 -3.291,0.616L-2.591,-5.122C-2.585,-5.145 -2.574,-5.165 -2.557,-5.182C-2.54,-5.198 -2.521,-5.207 -2.498,-5.207L0.084,-5.207C0.141,-5.207 0.163,-5.179 0.151,-5.122L0.093,-4.591C0.081,-4.534 0.051,-4.507 0,-4.507" style="fill:rgb(255,128,48);fill-rule:nonzero;"/>
        </g>
        <g transform="matrix(1,0,0,1,147.471,105.631)">
            <path d="M0,-5.857C0.014,-5.84 0.018,-5.82 0.013,-5.797L-0.056,-5.266C-0.056,-5.244 -0.063,-5.224 -0.08,-5.207C-0.098,-5.19 -0.12,-5.182 -0.148,-5.182L-1.22,-5.182C-1.242,-5.182 -1.254,-5.17 -1.254,-5.148L-1.878,-0.059C-1.89,-0.003 -1.92,0.025 -1.971,0.025L-2.595,0.025C-2.651,0.025 -2.674,-0.003 -2.663,-0.059L-2.038,-5.148C-2.038,-5.17 -2.05,-5.182 -2.072,-5.182L-3.085,-5.182C-3.141,-5.182 -3.163,-5.21 -3.152,-5.266L-3.093,-5.797C-3.088,-5.82 -3.076,-5.84 -3.06,-5.857C-3.042,-5.874 -3.022,-5.882 -3,-5.882L-0.056,-5.882C-0.033,-5.882 -0.015,-5.874 0,-5.857" style="fill:rgb(255,128,48);fill-rule:nonzero;"/>
        </g>
        <g transform="matrix(1,0,0,1,151.246,104.956)">
            <path d="M0,-4.507L-1.848,-4.507C-1.854,-4.507 -1.86,-4.504 -1.869,-4.498C-1.877,-4.492 -1.882,-4.484 -1.882,-4.473L-2.109,-2.642C-2.109,-2.619 -2.098,-2.608 -2.075,-2.608L-0.944,-2.608C-0.889,-2.608 -0.866,-2.579 -0.877,-2.524L-0.944,-1.992C-0.944,-1.969 -0.953,-1.949 -0.97,-1.933C-0.987,-1.916 -1.007,-1.907 -1.029,-1.907L-2.16,-1.907C-2.177,-1.907 -2.19,-1.897 -2.202,-1.874L-2.422,-0.034C-2.427,-0.028 -2.427,-0.022 -2.422,-0.013C-2.416,-0.005 -2.407,0 -2.396,0L-0.557,0C-0.506,0 -0.48,0.028 -0.48,0.084L-0.548,0.616C-0.56,0.672 -0.59,0.7 -0.641,0.7L-3.223,0.7C-3.246,0.7 -3.264,0.691 -3.278,0.675C-3.292,0.658 -3.296,0.639 -3.291,0.616L-2.59,-5.122C-2.585,-5.145 -2.573,-5.165 -2.557,-5.182C-2.54,-5.198 -2.52,-5.207 -2.497,-5.207L0.085,-5.207C0.141,-5.207 0.163,-5.179 0.152,-5.122L0.093,-4.591C0.082,-4.534 0.051,-4.507 0,-4.507" style="fill:rgb(255,128,48);fill-rule:nonzero;"/>
        </g>
        <g transform="matrix(1,0,0,1,153.335,104.947)">
            <path d="M0,-4.489C-0.009,-4.483 -0.013,-4.474 -0.013,-4.464L-0.24,-2.573C-0.246,-2.568 -0.246,-2.56 -0.24,-2.552C-0.235,-2.544 -0.227,-2.54 -0.215,-2.54L0.393,-2.54C0.64,-2.54 0.848,-2.649 1.017,-2.869C1.186,-3.089 1.27,-3.369 1.27,-3.713C1.27,-3.955 1.212,-4.145 1.097,-4.287C0.981,-4.427 0.825,-4.498 0.629,-4.498L0.021,-4.498C0.016,-4.498 0.009,-4.495 0,-4.489M0.789,0.693C0.772,0.681 0.761,0.664 0.755,0.642L0.308,-1.873C0.303,-1.889 0.294,-1.898 0.282,-1.898L-0.291,-1.898C-0.308,-1.898 -0.322,-1.887 -0.333,-1.865L-0.637,0.625C-0.648,0.681 -0.68,0.709 -0.729,0.709L-1.354,0.709C-1.377,0.709 -1.396,0.7 -1.409,0.684C-1.423,0.667 -1.428,0.648 -1.422,0.625L-0.722,-5.113C-0.716,-5.135 -0.705,-5.156 -0.687,-5.173C-0.671,-5.189 -0.651,-5.198 -0.629,-5.198L0.84,-5.198C1.211,-5.198 1.506,-5.072 1.726,-4.822C1.945,-4.572 2.055,-4.238 2.055,-3.822C2.055,-3.693 2.049,-3.592 2.038,-3.518C1.998,-3.164 1.892,-2.854 1.717,-2.591C1.543,-2.326 1.326,-2.137 1.067,-2.025C1.045,-2.008 1.036,-1.991 1.042,-1.974L1.557,0.616L1.557,0.633C1.557,0.684 1.531,0.709 1.48,0.709L0.84,0.709C0.823,0.709 0.806,0.703 0.789,0.693" style="fill:rgb(255,128,48);fill-rule:nonzero;"/>
        </g>
        <g transform="matrix(1,0,0,1,157.035,101.483)">
            <path d="M0,2.439C0.006,2.448 0.011,2.452 0.017,2.452L1.105,2.452C1.116,2.452 1.128,2.441 1.139,2.418L0.945,-0.578C0.945,-0.588 0.94,-0.594 0.933,-0.594C0.924,-0.594 0.917,-0.588 0.911,-0.578L0,2.418C-0.006,2.423 -0.006,2.431 0,2.439M1.249,4.097L1.189,3.126C1.189,3.116 1.186,3.107 1.177,3.102C1.169,3.096 1.159,3.093 1.147,3.093L-0.186,3.093C-0.197,3.093 -0.207,3.096 -0.215,3.102C-0.224,3.107 -0.228,3.116 -0.228,3.126L-0.523,4.097C-0.529,4.148 -0.56,4.173 -0.616,4.173L-1.24,4.173C-1.269,4.173 -1.288,4.165 -1.3,4.148C-1.311,4.131 -1.311,4.109 -1.3,4.081L0.624,-1.658C0.636,-1.708 0.667,-1.734 0.717,-1.734L1.451,-1.734C1.502,-1.734 1.527,-1.708 1.527,-1.658L2.051,4.081C2.051,4.142 2.022,4.173 1.966,4.173L1.333,4.173C1.277,4.173 1.249,4.148 1.249,4.097" style="fill:rgb(255,128,48);fill-rule:nonzero;"/>
        </g>
    </g>
</svg>
