<?xml version="1.0" encoding="UTF-8" standalone="no"?>
<!DOCTYPE svg PUBLIC "-//W3C//DTD SVG 1.1//EN" "http://www.w3.org/Graphics/SVG/1.1/DTD/svg11.dtd">
<svg width="100%" height="100%" viewBox="0 0 1000 400" version="1.1" xmlns="http://www.w3.org/2000/svg" xmlns:xlink="http://www.w3.org/1999/xlink" xml:space="preserve" xmlns:serif="http://www.serif.com/" style="fill-rule:evenodd;clip-rule:evenodd;stroke-linejoin:round;stroke-miterlimit:2;">
    <g transform="matrix(0.716608,0,0,0.716608,-227.119,-196.81)">
        <g transform="matrix(3.61608,0,0,3.61608,-197.448,-533.887)">
            <path d="M198.036,328.397L198.036,327.437L204.528,327.437L204.528,328.397L201.804,328.397L201.804,335.837L200.76,335.837L200.76,328.397L198.036,328.397ZM209.232,332.777L209.232,329.717L210.216,329.717L210.216,335.837L209.364,335.837L209.232,335.021C208.872,335.477 208.284,335.909 207.276,335.909C205.932,335.909 204.864,335.153 204.864,333.125L204.864,329.717L205.848,329.717L205.848,333.065C205.848,334.337 206.424,335.009 207.444,335.009C208.56,335.009 209.232,334.157 209.232,332.777ZM214.38,335.909C212.544,335.909 211.344,334.649 211.344,332.777C211.344,330.917 212.52,329.645 214.248,329.645C215.976,329.645 217.104,330.737 217.152,332.549C217.152,332.681 217.14,332.825 217.128,332.969L212.376,332.969L212.376,333.053C212.412,334.217 213.144,335.033 214.308,335.033C215.172,335.033 215.844,334.577 216.048,333.785L217.044,333.785C216.804,335.009 215.796,335.909 214.38,335.909ZM212.436,332.153L216.096,332.153C216,331.097 215.28,330.509 214.26,330.509C213.36,330.509 212.532,331.157 212.436,332.153ZM221.112,329.717L221.388,329.717L221.388,330.677L220.896,330.677C219.612,330.677 219.264,331.745 219.264,332.717L219.264,335.837L218.28,335.837L218.28,329.717L219.132,329.717L219.264,330.641C219.552,330.173 220.02,329.717 221.112,329.717ZM224.64,335.909C222.852,335.909 221.676,334.697 221.676,332.789C221.676,330.917 222.888,329.645 224.664,329.645C226.164,329.645 227.112,330.485 227.364,331.829L226.332,331.829C226.152,331.013 225.552,330.521 224.652,330.521C223.476,330.521 222.684,331.457 222.684,332.789C222.684,334.121 223.476,335.033 224.652,335.033C225.528,335.033 226.128,334.529 226.32,333.749L227.364,333.749C227.124,335.069 226.128,335.909 224.64,335.909ZM233.856,334.937L234.168,334.937L234.168,335.837L233.628,335.837C232.812,335.837 232.536,335.489 232.524,334.889C232.14,335.441 231.528,335.909 230.472,335.909C229.128,335.909 228.216,335.237 228.216,334.121C228.216,332.897 229.068,332.213 230.676,332.213L232.476,332.213L232.476,331.793C232.476,331.001 231.912,330.521 230.952,330.521C230.088,330.521 229.512,330.929 229.392,331.553L228.408,331.553C228.552,330.353 229.524,329.645 231,329.645C232.56,329.645 233.46,330.425 233.46,331.853L233.46,334.529C233.46,334.853 233.58,334.937 233.856,334.937ZM232.476,333.341L232.476,333.041L230.58,333.041C229.704,333.041 229.212,333.365 229.212,334.061C229.212,334.661 229.728,335.069 230.544,335.069C231.768,335.069 232.476,334.361 232.476,333.341Z" style="fill:rgb(37,37,37);"/>
        </g>
        <g transform="matrix(3.61608,0,0,3.61608,233.224,-533.887)">
            <path d="M194.663,335.837L191.975,335.837L191.975,327.437L194.663,327.437C197.291,327.437 198.887,329.117 198.887,331.637C198.887,334.145 197.291,335.837 194.663,335.837ZM193.019,328.397L193.019,334.877L194.663,334.877C196.703,334.877 197.819,333.593 197.819,331.637C197.819,329.669 196.703,328.397 194.663,328.397L193.019,328.397ZM200.567,328.685C200.207,328.685 199.931,328.421 199.931,328.049C199.931,327.677 200.207,327.413 200.567,327.413C200.927,327.413 201.203,327.677 201.203,328.049C201.203,328.421 200.927,328.685 200.567,328.685ZM200.063,335.837L200.063,329.717L201.047,329.717L201.047,335.837L200.063,335.837ZM205.223,329.717L205.499,329.717L205.499,330.677L205.007,330.677C203.723,330.677 203.375,331.745 203.375,332.717L203.375,335.837L202.391,335.837L202.391,329.717L203.243,329.717L203.375,330.641C203.663,330.173 204.131,329.717 205.223,329.717ZM208.823,335.909C206.987,335.909 205.787,334.649 205.787,332.777C205.787,330.917 206.963,329.645 208.691,329.645C210.419,329.645 211.547,330.737 211.595,332.549C211.595,332.681 211.583,332.825 211.571,332.969L206.819,332.969L206.819,333.053C206.855,334.217 207.587,335.033 208.751,335.033C209.615,335.033 210.287,334.577 210.491,333.785L211.487,333.785C211.247,335.009 210.239,335.909 208.823,335.909ZM206.879,332.153L210.539,332.153C210.443,331.097 209.723,330.509 208.703,330.509C207.803,330.509 206.975,331.157 206.879,332.153ZM215.471,335.909C213.683,335.909 212.507,334.697 212.507,332.789C212.507,330.917 213.719,329.645 215.495,329.645C216.995,329.645 217.943,330.485 218.195,331.829L217.163,331.829C216.983,331.013 216.383,330.521 215.483,330.521C214.307,330.521 213.515,331.457 213.515,332.789C213.515,334.121 214.307,335.033 215.483,335.033C216.359,335.033 216.959,334.529 217.151,333.749L218.195,333.749C217.955,335.069 216.959,335.909 215.471,335.909ZM222.023,335.909C220.235,335.909 219.059,334.697 219.059,332.789C219.059,330.917 220.271,329.645 222.047,329.645C223.547,329.645 224.495,330.485 224.747,331.829L223.715,331.829C223.535,331.013 222.935,330.521 222.035,330.521C220.859,330.521 220.067,331.457 220.067,332.789C220.067,334.121 220.859,335.033 222.035,335.033C222.911,335.033 223.511,334.529 223.703,333.749L224.747,333.749C224.507,335.069 223.511,335.909 222.023,335.909ZM226.331,328.685C225.971,328.685 225.695,328.421 225.695,328.049C225.695,327.677 225.971,327.413 226.331,327.413C226.691,327.413 226.967,327.677 226.967,328.049C226.967,328.421 226.691,328.685 226.331,328.685ZM225.827,335.837L225.827,329.717L226.811,329.717L226.811,335.837L225.827,335.837ZM230.788,329.38C231.597,329.38 232.28,329.649 232.839,330.188C233.397,330.727 233.677,331.52 233.677,332.567C233.677,333.579 233.431,334.415 232.939,335.075C232.446,335.735 231.683,336.065 230.647,336.065C229.784,336.065 229.099,335.773 228.591,335.189C228.083,334.605 227.829,333.821 227.829,332.837C227.829,331.782 228.097,330.942 228.632,330.317C229.167,329.692 229.886,329.38 230.788,329.38ZM230.747,335.157C231.446,335.157 231.926,334.892 232.186,334.363C232.445,333.834 232.575,333.245 232.575,332.597C232.575,332.011 232.481,331.534 232.294,331.167C231.997,330.589 231.485,330.3 230.759,330.3C230.114,330.3 229.646,330.546 229.353,331.038C229.06,331.53 228.913,332.124 228.913,332.819C228.913,333.487 229.06,334.044 229.353,334.489C229.646,334.934 230.11,335.157 230.747,335.157ZM232.013,327.036L230.448,328.729L229.64,328.729L230.712,327.036L232.013,327.036ZM237.829,329.645C239.209,329.645 240.301,330.401 240.301,332.429L240.301,335.837L239.317,335.837L239.317,332.489C239.317,331.217 238.729,330.545 237.661,330.545C236.509,330.545 235.813,331.397 235.813,332.777L235.813,335.837L234.829,335.837L234.829,329.717L235.681,329.717L235.813,330.545C236.173,330.077 236.797,329.645 237.829,329.645Z" style="fill:rgb(37,37,37);"/>
        </g>
        <g transform="matrix(3.61608,0,0,3.61608,666.909,-533.887)">
            <path d="M188.022,335.837L186.942,335.837L190.146,327.437L191.382,327.437L194.574,335.837L193.458,335.837L192.57,333.569L188.91,333.569L188.022,335.837ZM190.734,328.577L189.222,332.621L192.258,332.621L190.734,328.577ZM203.346,330.653L203.346,327.437L204.33,327.437L204.33,335.837L203.478,335.837L203.346,334.853C202.938,335.417 202.278,335.909 201.246,335.909C199.554,335.909 198.306,334.769 198.306,332.777C198.306,330.905 199.554,329.645 201.246,329.645C202.278,329.645 202.974,330.065 203.346,330.653ZM201.342,335.033C202.542,335.033 203.358,334.109 203.358,332.801C203.358,331.457 202.542,330.521 201.342,330.521C200.13,330.521 199.314,331.445 199.314,332.777C199.314,334.109 200.13,335.033 201.342,335.033ZM208.494,335.909C206.706,335.909 205.458,334.637 205.458,332.777C205.458,330.917 206.706,329.645 208.494,329.645C210.282,329.645 211.53,330.917 211.53,332.777C211.53,334.637 210.282,335.909 208.494,335.909ZM208.494,335.033C209.706,335.033 210.522,334.085 210.522,332.777C210.522,331.469 209.706,330.521 208.494,330.521C207.282,330.521 206.466,331.469 206.466,332.777C206.466,334.085 207.282,335.033 208.494,335.033ZM219.486,329.645C220.758,329.645 221.802,330.377 221.802,332.309L221.802,335.837L220.818,335.837L220.818,332.369C220.818,331.169 220.29,330.545 219.366,330.545C218.346,330.545 217.722,331.313 217.722,332.561L217.722,335.837L216.738,335.837L216.738,332.369C216.738,331.169 216.198,330.545 215.262,330.545C214.254,330.545 213.642,331.385 213.642,332.609L213.642,335.837L212.658,335.837L212.658,329.717L213.51,329.717L213.642,330.557C213.966,330.113 214.482,329.645 215.43,329.645C216.282,329.645 217.014,330.029 217.362,330.809C217.734,330.149 218.394,329.645 219.486,329.645ZM223.566,328.685C223.206,328.685 222.93,328.421 222.93,328.049C222.93,327.677 223.206,327.413 223.566,327.413C223.926,327.413 224.202,327.677 224.202,328.049C224.202,328.421 223.926,328.685 223.566,328.685ZM223.062,335.837L223.062,329.717L224.046,329.717L224.046,335.837L223.062,335.837ZM228.138,335.909C226.35,335.909 225.174,334.697 225.174,332.789C225.174,330.917 226.386,329.645 228.162,329.645C229.662,329.645 230.61,330.485 230.862,331.829L229.83,331.829C229.65,331.013 229.05,330.521 228.15,330.521C226.974,330.521 226.182,331.457 226.182,332.789C226.182,334.121 226.974,335.033 228.15,335.033C229.026,335.033 229.626,334.529 229.818,333.749L230.862,333.749C230.622,335.069 229.626,335.909 228.138,335.909ZM232.446,328.685C232.086,328.685 231.81,328.421 231.81,328.049C231.81,327.677 232.086,327.413 232.446,327.413C232.806,327.413 233.082,327.677 233.082,328.049C233.082,328.421 232.806,328.685 232.446,328.685ZM231.942,335.837L231.942,329.717L232.926,329.717L232.926,335.837L231.942,335.837ZM234.27,335.837L234.27,327.437L235.254,327.437L235.254,335.837L234.27,335.837ZM237.102,328.685C236.742,328.685 236.466,328.421 236.466,328.049C236.466,327.677 236.742,327.413 237.102,327.413C237.462,327.413 237.738,327.677 237.738,328.049C237.738,328.421 237.462,328.685 237.102,328.685ZM236.598,335.837L236.598,329.717L237.582,329.717L237.582,335.837L236.598,335.837ZM241.746,335.909C239.958,335.909 238.71,334.637 238.71,332.777C238.71,330.917 239.958,329.645 241.746,329.645C243.534,329.645 244.782,330.917 244.782,332.777C244.782,334.637 243.534,335.909 241.746,335.909ZM241.746,335.033C242.958,335.033 243.774,334.085 243.774,332.777C243.774,331.469 242.958,330.521 241.746,330.521C240.534,330.521 239.718,331.469 239.718,332.777C239.718,334.085 240.534,335.033 241.746,335.033Z" style="fill:rgb(37,37,37);"/>
        </g>
        <g transform="matrix(1.55281,-0.896518,0.896518,1.55281,166.029,547.659)">
            <path d="M220.23,40.991C222.906,39.446 226.202,39.446 228.878,40.991L259.519,58.682C262.195,60.227 263.843,63.081 263.843,66.171L263.843,101.552C263.843,104.642 262.195,107.497 259.519,109.041L228.878,126.732C226.202,128.277 222.906,128.277 220.23,126.732L189.589,109.041C186.913,107.497 185.265,104.642 185.265,101.552L185.265,66.171C185.265,63.081 186.913,60.227 189.589,58.682L220.23,40.991ZM224.554,67.034C215.266,67.034 207.726,74.574 207.726,83.862C207.726,93.149 215.266,100.69 224.554,100.69C233.842,100.69 241.382,93.149 241.382,83.862C241.382,74.574 233.842,67.034 224.554,67.034Z" style="fill:rgb(0,61,167);"/>
        </g>
        <g transform="matrix(2.96247,0,0,1.34329,302.307,276.893)">
            <path d="M378.63,205.708L366.027,205.708L366.027,133.682L386.382,91.58L407.771,133.682L407.771,205.708L395.168,205.708L395.168,169.62L378.63,169.62L378.63,205.708Z" style="fill:rgb(0,61,167);"/>
        </g>
        <g transform="matrix(1.68147,0,0,1.57843,364.107,228.521)">
            <path d="M407.771,127.933L407.771,205.708L366.027,205.708L366.027,127.933L386.382,108.583L407.771,127.933Z" style="fill:rgb(0,61,167);"/>
        </g>
    </g>
</svg>
