<?xml version="1.0" encoding="UTF-8" standalone="no"?>
<!DOCTYPE svg PUBLIC "-//W3C//DTD SVG 1.1//EN" "http://www.w3.org/Graphics/SVG/1.1/DTD/svg11.dtd">
<svg width="100%" height="100%" viewBox="0 0 1000 400" version="1.1" xmlns="http://www.w3.org/2000/svg" xmlns:xlink="http://www.w3.org/1999/xlink" xml:space="preserve" xmlns:serif="http://www.serif.com/" style="fill-rule:evenodd;clip-rule:evenodd;stroke-linejoin:round;stroke-miterlimit:2;">
    <g transform="matrix(0.763473,0,0,0.763473,-269.91,-220.704)">
        <g>
            <g transform="matrix(0.535041,0,0,0.535041,668.38,237.486)">
                <g transform="matrix(5.81443,0,0,5.81443,1437.8,424.728)">
                    <path d="M0,17.607C-6.788,17.607 -12.311,12.084 -12.311,5.296C-12.311,-1.492 -6.788,-7.014 0,-7.014C6.788,-7.014 12.311,-1.492 12.311,5.296C12.311,12.084 6.788,17.607 0,17.607M20.508,-13.172L9.637,-13.172L9.132,-15.192C8.687,-16.969 7.09,-18.215 5.259,-18.215L-5.258,-18.215C-7.09,-18.215 -8.687,-16.969 -9.131,-15.192L-9.637,-13.172L-20.508,-13.172C-24.494,-13.172 -27.725,-9.94 -27.725,-5.954L-27.725,16.547C-27.725,20.533 -24.494,23.764 -20.508,23.764L-8.236,23.764L-1.196,34.942C-0.641,35.822 0.642,35.822 1.196,34.942L8.236,23.764L20.508,23.764C24.494,23.764 27.725,20.533 27.725,16.547L27.725,-5.954C27.725,-9.94 24.494,-13.172 20.508,-13.172" style="fill:rgb(232,2,76);fill-rule:nonzero;"/>
                </g>
                <g transform="matrix(-5.81443,0,0,5.81443,1437.8,497.275)">
                    <path d="M0,-14.362C3.96,-14.362 7.181,-11.141 7.181,-7.181C7.181,-3.221 3.96,0 0,0C-3.96,0 -7.181,-3.221 -7.181,-7.181C-7.181,-11.141 -3.96,-14.362 0,-14.362" style="fill:rgb(142,19,55);fill-rule:nonzero;"/>
                </g>
            </g>
            <g transform="matrix(0.698136,0,0,0.698136,424.437,279.982)">
                <path id="XMLID_2_" d="M323,212.1L276.3,212.1L274.1,203.4C272.2,195.8 265.3,190.4 257.5,190.4L212.4,190.4C204.5,190.4 197.7,195.8 195.8,203.4L193.6,212.1L147,212.1C129.9,212.1 116,226 116,243.1L116,339.7C116,356.8 129.9,370.7 147,370.7L323,370.7C340.1,370.7 354,356.8 354,339.7L354,243.1C354,226 340.1,212.1 323,212.1ZM235,344.2C205.9,344.2 182.2,320.5 182.2,291.4C182.2,262.3 205.9,238.6 235,238.6C264.1,238.6 287.8,262.3 287.8,291.4C287.8,320.5 264.1,344.2 235,344.2Z" style="fill:rgb(142,21,55);fill-rule:nonzero;"/>
                <circle id="XMLID_1_" cx="235" cy="291.3" r="30.8" style="fill:rgb(142,21,55);"/>
            </g>
            <g transform="matrix(3.21666,0,0,3.21666,-81.6743,-75.9473)">
                <path d="M178.64,236.894L178.64,228.494L183.86,228.494L183.86,229.454L179.684,229.454L179.684,232.262L183.14,232.262L183.14,233.222L179.684,233.222L179.684,236.894L178.64,236.894ZM187.196,236.966C185.408,236.966 184.16,235.694 184.16,233.834C184.16,231.974 185.408,230.702 187.196,230.702C188.984,230.702 190.232,231.974 190.232,233.834C190.232,235.694 188.984,236.966 187.196,236.966ZM187.196,236.09C188.408,236.09 189.224,235.142 189.224,233.834C189.224,232.526 188.408,231.578 187.196,231.578C185.984,231.578 185.168,232.526 185.168,233.834C185.168,235.142 185.984,236.09 187.196,236.09ZM191.744,235.298L191.744,231.674L190.64,231.674L190.64,230.774L191.744,230.774L191.744,229.058L192.728,229.058L192.728,230.774L194.312,230.774L194.312,231.674L192.728,231.674L192.728,235.286C192.728,235.802 192.908,235.994 193.436,235.994L194.408,235.994L194.408,236.894L193.34,236.894C192.164,236.894 191.744,236.378 191.744,235.298ZM197.924,236.966C196.136,236.966 194.888,235.694 194.888,233.834C194.888,231.974 196.136,230.702 197.924,230.702C199.712,230.702 200.96,231.974 200.96,233.834C200.96,235.694 199.712,236.966 197.924,236.966ZM197.924,236.09C199.136,236.09 199.952,235.142 199.952,233.834C199.952,232.526 199.136,231.578 197.924,231.578C196.712,231.578 195.896,232.526 195.896,233.834C195.896,235.142 196.712,236.09 197.924,236.09ZM206.912,231.83L207.044,230.774L207.896,230.774L207.896,236.594C207.896,238.358 206.96,239.366 204.86,239.366C203.3,239.366 202.208,238.634 202.052,237.29L203.06,237.29C203.228,238.058 203.912,238.49 204.932,238.49C206.216,238.49 206.912,237.89 206.912,236.558L206.912,235.838C206.504,236.534 205.844,236.966 204.812,236.966C203.12,236.966 201.872,235.826 201.872,233.834C201.872,231.962 203.12,230.702 204.812,230.702C205.844,230.702 206.528,231.146 206.912,231.83ZM204.908,236.09C206.108,236.09 206.924,235.166 206.924,233.858C206.924,232.514 206.108,231.578 204.908,231.578C203.696,231.578 202.88,232.502 202.88,233.834C202.88,235.166 203.696,236.09 204.908,236.09ZM212.072,230.774L212.348,230.774L212.348,231.734L211.856,231.734C210.572,231.734 210.224,232.802 210.224,233.774L210.224,236.894L209.24,236.894L209.24,230.774L210.092,230.774L210.224,231.698C210.512,231.23 210.98,230.774 212.072,230.774ZM218.396,235.994L218.708,235.994L218.708,236.894L218.168,236.894C217.352,236.894 217.076,236.546 217.064,235.946C216.68,236.498 216.068,236.966 215.012,236.966C213.668,236.966 212.756,236.294 212.756,235.178C212.756,233.954 213.608,233.27 215.216,233.27L217.016,233.27L217.016,232.85C217.016,232.058 216.452,231.578 215.492,231.578C214.628,231.578 214.052,231.986 213.932,232.61L212.948,232.61C213.092,231.41 214.064,230.702 215.54,230.702C217.1,230.702 218,231.482 218,232.91L218,235.586C218,235.91 218.12,235.994 218.396,235.994ZM217.016,234.398L217.016,234.098L215.12,234.098C214.244,234.098 213.752,234.422 213.752,235.118C213.752,235.718 214.268,236.126 215.084,236.126C216.308,236.126 217.016,235.418 217.016,234.398ZM218.816,231.674L218.816,230.774L219.92,230.774L219.92,230.09C219.92,229.01 220.376,228.494 221.516,228.494L222.632,228.494L222.632,229.394L221.576,229.394C221.084,229.394 220.904,229.598 220.904,230.066L220.904,230.774L222.632,230.774L222.632,231.674L220.904,231.674L220.904,236.894L219.92,236.894L219.92,231.674L218.816,231.674ZM223.775,230.648L224.847,230.648L224.847,236.894L223.775,236.894L223.775,230.648ZM225.644,228.093L224.08,229.787L223.271,229.787L224.343,228.093L225.644,228.093ZM232.086,235.994L232.398,235.994L232.398,236.894L231.858,236.894C231.042,236.894 230.766,236.546 230.754,235.946C230.37,236.498 229.758,236.966 228.702,236.966C227.358,236.966 226.446,236.294 226.446,235.178C226.446,233.954 227.298,233.27 228.906,233.27L230.706,233.27L230.706,232.85C230.706,232.058 230.142,231.578 229.182,231.578C228.318,231.578 227.742,231.986 227.622,232.61L226.638,232.61C226.782,231.41 227.754,230.702 229.23,230.702C230.79,230.702 231.69,231.482 231.69,232.91L231.69,235.586C231.69,235.91 231.81,235.994 232.086,235.994ZM230.706,234.398L230.706,234.098L228.81,234.098C227.934,234.098 227.442,234.422 227.442,235.118C227.442,235.718 227.958,236.126 228.774,236.126C229.998,236.126 230.706,235.418 230.706,234.398ZM232.902,234.878L233.91,234.878C233.946,235.598 234.582,236.126 235.602,236.126C236.466,236.126 237.078,235.754 237.078,235.19C237.078,234.422 236.406,234.362 235.494,234.254C234.126,234.086 233.034,233.81 233.034,232.538C233.034,231.422 234.054,230.69 235.434,230.702C236.826,230.714 237.834,231.362 237.93,232.634L236.922,232.634C236.85,232.01 236.274,231.542 235.434,231.542C234.582,231.542 234.006,231.902 234.006,232.466C234.006,233.138 234.654,233.222 235.542,233.33C236.934,233.498 238.05,233.762 238.05,235.118C238.05,236.258 236.958,236.966 235.602,236.966C234.018,236.966 232.926,236.222 232.902,234.878Z" style="fill:rgb(29,37,44);"/>
            </g>
            <g transform="matrix(3.21666,0,0,3.21666,325.481,-75.9473)">
                <path d="M183.908,235.994L184.22,235.994L184.22,236.894L183.68,236.894C182.864,236.894 182.588,236.546 182.576,235.946C182.192,236.498 181.58,236.966 180.524,236.966C179.18,236.966 178.268,236.294 178.268,235.178C178.268,233.954 179.12,233.27 180.728,233.27L182.528,233.27L182.528,232.85C182.528,232.058 181.964,231.578 181.004,231.578C180.14,231.578 179.564,231.986 179.444,232.61L178.46,232.61C178.604,231.41 179.576,230.702 181.052,230.702C182.612,230.702 183.512,231.482 183.512,232.91L183.512,235.586C183.512,235.91 183.632,235.994 183.908,235.994ZM182.528,234.398L182.528,234.098L180.632,234.098C179.756,234.098 179.264,234.422 179.264,235.118C179.264,235.718 179.78,236.126 180.596,236.126C181.82,236.126 182.528,235.418 182.528,234.398ZM192.944,231.71L192.944,228.494L193.928,228.494L193.928,236.894L193.076,236.894L192.944,235.91C192.536,236.474 191.876,236.966 190.844,236.966C189.152,236.966 187.904,235.826 187.904,233.834C187.904,231.962 189.152,230.702 190.844,230.702C191.876,230.702 192.572,231.122 192.944,231.71ZM190.94,236.09C192.14,236.09 192.956,235.166 192.956,233.858C192.956,232.514 192.14,231.578 190.94,231.578C189.728,231.578 188.912,232.502 188.912,233.834C188.912,235.166 189.728,236.09 190.94,236.09ZM198.092,236.966C196.304,236.966 195.056,235.694 195.056,233.834C195.056,231.974 196.304,230.702 198.092,230.702C199.88,230.702 201.128,231.974 201.128,233.834C201.128,235.694 199.88,236.966 198.092,236.966ZM198.092,236.09C199.304,236.09 200.12,235.142 200.12,233.834C200.12,232.526 199.304,231.578 198.092,231.578C196.88,231.578 196.064,232.526 196.064,233.834C196.064,235.142 196.88,236.09 198.092,236.09ZM209.084,230.702C210.356,230.702 211.4,231.434 211.4,233.366L211.4,236.894L210.416,236.894L210.416,233.426C210.416,232.226 209.888,231.602 208.964,231.602C207.944,231.602 207.32,232.37 207.32,233.618L207.32,236.894L206.336,236.894L206.336,233.426C206.336,232.226 205.796,231.602 204.86,231.602C203.852,231.602 203.24,232.442 203.24,233.666L203.24,236.894L202.256,236.894L202.256,230.774L203.108,230.774L203.24,231.614C203.564,231.17 204.08,230.702 205.028,230.702C205.88,230.702 206.612,231.086 206.96,231.866C207.332,231.206 207.992,230.702 209.084,230.702ZM213.164,229.742C212.804,229.742 212.528,229.478 212.528,229.106C212.528,228.734 212.804,228.47 213.164,228.47C213.524,228.47 213.8,228.734 213.8,229.106C213.8,229.478 213.524,229.742 213.164,229.742ZM212.66,236.894L212.66,230.774L213.644,230.774L213.644,236.894L212.66,236.894ZM217.736,236.966C215.948,236.966 214.772,235.754 214.772,233.846C214.772,231.974 215.984,230.702 217.76,230.702C219.26,230.702 220.208,231.542 220.46,232.886L219.428,232.886C219.248,232.07 218.648,231.578 217.748,231.578C216.572,231.578 215.78,232.514 215.78,233.846C215.78,235.178 216.572,236.09 217.748,236.09C218.624,236.09 219.224,235.586 219.416,234.806L220.46,234.806C220.22,236.126 219.224,236.966 217.736,236.966ZM222.044,229.742C221.684,229.742 221.408,229.478 221.408,229.106C221.408,228.734 221.684,228.47 222.044,228.47C222.404,228.47 222.68,228.734 222.68,229.106C222.68,229.478 222.404,229.742 222.044,229.742ZM221.54,236.894L221.54,230.774L222.524,230.774L222.524,236.894L221.54,236.894ZM223.868,236.894L223.868,228.494L224.852,228.494L224.852,236.894L223.868,236.894ZM226.7,229.742C226.34,229.742 226.064,229.478 226.064,229.106C226.064,228.734 226.34,228.47 226.7,228.47C227.06,228.47 227.336,228.734 227.336,229.106C227.336,229.478 227.06,229.742 226.7,229.742ZM226.196,236.894L226.196,230.774L227.18,230.774L227.18,236.894L226.196,236.894ZM231.344,236.966C229.556,236.966 228.308,235.694 228.308,233.834C228.308,231.974 229.556,230.702 231.344,230.702C233.132,230.702 234.38,231.974 234.38,233.834C234.38,235.694 233.132,236.966 231.344,236.966ZM231.344,236.09C232.556,236.09 233.372,235.142 233.372,233.834C233.372,232.526 232.556,231.578 231.344,231.578C230.132,231.578 229.316,232.526 229.316,233.834C229.316,235.142 230.132,236.09 231.344,236.09ZM241.472,236.966C239.636,236.966 238.436,235.706 238.436,233.834C238.436,231.974 239.612,230.702 241.34,230.702C243.068,230.702 244.196,231.794 244.244,233.606C244.244,233.738 244.232,233.882 244.22,234.026L239.468,234.026L239.468,234.11C239.504,235.274 240.236,236.09 241.4,236.09C242.264,236.09 242.936,235.634 243.14,234.842L244.136,234.842C243.896,236.066 242.888,236.966 241.472,236.966ZM239.528,233.21L243.188,233.21C243.092,232.154 242.372,231.566 241.352,231.566C240.452,231.566 239.624,232.214 239.528,233.21ZM245.096,234.878L246.104,234.878C246.14,235.598 246.776,236.126 247.796,236.126C248.66,236.126 249.272,235.754 249.272,235.19C249.272,234.422 248.6,234.362 247.688,234.254C246.32,234.086 245.228,233.81 245.228,232.538C245.228,231.422 246.248,230.69 247.628,230.702C249.02,230.714 250.028,231.362 250.124,232.634L249.116,232.634C249.044,232.01 248.468,231.542 247.628,231.542C246.776,231.542 246.2,231.902 246.2,232.466C246.2,233.138 246.848,233.222 247.736,233.33C249.128,233.498 250.244,233.762 250.244,235.118C250.244,236.258 249.152,236.966 247.796,236.966C246.212,236.966 245.12,236.222 245.096,234.878Z" style="fill:rgb(29,37,44);"/>
            </g>
            <g transform="matrix(3.21666,0,0,3.21666,747.878,-75.9473)">
                <path d="M188.93,236.894L188.93,228.494L194.15,228.494L194.15,229.454L189.974,229.454L189.974,232.262L193.43,232.262L193.43,233.222L189.974,233.222L189.974,236.894L188.93,236.894ZM197.486,236.966C195.698,236.966 194.45,235.694 194.45,233.834C194.45,231.974 195.698,230.702 197.486,230.702C199.274,230.702 200.522,231.974 200.522,233.834C200.522,235.694 199.274,236.966 197.486,236.966ZM197.486,236.09C198.698,236.09 199.514,235.142 199.514,233.834C199.514,232.526 198.698,231.578 197.486,231.578C196.274,231.578 195.458,232.526 195.458,233.834C195.458,235.142 196.274,236.09 197.486,236.09ZM202.034,235.298L202.034,231.674L200.93,231.674L200.93,230.774L202.034,230.774L202.034,229.058L203.018,229.058L203.018,230.774L204.602,230.774L204.602,231.674L203.018,231.674L203.018,235.286C203.018,235.802 203.198,235.994 203.726,235.994L204.698,235.994L204.698,236.894L203.63,236.894C202.454,236.894 202.034,236.378 202.034,235.298ZM208.214,236.966C206.426,236.966 205.178,235.694 205.178,233.834C205.178,231.974 206.426,230.702 208.214,230.702C210.002,230.702 211.25,231.974 211.25,233.834C211.25,235.694 210.002,236.966 208.214,236.966ZM208.214,236.09C209.426,236.09 210.242,235.142 210.242,233.834C210.242,232.526 209.426,231.578 208.214,231.578C207.002,231.578 206.186,232.526 206.186,233.834C206.186,235.142 207.002,236.09 208.214,236.09ZM212.882,229.742C212.522,229.742 212.246,229.478 212.246,229.106C212.246,228.734 212.522,228.47 212.882,228.47C213.242,228.47 213.518,228.734 213.518,229.106C213.518,229.478 213.242,229.742 212.882,229.742ZM212.378,236.894L212.378,230.774L213.362,230.774L213.362,236.894L212.378,236.894ZM219.53,231.71L219.53,228.494L220.514,228.494L220.514,236.894L219.662,236.894L219.53,235.91C219.122,236.474 218.462,236.966 217.43,236.966C215.738,236.966 214.49,235.826 214.49,233.834C214.49,231.962 215.738,230.702 217.43,230.702C218.462,230.702 219.158,231.122 219.53,231.71ZM217.526,236.09C218.726,236.09 219.542,235.166 219.542,233.858C219.542,232.514 218.726,231.578 217.526,231.578C216.314,231.578 215.498,232.502 215.498,233.834C215.498,235.166 216.314,236.09 217.526,236.09ZM224.678,236.966C222.842,236.966 221.642,235.706 221.642,233.834C221.642,231.974 222.818,230.702 224.546,230.702C226.274,230.702 227.402,231.794 227.45,233.606C227.45,233.738 227.438,233.882 227.426,234.026L222.674,234.026L222.674,234.11C222.71,235.274 223.442,236.09 224.606,236.09C225.47,236.09 226.142,235.634 226.346,234.842L227.342,234.842C227.102,236.066 226.094,236.966 224.678,236.966ZM222.734,233.21L226.394,233.21C226.298,232.154 225.578,231.566 224.558,231.566C223.658,231.566 222.83,232.214 222.734,233.21ZM233.99,235.994L234.302,235.994L234.302,236.894L233.762,236.894C232.946,236.894 232.67,236.546 232.658,235.946C232.274,236.498 231.662,236.966 230.606,236.966C229.262,236.966 228.35,236.294 228.35,235.178C228.35,233.954 229.202,233.27 230.81,233.27L232.61,233.27L232.61,232.85C232.61,232.058 232.046,231.578 231.086,231.578C230.222,231.578 229.646,231.986 229.526,232.61L228.542,232.61C228.686,231.41 229.658,230.702 231.134,230.702C232.694,230.702 233.594,231.482 233.594,232.91L233.594,235.586C233.594,235.91 233.714,235.994 233.99,235.994ZM232.61,234.398L232.61,234.098L230.714,234.098C229.838,234.098 229.346,234.422 229.346,235.118C229.346,235.718 229.862,236.126 230.678,236.126C231.902,236.126 232.61,235.418 232.61,234.398ZM234.806,234.878L235.814,234.878C235.85,235.598 236.486,236.126 237.506,236.126C238.37,236.126 238.982,235.754 238.982,235.19C238.982,234.422 238.31,234.362 237.398,234.254C236.03,234.086 234.938,233.81 234.938,232.538C234.938,231.422 235.958,230.69 237.338,230.702C238.73,230.714 239.738,231.362 239.834,232.634L238.826,232.634C238.754,232.01 238.178,231.542 237.338,231.542C236.486,231.542 235.91,231.902 235.91,232.466C235.91,233.138 236.558,233.222 237.446,233.33C238.838,233.498 239.954,233.762 239.954,235.118C239.954,236.258 238.862,236.966 237.506,236.966C235.922,236.966 234.83,236.222 234.806,234.878Z" style="fill:rgb(29,37,44);"/>
            </g>
            <g transform="matrix(0.666557,0,0,0.666557,513.884,293.353)">
                <path d="M751.2,172.1C702.7,172.2 663.4,211.5 663.4,260C663.4,328.9 729,406.7 746.9,421.7C749.4,423.8 753.4,423.8 755.8,421.7C773.4,407 839.2,329.3 839.2,264.7C839.2,214.6 801.3,172 751.2,172.1ZM751.4,313.8C724,313.8 701.9,291.6 701.9,264.3C701.9,236.9 724.1,214.8 751.4,214.8C778.8,214.8 800.9,237 800.9,264.3C800.9,291.7 778.7,313.8 751.4,313.8Z" style="fill:rgb(142,21,55);fill-rule:nonzero;"/>
            </g>
            <g transform="matrix(0.593456,0,0,0.593456,598.1,303.157)">
                <path d="M1077.9,270.8L1077.9,290.8L1003.8,290.8L1003.8,270.8L1077.9,270.8ZM1077.9,304.5L1077.9,324.5L1003.8,324.5L1003.8,304.5L1077.9,304.5Z" style="fill:rgb(0,42,58);fill-rule:nonzero;"/>
            </g>
            <g transform="matrix(0.593456,0,0,0.593456,509.087,303.157)">
                <path d="M544.3,307.8L521.3,307.8L521.3,331.4L499.9,331.4L499.9,307.8L476.9,307.8L476.9,287.6L499.9,287.6L499.9,263.9L521.3,263.9L521.3,287.6L544.3,287.6L544.3,307.8Z" style="fill:rgb(0,42,58);fill-rule:nonzero;"/>
            </g>
        </g>
    </g>
</svg>
