<?xml version="1.0" encoding="UTF-8" standalone="no"?>
<!DOCTYPE svg PUBLIC "-//W3C//DTD SVG 1.1//EN" "http://www.w3.org/Graphics/SVG/1.1/DTD/svg11.dtd">
<svg width="100%" height="100%" viewBox="0 0 1000 400" version="1.1" xmlns="http://www.w3.org/2000/svg" xmlns:xlink="http://www.w3.org/1999/xlink" xml:space="preserve" xmlns:serif="http://www.serif.com/" style="fill-rule:evenodd;clip-rule:evenodd;stroke-linejoin:round;stroke-miterlimit:2;">
    <g transform="matrix(0.716608,0,0,0.716608,-227.119,-196.81)">
        <g transform="matrix(1.20786,1.20786,-1.20786,1.20786,880.666,164.063)">
            <path d="M219.066,108.125L219.066,135.689L139.159,135.689L139.159,55.781L166.722,55.781L166.722,28.218L246.63,28.218L246.63,108.125L219.066,108.125ZM166.722,66.401L149.779,66.401L149.779,125.069L208.446,125.069L208.446,108.125L166.722,108.125L166.722,66.401ZM219.066,97.505L236.01,97.505L236.01,38.838L177.342,38.838L177.343,55.781L219.066,55.781L219.066,97.505ZM208.446,97.505L208.446,66.401L177.343,66.401L177.343,97.505L208.446,97.505Z" style="fill:rgb(40,183,145);"/>
        </g>
        <g transform="matrix(3.46425,0,0,3.46425,-136.328,-471.473)">
            <path d="M313.253,334.838L314.297,334.838L314.297,343.238L313.253,343.238L313.253,334.838ZM318.785,337.046C319.529,337.046 320.127,337.27 320.579,337.718C321.031,338.166 321.257,338.87 321.257,339.83L321.257,343.238L320.273,343.238L320.273,339.89C320.273,339.258 320.131,338.776 319.847,338.444C319.563,338.112 319.153,337.946 318.617,337.946C318.041,337.946 317.589,338.146 317.261,338.546C316.933,338.946 316.769,339.49 316.769,340.178L316.769,343.238L315.785,343.238L315.785,337.118L316.637,337.118L316.769,337.946C317.233,337.346 317.905,337.046 318.785,337.046ZM322.925,338.018L321.821,338.018L321.821,337.118L322.925,337.118L322.925,335.402L323.909,335.402L323.909,337.118L325.457,337.118L325.457,338.018L323.909,338.018L323.909,341.63C323.909,341.886 323.959,342.068 324.059,342.176C324.159,342.284 324.333,342.338 324.581,342.338L325.649,342.338L325.649,343.238L324.521,343.238C323.945,343.238 323.535,343.11 323.291,342.854C323.047,342.598 322.925,342.194 322.925,341.642L322.925,338.018ZM325.973,340.178C325.973,339.554 326.095,339.006 326.339,338.534C326.583,338.062 326.925,337.696 327.365,337.436C327.805,337.176 328.309,337.046 328.877,337.046C329.437,337.046 329.933,337.162 330.365,337.394C330.797,337.626 331.137,337.962 331.385,338.402C331.633,338.842 331.765,339.358 331.781,339.95C331.781,340.038 331.773,340.178 331.757,340.37L327.005,340.37L327.005,340.454C327.021,341.054 327.205,341.534 327.557,341.894C327.909,342.254 328.369,342.434 328.937,342.434C329.377,342.434 329.751,342.324 330.059,342.104C330.367,341.884 330.573,341.578 330.677,341.186L331.673,341.186C331.553,341.81 331.253,342.32 330.773,342.716C330.293,343.112 329.705,343.31 329.009,343.31C328.401,343.31 327.869,343.18 327.413,342.92C326.957,342.66 326.603,342.292 326.351,341.816C326.099,341.34 325.973,340.794 325.973,340.178ZM330.761,339.554C330.713,339.034 330.519,338.63 330.179,338.342C329.839,338.054 329.409,337.91 328.889,337.91C328.425,337.91 328.017,338.062 327.665,338.366C327.313,338.67 327.113,339.066 327.065,339.554L330.761,339.554ZM338.717,337.118L338.717,342.938C338.717,344.786 337.705,345.71 335.681,345.71C334.889,345.71 334.243,345.53 333.743,345.17C333.243,344.81 332.953,344.298 332.873,343.634L333.881,343.634C333.961,344.018 334.165,344.314 334.493,344.522C334.821,344.73 335.241,344.834 335.753,344.834C337.073,344.834 337.733,344.19 337.733,342.902L337.733,342.182C337.293,342.934 336.593,343.31 335.633,343.31C335.065,343.31 334.559,343.186 334.115,342.938C333.671,342.69 333.323,342.33 333.071,341.858C332.819,341.386 332.693,340.826 332.693,340.178C332.693,339.562 332.819,339.018 333.071,338.546C333.323,338.074 333.673,337.706 334.121,337.442C334.569,337.178 335.073,337.046 335.633,337.046C336.129,337.046 336.553,337.144 336.905,337.34C337.257,337.536 337.533,337.814 337.733,338.174L337.865,337.118L338.717,337.118ZM335.729,342.434C336.121,342.434 336.471,342.34 336.779,342.152C337.087,341.964 337.325,341.7 337.493,341.36C337.661,341.02 337.745,340.634 337.745,340.202C337.745,339.762 337.661,339.368 337.493,339.02C337.325,338.672 337.087,338.402 336.779,338.21C336.471,338.018 336.121,337.922 335.729,337.922C335.121,337.922 334.631,338.132 334.259,338.552C333.887,338.972 333.701,339.514 333.701,340.178C333.701,340.842 333.887,341.384 334.259,341.804C334.631,342.224 335.121,342.434 335.729,342.434ZM343.169,337.118L343.169,338.078L342.677,338.078C342.093,338.078 341.675,338.274 341.423,338.666C341.171,339.058 341.045,339.542 341.045,340.118L341.045,343.238L340.061,343.238L340.061,337.118L340.913,337.118L341.045,338.042C341.221,337.762 341.449,337.538 341.729,337.37C342.009,337.202 342.397,337.118 342.893,337.118L343.169,337.118ZM349.505,342.338L349.505,343.238L348.965,343.238C348.573,343.238 348.293,343.158 348.125,342.998C347.957,342.838 347.869,342.602 347.861,342.29C347.389,342.97 346.705,343.31 345.809,343.31C345.129,343.31 344.583,343.15 344.171,342.83C343.759,342.51 343.553,342.074 343.553,341.522C343.553,340.906 343.763,340.434 344.183,340.106C344.603,339.778 345.213,339.614 346.013,339.614L347.813,339.614L347.813,339.194C347.813,338.794 347.679,338.482 347.411,338.258C347.143,338.034 346.769,337.922 346.289,337.922C345.865,337.922 345.515,338.016 345.239,338.204C344.963,338.392 344.793,338.642 344.729,338.954L343.745,338.954C343.817,338.354 344.083,337.886 344.543,337.55C345.003,337.214 345.601,337.046 346.337,337.046C347.121,337.046 347.727,337.236 348.155,337.616C348.583,337.996 348.797,338.542 348.797,339.254L348.797,341.894C348.797,342.19 348.933,342.338 349.205,342.338L349.505,342.338ZM347.813,340.442L345.917,340.442C345.005,340.442 344.549,340.782 344.549,341.462C344.549,341.766 344.669,342.01 344.909,342.194C345.149,342.378 345.473,342.47 345.881,342.47C346.481,342.47 346.953,342.312 347.297,341.996C347.641,341.68 347.813,341.262 347.813,340.742L347.813,340.442ZM350.261,334.838L351.245,334.838L351.245,343.238L350.261,343.238L350.261,334.838Z" style="fill:rgb(50,62,72);"/>
        </g>
        <g transform="matrix(-0.77491,0.480636,-0.77491,-0.480636,1679.67,419.294)">
            <path d="M219.609,136.231C216.285,139.555 212.207,141.48 208.822,141.482C208.814,141.482 139.535,141.482 139.535,141.482C135.756,141.482 133.365,139.092 133.365,135.313C133.365,135.313 133.365,66.033 133.365,66.025C133.368,62.641 135.292,58.563 138.616,55.239C138.616,55.239 259.016,-65.161 259.024,-65.169C260.689,-66.834 262.522,-68.131 264.351,-69.019C266.18,-69.912 268.055,-70.42 269.811,-70.42C269.819,-70.42 339.098,-70.42 339.098,-70.42C340.94,-70.421 342.499,-69.853 343.6,-68.753C344.701,-67.652 345.269,-66.092 345.268,-64.25C345.268,-64.25 345.268,5.029 345.268,5.037C345.268,6.792 344.759,8.668 343.867,10.496C342.979,12.325 341.682,14.158 340.017,15.823C340.009,15.831 219.609,136.231 219.609,136.231ZM167.278,49.988L213.155,49.988L311.355,-48.213L265.478,-48.213L167.278,49.988ZM224.86,61.693L224.86,107.57L323.06,9.369L323.06,-36.508L224.86,61.693ZM202.653,72.195L155.573,72.195L155.573,119.275L202.653,119.275L202.653,72.195Z" style="fill:rgb(40,183,145);"/>
        </g>
        <g transform="matrix(3.46425,0,0,3.46425,315.92,-471.473)">
            <path d="M299.975,334.838L299.975,343.238L299.123,343.238L298.991,342.254C298.479,342.958 297.779,343.31 296.891,343.31C296.323,343.31 295.817,343.186 295.373,342.938C294.929,342.69 294.581,342.33 294.329,341.858C294.077,341.386 293.951,340.826 293.951,340.178C293.951,339.562 294.077,339.018 294.329,338.546C294.581,338.074 294.931,337.706 295.379,337.442C295.827,337.178 296.331,337.046 296.891,337.046C297.387,337.046 297.811,337.136 298.163,337.316C298.515,337.496 298.791,337.742 298.991,338.054L298.991,334.838L299.975,334.838ZM296.987,342.434C297.379,342.434 297.729,342.34 298.037,342.152C298.345,341.964 298.583,341.7 298.751,341.36C298.919,341.02 299.003,340.634 299.003,340.202C299.003,339.762 298.919,339.368 298.751,339.02C298.583,338.672 298.345,338.402 298.037,338.21C297.729,338.018 297.379,337.922 296.987,337.922C296.379,337.922 295.889,338.132 295.517,338.552C295.145,338.972 294.959,339.514 294.959,340.178C294.959,340.842 295.145,341.384 295.517,341.804C295.889,342.224 296.379,342.434 296.987,342.434ZM301.103,340.178C301.103,339.554 301.225,339.006 301.469,338.534C301.713,338.062 302.055,337.696 302.495,337.436C302.935,337.176 303.439,337.046 304.007,337.046C304.567,337.046 305.063,337.162 305.495,337.394C305.927,337.626 306.267,337.962 306.515,338.402C306.763,338.842 306.895,339.358 306.911,339.95C306.911,340.038 306.903,340.178 306.887,340.37L302.135,340.37L302.135,340.454C302.151,341.054 302.335,341.534 302.687,341.894C303.039,342.254 303.499,342.434 304.067,342.434C304.507,342.434 304.881,342.324 305.189,342.104C305.497,341.884 305.703,341.578 305.807,341.186L306.803,341.186C306.683,341.81 306.383,342.32 305.903,342.716C305.423,343.112 304.835,343.31 304.139,343.31C303.531,343.31 302.999,343.18 302.543,342.92C302.087,342.66 301.733,342.292 301.481,341.816C301.229,341.34 301.103,340.794 301.103,340.178ZM305.891,339.554C305.843,339.034 305.649,338.63 305.309,338.342C304.969,338.054 304.539,337.91 304.019,337.91C303.555,337.91 303.147,338.062 302.795,338.366C302.443,338.67 302.243,339.066 302.195,339.554L305.891,339.554ZM311.327,334.838L316.679,334.838L316.679,335.798L312.371,335.798L312.371,338.486L315.959,338.486L315.959,339.446L312.371,339.446L312.371,342.278L316.835,342.278L316.835,343.238L311.327,343.238L311.327,334.838ZM318.635,341.222C318.651,341.59 318.813,341.89 319.121,342.122C319.429,342.354 319.827,342.47 320.315,342.47C320.747,342.47 321.097,342.384 321.365,342.212C321.633,342.04 321.767,341.814 321.767,341.534C321.767,341.294 321.703,341.11 321.575,340.982C321.447,340.854 321.281,340.766 321.077,340.718C320.873,340.67 320.583,340.622 320.207,340.574C319.679,340.51 319.247,340.426 318.911,340.322C318.575,340.218 318.303,340.052 318.095,339.824C317.887,339.596 317.783,339.282 317.783,338.882C317.783,338.522 317.885,338.202 318.089,337.922C318.293,337.642 318.571,337.424 318.923,337.268C319.275,337.112 319.671,337.034 320.111,337.034C320.831,337.034 321.417,337.202 321.869,337.538C322.321,337.874 322.571,338.354 322.619,338.978L321.635,338.978C321.595,338.658 321.439,338.394 321.167,338.186C320.895,337.978 320.555,337.874 320.147,337.874C319.731,337.874 319.395,337.96 319.139,338.132C318.883,338.304 318.755,338.53 318.755,338.81C318.755,339.018 318.815,339.178 318.935,339.29C319.055,339.402 319.209,339.478 319.397,339.518C319.585,339.558 319.871,339.602 320.255,339.65C320.791,339.714 321.233,339.802 321.581,339.914C321.929,340.026 322.209,340.206 322.421,340.454C322.633,340.702 322.739,341.038 322.739,341.462C322.739,341.83 322.631,342.154 322.415,342.434C322.199,342.714 321.907,342.93 321.539,343.082C321.171,343.234 320.763,343.31 320.315,343.31C319.515,343.31 318.873,343.126 318.389,342.758C317.905,342.39 317.659,341.878 317.651,341.222L318.635,341.222ZM324.263,338.018L323.159,338.018L323.159,337.118L324.263,337.118L324.263,335.402L325.247,335.402L325.247,337.118L326.795,337.118L326.795,338.018L325.247,338.018L325.247,341.63C325.247,341.886 325.297,342.068 325.397,342.176C325.497,342.284 325.671,342.338 325.919,342.338L326.987,342.338L326.987,343.238L325.859,343.238C325.283,343.238 324.873,343.11 324.629,342.854C324.385,342.598 324.263,342.194 324.263,341.642L324.263,338.018ZM330.791,337.118L330.791,338.078L330.299,338.078C329.715,338.078 329.297,338.274 329.045,338.666C328.793,339.058 328.667,339.542 328.667,340.118L328.667,343.238L327.683,343.238L327.683,337.118L328.535,337.118L328.667,338.042C328.843,337.762 329.071,337.538 329.351,337.37C329.631,337.202 330.019,337.118 330.515,337.118L330.791,337.118ZM336.959,337.118L336.959,343.238L336.107,343.238L335.975,342.422C335.511,343.014 334.859,343.31 334.019,343.31C333.291,343.31 332.707,343.086 332.267,342.638C331.827,342.19 331.607,341.486 331.607,340.526L331.607,337.118L332.591,337.118L332.591,340.466C332.591,341.098 332.729,341.58 333.005,341.912C333.281,342.244 333.675,342.41 334.187,342.41C334.747,342.41 335.185,342.21 335.501,341.81C335.817,341.41 335.975,340.866 335.975,340.178L335.975,337.118L336.959,337.118ZM343.763,341.126C343.635,341.806 343.335,342.34 342.863,342.728C342.391,343.116 341.791,343.31 341.063,343.31C340.471,343.31 339.951,343.178 339.503,342.914C339.055,342.65 338.707,342.28 338.459,341.804C338.211,341.328 338.087,340.782 338.087,340.166C338.087,339.55 338.213,339.006 338.465,338.534C338.717,338.062 339.071,337.696 339.527,337.436C339.983,337.176 340.507,337.046 341.099,337.046C341.819,337.046 342.413,337.238 342.881,337.622C343.349,338.006 343.643,338.534 343.763,339.206L342.767,339.206C342.671,338.814 342.471,338.502 342.167,338.27C341.863,338.038 341.495,337.922 341.063,337.922C340.479,337.922 340.005,338.13 339.641,338.546C339.277,338.962 339.095,339.502 339.095,340.166C339.095,340.838 339.277,341.384 339.641,341.804C340.005,342.224 340.479,342.434 341.063,342.434C341.511,342.434 341.887,342.318 342.191,342.086C342.495,341.854 342.691,341.534 342.779,341.126L343.763,341.126ZM345.311,338.018L344.207,338.018L344.207,337.118L345.311,337.118L345.311,335.402L346.295,335.402L346.295,337.118L347.843,337.118L347.843,338.018L346.295,338.018L346.295,341.63C346.295,341.886 346.345,342.068 346.445,342.176C346.545,342.284 346.719,342.338 346.967,342.338L348.035,342.338L348.035,343.238L346.907,343.238C346.331,343.238 345.921,343.11 345.677,342.854C345.433,342.598 345.311,342.194 345.311,341.642L345.311,338.018ZM353.999,337.118L353.999,343.238L353.147,343.238L353.015,342.422C352.551,343.014 351.899,343.31 351.059,343.31C350.331,343.31 349.747,343.086 349.307,342.638C348.867,342.19 348.647,341.486 348.647,340.526L348.647,337.118L349.631,337.118L349.631,340.466C349.631,341.098 349.769,341.58 350.045,341.912C350.321,342.244 350.715,342.41 351.227,342.41C351.787,342.41 352.225,342.21 352.541,341.81C352.857,341.41 353.015,340.866 353.015,340.178L353.015,337.118L353.999,337.118ZM358.451,337.118L358.451,338.078L357.959,338.078C357.375,338.078 356.957,338.274 356.705,338.666C356.453,339.058 356.327,339.542 356.327,340.118L356.327,343.238L355.343,343.238L355.343,337.118L356.195,337.118L356.327,338.042C356.503,337.762 356.731,337.538 357.011,337.37C357.291,337.202 357.679,337.118 358.175,337.118L358.451,337.118ZM364.787,342.338L364.787,343.238L364.247,343.238C363.855,343.238 363.575,343.158 363.407,342.998C363.239,342.838 363.151,342.602 363.143,342.29C362.671,342.97 361.987,343.31 361.091,343.31C360.411,343.31 359.865,343.15 359.453,342.83C359.041,342.51 358.835,342.074 358.835,341.522C358.835,340.906 359.045,340.434 359.465,340.106C359.885,339.778 360.495,339.614 361.295,339.614L363.095,339.614L363.095,339.194C363.095,338.794 362.961,338.482 362.693,338.258C362.425,338.034 362.051,337.922 361.571,337.922C361.147,337.922 360.797,338.016 360.521,338.204C360.245,338.392 360.075,338.642 360.011,338.954L359.027,338.954C359.099,338.354 359.365,337.886 359.825,337.55C360.285,337.214 360.883,337.046 361.619,337.046C362.403,337.046 363.009,337.236 363.437,337.616C363.865,337.996 364.079,338.542 364.079,339.254L364.079,341.894C364.079,342.19 364.215,342.338 364.487,342.338L364.787,342.338ZM363.095,340.442L361.199,340.442C360.287,340.442 359.831,340.782 359.831,341.462C359.831,341.766 359.951,342.01 360.191,342.194C360.431,342.378 360.755,342.47 361.163,342.47C361.763,342.47 362.235,342.312 362.579,341.996C362.923,341.68 363.095,341.262 363.095,340.742L363.095,340.442ZM366.311,341.222C366.327,341.59 366.489,341.89 366.797,342.122C367.105,342.354 367.503,342.47 367.991,342.47C368.423,342.47 368.773,342.384 369.041,342.212C369.309,342.04 369.443,341.814 369.443,341.534C369.443,341.294 369.379,341.11 369.251,340.982C369.123,340.854 368.957,340.766 368.753,340.718C368.549,340.67 368.259,340.622 367.883,340.574C367.355,340.51 366.923,340.426 366.587,340.322C366.251,340.218 365.979,340.052 365.771,339.824C365.563,339.596 365.459,339.282 365.459,338.882C365.459,338.522 365.561,338.202 365.765,337.922C365.969,337.642 366.247,337.424 366.599,337.268C366.951,337.112 367.347,337.034 367.787,337.034C368.507,337.034 369.093,337.202 369.545,337.538C369.997,337.874 370.247,338.354 370.295,338.978L369.311,338.978C369.271,338.658 369.115,338.394 368.843,338.186C368.571,337.978 368.231,337.874 367.823,337.874C367.407,337.874 367.071,337.96 366.815,338.132C366.559,338.304 366.431,338.53 366.431,338.81C366.431,339.018 366.491,339.178 366.611,339.29C366.731,339.402 366.885,339.478 367.073,339.518C367.261,339.558 367.547,339.602 367.931,339.65C368.467,339.714 368.909,339.802 369.257,339.914C369.605,340.026 369.885,340.206 370.097,340.454C370.309,340.702 370.415,341.038 370.415,341.462C370.415,341.83 370.307,342.154 370.091,342.434C369.875,342.714 369.583,342.93 369.215,343.082C368.847,343.234 368.439,343.31 367.991,343.31C367.191,343.31 366.549,343.126 366.065,342.758C365.581,342.39 365.335,341.878 365.327,341.222L366.311,341.222Z" style="fill:rgb(50,62,72);"/>
        </g>
        <g transform="matrix(3.46425,0,0,3.46425,-604.806,-471.473)">
            <path d="M318.629,334.838L318.629,339.71C318.629,341.47 319.345,342.35 320.777,342.35C322.225,342.35 322.949,341.47 322.949,339.71L322.949,334.838L323.993,334.838L323.993,339.65C323.993,340.85 323.719,341.76 323.171,342.38C322.623,343 321.825,343.31 320.777,343.31C319.729,343.31 318.935,343 318.395,342.38C317.855,341.76 317.585,340.85 317.585,339.65L317.585,334.838L318.629,334.838ZM328.433,337.046C329.177,337.046 329.775,337.27 330.227,337.718C330.679,338.166 330.905,338.87 330.905,339.83L330.905,343.238L329.921,343.238L329.921,339.89C329.921,339.258 329.779,338.776 329.495,338.444C329.211,338.112 328.801,337.946 328.265,337.946C327.689,337.946 327.237,338.146 326.909,338.546C326.581,338.946 326.417,339.49 326.417,340.178L326.417,343.238L325.433,343.238L325.433,337.118L326.285,337.118L326.417,337.946C326.881,337.346 327.553,337.046 328.433,337.046ZM332.657,334.754C332.841,334.754 332.993,334.814 333.113,334.934C333.233,335.054 333.293,335.206 333.293,335.39C333.293,335.574 333.233,335.726 333.113,335.846C332.993,335.966 332.841,336.026 332.657,336.026C332.473,336.026 332.321,335.966 332.201,335.846C332.081,335.726 332.021,335.574 332.021,335.39C332.021,335.206 332.081,335.054 332.201,334.934C332.321,334.814 332.473,334.754 332.657,334.754ZM332.165,337.118L333.149,337.118L333.149,343.238L332.165,343.238L332.165,337.118ZM337.313,343.31C336.721,343.31 336.195,343.178 335.735,342.914C335.275,342.65 334.917,342.282 334.661,341.81C334.405,341.338 334.277,340.794 334.277,340.178C334.277,339.562 334.405,339.018 334.661,338.546C334.917,338.074 335.275,337.706 335.735,337.442C336.195,337.178 336.721,337.046 337.313,337.046C337.905,337.046 338.431,337.178 338.891,337.442C339.351,337.706 339.709,338.074 339.965,338.546C340.221,339.018 340.349,339.562 340.349,340.178C340.349,340.794 340.221,341.338 339.965,341.81C339.709,342.282 339.351,342.65 338.891,342.914C338.431,343.178 337.905,343.31 337.313,343.31ZM337.313,342.434C337.713,342.434 338.067,342.338 338.375,342.146C338.683,341.954 338.921,341.686 339.089,341.342C339.257,340.998 339.341,340.61 339.341,340.178C339.341,339.746 339.257,339.358 339.089,339.014C338.921,338.67 338.683,338.402 338.375,338.21C338.067,338.018 337.713,337.922 337.313,337.922C336.913,337.922 336.559,338.018 336.251,338.21C335.943,338.402 335.705,338.67 335.537,339.014C335.369,339.358 335.285,339.746 335.285,340.178C335.285,340.61 335.369,340.998 335.537,341.342C335.705,341.686 335.943,341.954 336.251,342.146C336.559,342.338 336.913,342.434 337.313,342.434ZM336.953,336.386L337.973,334.766L339.125,334.766L337.721,336.386L336.953,336.386ZM344.477,337.046C345.221,337.046 345.819,337.27 346.271,337.718C346.723,338.166 346.949,338.87 346.949,339.83L346.949,343.238L345.965,343.238L345.965,339.89C345.965,339.258 345.823,338.776 345.539,338.444C345.255,338.112 344.845,337.946 344.309,337.946C343.733,337.946 343.281,338.146 342.953,338.546C342.625,338.946 342.461,339.49 342.461,340.178L342.461,343.238L341.477,343.238L341.477,337.118L342.329,337.118L342.461,337.946C342.925,337.346 343.597,337.046 344.477,337.046Z" style="fill:rgb(50,62,72);"/>
        </g>
        <g transform="matrix(2.31042,0,0,1.44121,-1358.06,248.483)">
            <path d="M819.396,175.71L782.953,139.268L788.068,126.124C788.068,126.124 824.03,162.086 824.03,162.086L860.387,125.729L865.501,138.873L829.059,175.315L829.059,240.829L819.396,240.829L819.396,175.71Z" style="fill:rgb(40,183,145);"/>
        </g>
    </g>
</svg>
