<?xml version="1.0" encoding="UTF-8" standalone="no"?>
<!DOCTYPE svg PUBLIC "-//W3C//DTD SVG 1.1//EN" "http://www.w3.org/Graphics/SVG/1.1/DTD/svg11.dtd">
<svg width="100%" height="100%" viewBox="0 0 1000 400" version="1.1" xmlns="http://www.w3.org/2000/svg" xmlns:xlink="http://www.w3.org/1999/xlink" xml:space="preserve" xmlns:serif="http://www.serif.com/" style="fill-rule:evenodd;clip-rule:evenodd;stroke-linejoin:round;stroke-miterlimit:2;">
    <g transform="matrix(2.37531,0,0,2.37531,338.042,258.699)">
        <g transform="matrix(1.18641,0,0,1.18641,-73.063,-0.591616)">
            <path d="M0,-50.826L21.562,-29.264L14.015,-21.717L10.319,-25.413L14.17,-29.264L0,-43.434L-14.17,-29.264L0,-15.094L3.851,-18.945L7.547,-15.249L2.613,-10.315L2.613,-2.614L0,0L-2.613,-2.614L-2.613,-10.316L-21.562,-29.264L0,-50.826ZM39.401,1.56L38.475,1.56L38.475,-5.009L39.401,-5.009L39.401,1.56ZM39.611,-7.535C39.611,-7.339 39.541,-7.177 39.401,-7.051C39.261,-6.925 39.106,-6.862 38.938,-6.862C38.769,-6.862 38.615,-6.925 38.475,-7.051C38.334,-7.177 38.264,-7.339 38.264,-7.535C38.264,-7.732 38.334,-7.893 38.475,-8.02C38.615,-8.146 38.769,-8.209 38.938,-8.209C39.106,-8.209 39.261,-8.146 39.401,-8.02C39.541,-7.893 39.611,-7.732 39.611,-7.535ZM43.92,-5.009C43.939,-4.831 43.95,-4.656 43.955,-4.483C43.96,-4.309 43.962,-4.134 43.962,-3.956L43.99,-3.956C44.093,-4.134 44.224,-4.298 44.383,-4.448C44.542,-4.597 44.72,-4.726 44.917,-4.834C45.113,-4.941 45.321,-5.025 45.541,-5.086C45.761,-5.147 45.979,-5.177 46.194,-5.177C47.036,-5.177 47.658,-4.955 48.061,-4.511C48.463,-4.066 48.664,-3.432 48.664,-2.609L48.664,1.56L47.738,1.56L47.738,-2.075C47.738,-2.805 47.612,-3.364 47.359,-3.753C47.106,-4.141 46.638,-4.335 45.955,-4.335C45.908,-4.335 45.777,-4.316 45.562,-4.279C45.347,-4.242 45.12,-4.139 44.882,-3.97C44.643,-3.802 44.43,-3.549 44.243,-3.212C44.056,-2.875 43.962,-2.407 43.962,-1.809L43.962,1.56L43.036,1.56L43.036,-3.563C43.036,-3.741 43.029,-3.965 43.015,-4.237C43.001,-4.508 42.984,-4.766 42.966,-5.009L43.92,-5.009ZM52.75,2.88C53.021,3.245 53.374,3.537 53.809,3.757C54.244,3.977 54.729,4.087 55.262,4.087C55.73,4.087 56.128,4.019 56.455,3.884C56.783,3.748 57.047,3.563 57.248,3.329C57.449,3.095 57.594,2.822 57.683,2.508C57.771,2.195 57.817,1.86 57.817,1.505L57.817,0.326L57.789,0.326C57.489,0.775 57.124,1.093 56.694,1.28C56.263,1.467 55.81,1.561 55.332,1.561C54.855,1.561 54.408,1.477 53.992,1.308C53.575,1.14 53.213,0.908 52.904,0.613C52.595,0.318 52.352,-0.035 52.174,-0.446C51.996,-0.858 51.907,-1.303 51.907,-1.78C51.907,-2.257 51.992,-2.702 52.16,-3.113C52.328,-3.525 52.56,-3.885 52.855,-4.194C53.15,-4.503 53.5,-4.744 53.908,-4.917C54.315,-5.09 54.761,-5.177 55.248,-5.177C55.445,-5.177 55.653,-5.158 55.873,-5.121C56.092,-5.083 56.312,-5.018 56.532,-4.924C56.752,-4.831 56.97,-4.702 57.185,-4.538C57.399,-4.374 57.601,-4.166 57.789,-3.913L57.817,-3.913L57.817,-5.008L58.743,-5.008L58.743,1.505C58.743,1.86 58.699,2.239 58.61,2.642C58.521,3.044 58.348,3.414 58.091,3.75C57.833,4.087 57.475,4.368 57.017,4.593C56.558,4.817 55.959,4.929 55.22,4.929C54.565,4.929 53.98,4.822 53.465,4.607C52.951,4.391 52.483,4.059 52.062,3.61L52.75,2.88ZM52.918,-1.808C52.918,-1.462 52.981,-1.136 53.107,-0.833C53.234,-0.528 53.407,-0.262 53.627,-0.032C53.847,0.197 54.104,0.38 54.399,0.515C54.694,0.651 55.014,0.719 55.36,0.719C55.697,0.719 56.018,0.658 56.322,0.536C56.626,0.415 56.895,0.244 57.129,0.024C57.363,-0.196 57.543,-0.46 57.669,-0.769C57.796,-1.078 57.854,-1.424 57.845,-1.808C57.845,-2.154 57.789,-2.479 57.676,-2.784C57.564,-3.088 57.399,-3.354 57.185,-3.584C56.97,-3.813 56.708,-3.995 56.399,-4.131C56.09,-4.267 55.744,-4.335 55.36,-4.335C55.014,-4.335 54.694,-4.267 54.399,-4.131C54.104,-3.995 53.847,-3.813 53.627,-3.584C53.407,-3.354 53.234,-3.088 53.107,-2.784C52.981,-2.479 52.918,-2.154 52.918,-1.808ZM62.869,-1.472C62.897,-1.144 62.977,-0.836 63.108,-0.546C63.239,-0.255 63.412,-0.005 63.627,0.205C63.842,0.416 64.09,0.582 64.371,0.704C64.652,0.825 64.956,0.886 65.284,0.886C65.779,0.886 66.208,0.772 66.568,0.542C66.928,0.313 67.202,0.049 67.389,-0.251L68.105,0.339C67.712,0.835 67.279,1.19 66.807,1.405C66.334,1.621 65.826,1.728 65.284,1.728C64.797,1.728 64.345,1.642 63.929,1.469C63.513,1.296 63.155,1.055 62.855,0.746C62.556,0.437 62.32,0.072 62.146,-0.349C61.973,-0.77 61.887,-1.229 61.887,-1.725C61.887,-2.221 61.971,-2.679 62.139,-3.1C62.308,-3.521 62.542,-3.886 62.841,-4.195C63.141,-4.504 63.492,-4.745 63.894,-4.918C64.296,-5.091 64.731,-5.178 65.199,-5.178C65.695,-5.178 66.14,-5.089 66.533,-4.911C66.926,-4.733 67.256,-4.497 67.522,-4.202C67.789,-3.907 67.993,-3.561 68.133,-3.163C68.273,-2.766 68.344,-2.342 68.344,-1.893L68.344,-1.472L62.869,-1.472ZM67.333,-2.23C67.333,-2.857 67.146,-3.365 66.772,-3.753C66.397,-4.141 65.873,-4.335 65.199,-4.335C64.9,-4.335 64.61,-4.277 64.329,-4.16C64.048,-4.043 63.803,-3.886 63.592,-3.69C63.382,-3.493 63.213,-3.269 63.087,-3.016C62.961,-2.763 62.897,-2.501 62.897,-2.23L67.333,-2.23ZM72.316,-5.009C72.335,-4.831 72.346,-4.656 72.351,-4.483C72.356,-4.309 72.358,-4.134 72.358,-3.956L72.386,-3.956C72.489,-4.134 72.62,-4.298 72.779,-4.448C72.938,-4.597 73.116,-4.726 73.313,-4.834C73.509,-4.941 73.717,-5.025 73.937,-5.086C74.157,-5.147 74.375,-5.177 74.59,-5.177C75.432,-5.177 76.054,-4.955 76.457,-4.511C76.859,-4.066 77.06,-3.432 77.06,-2.609L77.06,1.56L76.134,1.56L76.134,-2.075C76.134,-2.805 76.008,-3.364 75.755,-3.753C75.502,-4.141 75.034,-4.335 74.351,-4.335C74.304,-4.335 74.173,-4.316 73.958,-4.279C73.743,-4.242 73.516,-4.139 73.278,-3.97C73.039,-3.802 72.826,-3.549 72.639,-3.212C72.452,-2.875 72.358,-2.407 72.358,-1.809L72.358,1.56L71.432,1.56L71.432,-3.563C71.432,-3.741 71.425,-3.965 71.411,-4.237C71.397,-4.508 71.38,-4.766 71.362,-5.009L72.316,-5.009ZM81.777,1.56L80.851,1.56L80.851,-5.009L81.777,-5.009L81.777,1.56ZM81.987,-7.535C81.987,-7.339 81.917,-7.177 81.777,-7.051C81.637,-6.925 81.482,-6.862 81.314,-6.862C81.145,-6.862 80.991,-6.925 80.851,-7.051C80.71,-7.177 80.64,-7.339 80.64,-7.535C80.64,-7.732 80.71,-7.893 80.851,-8.02C80.991,-8.146 81.145,-8.209 81.314,-8.209C81.482,-8.209 81.637,-8.146 81.777,-8.02C81.917,-7.893 81.987,-7.732 81.987,-7.535ZM86.057,-1.472C86.085,-1.144 86.165,-0.836 86.296,-0.546C86.427,-0.255 86.6,-0.005 86.815,0.205C87.03,0.416 87.279,0.582 87.559,0.704C87.84,0.825 88.144,0.886 88.472,0.886C88.968,0.886 89.396,0.772 89.756,0.542C90.116,0.313 90.39,0.049 90.577,-0.251L91.293,0.339C90.9,0.835 90.467,1.19 89.995,1.405C89.522,1.621 89.014,1.728 88.472,1.728C87.985,1.728 87.533,1.642 87.117,1.469C86.701,1.296 86.343,1.055 86.043,0.746C85.744,0.437 85.508,0.072 85.334,-0.349C85.161,-0.77 85.075,-1.229 85.075,-1.725C85.075,-2.221 85.159,-2.679 85.327,-3.1C85.496,-3.521 85.73,-3.886 86.029,-4.195C86.329,-4.504 86.68,-4.745 87.082,-4.918C87.484,-5.091 87.919,-5.178 88.387,-5.178C88.883,-5.178 89.328,-5.089 89.721,-4.911C90.114,-4.733 90.444,-4.497 90.71,-4.202C90.977,-3.907 91.181,-3.561 91.321,-3.163C91.461,-2.766 91.532,-2.342 91.532,-1.893L91.532,-1.472L86.057,-1.472ZM90.521,-2.23C90.521,-2.857 90.334,-3.365 89.96,-3.753C89.585,-4.141 89.061,-4.335 88.387,-4.335C88.088,-4.335 87.798,-4.277 87.517,-4.16C87.236,-4.043 86.991,-3.886 86.78,-3.69C86.57,-3.493 86.401,-3.269 86.275,-3.016C86.149,-2.763 86.085,-2.501 86.085,-2.23L90.521,-2.23ZM94.718,-2.959C94.718,-3.249 94.711,-3.544 94.697,-3.843C94.683,-4.143 94.671,-4.531 94.662,-5.008L95.574,-5.008L95.574,-3.787L95.602,-3.787C95.668,-3.965 95.761,-4.136 95.883,-4.299C96.005,-4.463 96.152,-4.611 96.325,-4.742C96.498,-4.873 96.699,-4.978 96.929,-5.057C97.158,-5.137 97.418,-5.177 97.708,-5.177C97.97,-5.177 98.199,-5.149 98.396,-5.093L98.213,-4.18C98.091,-4.227 97.913,-4.25 97.68,-4.25C97.324,-4.25 97.02,-4.182 96.767,-4.047C96.515,-3.911 96.304,-3.738 96.136,-3.528C95.967,-3.317 95.843,-3.09 95.764,-2.847C95.684,-2.603 95.644,-2.369 95.644,-2.145L95.644,1.561L94.718,1.561L94.718,-2.959ZM101.821,1.56L100.895,1.56L100.895,-5.009L101.821,-5.009L101.821,1.56ZM101.33,-6.356L100.501,-6.356L101.905,-8.378L103.182,-8.378L101.33,-6.356ZM109.666,-2.468L109.666,-2.636C109.666,-3.769 109.105,-4.335 107.982,-4.335C107.214,-4.335 106.545,-4.077 105.975,-3.563L105.413,-4.223C106.031,-4.859 106.957,-5.177 108.192,-5.177C108.51,-5.177 108.817,-5.13 109.112,-5.037C109.407,-4.943 109.661,-4.8 109.877,-4.609C110.092,-4.417 110.265,-4.176 110.396,-3.886C110.527,-3.595 110.593,-3.249 110.593,-2.847L110.593,0.087C110.593,0.339 110.604,0.604 110.628,0.88C110.651,1.156 110.677,1.383 110.705,1.561L109.807,1.561C109.779,1.402 109.757,1.228 109.743,1.041C109.729,0.854 109.722,0.672 109.722,0.494L109.694,0.494C109.423,0.934 109.102,1.25 108.733,1.441C108.363,1.633 107.912,1.729 107.378,1.729C107.088,1.729 106.807,1.689 106.536,1.61C106.265,1.53 106.024,1.409 105.813,1.245C105.603,1.081 105.434,0.88 105.308,0.641C105.182,0.403 105.118,0.124 105.118,-0.194C105.118,-0.727 105.256,-1.146 105.532,-1.45C105.808,-1.754 106.155,-1.981 106.571,-2.131C106.987,-2.281 107.432,-2.374 107.905,-2.412C108.377,-2.449 108.81,-2.468 109.203,-2.468L109.666,-2.468ZM109.189,-1.71C108.955,-1.71 108.663,-1.698 108.312,-1.675C107.961,-1.651 107.624,-1.595 107.301,-1.506C106.978,-1.417 106.702,-1.279 106.473,-1.092C106.243,-0.905 106.129,-0.648 106.129,-0.32C106.129,-0.105 106.173,0.08 106.262,0.234C106.351,0.388 106.47,0.515 106.62,0.613C106.77,0.711 106.936,0.782 107.119,0.824C107.301,0.866 107.486,0.887 107.673,0.887C108.01,0.887 108.302,0.831 108.55,0.718C108.798,0.606 109.007,0.454 109.175,0.262C109.343,0.07 109.467,-0.154 109.547,-0.412C109.626,-0.669 109.666,-0.943 109.666,-1.233L109.666,-1.71L109.189,-1.71ZM119.45,-3.549C119.45,-3.792 119.443,-4.035 119.429,-4.279C119.415,-4.522 119.398,-4.765 119.38,-5.009L120.376,-5.009L120.376,-4.012L120.404,-4.012C120.629,-4.396 120.94,-4.686 121.338,-4.883C121.736,-5.079 122.131,-5.177 122.524,-5.177C122.702,-5.177 122.891,-5.158 123.092,-5.121C123.294,-5.084 123.488,-5.016 123.675,-4.918C123.862,-4.819 124.037,-4.681 124.201,-4.503C124.365,-4.326 124.503,-4.096 124.615,-3.816C124.803,-4.237 125.1,-4.569 125.507,-4.812C125.914,-5.056 126.337,-5.177 126.777,-5.177C127.619,-5.177 128.241,-4.955 128.644,-4.511C129.046,-4.066 129.247,-3.432 129.247,-2.609L129.247,1.56L128.321,1.56L128.321,-2.272C128.321,-2.936 128.204,-3.446 127.97,-3.802C127.736,-4.157 127.301,-4.335 126.665,-4.335C126.318,-4.335 126.028,-4.267 125.794,-4.132C125.561,-3.996 125.371,-3.816 125.226,-3.591C125.081,-3.367 124.976,-3.112 124.91,-2.826C124.845,-2.541 124.812,-2.244 124.812,-1.935L124.812,1.56L123.886,1.56L123.886,-2.272C123.886,-2.936 123.768,-3.446 123.535,-3.802C123.301,-4.157 122.865,-4.335 122.229,-4.335C122.173,-4.335 122.044,-4.316 121.843,-4.279C121.642,-4.241 121.434,-4.139 121.219,-3.97C121.003,-3.802 120.809,-3.549 120.636,-3.212C120.463,-2.875 120.376,-2.407 120.376,-1.808L120.376,1.56L119.45,1.56L119.45,-3.549ZM133.458,-1.472C133.486,-1.144 133.566,-0.836 133.697,-0.546C133.828,-0.255 134.001,-0.005 134.216,0.205C134.431,0.416 134.68,0.582 134.96,0.704C135.241,0.825 135.545,0.886 135.873,0.886C136.369,0.886 136.797,0.772 137.157,0.542C137.517,0.313 137.791,0.049 137.978,-0.251L138.694,0.339C138.301,0.835 137.868,1.19 137.396,1.405C136.923,1.621 136.415,1.728 135.873,1.728C135.386,1.728 134.934,1.642 134.518,1.469C134.102,1.296 133.744,1.055 133.444,0.746C133.145,0.437 132.909,0.072 132.735,-0.349C132.562,-0.77 132.476,-1.229 132.476,-1.725C132.476,-2.221 132.56,-2.679 132.728,-3.1C132.897,-3.521 133.131,-3.886 133.43,-4.195C133.73,-4.504 134.081,-4.745 134.483,-4.918C134.885,-5.091 135.32,-5.178 135.788,-5.178C136.284,-5.178 136.729,-5.089 137.122,-4.911C137.515,-4.733 137.845,-4.497 138.111,-4.202C138.378,-3.907 138.582,-3.561 138.722,-3.163C138.862,-2.766 138.933,-2.342 138.933,-1.893L138.933,-1.472L133.458,-1.472ZM137.922,-2.23C137.922,-2.857 137.735,-3.365 137.361,-3.753C136.986,-4.141 136.462,-4.335 135.788,-4.335C135.489,-4.335 135.199,-4.277 134.918,-4.16C134.637,-4.043 134.392,-3.886 134.181,-3.69C133.971,-3.493 133.802,-3.269 133.676,-3.016C133.55,-2.763 133.486,-2.501 133.486,-2.23L137.922,-2.23ZM145.418,-4.167L143.523,-4.167L143.523,-0.293C143.523,-0.05 143.545,0.149 143.593,0.304C143.64,0.458 143.706,0.577 143.79,0.662C143.873,0.746 143.973,0.804 144.092,0.837C144.208,0.87 144.337,0.886 144.478,0.886C144.637,0.886 144.8,0.863 144.968,0.816C145.137,0.769 145.291,0.708 145.431,0.633L145.474,1.49C145.128,1.649 144.71,1.728 144.224,1.728C144.047,1.728 143.862,1.705 143.67,1.658C143.478,1.611 143.303,1.523 143.144,1.391C142.985,1.26 142.854,1.083 142.75,0.858C142.647,0.633 142.596,0.339 142.596,-0.026L142.596,-4.167L141.207,-4.167L141.207,-5.009L142.596,-5.009L142.596,-6.862L143.523,-6.862L143.523,-5.009L145.418,-5.009L145.418,-4.167ZM152.295,-2.468L152.295,-2.636C152.295,-3.769 151.734,-4.335 150.611,-4.335C149.843,-4.335 149.174,-4.077 148.604,-3.563L148.042,-4.223C148.66,-4.859 149.586,-5.177 150.821,-5.177C151.139,-5.177 151.446,-5.13 151.741,-5.037C152.036,-4.943 152.29,-4.8 152.506,-4.609C152.721,-4.417 152.894,-4.176 153.025,-3.886C153.156,-3.595 153.222,-3.249 153.222,-2.847L153.222,0.087C153.222,0.339 153.233,0.604 153.257,0.88C153.28,1.156 153.306,1.383 153.334,1.561L152.436,1.561C152.408,1.402 152.386,1.228 152.372,1.041C152.358,0.854 152.351,0.672 152.351,0.494L152.323,0.494C152.052,0.934 151.731,1.25 151.362,1.441C150.992,1.633 150.541,1.729 150.007,1.729C149.717,1.729 149.436,1.689 149.165,1.61C148.894,1.53 148.653,1.409 148.442,1.245C148.232,1.081 148.063,0.88 147.937,0.641C147.811,0.403 147.747,0.124 147.747,-0.194C147.747,-0.727 147.885,-1.146 148.162,-1.45C148.437,-1.754 148.784,-1.981 149.2,-2.131C149.616,-2.281 150.061,-2.374 150.534,-2.412C151.006,-2.449 151.439,-2.468 151.832,-2.468L152.295,-2.468ZM151.818,-1.71C151.584,-1.71 151.292,-1.698 150.941,-1.675C150.59,-1.651 150.253,-1.595 149.93,-1.506C149.607,-1.417 149.331,-1.279 149.102,-1.092C148.873,-0.905 148.758,-0.648 148.758,-0.32C148.758,-0.105 148.802,0.08 148.891,0.234C148.98,0.388 149.1,0.515 149.249,0.613C149.399,0.711 149.565,0.782 149.748,0.824C149.93,0.866 150.115,0.887 150.302,0.887C150.639,0.887 150.931,0.831 151.179,0.718C151.427,0.606 151.636,0.454 151.804,0.262C151.972,0.07 152.096,-0.154 152.176,-0.412C152.255,-0.669 152.295,-0.943 152.295,-1.233L152.295,-1.71L151.818,-1.71ZM156.984,-9.052L157.91,-9.052L157.91,1.56L156.984,1.56L156.984,-9.052ZM161.545,-3.549C161.545,-3.792 161.538,-4.035 161.524,-4.279C161.51,-4.522 161.493,-4.765 161.475,-5.009L162.471,-5.009L162.471,-4.012L162.499,-4.012C162.724,-4.396 163.035,-4.686 163.433,-4.883C163.831,-5.079 164.226,-5.177 164.619,-5.177C164.797,-5.177 164.986,-5.158 165.187,-5.121C165.389,-5.084 165.583,-5.016 165.77,-4.918C165.957,-4.819 166.133,-4.681 166.296,-4.503C166.46,-4.326 166.598,-4.096 166.71,-3.816C166.898,-4.237 167.195,-4.569 167.602,-4.812C168.009,-5.056 168.432,-5.177 168.872,-5.177C169.714,-5.177 170.336,-4.955 170.739,-4.511C171.141,-4.066 171.342,-3.432 171.342,-2.609L171.342,1.56L170.416,1.56L170.416,-2.272C170.416,-2.936 170.299,-3.446 170.065,-3.802C169.831,-4.157 169.396,-4.335 168.76,-4.335C168.413,-4.335 168.123,-4.267 167.889,-4.132C167.656,-3.996 167.466,-3.816 167.321,-3.591C167.176,-3.367 167.071,-3.112 167.005,-2.826C166.94,-2.541 166.907,-2.244 166.907,-1.935L166.907,1.56L165.981,1.56L165.981,-2.272C165.981,-2.936 165.863,-3.446 165.63,-3.802C165.396,-4.157 164.96,-4.335 164.324,-4.335C164.268,-4.335 164.139,-4.316 163.938,-4.279C163.737,-4.241 163.529,-4.139 163.314,-3.97C163.098,-3.802 162.904,-3.549 162.731,-3.212C162.558,-2.875 162.471,-2.407 162.471,-1.808L162.471,1.56L161.545,1.56L161.545,-3.549ZM175.553,-1.472C175.581,-1.144 175.661,-0.836 175.792,-0.546C175.923,-0.255 176.096,-0.005 176.311,0.205C176.526,0.416 176.775,0.582 177.055,0.704C177.336,0.825 177.64,0.886 177.968,0.886C178.464,0.886 178.892,0.772 179.252,0.542C179.612,0.313 179.886,0.049 180.073,-0.251L180.789,0.339C180.396,0.835 179.963,1.19 179.491,1.405C179.018,1.621 178.51,1.728 177.968,1.728C177.481,1.728 177.029,1.642 176.613,1.469C176.197,1.296 175.839,1.055 175.539,0.746C175.24,0.437 175.004,0.072 174.83,-0.349C174.657,-0.77 174.571,-1.229 174.571,-1.725C174.571,-2.221 174.655,-2.679 174.823,-3.1C174.992,-3.521 175.226,-3.886 175.525,-4.195C175.825,-4.504 176.176,-4.745 176.578,-4.918C176.98,-5.091 177.415,-5.178 177.883,-5.178C178.379,-5.178 178.824,-5.089 179.217,-4.911C179.61,-4.733 179.94,-4.497 180.206,-4.202C180.473,-3.907 180.677,-3.561 180.817,-3.163C180.957,-2.766 181.028,-2.342 181.028,-1.893L181.028,-1.472L175.553,-1.472ZM180.017,-2.23C180.017,-2.857 179.83,-3.365 179.456,-3.753C179.081,-4.141 178.557,-4.335 177.883,-4.335C177.584,-4.335 177.294,-4.277 177.013,-4.16C176.732,-4.043 176.487,-3.886 176.276,-3.69C176.066,-3.493 175.897,-3.269 175.771,-3.016C175.645,-2.763 175.581,-2.501 175.581,-2.23L180.017,-2.23ZM188.902,-3.465C188.743,-3.708 188.521,-3.914 188.235,-4.083C187.95,-4.251 187.625,-4.335 187.26,-4.335C186.876,-4.344 186.532,-4.284 186.228,-4.153C185.924,-4.022 185.664,-3.839 185.449,-3.605C185.234,-3.371 185.07,-3.093 184.958,-2.77C184.845,-2.447 184.789,-2.099 184.789,-1.724C184.789,-1.35 184.845,-1.002 184.958,-0.679C185.07,-0.356 185.234,-0.077 185.449,0.156C185.664,0.39 185.924,0.573 186.228,0.704C186.532,0.835 186.876,0.896 187.26,0.886C187.625,0.886 187.95,0.802 188.235,0.634C188.521,0.465 188.743,0.259 188.902,0.016L189.66,0.592C189.332,0.975 188.963,1.258 188.551,1.441C188.139,1.623 187.709,1.719 187.26,1.729C186.726,1.738 186.244,1.656 185.814,1.483C185.383,1.31 185.016,1.069 184.712,0.76C184.408,0.451 184.176,0.084 184.017,-0.342C183.858,-0.768 183.779,-1.228 183.779,-1.724C183.779,-2.22 183.858,-2.681 184.017,-3.107C184.176,-3.533 184.408,-3.9 184.712,-4.209C185.016,-4.518 185.383,-4.759 185.814,-4.932C186.244,-5.105 186.726,-5.187 187.26,-5.177C187.709,-5.168 188.139,-5.072 188.551,-4.89C188.963,-4.707 189.332,-4.424 189.66,-4.04L188.902,-3.465ZM194.896,-6.356L194.068,-6.356L195.472,-8.377L196.749,-8.377L194.896,-6.356ZM196.496,-2.468L196.496,-2.636C196.496,-3.768 195.935,-4.335 194.812,-4.335C194.044,-4.335 193.375,-4.077 192.805,-3.563L192.243,-4.222C192.861,-4.859 193.787,-5.177 195.022,-5.177C195.34,-5.177 195.647,-5.13 195.942,-5.037C196.237,-4.943 196.491,-4.8 196.707,-4.608C196.922,-4.417 197.095,-4.176 197.226,-3.886C197.357,-3.595 197.423,-3.249 197.423,-2.847L197.423,0.087C197.423,0.339 197.434,0.604 197.458,0.88C197.481,1.156 197.507,1.383 197.535,1.561L196.637,1.561C196.608,1.402 196.587,1.229 196.573,1.041C196.559,0.854 196.552,0.672 196.552,0.494L196.524,0.494C196.253,0.934 195.932,1.25 195.563,1.441C195.193,1.633 194.742,1.729 194.208,1.729C193.918,1.729 193.637,1.689 193.366,1.61C193.095,1.53 192.854,1.409 192.643,1.245C192.433,1.081 192.264,0.88 192.138,0.641C192.012,0.403 191.948,0.124 191.948,-0.194C191.948,-0.727 192.086,-1.146 192.362,-1.45C192.638,-1.754 192.985,-1.981 193.401,-2.131C193.817,-2.281 194.262,-2.374 194.735,-2.412C195.207,-2.449 195.64,-2.468 196.033,-2.468L196.496,-2.468ZM196.019,-1.71C195.785,-1.71 195.493,-1.698 195.142,-1.675C194.791,-1.651 194.454,-1.595 194.131,-1.506C193.808,-1.417 193.532,-1.279 193.303,-1.092C193.073,-0.905 192.959,-0.648 192.959,-0.32C192.959,-0.105 193.003,0.08 193.092,0.234C193.181,0.389 193.3,0.515 193.45,0.613C193.6,0.711 193.766,0.782 193.949,0.824C194.131,0.866 194.316,0.887 194.503,0.887C194.84,0.887 195.132,0.831 195.38,0.718C195.628,0.606 195.837,0.454 196.005,0.262C196.173,0.071 196.297,-0.154 196.377,-0.412C196.456,-0.669 196.496,-0.943 196.496,-1.233L196.496,-1.71L196.019,-1.71ZM201.858,-5.009C201.877,-4.831 201.888,-4.656 201.893,-4.483C201.898,-4.309 201.9,-4.134 201.9,-3.956L201.928,-3.956C202.031,-4.134 202.162,-4.298 202.321,-4.448C202.48,-4.597 202.658,-4.726 202.855,-4.834C203.051,-4.941 203.259,-5.025 203.479,-5.086C203.699,-5.147 203.917,-5.177 204.132,-5.177C204.974,-5.177 205.596,-4.955 205.999,-4.511C206.401,-4.066 206.602,-3.432 206.602,-2.609L206.602,1.56L205.676,1.56L205.676,-2.075C205.676,-2.805 205.55,-3.364 205.297,-3.753C205.044,-4.141 204.576,-4.335 203.893,-4.335C203.846,-4.335 203.715,-4.316 203.5,-4.279C203.285,-4.242 203.058,-4.139 202.82,-3.97C202.581,-3.802 202.368,-3.549 202.181,-3.212C201.994,-2.875 201.9,-2.407 201.9,-1.809L201.9,1.56L200.974,1.56L200.974,-3.563C200.974,-3.741 200.967,-3.965 200.953,-4.237C200.939,-4.508 200.922,-4.766 200.904,-5.009L201.858,-5.009ZM211.319,1.56L210.393,1.56L210.393,-5.009L211.319,-5.009L211.319,1.56ZM211.529,-7.535C211.529,-7.339 211.459,-7.177 211.319,-7.051C211.178,-6.925 211.024,-6.862 210.856,-6.862C210.687,-6.862 210.533,-6.925 210.392,-7.051C210.252,-7.177 210.182,-7.339 210.182,-7.535C210.182,-7.732 210.252,-7.893 210.392,-8.02C210.533,-8.146 210.687,-8.209 210.856,-8.209C211.024,-8.209 211.178,-8.146 211.319,-8.02C211.459,-7.893 211.529,-7.732 211.529,-7.535ZM219.74,-3.465C219.581,-3.708 219.359,-3.914 219.073,-4.083C218.788,-4.251 218.463,-4.335 218.098,-4.335C217.714,-4.344 217.37,-4.284 217.066,-4.153C216.762,-4.022 216.502,-3.839 216.287,-3.605C216.072,-3.371 215.908,-3.093 215.796,-2.77C215.683,-2.447 215.627,-2.099 215.627,-1.724C215.627,-1.35 215.683,-1.002 215.796,-0.679C215.908,-0.356 216.072,-0.077 216.287,0.156C216.502,0.39 216.762,0.573 217.066,0.704C217.37,0.835 217.714,0.896 218.098,0.886C218.463,0.886 218.788,0.802 219.073,0.634C219.359,0.465 219.581,0.259 219.74,0.016L220.498,0.592C220.17,0.975 219.801,1.258 219.389,1.441C218.977,1.623 218.547,1.719 218.098,1.729C217.564,1.738 217.082,1.656 216.652,1.483C216.221,1.31 215.854,1.069 215.55,0.76C215.246,0.451 215.014,0.084 214.855,-0.342C214.696,-0.768 214.617,-1.228 214.617,-1.724C214.617,-2.22 214.696,-2.681 214.855,-3.107C215.014,-3.533 215.246,-3.9 215.55,-4.209C215.854,-4.518 216.221,-4.759 216.652,-4.932C217.082,-5.105 217.564,-5.187 218.098,-5.177C218.547,-5.168 218.977,-5.072 219.389,-4.89C219.801,-4.707 220.17,-4.424 220.498,-4.04L219.74,-3.465ZM227.334,-2.468L227.334,-2.636C227.334,-3.769 226.773,-4.335 225.65,-4.335C224.882,-4.335 224.213,-4.077 223.643,-3.563L223.081,-4.223C223.699,-4.859 224.625,-5.177 225.86,-5.177C226.178,-5.177 226.485,-5.13 226.78,-5.037C227.075,-4.943 227.329,-4.8 227.545,-4.609C227.76,-4.417 227.933,-4.176 228.064,-3.886C228.195,-3.595 228.261,-3.249 228.261,-2.847L228.261,0.087C228.261,0.339 228.272,0.604 228.296,0.88C228.319,1.156 228.345,1.383 228.373,1.561L227.475,1.561C227.447,1.402 227.425,1.228 227.411,1.041C227.397,0.854 227.39,0.672 227.39,0.494L227.362,0.494C227.091,0.934 226.77,1.25 226.401,1.441C226.031,1.633 225.58,1.729 225.046,1.729C224.756,1.729 224.475,1.689 224.204,1.61C223.933,1.53 223.692,1.409 223.481,1.245C223.271,1.081 223.102,0.88 222.976,0.641C222.85,0.403 222.786,0.124 222.786,-0.194C222.786,-0.727 222.924,-1.146 223.2,-1.45C223.476,-1.754 223.823,-1.981 224.239,-2.131C224.655,-2.281 225.1,-2.374 225.573,-2.412C226.045,-2.449 226.478,-2.468 226.871,-2.468L227.334,-2.468ZM226.857,-1.71C226.623,-1.71 226.331,-1.698 225.98,-1.675C225.629,-1.651 225.292,-1.595 224.969,-1.506C224.646,-1.417 224.37,-1.279 224.141,-1.092C223.912,-0.905 223.797,-0.648 223.797,-0.32C223.797,-0.105 223.841,0.08 223.93,0.234C224.019,0.388 224.139,0.515 224.288,0.613C224.438,0.711 224.604,0.782 224.787,0.824C224.969,0.866 225.154,0.887 225.341,0.887C225.678,0.887 225.97,0.831 226.218,0.718C226.466,0.606 226.675,0.454 226.843,0.262C227.011,0.07 227.135,-0.154 227.215,-0.412C227.294,-0.669 227.334,-0.943 227.334,-1.233L227.334,-1.71L226.857,-1.71Z" style="fill:rgb(40,183,145);"/>
        </g>
        <g transform="matrix(1.18641,0,0,1.18641,-69.9623,-0.77017)">
            <path d="M0,-30.196L18.949,-11.247L-2.613,10.315L-24.176,-11.247L-16.629,-18.794L-12.932,-15.098L-16.783,-11.247L-2.613,2.922L11.557,-11.247L-2.613,-25.417L-6.464,-21.566L-10.16,-25.263L-5.227,-30.196L-5.227,-37.898L-2.613,-40.511L0,-37.898L0,-30.196ZM35.633,-37.987L44.074,-37.987C45.055,-37.987 46.041,-37.918 47.032,-37.779C48.023,-37.641 48.913,-37.364 49.702,-36.948C50.49,-36.532 51.13,-35.951 51.62,-35.205C52.11,-34.459 52.356,-33.468 52.356,-32.232C52.356,-30.953 51.999,-29.892 51.285,-29.05C50.57,-28.208 49.627,-27.606 48.455,-27.244L48.455,-27.18C49.201,-27.073 49.878,-26.865 50.485,-26.556C51.093,-26.247 51.615,-25.853 52.052,-25.373C52.488,-24.894 52.824,-24.334 53.059,-23.695C53.294,-23.055 53.411,-22.373 53.411,-21.648C53.411,-20.454 53.155,-19.458 52.643,-18.659C52.132,-17.859 51.471,-17.214 50.661,-16.724C49.851,-16.234 48.939,-15.882 47.927,-15.669C46.915,-15.456 45.907,-15.349 44.906,-15.349L35.633,-15.349L35.633,-37.987ZM40.621,-19.57L45.097,-19.57C45.481,-19.57 45.87,-19.612 46.264,-19.698C46.659,-19.783 47.016,-19.932 47.336,-20.146C47.655,-20.358 47.916,-20.636 48.119,-20.977C48.321,-21.318 48.423,-21.733 48.423,-22.224C48.423,-22.757 48.289,-23.188 48.023,-23.519C47.756,-23.849 47.421,-24.099 47.016,-24.27C46.611,-24.441 46.174,-24.558 45.705,-24.622C45.236,-24.686 44.799,-24.718 44.394,-24.718L40.621,-24.718L40.621,-19.57ZM40.621,-28.938L44.234,-28.938C44.618,-28.938 44.996,-28.981 45.369,-29.066C45.742,-29.151 46.078,-29.29 46.376,-29.482C46.675,-29.674 46.915,-29.93 47.096,-30.25C47.277,-30.569 47.368,-30.953 47.368,-31.401C47.368,-31.869 47.266,-32.258 47.064,-32.568C46.861,-32.876 46.6,-33.116 46.281,-33.287C45.961,-33.457 45.598,-33.58 45.193,-33.655C44.788,-33.729 44.394,-33.767 44.01,-33.767L40.621,-33.767L40.621,-28.938ZM61.148,-37.986L69.909,-37.986C71.06,-37.986 72.152,-37.875 73.186,-37.651C74.22,-37.427 75.126,-37.054 75.904,-36.532C76.682,-36.009 77.3,-35.306 77.759,-34.421C78.217,-33.537 78.446,-32.434 78.446,-31.112C78.446,-29.513 78.03,-28.154 77.199,-27.035C76.368,-25.916 75.153,-25.207 73.554,-24.909L79.309,-15.349L73.33,-15.349L68.598,-24.397L66.136,-24.397L66.136,-15.349L61.148,-15.349L61.148,-37.986ZM66.136,-28.618L69.078,-28.618C69.525,-28.618 69.999,-28.634 70.501,-28.666C71.001,-28.698 71.454,-28.794 71.859,-28.954C72.264,-29.114 72.6,-29.364 72.867,-29.705C73.133,-30.046 73.266,-30.526 73.266,-31.144C73.266,-31.72 73.149,-32.178 72.915,-32.519C72.68,-32.86 72.381,-33.121 72.019,-33.302C71.657,-33.483 71.241,-33.606 70.772,-33.67C70.303,-33.734 69.845,-33.766 69.397,-33.766L66.136,-33.766L66.136,-28.618ZM85.448,-26.668C85.448,-28.48 85.752,-30.121 86.359,-31.592C86.967,-33.063 87.814,-34.315 88.901,-35.349C89.988,-36.383 91.278,-37.177 92.77,-37.731C94.262,-38.285 95.893,-38.563 97.662,-38.563C99.431,-38.563 101.062,-38.285 102.554,-37.731C104.046,-37.177 105.336,-36.383 106.423,-35.349C107.511,-34.315 108.358,-33.063 108.965,-31.592C109.573,-30.121 109.877,-28.48 109.877,-26.668C109.877,-24.856 109.573,-23.215 108.965,-21.744C108.358,-20.273 107.511,-19.021 106.423,-17.987C105.336,-16.953 104.046,-16.159 102.554,-15.605C101.062,-15.051 99.431,-14.774 97.662,-14.774C95.893,-14.774 94.262,-15.051 92.77,-15.605C91.278,-16.159 89.988,-16.953 88.901,-17.987C87.814,-19.021 86.967,-20.273 86.359,-21.744C85.752,-23.215 85.448,-24.856 85.448,-26.668ZM90.628,-26.668C90.628,-25.602 90.793,-24.627 91.124,-23.742C91.454,-22.858 91.928,-22.09 92.547,-21.44C93.164,-20.79 93.905,-20.284 94.769,-19.921C95.632,-19.559 96.596,-19.378 97.662,-19.378C98.728,-19.378 99.693,-19.559 100.556,-19.921C101.419,-20.284 102.16,-20.79 102.778,-21.44C103.396,-22.09 103.87,-22.858 104.201,-23.742C104.531,-24.627 104.697,-25.602 104.697,-26.668C104.697,-27.712 104.531,-28.682 104.201,-29.578C103.87,-30.473 103.396,-31.245 102.778,-31.896C102.16,-32.546 101.419,-33.052 100.556,-33.415C99.693,-33.777 98.728,-33.958 97.662,-33.958C96.596,-33.958 95.632,-33.777 94.769,-33.415C93.905,-33.052 93.164,-32.546 92.547,-31.896C91.928,-31.245 91.454,-30.473 91.124,-29.578C90.793,-28.682 90.628,-27.712 90.628,-26.668ZM129.253,-32.456C128.848,-32.968 128.299,-33.346 127.606,-33.591C126.913,-33.836 126.258,-33.959 125.64,-33.959C125.277,-33.959 124.904,-33.916 124.521,-33.831C124.137,-33.745 123.774,-33.612 123.434,-33.431C123.092,-33.25 122.815,-33.01 122.602,-32.712C122.389,-32.413 122.283,-32.051 122.283,-31.625C122.283,-30.942 122.538,-30.42 123.05,-30.058C123.562,-29.695 124.206,-29.386 124.984,-29.131C125.762,-28.875 126.599,-28.619 127.494,-28.363C128.39,-28.107 129.226,-27.745 130.004,-27.276C130.782,-26.807 131.427,-26.178 131.939,-25.39C132.45,-24.601 132.706,-23.546 132.706,-22.224C132.706,-20.966 132.471,-19.869 132.003,-18.931C131.534,-17.993 130.9,-17.215 130.1,-16.597C129.301,-15.978 128.374,-15.52 127.319,-15.222C126.263,-14.924 125.149,-14.774 123.977,-14.774C122.506,-14.774 121.142,-14.998 119.885,-15.446C118.627,-15.893 117.455,-16.618 116.367,-17.62L119.916,-21.521C120.428,-20.838 121.073,-20.311 121.851,-19.938C122.629,-19.565 123.434,-19.379 124.265,-19.379C124.67,-19.379 125.08,-19.426 125.496,-19.522C125.912,-19.618 126.284,-19.762 126.615,-19.954C126.945,-20.146 127.212,-20.391 127.415,-20.689C127.617,-20.988 127.718,-21.339 127.718,-21.745C127.718,-22.427 127.457,-22.965 126.935,-23.359C126.412,-23.753 125.757,-24.089 124.969,-24.366C124.18,-24.643 123.327,-24.921 122.41,-25.198C121.494,-25.475 120.641,-25.848 119.853,-26.317C119.064,-26.786 118.408,-27.404 117.886,-28.172C117.364,-28.939 117.103,-29.951 117.103,-31.209C117.103,-32.424 117.343,-33.49 117.822,-34.406C118.302,-35.323 118.941,-36.09 119.741,-36.709C120.54,-37.327 121.462,-37.79 122.506,-38.099C123.551,-38.408 124.627,-38.563 125.736,-38.563C127.015,-38.563 128.251,-38.382 129.445,-38.02C130.638,-37.657 131.715,-37.049 132.674,-36.197L129.253,-32.456ZM138.845,-37.987L144.281,-37.987L147.894,-23.471L147.958,-23.471L152.69,-37.987L157.326,-37.987L162.026,-23.087L162.09,-23.087L165.895,-37.987L170.947,-37.987L164.329,-15.349L159.884,-15.349L154.896,-31.017L154.832,-31.017L149.844,-15.349L145.56,-15.349L138.845,-37.987ZM178.173,-37.987L193.553,-37.987L193.553,-33.383L183.161,-33.383L183.161,-29.162L192.977,-29.162L192.977,-24.558L183.161,-24.558L183.161,-19.954L194.128,-19.954L194.128,-15.349L178.173,-15.349L178.173,-37.987ZM203.113,-37.987L208.101,-37.987L208.101,-19.954L217.342,-19.954L217.342,-15.349L203.113,-15.349L203.113,-37.987ZM224.887,-37.987L232.369,-37.987C234.18,-37.987 235.902,-37.785 237.533,-37.38C239.164,-36.975 240.586,-36.319 241.801,-35.414C243.016,-34.507 243.981,-33.33 244.695,-31.88C245.409,-30.431 245.766,-28.672 245.766,-26.605C245.766,-24.771 245.42,-23.156 244.727,-21.761C244.034,-20.364 243.101,-19.192 241.929,-18.243C240.757,-17.295 239.403,-16.575 237.869,-16.085C236.334,-15.594 234.724,-15.35 233.04,-15.35L224.887,-15.35L224.887,-37.987ZM229.875,-19.954L232.465,-19.954C233.616,-19.954 234.687,-20.071 235.678,-20.306C236.67,-20.54 237.527,-20.929 238.252,-21.473C238.977,-22.016 239.547,-22.73 239.963,-23.615C240.379,-24.499 240.586,-25.581 240.586,-26.86C240.586,-27.968 240.379,-28.933 239.963,-29.754C239.547,-30.574 238.988,-31.251 238.284,-31.784C237.581,-32.317 236.754,-32.717 235.806,-32.983C234.858,-33.25 233.861,-33.383 232.817,-33.383L229.875,-33.383L229.875,-19.954ZM248.992,-33.976C248.992,-34.549 249.099,-35.082 249.314,-35.573C249.529,-36.064 249.82,-36.489 250.185,-36.847C250.551,-37.206 250.978,-37.487 251.465,-37.692C251.953,-37.896 252.472,-37.998 253.025,-37.998C253.569,-37.998 254.088,-37.896 254.579,-37.692C255.07,-37.487 255.498,-37.208 255.864,-36.853C256.23,-36.498 256.52,-36.078 256.735,-35.594C256.95,-35.11 257.058,-34.585 257.058,-34.019C257.058,-33.445 256.95,-32.913 256.735,-32.422C256.52,-31.93 256.23,-31.506 255.864,-31.147C255.498,-30.788 255.07,-30.507 254.579,-30.303C254.088,-30.098 253.569,-29.996 253.025,-29.996C252.472,-29.996 251.953,-30.098 251.465,-30.303C250.978,-30.507 250.551,-30.787 250.185,-31.142C249.82,-31.497 249.529,-31.916 249.314,-32.4C249.099,-32.884 248.992,-33.409 248.992,-33.976ZM249.637,-33.976C249.637,-33.495 249.725,-33.049 249.9,-32.637C250.076,-32.224 250.318,-31.866 250.626,-31.561C250.934,-31.256 251.293,-31.016 251.702,-30.84C252.11,-30.665 252.551,-30.577 253.025,-30.577C253.498,-30.577 253.939,-30.665 254.348,-30.84C254.756,-31.016 255.115,-31.258 255.423,-31.566C255.731,-31.875 255.973,-32.239 256.149,-32.658C256.325,-33.078 256.412,-33.531 256.412,-34.019C256.412,-34.499 256.325,-34.947 256.149,-35.363C255.973,-35.779 255.731,-36.139 255.423,-36.444C255.115,-36.749 254.756,-36.987 254.348,-37.159C253.939,-37.331 253.498,-37.417 253.025,-37.417C252.551,-37.417 252.11,-37.329 251.702,-37.154C251.293,-36.978 250.934,-36.738 250.626,-36.433C250.318,-36.128 250.076,-35.766 249.9,-35.347C249.725,-34.927 249.637,-34.47 249.637,-33.976ZM251.53,-36.288L253.229,-36.288C253.788,-36.288 254.2,-36.182 254.466,-35.971C254.731,-35.759 254.864,-35.42 254.864,-34.954C254.864,-34.538 254.745,-34.234 254.509,-34.04C254.272,-33.847 253.982,-33.732 253.638,-33.696L254.971,-31.653L254.272,-31.653L253.003,-33.642L252.175,-33.642L252.175,-31.653L251.53,-31.653L251.53,-36.288ZM252.175,-34.223L252.971,-34.223C253.128,-34.223 253.283,-34.228 253.433,-34.239C253.584,-34.25 253.718,-34.28 253.837,-34.331C253.955,-34.381 254.048,-34.456 254.116,-34.556C254.184,-34.657 254.218,-34.8 254.218,-34.987C254.218,-35.144 254.188,-35.272 254.127,-35.368C254.066,-35.465 253.985,-35.539 253.885,-35.589C253.785,-35.639 253.672,-35.671 253.546,-35.686C253.421,-35.7 253.297,-35.707 253.175,-35.707L252.175,-35.707L252.175,-34.223Z" style="fill:rgb(50,62,72);"/>
        </g>
    </g>
</svg>
