<svg width="100%" height="100%" viewBox="0 0 800 800" version="1.1" xmlns="http://www.w3.org/2000/svg" xmlns:xlink="http://www.w3.org/1999/xlink" xml:space="preserve" xmlns:serif="http://www.serif.com/" style="fill-rule:evenodd;clip-rule:evenodd;stroke-linejoin:round;stroke-miterlimit:2;">
<style>
    .step1c{stroke:#111C4E;}
</style>
    <g transform="matrix(1.75518,0,0,1.75518,291.403,221.097)">
        <g id="Capa2">
            <path class="step2b" d="M4.473,-45.845C4.771,-46.442 5.442,-46.74 6.485,-46.74C7.43,-46.74 7.902,-46.491 7.902,-45.994C7.902,-45.845 7.914,-45.038 7.939,-43.572C7.964,-42.106 7.989,-39.969 8.014,-37.161C8.038,-34.353 8.051,-31.706 8.051,-29.222L8.274,-13.344L14.164,-14.611C17.394,-15.356 19.854,-15.729 21.544,-15.729C24.028,-15.729 25.271,-14.959 25.271,-13.418C25.271,-12.573 24.91,-11.989 24.19,-11.666C23.469,-11.343 21.817,-11.033 19.233,-10.734C15.505,-10.387 12.225,-9.666 9.393,-8.573C7.951,-7.877 6.709,-7.529 5.665,-7.529C5.168,-7.529 4.821,-7.628 4.622,-7.827C4.025,-8.424 3.727,-15.282 3.727,-28.402C3.727,-39.236 3.976,-45.05 4.473,-45.845ZM38.838,-35.558C40.677,-36.999 43.012,-37.72 45.845,-37.72C47.585,-37.72 49.026,-37.397 50.169,-36.751C51.56,-36.005 53.2,-33.707 55.089,-29.855C56.977,-26.004 57.921,-23.084 57.921,-21.096C57.921,-20.748 57.897,-20.5 57.847,-20.351C57.151,-17.667 55.648,-15.555 53.337,-14.014C51.026,-12.474 48.454,-11.704 45.622,-11.704C41.546,-11.704 38.316,-13.145 35.931,-16.027C34.191,-18.065 33.322,-20.624 33.322,-23.705C33.322,-25.991 33.806,-28.203 34.775,-30.34C35.744,-32.477 37.099,-34.216 38.838,-35.558ZM47.56,-29.743C46.069,-30.439 44.503,-30.787 42.863,-30.787C40.627,-30.787 39.31,-30.265 38.912,-29.222C38.515,-28.029 38.316,-26.215 38.316,-23.78C38.316,-21.394 38.987,-19.481 40.329,-18.04C41.671,-16.599 43.311,-15.878 45.249,-15.878C47.137,-15.878 48.951,-16.574 50.691,-17.965C52.281,-19.257 53.076,-20.748 53.076,-22.438C53.076,-23.78 52.591,-25.109 51.622,-26.426C50.653,-27.743 49.299,-28.849 47.56,-29.743ZM67.687,-32.278C69.029,-34.862 70.793,-36.751 72.98,-37.943C75.166,-39.136 76.682,-39.732 77.527,-39.732C78.57,-39.732 79.887,-39.347 81.478,-38.577C83.068,-37.807 84.435,-36.9 85.578,-35.856C86.572,-34.862 87.18,-33.732 87.404,-32.464C87.628,-31.197 87.739,-28.228 87.739,-23.556C87.69,-17.195 87.143,-12.288 86.099,-8.834C85.056,-5.38 83.316,-2.858 80.881,-1.267C78.794,0.174 76.533,0.895 74.098,0.895C71.911,0.895 70.147,0.323 68.805,-0.82C67.662,-1.764 67.091,-2.833 67.091,-4.025C67.091,-5.119 67.587,-5.665 68.581,-5.665C68.73,-5.665 69.103,-5.566 69.7,-5.367C71.041,-4.771 72.458,-4.473 73.949,-4.473C76.682,-4.473 78.695,-5.342 79.987,-7.082C80.683,-7.976 81.353,-9.542 82,-11.778C82.646,-14.014 82.969,-15.729 82.969,-16.922C82.969,-17.568 82.844,-17.891 82.596,-17.891C82.099,-17.891 80.732,-17.394 78.496,-16.4C76.16,-15.456 74.371,-14.984 73.129,-14.984C71.489,-14.984 69.898,-15.779 68.358,-17.369C66.618,-19.108 65.749,-21.494 65.749,-24.525C65.749,-27.159 66.395,-29.743 67.687,-32.278ZM81.329,-33.098C80.285,-34.142 79.167,-34.663 77.974,-34.663C76.433,-34.663 74.868,-33.868 73.278,-32.278C72.383,-31.383 71.774,-30.576 71.451,-29.855C71.128,-29.135 70.967,-28.153 70.967,-26.911C70.967,-26.165 70.992,-25.544 71.041,-25.047C71.19,-22.96 71.427,-21.643 71.75,-21.096C72.073,-20.55 72.806,-20.202 73.949,-20.053L74.545,-20.053C76.583,-20.053 78.446,-21.084 80.136,-23.146C81.826,-25.209 82.67,-27.333 82.67,-29.52C82.67,-31.011 82.223,-32.203 81.329,-33.098ZM100.934,-35.558C102.773,-36.999 105.108,-37.72 107.941,-37.72C109.681,-37.72 111.122,-37.397 112.265,-36.751C113.656,-36.005 115.296,-33.707 117.185,-29.855C119.073,-26.004 120.017,-23.084 120.017,-21.096C120.017,-20.748 119.993,-20.5 119.943,-20.351C119.247,-17.667 117.744,-15.555 115.433,-14.014C113.122,-12.474 110.55,-11.704 107.718,-11.704C103.642,-11.704 100.412,-13.145 98.027,-16.027C96.287,-18.065 95.418,-20.624 95.418,-23.705C95.418,-25.991 95.902,-28.203 96.871,-30.34C97.84,-32.477 99.195,-34.216 100.934,-35.558ZM109.656,-29.743C108.165,-30.439 106.599,-30.787 104.959,-30.787C102.723,-30.787 101.406,-30.265 101.008,-29.222C100.611,-28.029 100.412,-26.215 100.412,-23.78C100.412,-21.394 101.083,-19.481 102.425,-18.04C103.767,-16.599 105.407,-15.878 107.345,-15.878C109.233,-15.878 111.047,-16.574 112.787,-17.965C114.377,-19.257 115.172,-20.748 115.172,-22.438C115.172,-23.78 114.687,-25.109 113.718,-26.426C112.749,-27.743 111.395,-28.849 109.656,-29.743ZM125.365,85.277C125.452,85.102 125.649,85.014 125.956,85.014C126.234,85.014 126.372,85.087 126.372,85.233C126.372,85.277 126.376,85.514 126.383,85.945C126.39,86.376 126.398,87.004 126.405,87.829C126.412,88.654 126.416,89.432 126.416,90.162L126.482,94.827L128.212,94.455C129.161,94.236 129.884,94.126 130.381,94.126C131.111,94.126 131.476,94.353 131.476,94.805C131.476,95.054 131.37,95.225 131.158,95.32C130.947,95.415 130.461,95.506 129.702,95.594C128.607,95.696 127.643,95.908 126.81,96.229C126.387,96.434 126.022,96.536 125.715,96.536C125.569,96.536 125.467,96.507 125.408,96.448C125.233,96.273 125.146,94.258 125.146,90.403C125.146,87.219 125.219,85.511 125.365,85.277ZM135.463,88.3C136.003,87.876 136.689,87.665 137.522,87.665C138.033,87.665 138.456,87.759 138.792,87.949C139.201,88.168 139.683,88.844 140.238,89.975C140.793,91.107 141.07,91.965 141.07,92.549C141.07,92.651 141.063,92.725 141.048,92.768C140.844,93.557 140.402,94.178 139.723,94.63C139.044,95.083 138.288,95.309 137.456,95.309C136.259,95.309 135.309,94.886 134.608,94.039C134.097,93.44 133.842,92.688 133.842,91.783C133.842,91.111 133.984,90.461 134.269,89.833C134.554,89.205 134.952,88.694 135.463,88.3ZM138.026,90.008C137.587,89.804 137.127,89.702 136.646,89.702C135.988,89.702 135.601,89.855 135.485,90.162C135.368,90.512 135.309,91.045 135.309,91.761C135.309,92.462 135.506,93.024 135.901,93.447C136.295,93.871 136.777,94.083 137.346,94.083C137.901,94.083 138.434,93.878 138.946,93.469C139.413,93.09 139.646,92.651 139.646,92.155C139.646,91.761 139.504,91.37 139.219,90.983C138.935,90.596 138.537,90.271 138.026,90.008ZM143.94,89.264C144.334,88.504 144.852,87.949 145.495,87.599C146.138,87.248 146.583,87.073 146.831,87.073C147.138,87.073 147.525,87.186 147.992,87.413C148.459,87.639 148.861,87.905 149.197,88.212C149.489,88.504 149.668,88.836 149.734,89.209C149.799,89.581 149.832,90.454 149.832,91.826C149.818,93.696 149.657,95.138 149.35,96.153C149.044,97.167 148.532,97.909 147.817,98.376C147.204,98.799 146.539,99.011 145.824,99.011C145.181,99.011 144.663,98.843 144.268,98.507C143.932,98.23 143.765,97.916 143.765,97.565C143.765,97.244 143.911,97.084 144.203,97.084C144.246,97.084 144.356,97.113 144.531,97.171C144.925,97.346 145.342,97.434 145.78,97.434C146.583,97.434 147.174,97.178 147.554,96.667C147.758,96.404 147.956,95.944 148.145,95.287C148.335,94.63 148.43,94.126 148.43,93.776C148.43,93.586 148.394,93.491 148.321,93.491C148.175,93.491 147.773,93.637 147.116,93.929C146.43,94.207 145.904,94.345 145.539,94.345C145.057,94.345 144.59,94.112 144.137,93.644C143.626,93.133 143.37,92.432 143.37,91.542C143.37,90.768 143.56,90.008 143.94,89.264ZM147.948,89.023C147.642,88.716 147.313,88.563 146.963,88.563C146.51,88.563 146.05,88.796 145.583,89.264C145.32,89.526 145.141,89.764 145.046,89.975C144.951,90.187 144.904,90.476 144.904,90.841C144.904,91.06 144.911,91.242 144.925,91.388C144.969,92.002 145.039,92.389 145.134,92.549C145.228,92.71 145.444,92.812 145.78,92.856L145.955,92.856C146.554,92.856 147.101,92.553 147.598,91.947C148.094,91.341 148.343,90.717 148.343,90.074C148.343,89.636 148.211,89.285 147.948,89.023ZM153.709,88.3C154.25,87.876 154.936,87.665 155.768,87.665C156.279,87.665 156.703,87.759 157.039,87.949C157.448,88.168 157.93,88.844 158.484,89.975C159.039,91.107 159.317,91.965 159.317,92.549C159.317,92.651 159.31,92.725 159.295,92.768C159.09,93.557 158.649,94.178 157.97,94.63C157.291,95.083 156.535,95.309 155.703,95.309C154.505,95.309 153.556,94.886 152.855,94.039C152.344,93.44 152.088,92.688 152.088,91.783C152.088,91.111 152.231,90.461 152.515,89.833C152.8,89.205 153.198,88.694 153.709,88.3ZM156.272,90.008C155.834,89.804 155.374,89.702 154.892,89.702C154.235,89.702 153.848,89.855 153.731,90.162C153.614,90.512 153.556,91.045 153.556,91.761C153.556,92.462 153.753,93.024 154.147,93.447C154.542,93.871 155.024,94.083 155.593,94.083C156.148,94.083 156.681,93.878 157.192,93.469C157.659,93.09 157.893,92.651 157.893,92.155C157.893,91.761 157.751,91.37 157.466,90.983C157.181,90.596 156.783,90.271 156.272,90.008ZM-61.148,63.971C-61.05,63.775 -60.83,63.677 -60.487,63.677C-60.177,63.677 -60.022,63.759 -60.022,63.922C-60.022,63.971 -60.018,64.236 -60.01,64.717C-60.002,65.199 -59.994,65.9 -59.986,66.822C-59.977,67.744 -59.973,68.613 -59.973,69.429L-59.9,74.643L-57.966,74.226C-56.906,73.982 -56.098,73.859 -55.543,73.859C-54.727,73.859 -54.319,74.112 -54.319,74.618C-54.319,74.895 -54.438,75.087 -54.674,75.193C-54.911,75.299 -55.453,75.401 -56.302,75.499C-57.526,75.613 -58.603,75.85 -59.533,76.209C-60.006,76.437 -60.414,76.552 -60.757,76.552C-60.92,76.552 -61.034,76.519 -61.099,76.454C-61.295,76.258 -61.393,74.006 -61.393,69.698C-61.393,66.141 -61.311,64.232 -61.148,63.971ZM-49.865,67.349C-49.261,66.875 -48.494,66.639 -47.564,66.639C-46.993,66.639 -46.519,66.745 -46.144,66.957C-45.687,67.202 -45.149,67.956 -44.529,69.221C-43.909,70.486 -43.599,71.444 -43.599,72.097C-43.599,72.211 -43.607,72.293 -43.623,72.342C-43.852,73.223 -44.345,73.916 -45.104,74.422C-45.863,74.928 -46.707,75.181 -47.637,75.181C-48.975,75.181 -50.036,74.708 -50.819,73.761C-51.39,73.092 -51.676,72.252 -51.676,71.24C-51.676,70.49 -51.517,69.764 -51.199,69.062C-50.88,68.36 -50.436,67.789 -49.865,67.349ZM-47.001,69.258C-47.49,69.029 -48.004,68.915 -48.543,68.915C-49.277,68.915 -49.71,69.086 -49.84,69.429C-49.971,69.821 -50.036,70.416 -50.036,71.216C-50.036,71.999 -49.816,72.627 -49.375,73.1C-48.934,73.574 -48.396,73.81 -47.76,73.81C-47.14,73.81 -46.544,73.582 -45.973,73.125C-45.451,72.701 -45.19,72.211 -45.19,71.656C-45.19,71.216 -45.349,70.779 -45.667,70.347C-45.985,69.914 -46.43,69.551 -47.001,69.258ZM-40.392,68.425C-39.952,67.577 -39.372,66.957 -38.654,66.565C-37.936,66.174 -37.439,65.978 -37.161,65.978C-36.819,65.978 -36.386,66.104 -35.864,66.357C-35.342,66.61 -34.893,66.908 -34.518,67.251C-34.191,67.577 -33.992,67.948 -33.918,68.364C-33.845,68.78 -33.808,69.755 -33.808,71.289C-33.824,73.378 -34.004,74.989 -34.346,76.123C-34.689,77.257 -35.26,78.086 -36.06,78.608C-36.745,79.081 -37.488,79.318 -38.287,79.318C-39.005,79.318 -39.584,79.13 -40.025,78.755C-40.4,78.445 -40.588,78.094 -40.588,77.702C-40.588,77.343 -40.425,77.164 -40.098,77.164C-40.05,77.164 -39.927,77.196 -39.731,77.261C-39.291,77.457 -38.826,77.555 -38.336,77.555C-37.439,77.555 -36.778,77.27 -36.354,76.699C-36.125,76.405 -35.905,75.891 -35.693,75.157C-35.481,74.422 -35.374,73.859 -35.374,73.468C-35.374,73.256 -35.415,73.149 -35.497,73.149C-35.66,73.149 -36.109,73.313 -36.843,73.639C-37.61,73.949 -38.197,74.104 -38.605,74.104C-39.144,74.104 -39.666,73.843 -40.172,73.321C-40.743,72.75 -41.029,71.966 -41.029,70.971C-41.029,70.106 -40.816,69.258 -40.392,68.425ZM-35.913,68.156C-36.256,67.814 -36.623,67.642 -37.014,67.642C-37.52,67.642 -38.034,67.903 -38.556,68.425C-38.85,68.719 -39.05,68.984 -39.156,69.221C-39.262,69.458 -39.315,69.78 -39.315,70.188C-39.315,70.433 -39.307,70.637 -39.291,70.8C-39.242,71.485 -39.164,71.917 -39.058,72.097C-38.952,72.276 -38.711,72.391 -38.336,72.44L-38.14,72.44C-37.471,72.44 -36.859,72.101 -36.305,71.424C-35.75,70.747 -35.472,70.049 -35.472,69.331C-35.472,68.842 -35.619,68.45 -35.913,68.156ZM-29.476,67.349C-28.872,66.875 -28.105,66.639 -27.175,66.639C-26.604,66.639 -26.131,66.745 -25.755,66.957C-25.298,67.202 -24.76,67.956 -24.14,69.221C-23.52,70.486 -23.21,71.444 -23.21,72.097C-23.21,72.211 -23.218,72.293 -23.234,72.342C-23.463,73.223 -23.956,73.916 -24.715,74.422C-25.474,74.928 -26.318,75.181 -27.248,75.181C-28.586,75.181 -29.647,74.708 -30.43,73.761C-31.001,73.092 -31.287,72.252 -31.287,71.24C-31.287,70.49 -31.128,69.764 -30.81,69.062C-30.491,68.36 -30.047,67.789 -29.476,67.349ZM-26.612,69.258C-27.101,69.029 -27.615,68.915 -28.154,68.915C-28.888,68.915 -29.321,69.086 -29.451,69.429C-29.582,69.821 -29.647,70.416 -29.647,71.216C-29.647,71.999 -29.427,72.627 -28.986,73.1C-28.546,73.574 -28.007,73.81 -27.371,73.81C-26.751,73.81 -26.155,73.582 -25.584,73.125C-25.062,72.701 -24.801,72.211 -24.801,71.656C-24.801,71.216 -24.96,70.779 -25.278,70.347C-25.596,69.914 -26.041,69.551 -26.612,69.258Z" style="fill:rgb(17,28,78);"/>
        </g>
    </g>
</svg>