<svg width="100%" height="100%" viewBox="0 0 800 800" version="1.1" xmlns="http://www.w3.org/2000/svg" xmlns:xlink="http://www.w3.org/1999/xlink" xml:space="preserve" xmlns:serif="http://www.serif.com/" style="fill-rule:evenodd;clip-rule:evenodd;stroke-linejoin:round;stroke-miterlimit:2;">
    <g transform="matrix(0.989673,0,0,0.989673,96.8465,227.092)">
        <g>
            <path class="step3b" d="M6.936,-39.2C8.124,-39.454 9.354,-39.582 10.627,-39.582C12.451,-39.582 14.011,-39.338 15.304,-38.85C16.598,-38.362 17.245,-37.757 17.245,-37.036C17.245,-36.824 17.182,-36.591 17.054,-36.336C16.673,-35.869 14.976,-35.636 11.964,-35.636L7.382,-35.636L7.382,-26.409L11.009,-26.154C12.409,-26.07 13.353,-25.889 13.841,-25.613C14.329,-25.338 14.573,-24.86 14.573,-24.182C14.573,-23.503 14.329,-23.026 13.841,-22.75C13.353,-22.474 12.409,-22.294 11.009,-22.209L7.382,-21.954L7.382,-17.564C7.382,-14.594 7.827,-12.451 8.718,-11.136C9.185,-10.458 9.62,-10.001 10.023,-9.768C10.426,-9.535 11.009,-9.418 11.773,-9.418C12.409,-9.418 13.258,-9.482 14.318,-9.609C15.761,-9.779 16.609,-9.864 16.864,-9.864C18.009,-9.864 18.73,-9.524 19.027,-8.845C19.112,-8.676 19.154,-8.4 19.154,-8.018C19.154,-7.17 18.667,-6.47 17.691,-5.918C16.715,-5.367 15.421,-5.091 13.809,-5.091C11.348,-5.091 9.248,-5.685 7.509,-6.873C5.77,-8.061 4.624,-9.651 4.073,-11.645C3.521,-13.47 3.245,-17.245 3.245,-22.973C3.245,-27.512 3.436,-31.309 3.818,-34.363C4.073,-36.273 4.37,-37.492 4.709,-38.023C5.048,-38.553 5.791,-38.945 6.936,-39.2ZM31.436,-33.409C32.073,-33.706 32.9,-33.854 33.918,-33.854C36.039,-33.854 38.192,-33.292 40.377,-32.168C42.562,-31.044 43.654,-29.866 43.654,-28.636C43.654,-27.491 43.103,-26.918 42,-26.918C41.109,-26.918 40.112,-27.342 39.009,-28.191C37.566,-29.336 36.018,-29.909 34.363,-29.909C33.473,-29.909 32.73,-29.697 32.136,-29.273C31.542,-28.848 31.245,-28.276 31.245,-27.554C31.245,-27.3 31.266,-27.109 31.309,-26.982C31.479,-25.963 32.645,-25.157 34.809,-24.563C36.845,-23.97 38.394,-23.015 39.454,-21.7C40.515,-20.385 41.045,-18.942 41.045,-17.373C41.045,-15.379 40.239,-13.629 38.627,-12.123C37.015,-10.617 34.851,-9.864 32.136,-9.864C30.779,-9.864 29.432,-10.404 28.095,-11.486C26.759,-12.568 26.091,-13.703 26.091,-14.891C26.091,-15.442 26.271,-15.867 26.632,-16.164C26.992,-16.461 27.406,-16.609 27.873,-16.609C28.848,-16.609 29.485,-16.185 29.782,-15.336C30.079,-14.53 31.097,-14.127 32.836,-14.127C34.279,-14.127 35.318,-14.445 35.954,-15.082C36.633,-15.761 36.973,-16.736 36.973,-18.009C36.973,-18.773 36.75,-19.335 36.304,-19.695C35.859,-20.056 34.915,-20.448 33.473,-20.873C31.012,-21.467 29.336,-22.188 28.445,-23.036C27.47,-23.885 26.982,-25.073 26.982,-26.6C26.982,-28 27.395,-29.347 28.223,-30.641C29.05,-31.935 30.121,-32.857 31.436,-33.409ZM57.463,-38.691C57.76,-38.988 58.397,-39.094 59.372,-39.009C60.221,-38.797 60.73,-37.397 60.9,-34.809C61.027,-33.027 61.218,-31.924 61.472,-31.5C61.727,-31.076 62.363,-30.8 63.381,-30.673C64.909,-30.503 65.672,-29.845 65.672,-28.7C65.672,-28.063 65.471,-27.607 65.068,-27.332C64.665,-27.056 63.912,-26.876 62.809,-26.791L59.945,-26.536L60.518,-20.236C60.815,-16.121 61.26,-13.512 61.854,-12.409C62.406,-11.348 63.106,-10.818 63.954,-10.818C64.803,-10.818 65.503,-11.348 66.054,-12.409C66.648,-13.512 67.327,-14.064 68.091,-14.064C68.981,-14.064 69.427,-13.427 69.427,-12.154C69.427,-10.797 68.833,-9.598 67.645,-8.559C66.457,-7.52 65.121,-7 63.636,-7C62.915,-7 62.257,-7.148 61.663,-7.445C60.136,-8.124 59.054,-9.259 58.418,-10.85C57.781,-12.441 57.272,-15.251 56.891,-19.282C56.339,-24.33 56,-26.918 55.872,-27.045C55.83,-27.045 55.671,-27.098 55.395,-27.204C55.119,-27.31 54.769,-27.448 54.345,-27.618C53.921,-27.788 53.497,-27.936 53.072,-28.063C51.418,-28.573 50.591,-29.209 50.591,-29.973C50.591,-30.779 51.651,-31.288 53.772,-31.5C55.257,-31.627 56.148,-31.86 56.445,-32.2C56.742,-32.539 56.891,-33.451 56.891,-34.936C56.891,-37.057 57.081,-38.309 57.463,-38.691ZM76.109,-22.591C76.109,-26.663 76.194,-29.145 76.363,-30.036C76.533,-30.927 77.021,-31.373 77.827,-31.373C78.506,-31.373 78.951,-31.192 79.163,-30.832C79.375,-30.471 79.481,-29.782 79.481,-28.763C79.481,-27.363 79.63,-26.663 79.927,-26.663C80.139,-26.663 80.627,-26.939 81.39,-27.491C82.663,-28.382 84.403,-28.827 86.609,-28.827C88.221,-28.827 89.557,-28.551 90.618,-28C91.721,-27.363 92.272,-26.367 92.272,-25.009C92.272,-23.609 91.699,-22.909 90.554,-22.909C89.409,-22.909 88.836,-23.185 88.836,-23.736C88.836,-24.33 87.987,-24.627 86.29,-24.627C84.678,-24.627 83.448,-23.97 82.6,-22.654C81.751,-21.339 81.136,-19.112 80.754,-15.973C80.542,-13.979 80.298,-12.653 80.022,-11.995C79.747,-11.338 79.29,-11.009 78.654,-11.009C77.551,-11.009 76.851,-11.688 76.554,-13.045C76.257,-14.403 76.109,-17.585 76.109,-22.591ZM105.89,-30.482C107.587,-31.203 108.839,-31.563 109.645,-31.563C110.408,-31.563 111.702,-31.203 113.527,-30.482C115.478,-29.676 116.836,-28.329 117.599,-26.441C118.363,-24.553 118.83,-21.403 118.999,-16.991C119.084,-14.191 119.127,-12.642 119.127,-12.345C119.127,-11.073 119.031,-10.277 118.84,-9.959C118.649,-9.641 118.257,-9.482 117.663,-9.482C116.984,-9.482 116.518,-9.694 116.263,-10.118C116.008,-10.542 115.796,-11.433 115.627,-12.791C115.372,-14.53 115.139,-15.4 114.927,-15.4C114.842,-15.4 114.587,-15.061 114.163,-14.382C113.527,-13.236 112.243,-12.197 110.313,-11.264C108.383,-10.33 106.59,-9.864 104.936,-9.864C103.281,-9.864 101.839,-10.542 100.609,-11.9C99.93,-12.621 99.474,-13.279 99.24,-13.873C99.007,-14.467 98.89,-15.294 98.89,-16.354C98.89,-16.694 98.933,-17.542 99.018,-18.9C99.484,-24.797 101.775,-28.657 105.89,-30.482ZM113.336,-25.963C112.445,-26.982 111.215,-27.491 109.645,-27.491C108.033,-27.491 106.696,-26.96 105.636,-25.9C104.787,-25.051 104.045,-23.715 103.409,-21.891C102.772,-20.067 102.454,-18.454 102.454,-17.054C102.454,-16.545 102.518,-16.1 102.645,-15.718C102.984,-14.615 103.981,-14.064 105.636,-14.064C106.739,-14.064 107.863,-14.382 109.008,-15.018C110.111,-15.57 111.321,-17.288 112.636,-20.173C113.654,-22.421 114.163,-23.821 114.163,-24.373C114.163,-24.882 113.887,-25.412 113.336,-25.963ZM132.872,-38.691C133.169,-38.988 133.805,-39.094 134.781,-39.009C135.63,-38.797 136.139,-37.397 136.308,-34.809C136.436,-33.027 136.626,-31.924 136.881,-31.5C137.136,-31.076 137.772,-30.8 138.79,-30.673C140.317,-30.503 141.081,-29.845 141.081,-28.7C141.081,-28.063 140.879,-27.607 140.476,-27.332C140.073,-27.056 139.32,-26.876 138.217,-26.791L135.354,-26.536L135.926,-20.236C136.223,-16.121 136.669,-13.512 137.263,-12.409C137.814,-11.348 138.514,-10.818 139.363,-10.818C140.211,-10.818 140.911,-11.348 141.463,-12.409C142.057,-13.512 142.736,-14.064 143.499,-14.064C144.39,-14.064 144.836,-13.427 144.836,-12.154C144.836,-10.797 144.242,-9.598 143.054,-8.559C141.866,-7.52 140.529,-7 139.045,-7C138.323,-7 137.666,-7.148 137.072,-7.445C135.545,-8.124 134.463,-9.259 133.827,-10.85C133.19,-12.441 132.681,-15.251 132.299,-19.282C131.748,-24.33 131.408,-26.918 131.281,-27.045C131.239,-27.045 131.08,-27.098 130.804,-27.204C130.528,-27.31 130.178,-27.448 129.754,-27.618C129.33,-27.788 128.905,-27.936 128.481,-28.063C126.827,-28.573 125.999,-29.209 125.999,-29.973C125.999,-30.779 127.06,-31.288 129.181,-31.5C130.666,-31.627 131.557,-31.86 131.854,-32.2C132.151,-32.539 132.299,-33.451 132.299,-34.936C132.299,-37.057 132.49,-38.309 132.872,-38.691ZM154.635,-27.173C156.926,-29.421 158.984,-30.545 160.808,-30.545C161.954,-30.545 163.205,-30.1 164.563,-29.209C166.048,-28.276 166.79,-26.557 166.79,-24.054C166.79,-22.951 166.599,-21.87 166.217,-20.809C165.878,-20.003 164.913,-19.165 163.322,-18.295C161.731,-17.426 160.32,-16.991 159.09,-16.991C158.242,-16.991 157.817,-16.842 157.817,-16.545C157.817,-16.333 157.987,-15.888 158.326,-15.209C158.623,-14.657 158.888,-14.286 159.122,-14.095C159.355,-13.904 159.748,-13.809 160.299,-13.809C161.105,-13.809 163.035,-14.191 166.09,-14.954C166.684,-15.082 167.129,-15.145 167.426,-15.145C168.063,-15.145 168.381,-14.657 168.381,-13.682C168.381,-11.942 166.09,-10.585 161.508,-9.609C161.381,-9.567 161.169,-9.545 160.872,-9.545C159.302,-9.545 157.754,-10.288 156.226,-11.773C154.699,-13.257 153.808,-14.933 153.554,-16.8C153.129,-19.006 152.642,-20.682 152.09,-21.827C151.835,-22.336 151.708,-22.782 151.708,-23.164C151.708,-23.885 152.684,-25.221 154.635,-27.173ZM159.599,-21.382C159.726,-21.339 159.896,-21.318 160.108,-21.318C160.872,-21.318 161.561,-21.604 162.176,-22.177C162.791,-22.75 163.099,-23.418 163.099,-24.182C163.099,-24.521 162.993,-24.945 162.781,-25.454C162.399,-26.26 162.017,-26.663 161.635,-26.663C161.296,-26.663 160.723,-26.451 159.917,-26.027C158.517,-25.306 157.817,-24.351 157.817,-23.164C157.817,-22.103 158.411,-21.509 159.599,-21.382ZM176.844,-27.554C177.99,-29.76 179.496,-31.373 181.363,-32.391C183.229,-33.409 184.523,-33.918 185.244,-33.918C186.135,-33.918 187.26,-33.589 188.617,-32.932C189.975,-32.274 191.141,-31.5 192.117,-30.609C192.966,-29.76 193.485,-28.795 193.676,-27.713C193.867,-26.632 193.963,-24.097 193.963,-20.109C193.92,-14.679 193.453,-10.489 192.563,-7.541C191.672,-4.592 190.187,-2.439 188.108,-1.082C186.326,0.148 184.396,0.764 182.317,0.764C180.45,0.764 178.944,0.276 177.799,-0.7C176.823,-1.506 176.335,-2.418 176.335,-3.436C176.335,-4.37 176.76,-4.836 177.608,-4.836C177.735,-4.836 178.054,-4.751 178.563,-4.582C179.708,-4.073 180.917,-3.818 182.19,-3.818C184.523,-3.818 186.241,-4.561 187.344,-6.045C187.938,-6.809 188.511,-8.145 189.063,-10.054C189.614,-11.964 189.89,-13.427 189.89,-14.445C189.89,-14.997 189.784,-15.273 189.572,-15.273C189.147,-15.273 187.981,-14.848 186.072,-14C184.078,-13.194 182.55,-12.791 181.49,-12.791C180.09,-12.791 178.732,-13.47 177.417,-14.827C175.932,-16.312 175.19,-18.348 175.19,-20.936C175.19,-23.185 175.741,-25.391 176.844,-27.554ZM188.49,-28.254C187.599,-29.145 186.644,-29.591 185.626,-29.591C184.311,-29.591 182.975,-28.912 181.617,-27.554C180.854,-26.791 180.334,-26.101 180.058,-25.486C179.782,-24.871 179.644,-24.033 179.644,-22.973C179.644,-22.336 179.666,-21.806 179.708,-21.382C179.835,-19.6 180.037,-18.476 180.313,-18.009C180.588,-17.542 181.214,-17.245 182.19,-17.118L182.699,-17.118C184.438,-17.118 186.029,-17.998 187.472,-19.759C188.914,-21.52 189.635,-23.333 189.635,-25.2C189.635,-26.473 189.253,-27.491 188.49,-28.254ZM201.026,-40.282C201.662,-41.088 202.49,-41.491 203.508,-41.491C203.55,-41.491 203.614,-41.48 203.699,-41.459C203.784,-41.438 203.847,-41.427 203.89,-41.427C204.569,-41.342 205.035,-41.098 205.29,-40.695C205.544,-40.292 205.672,-39.603 205.672,-38.627C205.672,-37.566 205.544,-36.877 205.29,-36.559C205.035,-36.241 204.484,-36.082 203.635,-36.082C202.702,-36.082 201.928,-36.347 201.312,-36.877C200.697,-37.407 200.39,-38.012 200.39,-38.691C200.39,-39.285 200.602,-39.815 201.026,-40.282ZM201.408,-31.245C201.62,-31.839 202.129,-32.136 202.935,-32.136C202.978,-32.136 203.041,-32.126 203.126,-32.104C203.211,-32.083 203.275,-32.073 203.317,-32.073C203.996,-31.945 204.42,-31.341 204.59,-30.259C204.759,-29.177 204.844,-26.579 204.844,-22.464C204.844,-18.136 204.759,-15.506 204.59,-14.573C204.42,-13.639 203.932,-13.173 203.126,-13.173C202.362,-13.173 201.875,-13.618 201.662,-14.509C201.45,-15.4 201.281,-17.754 201.153,-21.573L201.153,-24.754C201.153,-28.615 201.238,-30.779 201.408,-31.245ZM219.226,-30.482C220.923,-31.203 222.174,-31.563 222.981,-31.563C223.744,-31.563 225.038,-31.203 226.862,-30.482C228.814,-29.676 230.171,-28.329 230.935,-26.441C231.699,-24.553 232.165,-21.403 232.335,-16.991C232.42,-14.191 232.462,-12.642 232.462,-12.345C232.462,-11.073 232.367,-10.277 232.176,-9.959C231.985,-9.641 231.593,-9.482 230.999,-9.482C230.32,-9.482 229.853,-9.694 229.599,-10.118C229.344,-10.542 229.132,-11.433 228.962,-12.791C228.708,-14.53 228.474,-15.4 228.262,-15.4C228.177,-15.4 227.923,-15.061 227.499,-14.382C226.862,-13.236 225.579,-12.197 223.649,-11.264C221.718,-10.33 219.926,-9.864 218.271,-9.864C216.617,-9.864 215.175,-10.542 213.944,-11.9C213.265,-12.621 212.809,-13.279 212.576,-13.873C212.343,-14.467 212.226,-15.294 212.226,-16.354C212.226,-16.694 212.268,-17.542 212.353,-18.9C212.82,-24.797 215.111,-28.657 219.226,-30.482ZM226.671,-25.963C225.781,-26.982 224.55,-27.491 222.981,-27.491C221.368,-27.491 220.032,-26.96 218.971,-25.9C218.123,-25.051 217.381,-23.715 216.744,-21.891C216.108,-20.067 215.79,-18.454 215.79,-17.054C215.79,-16.545 215.853,-16.1 215.981,-15.718C216.32,-14.615 217.317,-14.064 218.971,-14.064C220.075,-14.064 221.199,-14.382 222.344,-15.018C223.447,-15.57 224.656,-17.288 225.971,-20.173C226.99,-22.421 227.499,-23.821 227.499,-24.373C227.499,-24.882 227.223,-25.412 226.671,-25.963ZM-5.155,5.3C-4.816,4.875 -4.095,4.663 -2.992,4.663C-2.567,4.663 -2.313,4.748 -2.228,4.918C-2.228,4.96 -2.207,5.639 -2.164,6.954C-2.122,8.269 -2.058,10.21 -1.973,12.777C-1.889,15.344 -1.804,17.836 -1.719,20.254C-1.592,24.454 -1.528,27.593 -1.528,29.672C-1.528,31.963 -1.613,33.512 -1.783,34.318C-1.952,35.124 -2.249,35.612 -2.673,35.781C-3.013,35.866 -3.331,35.909 -3.628,35.909C-4.307,35.909 -4.816,35.76 -5.155,35.463C-5.452,35.209 -5.792,35.081 -6.173,35.081C-6.555,35.081 -7.086,35.315 -7.764,35.781C-8.867,36.587 -10.289,36.99 -12.028,36.99C-14.446,36.99 -16.334,36.248 -17.692,34.763C-18.582,33.83 -19.145,32.875 -19.378,31.9C-19.611,30.924 -19.728,29.078 -19.728,26.363C-19.728,22.757 -19.251,20.053 -18.296,18.25C-17.342,16.447 -15.719,15.227 -13.428,14.591C-12.664,14.336 -12.028,14.209 -11.519,14.209C-10.628,14.209 -9.546,14.697 -8.273,15.672L-5.728,17.518L-5.728,11.663C-5.728,7.718 -5.537,5.597 -5.155,5.3ZM-9.355,19.554C-10.501,18.791 -11.413,18.409 -12.092,18.409C-12.77,18.409 -13.534,18.854 -14.383,19.745C-15.613,21.145 -16.228,23.372 -16.228,26.427C-16.228,28.081 -16.005,29.566 -15.56,30.881C-15.114,32.197 -14.489,33.003 -13.683,33.3C-13.343,33.384 -13.067,33.427 -12.855,33.427C-11.879,33.427 -10.787,33.003 -9.578,32.154C-8.369,31.306 -7.489,30.287 -6.937,29.1C-6.47,28.166 -6.237,27.148 -6.237,26.045C-6.237,23.203 -7.276,21.039 -9.355,19.554ZM7.954,18.281C10.245,16.033 12.302,14.909 14.126,14.909C15.272,14.909 16.523,15.354 17.881,16.245C19.366,17.178 20.108,18.897 20.108,21.4C20.108,22.503 19.917,23.584 19.535,24.645C19.196,25.451 18.231,26.289 16.64,27.159C15.049,28.028 13.639,28.463 12.408,28.463C11.56,28.463 11.136,28.612 11.136,28.909C11.136,29.121 11.305,29.566 11.645,30.245C11.942,30.797 12.207,31.168 12.44,31.359C12.673,31.55 13.066,31.645 13.617,31.645C14.423,31.645 16.354,31.263 19.408,30.5C20.002,30.372 20.448,30.309 20.745,30.309C21.381,30.309 21.699,30.797 21.699,31.772C21.699,33.512 19.408,34.869 14.826,35.845C14.699,35.887 14.487,35.909 14.19,35.909C12.62,35.909 11.072,35.166 9.545,33.681C8.017,32.197 7.126,30.521 6.872,28.654C6.448,26.448 5.96,24.772 5.408,23.627C5.154,23.118 5.026,22.672 5.026,22.29C5.026,21.569 6.002,20.233 7.954,18.281ZM12.917,24.072C13.045,24.115 13.214,24.136 13.426,24.136C14.19,24.136 14.879,23.85 15.495,23.277C16.11,22.704 16.417,22.036 16.417,21.272C16.417,20.933 16.311,20.509 16.099,20C15.717,19.194 15.336,18.791 14.954,18.791C14.614,18.791 14.042,19.003 13.236,19.427C11.836,20.148 11.136,21.103 11.136,22.29C11.136,23.351 11.729,23.945 12.917,24.072ZM44.735,13.827C45.16,12.978 45.626,12.554 46.135,12.554C47.026,12.554 47.641,13.869 47.981,16.5L48.363,20.191L50.335,17.518C51.65,15.694 53.326,14.781 55.363,14.781C56.975,14.781 58.332,15.397 59.435,16.627L60.963,18.281L63.253,16.181C64.823,14.654 66.287,13.891 67.644,13.891C69.214,13.891 70.465,14.909 71.399,16.945C72.332,18.981 72.799,21.845 72.799,25.536C72.799,30.839 72.056,33.49 70.572,33.49C70.317,33.49 70.02,33.427 69.681,33.3C69.044,33.003 68.726,32.112 68.726,30.627C68.726,29.397 68.769,28.336 68.853,27.445C68.938,26.172 68.981,25.218 68.981,24.581C68.981,22.418 68.769,20.742 68.344,19.554L67.326,17.009L65.926,19.045C65.035,20.191 64.102,22.736 63.126,26.681C62.575,28.972 62.119,30.478 61.758,31.2C61.397,31.921 60.878,32.281 60.199,32.281C59.52,32.281 59.043,31.921 58.767,31.2C58.491,30.478 58.205,28.866 57.908,26.363C57.272,21.315 56.381,18.791 55.235,18.791C54.938,18.791 54.578,18.96 54.153,19.3C52.372,20.784 50.866,24.072 49.635,29.163C48.829,32.6 48.002,34.318 47.154,34.318C46.814,34.318 46.432,34.106 46.008,33.681C45.584,33.257 45.191,31.359 44.831,27.986C44.47,24.613 44.29,21.442 44.29,18.472C44.29,15.927 44.438,14.378 44.735,13.827ZM86.417,14.972C88.114,14.251 89.365,13.891 90.171,13.891C90.935,13.891 92.229,14.251 94.053,14.972C96.005,15.778 97.362,17.125 98.126,19.013C98.89,20.901 99.356,24.051 99.526,28.463C99.611,31.263 99.653,32.812 99.653,33.109C99.653,34.381 99.558,35.177 99.367,35.495C99.176,35.813 98.784,35.972 98.19,35.972C97.511,35.972 97.044,35.76 96.79,35.336C96.535,34.912 96.323,34.021 96.153,32.663C95.899,30.924 95.665,30.054 95.453,30.054C95.368,30.054 95.114,30.393 94.69,31.072C94.053,32.218 92.77,33.257 90.84,34.19C88.909,35.124 87.117,35.59 85.462,35.59C83.808,35.59 82.365,34.912 81.135,33.554C80.456,32.833 80,32.175 79.767,31.581C79.534,30.987 79.417,30.16 79.417,29.1C79.417,28.76 79.459,27.912 79.544,26.554C80.011,20.657 82.302,16.797 86.417,14.972ZM93.862,19.491C92.971,18.472 91.741,17.963 90.171,17.963C88.559,17.963 87.223,18.494 86.162,19.554C85.314,20.403 84.571,21.739 83.935,23.563C83.299,25.387 82.981,27 82.981,28.4C82.981,28.909 83.044,29.354 83.171,29.736C83.511,30.839 84.508,31.39 86.162,31.39C87.265,31.39 88.39,31.072 89.535,30.436C90.638,29.884 91.847,28.166 93.162,25.281C94.181,23.033 94.69,21.633 94.69,21.081C94.69,20.572 94.414,20.042 93.862,19.491ZM106.208,22.863C106.208,18.791 106.293,16.309 106.462,15.418C106.632,14.527 107.12,14.081 107.926,14.081C108.605,14.081 109.05,14.262 109.262,14.622C109.474,14.983 109.58,15.672 109.58,16.691C109.58,18.091 109.729,18.791 110.026,18.791C110.238,18.791 110.726,18.515 111.49,17.963C112.762,17.072 114.502,16.627 116.708,16.627C118.32,16.627 119.656,16.903 120.717,17.454C121.82,18.091 122.371,19.087 122.371,20.445C122.371,21.845 121.799,22.545 120.653,22.545C119.508,22.545 118.935,22.269 118.935,21.718C118.935,21.124 118.086,20.827 116.389,20.827C114.777,20.827 113.547,21.484 112.699,22.8C111.85,24.115 111.235,26.342 110.853,29.481C110.641,31.475 110.397,32.801 110.121,33.459C109.846,34.116 109.39,34.445 108.753,34.445C107.65,34.445 106.95,33.766 106.653,32.409C106.356,31.051 106.208,27.869 106.208,22.863ZM129.244,5.172C129.498,4.366 130.05,3.963 130.898,3.963C130.941,3.963 130.994,3.974 131.058,3.995C131.121,4.016 131.174,4.027 131.217,4.027C131.853,4.154 132.298,4.78 132.553,5.904C132.808,7.028 133.02,9.436 133.189,13.127L133.571,21.845L137.771,17.963C140.571,15.418 142.268,14.145 142.862,14.145C143.032,14.145 143.244,14.241 143.498,14.431C143.753,14.622 143.88,14.845 143.88,15.1C143.88,16.033 142.692,17.687 140.317,20.063L136.244,24.263L138.026,26.109C139.298,27.509 140.508,29.206 141.653,31.2C142.798,33.193 143.371,34.615 143.371,35.463C143.371,36.481 142.947,36.99 142.098,36.99C141.547,36.99 140.995,36.768 140.444,36.322C139.892,35.877 139.447,35.272 139.108,34.509C138.556,33.066 137.389,31.454 135.608,29.672L133.189,27.318L133.189,30.245C133.189,31.815 132.914,33.14 132.362,34.222C131.811,35.304 131.195,35.845 130.517,35.845C130.177,35.845 129.902,35.739 129.689,35.527C129.053,35.018 128.735,33.596 128.735,31.263C128.735,30.754 128.82,28.93 128.989,25.79C129.159,23.287 129.244,20.297 129.244,16.818C129.244,14.272 129.202,12.597 129.117,11.791C129.032,10.094 128.989,8.885 128.989,8.163C128.989,6.551 129.074,5.554 129.244,5.172ZM153.617,18.281C155.907,16.033 157.965,14.909 159.789,14.909C160.935,14.909 162.186,15.354 163.544,16.245C165.029,17.178 165.771,18.897 165.771,21.4C165.771,22.503 165.58,23.584 165.198,24.645C164.859,25.451 163.894,26.289 162.303,27.159C160.712,28.028 159.301,28.463 158.071,28.463C157.223,28.463 156.798,28.612 156.798,28.909C156.798,29.121 156.968,29.566 157.307,30.245C157.604,30.797 157.87,31.168 158.103,31.359C158.336,31.55 158.729,31.645 159.28,31.645C160.086,31.645 162.016,31.263 165.071,30.5C165.665,30.372 166.11,30.309 166.407,30.309C167.044,30.309 167.362,30.797 167.362,31.772C167.362,33.512 165.071,34.869 160.489,35.845C160.362,35.887 160.15,35.909 159.853,35.909C158.283,35.909 156.735,35.166 155.207,33.681C153.68,32.197 152.789,30.521 152.535,28.654C152.11,26.448 151.623,24.772 151.071,23.627C150.817,23.118 150.689,22.672 150.689,22.29C150.689,21.569 151.665,20.233 153.617,18.281ZM158.58,24.072C158.707,24.115 158.877,24.136 159.089,24.136C159.853,24.136 160.542,23.85 161.157,23.277C161.773,22.704 162.08,22.036 162.08,21.272C162.08,20.933 161.974,20.509 161.762,20C161.38,19.194 160.998,18.791 160.616,18.791C160.277,18.791 159.704,19.003 158.898,19.427C157.498,20.148 156.798,21.103 156.798,22.29C156.798,23.351 157.392,23.945 158.58,24.072ZM181.235,6.763C181.532,6.466 182.168,6.36 183.144,6.445C183.992,6.657 184.501,8.057 184.671,10.645C184.798,12.427 184.989,13.53 185.244,13.954C185.498,14.378 186.135,14.654 187.153,14.781C188.68,14.951 189.444,15.609 189.444,16.754C189.444,17.391 189.242,17.847 188.839,18.122C188.436,18.398 187.683,18.578 186.58,18.663L183.716,18.918L184.289,25.218C184.586,29.333 185.032,31.942 185.625,33.045C186.177,34.106 186.877,34.636 187.725,34.636C188.574,34.636 189.274,34.106 189.825,33.045C190.419,31.942 191.098,31.39 191.862,31.39C192.753,31.39 193.198,32.027 193.198,33.3C193.198,34.657 192.604,35.856 191.416,36.895C190.228,37.934 188.892,38.454 187.407,38.454C186.686,38.454 186.028,38.306 185.435,38.009C183.907,37.33 182.825,36.195 182.189,34.604C181.553,33.013 181.044,30.203 180.662,26.172C180.11,21.124 179.771,18.536 179.644,18.409C179.601,18.409 179.442,18.356 179.166,18.25C178.891,18.144 178.541,18.006 178.116,17.836C177.692,17.666 177.268,17.518 176.844,17.391C175.189,16.881 174.362,16.245 174.362,15.481C174.362,14.675 175.422,14.166 177.544,13.954C179.029,13.827 179.919,13.594 180.216,13.254C180.513,12.915 180.662,12.003 180.662,10.518C180.662,8.397 180.853,7.145 181.235,6.763ZM200.516,5.172C201.153,4.366 201.98,3.963 202.998,3.963C203.04,3.963 203.104,3.974 203.189,3.995C203.274,4.016 203.337,4.027 203.38,4.027C204.059,4.112 204.525,4.356 204.78,4.759C205.034,5.162 205.162,5.851 205.162,6.827C205.162,7.888 205.034,8.577 204.78,8.895C204.525,9.213 203.974,9.372 203.125,9.372C202.192,9.372 201.418,9.107 200.803,8.577C200.187,8.047 199.88,7.442 199.88,6.763C199.88,6.169 200.092,5.639 200.516,5.172ZM200.898,14.209C201.11,13.615 201.619,13.318 202.425,13.318C202.468,13.318 202.531,13.328 202.616,13.35C202.701,13.371 202.765,13.381 202.807,13.381C203.486,13.509 203.91,14.113 204.08,15.195C204.25,16.277 204.334,18.875 204.334,22.99C204.334,27.318 204.25,29.948 204.08,30.881C203.91,31.815 203.422,32.281 202.616,32.281C201.853,32.281 201.365,31.836 201.153,30.945C200.941,30.054 200.771,27.7 200.644,23.881L200.644,20.7C200.644,16.839 200.728,14.675 200.898,14.209ZM211.653,20.191L211.653,18.409C211.653,16.5 211.748,15.301 211.939,14.813C212.13,14.325 212.543,14.081 213.18,14.081C213.646,14.081 214.103,14.241 214.548,14.559C214.993,14.877 215.28,15.269 215.407,15.736C215.662,16.584 215.937,17.009 216.234,17.009C216.531,17.009 217.04,16.733 217.762,16.181C218.822,15.418 220.01,15.036 221.325,15.036C223.659,15.036 225.727,16.245 227.53,18.663C229.333,21.081 230.234,24.009 230.234,27.445C230.234,32.112 229.365,34.445 227.625,34.445C226.904,34.445 226.459,34.159 226.289,33.586C226.119,33.013 226.034,31.603 226.034,29.354C226.034,26.427 225.631,23.998 224.825,22.068C224.019,20.137 223.022,19.172 221.834,19.172C220.604,19.172 219.671,19.777 219.034,20.986C218.398,22.195 217.804,24.475 217.253,27.827C216.786,30.457 216.393,32.143 216.075,32.886C215.757,33.628 215.259,34 214.58,34C212.671,34 211.695,29.397 211.653,20.191ZM238.507,17.9C239.652,15.694 241.158,14.081 243.025,13.063C244.892,12.045 246.186,11.536 246.907,11.536C247.798,11.536 248.922,11.865 250.28,12.522C251.637,13.18 252.804,13.954 253.78,14.845C254.628,15.694 255.148,16.659 255.339,17.741C255.53,18.822 255.625,21.357 255.625,25.345C255.583,30.775 255.116,34.965 254.225,37.913C253.334,40.862 251.849,43.015 249.771,44.372C247.989,45.602 246.058,46.218 243.98,46.218C242.113,46.218 240.607,45.73 239.462,44.754C238.486,43.948 237.998,43.036 237.998,42.018C237.998,41.084 238.422,40.618 239.271,40.618C239.398,40.618 239.716,40.703 240.225,40.872C241.371,41.381 242.58,41.636 243.852,41.636C246.186,41.636 247.904,40.893 249.007,39.409C249.601,38.645 250.174,37.309 250.725,35.4C251.277,33.49 251.552,32.027 251.552,31.009C251.552,30.457 251.446,30.181 251.234,30.181C250.81,30.181 249.643,30.606 247.734,31.454C245.74,32.26 244.213,32.663 243.152,32.663C241.752,32.663 240.395,31.984 239.08,30.627C237.595,29.142 236.852,27.106 236.852,24.518C236.852,22.269 237.404,20.063 238.507,17.9ZM250.152,17.2C249.261,16.309 248.307,15.863 247.289,15.863C245.974,15.863 244.637,16.542 243.28,17.9C242.516,18.663 241.996,19.353 241.721,19.968C241.445,20.583 241.307,21.421 241.307,22.481C241.307,23.118 241.328,23.648 241.371,24.072C241.498,25.854 241.699,26.978 241.975,27.445C242.251,27.912 242.877,28.209 243.852,28.336L244.361,28.336C246.101,28.336 247.692,27.456 249.134,25.695C250.577,23.934 251.298,22.121 251.298,20.254C251.298,18.981 250.916,17.963 250.152,17.2ZM388.665,427.486C390.277,425.874 391.422,424.835 392.101,424.368C392.78,423.901 393.565,423.668 394.456,423.668C395.05,423.668 395.792,423.732 396.683,423.859C398.465,424.029 400.066,424.548 401.488,425.418C402.909,426.288 403.619,427.125 403.619,427.932C403.619,428.228 403.492,428.504 403.238,428.759C402.898,429.098 402.453,429.268 401.901,429.268C401.35,429.268 400.522,429.077 399.419,428.695C398.147,428.271 396.874,428.059 395.601,428.059C395.219,428.059 394.774,428.101 394.265,428.186C392.738,428.568 391.232,429.915 389.747,432.227C388.262,434.539 387.392,436.904 387.138,439.322C387.01,440.213 386.947,440.934 386.947,441.486C386.947,442.292 387.127,442.981 387.488,443.554C387.848,444.127 388.58,444.965 389.683,446.068C391.635,448.019 393.522,448.995 395.347,448.995C396.662,448.995 398.104,448.528 399.674,447.595C400.777,446.916 401.541,446.577 401.965,446.577C402.304,446.577 402.644,446.831 402.983,447.34C403.153,447.637 403.238,447.934 403.238,448.231C403.238,448.868 402.728,449.631 401.71,450.522C399.886,452.177 397.765,453.004 395.347,453.004C393.183,453.004 391.115,452.336 389.142,451C387.169,449.663 385.589,447.807 384.401,445.431C383.341,443.183 382.81,441.55 382.81,440.531C382.81,439.895 383.022,438.559 383.447,436.522C383.871,434.571 384.422,433.001 385.101,431.813C385.78,430.625 386.968,429.183 388.665,427.486ZM417.428,431.304C419.125,430.583 420.377,430.222 421.183,430.222C421.946,430.222 423.24,430.583 425.065,431.304C427.016,432.11 428.374,433.457 429.137,435.345C429.901,437.233 430.368,440.383 430.537,444.795C430.622,447.595 430.665,449.144 430.665,449.44C430.665,450.713 430.569,451.509 430.378,451.827C430.187,452.145 429.795,452.304 429.201,452.304C428.522,452.304 428.056,452.092 427.801,451.668C427.546,451.243 427.334,450.353 427.165,448.995C426.91,447.256 426.677,446.386 426.465,446.386C426.38,446.386 426.125,446.725 425.701,447.404C425.065,448.55 423.781,449.589 421.851,450.522C419.921,451.456 418.128,451.922 416.474,451.922C414.819,451.922 413.377,451.243 412.147,449.886C411.468,449.165 411.012,448.507 410.778,447.913C410.545,447.319 410.428,446.492 410.428,445.431C410.428,445.092 410.471,444.244 410.556,442.886C411.022,436.989 413.313,433.128 417.428,431.304ZM424.874,435.822C423.983,434.804 422.753,434.295 421.183,434.295C419.571,434.295 418.234,434.825 417.174,435.886C416.325,436.734 415.583,438.071 414.947,439.895C414.31,441.719 413.992,443.331 413.992,444.731C413.992,445.241 414.056,445.686 414.183,446.068C414.522,447.171 415.519,447.722 417.174,447.722C418.277,447.722 419.401,447.404 420.547,446.768C421.65,446.216 422.859,444.498 424.174,441.613C425.192,439.365 425.701,437.965 425.701,437.413C425.701,436.904 425.425,436.374 424.874,435.822ZM437.283,436.522L437.283,434.741C437.283,432.831 437.378,431.633 437.569,431.145C437.76,430.657 438.174,430.413 438.81,430.413C439.277,430.413 439.733,430.572 440.178,430.891C440.624,431.209 440.91,431.601 441.037,432.068C441.292,432.916 441.568,433.341 441.865,433.341C442.162,433.341 442.671,433.065 443.392,432.513C444.452,431.75 445.64,431.368 446.955,431.368C449.289,431.368 451.357,432.577 453.16,434.995C454.963,437.413 455.864,440.341 455.864,443.777C455.864,448.444 454.995,450.777 453.255,450.777C452.534,450.777 452.089,450.49 451.919,449.918C451.749,449.345 451.665,447.934 451.665,445.686C451.665,442.759 451.261,440.33 450.455,438.4C449.649,436.469 448.652,435.504 447.465,435.504C446.234,435.504 445.301,436.109 444.665,437.318C444.028,438.527 443.434,440.807 442.883,444.159C442.416,446.789 442.024,448.475 441.705,449.218C441.387,449.96 440.889,450.331 440.21,450.331C438.301,450.331 437.325,445.728 437.283,436.522ZM469.483,431.304C471.18,430.583 472.431,430.222 473.237,430.222C474.001,430.222 475.295,430.583 477.119,431.304C479.07,432.11 480.428,433.457 481.192,435.345C481.955,437.233 482.422,440.383 482.592,444.795C482.676,447.595 482.719,449.144 482.719,449.44C482.719,450.713 482.623,451.509 482.433,451.827C482.242,452.145 481.849,452.304 481.255,452.304C480.576,452.304 480.11,452.092 479.855,451.668C479.601,451.243 479.389,450.353 479.219,448.995C478.964,447.256 478.731,446.386 478.519,446.386C478.434,446.386 478.18,446.725 477.755,447.404C477.119,448.55 475.836,449.589 473.905,450.522C471.975,451.456 470.183,451.922 468.528,451.922C466.874,451.922 465.431,451.243 464.201,449.886C463.522,449.165 463.066,448.507 462.833,447.913C462.599,447.319 462.483,446.492 462.483,445.431C462.483,445.092 462.525,444.244 462.61,442.886C463.077,436.989 465.367,433.128 469.483,431.304ZM476.928,435.822C476.037,434.804 474.807,434.295 473.237,434.295C471.625,434.295 470.289,434.825 469.228,435.886C468.38,436.734 467.637,438.071 467.001,439.895C466.364,441.719 466.046,443.331 466.046,444.731C466.046,445.241 466.11,445.686 466.237,446.068C466.577,447.171 467.574,447.722 469.228,447.722C470.331,447.722 471.455,447.404 472.601,446.768C473.704,446.216 474.913,444.498 476.228,441.613C477.246,439.365 477.755,437.965 477.755,437.413C477.755,436.904 477.48,436.374 476.928,435.822ZM489.401,447.659C489.273,446.131 489.21,441.656 489.21,434.231C489.21,426.807 489.284,422.332 489.432,420.804C489.581,419.277 490.037,418.513 490.801,418.513C491.437,418.513 491.893,418.842 492.169,419.5C492.445,420.157 492.71,421.547 492.964,423.668C493.304,427.486 493.473,431.007 493.473,434.231C493.473,437.413 493.304,440.913 492.964,444.731C492.71,446.853 492.445,448.242 492.169,448.9C491.893,449.557 491.437,449.886 490.801,449.886C490.037,449.886 489.57,449.144 489.401,447.659ZM503.019,434.613C505.31,432.365 507.367,431.241 509.191,431.241C510.337,431.241 511.588,431.686 512.946,432.577C514.431,433.51 515.173,435.228 515.173,437.731C515.173,438.834 514.982,439.916 514.601,440.977C514.261,441.783 513.296,442.621 511.705,443.491C510.114,444.36 508.704,444.795 507.473,444.795C506.625,444.795 506.201,444.944 506.201,445.241C506.201,445.453 506.37,445.898 506.71,446.577C507.007,447.128 507.272,447.5 507.505,447.69C507.738,447.881 508.131,447.977 508.682,447.977C509.488,447.977 511.419,447.595 514.473,446.831C515.067,446.704 515.513,446.64 515.81,446.64C516.446,446.64 516.764,447.128 516.764,448.104C516.764,449.844 514.473,451.201 509.891,452.177C509.764,452.219 509.552,452.24 509.255,452.24C507.685,452.24 506.137,451.498 504.61,450.013C503.082,448.528 502.191,446.853 501.937,444.986C501.513,442.78 501.025,441.104 500.473,439.959C500.219,439.45 500.092,439.004 500.092,438.622C500.092,437.901 501.067,436.565 503.019,434.613ZM507.982,440.404C508.11,440.447 508.279,440.468 508.491,440.468C509.255,440.468 509.944,440.181 510.56,439.609C511.175,439.036 511.482,438.368 511.482,437.604C511.482,437.265 511.376,436.841 511.164,436.331C510.782,435.525 510.401,435.122 510.019,435.122C509.679,435.122 509.107,435.334 508.301,435.759C506.901,436.48 506.201,437.434 506.201,438.622C506.201,439.683 506.794,440.277 507.982,440.404ZM528.855,428.377C529.491,428.08 530.319,427.932 531.337,427.932C533.458,427.932 535.611,428.494 537.796,429.618C539.981,430.742 541.073,431.919 541.073,433.15C541.073,434.295 540.522,434.868 539.419,434.868C538.528,434.868 537.531,434.444 536.428,433.595C534.985,432.45 533.437,431.877 531.782,431.877C530.891,431.877 530.149,432.089 529.555,432.513C528.961,432.938 528.664,433.51 528.664,434.231C528.664,434.486 528.685,434.677 528.728,434.804C528.897,435.822 530.064,436.628 532.228,437.222C534.264,437.816 535.813,438.771 536.873,440.086C537.934,441.401 538.464,442.844 538.464,444.413C538.464,446.407 537.658,448.157 536.046,449.663C534.434,451.169 532.27,451.922 529.555,451.922C528.197,451.922 526.85,451.381 525.514,450.3C524.178,449.218 523.51,448.083 523.51,446.895C523.51,446.344 523.69,445.919 524.05,445.622C524.411,445.325 524.825,445.177 525.291,445.177C526.267,445.177 526.903,445.601 527.2,446.45C527.497,447.256 528.516,447.659 530.255,447.659C531.697,447.659 532.737,447.34 533.373,446.704C534.052,446.025 534.391,445.05 534.391,443.777C534.391,443.013 534.169,442.451 533.723,442.091C533.278,441.73 532.334,441.337 530.891,440.913C528.431,440.319 526.755,439.598 525.864,438.75C524.888,437.901 524.4,436.713 524.4,435.186C524.4,433.786 524.814,432.439 525.641,431.145C526.469,429.851 527.54,428.928 528.855,428.377ZM578.237,421.632C578.576,421.207 579.297,420.995 580.4,420.995C580.824,420.995 581.079,421.08 581.164,421.25C581.164,421.292 581.185,421.971 581.227,423.286C581.27,424.601 581.333,426.542 581.418,429.109C581.503,431.675 581.588,434.168 581.673,436.586C581.8,440.786 581.864,443.925 581.864,446.004C581.864,448.295 581.779,449.844 581.609,450.65C581.44,451.456 581.143,451.943 580.718,452.113C580.379,452.198 580.061,452.24 579.764,452.24C579.085,452.24 578.576,452.092 578.237,451.795C577.94,451.54 577.6,451.413 577.218,451.413C576.837,451.413 576.306,451.647 575.627,452.113C574.524,452.919 573.103,453.322 571.364,453.322C568.946,453.322 567.058,452.58 565.7,451.095C564.809,450.162 564.247,449.207 564.014,448.231C563.781,447.256 563.664,445.41 563.664,442.695C563.664,439.089 564.141,436.384 565.096,434.581C566.05,432.778 567.673,431.559 569.964,430.922C570.727,430.668 571.364,430.541 571.873,430.541C572.764,430.541 573.846,431.028 575.118,432.004L577.664,433.85L577.664,427.995C577.664,424.05 577.855,421.929 578.237,421.632ZM574.037,435.886C572.891,435.122 571.979,434.741 571.3,434.741C570.621,434.741 569.858,435.186 569.009,436.077C567.779,437.477 567.164,439.704 567.164,442.759C567.164,444.413 567.387,445.898 567.832,447.213C568.277,448.528 568.903,449.334 569.709,449.631C570.049,449.716 570.324,449.759 570.537,449.759C571.512,449.759 572.605,449.334 573.814,448.486C575.023,447.637 575.903,446.619 576.455,445.431C576.921,444.498 577.155,443.48 577.155,442.377C577.155,439.534 576.115,437.371 574.037,435.886ZM591.346,434.613C593.636,432.365 595.694,431.241 597.518,431.241C598.664,431.241 599.915,431.686 601.273,432.577C602.758,433.51 603.5,435.228 603.5,437.731C603.5,438.834 603.309,439.916 602.927,440.977C602.588,441.783 601.623,442.621 600.032,443.491C598.441,444.36 597.03,444.795 595.8,444.795C594.952,444.795 594.527,444.944 594.527,445.241C594.527,445.453 594.697,445.898 595.036,446.577C595.333,447.128 595.599,447.5 595.832,447.69C596.065,447.881 596.458,447.977 597.009,447.977C597.815,447.977 599.745,447.595 602.8,446.831C603.394,446.704 603.839,446.64 604.136,446.64C604.773,446.64 605.091,447.128 605.091,448.104C605.091,449.844 602.8,451.201 598.218,452.177C598.091,452.219 597.879,452.24 597.582,452.24C596.012,452.24 594.464,451.498 592.936,450.013C591.409,448.528 590.518,446.853 590.264,444.986C589.839,442.78 589.352,441.104 588.8,439.959C588.546,439.45 588.418,439.004 588.418,438.622C588.418,437.901 589.394,436.565 591.346,434.613ZM596.309,440.404C596.436,440.447 596.606,440.468 596.818,440.468C597.582,440.468 598.271,440.181 598.886,439.609C599.502,439.036 599.809,438.368 599.809,437.604C599.809,437.265 599.703,436.841 599.491,436.331C599.109,435.525 598.727,435.122 598.345,435.122C598.006,435.122 597.433,435.334 596.627,435.759C595.227,436.48 594.527,437.434 594.527,438.622C594.527,439.683 595.121,440.277 596.309,440.404ZM356.846,477.522C358.543,476.419 360.325,475.867 362.192,475.867C364.313,475.867 366.18,476.631 367.792,478.158C369.361,479.728 370.146,480.937 370.146,481.785C370.146,482.379 369.743,482.825 368.937,483.122C368.852,483.164 368.704,483.185 368.492,483.185C367.601,483.185 366.646,482.634 365.628,481.531C364.525,480.385 363.359,479.813 362.128,479.813C360.474,479.813 358.777,480.81 357.037,482.804C355.68,484.331 355.001,485.71 355.001,486.94C355.001,487.873 355.425,488.934 356.274,490.122C357.122,491.352 358.416,491.967 360.155,491.967C361.471,491.967 362.722,491.543 363.91,490.695C364.971,489.888 365.946,489.485 366.837,489.485C367.94,489.485 368.492,490.037 368.492,491.14C368.492,492.413 367.633,493.505 365.915,494.417C364.196,495.329 362.149,495.785 359.774,495.785C357.992,495.785 356.719,495.648 355.956,495.372C355.192,495.096 354.386,494.449 353.537,493.431C352.18,491.819 351.501,489.825 351.501,487.449C351.501,485.498 351.978,483.61 352.933,481.785C353.887,479.961 355.192,478.54 356.846,477.522ZM381.537,476.885C383.107,475.655 385.101,475.04 387.519,475.04C389.004,475.04 390.234,475.316 391.21,475.867C392.398,476.504 393.798,478.466 395.41,481.754C397.022,485.042 397.828,487.534 397.828,489.231C397.828,489.528 397.807,489.74 397.764,489.867C397.17,492.158 395.887,493.961 393.914,495.276C391.942,496.591 389.746,497.249 387.328,497.249C383.849,497.249 381.092,496.019 379.055,493.558C377.571,491.819 376.828,489.634 376.828,487.004C376.828,485.052 377.242,483.164 378.069,481.34C378.896,479.516 380.052,478.031 381.537,476.885ZM388.983,481.849C387.71,481.255 386.374,480.958 384.974,480.958C383.064,480.958 381.94,481.404 381.601,482.295C381.261,483.313 381.092,484.861 381.092,486.94C381.092,488.976 381.664,490.61 382.81,491.84C383.955,493.07 385.355,493.685 387.01,493.685C388.622,493.685 390.17,493.091 391.655,491.904C393.013,490.801 393.692,489.528 393.692,488.085C393.692,486.94 393.278,485.805 392.451,484.681C391.623,483.557 390.467,482.613 388.983,481.849ZM404.828,475.613C405.252,474.764 405.719,474.34 406.228,474.34C407.119,474.34 407.734,475.655 408.073,478.285L408.455,481.976L410.428,479.304C411.743,477.479 413.419,476.567 415.455,476.567C417.067,476.567 418.425,477.182 419.528,478.413L421.055,480.067L423.346,477.967C424.916,476.44 426.379,475.676 427.737,475.676C429.307,475.676 430.558,476.695 431.491,478.731C432.425,480.767 432.891,483.631 432.891,487.322C432.891,492.625 432.149,495.276 430.664,495.276C430.41,495.276 430.113,495.213 429.773,495.085C429.137,494.788 428.819,493.898 428.819,492.413C428.819,491.182 428.861,490.122 428.946,489.231C429.031,487.958 429.073,487.004 429.073,486.367C429.073,484.204 428.861,482.528 428.437,481.34L427.419,478.795L426.019,480.831C425.128,481.976 424.195,484.522 423.219,488.467C422.667,490.758 422.211,492.264 421.851,492.985C421.49,493.707 420.97,494.067 420.292,494.067C419.613,494.067 419.135,493.707 418.86,492.985C418.584,492.264 418.298,490.652 418.001,488.149C417.364,483.101 416.473,480.576 415.328,480.576C415.031,480.576 414.67,480.746 414.246,481.085C412.464,482.57 410.958,485.858 409.728,490.949C408.922,494.385 408.095,496.104 407.246,496.104C406.907,496.104 406.525,495.891 406.101,495.467C405.676,495.043 405.284,493.144 404.923,489.772C404.563,486.399 404.383,483.228 404.383,480.258C404.383,477.713 404.531,476.164 404.828,475.613ZM439.573,477.458C439.87,475.634 440.57,474.722 441.673,474.722C442.394,474.722 442.861,474.998 443.073,475.549C443.285,476.101 443.391,477.373 443.391,479.367C443.391,483.695 443.922,487.332 444.982,490.281C446.043,493.229 447.316,494.704 448.8,494.704C449.097,494.704 449.373,494.64 449.628,494.513C450.731,494.088 451.643,492.731 452.364,490.44C453.085,488.149 453.446,485.434 453.446,482.295C453.446,479.919 453.531,478.307 453.7,477.458C453.87,476.61 454.231,476.079 454.782,475.867C454.952,475.782 455.206,475.74 455.546,475.74C456.903,475.74 457.582,477.861 457.582,482.104C457.582,486.94 456.723,490.949 455.005,494.131C453.287,497.313 451.197,498.904 448.737,498.904C447.507,498.904 446.34,498.501 445.237,497.694C444.049,496.846 443.01,495.637 442.119,494.067C441.44,492.752 440.814,490.557 440.241,487.481C439.669,484.405 439.382,481.764 439.382,479.558C439.382,478.752 439.446,478.052 439.573,477.458ZM464.137,481.976L464.137,480.195C464.137,478.285 464.232,477.087 464.423,476.599C464.614,476.111 465.028,475.867 465.664,475.867C466.131,475.867 466.587,476.026 467.032,476.345C467.478,476.663 467.764,477.055 467.891,477.522C468.146,478.37 468.422,478.795 468.719,478.795C469.015,478.795 469.525,478.519 470.246,477.967C471.306,477.204 472.494,476.822 473.809,476.822C476.143,476.822 478.211,478.031 480.014,480.449C481.817,482.867 482.718,485.795 482.718,489.231C482.718,493.898 481.849,496.231 480.109,496.231C479.388,496.231 478.943,495.944 478.773,495.372C478.603,494.799 478.518,493.388 478.518,491.14C478.518,488.213 478.115,485.784 477.309,483.854C476.503,481.923 475.506,480.958 474.318,480.958C473.088,480.958 472.155,481.563 471.518,482.772C470.882,483.981 470.288,486.261 469.737,489.613C469.27,492.243 468.878,493.929 468.559,494.672C468.241,495.414 467.743,495.785 467.064,495.785C465.155,495.785 464.179,491.182 464.137,481.976ZM489.846,466.958C490.482,466.152 491.309,465.749 492.327,465.749C492.37,465.749 492.434,465.76 492.518,465.781C492.603,465.802 492.667,465.813 492.709,465.813C493.388,465.898 493.855,466.142 494.109,466.545C494.364,466.948 494.491,467.637 494.491,468.613C494.491,469.673 494.364,470.363 494.109,470.681C493.855,470.999 493.303,471.158 492.455,471.158C491.521,471.158 490.747,470.893 490.132,470.363C489.517,469.833 489.209,469.228 489.209,468.549C489.209,467.955 489.421,467.425 489.846,466.958ZM490.227,475.995C490.44,475.401 490.949,475.104 491.755,475.104C491.797,475.104 491.861,475.114 491.946,475.136C492.03,475.157 492.094,475.167 492.137,475.167C492.815,475.295 493.24,475.899 493.409,476.981C493.579,478.063 493.664,480.661 493.664,484.776C493.664,489.104 493.579,491.734 493.409,492.667C493.24,493.601 492.752,494.067 491.946,494.067C491.182,494.067 490.694,493.622 490.482,492.731C490.27,491.84 490.1,489.485 489.973,485.667L489.973,482.485C489.973,478.625 490.058,476.461 490.227,475.995ZM506.455,477.522C508.152,476.419 509.933,475.867 511.8,475.867C513.921,475.867 515.788,476.631 517.4,478.158C518.97,479.728 519.755,480.937 519.755,481.785C519.755,482.379 519.352,482.825 518.545,483.122C518.461,483.164 518.312,483.185 518.1,483.185C517.209,483.185 516.255,482.634 515.236,481.531C514.133,480.385 512.967,479.813 511.736,479.813C510.082,479.813 508.385,480.81 506.646,482.804C505.288,484.331 504.609,485.71 504.609,486.94C504.609,487.873 505.033,488.934 505.882,490.122C506.73,491.352 508.024,491.967 509.764,491.967C511.079,491.967 512.33,491.543 513.518,490.695C514.579,489.888 515.555,489.485 516.446,489.485C517.549,489.485 518.1,490.037 518.1,491.14C518.1,492.413 517.241,493.505 515.523,494.417C513.805,495.329 511.758,495.785 509.382,495.785C507.6,495.785 506.327,495.648 505.564,495.372C504.8,495.096 503.994,494.449 503.146,493.431C501.788,491.819 501.109,489.825 501.109,487.449C501.109,485.498 501.587,483.61 502.541,481.785C503.496,479.961 504.8,478.54 506.455,477.522ZM533.436,476.758C535.133,476.037 536.385,475.676 537.191,475.676C537.954,475.676 539.248,476.037 541.073,476.758C543.024,477.564 544.382,478.911 545.145,480.799C545.909,482.687 546.376,485.837 546.545,490.249C546.63,493.049 546.673,494.598 546.673,494.894C546.673,496.167 546.577,496.963 546.386,497.281C546.195,497.599 545.803,497.758 545.209,497.758C544.53,497.758 544.064,497.546 543.809,497.122C543.554,496.697 543.342,495.807 543.173,494.449C542.918,492.71 542.685,491.84 542.473,491.84C542.388,491.84 542.133,492.179 541.709,492.858C541.073,494.004 539.789,495.043 537.859,495.976C535.929,496.91 534.136,497.376 532.482,497.376C530.827,497.376 529.385,496.697 528.155,495.34C527.476,494.619 527.02,493.961 526.786,493.367C526.553,492.773 526.436,491.946 526.436,490.885C526.436,490.546 526.479,489.698 526.564,488.34C527.03,482.443 529.321,478.582 533.436,476.758ZM540.882,481.276C539.991,480.258 538.761,479.749 537.191,479.749C535.579,479.749 534.242,480.279 533.182,481.34C532.333,482.188 531.591,483.525 530.955,485.349C530.318,487.173 530,488.785 530,490.185C530,490.695 530.064,491.14 530.191,491.522C530.53,492.625 531.527,493.176 533.182,493.176C534.285,493.176 535.409,492.858 536.554,492.222C537.658,491.67 538.867,489.952 540.182,487.067C541.2,484.819 541.709,483.419 541.709,482.867C541.709,482.358 541.433,481.828 540.882,481.276ZM558.763,477.522C560.46,476.419 562.242,475.867 564.109,475.867C566.23,475.867 568.097,476.631 569.709,478.158C571.279,479.728 572.063,480.937 572.063,481.785C572.063,482.379 571.66,482.825 570.854,483.122C570.769,483.164 570.621,483.185 570.409,483.185C569.518,483.185 568.563,482.634 567.545,481.531C566.442,480.385 565.276,479.813 564.045,479.813C562.391,479.813 560.694,480.81 558.954,482.804C557.597,484.331 556.918,485.71 556.918,486.94C556.918,487.873 557.342,488.934 558.191,490.122C559.039,491.352 560.333,491.967 562.073,491.967C563.388,491.967 564.639,491.543 565.827,490.695C566.888,489.888 567.863,489.485 568.754,489.485C569.857,489.485 570.409,490.037 570.409,491.14C570.409,492.413 569.55,493.505 567.832,494.417C566.113,495.329 564.066,495.785 561.691,495.785C559.909,495.785 558.636,495.648 557.873,495.372C557.109,495.096 556.303,494.449 555.454,493.431C554.097,491.819 553.418,489.825 553.418,487.449C553.418,485.498 553.895,483.61 554.85,481.785C555.804,479.961 557.109,478.54 558.763,477.522ZM579.254,466.958C579.891,466.152 580.718,465.749 581.736,465.749C581.778,465.749 581.842,465.76 581.927,465.781C582.012,465.802 582.075,465.813 582.118,465.813C582.797,465.898 583.263,466.142 583.518,466.545C583.772,466.948 583.9,467.637 583.9,468.613C583.9,469.673 583.772,470.363 583.518,470.681C583.263,470.999 582.712,471.158 581.863,471.158C580.93,471.158 580.156,470.893 579.541,470.363C578.925,469.833 578.618,469.228 578.618,468.549C578.618,467.955 578.83,467.425 579.254,466.958ZM579.636,475.995C579.848,475.401 580.357,475.104 581.163,475.104C581.206,475.104 581.269,475.114 581.354,475.136C581.439,475.157 581.503,475.167 581.545,475.167C582.224,475.295 582.648,475.899 582.818,476.981C582.988,478.063 583.072,480.661 583.072,484.776C583.072,489.104 582.988,491.734 582.818,492.667C582.648,493.601 582.16,494.067 581.354,494.067C580.591,494.067 580.103,493.622 579.891,492.731C579.678,491.84 579.509,489.485 579.382,485.667L579.382,482.485C579.382,478.625 579.466,476.461 579.636,475.995ZM595.163,476.885C596.733,475.655 598.727,475.04 601.145,475.04C602.63,475.04 603.86,475.316 604.836,475.867C606.024,476.504 607.424,478.466 609.036,481.754C610.648,485.042 611.454,487.534 611.454,489.231C611.454,489.528 611.433,489.74 611.39,489.867C610.796,492.158 609.513,493.961 607.54,495.276C605.568,496.591 603.372,497.249 600.954,497.249C597.475,497.249 594.718,496.019 592.681,493.558C591.197,491.819 590.454,489.634 590.454,487.004C590.454,485.052 590.868,483.164 591.695,481.34C592.522,479.516 593.678,478.031 595.163,476.885ZM602.609,481.849C601.336,481.255 600,480.958 598.6,480.958C596.691,480.958 595.566,481.404 595.227,482.295C594.887,483.313 594.718,484.861 594.718,486.94C594.718,488.976 595.291,490.61 596.436,491.84C597.581,493.07 598.981,493.685 600.636,493.685C602.248,493.685 603.797,493.091 605.281,491.904C606.639,490.801 607.318,489.528 607.318,488.085C607.318,486.94 606.904,485.805 606.077,484.681C605.25,483.557 604.093,482.613 602.609,481.849ZM618.072,481.976L618.072,480.195C618.072,478.285 618.168,477.087 618.359,476.599C618.549,476.111 618.963,475.867 619.599,475.867C620.066,475.867 620.522,476.026 620.968,476.345C621.413,476.663 621.699,477.055 621.827,477.522C622.081,478.37 622.357,478.795 622.654,478.795C622.951,478.795 623.46,478.519 624.181,477.967C625.242,477.204 626.43,476.822 627.745,476.822C630.078,476.822 632.146,478.031 633.949,480.449C635.752,482.867 636.654,485.795 636.654,489.231C636.654,493.898 635.784,496.231 634.045,496.231C633.324,496.231 632.878,495.944 632.708,495.372C632.539,494.799 632.454,493.388 632.454,491.14C632.454,488.213 632.051,485.784 631.245,483.854C630.439,481.923 629.442,480.958 628.254,480.958C627.024,480.958 626.09,481.563 625.454,482.772C624.818,483.981 624.224,486.261 623.672,489.613C623.206,492.243 622.813,493.929 622.495,494.672C622.177,495.414 621.678,495.785 620.999,495.785C619.09,495.785 618.115,491.182 618.072,481.976ZM607.717,472.233C606.839,472.889 605.593,472.707 604.938,471.829C604.283,470.95 604.463,469.705 605.342,469.05C607.057,467.771 608.343,466.169 609.683,465.198C610.572,464.555 611.814,464.755 612.456,465.642C613.099,466.53 612.901,467.773 612.012,468.415C610.684,469.376 609.414,470.966 607.717,472.233Z" style="fill:rgb(0,83,191);"/>
        </g>
    </g>
</svg>
