<svg width="100%" height="100%" viewBox="0 0 800 800" version="1.1" xmlns="http://www.w3.org/2000/svg" xmlns:xlink="http://www.w3.org/1999/xlink" xml:space="preserve" xmlns:serif="http://www.serif.com/" stroke-width="3" style="fill-rule:evenodd;clip-rule:evenodd;stroke-linejoin:round;stroke-miterlimit:2;">
<style>
    .step1c{stroke:#0053BF;}
</style>
    <g>
        <path class="step1c" d="M395.303,457.417C394.858,470.038 395.877,481.633 395.995,500.307C396.113,519.128 394.731,582.545 394.651,605.104" style="fill:none;"/>
        <g transform="matrix(0.97446,0,0,1,6.65709,0)">
            <path class="step1c" d="M426.238,35.248C367.635,33.279 324.747,41.46 277.508,58.99C231.231,76.163 200.704,108.852 200.053,139.241C199.644,158.386 220.139,188.923 259.274,208.125C289.312,222.862 325.289,237.416 403.652,235.213C502.645,232.429 549.916,213.754 586.402,187.712C629.227,157.145 606.911,105.849 567.347,71.4C493.503,7.103 370.617,23.492 329.401,35.248" style="fill:none;"/>
        </g>
        <g transform="matrix(0.359034,-0.603021,0.61822,0.368084,76.2542,553.643)">
            <path class="step1c" d="M502.689,233.416C505.12,231.967 514.921,224.501 521.57,220.734C527.873,217.163 538.885,209.115 546.836,204.415" style="fill:none;"/>
        </g>
        <g transform="matrix(0.473727,-0.795655,0.797716,0.474955,-23.1101,677.475)">
            <path class="step1c" d="M567.806,183.22C569.113,183.013 572.108,182.54 584.315,182.27C581.223,187.889 581.342,187.691 577.492,200.049" style="fill:none;"/>
        </g>
        <g transform="matrix(0.742048,-0.870008,0.773231,0.659505,-176.75,843.871)">
            <path class="step1c" d="M565.619,178.246C566.925,178.04 572.644,182.032 582.282,180.767C580.959,188.386 580.805,193.154 581.423,199.094" style="fill:none;"/>
        </g>
        <g transform="matrix(0.191387,0,0,0.916423,322.728,-39.7084)">
            <path class="step1c" d="M396.306,92.303C397.086,97.572 403.012,137.562 403.639,158.477C404.421,184.566 400.684,184.143 399.947,210.466" style="fill:none;"/>
        </g>
        <g transform="matrix(1.01243,3.80794e-16,-1.36844e-16,0.734692,-5.98629,-3.56921)">
            <path class="step1c" d="M216.016,213.337C316.156,222.145 443.398,223.282 497.377,220.087C504.46,219.668 504.365,219.958 585.99,216.222" style="fill:none;"/>
        </g>
        <g transform="matrix(1,0,0,1.00532,21.88,-10.8091)">
            <path class="step1c" d="M374.115,520.442C374.115,580.061 284.258,554.028 246.314,707.912" style="fill:none;"/>
        </g>
        <g transform="matrix(1,0,0,1.1187,-19.3169,-80.0477)">
            <path class="step1c" d="M415.312,527.391C415.312,577.952 515.504,594.094 557.014,698.056" style="fill:none;"/>
        </g>
        <g transform="matrix(0.988566,0,0,1,1.89918,0)">
            <path class="step1c" d="M166.095,600.943C192.124,571.439 227.76,555.618 278.262,543.098C324.517,531.632 398.26,511.412 398.26,475.976" style="fill:none;"/>
        </g>
        <g transform="matrix(-0.988082,0,0,1,789.898,5.65595)">
            <path class="step1c" d="M166.095,600.943C192.124,571.439 227.76,555.618 278.262,543.098C324.517,531.632 399.048,511.089 399.048,475.653" style="fill:none;"/>
        </g>
    </g>
</svg>