<svg width="100%" height="100%" viewBox="0 0 800 800" version="1.1" xmlns="http://www.w3.org/2000/svg" xmlns:xlink="http://www.w3.org/1999/xlink" xml:space="preserve" xmlns:serif="http://www.serif.com/" stroke-width="3" style="fill-rule:evenodd;clip-rule:evenodd;stroke-linejoin:round;stroke-miterlimit:2;">
<style>
    .step2d{stroke:#0053BF;}
</style>
    <g>
        <g transform="matrix(1.09936,0,0,1.11219,-25.4015,-59.1813)">
            <path class="step2d" d="M495.625,521.967C506.978,517.357 525.683,514.498 527.723,515.672C529.948,516.953 539.392,536.732 560.584,536.732C573.13,536.732 587.074,527.401 591.527,515.672C617.565,517.379 628.477,525.657 633.572,532.492C652.081,557.322 670.14,577.465 673.36,586.571C676.772,596.217 648.565,613.53 645.75,614.691C645.04,613.913 635.459,603.04 626.886,593.868C627.01,675.376 626.547,695.118 622.205,738.201C611.547,740.003 556.154,754.298 502.055,738.201C496.584,700.678 495.807,665.577 495.625,590.564C482.329,602.311 482.73,607.241 473.55,614.691C466.073,606.677 452.807,594.586 445.33,586.571C452.356,572.826 470.514,551.672 473.55,545.239C479.154,533.363 490.942,523.869 495.625,521.967Z" style="fill:none;"/>
        </g>
        <path class="step2d" d="M98.508,309.086C98.508,309.086 201.901,295.399 267.21,298.465C332.519,301.532 410.88,298.537 419.493,309.086C428.106,319.634 421.872,493.933 419.493,548.126C417.114,602.318 420.773,727.23 420.133,746.535C419.493,765.84 390.657,756.051 370.409,756.311C350.162,756.571 238.004,759.219 205.804,758.77C173.603,758.321 120.638,761.279 106.837,756.311C93.036,751.343 97.964,750.334 98.508,729.17C99.052,708.005 91.822,568.057 92.376,489.574C92.93,411.09 88.312,299.453 98.508,309.086Z" style="fill:none;"/>
        <path class="step2d" d="M494.416,325.714C494.416,325.714 569.602,323.67 607.201,323.28C644.799,322.889 684.688,319.897 683.748,325.714C682.809,331.531 684.866,360.779 683.748,385.13C682.631,409.481 686.833,431.069 683.748,439.72C680.663,448.37 680.724,448.042 663.158,448.128C645.593,448.213 562.779,450.281 544.995,448.128C527.212,445.975 509.972,450.35 502.849,448.128C495.725,445.906 491.191,448.996 492.415,439.72C493.638,430.443 487.112,338.905 494.416,325.714Z" style="fill:none;"/>
        <path class="step2d" d="M470.346,586.702C473.993,589.914 479.107,594.505 483.201,598.573C485.903,601.259 494.682,608.882 496.591,612.693" style="fill:none;"/>
        <path class="step2d" d="M710.009,588.511C701.467,599.975 698.131,604.034 684.522,612.693" style="fill:none;"/>
        <path class="step2d" d="M549.738,522.597C551.238,526.2 562.601,546.925 592.645,546.275C615.883,545.773 629.552,524.347 631.4,521.05" style="fill:none;"/>
        <g transform="matrix(1,0,0,1.60478,0,-455.481)">
            <path class="step2d" d="M526.689,754.501C543.653,756.125 561.479,760.49 610.48,758.42C631.188,757.545 647.089,755.491 652.778,754.501" style="fill:none;"/>
        </g>
    </g>
</svg>