<svg width="100%" height="100%" viewBox="0 0 800 800" version="1.1" xmlns="http://www.w3.org/2000/svg" xmlns:xlink="http://www.w3.org/1999/xlink" xml:space="preserve" xmlns:serif="http://www.serif.com/" style="fill-rule:evenodd;clip-rule:evenodd;stroke-linejoin:round;stroke-miterlimit:2;">
    <g transform="matrix(1.1,0,0,1.1,206.849,397.921)">
        <path class="step1b" d="M8.125,-45.92C9.517,-46.218 10.958,-46.367 12.449,-46.367C14.586,-46.367 16.412,-46.081 17.928,-45.51C19.444,-44.938 20.202,-44.23 20.202,-43.385C20.202,-43.137 20.127,-42.863 19.978,-42.565C19.531,-42.019 17.543,-41.745 14.014,-41.745L8.647,-41.745L8.647,-30.936L12.896,-30.638C14.536,-30.539 15.642,-30.327 16.214,-30.004C16.785,-29.681 17.071,-29.122 17.071,-28.327C17.071,-27.532 16.785,-26.973 16.214,-26.65C15.642,-26.327 14.536,-26.116 12.896,-26.016L8.647,-25.718L8.647,-20.574C8.647,-17.096 9.169,-14.586 10.213,-13.045C10.759,-12.25 11.269,-11.716 11.741,-11.443C12.213,-11.169 12.896,-11.033 13.791,-11.033C14.536,-11.033 15.53,-11.107 16.773,-11.256C18.462,-11.455 19.456,-11.554 19.754,-11.554C21.096,-11.554 21.941,-11.157 22.289,-10.362C22.388,-10.163 22.438,-9.84 22.438,-9.393C22.438,-8.399 21.867,-7.579 20.724,-6.933C19.58,-6.287 18.065,-5.964 16.176,-5.964C13.294,-5.964 10.834,-6.659 8.796,-8.051C6.759,-9.442 5.417,-11.306 4.771,-13.642C4.125,-15.779 3.802,-20.202 3.802,-26.911C3.802,-32.228 4.025,-36.676 4.473,-40.254C4.771,-42.491 5.119,-43.919 5.516,-44.541C5.914,-45.162 6.784,-45.622 8.125,-45.92ZM36.825,-39.136C37.571,-39.484 38.54,-39.658 39.732,-39.658C42.217,-39.658 44.739,-38.999 47.299,-37.682C49.858,-36.366 51.138,-34.986 51.138,-33.545C51.138,-32.203 50.492,-31.533 49.2,-31.533C48.156,-31.533 46.988,-32.03 45.696,-33.023C44.006,-34.365 42.192,-35.036 40.254,-35.036C39.211,-35.036 38.341,-34.788 37.645,-34.291C36.949,-33.794 36.602,-33.123 36.602,-32.278C36.602,-31.98 36.626,-31.756 36.676,-31.607C36.875,-30.414 38.242,-29.47 40.776,-28.774C43.162,-28.079 44.975,-26.96 46.218,-25.42C47.46,-23.879 48.082,-22.19 48.082,-20.351C48.082,-18.015 47.137,-15.965 45.249,-14.201C43.36,-12.437 40.826,-11.554 37.645,-11.554C36.055,-11.554 34.477,-12.188 32.912,-13.455C31.346,-14.723 30.563,-16.052 30.563,-17.444C30.563,-18.09 30.775,-18.587 31.197,-18.934C31.62,-19.282 32.104,-19.456 32.651,-19.456C33.794,-19.456 34.539,-18.959 34.887,-17.965C35.235,-17.021 36.428,-16.549 38.465,-16.549C40.155,-16.549 41.372,-16.922 42.118,-17.667C42.913,-18.462 43.311,-19.605 43.311,-21.096C43.311,-21.991 43.05,-22.649 42.528,-23.072C42.006,-23.494 40.9,-23.954 39.211,-24.451C36.328,-25.147 34.365,-25.991 33.322,-26.985C32.179,-27.979 31.607,-29.371 31.607,-31.16C31.607,-32.8 32.092,-34.378 33.061,-35.893C34.03,-37.409 35.285,-38.49 36.825,-39.136ZM67.314,-45.323C67.662,-45.671 68.407,-45.795 69.55,-45.696C70.544,-45.448 71.141,-43.808 71.34,-40.776C71.489,-38.689 71.712,-37.397 72.01,-36.9C72.309,-36.403 73.054,-36.08 74.247,-35.931C76.036,-35.732 76.93,-34.962 76.93,-33.62C76.93,-32.874 76.694,-32.34 76.222,-32.017C75.75,-31.694 74.868,-31.483 73.576,-31.383L70.221,-31.085L70.892,-23.705C71.24,-18.885 71.762,-15.828 72.458,-14.536C73.104,-13.294 73.924,-12.673 74.918,-12.673C75.912,-12.673 76.732,-13.294 77.378,-14.536C78.073,-15.828 78.869,-16.474 79.763,-16.474C80.807,-16.474 81.329,-15.729 81.329,-14.238C81.329,-12.648 80.633,-11.244 79.241,-10.026C77.85,-8.809 76.284,-8.2 74.545,-8.2C73.7,-8.2 72.93,-8.374 72.234,-8.722C70.445,-9.517 69.178,-10.846 68.432,-12.71C67.687,-14.574 67.09,-17.866 66.643,-22.587C65.997,-28.501 65.6,-31.533 65.451,-31.682C65.401,-31.682 65.214,-31.744 64.891,-31.868C64.568,-31.992 64.158,-32.154 63.661,-32.353C63.164,-32.551 62.667,-32.725 62.171,-32.874C60.232,-33.471 59.263,-34.216 59.263,-35.111C59.263,-36.055 60.506,-36.651 62.991,-36.9C64.73,-37.049 65.774,-37.322 66.121,-37.72C66.469,-38.117 66.643,-39.186 66.643,-40.925C66.643,-43.41 66.867,-44.876 67.314,-45.323ZM89.156,-26.463C89.156,-31.234 89.255,-34.142 89.454,-35.185C89.653,-36.229 90.224,-36.751 91.169,-36.751C91.964,-36.751 92.485,-36.539 92.734,-36.117C92.982,-35.695 93.107,-34.887 93.107,-33.694C93.107,-32.054 93.281,-31.234 93.629,-31.234C93.877,-31.234 94.449,-31.557 95.343,-32.203C96.834,-33.247 98.872,-33.769 101.456,-33.769C103.344,-33.769 104.91,-33.446 106.152,-32.8C107.444,-32.054 108.09,-30.886 108.09,-29.296C108.09,-27.656 107.419,-26.836 106.078,-26.836C104.736,-26.836 104.065,-27.159 104.065,-27.805C104.065,-28.501 103.071,-28.849 101.083,-28.849C99.195,-28.849 97.753,-28.079 96.759,-26.538C95.765,-24.997 95.045,-22.388 94.598,-18.711C94.349,-16.375 94.063,-14.822 93.74,-14.052C93.417,-13.281 92.883,-12.896 92.138,-12.896C90.846,-12.896 90.026,-13.691 89.678,-15.282C89.33,-16.872 89.156,-20.599 89.156,-26.463ZM124.043,-35.707C126.031,-36.552 127.497,-36.974 128.441,-36.974C129.336,-36.974 130.851,-36.552 132.988,-35.707C135.274,-34.763 136.865,-33.185 137.759,-30.973C138.654,-28.762 139.2,-25.072 139.399,-19.904C139.499,-16.624 139.548,-14.81 139.548,-14.462C139.548,-12.971 139.436,-12.039 139.213,-11.666C138.989,-11.294 138.529,-11.107 137.834,-11.107C137.039,-11.107 136.492,-11.356 136.194,-11.853C135.896,-12.35 135.647,-13.393 135.448,-14.984C135.15,-17.021 134.877,-18.04 134.628,-18.04C134.529,-18.04 134.231,-17.642 133.734,-16.847C132.988,-15.505 131.485,-14.288 129.224,-13.194C126.963,-12.101 124.863,-11.554 122.925,-11.554C120.987,-11.554 119.297,-12.35 117.856,-13.94C117.06,-14.785 116.526,-15.555 116.253,-16.251C115.98,-16.947 115.843,-17.916 115.843,-19.158C115.843,-19.556 115.893,-20.55 115.992,-22.14C116.539,-29.048 119.222,-33.57 124.043,-35.707ZM132.765,-30.414C131.721,-31.607 130.28,-32.203 128.441,-32.203C126.553,-32.203 124.987,-31.582 123.745,-30.34C122.751,-29.346 121.881,-27.78 121.136,-25.643C120.39,-23.507 120.017,-21.618 120.017,-19.978C120.017,-19.382 120.092,-18.86 120.241,-18.413C120.639,-17.121 121.807,-16.474 123.745,-16.474C125.037,-16.474 126.354,-16.847 127.696,-17.593C128.988,-18.239 130.404,-20.251 131.945,-23.631C133.137,-26.265 133.734,-27.905 133.734,-28.551C133.734,-29.147 133.411,-29.768 132.765,-30.414ZM155.65,-45.323C155.998,-45.671 156.743,-45.795 157.886,-45.696C158.88,-45.448 159.477,-43.808 159.675,-40.776C159.824,-38.689 160.048,-37.397 160.346,-36.9C160.644,-36.403 161.39,-36.08 162.583,-35.931C164.372,-35.732 165.266,-34.962 165.266,-33.62C165.266,-32.874 165.03,-32.34 164.558,-32.017C164.086,-31.694 163.204,-31.483 161.912,-31.383L158.557,-31.085L159.228,-23.705C159.576,-18.885 160.098,-15.828 160.794,-14.536C161.44,-13.294 162.26,-12.673 163.254,-12.673C164.247,-12.673 165.067,-13.294 165.714,-14.536C166.409,-15.828 167.204,-16.474 168.099,-16.474C169.143,-16.474 169.664,-15.729 169.664,-14.238C169.664,-12.648 168.969,-11.244 167.577,-10.026C166.186,-8.809 164.62,-8.2 162.881,-8.2C162.036,-8.2 161.266,-8.374 160.57,-8.722C158.781,-9.517 157.514,-10.846 156.768,-12.71C156.023,-14.574 155.426,-17.866 154.979,-22.587C154.333,-28.501 153.935,-31.533 153.786,-31.682C153.737,-31.682 153.55,-31.744 153.227,-31.868C152.904,-31.992 152.494,-32.154 151.997,-32.353C151.5,-32.551 151.003,-32.725 150.506,-32.874C148.568,-33.471 147.599,-34.216 147.599,-35.111C147.599,-36.055 148.842,-36.651 151.326,-36.9C153.066,-37.049 154.109,-37.322 154.457,-37.72C154.805,-38.117 154.979,-39.186 154.979,-40.925C154.979,-43.41 155.203,-44.876 155.65,-45.323ZM181.144,-31.831C183.828,-34.465 186.238,-35.782 188.375,-35.782C189.717,-35.782 191.183,-35.26 192.773,-34.216C194.513,-33.123 195.382,-31.11 195.382,-28.178C195.382,-26.886 195.159,-25.619 194.712,-24.376C194.314,-23.432 193.183,-22.45 191.32,-21.432C189.456,-20.413 187.804,-19.904 186.363,-19.904C185.369,-19.904 184.872,-19.73 184.872,-19.382C184.872,-19.133 185.07,-18.611 185.468,-17.816C185.816,-17.17 186.126,-16.735 186.4,-16.512C186.673,-16.288 187.133,-16.176 187.779,-16.176C188.723,-16.176 190.984,-16.624 194.562,-17.518C195.258,-17.667 195.78,-17.742 196.128,-17.742C196.873,-17.742 197.246,-17.17 197.246,-16.027C197.246,-13.99 194.562,-12.399 189.195,-11.256C189.046,-11.207 188.798,-11.182 188.45,-11.182C186.611,-11.182 184.797,-12.051 183.008,-13.791C181.219,-15.53 180.175,-17.493 179.877,-19.68C179.38,-22.264 178.809,-24.227 178.163,-25.569C177.864,-26.165 177.715,-26.687 177.715,-27.134C177.715,-27.979 178.858,-29.545 181.144,-31.831ZM186.959,-25.047C187.108,-24.997 187.307,-24.973 187.555,-24.973C188.45,-24.973 189.257,-25.308 189.978,-25.979C190.699,-26.65 191.059,-27.433 191.059,-28.327C191.059,-28.725 190.935,-29.222 190.686,-29.818C190.239,-30.762 189.792,-31.234 189.344,-31.234C188.947,-31.234 188.276,-30.986 187.332,-30.489C185.692,-29.644 184.872,-28.526 184.872,-27.134C184.872,-25.892 185.567,-25.196 186.959,-25.047ZM207.161,-32.278C208.502,-34.862 210.267,-36.751 212.453,-37.943C214.64,-39.136 216.156,-39.732 217,-39.732C218.044,-39.732 219.361,-39.347 220.951,-38.577C222.542,-37.807 223.908,-36.9 225.051,-35.856C226.045,-34.862 226.654,-33.732 226.878,-32.464C227.101,-31.197 227.213,-28.228 227.213,-23.556C227.163,-17.195 226.617,-12.288 225.573,-8.834C224.53,-5.38 222.79,-2.858 220.355,-1.267C218.268,0.174 216.007,0.895 213.571,0.895C211.385,0.895 209.621,0.323 208.279,-0.82C207.136,-1.764 206.564,-2.833 206.564,-4.025C206.564,-5.119 207.061,-5.665 208.055,-5.665C208.204,-5.665 208.577,-5.566 209.173,-5.367C210.515,-4.771 211.931,-4.473 213.422,-4.473C216.156,-4.473 218.168,-5.342 219.46,-7.082C220.156,-7.976 220.827,-9.542 221.473,-11.778C222.119,-14.014 222.442,-15.729 222.442,-16.922C222.442,-17.568 222.318,-17.891 222.07,-17.891C221.573,-17.891 220.206,-17.394 217.97,-16.4C215.634,-15.456 213.845,-14.984 212.602,-14.984C210.962,-14.984 209.372,-15.779 207.831,-17.369C206.092,-19.108 205.222,-21.494 205.222,-24.525C205.222,-27.159 205.868,-29.743 207.161,-32.278ZM220.802,-33.098C219.759,-34.142 218.64,-34.663 217.448,-34.663C215.907,-34.663 214.342,-33.868 212.751,-32.278C211.857,-31.383 211.248,-30.576 210.925,-29.855C210.602,-29.135 210.441,-28.153 210.441,-26.911C210.441,-26.165 210.465,-25.544 210.515,-25.047C210.664,-22.96 210.9,-21.643 211.223,-21.096C211.546,-20.55 212.279,-20.202 213.422,-20.053L214.019,-20.053C216.056,-20.053 217.92,-21.084 219.61,-23.146C221.299,-25.209 222.144,-27.333 222.144,-29.52C222.144,-31.011 221.697,-32.203 220.802,-33.098ZM235.488,-47.187C236.233,-48.131 237.202,-48.603 238.395,-48.603C238.445,-48.603 238.519,-48.591 238.619,-48.566C238.718,-48.541 238.792,-48.529 238.842,-48.529C239.637,-48.429 240.184,-48.144 240.482,-47.672C240.78,-47.199 240.929,-46.392 240.929,-45.249C240.929,-44.006 240.78,-43.199 240.482,-42.826C240.184,-42.453 239.538,-42.267 238.544,-42.267C237.451,-42.267 236.544,-42.578 235.823,-43.199C235.103,-43.82 234.742,-44.528 234.742,-45.323C234.742,-46.019 234.991,-46.64 235.488,-47.187ZM235.935,-36.602C236.183,-37.297 236.78,-37.645 237.724,-37.645C237.774,-37.645 237.848,-37.633 237.948,-37.608C238.047,-37.583 238.122,-37.571 238.171,-37.571C238.966,-37.422 239.463,-36.713 239.662,-35.446C239.861,-34.179 239.96,-31.135 239.96,-26.314C239.96,-21.245 239.861,-18.164 239.662,-17.071C239.463,-15.977 238.892,-15.431 237.948,-15.431C237.053,-15.431 236.482,-15.953 236.233,-16.996C235.985,-18.04 235.786,-20.798 235.637,-25.271L235.637,-28.998C235.637,-33.52 235.736,-36.055 235.935,-36.602ZM256.808,-35.707C258.795,-36.552 260.261,-36.974 261.206,-36.974C262.1,-36.974 263.616,-36.552 265.753,-35.707C268.039,-34.763 269.629,-33.185 270.524,-30.973C271.418,-28.762 271.965,-25.072 272.164,-19.904C272.263,-16.624 272.313,-14.81 272.313,-14.462C272.313,-12.971 272.201,-12.039 271.977,-11.666C271.754,-11.294 271.294,-11.107 270.598,-11.107C269.803,-11.107 269.257,-11.356 268.958,-11.853C268.66,-12.35 268.412,-13.393 268.213,-14.984C267.915,-17.021 267.641,-18.04 267.393,-18.04C267.294,-18.04 266.995,-17.642 266.498,-16.847C265.753,-15.505 264.25,-14.288 261.988,-13.194C259.727,-12.101 257.628,-11.554 255.689,-11.554C253.751,-11.554 252.061,-12.35 250.62,-13.94C249.825,-14.785 249.291,-15.555 249.018,-16.251C248.744,-16.947 248.608,-17.916 248.608,-19.158C248.608,-19.556 248.657,-20.55 248.757,-22.14C249.303,-29.048 251.987,-33.57 256.808,-35.707ZM265.529,-30.414C264.486,-31.607 263.044,-32.203 261.206,-32.203C259.317,-32.203 257.752,-31.582 256.509,-30.34C255.515,-29.346 254.646,-27.78 253.9,-25.643C253.155,-23.507 252.782,-21.618 252.782,-19.978C252.782,-19.382 252.857,-18.86 253.006,-18.413C253.403,-17.121 254.571,-16.474 256.509,-16.474C257.801,-16.474 259.118,-16.847 260.46,-17.593C261.752,-18.239 263.169,-20.251 264.709,-23.631C265.902,-26.265 266.498,-27.905 266.498,-28.551C266.498,-29.147 266.175,-29.768 265.529,-30.414ZM315.773,-47.038C316.17,-47.535 317.015,-47.783 318.307,-47.783C318.804,-47.783 319.102,-47.684 319.202,-47.485C319.202,-47.435 319.227,-46.64 319.276,-45.1C319.326,-43.559 319.4,-41.286 319.5,-38.279C319.599,-35.272 319.699,-32.353 319.798,-29.52C319.947,-24.6 320.022,-20.922 320.022,-18.487C320.022,-15.804 319.922,-13.99 319.724,-13.045C319.525,-12.101 319.177,-11.53 318.68,-11.331C318.282,-11.231 317.91,-11.182 317.562,-11.182C316.767,-11.182 316.17,-11.356 315.773,-11.704C315.425,-12.002 315.027,-12.151 314.58,-12.151C314.133,-12.151 313.511,-11.878 312.716,-11.331C311.424,-10.387 309.759,-9.914 307.722,-9.914C304.889,-9.914 302.678,-10.784 301.087,-12.524C300.044,-13.617 299.385,-14.735 299.112,-15.878C298.838,-17.021 298.702,-19.183 298.702,-22.364C298.702,-26.588 299.261,-29.756 300.379,-31.868C301.497,-33.98 303.398,-35.409 306.082,-36.154C306.976,-36.453 307.722,-36.602 308.318,-36.602C309.362,-36.602 310.629,-36.03 312.12,-34.887L315.102,-32.725L315.102,-39.583C315.102,-44.205 315.325,-46.69 315.773,-47.038ZM310.853,-30.34C309.511,-31.234 308.442,-31.682 307.647,-31.682C306.852,-31.682 305.958,-31.16 304.964,-30.116C303.522,-28.476 302.802,-25.867 302.802,-22.289C302.802,-20.351 303.063,-18.611 303.585,-17.071C304.106,-15.53 304.839,-14.586 305.784,-14.238C306.181,-14.139 306.504,-14.089 306.753,-14.089C307.896,-14.089 309.175,-14.586 310.592,-15.58C312.008,-16.574 313.039,-17.767 313.685,-19.158C314.232,-20.251 314.505,-21.444 314.505,-22.736C314.505,-26.066 313.288,-28.6 310.853,-30.34ZM331.129,-31.831C333.813,-34.465 336.223,-35.782 338.36,-35.782C339.702,-35.782 341.168,-35.26 342.758,-34.216C344.497,-33.123 345.367,-31.11 345.367,-28.178C345.367,-26.886 345.143,-25.619 344.696,-24.376C344.299,-23.432 343.168,-22.45 341.304,-21.432C339.441,-20.413 337.788,-19.904 336.347,-19.904C335.353,-19.904 334.856,-19.73 334.856,-19.382C334.856,-19.133 335.055,-18.611 335.453,-17.816C335.8,-17.17 336.111,-16.735 336.384,-16.512C336.658,-16.288 337.117,-16.176 337.763,-16.176C338.708,-16.176 340.969,-16.624 344.547,-17.518C345.243,-17.667 345.765,-17.742 346.112,-17.742C346.858,-17.742 347.231,-17.17 347.231,-16.027C347.231,-13.99 344.547,-12.399 339.18,-11.256C339.031,-11.207 338.782,-11.182 338.434,-11.182C336.596,-11.182 334.782,-12.051 332.993,-13.791C331.203,-15.53 330.16,-17.493 329.862,-19.68C329.365,-22.264 328.793,-24.227 328.147,-25.569C327.849,-26.165 327.7,-26.687 327.7,-27.134C327.7,-27.979 328.843,-29.545 331.129,-31.831ZM336.943,-25.047C337.092,-24.997 337.291,-24.973 337.54,-24.973C338.434,-24.973 339.242,-25.308 339.962,-25.979C340.683,-26.65 341.043,-27.433 341.043,-28.327C341.043,-28.725 340.919,-29.222 340.671,-29.818C340.223,-30.762 339.776,-31.234 339.329,-31.234C338.931,-31.234 338.26,-30.986 337.316,-30.489C335.676,-29.644 334.856,-28.526 334.856,-27.134C334.856,-25.892 335.552,-25.196 336.943,-25.047ZM-25.755,19.285C-24.165,17.645 -22.127,16.825 -19.642,16.825C-17.505,16.825 -15.343,17.471 -13.157,18.763C-8.783,21.397 -6.597,25.249 -6.597,30.318C-6.597,33.548 -7.454,35.971 -9.169,37.586C-10.883,39.201 -13.579,40.158 -17.257,40.456L-22.773,40.829L-22.773,46.271C-22.773,49.749 -23.32,51.737 -24.413,52.234C-24.612,52.333 -24.935,52.383 -25.382,52.383C-26.028,52.383 -26.5,52.234 -26.798,51.936C-27.395,51.34 -27.743,46.171 -27.842,36.431C-27.942,31.759 -27.991,29.001 -27.991,28.156C-27.991,25.174 -27.855,23.199 -27.581,22.23C-27.308,21.261 -26.699,20.279 -25.755,19.285ZM-13.455,24.802C-15.095,22.764 -17.058,21.745 -19.344,21.745C-20.735,21.745 -21.642,21.907 -22.065,22.23C-22.487,22.553 -22.823,23.311 -23.071,24.503C-23.22,25.249 -23.295,26.317 -23.295,27.709C-23.295,29.051 -23.22,30.318 -23.071,31.511C-22.773,33.598 -22.425,34.815 -22.028,35.163C-21.63,35.511 -20.388,35.685 -18.3,35.685C-16.014,35.685 -14.225,35.201 -12.933,34.231C-11.641,33.262 -10.995,32.008 -10.995,30.467C-10.995,28.628 -11.815,26.74 -13.455,24.802ZM6.672,18.987C8.511,17.546 10.847,16.825 13.679,16.825C15.419,16.825 16.86,17.148 18.003,17.794C19.395,18.54 21.035,20.838 22.923,24.69C24.812,28.541 25.756,31.461 25.756,33.449C25.756,33.797 25.731,34.045 25.681,34.194C24.985,36.878 23.482,38.99 21.171,40.531C18.86,42.071 16.289,42.841 13.456,42.841C9.381,42.841 6.15,41.4 3.765,38.518C2.026,36.48 1.156,33.921 1.156,30.84C1.156,28.554 1.64,26.342 2.61,24.205C3.579,22.068 4.933,20.329 6.672,18.987ZM15.394,24.802C13.903,24.106 12.338,23.758 10.698,23.758C8.461,23.758 7.144,24.28 6.747,25.323C6.349,26.516 6.15,28.33 6.15,30.765C6.15,33.151 6.821,35.064 8.163,36.505C9.505,37.946 11.145,38.667 13.083,38.667C14.972,38.667 16.785,37.971 18.525,36.58C20.115,35.288 20.91,33.797 20.91,32.107C20.91,30.765 20.426,29.436 19.457,28.119C18.488,26.802 17.133,25.696 15.394,24.802ZM39.77,15.409C40.516,15.061 41.485,14.887 42.677,14.887C45.162,14.887 47.684,15.546 50.244,16.863C52.803,18.179 54.083,19.559 54.083,21C54.083,22.342 53.437,23.012 52.145,23.012C51.101,23.012 49.933,22.515 48.641,21.522C46.951,20.18 45.137,19.509 43.199,19.509C42.156,19.509 41.286,19.757 40.59,20.254C39.894,20.751 39.547,21.422 39.547,22.267C39.547,22.565 39.571,22.789 39.621,22.938C39.82,24.131 41.187,25.075 43.721,25.771C46.107,26.466 47.92,27.585 49.163,29.125C50.405,30.666 51.026,32.355 51.026,34.194C51.026,36.53 50.082,38.58 48.194,40.344C46.305,42.108 43.771,42.991 40.59,42.991C39,42.991 37.422,42.357 35.857,41.09C34.291,39.822 33.508,38.493 33.508,37.101C33.508,36.455 33.72,35.958 34.142,35.611C34.564,35.263 35.049,35.089 35.596,35.089C36.739,35.089 37.484,35.586 37.832,36.58C38.18,37.524 39.373,37.996 41.41,37.996C43.1,37.996 44.317,37.623 45.063,36.878C45.858,36.083 46.256,34.94 46.256,33.449C46.256,32.554 45.995,31.896 45.473,31.473C44.951,31.051 43.845,30.591 42.156,30.094C39.273,29.398 37.31,28.554 36.267,27.56C35.124,26.566 34.552,25.174 34.552,23.385C34.552,21.745 35.037,20.167 36.006,18.652C36.975,17.136 38.23,16.055 39.77,15.409ZM62.581,7.358C63.326,6.414 64.296,5.942 65.488,5.942C65.538,5.942 65.612,5.954 65.712,5.979C65.811,6.004 65.886,6.016 65.935,6.016C66.731,6.116 67.277,6.401 67.575,6.873C67.874,7.346 68.023,8.153 68.023,9.296C68.023,10.539 67.874,11.346 67.575,11.719C67.277,12.092 66.631,12.278 65.637,12.278C64.544,12.278 63.637,11.967 62.916,11.346C62.196,10.725 61.836,10.017 61.836,9.222C61.836,8.526 62.084,7.905 62.581,7.358ZM63.028,17.943C63.277,17.248 63.873,16.9 64.817,16.9C64.867,16.9 64.942,16.912 65.041,16.937C65.14,16.962 65.215,16.974 65.265,16.974C66.06,17.123 66.557,17.832 66.755,19.099C66.954,20.366 67.054,23.41 67.054,28.231C67.054,33.3 66.954,36.381 66.755,37.474C66.557,38.568 65.985,39.114 65.041,39.114C64.146,39.114 63.575,38.592 63.326,37.549C63.078,36.505 62.879,33.747 62.73,29.274L62.73,25.547C62.73,21.025 62.829,18.49 63.028,17.943ZM82.037,19.732C84.025,18.44 86.112,17.794 88.299,17.794C90.784,17.794 92.97,18.689 94.859,20.478C96.698,22.317 97.617,23.733 97.617,24.727C97.617,25.423 97.145,25.945 96.201,26.292C96.101,26.342 95.927,26.367 95.679,26.367C94.635,26.367 93.517,25.721 92.324,24.429C91.032,23.087 89.666,22.416 88.224,22.416C86.286,22.416 84.298,23.584 82.261,25.92C80.671,27.709 79.875,29.324 79.875,30.765C79.875,31.858 80.372,33.101 81.366,34.492C82.36,35.934 83.876,36.654 85.914,36.654C87.454,36.654 88.92,36.157 90.312,35.163C91.554,34.219 92.697,33.747 93.741,33.747C95.033,33.747 95.679,34.393 95.679,35.685C95.679,37.176 94.673,38.456 92.66,39.524C90.647,40.593 88.249,41.127 85.466,41.127C83.379,41.127 81.888,40.965 80.994,40.642C80.099,40.319 79.155,39.561 78.161,38.369C76.571,36.48 75.775,34.145 75.775,31.362C75.775,29.075 76.335,26.864 77.453,24.727C78.571,22.59 80.099,20.925 82.037,19.732ZM106.041,7.358C106.786,6.414 107.755,5.942 108.948,5.942C108.998,5.942 109.072,5.954 109.172,5.979C109.271,6.004 109.346,6.016 109.395,6.016C110.19,6.116 110.737,6.401 111.035,6.873C111.333,7.346 111.482,8.153 111.482,9.296C111.482,10.539 111.333,11.346 111.035,11.719C110.737,12.092 110.091,12.278 109.097,12.278C108.004,12.278 107.097,11.967 106.376,11.346C105.656,10.725 105.295,10.017 105.295,9.222C105.295,8.526 105.544,7.905 106.041,7.358ZM106.488,17.943C106.736,17.248 107.333,16.9 108.277,16.9C108.327,16.9 108.401,16.912 108.501,16.937C108.6,16.962 108.675,16.974 108.724,16.974C109.519,17.123 110.016,17.832 110.215,19.099C110.414,20.366 110.513,23.41 110.513,28.231C110.513,33.3 110.414,36.381 110.215,37.474C110.016,38.568 109.445,39.114 108.501,39.114C107.606,39.114 107.035,38.592 106.786,37.549C106.538,36.505 106.339,33.747 106.19,29.274L106.19,25.547C106.19,21.025 106.289,18.49 106.488,17.943ZM124.677,18.987C126.516,17.546 128.851,16.825 131.684,16.825C133.424,16.825 134.865,17.148 136.008,17.794C137.399,18.54 139.039,20.838 140.928,24.69C142.816,28.541 143.76,31.461 143.76,33.449C143.76,33.797 143.736,34.045 143.686,34.194C142.99,36.878 141.487,38.99 139.176,40.531C136.865,42.071 134.293,42.841 131.461,42.841C127.385,42.841 124.155,41.4 121.77,38.518C120.03,36.48 119.161,33.921 119.161,30.84C119.161,28.554 119.645,26.342 120.614,24.205C121.583,22.068 122.938,20.329 124.677,18.987ZM133.399,24.802C131.908,24.106 130.342,23.758 128.702,23.758C126.466,23.758 125.149,24.28 124.752,25.323C124.354,26.516 124.155,28.33 124.155,30.765C124.155,33.151 124.826,35.064 126.168,36.505C127.51,37.946 129.15,38.667 131.088,38.667C132.976,38.667 134.79,37.971 136.53,36.58C138.12,35.288 138.915,33.797 138.915,32.107C138.915,30.765 138.431,29.436 137.461,28.119C136.492,26.802 135.138,25.696 133.399,24.802ZM151.513,24.951L151.513,22.863C151.513,20.627 151.625,19.223 151.849,18.652C152.072,18.08 152.557,17.794 153.302,17.794C153.849,17.794 154.383,17.981 154.905,18.353C155.427,18.726 155.762,19.186 155.911,19.732C156.209,20.726 156.533,21.223 156.88,21.223C157.228,21.223 157.825,20.9 158.669,20.254C159.912,19.36 161.303,18.912 162.844,18.912C165.577,18.912 168,20.329 170.112,23.162C172.224,25.994 173.28,29.423 173.28,33.449C173.28,38.915 172.262,41.649 170.224,41.649C169.379,41.649 168.857,41.313 168.659,40.642C168.46,39.971 168.36,38.319 168.36,35.685C168.36,32.256 167.888,29.411 166.944,27.15C166,24.889 164.832,23.758 163.44,23.758C161.999,23.758 160.906,24.466 160.16,25.882C159.415,27.299 158.719,29.97 158.073,33.896C157.526,36.977 157.067,38.953 156.694,39.822C156.321,40.692 155.737,41.127 154.942,41.127C152.706,41.127 151.563,35.735 151.513,24.951ZM189.233,18.838C191.221,17.993 192.687,17.571 193.631,17.571C194.526,17.571 196.041,17.993 198.178,18.838C200.464,19.782 202.055,21.36 202.949,23.572C203.844,25.783 204.39,29.473 204.589,34.641C204.689,37.921 204.738,39.735 204.738,40.083C204.738,41.574 204.626,42.506 204.403,42.879C204.179,43.251 203.72,43.438 203.024,43.438C202.229,43.438 201.682,43.189 201.384,42.692C201.086,42.195 200.837,41.152 200.638,39.561C200.34,37.524 200.067,36.505 199.818,36.505C199.719,36.505 199.421,36.903 198.924,37.698C198.178,39.04 196.675,40.257 194.414,41.351C192.153,42.444 190.053,42.991 188.115,42.991C186.177,42.991 184.487,42.195 183.046,40.605C182.251,39.76 181.716,38.99 181.443,38.294C181.17,37.598 181.033,36.629 181.033,35.387C181.033,34.989 181.083,33.995 181.182,32.405C181.729,25.497 184.412,20.975 189.233,18.838ZM197.955,24.131C196.911,22.938 195.47,22.342 193.631,22.342C191.743,22.342 190.177,22.963 188.935,24.205C187.941,25.199 187.071,26.765 186.326,28.902C185.58,31.038 185.207,32.927 185.207,34.567C185.207,35.163 185.282,35.685 185.431,36.132C185.829,37.424 186.997,38.071 188.935,38.071C190.227,38.071 191.544,37.698 192.886,36.952C194.178,36.306 195.594,34.294 197.135,30.914C198.327,28.28 198.924,26.64 198.924,25.994C198.924,25.398 198.601,24.777 197.955,24.131ZM212.938,17.496C213.435,16.502 213.982,16.005 214.578,16.005C215.622,16.005 216.342,17.546 216.74,20.627L217.187,24.951L219.498,21.82C221.039,19.683 223.002,18.614 225.387,18.614C227.276,18.614 228.866,19.335 230.158,20.776L231.947,22.714L234.631,20.254C236.47,18.465 238.184,17.571 239.774,17.571C241.613,17.571 243.079,18.763 244.173,21.149C245.266,23.534 245.813,26.889 245.813,31.212C245.813,37.424 244.943,40.531 243.204,40.531C242.905,40.531 242.557,40.456 242.16,40.307C241.414,39.959 241.042,38.915 241.042,37.176C241.042,35.735 241.091,34.492 241.191,33.449C241.29,31.958 241.34,30.84 241.34,30.094C241.34,27.56 241.091,25.597 240.594,24.205L239.402,21.223L237.762,23.609C236.718,24.951 235.625,27.932 234.482,32.554C233.836,35.238 233.301,37.002 232.879,37.847C232.457,38.692 231.848,39.114 231.053,39.114C230.258,39.114 229.698,38.692 229.375,37.847C229.052,37.002 228.717,35.114 228.369,32.181C227.624,26.268 226.58,23.311 225.238,23.311C224.89,23.311 224.468,23.509 223.971,23.907C221.884,25.646 220.119,29.498 218.678,35.461C217.734,39.487 216.765,41.5 215.771,41.5C215.373,41.5 214.926,41.251 214.429,40.754C213.932,40.257 213.472,38.033 213.05,34.082C212.628,30.132 212.416,26.417 212.416,22.938C212.416,19.956 212.59,18.142 212.938,17.496ZM254.162,7.358C254.907,6.414 255.876,5.942 257.069,5.942C257.119,5.942 257.193,5.954 257.293,5.979C257.392,6.004 257.466,6.016 257.516,6.016C258.311,6.116 258.858,6.401 259.156,6.873C259.454,7.346 259.603,8.153 259.603,9.296C259.603,10.539 259.454,11.346 259.156,11.719C258.858,12.092 258.212,12.278 257.218,12.278C256.125,12.278 255.218,11.967 254.497,11.346C253.776,10.725 253.416,10.017 253.416,9.222C253.416,8.526 253.665,7.905 254.162,7.358ZM254.609,17.943C254.857,17.248 255.454,16.9 256.398,16.9C256.448,16.9 256.522,16.912 256.622,16.937C256.721,16.962 256.796,16.974 256.845,16.974C257.64,17.123 258.137,17.832 258.336,19.099C258.535,20.366 258.634,23.41 258.634,28.231C258.634,33.3 258.535,36.381 258.336,37.474C258.137,38.568 257.566,39.114 256.622,39.114C255.727,39.114 255.156,38.592 254.907,37.549C254.659,36.505 254.46,33.747 254.311,29.274L254.311,25.547C254.311,21.025 254.41,18.49 254.609,17.943ZM270.785,22.714C273.469,20.08 275.879,18.763 278.016,18.763C279.358,18.763 280.824,19.285 282.414,20.329C284.154,21.422 285.023,23.435 285.023,26.367C285.023,27.659 284.8,28.926 284.352,30.169C283.955,31.113 282.824,32.095 280.961,33.113C279.097,34.132 277.445,34.641 276.003,34.641C275.009,34.641 274.512,34.815 274.512,35.163C274.512,35.412 274.711,35.934 275.109,36.729C275.457,37.375 275.767,37.81 276.041,38.033C276.314,38.257 276.774,38.369 277.42,38.369C278.364,38.369 280.625,37.921 284.203,37.027C284.899,36.878 285.421,36.803 285.769,36.803C286.514,36.803 286.887,37.375 286.887,38.518C286.887,40.555 284.203,42.146 278.836,43.289C278.687,43.338 278.438,43.363 278.091,43.363C276.252,43.363 274.438,42.494 272.649,40.754C270.86,39.015 269.816,37.052 269.518,34.865C269.021,32.281 268.449,30.318 267.803,28.976C267.505,28.38 267.356,27.858 267.356,27.411C267.356,26.566 268.499,25 270.785,22.714ZM276.6,29.498C276.749,29.548 276.948,29.572 277.196,29.572C278.091,29.572 278.898,29.237 279.619,28.566C280.339,27.895 280.7,27.112 280.7,26.218C280.7,25.82 280.575,25.323 280.327,24.727C279.88,23.783 279.432,23.311 278.985,23.311C278.588,23.311 277.917,23.559 276.972,24.056C275.332,24.901 274.512,26.019 274.512,27.411C274.512,28.653 275.208,29.349 276.6,29.498ZM294.789,24.951L294.789,22.863C294.789,20.627 294.9,19.223 295.124,18.652C295.348,18.08 295.832,17.794 296.578,17.794C297.124,17.794 297.659,17.981 298.18,18.353C298.702,18.726 299.038,19.186 299.187,19.732C299.485,20.726 299.808,21.223 300.156,21.223C300.504,21.223 301.1,20.9 301.945,20.254C303.187,19.36 304.579,18.912 306.119,18.912C308.853,18.912 311.276,20.329 313.388,23.162C315.5,25.994 316.556,29.423 316.556,33.449C316.556,38.915 315.537,41.649 313.499,41.649C312.655,41.649 312.133,41.313 311.934,40.642C311.735,39.971 311.636,38.319 311.636,35.685C311.636,32.256 311.164,29.411 310.219,27.15C309.275,24.889 308.107,23.758 306.716,23.758C305.275,23.758 304.181,24.466 303.436,25.882C302.69,27.299 301.995,29.97 301.349,33.896C300.802,36.977 300.342,38.953 299.97,39.822C299.597,40.692 299.013,41.127 298.218,41.127C295.981,41.127 294.838,35.735 294.789,24.951ZM332.583,9.222C332.931,8.874 333.676,8.75 334.819,8.849C335.813,9.097 336.41,10.737 336.608,13.769C336.757,15.856 336.981,17.148 337.279,17.645C337.577,18.142 338.323,18.465 339.516,18.614C341.305,18.813 342.199,19.583 342.199,20.925C342.199,21.671 341.963,22.205 341.491,22.528C341.019,22.851 340.137,23.062 338.845,23.162L335.49,23.46L336.161,30.84C336.509,35.66 337.031,38.717 337.727,40.009C338.373,41.251 339.193,41.872 340.187,41.872C341.18,41.872 342,41.251 342.647,40.009C343.342,38.717 344.137,38.071 345.032,38.071C346.076,38.071 346.597,38.816 346.597,40.307C346.597,41.897 345.902,43.301 344.51,44.519C343.119,45.736 341.553,46.345 339.814,46.345C338.969,46.345 338.199,46.171 337.503,45.823C335.714,45.028 334.447,43.699 333.701,41.835C332.956,39.971 332.359,36.679 331.912,31.958C331.266,26.044 330.868,23.012 330.719,22.863C330.67,22.863 330.483,22.801 330.16,22.677C329.837,22.553 329.427,22.391 328.93,22.192C328.433,21.994 327.936,21.82 327.439,21.671C325.501,21.074 324.532,20.329 324.532,19.434C324.532,18.49 325.775,17.894 328.259,17.645C329.999,17.496 331.042,17.223 331.39,16.825C331.738,16.428 331.912,15.359 331.912,13.62C331.912,11.135 332.136,9.669 332.583,9.222ZM360.09,18.987C361.929,17.546 364.265,16.825 367.097,16.825C368.837,16.825 370.278,17.148 371.421,17.794C372.812,18.54 374.452,20.838 376.341,24.69C378.229,28.541 379.174,31.461 379.174,33.449C379.174,33.797 379.149,34.045 379.099,34.194C378.403,36.878 376.9,38.99 374.589,40.531C372.278,42.071 369.706,42.841 366.874,42.841C362.799,42.841 359.568,41.4 357.183,38.518C355.443,36.48 354.574,33.921 354.574,30.84C354.574,28.554 355.058,26.342 356.027,24.205C356.996,22.068 358.351,20.329 360.09,18.987ZM368.812,24.802C367.321,24.106 365.755,23.758 364.115,23.758C361.879,23.758 360.562,24.28 360.165,25.323C359.767,26.516 359.568,28.33 359.568,30.765C359.568,33.151 360.239,35.064 361.581,36.505C362.923,37.946 364.563,38.667 366.501,38.667C368.389,38.667 370.203,37.971 371.943,36.58C373.533,35.288 374.328,33.797 374.328,32.107C374.328,30.765 373.844,29.436 372.875,28.119C371.905,26.802 370.551,25.696 368.812,24.802Z" style="fill:rgb(0,83,191);"/>
    </g>
</svg>
