<svg width="100%" height="100%" viewBox="0 0 800 800" version="1.1" xmlns="http://www.w3.org/2000/svg" xmlns:xlink="http://www.w3.org/1999/xlink" xml:space="preserve" xmlns:serif="http://www.serif.com/" stroke-width="3" style="fill-rule:evenodd;clip-rule:evenodd;stroke-linejoin:round;stroke-miterlimit:2;">
<style>
    .step2a{stroke:#0053BF;}
</style>
    <g id="Capa1">
        <g transform="matrix(0.185704,0,0,0.185704,-489.166,-1841.99)">
            <path class="step2a" d="M4502.45,10240.3C4495.5,10244.9 4492.71,10250 4488.74,10257.4C4475.69,10281.6 4484.24,10318.2 4493.46,10338.5C4509.79,10374.6 4543.52,10379.4 4565.57,10365.5C4542.24,10420.1 4474.61,10387.3 4457.26,10344.9C4442.75,10309.5 4460.04,10264.5 4488.29,10246.6C4498.68,10238.9 4510.12,10233.2 4527.88,10230.7C4569.91,10222.9 4606.74,10252.9 4621.51,10277C4628.07,10287.6 4657.28,10333.5 4689.61,10384.1L4788.09,10229.5L4846.86,10321.7C4879.93,10275.2 4905.5,10238.9 4910.44,10231.4L4910.54,10255.5L4854.89,10334.3L4901.77,10407.9C4928.74,10365.8 4951.51,10330.3 4957.54,10321.3C4978.13,10290.7 5011.32,10221.1 5056.17,10232.7C5068.8,10234.8 5079.71,10239.7 5090.51,10248.4C5117.2,10267.3 5132.98,10310.6 5118.93,10344.9C5101.58,10387.3 5033.95,10420.1 5010.62,10365.5C5032.67,10379.4 5066.4,10374.6 5082.73,10338.5C5091.95,10318.2 5100.5,10281.6 5087.44,10257.4C5083.48,10250 5080.69,10244.9 5073.74,10240.3C5073.91,10240.4 5074.09,10240.4 5074.26,10240.5C5073.91,10240.3 5073.57,10240.1 5073.22,10240C5073.4,10240.1 5073.57,10240.2 5073.74,10240.3C5034.23,10229.1 5008.31,10267.3 4988.58,10297.6L4910.04,10420.9L4988.58,10544.2C5008.31,10574.5 5034.23,10612.7 5073.74,10601.5C5073.71,10601.5 5073.69,10601.5 5073.66,10601.6C5073.71,10601.5 5073.76,10601.5 5073.81,10601.5C5073.78,10601.5 5073.76,10601.5 5073.74,10601.5C5080.69,10596.9 5083.48,10591.8 5087.44,10584.4C5100.5,10560.2 5091.95,10523.6 5082.73,10503.3C5066.4,10467.2 5032.67,10462.5 5010.62,10476.3C5033.95,10421.7 5101.58,10454.6 5118.93,10496.9C5133.44,10532.3 5116.15,10577.3 5087.9,10595.2C5077.5,10602.9 5066.07,10608.7 5048.31,10611.1C5006.28,10619 4969.45,10588.9 4954.68,10564.9C4948.12,10554.2 4918.9,10508.3 4886.58,10457.7L4788.09,10612.4L4726.68,10515.9L4659.82,10610.6L4659.39,10584.9C4659.39,10584.9 4684.15,10550.2 4718.14,10502.5L4674.42,10433.9C4647.44,10476.1 4624.68,10511.5 4618.65,10520.5C4598.06,10551.2 4564.87,10620.7 4520.02,10609.1C4507.39,10607.1 4496.48,10602.1 4485.68,10593.4C4458.99,10574.5 4443.2,10531.2 4457.26,10496.9C4474.61,10454.6 4542.24,10421.7 4565.57,10476.3C4543.52,10462.5 4509.79,10467.2 4493.46,10503.3C4484.24,10523.6 4475.69,10560.2 4488.74,10584.4C4492.71,10591.8 4495.5,10596.9 4502.45,10601.5C4502.27,10601.5 4502.1,10601.4 4501.93,10601.4C4502.27,10601.5 4502.62,10601.7 4502.97,10601.8C4502.79,10601.7 4502.62,10601.6 4502.45,10601.5C4541.95,10612.7 4567.88,10574.5 4587.61,10544.2L4666.15,10420.9L4587.61,10297.6C4567.88,10267.3 4541.95,10229.1 4502.45,10240.3C4502.47,10240.3 4502.5,10240.3 4502.53,10240.3C4502.48,10240.3 4502.43,10240.3 4502.38,10240.3C4502.4,10240.3 4502.43,10240.3 4502.45,10240.3ZM4771.84,10281.1C4754.56,10308.3 4725.9,10353.3 4697.92,10397.1C4713.32,10421.2 4729.03,10445.8 4743.03,10467.6C4768.37,10432.1 4796.29,10392.9 4821.99,10356.7C4800.93,10323.9 4785.97,10300.5 4785.97,10300.5L4771.84,10281.1ZM4830.11,10369.4L4751.47,10480.8C4773.95,10515.9 4790.22,10541.3 4790.22,10541.3L4804.35,10560.7C4821.63,10533.6 4850.28,10488.6 4878.27,10444.7C4861.75,10418.9 4844.85,10392.5 4830.11,10369.4Z" style="fill:none;"/>
        </g>
        <g transform="matrix(0.0545679,0,0,0.0545679,279.768,-214.09)">
            <path class="step2a" d="M4502.45,10240.3C4495.5,10244.9 4492.71,10250 4488.74,10257.4C4475.69,10281.6 4484.24,10318.2 4493.46,10338.5C4509.79,10374.6 4543.52,10379.4 4565.57,10365.5C4542.24,10420.1 4474.61,10387.3 4457.26,10344.9C4442.75,10309.5 4460.04,10264.5 4488.29,10246.6C4498.68,10238.9 4510.12,10233.2 4527.88,10230.7C4569.91,10222.9 4606.74,10252.9 4621.51,10277C4628.07,10287.6 4657.28,10333.5 4689.61,10384.1L4788.09,10229.5L4846.86,10321.7C4879.93,10275.2 4905.5,10238.9 4910.44,10231.4L4910.54,10255.5L4854.89,10334.3L4901.77,10407.9C4928.74,10365.8 4951.51,10330.3 4957.54,10321.3C4978.13,10290.7 5011.32,10221.1 5056.17,10232.7C5068.8,10234.8 5079.71,10239.7 5090.51,10248.4C5117.2,10267.3 5132.98,10310.6 5118.93,10344.9C5101.58,10387.3 5033.95,10420.1 5010.62,10365.5C5032.67,10379.4 5066.4,10374.6 5082.73,10338.5C5091.95,10318.2 5100.5,10281.6 5087.44,10257.4C5083.48,10250 5080.69,10244.9 5073.74,10240.3C5073.91,10240.4 5074.09,10240.4 5074.26,10240.5C5073.91,10240.3 5073.57,10240.1 5073.22,10240C5073.4,10240.1 5073.57,10240.2 5073.74,10240.3C5034.23,10229.1 5008.31,10267.3 4988.58,10297.6L4910.04,10420.9L4988.58,10544.2C5008.31,10574.5 5034.23,10612.7 5073.74,10601.5C5073.71,10601.5 5073.69,10601.5 5073.66,10601.6C5073.71,10601.5 5073.76,10601.5 5073.81,10601.5C5073.78,10601.5 5073.76,10601.5 5073.74,10601.5C5080.69,10596.9 5083.48,10591.8 5087.44,10584.4C5100.5,10560.2 5091.95,10523.6 5082.73,10503.3C5066.4,10467.2 5032.67,10462.5 5010.62,10476.3C5033.95,10421.7 5101.58,10454.6 5118.93,10496.9C5133.44,10532.3 5116.15,10577.3 5087.9,10595.2C5077.5,10602.9 5066.07,10608.7 5048.31,10611.1C5006.28,10619 4969.45,10588.9 4954.68,10564.9C4948.12,10554.2 4918.9,10508.3 4886.58,10457.7L4788.09,10612.4L4726.68,10515.9L4659.82,10610.6L4659.39,10584.9C4659.39,10584.9 4684.15,10550.2 4718.14,10502.5L4674.42,10433.9C4647.44,10476.1 4624.68,10511.5 4618.65,10520.5C4598.06,10551.2 4564.87,10620.7 4520.02,10609.1C4507.39,10607.1 4496.48,10602.1 4485.68,10593.4C4458.99,10574.5 4443.2,10531.2 4457.26,10496.9C4474.61,10454.6 4542.24,10421.7 4565.57,10476.3C4543.52,10462.5 4509.79,10467.2 4493.46,10503.3C4484.24,10523.6 4475.69,10560.2 4488.74,10584.4C4492.71,10591.8 4495.5,10596.9 4502.45,10601.5C4502.27,10601.5 4502.1,10601.4 4501.93,10601.4C4502.27,10601.5 4502.62,10601.7 4502.97,10601.8C4502.79,10601.7 4502.62,10601.6 4502.45,10601.5C4541.95,10612.7 4567.88,10574.5 4587.61,10544.2L4666.15,10420.9L4587.61,10297.6C4567.88,10267.3 4541.95,10229.1 4502.45,10240.3C4502.47,10240.3 4502.5,10240.3 4502.53,10240.3C4502.48,10240.3 4502.43,10240.3 4502.38,10240.3C4502.4,10240.3 4502.43,10240.3 4502.45,10240.3ZM4771.84,10281.1C4754.56,10308.3 4725.9,10353.3 4697.92,10397.1C4713.32,10421.2 4729.03,10445.8 4743.03,10467.6C4768.37,10432.1 4796.29,10392.9 4821.99,10356.7C4800.93,10323.9 4785.97,10300.5 4785.97,10300.5L4771.84,10281.1ZM4830.11,10369.4L4751.47,10480.8C4773.95,10515.9 4790.22,10541.3 4790.22,10541.3L4804.35,10560.7C4821.63,10533.6 4850.28,10488.6 4878.27,10444.7C4861.75,10418.9 4844.85,10392.5 4830.11,10369.4Z" style="fill:none;"/>
        </g>
        <g transform="matrix(0.130437,0,0,0.130437,-33.4071,-757.567)">
            <path class="step2a" d="M4502.45,10240.3C4495.5,10244.9 4492.71,10250 4488.74,10257.4C4475.69,10281.6 4484.24,10318.2 4493.46,10338.5C4509.79,10374.6 4543.52,10379.4 4565.57,10365.5C4542.24,10420.1 4474.61,10387.3 4457.26,10344.9C4442.75,10309.5 4460.04,10264.5 4488.29,10246.6C4498.68,10238.9 4510.12,10233.2 4527.88,10230.7C4569.91,10222.9 4606.74,10252.9 4621.51,10277C4628.07,10287.6 4657.28,10333.5 4689.61,10384.1L4788.09,10229.5L4846.86,10321.7C4879.93,10275.2 4905.5,10238.9 4910.44,10231.4L4910.54,10255.5L4854.89,10334.3L4901.77,10407.9C4928.74,10365.8 4951.51,10330.3 4957.54,10321.3C4978.13,10290.7 5011.32,10221.1 5056.17,10232.7C5068.8,10234.8 5079.71,10239.7 5090.51,10248.4C5117.2,10267.3 5132.98,10310.6 5118.93,10344.9C5101.58,10387.3 5033.95,10420.1 5010.62,10365.5C5032.67,10379.4 5066.4,10374.6 5082.73,10338.5C5091.95,10318.2 5100.5,10281.6 5087.44,10257.4C5083.48,10250 5080.69,10244.9 5073.74,10240.3C5073.91,10240.4 5074.09,10240.4 5074.26,10240.5C5073.91,10240.3 5073.57,10240.1 5073.22,10240C5073.4,10240.1 5073.57,10240.2 5073.74,10240.3C5034.23,10229.1 5008.31,10267.3 4988.58,10297.6L4910.04,10420.9L4988.58,10544.2C5008.31,10574.5 5034.23,10612.7 5073.74,10601.5C5073.71,10601.5 5073.69,10601.5 5073.66,10601.6C5073.71,10601.5 5073.76,10601.5 5073.81,10601.5C5073.78,10601.5 5073.76,10601.5 5073.74,10601.5C5080.69,10596.9 5083.48,10591.8 5087.44,10584.4C5100.5,10560.2 5091.95,10523.6 5082.73,10503.3C5066.4,10467.2 5032.67,10462.5 5010.62,10476.3C5033.95,10421.7 5101.58,10454.6 5118.93,10496.9C5133.44,10532.3 5116.15,10577.3 5087.9,10595.2C5077.5,10602.9 5066.07,10608.7 5048.31,10611.1C5006.28,10619 4969.45,10588.9 4954.68,10564.9C4948.12,10554.2 4918.9,10508.3 4886.58,10457.7L4788.09,10612.4L4726.68,10515.9L4659.82,10610.6L4659.39,10584.9C4659.39,10584.9 4684.15,10550.2 4718.14,10502.5L4674.42,10433.9C4647.44,10476.1 4624.68,10511.5 4618.65,10520.5C4598.06,10551.2 4564.87,10620.7 4520.02,10609.1C4507.39,10607.1 4496.48,10602.1 4485.68,10593.4C4458.99,10574.5 4443.2,10531.2 4457.26,10496.9C4474.61,10454.6 4542.24,10421.7 4565.57,10476.3C4543.52,10462.5 4509.79,10467.2 4493.46,10503.3C4484.24,10523.6 4475.69,10560.2 4488.74,10584.4C4492.71,10591.8 4495.5,10596.9 4502.45,10601.5C4502.27,10601.5 4502.1,10601.4 4501.93,10601.4C4502.27,10601.5 4502.62,10601.7 4502.97,10601.8C4502.79,10601.7 4502.62,10601.6 4502.45,10601.5C4541.95,10612.7 4567.88,10574.5 4587.61,10544.2L4666.15,10420.9L4587.61,10297.6C4567.88,10267.3 4541.95,10229.1 4502.45,10240.3C4502.47,10240.3 4502.5,10240.3 4502.53,10240.3C4502.48,10240.3 4502.43,10240.3 4502.38,10240.3C4502.4,10240.3 4502.43,10240.3 4502.45,10240.3ZM4771.84,10281.1C4754.56,10308.3 4725.9,10353.3 4697.92,10397.1C4713.32,10421.2 4729.03,10445.8 4743.03,10467.6C4768.37,10432.1 4796.29,10392.9 4821.99,10356.7C4800.93,10323.9 4785.97,10300.5 4785.97,10300.5L4771.84,10281.1ZM4830.11,10369.4L4751.47,10480.8C4773.95,10515.9 4790.22,10541.3 4790.22,10541.3L4804.35,10560.7C4821.63,10533.6 4850.28,10488.6 4878.27,10444.7C4861.75,10418.9 4844.85,10392.5 4830.11,10369.4Z" style="fill:none;"/>
        </g>
        <g transform="matrix(0.0574867,0,0,0.0574867,-122.709,-255.197)">
            <path class="step2a" d="M4502.45,10240.3C4495.5,10244.9 4492.71,10250 4488.74,10257.4C4475.69,10281.6 4484.24,10318.2 4493.46,10338.5C4509.79,10374.6 4543.52,10379.4 4565.57,10365.5C4542.24,10420.1 4474.61,10387.3 4457.26,10344.9C4442.75,10309.5 4460.04,10264.5 4488.29,10246.6C4498.68,10238.9 4510.12,10233.2 4527.88,10230.7C4569.91,10222.9 4606.74,10252.9 4621.51,10277C4628.07,10287.6 4657.28,10333.5 4689.61,10384.1L4788.09,10229.5L4846.86,10321.7C4879.93,10275.2 4905.5,10238.9 4910.44,10231.4L4910.54,10255.5L4854.89,10334.3L4901.77,10407.9C4928.74,10365.8 4951.51,10330.3 4957.54,10321.3C4978.13,10290.7 5011.32,10221.1 5056.17,10232.7C5068.8,10234.8 5079.71,10239.7 5090.51,10248.4C5117.2,10267.3 5132.98,10310.6 5118.93,10344.9C5101.58,10387.3 5033.95,10420.1 5010.62,10365.5C5032.67,10379.4 5066.4,10374.6 5082.73,10338.5C5091.95,10318.2 5100.5,10281.6 5087.44,10257.4C5083.48,10250 5080.69,10244.9 5073.74,10240.3C5073.91,10240.4 5074.09,10240.4 5074.26,10240.5C5073.91,10240.3 5073.57,10240.1 5073.22,10240C5073.4,10240.1 5073.57,10240.2 5073.74,10240.3C5034.23,10229.1 5008.31,10267.3 4988.58,10297.6L4910.04,10420.9L4988.58,10544.2C5008.31,10574.5 5034.23,10612.7 5073.74,10601.5C5073.71,10601.5 5073.69,10601.5 5073.66,10601.6C5073.71,10601.5 5073.76,10601.5 5073.81,10601.5C5073.78,10601.5 5073.76,10601.5 5073.74,10601.5C5080.69,10596.9 5083.48,10591.8 5087.44,10584.4C5100.5,10560.2 5091.95,10523.6 5082.73,10503.3C5066.4,10467.2 5032.67,10462.5 5010.62,10476.3C5033.95,10421.7 5101.58,10454.6 5118.93,10496.9C5133.44,10532.3 5116.15,10577.3 5087.9,10595.2C5077.5,10602.9 5066.07,10608.7 5048.31,10611.1C5006.28,10619 4969.45,10588.9 4954.68,10564.9C4948.12,10554.2 4918.9,10508.3 4886.58,10457.7L4788.09,10612.4L4726.68,10515.9L4659.82,10610.6L4659.39,10584.9C4659.39,10584.9 4684.15,10550.2 4718.14,10502.5L4674.42,10433.9C4647.44,10476.1 4624.68,10511.5 4618.65,10520.5C4598.06,10551.2 4564.87,10620.7 4520.02,10609.1C4507.39,10607.1 4496.48,10602.1 4485.68,10593.4C4458.99,10574.5 4443.2,10531.2 4457.26,10496.9C4474.61,10454.6 4542.24,10421.7 4565.57,10476.3C4543.52,10462.5 4509.79,10467.2 4493.46,10503.3C4484.24,10523.6 4475.69,10560.2 4488.74,10584.4C4492.71,10591.8 4495.5,10596.9 4502.45,10601.5C4502.27,10601.5 4502.1,10601.4 4501.93,10601.4C4502.27,10601.5 4502.62,10601.7 4502.97,10601.8C4502.79,10601.7 4502.62,10601.6 4502.45,10601.5C4541.95,10612.7 4567.88,10574.5 4587.61,10544.2L4666.15,10420.9L4587.61,10297.6C4567.88,10267.3 4541.95,10229.1 4502.45,10240.3C4502.47,10240.3 4502.5,10240.3 4502.53,10240.3C4502.48,10240.3 4502.43,10240.3 4502.38,10240.3C4502.4,10240.3 4502.43,10240.3 4502.45,10240.3ZM4771.84,10281.1C4754.56,10308.3 4725.9,10353.3 4697.92,10397.1C4713.32,10421.2 4729.03,10445.8 4743.03,10467.6C4768.37,10432.1 4796.29,10392.9 4821.99,10356.7C4800.93,10323.9 4785.97,10300.5 4785.97,10300.5L4771.84,10281.1ZM4830.11,10369.4L4751.47,10480.8C4773.95,10515.9 4790.22,10541.3 4790.22,10541.3L4804.35,10560.7C4821.63,10533.6 4850.28,10488.6 4878.27,10444.7C4861.75,10418.9 4844.85,10392.5 4830.11,10369.4Z" style="fill:none;"/>
        </g>
    </g>
</svg>
