<svg width="100%" height="100%" viewBox="0 0 800 800" version="1.1" xmlns="http://www.w3.org/2000/svg" xmlns:xlink="http://www.w3.org/1999/xlink" xml:space="preserve" xmlns:serif="http://www.serif.com/" stroke-width="3" style="fill-rule:evenodd;clip-rule:evenodd;stroke-linejoin:round;stroke-miterlimit:2;">
<style type="text/css">
.step3c{fill:none;stroke:#CF5049;}
</style>
    <g>
        <path class="step3c" d="M203.854,305.835C203.303,319.538 202.776,336.154 202.552,350.661" style="fill:none;"/>
        <path class="step3c" d="M202.274,393.141C203.221,416.603 201.366,429.697 202.274,440.142" style="fill:none;"/>
        <path class="step3c" d="M201.067,485.336C199.288,501.435 200.768,526.733 201.104,538.101" style="fill:none;"/>
        <path class="step3c" d="M200.207,574.597C200.162,581.19 201.032,597.801 201.104,607.219C201.175,616.521 201.241,627.079 201.68,630.703" style="fill:none;"/>
        <path class="step3c" d="M202.274,670.578C202.274,731.37 258.642,758.23 297.048,762.913C378.168,772.804 415.889,743.025 416.811,742.088" style="fill:none;"/>
        <path class="step3c" d="M393.51,738.359C398.791,738.577 398.481,738.98 403.521,739.172C404.688,739.217 404.602,739.202 418.113,739.576C413.125,753.254 414.241,753.412 406.569,765.943" style="fill:none;"/>
        <path class="step3c" d="M570.731,603.139C569.94,590.49 570.689,590.572 569.888,548.003" style="fill:none;"/>
        <path class="step3c" d="M569.747,506.988C570.243,488.607 569.518,488.984 569.245,470.659" style="fill:none;"/>
        <path class="step3c" d="M568.807,428.313C568.807,416.354 568.476,396.256 569.449,387.639" style="fill:none;"/>
        <path class="step3c" d="M569.398,346.936C569.943,342.914 573.647,315.558 569.777,296.207" style="fill:none;"/>
        <path class="step3c" d="M569.666,249.409C568.488,218.519 571.733,218.811 570.062,201.917" style="fill:none;"/>
        <g transform="matrix(0.859719,0,0,1,80.085,0)">
            <path class="step3c" d="M570.891,155.965C570.891,102.733 515.747,52.847 464.248,39.721C418.317,28.014 360.816,29.222 302.031,71.43C279.679,87.479 246.886,119.765 235.335,143.333" style="fill:none;"/>
        </g>
        <g transform="matrix(0.827789,-0.232127,0.270003,0.962859,52.2068,70.1051)">
            <path class="step3c" d="M236.877,107.804C234.467,115.712 234.296,126.63 234.529,132.593C249.631,130.767 257.448,130.306 267.222,130.144" style="fill:none;"/>
        </g>
        <path class="step3c" d="M285.244,163.615C282.521,162.663 175.468,149.252 115.064,172.319C22.294,207.746 47.351,249.623 77.658,271.144C102.309,288.649 148.539,298.24 203.631,298.24C258.724,298.24 317.251,296.366 365.789,271.144C398.16,254.323 384.771,215.605 355.66,198.778C341.237,190.441 332.64,178.709 248.512,170.215C213.382,166.667 160.327,171.011 154.436,172.319" style="fill:none;"/>
        <path class="step3c" d="M598.176,618.497C566.825,615.985 426.735,624.689 427.563,699.711C427.982,737.683 479.286,747.928 498.538,751.301C553.324,760.9 616.53,760.916 670.687,751.301C714.32,743.555 750.761,730.344 750.615,699.711C750.312,636.134 637.021,607.123 527.727,635.913" style="fill:none;"/>
    </g>
</svg>