<svg width="100%" height="100%" viewBox="0 0 800 800" version="1.1" xmlns="http://www.w3.org/2000/svg" xmlns:xlink="http://www.w3.org/1999/xlink" xml:space="preserve" xmlns:serif="http://www.serif.com/" stroke-width="3" style="fill-rule:evenodd;clip-rule:evenodd;stroke-linejoin:round;stroke-miterlimit:2;">
<style>
    .step1c{stroke:#0053BF;}
</style>
    <g>
        <g transform="matrix(1.38187,0.00861125,-0.00655707,1.05223,-261.418,208.098)">
            <path class="step2c" d="M286.762,248.278C306.894,243.77 443.207,243.77 456.816,243.77" style="fill:none;"/>
        </g>
        <g transform="matrix(0.902816,0.00562597,-0.00348638,0.559469,252.821,275.443)">
            <path class="step2c" d="M286.762,248.278C306.894,243.77 443.207,243.77 456.816,243.77" style="fill:none;"/>
        </g>
        <g transform="matrix(1.38187,0.00861125,-0.00655707,1.05223,-261.418,232.996)">
            <path class="step2c" d="M286.762,248.278C306.894,243.77 443.207,243.77 456.816,243.77" style="fill:none;"/>
        </g>
        <g transform="matrix(0.902816,0.00562597,-0.00348638,0.559469,252.84,288.681)">
            <path class="step2c" d="M286.762,248.278C306.894,243.77 443.207,243.77 456.816,243.77" style="fill:none;"/>
        </g>
        <g transform="matrix(1.38187,0.00861125,-0.00655707,1.05223,-261.418,257.895)">
            <path class="step2c" d="M286.762,248.278C306.894,243.77 443.207,243.77 456.816,243.77" style="fill:none;"/>
        </g>
        <g transform="matrix(1.14966,0.00716417,-0.00655707,1.05223,-198.161,266.477)">
            <path class="step2c" d="M289.647,261.901C301.366,260.15 366.646,261.288 383.06,260.135C424.16,257.247 442.472,258.869 452.158,258.244" style="fill:none;"/>
        </g>
        <g transform="matrix(0.574763,0.00358168,-0.000381107,0.0611575,-29.4347,577.246)">
            <path class="step2c" d="M289.647,261.901C301.366,260.15 366.646,261.288 383.06,260.135C424.16,257.247 442.472,258.869 452.158,258.244" style="fill:none;"/>
        </g>
        <g transform="matrix(0.953836,0,0,1.05225,-101.609,206.341)">
            <path class="step2c" d="M248.308,220.772C247.605,222.746 246.901,224.72 246.197,226.695C253.454,223.597 253.236,223.73 259.7,219.378L258.398,225.163C266.303,221.269 265.91,221.116 273.778,217.785L273.597,225.393C276.09,223.69 278.582,221.986 281.074,220.282L279.761,226.083C282.754,223.459 285.747,220.835 288.74,218.211L287.285,225.867C299.85,217.304 299.604,217.43 301.732,216.08C301.169,219.123 300.607,222.165 300.044,225.208C305.244,221.807 310.443,218.406 315.643,215.005C313.92,218.301 312.196,221.598 310.473,224.895C314.09,221.32 317.708,217.745 321.326,214.17C320.855,216.98 320.385,219.79 319.915,222.6C328.308,217.424 328.06,217.578 337.28,213.853L333.329,224.177C340.755,218.141 340.602,218.282 348.459,213.114C345.99,220.042 346.255,219.961 344.305,223.942C351.894,218.521 351.615,218.747 359.685,214.743C358.439,218.415 357.192,222.087 355.946,225.758C364.237,219.423 364.196,219.957 373.351,215.277C372.003,218.049 370.654,220.82 369.306,223.592C374.753,218.203 374.631,218.512 381.216,214.154C380.699,216.896 380.183,219.637 379.666,222.379C388.874,217.332 388.668,217.52 398.494,213.568C398.476,216.431 398.458,219.293 398.441,222.156L405.794,217.385L403.507,224.548C407.554,221.748 411.601,218.948 415.648,216.148L413.372,224.09C422.339,217.404 422.001,217.398 431.728,211.791C430.461,216.077 429.194,220.363 427.927,224.649C429.665,223.262 428.683,221.854 444.869,213.676L442.115,222.853C447.509,219.752 452.903,216.651 458.297,213.551L457.158,223.164C460.086,220.718 463.014,218.272 465.942,215.826C465.641,219.234 465.34,222.642 465.039,226.049C466.083,225.327 466.009,225.445 478.397,217.475L478.215,222.86C484.79,219.103 484.604,219.189 492.453,218.821" style="fill:none;"/>
        </g>
    </g>
</svg>