<svg width="100%" height="100%" viewBox="0 0 800 800" version="1.1" xmlns="http://www.w3.org/2000/svg" xmlns:xlink="http://www.w3.org/1999/xlink" xml:space="preserve" xmlns:serif="http://www.serif.com/" stroke-width="120" stroke-linecap="round" style="fill-rule:evenodd;clip-rule:evenodd;stroke-linejoin:round;stroke-miterlimit:2;">
<style type="text/css">
.step2e{fill:none;stroke:#B1CFFF;}
</style>
    <g>
        <path class="step2e" d="M134.178,345.459C142.185,343.181 161.168,324.251 237.515,328.61C327.252,333.734 298.08,324.102 385.617,345.459C405.271,350.255 392.02,374.883 368.259,375.765C334.229,377.03 147.322,349.154 127.537,400.243C120.38,418.724 346.29,400.024 358.186,400.243C401.317,401.036 390.795,454.89 388.229,456.209C348.105,476.83 212.452,439.193 158.277,444.701C136.943,446.87 105.461,482.162 134.178,500.331C175.501,526.475 389.721,473.83 385.617,514.049C383.2,537.731 176.257,524.235 127.537,555.388C122.482,558.62 124.31,574.628 204.466,574.628C247.57,574.628 238.524,577.565 281.678,577.565C346.379,577.565 351.42,563.461 377.938,577.565C394.418,586.33 390.085,598.761 388.229,610.427C385.828,625.516 343.944,619.249 268.468,626.736C222.195,631.325 150.488,612.688 139.7,626.736C125.31,645.473 131.383,653.761 154.656,657.228C180.487,661.076 194.726,664.026 249.465,666.465C268.717,667.323 305.678,662.987 330.103,666.731C362.842,671.749 353.549,664.76 400.35,698.267C397.205,702.143 398.859,704.737 388.229,706.708C327.775,717.915 179.576,673.309 154.656,688.28C124.927,706.14 122.631,721.359 184.174,726.199C232.425,729.993 338.3,724.96 377.938,726.199" style="fill:none;"/>
        <path class="step2e" d="M519.9,356.659C562.152,354.938 657.991,345.466 657.35,356.659C655.943,381.193 585.537,356.302 519.9,376.46C534.31,389.764 520.295,385.269 539.701,387.564C591.436,393.68 653.781,392.932 650.069,407.689C645.95,424.066 577.463,410.52 525.578,413.891" style="fill:none;"/>
        <path class="step2e" d="M507.032,586.875C518.692,566.871 534.737,550.556 538.242,552.644C549.351,559.262 550.355,571.28 575.492,577.937C587.594,581.142 620.109,569.639 632.872,558.8C658.092,537.382 660.375,583.019 672.475,591.895C649.832,590.85 655.591,591.323 632.872,591.895C549.827,593.982 542.884,630.531 564.132,631.122C594.473,631.965 608.703,623.527 621.284,631.122C637.761,641.068 631.871,667.326 615.13,669.019C594.737,671.082 535.558,670.886 556.259,686.66C570.621,697.604 622.204,673.779 632.872,702.647C634.349,706.645 640.029,729.62 615.13,734.418C596.144,738.077 575.313,736.512 551.364,727.641" style="fill:none;"/>
    </g>
</svg>
