<?xml version="1.0" encoding="UTF-8" standalone="no"?>
<!DOCTYPE svg PUBLIC "-//W3C//DTD SVG 1.1//EN" "http://www.w3.org/Graphics/SVG/1.1/DTD/svg11.dtd">
<svg width="100%" height="100%" viewBox="0 0 200 68" version="1.1" xmlns="http://www.w3.org/2000/svg" xmlns:xlink="http://www.w3.org/1999/xlink" xml:space="preserve" xmlns:serif="http://www.serif.com/" style="fill-rule:evenodd;clip-rule:evenodd;stroke-linejoin:round;stroke-miterlimit:2;">
    <g transform="matrix(1,0,0,1,0.0360134,-10.8248)">
        <g transform="matrix(1.84293,0,0,1.84293,-9.95768,-13.4275)">
            <path d="M32.377,26.446L19.857,26.446L19.857,30.161L28.737,30.161C28.297,35.361 23.964,37.593 19.872,37.593C19.858,37.593 19.843,37.593 19.829,37.593C14.475,37.593 10.069,33.187 10.069,27.833C10.069,27.789 10.069,27.746 10.07,27.702C10.07,22.078 14.424,17.748 19.884,17.748C24.096,17.748 26.578,20.433 26.578,20.433L29.178,17.739C29.178,17.739 25.838,14.022 19.748,14.022C11.993,14.022 5.994,20.567 5.994,27.636C5.994,34.563 11.637,41.318 19.944,41.318C27.251,41.318 32.6,36.312 32.6,28.91C32.6,27.348 32.373,26.446 32.373,26.446L32.377,26.446Z" style="fill:rgb(72,133,237);fill-rule:nonzero;"/>
        </g>
        <g id="A" transform="matrix(1.84293,0,0,1.84293,-9.95768,-13.4275)">
            <path d="M42.634,23.755C37.496,23.755 33.814,27.772 33.814,32.455C33.814,37.209 37.384,41.3 42.694,41.3C47.5,41.3 51.437,37.627 51.437,32.557C51.437,26.757 46.857,23.754 42.634,23.754L42.634,23.755ZM42.684,27.201C45.21,27.201 47.604,29.244 47.604,32.535C47.604,35.755 45.22,37.857 42.672,37.857C39.872,37.857 37.672,35.615 37.672,32.509C37.672,29.469 39.852,27.201 42.692,27.201L42.684,27.201Z" style="fill:rgb(219,50,54);fill-rule:nonzero;"/>
        </g>
        <g id="A1" serif:id="A" transform="matrix(1.84293,0,0,1.84293,25.3916,-13.4275)">
            <path d="M42.634,23.755C37.496,23.755 33.814,27.772 33.814,32.455C33.814,37.209 37.384,41.3 42.694,41.3C47.5,41.3 51.437,37.627 51.437,32.557C51.437,26.757 46.857,23.754 42.634,23.754L42.634,23.755ZM42.684,27.201C45.21,27.201 47.604,29.244 47.604,32.535C47.604,35.755 45.22,37.857 42.672,37.857C39.872,37.857 37.672,35.615 37.672,32.509C37.672,29.469 39.852,27.201 42.692,27.201L42.684,27.201Z" style="fill:rgb(244,194,13);fill-rule:nonzero;"/>
        </g>
        <g transform="matrix(1.84293,0,0,1.84293,-9.95768,-13.4275)">
            <path d="M80.628,23.765C75.912,23.765 72.206,27.895 72.206,32.531C72.206,37.811 76.503,41.313 80.546,41.313C83.046,41.313 84.376,40.32 85.346,39.181L85.346,40.911C85.346,43.938 83.508,45.751 80.734,45.751C78.054,45.751 76.71,43.758 76.234,42.628L72.862,44.028C74.058,46.558 76.466,49.195 80.762,49.195C85.462,49.195 89.024,46.242 89.024,40.048L89.024,24.292L85.36,24.292L85.36,25.778C84.23,24.558 82.682,23.765 80.63,23.765L80.628,23.765ZM80.968,27.205C83.28,27.205 85.654,29.179 85.654,32.55C85.654,35.977 83.284,37.865 80.917,37.865C78.403,37.865 76.064,35.825 76.064,32.582C76.064,29.214 78.494,27.204 80.968,27.204L80.968,27.205Z" style="fill:rgb(72,133,237);fill-rule:nonzero;"/>
        </g>
        <g transform="matrix(1.84293,0,0,1.84293,-9.95768,-13.4275)">
            <path d="M105.4,23.744C100.952,23.744 97.217,27.284 97.217,32.504C97.217,38.03 101.38,41.307 105.817,41.307C109.529,41.307 111.817,39.277 113.167,37.457L110.134,35.439C109.347,36.659 108.031,37.854 105.836,37.854C103.37,37.854 102.236,36.504 101.533,35.194L113.296,30.314L112.696,28.884C111.56,26.084 108.909,23.744 105.401,23.744L105.4,23.744ZM105.553,27.118C107.156,27.118 108.309,27.97 108.799,28.992L100.943,32.275C100.603,29.733 103.013,27.118 105.543,27.118L105.553,27.118Z" style="fill:rgb(219,50,54);fill-rule:nonzero;"/>
        </g>
        <g transform="matrix(1.84293,0,0,1.84293,-9.95768,-13.4275)">
            <rect x="91.6" y="14.93" width="3.864" height="25.857" style="fill:rgb(60,186,84);fill-rule:nonzero;"/>
        </g>
    </g>
</svg>
