<?xml version="1.0" encoding="UTF-8" standalone="no"?>
<!DOCTYPE svg PUBLIC "-//W3C//DTD SVG 1.1//EN" "http://www.w3.org/Graphics/SVG/1.1/DTD/svg11.dtd">
<svg width="100%" height="100%" viewBox="0 0 100 100" version="1.1" xmlns="http://www.w3.org/2000/svg" xmlns:xlink="http://www.w3.org/1999/xlink" xml:space="preserve" xmlns:serif="http://www.serif.com/" style="fill-rule:evenodd;clip-rule:evenodd;stroke-linejoin:round;stroke-miterlimit:2;">
    <g transform="matrix(1.04094,0,0,1.04094,2.22043,30.4574)">
        <rect x="8.653" y="11.569" width="14.41" height="14.41" style="fill:rgb(94,94,94);"/>
    </g>
    <g transform="matrix(6.37394e-17,1.04094,-1.04094,6.37394e-17,69.5426,2.22043)">
        <rect x="8.653" y="11.569" width="14.41" height="14.41" style="fill:rgb(94,94,94);"/>
    </g>
    <g transform="matrix(6.37394e-17,1.04094,-1.04094,6.37394e-17,38.2706,2.22043)">
        <rect x="8.653" y="11.569" width="14.41" height="14.41" style="fill:rgb(94,94,94);"/>
    </g>
    <g transform="matrix(6.37394e-17,1.04094,-1.04094,6.37394e-17,100.815,2.22043)">
        <rect x="8.653" y="11.569" width="14.41" height="14.41" style="fill:rgb(94,94,94);"/>
    </g>
    <g transform="matrix(-1.04094,1.27479e-16,-1.27479e-16,-1.04094,97.7796,69.5426)">
        <rect x="8.653" y="11.569" width="14.41" height="14.41" style="fill:rgb(94,94,94);"/>
    </g>
    <g transform="matrix(-1.91218e-16,-1.04094,1.04094,-1.91218e-16,30.4574,97.7796)">
        <rect x="8.653" y="11.569" width="14.41" height="14.41" style="fill:rgb(94,94,94);"/>
    </g>
    <g transform="matrix(-1.91218e-16,-1.04094,1.04094,-1.91218e-16,-0.814597,97.7796)">
        <rect x="8.653" y="11.569" width="14.41" height="14.41" style="fill:rgb(94,94,94);"/>
    </g>
    <g transform="matrix(-1.91218e-16,-1.04094,1.04094,-1.91218e-16,61.7294,97.7796)">
        <rect x="8.653" y="11.569" width="14.41" height="14.41" style="fill:rgb(94,94,94);"/>
    </g>
    <g transform="matrix(1.04094,0,0,1.04094,33.4924,30.4574)">
        <rect x="8.653" y="11.569" width="14.41" height="14.41" style="fill:rgb(94,94,94);"/>
    </g>
</svg>
