<?xml version="1.0" encoding="UTF-8" standalone="no"?>
<!DOCTYPE svg PUBLIC "-//W3C//DTD SVG 1.1//EN" "http://www.w3.org/Graphics/SVG/1.1/DTD/svg11.dtd">
<svg width="100%" height="100%" viewBox="0 0 50 50" version="1.1" xmlns="http://www.w3.org/2000/svg" xmlns:xlink="http://www.w3.org/1999/xlink" xml:space="preserve" xmlns:serif="http://www.serif.com/" style="fill-rule:evenodd;clip-rule:evenodd;stroke-linejoin:round;stroke-miterlimit:2;">
    <g transform="matrix(0.307026,0,0,0.307026,-704.716,-1033.03)">
        <path d="M2341.83,3460.48L2325.92,3393.34C2324.51,3387.38 2319.44,3382.99 2313.34,3382.45L2302.17,3381.46C2300.26,3381.29 2298.84,3379.6 2299.01,3377.69C2299.18,3375.78 2300.87,3374.37 2302.78,3374.53L2313.95,3375.53C2323.04,3376.33 2330.58,3382.86 2332.69,3391.73L2348.04,3456.52L2432.03,3456.52C2435.2,3456.52 2437.94,3454.28 2438.58,3451.16L2447.36,3407.96C2447.73,3406.17 2447.27,3404.32 2446.12,3402.91C2444.96,3401.5 2443.24,3400.68 2441.41,3400.68L2344.66,3400.68C2342.74,3400.68 2341.18,3399.12 2341.18,3397.2C2341.18,3395.28 2342.74,3393.72 2344.66,3393.72L2441.41,3393.72C2445.32,3393.72 2449.03,3395.48 2451.5,3398.51C2453.97,3401.53 2454.96,3405.51 2454.18,3409.34L2445.39,3452.55C2444.1,3458.91 2438.51,3463.47 2432.03,3463.47L2349.69,3463.47L2351.02,3469.1C2352.15,3473.87 2356.41,3477.24 2361.32,3477.24L2442.78,3477.24C2444.7,3477.24 2446.26,3478.8 2446.26,3480.72C2446.26,3482.64 2444.7,3484.19 2442.78,3484.19L2361.32,3484.19C2353.19,3484.19 2346.13,3478.61 2344.25,3470.7L2341.98,3461.11C2341.91,3460.91 2341.86,3460.7 2341.83,3460.48ZM2349.78,3421.17C2347.86,3421.17 2346.3,3419.61 2346.3,3417.69C2346.3,3415.77 2347.86,3414.22 2349.78,3414.22L2431.67,3414.22C2433.59,3414.22 2435.15,3415.77 2435.15,3417.69C2435.15,3419.61 2433.59,3421.17 2431.67,3421.17L2349.78,3421.17ZM2354.78,3442.49C2352.87,3442.49 2351.31,3440.94 2351.31,3439.02C2351.31,3437.1 2352.87,3435.54 2354.78,3435.54L2427.74,3435.54C2429.66,3435.54 2431.22,3437.1 2431.22,3439.02C2431.22,3440.94 2429.66,3442.49 2427.74,3442.49L2354.78,3442.49ZM2359.81,3491.89C2366.89,3491.89 2372.65,3497.64 2372.65,3504.73C2372.65,3511.81 2366.89,3517.57 2359.81,3517.57C2352.72,3517.57 2346.97,3511.81 2346.97,3504.73C2346.97,3497.64 2352.72,3491.89 2359.81,3491.89ZM2359.81,3498.85C2356.56,3498.85 2353.93,3501.48 2353.93,3504.73C2353.93,3507.97 2356.56,3510.61 2359.81,3510.61C2363.06,3510.61 2365.69,3507.97 2365.69,3504.73C2365.69,3501.48 2363.06,3498.85 2359.81,3498.85ZM2431.67,3491.89C2438.76,3491.89 2444.51,3497.64 2444.51,3504.73C2444.51,3511.81 2438.76,3517.57 2431.67,3517.57C2424.59,3517.57 2418.84,3511.81 2418.84,3504.73C2418.84,3497.64 2424.59,3491.89 2431.67,3491.89ZM2431.67,3498.85C2428.43,3498.85 2425.79,3501.48 2425.79,3504.73C2425.79,3507.97 2428.43,3510.61 2431.67,3510.61C2434.92,3510.61 2437.55,3507.97 2437.55,3504.73C2437.55,3501.48 2434.92,3498.85 2431.67,3498.85Z" style="fill:rgb(225,37,27);"/>
    </g>
</svg>
