<?xml version="1.0" encoding="UTF-8" standalone="no"?>
<!DOCTYPE svg PUBLIC "-//W3C//DTD SVG 1.1//EN" "http://www.w3.org/Graphics/SVG/1.1/DTD/svg11.dtd">
<svg width="100%" height="100%" viewBox="0 0 50 50" version="1.1" xmlns="http://www.w3.org/2000/svg" xmlns:xlink="http://www.w3.org/1999/xlink" xml:space="preserve" xmlns:serif="http://www.serif.com/" style="fill-rule:evenodd;clip-rule:evenodd;stroke-linejoin:round;stroke-miterlimit:2;">
    <g transform="matrix(0.268922,0,0,0.268922,-720.869,-907.509)">
        <path d="M2784.08,3463.08C2786.23,3462.34 2788.61,3463.42 2789.45,3465.56C2790.53,3468.31 2791.12,3471.31 2791.12,3474.44C2791.12,3487.92 2780.18,3498.86 2766.7,3498.86C2753.22,3498.86 2742.28,3487.92 2742.28,3474.44C2742.28,3460.97 2753.22,3450.02 2766.7,3450.02C2769.48,3450.02 2772.16,3450.49 2774.65,3451.35C2776.88,3452.12 2778.06,3454.54 2777.29,3456.77C2776.53,3458.99 2774.1,3460.17 2771.88,3459.41C2770.25,3458.85 2768.51,3458.55 2766.7,3458.55C2757.93,3458.55 2750.8,3465.67 2750.8,3474.44C2750.8,3483.21 2757.93,3490.34 2766.7,3490.34C2775.47,3490.34 2782.6,3483.21 2782.6,3474.44C2782.6,3472.4 2782.21,3470.45 2781.51,3468.66C2781.13,3467.68 2781.13,3466.64 2781.45,3465.71L2769.71,3477.45C2768.05,3479.12 2765.35,3479.12 2763.69,3477.45C2762.02,3475.79 2762.02,3473.09 2763.69,3471.43L2823.03,3412.09L2823.03,3399.8C2823.03,3398.67 2823.48,3397.58 2824.28,3396.78L2841.71,3379.44C2842.93,3378.22 2844.76,3377.86 2846.35,3378.52C2847.94,3379.18 2848.98,3380.74 2848.98,3382.46L2848.98,3391.74L2858.65,3391.74C2860.36,3391.74 2861.91,3392.77 2862.57,3394.35C2863.24,3395.92 2862.9,3397.74 2861.71,3398.97L2844.4,3416.82C2843.6,3417.65 2842.49,3418.11 2841.34,3418.11L2829.05,3418.11L2784.08,3463.08ZM2840.45,3392.71L2831.55,3401.57L2831.55,3409.59L2839.54,3409.59L2848.58,3400.27L2844.71,3400.27C2843.58,3400.27 2842.5,3399.82 2841.7,3399.02C2840.9,3398.22 2840.45,3397.14 2840.45,3396.01L2840.45,3392.71ZM2802.57,3450.98C2801.28,3449.01 2801.83,3446.37 2803.8,3445.08C2805.76,3443.79 2808.41,3444.34 2809.7,3446.3C2815,3454.39 2818.09,3464.06 2818.09,3474.44C2818.09,3502.8 2795.06,3525.83 2766.7,3525.83C2738.34,3525.83 2715.31,3502.8 2715.31,3474.44C2715.31,3446.08 2738.34,3423.05 2766.7,3423.05C2776.99,3423.05 2786.57,3426.08 2794.61,3431.29C2796.58,3432.57 2797.14,3435.21 2795.86,3437.18C2794.59,3439.16 2791.94,3439.72 2789.97,3438.44C2783.27,3434.1 2775.28,3431.57 2766.7,3431.57C2743.04,3431.57 2723.83,3450.78 2723.83,3474.44C2723.83,3498.1 2743.04,3517.31 2766.7,3517.31C2790.36,3517.31 2809.57,3498.1 2809.57,3474.44C2809.57,3465.78 2807,3457.72 2802.57,3450.98ZM2824.25,3433.95C2822.9,3432.03 2823.36,3429.36 2825.28,3428.01C2827.2,3426.65 2829.86,3427.11 2831.22,3429.03C2840.28,3441.88 2845.6,3457.54 2845.6,3474.44C2845.6,3517.99 2810.25,3553.34 2766.7,3553.34C2723.15,3553.34 2687.8,3517.99 2687.8,3474.44C2687.8,3430.9 2723.15,3395.54 2766.7,3395.54C2783.31,3395.54 2798.73,3400.68 2811.45,3409.46C2813.38,3410.8 2813.87,3413.45 2812.53,3415.39C2811.2,3417.33 2808.54,3417.81 2806.6,3416.48C2795.26,3408.65 2781.51,3404.06 2766.7,3404.06C2727.86,3404.06 2696.32,3435.6 2696.32,3474.44C2696.32,3513.28 2727.86,3544.82 2766.7,3544.82C2805.54,3544.82 2837.08,3513.28 2837.08,3474.44C2837.08,3459.37 2832.33,3445.4 2824.25,3433.95Z" style="fill:rgb(225,37,27);"/>
    </g>
</svg>
