<?xml version="1.0" encoding="UTF-8" standalone="no"?>
<!DOCTYPE svg PUBLIC "-//W3C//DTD SVG 1.1//EN" "http://www.w3.org/Graphics/SVG/1.1/DTD/svg11.dtd">
<svg width="100%" height="100%" viewBox="0 0 50 50" version="1.1" xmlns="http://www.w3.org/2000/svg" xmlns:xlink="http://www.w3.org/1999/xlink" xml:space="preserve" xmlns:serif="http://www.serif.com/" style="fill-rule:evenodd;clip-rule:evenodd;stroke-linejoin:round;stroke-miterlimit:2;">
    <g transform="matrix(0.343786,0,0,0.343786,-1323.18,-1125.64)">
        <path d="M3921.59,3284.88C3955.85,3284.88 3983.66,3312.7 3983.66,3346.96C3983.66,3381.22 3955.85,3409.04 3921.59,3409.04C3887.32,3409.04 3859.51,3381.22 3859.51,3346.96C3859.51,3312.7 3887.32,3284.88 3921.59,3284.88ZM3921.59,3291.58C3891.02,3291.58 3866.2,3316.39 3866.2,3346.96C3866.2,3377.53 3891.02,3402.35 3921.59,3402.35C3952.15,3402.35 3976.97,3377.53 3976.97,3346.96C3976.97,3316.39 3952.15,3291.58 3921.59,3291.58ZM3921.59,3297.47C3948.9,3297.47 3971.08,3319.64 3971.08,3346.96C3971.08,3374.28 3948.9,3396.45 3921.59,3396.45C3894.27,3396.45 3872.09,3374.28 3872.09,3346.96C3872.09,3319.64 3894.27,3297.47 3921.59,3297.47ZM3921.59,3304.16C3897.96,3304.16 3878.78,3323.34 3878.78,3346.96C3878.78,3370.58 3897.96,3389.76 3921.59,3389.76C3945.21,3389.76 3964.39,3370.58 3964.39,3346.96C3964.39,3323.34 3945.21,3304.16 3921.59,3304.16ZM3918.24,3307.86C3918.24,3306.02 3919.74,3304.52 3921.59,3304.52C3923.43,3304.52 3924.93,3306.02 3924.93,3307.86L3924.93,3313.72C3924.93,3315.57 3923.43,3317.07 3921.59,3317.07C3919.74,3317.07 3918.24,3315.57 3918.24,3313.72L3918.24,3307.86ZM3918.24,3347.05L3918.24,3325C3918.24,3323.15 3919.74,3321.66 3921.59,3321.66C3923.43,3321.66 3924.93,3323.15 3924.93,3325L3924.93,3345.66L3936.41,3357.14C3937.71,3358.45 3937.71,3360.57 3936.41,3361.88C3935.1,3363.18 3932.98,3363.18 3931.67,3361.88L3919.22,3349.41C3918.59,3348.78 3918.24,3347.93 3918.24,3347.05ZM3960.77,3343.7C3962.62,3343.7 3964.12,3345.2 3964.12,3347.05C3964.12,3348.89 3962.62,3350.39 3960.77,3350.39L3954.91,3350.39C3953.06,3350.39 3951.56,3348.89 3951.56,3347.05C3951.56,3345.2 3953.06,3343.7 3954.91,3343.7L3960.77,3343.7ZM3918.24,3380.37C3918.24,3378.52 3919.74,3377.02 3921.59,3377.02C3923.43,3377.02 3924.93,3378.52 3924.93,3380.37L3924.93,3386.23C3924.93,3388.08 3923.43,3389.58 3921.59,3389.58C3919.74,3389.58 3918.24,3388.08 3918.24,3386.23L3918.24,3380.37ZM3888.26,3343.7C3890.11,3343.7 3891.61,3345.2 3891.61,3347.05C3891.61,3348.89 3890.11,3350.39 3888.26,3350.39L3882.4,3350.39C3880.56,3350.39 3879.06,3348.89 3879.06,3347.05C3879.06,3345.2 3880.56,3343.7 3882.4,3343.7L3888.26,3343.7Z" style="fill:rgb(225,37,27);"/>
    </g>
</svg>
