<?xml version="1.0" encoding="UTF-8" standalone="no"?>
<!DOCTYPE svg PUBLIC "-//W3C//DTD SVG 1.1//EN" "http://www.w3.org/Graphics/SVG/1.1/DTD/svg11.dtd">
<svg width="100%" height="100%" viewBox="0 0 800 800" version="1.1" xmlns="http://www.w3.org/2000/svg" xmlns:xlink="http://www.w3.org/1999/xlink" xml:space="preserve" xmlns:serif="http://www.serif.com/" stroke-width="3" style="fill-rule:evenodd;clip-rule:evenodd;stroke-linejoin:round;stroke-miterlimit:2;">
    <style type="text/css">
        .step3b{fill:none;stroke:#111C4E;}
    </style>
    <g transform="matrix(0.984019,0,0,1,9.19137,25.3001)">
        <path class="step3b" d="M67.846,400.762C69.056,423.982 66.096,571.816 67.846,697.819" style="fill:none;"/>
    </g>
    <g transform="matrix(0.984019,0,0,1,9.19137,25.3001)">
        <path class="step3b" d="M68.146,697.819C182.861,700.031 356.836,697.191 483.433,698.451C533.179,698.945 591.654,698.362 641.716,697.953C661.867,697.788 680.657,697.857 696.963,697.625C708.278,697.464 716.986,697.947 726.976,697.206" style="fill:none;"/>
    </g>
    <g transform="matrix(0.984019,0,0,1,9.19137,25.3001)">
        <path class="step3b" d="M726.87,399.803C726.667,414.94 726.702,413.347 726.702,556.163C726.702,650.472 727.2,666.471 726.976,697.199" style="fill:none;"/>
    </g>
    <g transform="matrix(0.984019,0,0,1,9.19137,25.3001)">
        <path class="step3b" d="M67.846,400.622C206.012,401.494 299.23,400.174 321.963,400.762C365.561,401.889 455.057,400.159 498.543,400.762C541.981,401.364 609.906,400.615 625.116,400C657.456,398.693 687.266,402.241 726.911,400" style="fill:none;"/>
    </g>
    <g transform="matrix(1,0,0,1,-2.42702,25.3001)">
        <path class="step3b" d="M78.675,400.762C78.552,396.471 78.497,391.738 78.487,387.1C78.448,377.075 86.539,368.914 96.564,368.865C140.699,368.573 149.107,371.121 229.746,369.961C287.384,369.132 448.449,370.894 560.03,370.313C621.853,369.992 665.614,373.056 707.634,372.048C712.473,371.896 717.173,373.682 720.689,377.011C724.205,380.339 726.245,384.934 726.357,389.774C726.432,392.266 726.587,395.316 726.873,399.813" style="fill:none;"/>
    </g>
    <g transform="matrix(0.850434,0,0,0.980067,59.0122,34.6984)">
        <path class="step3b" d="M625.839,375.954C628.403,375.755 630.946,376.5 632.846,378.008C634.745,379.515 635.827,381.646 635.827,383.88C635.869,383.889 635.869,383.898 635.869,383.907C635.869,387.623 632.449,390.658 628.168,390.742C613.55,390.986 578.573,391.467 527.122,391.534C454.677,391.63 330.1,390.369 290.105,390.369C265.266,390.369 242.037,390.278 220.983,390.342C211.216,390.371 201.238,390.453 194.519,390.516C189.976,390.561 186.215,387.463 186.029,383.524C186.028,383.51 186.028,383.496 186.027,383.482C185.841,379.545 189.316,376.201 193.848,375.955C200.449,375.545 209.415,375.059 214.232,375.125C240.955,375.494 287.637,375.76 326.751,376.221C435.971,377.508 459.145,376.281 510.665,376.427C563.977,376.579 602.521,376.056 620.157,376.243C621.994,376.263 623.951,376.142 625.839,375.954Z" style="fill:none;"/>
    </g>
    <g transform="matrix(1,0,0,1,-2.42702,25.3001)">
        <path class="step3b" d="M97.148,385.256C94.541,388.159 95.675,389.333 99.509,390.068C99.828,390.129 107.547,386.602 98.432,384.376" style="fill:none;"/>
    </g>
    <g transform="matrix(1,0,0,1,-2.42702,25.3001)">
        <path class="step3b" d="M117.108,384.501C113.961,383.525 112.407,390.152 117.261,390.319C127.169,390.66 118.744,385.163 118.375,384.922" style="fill:none;"/>
    </g>
    <g transform="matrix(1,0,0,1,-2.42702,25.3001)">
        <path class="step3b" d="M137.611,385.517C133.97,390.422 142.435,391.549 142.912,390.539C145.736,384.552 138.542,385.162 137.963,385.212" style="fill:none;"/>
    </g>
    <g transform="matrix(2.04812,0,0,1.64639,-694.837,-453.214)">
        <path class="step3b" d="M671.302,575.973C674.224,576.083 676.682,578.729 677.189,582.31C678.184,590.9 679.807,608.375 680.264,634.282C680.737,661.127 678.969,681.476 677.872,691.223C677.381,694.896 674.838,697.598 671.845,697.627C661.553,697.721 636.61,697.891 602.204,697.891C556.525,697.891 493.071,698.074 469.02,698.074C447.235,698.074 408.75,697.767 393.986,697.642C390.648,697.614 387.935,694.286 387.864,690.135C387.716,680.853 387.463,663.425 387.249,640.824C387.004,615.019 387.438,594.436 387.738,583.963C387.883,579.765 390.716,576.494 394.092,576.626C411.74,577.213 465.984,578.637 534.632,576.763C611.022,574.678 656.77,575.565 671.302,575.973Z" style="fill:none;"/>
    </g>
    <g transform="matrix(-0.576315,-0.0230953,0.025795,-0.643685,858.691,667.675)">
        <path class="step3b" d="M337.538,295.212C346.528,292.811 420.326,290.818 420.763,290.767" style="fill:none;"/>
    </g>
    <g transform="matrix(-0.576315,-0.0230953,0.025795,-0.643685,858.691,667.675)">
        <path class="step3b" d="M338.736,296.059C339.186,306.983 340.252,306.663 340.968,317.748" style="fill:none;"/>
    </g>
    <g transform="matrix(-0.576315,-0.0230953,0.025795,-0.643685,858.691,667.675)">
        <path class="step3b" d="M340.339,316.91C358.657,316.807 370.471,316.173 381.669,316.081C390.542,316.008 401.227,316.31 419.678,314.772" style="fill:none;"/>
    </g>
    <g transform="matrix(-0.576315,-0.0230953,0.025795,-0.643685,858.691,667.675)">
        <path class="step3b" d="M419.678,314.772C422.998,308.904 421.108,292.801 421.139,291.548" style="fill:none;"/>
    </g>
    <g transform="matrix(1.47006,0,0,1.47006,-136.551,228.596)">
        <path class="step3b" d="M421.237,159.675C427.787,158.555 426.397,159.986 427.69,159.662C428.586,159.437 428.539,159.664 439.231,159.483" style="fill:none;"/>
    </g>
    <g transform="matrix(1.47006,0,0,1.47006,-137.659,228.229)">
        <path class="step3b" d="M454.668,159.96C462.799,159.15 464.244,159.426 470.772,159.725" style="fill:none;"/>
    </g>
    <g transform="matrix(1.47006,0,0,1.47006,-136.476,227.685)">
        <path class="step3b" d="M486.349,160.112C487.505,160.086 495.539,159.672 501.353,159.96" style="fill:none;"/>
    </g>
    <g transform="matrix(1.46911,-0.0528601,0.0528601,1.46911,-148.956,249.965)">
        <path class="step3b" d="M408.172,159.348C407.877,159.256 395.514,158.148 390.332,158.841" style="fill:none;"/>
    </g>
    <g transform="matrix(1.05225,0,0,1.05225,7.5009,326.248)">
        <path class="step3b" d="M286.762,248.278C306.894,243.77 443.207,243.77 456.816,243.77" style="fill:none;"/>
    </g>
    <g transform="matrix(0.875428,0,0,1.05225,73.0862,326.248)">
        <path class="step3b" d="M289.647,261.901C301.366,260.15 366.646,261.288 383.06,260.135C424.16,257.247 442.472,258.869 452.158,258.244" style="fill:none;"/>
    </g>
    <g transform="matrix(1.12268,0,0,1.12268,-2.70831,-36.5282)">
        <path class="step3b" d="M136.599,148.565C145.675,148.758 153.511,149.907 160.443,150.957C174.166,153.037 183.393,157.2 182.502,161.122C181.746,164.451 176.795,168.93 168.402,171.444C160.01,173.957 151.066,174.913 139.518,174.827C129.399,174.752 113.817,172.543 106.224,170.681C97.124,168.449 91.317,164.562 91.317,161.122C91.317,158.019 98.927,154.054 106.939,151.925C115.223,149.723 123.81,148.294 136.599,148.565Z" style="fill:none;"/>
    </g>
    <g transform="matrix(1.12268,0,0,1.12268,-2.70831,-36.5282)">
        <g transform="matrix(1,0,0,1,0,35.5656)">
            <path class="step3b" d="M176.173,155.717C180.272,156.2 183.012,158.877 182.502,161.122C181.746,164.451 176.705,168.604 166.636,170.897C158.094,172.841 145.442,173.207 133.893,173.12C123.774,173.045 115.618,172.736 108.025,170.874C98.925,168.642 91.317,164.562 91.317,161.122C91.317,159.272 93.212,156.717 97.007,155.717" style="fill:none;"/>
        </g>
        <g transform="matrix(1,0,0,1,0,59.5143)">
            <path class="step3b" d="M182.502,161.122C182.502,164.215 176.901,167.623 169.54,169.925C161.885,172.319 152.221,173.547 139.393,173.547C128.088,173.547 117.285,172.658 108.762,170.726C98.315,168.358 91.317,164.597 91.317,161.122" style="fill:none;"/>
        </g>
        <g transform="matrix(1,0,0,1,0,35.5656)">
            <path class="step3b" d="M91.317,161.84C89.505,172.124 90.218,182.416 91.317,185.07" style="fill:none;"/>
        </g>
        <g transform="matrix(1,0,0,1,0,35.5656)">
            <path class="step3b" d="M182.502,185.07C183.019,180.313 183.269,164.942 182.502,161.84" style="fill:none;"/>
        </g>
    </g>
    <g transform="matrix(1.12268,0,0,1.12268,-2.70831,3.19305)">
        <g transform="matrix(1,0,0,1,0,35.5656)">
            <path class="step3b" d="M176.173,155.717C180.272,156.2 183.012,158.877 182.502,161.122C181.746,164.451 176.705,168.604 166.636,170.897C158.094,172.841 145.442,173.207 133.893,173.12C123.774,173.045 115.618,172.736 108.025,170.874C98.925,168.642 91.317,164.562 91.317,161.122C91.317,159.272 93.212,156.717 97.007,155.717" style="fill:none;"/>
        </g>
        <g transform="matrix(1,0,0,1,0,59.5143)">
            <path class="step3b" d="M182.502,161.122C182.502,164.215 176.901,167.623 169.54,169.925C161.885,172.319 152.221,173.547 139.393,173.547C128.088,173.547 117.285,172.658 108.762,170.726C98.315,168.358 91.317,164.597 91.317,161.122" style="fill:none;"/>
        </g>
        <g transform="matrix(1,0,0,1,0,35.5656)">
            <path class="step3b" d="M91.317,161.84C89.505,172.124 90.218,182.416 91.317,185.07" style="fill:none;"/>
        </g>
        <g transform="matrix(1,0,0,1,0,35.5656)">
            <path class="step3b" d="M182.502,185.07C183.019,180.313 183.269,164.942 182.502,161.84" style="fill:none;"/>
        </g>
    </g>
    <g transform="matrix(1.12268,0,0,1.12268,-2.70831,-9.64141)">
        <path class="step3b" d="M182.502,161.122C182.502,164.215 176.901,167.623 169.54,169.925C161.885,172.319 152.221,173.547 139.393,173.547C128.088,173.547 117.285,172.658 108.762,170.726C98.315,168.358 91.317,164.597 91.317,161.122" style="fill:none;"/>
    </g>
    <g transform="matrix(1.12268,0,0,1.12268,-2.70831,-36.5282)">
        <path class="step3b" d="M91.317,161.84C89.505,172.124 90.218,182.416 91.317,185.07" style="fill:none;"/>
    </g>
    <g transform="matrix(1.12268,0,0,1.12268,-2.70831,-36.5282)">
        <path class="step3b" d="M182.502,184.401C182.862,178.992 183.269,164.942 182.502,161.84" style="fill:none;"/>
    </g>
</svg>
