<?xml version="1.0" encoding="UTF-8" standalone="no"?>
<!DOCTYPE svg PUBLIC "-//W3C//DTD SVG 1.1//EN" "http://www.w3.org/Graphics/SVG/1.1/DTD/svg11.dtd">
<svg width="100%" height="100%" viewBox="0 0 800 800" version="1.1" xmlns="http://www.w3.org/2000/svg" xmlns:xlink="http://www.w3.org/1999/xlink" xml:space="preserve" xmlns:serif="http://www.serif.com/" stroke-width="2" style="fill-rule:evenodd;clip-rule:evenodd;stroke-linejoin:round;stroke-miterlimit:2;">
    <style type="text/css">
        .step1{fill:none;stroke:#CF5049;}
    </style>
    <g>
        <path class="step1a" d="M397.55,439.441C398.214,472.747 395.579,485.323 394.166,504.731" style="fill:none;"/>
        <path class="step1a" d="M386.313,487.89C391.331,497.115 391.464,496.977 394.081,507.056C394.643,506.405 405.862,492.107 407.111,489.571" style="fill:none;"/>
        <path class="step1a" d="M403.992,354.285C405.407,335.8 406.933,319.861 405.729,292.878" style="fill:none;"/>
        <path class="step1a" d="M394.891,303.796C401.489,297.299 400.955,297.06 406.756,289.618C408.85,298.928 410.595,298.136 413.093,307.523" style="fill:none;"/>
        <path class="step1a" d="M419.573,239.527C428.77,219.97 439.775,207.852 441.969,205.437" style="fill:none;"/>
        <path class="step1a" d="M433.209,207.365C437.874,205.461 445.15,202.398 446.186,201.962C446.121,202.994 445.525,212.416 445.34,214.866" style="fill:none;"/>
        <path class="step1a" d="M378.681,233.312C378.149,218.911 355.243,156.545 342.464,145.095" style="fill:none;"/>
        <path class="step1a" d="M341.528,167.38C341.496,166.027 342.371,159.688 340.518,144.903C352.738,147.222 356.317,148.53 357.64,149.014" style="fill:none;"/>
        <path class="step1a" d="M505.375,242.476C508.502,237.652 520.702,221.852 560.64,194.287C567.817,189.334 579.991,185.472 581.749,184.597" style="fill:none;"/>
        <path class="step1a" d="M392.5,575.617C391.821,598.378 390.39,623.67 377.937,657.489C372.724,671.645 373.472,671.636 368.433,686.042" style="fill:none;"/>
        <g transform="matrix(1,0,0,1,-1.71244,-0.204545)">
            <path class="step1a" d="M363.136,671.155C363.725,672.594 363.774,672.713 368.93,689.707C379.899,682.326 380.146,682.847 384.787,678.263" style="fill:none;"/>
        </g>
        <path class="step1a" d="M346.763,574.206C335.4,610.217 281.408,647.846 274.848,652.549" style="fill:none;"/>
        <g transform="matrix(1,0,0,1,-1.53875,-0.155374)">
            <path class="step1a" d="M275.982,636.634C275.442,646.026 276.024,646.017 273.289,655.129C276.083,655.06 278.879,655.196 281.673,655.127C282.228,655.113 282.187,655.109 288.611,654.885" style="fill:none;"/>
        </g>
        <path class="step1a" d="M308.227,562.12C296.38,567.509 295.958,565.851 262.805,570.842" style="fill:none;"/>
        <path class="step1a" d="M268.846,562.12C265.775,564.926 261.783,568.699 258.711,571.505C263.361,574.49 265.541,577.312 270.383,579.06" style="fill:none;"/>
        <path class="step1a" d="M432.84,577.889C443.003,609.821 478.134,640.332 486.666,647.022" style="fill:none;"/>
        <path class="step1a" d="M471.962,646.676C480.363,646.946 480.163,646.987 488.476,648.588C488.06,638.864 487.751,639.062 485.549,629.75" style="fill:none;"/>
        <path class="step1a" d="M471.697,565.574C483.01,571.11 504.554,575.595 524.82,579.06" style="fill:none;"/>
        <g transform="matrix(1,0,0,1,-3.10584,0.205453)">
            <path class="step1a" d="M515.542,587.389C521.708,583.404 531.173,580.079 531.053,579.06C530.904,577.785 525.772,575.367 519.388,567.978" style="fill:none;"/>
        </g>
        <path class="step1a" d="M567.806,183.22C569.113,183.013 572.108,182.54 584.315,182.27C581.223,187.889 581.342,187.691 577.492,200.049" style="fill:none;"/>
        <path class="step1a" d="M340.518,242.476C311.857,221.544 279.926,213.566 278.434,213.339" style="fill:none;"/>
        <path class="step1a" d="M282.72,226.098C280.513,222.289 278.957,219.08 274.843,211.882C288.45,209.223 288.611,209.157 289.74,208.698" style="fill:none;"/>
        <g transform="matrix(1.25287,0,0,1.03622,-97.9031,-16.3469)">
            <path class="step1a" d="M415.965,331.326C380.345,329.745 344.074,332.475 321.217,337.794C313.702,339.542 248.893,353.54 243.1,394.222C236.725,438.987 303.965,444.105 373.85,450.396C417.352,454.312 494.335,446.068 523.734,431.947C555.032,416.912 553.018,374.913 521.291,359.789C495.902,347.687 477.573,342.51 430.977,340.597C366.763,337.96 338.369,343.393 320.428,345.549" style="fill:none;"/>
        </g>
    </g>
</svg>
