<?xml version="1.0" encoding="UTF-8" standalone="no"?>
<!DOCTYPE svg PUBLIC "-//W3C//DTD SVG 1.1//EN" "http://www.w3.org/Graphics/SVG/1.1/DTD/svg11.dtd">
<svg width="100%" height="100%" viewBox="0 0 800 800" version="1.1" xmlns="http://www.w3.org/2000/svg" xmlns:xlink="http://www.w3.org/1999/xlink" xml:space="preserve" xmlns:serif="http://www.serif.com/" stroke-width="3" style="fill-rule:evenodd;clip-rule:evenodd;stroke-linejoin:round;stroke-miterlimit:2;">
    <style type="text/css">
        .step4d{fill:none;stroke:#CF5049;}
    </style>
    <g transform="matrix(0.911713,-0.294787,0.330366,1.02175,-72.9208,133.547)">
        <path class="step4d" d="M423.558,202.163C574.202,237.662 546.184,365.79 420.589,434.215" style="fill:none;"/>
    </g>
    <g transform="matrix(0.606634,0.741698,-0.831217,0.679851,471.859,-414.753)">
        <path class="step4d" d="M448.139,421.933C447.849,426.808 447.202,432.133 448.076,437.846C453.771,438.138 462.925,435.947 466.465,434.768" style="fill:none;"/>
    </g>
    <g transform="matrix(1.28149,0,0,1,-138.429,0)">
        <path class="step4d" d="M412.739,459.392C351.752,453 231.027,473.842 256.87,519.83C278.022,557.469 545.557,565.969 592.513,526.125C618.211,504.32 588.8,477.031 527.919,471.243C478.076,466.504 390.225,470.547 378.97,471.163" style="fill:none;"/>
    </g>
    <path class="step4d" d="M404.714,557.209C404.928,576.898 404.457,590.687 406.175,606.6" style="fill:none;"/>
    <g transform="matrix(0.99266,-0.120943,0.120943,0.99266,-93.9936,29.0135)">
        <path class="step4d" d="M278.773,565.258C274.214,568.473 253.818,582.86 225.496,610.253C209.876,625.361 204.323,638.239 199.097,644.032" style="fill:none;"/>
    </g>
    <g transform="matrix(0.99266,-0.120943,0.120943,0.99266,-93.9936,29.0135)">
        <path class="step4d" d="M197.753,626.993C197.807,628.227 197.35,636.313 199.097,644.032C206.856,641.907 209.848,640.826 218.443,638.77" style="fill:none;"/>
    </g>
    <path class="step4d" d="M498.53,564.249C512.942,578.311 546.159,619.562 534.664,696.773" style="fill:none;"/>
    <path class="step4d" d="M566.757,556.678C587.269,572.497 586.516,573.209 601.71,592.424C612.445,606 614.166,609.116 622.431,624.394" style="fill:none;"/>
    <g transform="matrix(1,0,0,1,-0.875428,-1.62813)">
        <path class="step4d" d="M608.447,619.111C616.058,622.537 615.63,622.91 623.306,626.022C624.591,620.394 623.902,614.487 623.587,609.224" style="fill:none;"/>
    </g>
    <path class="step4d" d="M526.151,683.427C529.041,686.46 531.906,691.761 534.72,696.773C535.709,695.976 540.362,693.052 545.307,687.327" style="fill:none;"/>
    <path class="step4d" d="M306.599,574.802C266.512,628.15 270.232,680.268 273.332,693.693" style="fill:none;"/>
    <path class="step4d" d="M260.552,684.257C267.876,689.334 265.897,688.91 273.509,693.693C276.573,684.844 280.037,680.138 280.148,679.97" style="fill:none;"/>
    <path class="step4d" d="M395.821,596.41C399.956,600.666 403.088,604.647 405.658,607.358C408.821,605.437 415.077,596.444 415.561,595.436" style="fill:none;"/>
    <g transform="matrix(0.958186,0,0,0.958186,15.1668,8.62505)">
        <path class="step4d" d="M456.831,445.777C456.885,447.122 457.762,453.415 458.025,464.018C472.835,458.834 477.71,456.113 479.222,455.154" style="fill:none;"/>
    </g>
</svg>
