<?xml version="1.0" encoding="UTF-8" standalone="no"?>
<!DOCTYPE svg PUBLIC "-//W3C//DTD SVG 1.1//EN" "http://www.w3.org/Graphics/SVG/1.1/DTD/svg11.dtd">
<svg width="100%" height="100%" viewBox="0 0 800 800" version="1.1" xmlns="http://www.w3.org/2000/svg" xmlns:xlink="http://www.w3.org/1999/xlink" xml:space="preserve" xmlns:serif="http://www.serif.com/" style="fill-rule:evenodd;clip-rule:evenodd;stroke-linejoin:round;stroke-miterlimit:2;">
    <g transform="matrix(1.12036,0,0,1.0688,72.491,-46.8864)">
        <g transform="matrix(1,0,0,0.938072,0,43.3728)">
            <path d="M185.518,700.258C185.576,701.403 184.792,702.386 183.768,702.451C182.743,702.517 181.863,701.641 181.805,700.496C181.474,694.058 192.483,358.988 179.399,162.797C178.78,153.512 178.71,153.833 178.308,144.246C177.93,135.21 179.554,117.827 178.418,100.269C178.344,99.125 179.115,98.129 180.138,98.047C181.162,97.964 182.053,98.825 182.127,99.969C183.266,117.57 181.644,134.994 182.023,144.051C182.423,153.58 182.492,153.26 183.108,162.488C196.193,358.705 185.187,693.819 185.518,700.258Z" style="fill:rgb(170,40,33);"/>
        </g>
        <g transform="matrix(1,0,0,0.938072,0,43.3728)">
            <path d="M179.559,100.929C178.533,100.966 177.673,100.066 177.64,98.919C177.607,97.773 178.413,96.812 179.439,96.775C207.959,95.745 557.147,98.075 562.536,98.532C563.559,98.619 564.327,99.618 564.249,100.761C564.172,101.905 563.278,102.763 562.255,102.676C556.871,102.22 208.049,99.9 179.559,100.929Z" style="fill:rgb(170,40,33);"/>
        </g>
        <g transform="matrix(1,0,0,0.938072,0,43.3728)">
            <path d="M561.239,99.782C561.405,98.651 562.362,97.883 563.375,98.069C564.388,98.255 565.075,99.324 564.909,100.456C563.956,106.932 565.826,200.137 565.367,282.924C564.74,396.165 566.743,416.585 566.787,512.072C566.812,564.698 569.662,635.578 570.61,696.36C570.628,697.506 569.81,698.454 568.783,698.474C567.757,698.494 566.91,697.579 566.892,696.432C565.944,635.627 563.093,564.72 563.068,512.075C563.023,416.575 561.021,396.153 561.648,282.898C562.109,199.818 560.283,106.282 561.239,99.782Z" style="fill:rgb(170,40,33);"/>
        </g>
        <g transform="matrix(1,0,0,0.938072,0,43.3728)">
            <path d="M182.982,701.802C181.961,701.918 181.048,701.085 180.945,699.944C180.842,698.803 181.587,697.783 182.608,697.668C239.884,691.185 549.18,696.481 568.591,694.601C569.613,694.502 570.515,695.349 570.604,696.492C570.692,697.635 569.934,698.643 568.912,698.742C549.504,700.621 240.251,695.321 182.982,701.802Z" style="fill:rgb(170,40,33);"/>
        </g>
    </g>
    <g transform="matrix(1.29402,0,0,0.369033,7.42686,208.612)">
        <path d="M212.637,354.495C211.751,354.232 211.093,351.498 211.168,348.393C211.243,345.288 212.023,342.981 212.908,343.244C256.752,356.263 314.761,347.544 391.541,345.881C507.559,343.368 504.339,350.281 537.629,345.483C538.517,345.355 539.268,347.778 539.304,350.891C539.341,354.004 538.649,356.636 537.762,356.764C504.446,361.566 507.668,354.657 391.561,357.171C314.656,358.837 256.552,367.534 212.637,354.495Z" style="fill:rgb(170,40,33);"/>
    </g>
    <g transform="matrix(1.12036,0,0,1.12036,68.763,-61.3376)">
        <g transform="matrix(1,0,0,0.818071,0,57.8074)">
            <path d="M337.935,297.433C336.933,297.701 335.941,296.923 335.722,295.697C335.502,294.472 336.139,293.259 337.141,292.992C346.155,290.584 420.148,288.555 420.587,288.504C421.608,288.385 422.517,289.302 422.614,290.551C422.712,291.8 421.961,292.911 420.94,293.03C420.504,293.081 346.901,295.038 337.935,297.433Z" style="fill:rgb(170,40,33);"/>
        </g>
        <g transform="matrix(1,0,0,0.818071,0,57.8074)">
            <path d="M336.878,296.174C336.827,294.921 337.617,293.852 338.642,293.789C339.667,293.726 340.541,294.692 340.593,295.945C341.042,306.836 342.108,306.517 342.821,317.569C342.902,318.82 342.137,319.915 341.114,320.014C340.091,320.113 339.194,319.177 339.114,317.927C338.397,306.809 337.33,307.129 336.878,296.174Z" style="fill:rgb(170,40,33);"/>
        </g>
        <g transform="matrix(1,0,0,0.818071,0,57.8074)">
            <path d="M340.491,319.176C339.468,319.278 338.569,318.346 338.486,317.095C338.402,315.845 339.165,314.747 340.188,314.645C379.985,310.666 379.831,310.893 419.74,312.5C420.765,312.541 421.571,313.593 421.537,314.847C421.503,316.101 420.643,317.085 419.617,317.044C379.922,315.445 380.075,315.219 340.491,319.176Z" style="fill:rgb(170,40,33);"/>
        </g>
        <g transform="matrix(1,0,0,0.818071,0,57.8074)">
            <path d="M421.208,316.065C420.624,317.097 419.465,317.355 418.621,316.641C417.777,315.928 417.565,314.511 418.149,313.479C419.324,311.402 419.828,308.224 420.085,305.113C420.515,299.914 420.165,294.829 420.183,294.088C420.214,292.834 421.071,291.846 422.097,291.884C423.123,291.921 423.931,292.969 423.9,294.223C423.882,294.986 424.228,300.219 423.786,305.569C423.462,309.491 422.689,313.447 421.208,316.065Z" style="fill:rgb(170,40,33);"/>
        </g>
    </g>
    <g transform="matrix(-0.439217,-0.0176012,0.0240306,-0.599654,823.763,313.602)">
        <g transform="matrix(1,0,0,0.818071,0,57.8074)">
            <path d="M338.893,299.279C336.387,299.948 333.744,298.67 332.997,296.425C332.249,294.181 333.677,291.815 336.183,291.146C345.254,288.723 419.71,286.61 420.151,286.559C422.745,286.257 425.125,287.897 425.463,290.219C425.8,292.542 423.969,294.673 421.375,294.975C420.942,295.025 347.802,296.899 338.893,299.279Z" style="fill:rgb(170,40,33);"/>
        </g>
        <g transform="matrix(1,0,0,0.818071,0,57.8074)">
            <path d="M333.999,296.216C333.903,293.876 335.947,291.905 338.561,291.819C341.175,291.732 343.375,293.562 343.472,295.903C343.921,306.782 344.987,306.463 345.699,317.503C345.85,319.841 343.852,321.849 341.241,321.984C338.629,322.119 336.387,320.331 336.236,317.993C335.518,306.863 334.452,307.184 333.999,296.216Z" style="fill:rgb(170,40,33);"/>
        </g>
        <g transform="matrix(1,0,0,0.818071,0,57.8074)">
            <path d="M340.369,321.153C337.753,321.168 335.616,319.279 335.6,316.937C335.583,314.595 337.694,312.681 340.309,312.667C358.622,312.564 370.431,311.93 381.625,311.838C390.406,311.766 400.98,312.069 419.239,310.547C421.843,310.33 424.155,312.046 424.397,314.378C424.64,316.71 422.722,318.78 420.118,318.997C401.475,320.552 390.677,320.251 381.712,320.324C370.511,320.416 358.693,321.051 340.369,321.153Z" style="fill:rgb(170,40,33);"/>
        </g>
        <g transform="matrix(1,0,0,0.818071,0,57.8074)">
            <path d="M423.906,316.689C422.724,318.779 419.87,319.616 417.537,318.557C415.203,317.499 414.268,314.944 415.45,312.855C416.549,310.912 416.968,307.938 417.209,305.028C417.636,299.858 417.285,294.8 417.303,294.063C417.36,291.721 419.53,289.862 422.145,289.913C424.76,289.964 426.837,291.907 426.78,294.248C426.761,295.015 427.106,300.276 426.662,305.654C426.321,309.776 425.463,313.938 423.906,316.689Z" style="fill:rgb(170,40,33);"/>
        </g>
    </g>
    <g transform="matrix(1.12036,0,0,1.12036,66.6654,-55.6896)">
        <path d="M427.518,157.797C428.283,157.661 429.303,157.791 439.199,157.624C440.226,157.606 441.073,158.425 441.09,159.452C441.108,160.478 440.289,161.325 439.262,161.342C428.961,161.517 429.005,161.249 428.143,161.466L427.407,161.57L426.586,161.452C426.147,161.312 426.012,160.745 421.551,161.508C420.539,161.681 419.578,161 419.405,159.988C419.232,158.977 419.912,158.015 420.924,157.842C425.034,157.139 426.853,157.542 427.518,157.797Z" style="fill:rgb(170,40,33);"/>
    </g>
    <g transform="matrix(1.12036,0,0,1.12036,65.8215,-55.9698)">
        <path d="M454.852,161.81C453.831,161.912 452.919,161.165 452.817,160.144C452.716,159.123 453.462,158.211 454.483,158.109C462.75,157.286 464.22,157.564 470.857,157.868C471.883,157.915 472.677,158.785 472.63,159.81C472.583,160.836 471.712,161.63 470.687,161.583C464.268,161.289 462.847,161.014 454.852,161.81Z" style="fill:rgb(170,40,33);"/>
    </g>
    <g transform="matrix(1.12036,0,0,1.12036,66.7233,-56.3837)">
        <path d="M486.392,161.971C485.366,161.994 484.514,161.18 484.49,160.154C484.467,159.128 485.281,158.276 486.307,158.253C487.473,158.226 495.579,157.812 501.445,158.103C502.47,158.153 503.261,159.027 503.21,160.052C503.16,161.077 502.286,161.868 501.261,161.817C495.499,161.532 487.537,161.945 486.392,161.971Z" style="fill:rgb(170,40,33);"/>
    </g>
    <g transform="matrix(1.11963,-0.0402854,0.0402854,1.11963,57.2121,-39.4045)">
        <path d="M408.724,157.572C409.704,157.877 410.252,158.92 409.947,159.9C409.643,160.88 408.6,161.428 407.62,161.123C407.338,161.036 395.528,160.022 390.578,160.685C389.561,160.821 388.625,160.105 388.489,159.088C388.353,158.071 389.068,157.134 390.085,156.998C395.5,156.274 408.416,157.476 408.724,157.572Z" style="fill:rgb(170,40,33);"/>
    </g>
    <g transform="matrix(1.12036,0,0,1.12036,72.491,-53.8902)">
        <path d="M287.168,250.092C286.167,250.317 285.171,249.686 284.947,248.684C284.723,247.683 285.354,246.687 286.356,246.463C306.536,241.945 443.174,241.91 456.816,241.91C457.842,241.91 458.675,242.744 458.675,243.77C458.675,244.796 457.842,245.629 456.816,245.629C443.239,245.629 307.252,245.595 287.168,250.092Z" style="fill:rgb(170,40,33);"/>
    </g>
    <g transform="matrix(0.932086,0,0,1.12036,142.321,-53.8902)">
        <path d="M290.042,263.731C288.828,263.913 287.665,263.24 287.447,262.23C287.229,261.22 288.038,260.252 289.252,260.071C300.997,258.316 366.421,259.438 382.872,258.282C423.981,255.394 442.297,257.015 451.985,256.39C453.215,256.31 454.291,257.077 454.386,258.1C454.482,259.123 453.561,260.018 452.331,260.098C442.647,260.723 424.339,259.101 383.248,261.988C366.87,263.138 301.735,261.984 290.042,263.731Z" style="fill:rgb(170,40,33);"/>
    </g>
    <g transform="matrix(1.12036,0,0,1.12036,72.491,-53.8902)">
        <path d="M317.467,215.369L320.019,212.847C320.592,212.28 321.466,212.148 322.182,212.519C322.898,212.891 323.293,213.681 323.16,214.477C323.16,214.477 322.424,218.877 322.424,218.876C327.632,215.707 328.709,215.31 336.583,212.129C337.27,211.852 338.055,212.008 338.583,212.526C339.111,213.045 339.281,213.827 339.017,214.518C339.017,214.518 337.525,218.414 337.527,218.413C340.388,216.178 342.045,215.107 347.438,211.561C348.105,211.122 348.979,211.158 349.608,211.652C350.236,212.146 350.479,212.986 350.211,213.739C349.395,216.029 348.871,217.567 348.469,218.738C351.538,216.666 353.126,215.921 358.859,213.077C359.534,212.743 360.343,212.848 360.91,213.344C361.476,213.84 361.688,214.628 361.446,215.341C361.446,215.341 359.623,220.711 359.624,220.711C363.75,217.798 365.408,217.249 372.505,213.621C373.217,213.257 374.082,213.389 374.653,213.949C375.204,214.49 375.362,215.311 375.059,216.014C376.281,215.162 377.806,214.181 380.19,212.604C380.813,212.191 381.622,212.192 382.245,212.605C382.867,213.019 383.182,213.764 383.043,214.499C383.043,214.499 382.22,218.867 382.221,218.866C388.224,215.617 389.281,215.269 397.8,211.843C398.375,211.611 399.027,211.682 399.54,212.03C400.052,212.379 400.357,212.96 400.353,213.579L400.321,218.719L404.782,215.825C405.441,215.398 406.298,215.431 406.922,215.908C407.547,216.384 407.804,217.202 407.565,217.951L406.939,219.913L414.59,214.619C415.237,214.172 416.094,214.18 416.732,214.638C417.371,215.096 417.652,215.906 417.436,216.661C417.436,216.661 416.683,219.289 416.683,219.289C421.58,215.624 422.919,214.723 430.8,210.18C431.459,209.8 432.282,209.86 432.88,210.331C433.477,210.801 433.727,211.589 433.512,212.318C433.512,212.318 431.532,219.013 431.533,219.013C433.848,217.454 437.616,215.257 444.03,212.017C444.694,211.682 445.493,211.774 446.063,212.251C446.633,212.728 446.864,213.499 446.65,214.211L445.239,218.912L457.371,211.939C457.98,211.588 458.735,211.612 459.322,211.999C459.909,212.386 460.227,213.071 460.144,213.77L459.555,218.738L464.75,214.399C465.326,213.917 466.137,213.83 466.803,214.178C467.469,214.526 467.86,215.241 467.794,215.99C467.794,215.99 467.226,222.428 467.225,222.428C469.033,221.276 472.064,219.338 477.391,215.911C477.973,215.537 478.714,215.516 479.316,215.858C479.917,216.199 480.279,216.846 480.256,217.538C480.256,217.538 480.186,219.609 480.186,219.609C484.414,217.283 485.406,217.29 492.366,216.963C493.391,216.915 494.262,217.709 494.31,218.734C494.358,219.759 493.565,220.63 492.54,220.678C485.153,221.025 485.326,220.938 479.138,224.475C478.552,224.809 477.832,224.801 477.254,224.452C476.677,224.104 476.334,223.471 476.356,222.797C476.356,222.797 476.419,220.957 476.419,220.957C467.068,226.963 467.045,226.923 466.097,227.579C465.504,227.989 464.727,228.019 464.104,227.657C463.481,227.294 463.123,226.604 463.187,225.886L463.695,220.126L458.35,224.591C457.766,225.079 456.942,225.162 456.273,224.799C455.603,224.436 455.222,223.701 455.312,222.945L456.015,217.007L443.041,224.465C442.381,224.844 441.556,224.783 440.959,224.31C440.363,223.837 440.115,223.048 440.334,222.318C440.334,222.318 441.828,217.339 441.829,217.339C429.979,223.607 430.64,224.863 429.088,226.102C428.453,226.609 427.563,226.645 426.89,226.192C426.216,225.739 425.914,224.901 426.144,224.122C426.144,224.122 428.619,215.751 428.619,215.751C422.886,219.136 421.898,220.053 414.483,225.581C413.844,226.058 412.971,226.074 412.315,225.62C411.658,225.166 411.364,224.345 411.584,223.578L412.427,220.638L404.565,226.077C403.91,226.53 403.04,226.516 402.4,226.043C401.761,225.569 401.493,224.741 401.735,223.983L402.439,221.779L399.453,223.716C398.879,224.088 398.148,224.116 397.548,223.787C396.948,223.459 396.577,222.828 396.581,222.145C396.581,222.145 396.617,216.326 396.617,216.325C389.418,219.216 388.785,219.501 380.56,224.009C379.929,224.355 379.156,224.306 378.574,223.884C377.992,223.461 377.706,222.741 377.839,222.034C377.839,222.034 378.576,218.122 378.576,218.122C375.557,220.133 374.653,220.917 370.613,224.914C369.969,225.551 368.959,225.631 368.222,225.103C367.486,224.575 367.237,223.593 367.634,222.778C367.634,222.778 369.274,219.407 369.275,219.406C364.79,221.641 363.385,222.414 357.075,227.236C356.424,227.733 355.526,227.746 354.861,227.269C354.196,226.791 353.922,225.935 354.185,225.16C354.185,225.16 356.474,218.417 356.475,218.417C352.353,220.495 351.294,221.236 345.386,225.455C344.693,225.95 343.753,225.911 343.103,225.361C342.454,224.811 342.261,223.889 342.635,223.125C343.856,220.632 344.19,219.76 344.9,217.692C341.311,220.095 340.019,221.135 334.501,225.62C333.848,226.151 332.92,226.176 332.238,225.682C331.556,225.189 331.291,224.298 331.592,223.512C331.592,223.512 334.015,217.183 334.015,217.183C328.736,219.346 327.722,219.97 320.891,224.183C320.271,224.566 319.483,224.55 318.878,224.143C318.272,223.736 317.961,223.013 318.081,222.293L318.543,219.534L311.78,226.218C311.128,226.862 310.104,226.935 309.368,226.39C308.631,225.846 308.4,224.846 308.825,224.033L310.689,220.467L301.062,226.764C300.439,227.172 299.633,227.169 299.014,226.756C298.394,226.344 298.08,225.602 298.216,224.87C298.216,224.87 299.106,220.052 299.107,220.052C297.292,221.288 294.227,223.386 288.332,227.403C287.711,227.827 286.895,227.834 286.266,227.422C285.636,227.01 285.318,226.259 285.458,225.52L285.905,223.169L280.987,227.481C280.381,228.012 279.502,228.093 278.81,227.681C278.118,227.269 277.77,226.458 277.947,225.672L278.215,224.489L274.647,226.929C274.071,227.322 273.323,227.361 272.71,227.028C272.097,226.695 271.722,226.047 271.738,225.349C271.738,225.349 271.85,220.636 271.85,220.636C266.648,222.909 266.062,223.461 259.22,226.831C258.578,227.148 257.81,227.067 257.248,226.624C256.685,226.181 256.427,225.454 256.584,224.755C256.584,224.755 256.866,223.502 256.865,223.503C253.769,225.507 252.512,226.021 246.927,228.405C246.248,228.695 245.461,228.555 244.923,228.049C244.385,227.543 244.198,226.766 244.446,226.071L246.557,220.147C246.901,219.181 247.966,218.675 248.933,219.02C249.899,219.365 250.404,220.429 250.06,221.396C250.06,221.396 249.381,223.3 249.381,223.3C252.808,221.784 253.804,221.106 258.661,217.835C259.293,217.41 260.121,217.413 260.75,217.843C261.378,218.273 261.681,219.043 261.514,219.786C261.514,219.786 261.073,221.748 261.072,221.748C265.647,219.425 266.52,218.838 273.053,216.073C273.635,215.827 274.301,215.893 274.824,216.248C275.346,216.603 275.652,217.198 275.637,217.83L275.542,221.811L280.025,218.747C280.656,218.316 281.487,218.315 282.119,218.744C282.752,219.174 283.057,219.947 282.888,220.693L282.838,220.912L287.514,216.812C288.111,216.289 288.974,216.202 289.663,216.596C290.352,216.99 290.715,217.778 290.567,218.558C290.567,218.558 289.951,221.798 289.951,221.798C298.822,215.747 298.835,215.715 300.736,214.51C301.36,214.114 302.16,214.125 302.773,214.539C303.385,214.953 303.695,215.691 303.56,216.418L302.663,221.273L314.625,213.448C315.333,212.985 316.265,213.059 316.892,213.627C317.386,214.075 317.592,214.74 317.467,215.369Z" style="fill:rgb(170,40,33);"/>
    </g>
    <g transform="matrix(1.12036,0,0,0.921399,80.7112,22.4191)">
        <path d="M334.898,378.399L340.251,374.625C340.848,374.204 341.587,374.22 342.172,374.666C342.756,375.112 343.089,375.915 343.038,376.752C343.038,376.752 342.889,379.144 342.889,379.144C349.048,376.347 349.079,376.35 350.32,375.72C350.938,375.407 351.646,375.521 352.176,376.019C352.705,376.518 352.973,377.324 352.877,378.129L352.574,380.682L357.413,377.056C357.968,376.64 358.663,376.608 359.242,376.972C359.822,377.337 360.202,378.044 360.244,378.836C360.244,378.836 360.309,380.055 360.309,380.055L366.49,376.053C367.066,375.68 367.761,375.701 368.321,376.109C368.88,376.517 369.223,377.253 369.224,378.046C369.224,378.046 369.225,379.169 369.225,379.169L379.778,374.49C380.447,374.194 381.196,374.388 381.708,374.989C382.22,375.591 382.404,376.495 382.182,377.318L381.794,378.761L391.586,375.087C392.185,374.862 392.838,375.02 393.321,375.506C393.803,375.993 394.052,376.742 393.982,377.5C393.982,377.5 393.846,378.979 393.846,378.979C397.521,376.801 399.384,376.667 399.633,376.659C400.115,376.59 400.605,376.752 400.995,377.122C401.475,377.577 401.741,378.288 401.708,379.026C401.708,379.026 401.685,379.558 401.685,379.558C406.867,376.482 409.148,375.082 410.327,374.427C411.588,373.726 411.941,373.682 412.532,373.62C412.736,373.598 412.921,373.596 413.088,373.607L413.69,373.716L414.549,374.199L414.935,374.62L415.232,375.123L415.45,375.745L415.562,376.575C415.58,377.101 415.473,377.788 415.29,378.55C418.523,376.671 422.186,374.015 424.952,372.98C425.584,372.743 426.272,372.933 426.758,373.477C427.245,374.022 427.457,374.839 427.316,375.625L426.991,377.428L430.665,374.188C431.262,373.662 432.058,373.614 432.695,374.067C433.332,374.519 433.688,375.386 433.604,376.277L433.394,378.501C435.568,377.197 438.817,375.987 443.093,376.386C444.117,376.481 444.884,377.569 444.805,378.813C444.727,380.057 443.832,380.99 442.809,380.894C436.029,380.262 433.292,383.887 432.485,384.684L431.961,385.105L431.375,385.332C430.801,385.441 430.218,385.219 429.799,384.73C429.38,384.241 429.173,383.541 429.24,382.84C429.24,382.84 429.426,380.867 429.426,380.867L425.221,384.575C424.596,385.126 423.757,385.15 423.111,384.636C422.465,384.122 422.148,383.177 422.313,382.26C422.313,382.26 422.928,378.848 422.928,378.848C419.677,380.729 415.978,383.418 413.191,384.461C412.666,384.658 412.097,384.562 411.636,384.2C411.174,383.838 410.868,383.247 410.799,382.584C410.685,381.488 410.929,380.156 411.275,378.88C409.713,379.787 406.741,381.604 400.47,385.307C399.878,385.656 399.178,385.599 398.629,385.156C398.081,384.713 397.766,383.951 397.801,383.151C397.801,383.151 397.863,381.747 397.864,381.747C396.663,382.278 394.952,383.238 392.554,384.981C391.947,385.421 391.188,385.406 390.594,384.941C389.999,384.476 389.673,383.642 389.752,382.788L389.97,380.426L379.457,384.37C378.793,384.619 378.07,384.398 377.582,383.795C377.095,383.192 376.925,382.309 377.141,381.506L377.457,380.333L368.005,384.524C367.435,384.776 366.799,384.675 366.302,384.252C365.805,383.83 365.509,383.139 365.508,382.401L365.508,381.812L359.512,385.694C358.955,386.055 358.285,386.047 357.733,385.673C357.181,385.299 356.823,384.61 356.783,383.843L356.732,382.879L351.142,387.068C350.528,387.528 349.75,387.515 349.146,387.033C348.543,386.552 348.223,385.689 348.326,384.82C348.326,384.82 348.742,381.314 348.742,381.314C347.391,381.928 345.225,382.908 341.467,384.618C340.873,384.889 340.206,384.772 339.699,384.309C339.192,383.845 338.914,383.1 338.961,382.33L339.063,380.69L332.954,384.997C332.3,385.457 331.483,385.392 330.885,384.83C330.359,384.337 330.095,383.546 330.176,382.76L325.153,385.736C324.555,386.091 323.846,386.03 323.295,385.575C322.744,385.121 322.435,384.344 322.484,383.537C322.484,383.537 322.638,381.006 322.638,381.006L315.202,385.169C314.458,385.585 313.578,385.361 313.034,384.617C312.49,383.873 312.411,382.784 312.838,381.935C313.131,381.353 313.338,380.924 313.512,380.53C310.565,382.506 307.243,384.747 306.61,385.239C305.745,385.91 304.594,385.601 304.042,384.549C303.49,383.497 303.744,382.098 304.609,381.427C305.795,380.507 316.294,373.516 316.458,373.399C317.152,372.905 318.029,373.01 318.63,373.659C319.232,374.307 319.423,375.353 319.103,376.251C318.799,377.102 318.545,377.823 318.329,378.44L323.949,375.294C324.547,374.96 325.245,375.034 325.786,375.491C326.327,375.947 326.629,376.717 326.581,377.515L326.432,379.948L332.227,376.513C332.885,376.124 333.668,376.238 334.231,376.807C334.63,377.21 334.865,377.79 334.898,378.399Z" style="fill:rgb(170,40,33);"/>
    </g>
    <g transform="matrix(1.12036,0,0,1.12036,72.491,-77.868)">
        <g transform="matrix(1.06235,0,0,1,-19.5323,0)">
            <path d="M216.924,424.448C215.973,424.628 215.063,423.954 214.893,422.944C214.724,421.934 215.358,420.967 216.309,420.787C231.75,417.86 236.64,422.886 310.533,419.684C311.498,419.642 312.314,420.441 312.353,421.466C312.393,422.492 311.641,423.358 310.676,423.4C237.153,426.586 232.288,421.536 216.924,424.448Z" style="fill:rgb(170,40,33);"/>
        </g>
        <g transform="matrix(1.06235,0,0,1,-19.5323,0)">
            <path d="M309.856,422.294C309.901,421.269 310.721,420.475 311.686,420.522C312.651,420.57 313.398,421.441 313.353,422.466C312.626,439.117 313.32,438.889 314.351,455.371C315.967,481.199 313.273,490.673 314.976,499.09C315.179,500.093 314.577,501.083 313.632,501.299C312.688,501.514 311.756,500.875 311.553,499.872C309.829,491.351 312.494,481.763 310.858,455.617C309.814,438.926 309.12,439.156 309.856,422.294Z" style="fill:rgb(170,40,33);"/>
        </g>
        <g transform="matrix(1.06235,0,0,1,-19.5323,0)">
            <path d="M313.189,497.623C314.155,497.579 314.972,498.376 315.013,499.401C315.055,500.426 314.305,501.295 313.34,501.339C264.735,503.554 264.924,500.518 216.153,503.844C215.189,503.909 214.356,503.131 214.294,502.107C214.233,501.083 214.965,500.198 215.929,500.132C264.737,496.804 264.548,499.84 313.189,497.623Z" style="fill:rgb(170,40,33);"/>
        </g>
        <g transform="matrix(1.06235,0,0,1,-19.5323,0)">
            <path d="M217.031,502.74C216.967,503.764 216.132,504.54 215.168,504.472C214.204,504.403 213.474,503.517 213.538,502.493C213.927,496.287 216.511,455.208 212.954,424.772C212.835,423.754 213.516,422.824 214.475,422.698C215.434,422.571 216.309,423.296 216.428,424.314C220.017,455.026 217.424,496.478 217.031,502.74Z" style="fill:rgb(170,40,33);"/>
        </g>
    </g>
    <g transform="matrix(1.01056,0,0,1.12036,109.214,-77.868)">
        <path d="M337.534,501.969C337.329,502.979 336.255,503.648 335.135,503.464C334.016,503.279 333.274,502.31 333.478,501.3C334.082,498.322 335.954,488.972 333.524,463.317C332.763,455.282 333.158,430.594 332.4,423.32C332.294,422.298 333.127,421.39 334.26,421.294C335.393,421.198 336.399,421.95 336.505,422.972C337.264,430.251 336.871,454.959 337.632,463.001C340.125,489.321 338.154,498.914 337.534,501.969Z" style="fill:rgb(170,40,33);"/>
    </g>
    <g transform="matrix(1.01056,0,0,1.12036,109.214,-77.868)">
        <path d="M334.25,423.931C333.117,423.831 332.287,422.921 332.398,421.899C332.508,420.878 333.517,420.129 334.65,420.229C384.777,424.641 384.663,421.426 439.019,421.046C440.157,421.038 441.087,421.864 441.096,422.891C441.105,423.917 440.189,424.757 439.051,424.765C384.47,425.146 384.585,428.361 334.25,423.931Z" style="fill:rgb(170,40,33);"/>
    </g>
    <g transform="matrix(1.01056,0,0,1.12036,109.214,-77.868)">
        <path d="M438.217,424.077C438.131,423.054 438.983,422.16 440.117,422.082C441.252,422.005 442.243,422.773 442.328,423.796C446.746,476.474 444.959,488.612 445.799,498.842C445.883,499.866 445.029,500.758 443.895,500.834C442.76,500.91 441.771,500.14 441.687,499.117C440.847,488.888 442.635,476.751 438.217,424.077Z" style="fill:rgb(170,40,33);"/>
    </g>
    <g transform="matrix(1.01056,0,0,1.12036,109.214,-77.868)">
        <path d="M336.725,503.695C335.6,503.849 334.548,503.15 334.378,502.135C334.207,501.12 334.982,500.172 336.107,500.018C340.835,499.372 372.787,499.059 394.13,498.158C419.24,497.097 418.932,496.711 443.829,497.657C444.966,497.7 445.85,498.568 445.802,499.593C445.754,500.619 444.793,501.416 443.656,501.373C418.942,500.434 419.248,500.82 394.322,501.873C373.137,502.768 341.417,503.054 336.725,503.695Z" style="fill:rgb(170,40,33);"/>
    </g>
    <g transform="matrix(1.20808,0,0,1.08014,24.0997,-61.7864)">
        <path d="M458.939,422.997C458.943,421.933 459.719,421.072 460.671,421.076C461.623,421.081 462.392,421.948 462.388,423.013C462.366,429.324 462.194,476.665 464.254,501.884C464.34,502.944 463.641,503.884 462.693,503.981C461.745,504.077 460.906,503.295 460.819,502.235C458.75,476.899 458.917,429.338 458.939,422.997Z" style="fill:rgb(170,40,33);"/>
        <path d="M462.638,503.985C461.688,504.048 460.871,503.236 460.815,502.174C460.759,501.111 461.485,500.197 462.435,500.134C488.286,498.424 504.927,499.387 551.661,500.741C552.612,500.769 553.365,501.655 553.34,502.719C553.316,503.783 552.523,504.625 551.572,504.597C504.991,503.248 488.404,502.281 462.638,503.985Z" style="fill:rgb(170,40,33);"/>
        <path d="M553.314,501.543C553.385,502.605 552.673,503.531 551.724,503.611C550.775,503.691 549.946,502.894 549.875,501.832C547.436,465.564 547.066,468.51 545.554,422.274C545.519,421.21 546.263,420.315 547.215,420.276C548.166,420.237 548.966,421.069 549.001,422.133C550.51,468.283 550.88,465.343 553.314,501.543Z" style="fill:rgb(170,40,33);"/>
        <path d="M547.147,420.28C548.096,420.2 548.925,420.996 548.997,422.058C549.069,423.119 548.357,424.046 547.408,424.127C502.723,427.915 475.198,423.293 460.825,424.924C459.878,425.031 459.032,424.259 458.936,423.2C458.84,422.141 459.53,421.194 460.477,421.086C474.864,419.454 502.417,424.072 547.147,420.28Z" style="fill:rgb(170,40,33);"/>
    </g>
    <g transform="matrix(1.12036,0,0,1.12036,72.491,-100.487)">
        <path d="M566.794,591.676C567.588,591.655 568.337,592.148 568.605,592.939C568.934,593.912 568.412,594.968 567.439,595.297L566.822,595.395C566.617,595.397 565.514,595.397 563.56,595.398C544.103,595.406 439.871,595.477 296.368,597.676C194.919,599.23 195.041,599.152 186.23,599.315C185.204,599.334 184.355,598.517 184.336,597.491C184.318,596.465 185.135,595.616 186.161,595.597C194.973,595.434 194.851,595.511 296.311,593.957C439.844,591.758 544.098,591.687 563.559,591.679C565.497,591.678 566.794,591.676 566.794,591.676Z" style="fill:rgb(170,40,33);"/>
    </g>
    <g transform="matrix(1.11967,-0.0391929,0.0391929,1.11967,66.3472,-45.7021)">
        <path d="M197.647,153.878C197.708,152.853 198.589,152.071 199.614,152.132C200.638,152.193 201.42,153.075 201.359,154.099C201.103,158.388 201.043,162.438 201.153,164.625C206.536,164.128 205.279,164.881 212.03,164.881C213.057,164.881 213.89,165.714 213.89,166.741C213.89,167.767 213.057,168.6 212.03,168.6C204.847,168.6 207.035,167.694 199.742,168.509C198.845,168.61 198.006,168.051 197.751,167.185C197.425,166.072 197.269,160.21 197.647,153.878Z" style="fill:rgb(170,40,33);"/>
    </g>
    <g transform="matrix(1.11967,-0.0391929,0.0391929,1.11967,66.3472,-45.7021)">
        <path d="M200.896,155.981C199.874,156.074 198.969,155.319 198.877,154.297C198.784,153.275 199.539,152.37 200.561,152.277C206.557,151.735 206.559,152.997 212.496,152.283C213,152.222 213.507,152.37 213.899,152.692C214.291,153.015 214.534,153.483 214.572,153.989C215.057,160.388 214.846,160.732 213.867,166.95C213.708,167.964 212.755,168.658 211.741,168.498C210.727,168.339 210.034,167.386 210.194,166.372C211,161.247 211.258,160.396 210.996,156.157C206.858,156.415 206.209,155.501 200.896,155.981Z" style="fill:rgb(170,40,33);"/>
    </g>
    <g transform="matrix(1.12036,0,0,1.12036,71.8481,-53.7486)">
        <path d="M222.111,156.269C222.419,155.787 222.942,155.46 223.542,155.416C224.419,155.351 225.221,155.91 225.465,156.755C225.56,157.083 225.641,157.369 225.714,157.623C225.854,157.249 226.018,156.809 226.226,156.261C226.519,155.49 227.284,155.004 228.107,155.067C228.929,155.13 229.612,155.727 229.783,156.534C229.997,157.535 230.125,158.243 230.231,158.825C230.544,158.258 230.942,157.579 231.551,156.596C231.967,155.925 232.762,155.59 233.533,155.761C234.304,155.932 234.883,156.57 234.977,157.354C235.01,157.624 235.04,157.87 235.068,158.097C235.189,157.756 235.322,157.367 235.476,156.911C235.744,156.112 236.517,155.594 237.359,155.648C238.2,155.703 238.899,156.317 239.063,157.144C239.12,157.436 239.179,157.711 239.238,157.97C239.356,157.753 239.481,157.52 239.615,157.272C239.967,156.618 240.676,156.237 241.416,156.302C242.156,156.368 242.786,156.868 243.018,157.574C243.054,157.683 243.29,158.311 243.546,158.988C243.889,158.554 244.293,158.062 244.745,157.539C245.07,157.164 245.531,156.935 246.026,156.901C246.521,156.868 247.009,157.034 247.381,157.362C248.918,158.719 248.777,158.804 250.545,159.688C251.463,160.147 251.836,161.265 251.377,162.183C250.918,163.101 249.8,163.474 248.882,163.015C247.446,162.297 247.012,162.015 246.352,161.437C245.569,162.441 245.165,163.068 244.868,163.359L244.446,163.703L244.016,163.926L243.552,164.052L243.047,164.07L242.215,163.835L241.543,163.363L241.184,162.95C241.119,162.857 241.046,162.737 240.968,162.594C240.745,163.01 240.697,163.104 240.605,163.289C240.288,163.927 239.635,164.328 238.923,164.322C238.507,164.318 238.113,164.175 237.797,163.929C237.774,163.911 237.751,163.893 237.729,163.874C237.535,163.708 237.374,163.5 237.26,163.261C237.3,163.344 237.396,163.596 237.729,163.874C237.649,163.808 237.376,163.609 237.008,162.953C236.768,163.431 236.48,164.004 236.115,164.753C235.775,165.449 235.039,165.862 234.268,165.788C233.496,165.715 232.851,165.171 232.649,164.424C232.498,163.867 232.371,163.407 232.262,163.012C232.024,163.48 231.734,164.037 231.341,164.761C230.992,165.404 230.299,165.782 229.569,165.728C228.84,165.674 228.21,165.198 227.96,164.511C227.752,163.941 227.584,163.463 227.446,163.046C227.393,163.158 227.337,163.275 227.279,163.397C226.969,164.05 226.309,164.463 225.586,164.458C224.863,164.452 224.209,164.029 223.909,163.372C223.837,163.215 223.77,163.068 223.707,162.929C223.354,163.332 222.905,163.785 222.318,164.337C221.81,164.816 221.077,164.969 220.42,164.735C219.762,164.501 219.291,163.919 219.2,163.227C218.815,160.309 218.697,160.378 218.904,157.415C218.976,156.391 219.866,155.618 220.89,155.69C221.374,155.724 221.802,155.941 222.111,156.269Z" style="fill:rgb(170,40,33);"/>
    </g>
</svg>
