<?xml version="1.0" encoding="UTF-8" standalone="no"?>
<!DOCTYPE svg PUBLIC "-//W3C//DTD SVG 1.1//EN" "http://www.w3.org/Graphics/SVG/1.1/DTD/svg11.dtd">
<svg width="100%" height="100%" viewBox="0 0 800 800" version="1.1" xmlns="http://www.w3.org/2000/svg" xmlns:xlink="http://www.w3.org/1999/xlink" xml:space="preserve" xmlns:serif="http://www.serif.com/" stroke-width="3" style="fill-rule:evenodd;clip-rule:evenodd;stroke-linejoin:round;stroke-miterlimit:2;">
    <style type="text/css">
        .step4b{fill:none;stroke:#111C4E;}
    </style>
    <g transform="matrix(0.984019,0,0,1,5.31592,-309.606)">
        <path class="step4b" d="M67.846,400.762C69.056,423.982 66.096,571.816 67.846,697.819" style="fill:none;"/>
    </g>
    <g transform="matrix(0.984019,0,0,1,5.31592,-309.606)">
        <path class="step4b" d="M68.146,697.819C182.861,700.031 356.836,697.191 483.433,698.451C533.179,698.945 591.654,698.362 641.716,697.953C661.867,697.788 680.657,697.857 696.963,697.625C708.278,697.464 716.986,697.947 726.976,697.206" style="fill:none;"/>
    </g>
    <g transform="matrix(0.984019,0,0,1,5.31592,-309.606)">
        <path class="step4b" d="M726.87,399.803C726.667,414.94 726.702,413.347 726.702,556.163C726.702,650.472 727.2,666.471 726.976,697.199" style="fill:none;"/>
    </g>
    <g transform="matrix(0.984019,0,0,1,5.31592,-309.606)">
        <path class="step4b" d="M67.846,400.622C206.012,401.494 299.23,400.174 321.963,400.762C365.561,401.889 455.057,400.159 498.543,400.762C541.981,401.364 609.906,400.615 625.116,400C657.456,398.693 687.266,402.241 726.911,400" style="fill:none;"/>
    </g>
    <g transform="matrix(1,0,0,1,-6.30248,-309.606)">
        <path class="step4b" d="M78.675,400.762C78.552,396.471 78.497,391.738 78.487,387.1C78.448,377.075 86.539,368.914 96.564,368.865C140.699,368.573 149.107,371.121 229.746,369.961C287.384,369.132 448.449,370.894 560.03,370.313C621.853,369.992 665.614,373.056 707.634,372.048C712.473,371.896 717.173,373.682 720.689,377.011C724.205,380.339 726.245,384.934 726.357,389.774C726.432,392.266 726.587,395.316 726.873,399.813" style="fill:none;"/>
    </g>
    <g transform="matrix(0.850434,0,0,0.980067,55.1368,-300.208)">
        <path class="step4b" d="M625.839,375.954C628.403,375.755 630.946,376.5 632.846,378.008C634.745,379.515 635.827,381.646 635.827,383.88C635.869,383.889 635.869,383.898 635.869,383.907C635.869,387.623 632.449,390.658 628.168,390.742C613.55,390.986 578.573,391.467 527.122,391.534C454.677,391.63 330.1,390.369 290.105,390.369C265.266,390.369 242.037,390.278 220.983,390.342C211.216,390.371 201.238,390.453 194.519,390.516C189.976,390.561 186.215,387.463 186.029,383.524C186.028,383.51 186.028,383.496 186.027,383.482C185.841,379.545 189.316,376.201 193.848,375.955C200.449,375.545 209.415,375.059 214.232,375.125C240.955,375.494 287.637,375.76 326.751,376.221C435.971,377.508 459.145,376.281 510.665,376.427C563.977,376.579 602.521,376.056 620.157,376.243C621.994,376.263 623.951,376.142 625.839,375.954Z" style="fill:none;"/>
    </g>
    <g transform="matrix(1,0,0,1,-6.30248,-309.606)">
        <path class="step4b" d="M97.148,385.256C94.541,388.159 95.675,389.333 99.509,390.068C99.828,390.129 107.547,386.602 98.432,384.376" style="fill:none;"/>
    </g>
    <g transform="matrix(1,0,0,1,-6.30248,-309.606)">
        <path class="step4b" d="M117.108,384.501C113.961,383.525 112.407,390.152 117.261,390.319C127.169,390.66 118.744,385.163 118.375,384.922" style="fill:none;"/>
    </g>
    <g transform="matrix(1,0,0,1,-6.30248,-309.606)">
        <path class="step4b" d="M137.611,385.517C133.97,390.422 142.435,391.549 142.912,390.539C145.736,384.552 138.542,385.162 137.963,385.212" style="fill:none;"/>
    </g>
    <g transform="matrix(1.91836,0.0119544,-0.00655707,1.05223,-451.883,-15.1617)">
        <path class="step4b" d="M286.762,248.278C306.894,243.77 443.207,243.77 456.816,243.77" style="fill:none;"/>
    </g>
    <g transform="matrix(1.91836,0.0119544,-0.00655707,1.05223,-451.883,83.0385)">
        <path class="step4b" d="M286.762,248.278C306.894,243.77 443.207,243.77 456.816,243.77" style="fill:none;"/>
    </g>
    <g transform="matrix(1.59599,0.00994554,-0.00655707,1.05223,-364.06,-11.9812)">
        <path class="step4b" d="M289.647,261.901C301.366,260.15 366.646,261.288 383.06,260.135C424.16,257.247 442.472,258.869 452.158,258.244" style="fill:none;"/>
    </g>
    <g transform="matrix(1.59599,0.00994554,-0.00655707,1.05223,-364.06,86.2191)">
        <path class="step4b" d="M289.647,261.901C301.366,260.15 366.646,261.288 383.06,260.135C424.16,257.247 442.472,258.869 452.158,258.244" style="fill:none;"/>
    </g>
    <g transform="matrix(1,0,0,1,-1.28543,-6.0244)">
        <path class="step4b" d="M669.055,121.255C661.251,134.921 668.513,143.446 682.951,140.566C701.022,136.962 690.851,105.905 672.139,119.373" style="fill:none;"/>
    </g>
</svg>
