<?xml version="1.0" encoding="UTF-8" standalone="no"?>
<!DOCTYPE svg PUBLIC "-//W3C//DTD SVG 1.1//EN" "http://www.w3.org/Graphics/SVG/1.1/DTD/svg11.dtd">
<svg width="100%" height="100%" viewBox="0 0 800 800" version="1.1" xmlns="http://www.w3.org/2000/svg" xmlns:xlink="http://www.w3.org/1999/xlink" xml:space="preserve" xmlns:serif="http://www.serif.com/" stroke-width="3" style="fill-rule:evenodd;clip-rule:evenodd;stroke-linejoin:round;stroke-miterlimit:2;">
    <style type="text/css">
        .step3d{fill:none;stroke:#0053bf;}
    </style>
    <g transform="matrix(1.70407,0,0,1.15717,-242.761,271.773)">
        <path class="step3d" d="M220.759,157.545C220.565,160.318 220.683,160.253 221.044,162.983C223.441,160.725 223.237,160.539 223.678,157.27C224.469,160.01 224.389,159.951 225.6,162.598C226.939,159.784 226.855,159.846 227.965,156.921C228.719,160.464 228.462,160.458 229.707,163.874C231.424,160.709 231.213,160.669 233.131,157.577C233.528,160.876 233.586,160.775 234.443,163.937C236.006,160.735 236.109,160.862 237.238,157.504C238.136,162.051 238.93,162.442 238.939,162.462C239.144,162.05 239.133,162.085 241.252,158.155C241.355,158.468 242.393,161.626 242.789,161.983C243.594,162.709 243.528,161.786 246.151,158.757C247.875,160.279 247.729,160.359 249.714,161.351" style="fill:none;"/>
    </g>
    <g transform="matrix(1.05225,0,0,1.05225,7.5009,326.248)">
        <path class="step3d" d="M248.308,220.772C247.605,222.746 246.901,224.72 246.197,226.695C253.454,223.597 253.236,223.73 259.7,219.378L258.398,225.163C266.303,221.269 265.91,221.116 273.778,217.785L273.597,225.393C276.09,223.69 278.582,221.986 281.074,220.282L279.761,226.083C282.754,223.459 285.747,220.835 288.74,218.211L287.285,225.867C299.85,217.304 299.604,217.43 301.732,216.08C301.169,219.123 300.607,222.165 300.044,225.208C305.244,221.807 310.443,218.406 315.643,215.005C313.92,218.301 312.196,221.598 310.473,224.895C314.09,221.32 317.708,217.745 321.326,214.17C320.855,216.98 320.385,219.79 319.915,222.6C328.308,217.424 328.06,217.578 337.28,213.853L333.329,224.177C340.755,218.141 340.602,218.282 348.459,213.114C345.99,220.042 346.255,219.961 344.305,223.942C351.894,218.521 351.615,218.747 359.685,214.743C358.439,218.415 357.192,222.087 355.946,225.758C364.237,219.423 364.196,219.957 373.351,215.277C372.003,218.049 370.654,220.82 369.306,223.592C374.753,218.203 374.631,218.512 381.216,214.154C380.699,216.896 380.183,219.637 379.666,222.379C388.874,217.332 388.668,217.52 398.494,213.568C398.476,216.431 398.458,219.293 398.441,222.156L405.794,217.385L403.507,224.548C407.554,221.748 411.601,218.948 415.648,216.148L413.372,224.09C422.339,217.404 422.001,217.398 431.728,211.791C430.461,216.077 429.194,220.363 427.927,224.649C429.665,223.262 428.683,221.854 444.869,213.676L442.115,222.853C447.509,219.752 452.903,216.651 458.297,213.551L457.158,223.164C460.086,220.718 463.014,218.272 465.942,215.826C465.641,219.234 465.34,222.642 465.039,226.049C466.083,225.327 466.009,225.445 478.397,217.475L478.215,222.86C484.79,219.103 484.604,219.189 492.453,218.821" style="fill:none;"/>
    </g>
</svg>
