<?xml version="1.0" encoding="UTF-8" standalone="no"?>
<!DOCTYPE svg PUBLIC "-//W3C//DTD SVG 1.1//EN" "http://www.w3.org/Graphics/SVG/1.1/DTD/svg11.dtd">
<svg width="100%" height="100%" viewBox="0 0 800 800" version="1.1" xmlns="http://www.w3.org/2000/svg" xmlns:xlink="http://www.w3.org/1999/xlink" xml:space="preserve" xmlns:serif="http://www.serif.com/" stroke-width="60" style="fill-rule:evenodd;clip-rule:evenodd;stroke-linejoin:round;stroke-miterlimit:2;">
    <style type="text/css">
        .step2f{fill:none;stroke:#FFCFBE;}
    </style>
    <g transform="matrix(0.843546,0,0,0.630962,84.605,497.387)">
        <path class="step2f" d="M348.592,188.581C356.476,181.743 376.184,126.547 406.763,117.922C435.011,109.955 463.182,124.787 434.19,155.069C404.817,185.748 350.653,256.534 367.955,270.944C401.108,276.1 420.224,213.052 486.666,154.209C518.548,125.974 611.091,99.983 557.938,150.81C506.967,199.551 424.123,248.076 452.334,275.27C464.985,287.465 487.555,250.342 568.128,190.276C605.953,162.078 648.636,113.336 661.088,129.72C665.85,135.987 632.448,176.235 587.775,220.759C570.977,237.501 565.784,241.02 543.46,262.114C515.196,288.819 581.533,273.146 609.071,240.323C632.314,212.618 711.783,112.694 729.83,133.311C732.342,136.182 742.381,177.668 689.305,223.773C676.572,234.833 630.565,269.007 660.342,279.077C681.253,286.149 715.986,286.045 743.035,265.086" style="fill:none;"/>
    </g>
</svg>
