<?xml version="1.0" encoding="UTF-8" standalone="no"?>
<!DOCTYPE svg PUBLIC "-//W3C//DTD SVG 1.1//EN" "http://www.w3.org/Graphics/SVG/1.1/DTD/svg11.dtd">
<svg width="100%" height="100%" viewBox="0 0 800 800" version="1.1" xmlns="http://www.w3.org/2000/svg" xmlns:xlink="http://www.w3.org/1999/xlink" xml:space="preserve" xmlns:serif="http://www.serif.com/" stroke-width="60" style="fill-rule:evenodd;clip-rule:evenodd;stroke-linejoin:round;stroke-miterlimit:2;">
    <style type="text/css">
        .step2e{fill:none;stroke:#B1CFFF;}
    </style>
    <g transform="matrix(0.843546,0,0,0.984744,84.605,-4.85102)">
        <path class="step2e" d="M358.501,205.002C366.385,198.163 395.644,165.427 426.637,137.041C449.528,116.075 481.372,127.223 452.381,157.504C423.008,188.184 350.653,256.534 367.955,270.944C401.108,276.1 444.028,215.562 510.47,156.72C542.352,128.484 611.091,99.983 557.938,150.81C506.967,199.551 424.123,248.076 452.334,275.27C464.985,287.465 487.555,250.342 568.128,190.276C605.953,162.078 648.636,113.336 661.088,129.72C665.85,135.987 632.448,176.235 587.775,220.759C570.977,237.501 565.784,241.02 543.46,262.114C515.196,288.819 581.533,273.146 609.071,240.323C632.314,212.618 724.894,130.046 742.941,150.663C745.453,153.534 697.159,208.384 688.036,216.028C675.144,226.831 619.976,265.338 649.754,275.408C670.665,282.48 693.629,267.476 720.678,246.517" style="fill:none;"/>
    </g>
</svg>
