<?xml version="1.0" encoding="UTF-8" standalone="no"?>
<!DOCTYPE svg PUBLIC "-//W3C//DTD SVG 1.1//EN" "http://www.w3.org/Graphics/SVG/1.1/DTD/svg11.dtd">
<svg width="100%" height="100%" viewBox="0 0 800 800" version="1.1" xmlns="http://www.w3.org/2000/svg" xmlns:xlink="http://www.w3.org/1999/xlink" xml:space="preserve" xmlns:serif="http://www.serif.com/" stroke-width="2" style="fill-rule:evenodd;clip-rule:evenodd;stroke-linejoin:round;stroke-miterlimit:2;">
    <style type="text/css">
        .step2a{fill:none;stroke:#111C4E;}
    </style>
    <g transform="matrix(1.05225,0,0,1.08447,147.654,-33.2131)">
        <path class="step2a" d="M183.656,699.695C183.325,693.257 194.338,358.846 181.253,162.642C180.636,153.386 180.567,153.707 180.166,144.148C179.787,135.102 181.475,116.171 180.338,98.592" style="fill:none;"/>
    </g>
    <g transform="matrix(1.05225,0,0,1.08447,147.654,-33.2131)">
        <path class="step2a" d="M180.338,98.592C208.843,97.562 557.583,100.148 562.97,100.604" style="fill:none;"/>
    </g>
    <g transform="matrix(1.05225,0,0,1.08447,147.654,-33.2131)">
        <path class="step2a" d="M562.965,100.604C562.011,107.092 563.967,199.977 563.508,282.911C562.881,396.159 564.883,416.58 564.928,512.074C564.953,564.709 567.803,635.877 568.751,696.671" style="fill:none;"/>
    </g>
    <g transform="matrix(1.05225,0,0,1.08447,147.654,-33.2131)">
        <path class="step2a" d="M183.656,699.695C265.771,699.786 528.258,698.052 568.751,696.671" style="fill:none;"/>
    </g>
    <g transform="matrix(1.21536,0,0,0.346601,86.545,186.988)">
        <path class="step2a" d="M212.771,351.914C260.758,353.496 295.333,347.033 372.175,345.369C488.238,342.856 496.546,353.619 537.695,351.123" style="fill:none;"/>
    </g>
    <g transform="matrix(-0.412518,-0.0165313,0.0184637,-0.460741,854.563,253.038)">
        <path class="step2a" d="M337.538,295.212C346.528,292.811 420.326,290.818 420.763,290.767" style="fill:none;"/>
    </g>
    <g transform="matrix(-0.412518,-0.0165313,0.0184637,-0.460741,854.563,253.038)">
        <path class="step2a" d="M338.736,296.059C339.186,306.983 340.252,306.663 340.968,317.748" style="fill:none;"/>
    </g>
    <g transform="matrix(-0.412518,-0.0165313,0.0184637,-0.460741,854.563,253.038)">
        <path class="step2a" d="M340.339,316.91C358.657,316.807 370.471,316.173 381.669,316.081C390.542,316.008 401.227,316.31 419.678,314.772" style="fill:none;"/>
    </g>
    <g transform="matrix(-0.412518,-0.0165313,0.0184637,-0.460741,854.563,253.038)">
        <path class="step2a" d="M419.678,314.772C422.998,308.904 422.011,295.409 422.042,294.156" style="fill:none;"/>
    </g>
    <g transform="matrix(1.05225,0,0,1.05225,142.183,-61.2481)">
        <path class="step2a" d="M421.237,159.675C427.787,158.555 426.397,159.986 427.69,159.662C428.586,159.437 428.539,159.664 439.231,159.483" style="fill:none;"/>
    </g>
    <g transform="matrix(1.05225,0,0,1.05225,141.39,-61.5113)">
        <path class="step2a" d="M454.668,159.96C462.799,159.15 464.244,159.426 470.772,159.725" style="fill:none;"/>
    </g>
    <g transform="matrix(1.05225,0,0,1.05225,142.237,-61.9)">
        <path class="step2a" d="M486.349,160.112C487.505,160.086 495.539,159.672 501.353,159.96" style="fill:none;"/>
    </g>
    <g transform="matrix(1.05157,-0.0378365,0.0378365,1.05157,133.304,-45.9529)">
        <path class="step2a" d="M408.172,159.348C407.877,159.256 395.514,158.148 390.332,158.841" style="fill:none;"/>
    </g>
    <g transform="matrix(1.05225,0,0,1.05225,147.654,-59.5581)">
        <path class="step2a" d="M286.762,248.278C306.894,243.77 443.207,243.77 456.816,243.77" style="fill:none;"/>
    </g>
    <g transform="matrix(0.875428,0,0,1.05225,213.239,-59.5581)">
        <path class="step2a" d="M289.647,261.901C301.366,260.15 366.646,261.288 383.06,260.135C424.16,257.247 442.472,258.869 452.158,258.244" style="fill:none;"/>
    </g>
    <g transform="matrix(1.11786,0,0,1.05225,127.101,-71.9386)">
        <path class="step2a" d="M216.616,422.617C232.019,419.698 236.896,424.736 310.604,421.542" style="fill:none;"/>
    </g>
    <g transform="matrix(1.11786,0,0,1.05225,127.101,-71.9386)">
        <path class="step2a" d="M311.605,422.38C310.873,439.136 311.567,438.907 312.605,455.494C314.23,481.481 311.551,491.012 313.264,499.481" style="fill:none;"/>
    </g>
    <g transform="matrix(1.11786,0,0,1.05225,127.101,-71.9386)">
        <path class="step2a" d="M313.264,499.481C264.641,501.697 264.831,498.661 216.041,501.988" style="fill:none;"/>
    </g>
    <g transform="matrix(1.11786,0,0,1.05225,127.101,-71.9386)">
        <path class="step2a" d="M215.285,502.616C215.676,496.382 218.264,455.117 214.691,424.543" style="fill:none;"/>
    </g>
    <path class="step2a" d="M368.949,455.356C388.623,438.484 396.704,436.519 424.875,412.919C441.831,398.714 470.482,376.168 474.924,373.592" style="fill:none;"/>
    <path class="step2a" d="M369.534,375.645C373.69,380.181 403.05,397.147 421.937,414.634C422.308,414.978 464.095,448.145 474.924,452.989" style="fill:none;"/>
    <g transform="matrix(0.949127,0,0,1.05225,182.145,-71.9386)">
        <path class="step2a" d="M335.506,501.635C336.118,498.618 338.039,489.146 335.578,463.159C334.817,455.12 335.211,430.422 334.453,423.146" style="fill:none;"/>
    </g>
    <g transform="matrix(0.949127,0,0,1.05225,182.145,-71.9386)">
        <path class="step2a" d="M334.45,422.08C384.681,426.501 384.566,423.286 439.035,422.905" style="fill:none;"/>
    </g>
    <g transform="matrix(0.949127,0,0,1.05225,182.145,-71.9386)">
        <path class="step2a" d="M440.273,423.937C444.69,476.612 442.903,488.75 443.743,498.979" style="fill:none;"/>
    </g>
    <g transform="matrix(0.949127,0,0,1.05225,182.145,-71.9386)">
        <path class="step2a" d="M336.416,501.857C341.126,501.213 372.962,500.914 394.226,500.015C419.244,498.958 418.937,498.573 443.743,499.515" style="fill:none;"/>
    </g>
    <path class="step2a" d="M599.449,373.904C578.864,389.816 578.099,388.67 558.448,405.632C506.351,450.599 506.188,450.35 502.26,455.715" style="fill:none;"/>
    <g transform="matrix(1.02464,0,0,0.995031,-12.3436,1.86016)">
        <path class="step2a" d="M500.927,374.33C543.74,413.291 546.696,412.912 561.154,424.329C561.982,424.983 585.521,445.26 599.888,453.381" style="fill:none;"/>
    </g>
    <g transform="matrix(1.13465,0,0,1.01448,102.204,-56.8345)">
        <path class="step2a" d="M460.664,423.005C460.641,429.331 460.472,476.782 462.536,502.06" style="fill:none;"/>
    </g>
    <path class="step2a" d="M627.109,452.989C642.469,432.777 670.601,426.334 705,388.23C712.13,380.332 712.03,380.289 713.116,379.431C713.88,378.827 713.731,378.975 722.728,371.977" style="fill:none;"/>
    <path class="step2a" d="M626.456,374.657C648.412,390.294 660.71,398.148 685.895,420.996C697.571,431.588 716.144,443.488 727.972,452.989" style="fill:none;"/>
    <g transform="matrix(1.13465,0,0,1.01448,102.204,-56.8345)">
        <path class="step2a" d="M462.536,502.06C488.345,500.352 504.959,501.317 551.616,502.669" style="fill:none;"/>
    </g>
    <g transform="matrix(1.13465,0,0,1.01448,102.204,-56.8345)">
        <path class="step2a" d="M551.594,501.688C549.158,465.454 548.788,468.396 547.278,422.203" style="fill:none;"/>
    </g>
    <g transform="matrix(1.13465,0,0,1.01448,102.204,-56.8345)">
        <path class="step2a" d="M547.278,422.203C502.57,425.993 475.031,421.374 460.651,423.005" style="fill:none;"/>
    </g>
    <g transform="matrix(1.05225,0,0,1.05225,147.654,-103.322)">
        <path class="step2a" d="M187.677,597.529C196.487,597.366 194.885,597.371 296.339,595.816C455.804,593.374 564.286,593.903 564.348,593.882" style="fill:none;"/>
    </g>
    <g transform="matrix(1,0,0,1,14.5193,0)">
        <path class="step2a" d="M530.715,524.211C529.607,593.034 533.158,592.769 534.787,661.623C535.694,699.955 532.763,710.502 533.451,725.571" style="fill:none;"/>
    </g>
    <path class="step2a" d="M569.565,609.026C580.775,603.91 584.466,610.651 694.701,605.817" style="fill:none;"/>
    <path class="step2a" d="M569.949,626.25C599.464,624.793 634.595,625.806 640.214,625.968C643.393,626.059 643.316,625.994 698.511,624.843" style="fill:none;"/>
    <path class="step2a" d="M571.212,645.787C593.483,644.718 607.565,645.048 635.691,644.514" style="fill:none;"/>
    <g transform="matrix(0.883866,0,0,1.61923,51.5127,-348.286)">
        <path class="step2a" d="M364.802,563.937C371.489,560.885 496.421,565.43 521.987,562.451" style="fill:none;"/>
    </g>
    <g transform="matrix(0.883866,0,0,1.61923,51.5127,-348.286)">
        <path class="step2a" d="M522.753,562.793C522.753,610.431 525.17,610.312 522.648,641.342" style="fill:none;"/>
    </g>
    <g transform="matrix(0.883866,0,0,1.61923,51.5127,-348.286)">
        <path class="step2a" d="M522.648,641.342C510.344,640.372 484.398,638.558 363.988,643.196" style="fill:none;"/>
    </g>
    <g transform="matrix(0.883866,0,0,1.61923,51.5127,-348.286)">
        <path class="step2a" d="M364.704,564.641C361.9,572.742 366.235,586.493 364.031,613.061C362.724,628.831 363.562,627.394 363.988,643.196" style="fill:none;"/>
    </g>
    <path class="step2a" d="M373.652,565.583C392.425,584.282 411.131,596.121 443.558,628.279C462.364,646.928 504.142,681.389 513.464,690.194" style="fill:none;"/>
    <path class="step2a" d="M513.464,563.005C463.182,614.763 440.427,630.501 409.026,661.321C385.8,684.117 382.485,685.647 373.652,693.552" style="fill:none;"/>
</svg>
