<?xml version="1.0" encoding="UTF-8" standalone="no"?>
<!DOCTYPE svg PUBLIC "-//W3C//DTD SVG 1.1//EN" "http://www.w3.org/Graphics/SVG/1.1/DTD/svg11.dtd">
<svg width="100%" height="100%" viewBox="0 0 800 800" version="1.1" xmlns="http://www.w3.org/2000/svg" xmlns:xlink="http://www.w3.org/1999/xlink" xml:space="preserve" xmlns:serif="http://www.serif.com/" stroke-width="2" style="fill-rule:evenodd;clip-rule:evenodd;stroke-linejoin:round;stroke-miterlimit:2;">
    <style type="text/css">
        .step1b{fill:none;stroke:#0053BF;}
    </style>
    <g>
        <g transform="matrix(0.922505,0,0,0.923251,28.4027,10.7227)">
            <path class="step1b" d="M481.519,139.711C417.986,156.6 436.648,188.801 464.609,197.617C488.461,205.138 510.77,208.457 529.039,197.617C541.305,190.34 551.484,170.009 533.127,155.339C519.774,144.667 492.335,143.951 484.56,147.025" style="fill:none;"/>
        </g>
        <path class="step1b" d="M383.794,48.745C351.217,45.89 302.856,40.117 246.574,74.119C214.508,93.492 230.809,110.311 244.446,115.44C266.879,123.877 307.853,125.748 355.101,116.681C394.061,109.203 442.26,96.548 421.735,69.692C401.036,42.609 321.855,48.465 306.373,50.346" style="fill:none;"/>
        <g transform="matrix(0.962467,0,0,1,9.71208,0)">
            <path class="step1b" d="M140.008,165.757C120.967,161.423 51.31,175.074 53.042,209.831C55.433,257.842 222.8,238 244.446,216.653C267.216,194.199 264.087,177.35 225.952,170.499C206.563,167.016 145.69,164.58 121.929,171.112" style="fill:none;"/>
        </g>
        <g transform="matrix(0.940901,0,0,0.891877,42.9289,7.18076)">
            <path class="step1b" d="M636.99,67.634C596.449,61.259 548.553,59.655 537.774,88.582C518.127,141.308 626.826,204.799 702.774,158.731C748.436,131.032 715.527,105.359 693.879,94.063C649.166,70.731 598.287,71.941 595.45,71.815" style="fill:none;"/>
        </g>
        <g transform="matrix(1.0598,-0.0514467,0.0516773,1.06455,-45.3723,-23.0943)">
            <path class="step1b" d="M115.609,555.519C109.223,555.908 37.198,556.012 41.048,591.054C45.104,627.966 232.592,643.862 243.581,590.592C248.166,568.367 208.007,557.949 188.116,553.769C168.203,549.584 136.188,547.191 97.095,550.06" style="fill:none;"/>
        </g>
        <g transform="matrix(1.06827,0,0,1,-36.7557,0)">
            <path class="step1b" d="M701.167,572.819C638.904,565.021 552.227,562.689 540.126,587.435C514.866,639.089 769.393,647.36 771.795,606.209C773.124,583.437 749.594,577.767 727.781,572.277C708.308,567.376 685.182,562.972 650.137,560.979" style="fill:none;"/>
        </g>
        <g transform="matrix(0.891527,-0.0823317,0.083517,0.904362,-47.2808,79.858)">
            <path class="step1b" d="M201.472,671.352C166.449,667.416 130.091,671.116 111.372,683.214C97.396,692.247 103.513,712.362 118.882,720.087C141.048,731.228 303.885,751.804 273.039,693.436C270.413,688.468 226.022,664.346 167.66,672.986" style="fill:none;"/>
        </g>
        <g transform="matrix(1.01527,0,0,1.10673,-4.70084,-75.5077)">
            <path class="step1b" d="M375.378,708.618C307.28,704.252 288.428,741.684 314.715,753.066C340.062,764.041 373.004,765.781 414.814,759.457C450.956,753.99 467.154,711.755 373.709,715.32" style="fill:none;"/>
        </g>
        <g transform="matrix(1.04138,-0.05649,0.0493222,0.909247,-53.3888,91.7696)">
            <path class="step1b" d="M599.794,658.923C565.601,652.535 519.569,650.391 503.335,655.996C463.266,669.832 474.155,702.291 494.788,716.143C517.085,731.112 619.36,740.727 669.401,719.711C696.206,708.453 692.652,664.202 630.938,660.788C599.847,659.068 580.886,659.601 560.193,662.024" style="fill:none;"/>
        </g>
    </g>
</svg>
