<?xml version="1.0" encoding="UTF-8" standalone="no"?>
<!DOCTYPE svg PUBLIC "-//W3C//DTD SVG 1.1//EN" "http://www.w3.org/Graphics/SVG/1.1/DTD/svg11.dtd">
<svg width="100%" height="100%" viewBox="0 0 800 800" version="1.1" xmlns="http://www.w3.org/2000/svg" xmlns:xlink="http://www.w3.org/1999/xlink" xml:space="preserve" xmlns:serif="http://www.serif.com/" stroke-width="2" style="fill-rule:evenodd;clip-rule:evenodd;stroke-linejoin:round;stroke-miterlimit:2;">
    <style type="text/css">
        .step2b{fill:none;stroke:#0053bf;}
    </style>
    <g transform="matrix(1.05225,0,0,1.05225,147.654,-59.5581)">
        <path class="step2b" d="M248.308,220.772C247.605,222.746 246.901,224.72 246.197,226.695C253.454,223.597 253.236,223.73 259.7,219.378L258.398,225.163C266.303,221.269 265.91,221.116 273.778,217.785L273.597,225.393C276.09,223.69 278.582,221.986 281.074,220.282L279.761,226.083C282.754,223.459 285.747,220.835 288.74,218.211L287.285,225.867C299.85,217.304 299.604,217.43 301.732,216.08C301.169,219.123 300.607,222.165 300.044,225.208C305.244,221.807 310.443,218.406 315.643,215.005C313.92,218.301 312.196,221.598 310.473,224.895C314.09,221.32 317.708,217.745 321.326,214.17C320.855,216.98 320.385,219.79 319.915,222.6C328.308,217.424 328.06,217.578 337.28,213.853L333.329,224.177C340.755,218.141 340.602,218.282 348.459,213.114C345.99,220.042 346.255,219.961 344.305,223.942C351.894,218.521 351.615,218.747 359.685,214.743C358.439,218.415 357.192,222.087 355.946,225.758C364.237,219.423 364.196,219.957 373.351,215.277C372.003,218.049 370.654,220.82 369.306,223.592C374.753,218.203 374.631,218.512 381.216,214.154C380.699,216.896 380.183,219.637 379.666,222.379C388.874,217.332 388.668,217.52 398.494,213.568C398.476,216.431 398.458,219.293 398.441,222.156L405.794,217.385L403.507,224.548C407.554,221.748 411.601,218.948 415.648,216.148L413.372,224.09C422.339,217.404 422.001,217.398 431.728,211.791C430.461,216.077 429.194,220.363 427.927,224.649C429.665,223.262 428.683,221.854 444.869,213.676L442.115,222.853C447.509,219.752 452.903,216.651 458.297,213.551L457.158,223.164C460.086,220.718 463.014,218.272 465.942,215.826C465.641,219.234 465.34,222.642 465.039,226.049C466.083,225.327 466.009,225.445 478.397,217.475L478.215,222.86C484.79,219.103 484.604,219.189 492.453,218.821" style="fill:none;"/>
    </g>
    <g transform="matrix(1.05225,0,0,0.86539,155.375,14.0366)">
        <path class="step2b" d="M305.609,383.333C306.789,382.418 317.234,375.467 317.397,375.351C315.438,380.84 315.652,380.674 314.424,383.115C317.858,381.193 321.292,379.27 324.726,377.348C324.597,379.467 324.468,381.585 324.338,383.704C327.24,381.984 330.141,380.265 333.042,378.546L332.021,383.041L341.183,376.581L340.816,382.501C349.769,378.427 349.626,378.523 351.037,377.807L350.167,385.143C352.907,383.089 355.648,381.035 358.389,378.981L358.638,383.698C361.547,381.815 364.456,379.932 367.364,378.048L367.367,382.399C371.717,380.471 376.066,378.543 380.415,376.615L378.909,382.21C383.317,380.556 387.726,378.902 392.135,377.248L391.6,383.04C397.809,378.528 399.639,378.985 399.851,378.905L399.658,383.273C411.668,376.181 411.62,375.985 412.691,375.873C415.124,375.618 412.38,379.762 412.644,382.3C416.383,380.901 421.761,376.54 425.499,375.141L424.129,382.744L431.757,376.019L431.087,383.098C431.595,383.001 434.456,377.848 442.951,378.64" style="fill:none;"/>
    </g>
    <path class="step2b" d="M569.908,565.78C566.883,572.682 567.121,573.121 567.735,573.162C569.007,573.248 569.131,573.299 577.961,567.65C577.784,569.731 577.607,571.812 577.43,573.893C580.676,571.091 583.921,568.289 587.166,565.487C586.714,568.283 586.262,571.08 585.81,573.876C592.089,569.132 591.998,569.179 598.675,565.035C597.81,567.667 596.945,570.299 596.081,572.932C601.718,567.618 601.857,567.98 608.176,563.324C607.923,564.29 607.84,565.297 607.586,566.263C607.46,566.741 607.461,566.703 605.905,572.208C610.941,569.211 615.976,566.214 621.011,563.216C620.865,567.385 620.845,567.268 620.271,571.41C626.848,567.334 626.797,567.484 633.57,563.869C633.004,566.452 632.438,569.035 631.873,571.617C636.816,567.508 636.759,567.65 642.042,564.214C641.725,566.438 641.408,568.661 641.09,570.885C645.013,567.884 648.937,564.883 652.86,561.881C652.722,564.422 652.584,566.962 652.446,569.503C658.356,564.356 658.226,564.33 664.725,559.901C664.725,565.725 662.838,567.796 666.05,567.279C667.255,567.085 667.088,566.846 680.185,561.529C678.45,569.038 678.062,569.422 678.706,569.454C682.505,569.645 689.123,564.779 689.326,567.275C689.852,573.728 702.243,566.551 705.801,565.008C706.197,565.331 706.593,565.654 706.989,565.977" style="fill:none;"/>
    <g transform="matrix(1.05225,0,0,1.05225,147.05,-59.4251)">
        <path class="step2b" d="M220.759,157.545C220.565,160.318 220.683,160.253 221.044,162.983C223.441,160.725 223.237,160.539 223.678,157.27C224.469,160.01 224.389,159.951 225.6,162.598C226.939,159.784 226.855,159.846 227.965,156.921C228.719,160.464 228.462,160.458 229.707,163.874C231.424,160.709 231.213,160.669 233.131,157.577C233.528,160.876 233.586,160.775 234.443,163.937C236.006,160.735 236.109,160.862 237.238,157.504C238.136,162.051 238.93,162.442 238.939,162.462C239.144,162.05 239.133,162.085 241.252,158.155C241.355,158.468 242.393,161.626 242.789,161.983C243.594,162.709 243.528,161.786 246.151,158.757C247.875,160.279 247.729,160.359 249.714,161.351" style="fill:none;"/>
    </g>
    <g transform="matrix(1,0,0,0.931406,0,29.2764)">
        <path class="step2b" d="M159.889,361.914C152.427,361.731 89.965,362.811 75.513,380.088C36.359,426.894 135.83,432.851 216.57,422.423C219.095,422.097 286.738,412.758 274.119,390.636C258.625,363.471 172.555,350.239 142.141,356.193" style="fill:none;"/>
    </g>
    <g transform="matrix(1.02994,0,0,0.921642,-8.11938,43.2433)">
        <path class="step2b" d="M120.035,553.468C138.669,550.204 223.056,550.715 259.84,566.797C282.324,576.626 297.414,610.341 185.467,609.493C90.482,608.772 59.773,601.363 72.845,579.95C90.866,550.43 157.284,557.314 159.486,557.25" style="fill:none;"/>
    </g>
    <path class="step2b" d="M163.636,647.191C125.532,650.209 105.518,677.137 136.407,691.6C149.597,697.776 179.4,701.923 199.674,697.623C228.973,691.409 227.65,664.699 202.616,652.675C173.019,638.46 148.808,639.383 140.211,642.1" style="fill:none;"/>
    <g transform="matrix(1,0,0,0.867486,-1.54841,43.2777)">
        <path class="step2b" d="M179.471,157.418C158.124,157.775 76.867,167.266 75.513,196.435C73.765,234.085 182.966,235.957 262.985,217.006C291.928,210.152 274.781,179.564 229.621,170.249C194.094,162.922 146.351,160.055 106.949,170.405" style="fill:none;"/>
    </g>
    <g transform="matrix(1.18571,0,0,1,-8.93657,2.34058)">
        <path class="step2b" d="M169.983,270.541C196.638,272.395 209.761,274.227 227.538,289.797C239.468,300.247 233.93,317.436 220.526,321.325C184.216,331.859 83.585,336.248 76.474,305.765C71.672,285.176 95.271,280.235 115.236,277.317C136.394,274.225 160.874,273.699 166.97,273.699" style="fill:none;"/>
    </g>
</svg>
