<?xml version="1.0" encoding="UTF-8" standalone="no"?>
<!DOCTYPE svg PUBLIC "-//W3C//DTD SVG 1.1//EN" "http://www.w3.org/Graphics/SVG/1.1/DTD/svg11.dtd">
<svg width="100%" height="100%" viewBox="0 0 800 800" version="1.1" xmlns="http://www.w3.org/2000/svg" xmlns:xlink="http://www.w3.org/1999/xlink" xml:space="preserve" xmlns:serif="http://www.serif.com/" style="fill-rule:evenodd;clip-rule:evenodd;stroke-linejoin:round;stroke-miterlimit:2;">
    <g>
        <g transform="matrix(1.52773,-0.107921,0.107921,1.52773,-425.017,-223.935)">
            <g>
                <g transform="matrix(32.6468,0,0,32.6468,309.752,317.392)">
                    <path class="step1c" d="M0.03,-0.608L0.046,-0.618L0.069,-0.606L0.1,-0.453L0.144,-0.252L0.162,-0.178L0.181,-0.222L0.21,-0.431L0.219,-0.536L0.227,-0.59L0.238,-0.616L0.254,-0.621L0.287,-0.535C0.301,-0.455 0.325,-0.344 0.369,-0.271L0.412,-0.213C0.491,-0.216 0.448,-0.368 0.45,-0.447L0.457,-0.632L0.486,-0.65L0.508,-0.641L0.511,-0.615L0.513,-0.47L0.489,-0.216C0.478,-0.178 0.455,-0.126 0.405,-0.126L0.348,-0.165L0.299,-0.268L0.273,-0.304L0.253,-0.248L0.213,-0.146L0.157,-0.109C0.131,-0.108 0.117,-0.131 0.109,-0.151L0.061,-0.328L0.025,-0.539L0.03,-0.608Z" style="fill:rgb(17,28,78);fill-rule:nonzero;"/>
                </g>
                <g transform="matrix(32.6468,0,0,32.6468,328.719,317.392)">
                    <path class="step1c" d="M0.173,-0.396L0.181,-0.395L0.213,-0.41L0.226,-0.442L0.22,-0.462L0.201,-0.48L0.175,-0.469L0.143,-0.423L0.173,-0.396ZM0.09,-0.483C0.113,-0.508 0.148,-0.539 0.186,-0.54L0.247,-0.522C0.276,-0.505 0.284,-0.473 0.285,-0.442L0.278,-0.391L0.233,-0.35L0.167,-0.327L0.148,-0.319L0.157,-0.298L0.17,-0.28L0.189,-0.275L0.279,-0.299L0.3,-0.303L0.316,-0.276C0.317,-0.221 0.246,-0.193 0.208,-0.181L0.198,-0.179C0.167,-0.178 0.142,-0.205 0.125,-0.227L0.08,-0.32L0.053,-0.397L0.046,-0.418L0.09,-0.483Z" style="fill:rgb(17,28,78);fill-rule:nonzero;"/>
                </g>
                <g transform="matrix(32.6468,0,0,32.6468,340.799,317.392)">
                    <path class="step1c" d="M0.275,-0.461L0.222,-0.476L0.145,-0.451L0.12,-0.4L0.109,-0.338L0.114,-0.319L0.195,-0.313L0.257,-0.319L0.286,-0.34L0.299,-0.39L0.275,-0.461ZM0.048,-0.745L0.073,-0.762L0.079,-0.761L0.095,-0.749L0.101,-0.706L0.1,-0.631L0.1,-0.504L0.156,-0.524L0.226,-0.538C0.263,-0.539 0.296,-0.527 0.321,-0.498C0.348,-0.466 0.357,-0.423 0.357,-0.382L0.35,-0.329L0.319,-0.288C0.286,-0.245 0.244,-0.22 0.189,-0.219L0.138,-0.229L0.109,-0.237L0.091,-0.207L0.082,-0.184L0.069,-0.174L0.068,-0.174L0.066,-0.175L0.046,-0.418L0.045,-0.471L0.048,-0.745Z" style="fill:rgb(17,28,78);fill-rule:nonzero;"/>
                </g>
                <g transform="matrix(32.6468,0,0,32.6468,354.184,317.392)">
                    <path class="step1c" d="M0.05,-0.728L0.075,-0.74L0.082,-0.739L0.102,-0.716L0.11,-0.638L0.119,-0.542L0.169,-0.568L0.25,-0.593L0.31,-0.561L0.329,-0.389L0.32,-0.202L0.284,-0.181L0.265,-0.188L0.261,-0.222L0.266,-0.319L0.272,-0.407C0.273,-0.449 0.278,-0.527 0.236,-0.527C0.202,-0.528 0.18,-0.491 0.169,-0.467L0.139,-0.326L0.13,-0.234L0.099,-0.201L0.078,-0.262L0.059,-0.474L0.049,-0.695L0.05,-0.728Z" style="fill:rgb(17,28,78);fill-rule:nonzero;"/>
                </g>
                <g transform="matrix(32.6468,0,0,32.6468,366.524,317.392)">
                    <path class="step1c" d="M0.25,-0.466L0.187,-0.482L0.132,-0.462L0.123,-0.389L0.148,-0.312L0.213,-0.276L0.287,-0.307L0.321,-0.366L0.303,-0.42L0.25,-0.466ZM0.133,-0.547L0.23,-0.574L0.288,-0.559L0.352,-0.464L0.386,-0.345L0.385,-0.335L0.321,-0.236C0.292,-0.209 0.258,-0.192 0.218,-0.193C0.157,-0.194 0.116,-0.23 0.088,-0.282L0.055,-0.39L0.077,-0.478L0.133,-0.547Z" style="fill:rgb(17,28,78);fill-rule:nonzero;"/>
                </g>
                <g transform="matrix(32.6468,0,0,32.6468,380.726,317.392)">
                    <path class="step1c" d="M0.255,-0.447L0.192,-0.465L0.137,-0.446L0.125,-0.374L0.149,-0.295L0.213,-0.259L0.288,-0.287L0.323,-0.345L0.307,-0.399L0.255,-0.447ZM0.14,-0.531L0.237,-0.555L0.295,-0.539L0.357,-0.443L0.387,-0.323L0.386,-0.313L0.321,-0.221C0.291,-0.196 0.257,-0.182 0.217,-0.183C0.158,-0.185 0.116,-0.217 0.088,-0.268L0.058,-0.376L0.082,-0.464L0.14,-0.531Z" style="fill:rgb(17,28,78);fill-rule:nonzero;"/>
                </g>
                <g transform="matrix(32.6468,0,0,32.6468,394.927,317.392)">
                    <path class="step1c" d="M0.087,-0.665L0.115,-0.682L0.12,-0.68L0.139,-0.649L0.141,-0.535L0.137,-0.398L0.208,-0.454L0.294,-0.507L0.304,-0.502L0.309,-0.491L0.246,-0.418L0.176,-0.357L0.202,-0.326L0.252,-0.242L0.278,-0.165L0.258,-0.139L0.232,-0.152L0.211,-0.185L0.159,-0.273L0.124,-0.313L0.121,-0.267L0.105,-0.196L0.076,-0.166L0.063,-0.173L0.05,-0.256L0.06,-0.342L0.074,-0.482L0.077,-0.561L0.079,-0.618L0.087,-0.665Z" style="fill:rgb(17,28,78);fill-rule:nonzero;"/>
                </g>
                <g transform="matrix(32.6468,0,0,32.6468,406.027,317.392)">
                    <path class="step1c" d="M0.161,-0.522L0.196,-0.526L0.286,-0.496L0.33,-0.44L0.304,-0.413L0.261,-0.434L0.196,-0.464L0.165,-0.456L0.15,-0.43L0.15,-0.421L0.195,-0.38L0.259,-0.332L0.278,-0.264L0.239,-0.184C0.213,-0.16 0.178,-0.152 0.143,-0.154L0.082,-0.182L0.053,-0.239L0.063,-0.259L0.084,-0.264L0.112,-0.241L0.153,-0.219L0.199,-0.231L0.218,-0.276L0.211,-0.303L0.171,-0.324L0.102,-0.364L0.084,-0.421L0.109,-0.483L0.161,-0.522Z" style="fill:rgb(17,28,78);fill-rule:nonzero;"/>
                </g>
            </g>
        </g>
        <g transform="matrix(1.52773,-0.107921,0.107921,1.52773,-258.699,-337.973)">
            <g>
                <g transform="matrix(32.6468,0,0,32.6468,311.514,317.392)">
                    <path class="step1c" d="M0.015,-0.653L0.036,-0.669L0.043,-0.668L0.067,-0.644L0.085,-0.544L0.103,-0.422L0.162,-0.487L0.241,-0.588L0.293,-0.625L0.314,-0.609L0.281,-0.538L0.215,-0.447L0.182,-0.415L0.237,-0.369L0.302,-0.284L0.332,-0.188L0.315,-0.16L0.304,-0.16L0.278,-0.171L0.262,-0.208L0.211,-0.313C0.189,-0.336 0.162,-0.347 0.13,-0.344L0.104,-0.302L0.103,-0.155L0.099,-0.09L0.077,-0.072L0.07,-0.07L0.061,-0.073L0.056,-0.089L0.052,-0.121L0.046,-0.177L0.032,-0.351L0.015,-0.653Z" style="fill:rgb(17,28,78);fill-rule:nonzero;"/>
                </g>
                <g transform="matrix(32.6468,0,0,32.6468,324.638,317.392)">
                    <path class="step1c" d="M0.165,-0.379L0.173,-0.379L0.205,-0.394L0.218,-0.426L0.212,-0.446L0.192,-0.464L0.166,-0.452L0.135,-0.405L0.165,-0.379ZM0.08,-0.465C0.103,-0.49 0.138,-0.522 0.176,-0.524L0.237,-0.507C0.266,-0.491 0.275,-0.458 0.277,-0.428L0.271,-0.376L0.227,-0.334L0.161,-0.31L0.141,-0.301L0.151,-0.281L0.164,-0.264L0.183,-0.261L0.274,-0.284L0.295,-0.288L0.311,-0.266C0.313,-0.223 0.218,-0.2 0.206,-0.196L0.196,-0.195L0.121,-0.225L0.074,-0.301L0.045,-0.378L0.038,-0.399L0.08,-0.465Z" style="fill:rgb(17,28,78);fill-rule:nonzero;"/>
                </g>
                <g transform="matrix(32.6468,0,0,32.6468,336.718,317.392)">
                    <path class="step1c" d="M0.045,-0.456L0.051,-0.532L0.078,-0.542L0.097,-0.534L0.133,-0.303L0.155,-0.262L0.176,-0.274L0.219,-0.341L0.231,-0.452C0.231,-0.481 0.227,-0.534 0.256,-0.535L0.272,-0.528L0.3,-0.348L0.294,-0.215L0.242,-0.051C0.222,-0.017 0.201,0.016 0.158,0.016L0.083,-0.009L0.052,-0.073L0.068,-0.114L0.084,-0.126L0.104,-0.105L0.155,-0.075L0.189,-0.091L0.216,-0.156L0.232,-0.227L0.228,-0.234L0.211,-0.221L0.167,-0.205L0.105,-0.225L0.066,-0.304L0.045,-0.456Z" style="fill:rgb(17,28,78);fill-rule:nonzero;"/>
                </g>
                <g transform="matrix(32.6468,0,0,32.6468,348.34,317.392)">
                    <path class="step1c" d="M0.044,-0.505L0.048,-0.544L0.068,-0.554L0.097,-0.532L0.119,-0.418C0.126,-0.374 0.127,-0.293 0.172,-0.294L0.207,-0.337L0.234,-0.456L0.249,-0.538L0.268,-0.557L0.277,-0.556L0.3,-0.54L0.313,-0.485L0.338,-0.372L0.367,-0.322L0.404,-0.363L0.419,-0.464L0.422,-0.529L0.439,-0.544L0.45,-0.543L0.475,-0.529L0.484,-0.48L0.485,-0.457C0.485,-0.407 0.475,-0.358 0.448,-0.315C0.431,-0.287 0.404,-0.256 0.367,-0.256C0.337,-0.255 0.316,-0.275 0.301,-0.299L0.275,-0.329L0.274,-0.327L0.242,-0.276L0.169,-0.241L0.109,-0.266L0.068,-0.366L0.044,-0.505Z" style="fill:rgb(17,28,78);fill-rule:nonzero;"/>
                </g>
                <g transform="matrix(32.6468,0,0,32.6468,365.806,317.392)">
                    <path class="step1c" d="M0.249,-0.471L0.185,-0.486L0.131,-0.466L0.122,-0.393L0.149,-0.316L0.215,-0.286L0.289,-0.313L0.322,-0.372L0.303,-0.426L0.249,-0.471ZM0.131,-0.551L0.227,-0.579L0.286,-0.565L0.352,-0.471L0.387,-0.352L0.386,-0.342L0.323,-0.259L0.219,-0.23C0.167,-0.231 0.122,-0.249 0.089,-0.289L0.054,-0.393L0.075,-0.481L0.131,-0.551Z" style="fill:rgb(17,28,78);fill-rule:nonzero;"/>
                </g>
                <g transform="matrix(32.6468,0,0,32.6468,380.007,317.392)">
                    <path class="step1c" d="M0.059,-0.421L0.066,-0.538L0.091,-0.558L0.112,-0.549L0.116,-0.516L0.122,-0.483L0.146,-0.495L0.23,-0.513L0.294,-0.497L0.318,-0.449C0.317,-0.43 0.31,-0.416 0.289,-0.417L0.262,-0.432L0.222,-0.447L0.162,-0.419L0.129,-0.315L0.115,-0.253L0.093,-0.238L0.061,-0.271L0.059,-0.421Z" style="fill:rgb(17,28,78);fill-rule:nonzero;"/>
                </g>
                <g transform="matrix(32.6468,0,0,32.6468,391.63,317.392)">
                    <path class="step1c" d="M0.233,-0.448L0.19,-0.469L0.152,-0.45L0.117,-0.347L0.124,-0.276L0.151,-0.237L0.164,-0.234L0.217,-0.251L0.262,-0.296L0.276,-0.343C0.279,-0.385 0.266,-0.421 0.233,-0.448ZM0.315,-0.667L0.35,-0.675L0.363,-0.67L0.361,-0.638L0.358,-0.547L0.354,-0.429L0.347,-0.281L0.338,-0.209L0.322,-0.187L0.307,-0.186L0.283,-0.194L0.268,-0.201L0.242,-0.192L0.174,-0.177C0.14,-0.179 0.109,-0.19 0.087,-0.217L0.062,-0.264L0.062,-0.351L0.091,-0.477C0.11,-0.507 0.139,-0.523 0.172,-0.53L0.203,-0.534L0.254,-0.508L0.293,-0.476L0.299,-0.568L0.315,-0.667Z" style="fill:rgb(17,28,78);fill-rule:nonzero;"/>
                </g>
                <g transform="matrix(32.6468,0,0,32.6468,404.264,317.392)">
                    <path class="step1c" d="M0.168,-0.543L0.209,-0.547L0.31,-0.512C0.327,-0.501 0.36,-0.479 0.357,-0.452L0.328,-0.427L0.282,-0.451L0.211,-0.485L0.174,-0.478L0.158,-0.452L0.158,-0.443L0.211,-0.4L0.281,-0.349L0.3,-0.279L0.254,-0.2C0.224,-0.177 0.187,-0.171 0.149,-0.174L0.088,-0.204L0.06,-0.26L0.07,-0.279L0.09,-0.285L0.119,-0.262L0.166,-0.239L0.216,-0.25L0.236,-0.295L0.228,-0.322L0.185,-0.344L0.107,-0.385L0.088,-0.442L0.113,-0.504L0.168,-0.543Z" style="fill:rgb(17,28,78);fill-rule:nonzero;"/>
                </g>
            </g>
        </g>
        <g transform="matrix(1.52932,0.0824992,-0.0824992,1.52932,-50.2069,-323.919)">
            <g>
                <g transform="matrix(32.6468,0,0,32.6468,339.917,317.392)">
                    <path class="step1c" d="M0.268,-0.549C0.265,-0.56 0.252,-0.607 0.226,-0.606C0.188,-0.605 0.156,-0.495 0.155,-0.492L0.142,-0.431L0.161,-0.405L0.227,-0.4L0.303,-0.402L0.294,-0.453L0.268,-0.549ZM0.164,-0.642L0.218,-0.664C0.25,-0.665 0.277,-0.654 0.298,-0.629L0.346,-0.5L0.37,-0.315L0.367,-0.233L0.345,-0.217L0.323,-0.227L0.317,-0.27L0.301,-0.324L0.204,-0.339L0.158,-0.34L0.124,-0.326L0.11,-0.259C0.108,-0.245 0.103,-0.209 0.079,-0.208L0.055,-0.23L0.05,-0.257L0.087,-0.465L0.164,-0.642Z" style="fill:rgb(17,28,78);fill-rule:nonzero;"/>
                </g>
                <g transform="matrix(32.6468,0,0,32.6468,353.759,317.392)">
                    <path class="step1c" d="M0.259,-0.58L0.243,-0.636L0.168,-0.65L0.111,-0.65L0.112,-0.552L0.117,-0.472L0.133,-0.453L0.196,-0.475L0.246,-0.518L0.259,-0.58ZM0.08,-0.694L0.167,-0.715L0.255,-0.697L0.311,-0.645L0.326,-0.586L0.308,-0.514C0.282,-0.452 0.234,-0.415 0.17,-0.398L0.114,-0.385L0.114,-0.316C0.115,-0.281 0.116,-0.218 0.082,-0.217L0.071,-0.219L0.052,-0.266L0.046,-0.451L0.042,-0.674L0.08,-0.694Z" style="fill:rgb(17,28,78);fill-rule:nonzero;"/>
                </g>
                <g transform="matrix(32.6468,0,0,32.6468,366.133,317.392)">
                    <path class="step1c" d="M0.067,-0.68L0.06,-0.702L0.067,-0.721L0.104,-0.726L0.152,-0.725L0.228,-0.716L0.249,-0.695L0.25,-0.688L0.225,-0.664L0.2,-0.629L0.193,-0.452L0.194,-0.276L0.217,-0.246L0.244,-0.22L0.229,-0.193L0.168,-0.174L0.121,-0.169L0.073,-0.194L0.061,-0.224C0.061,-0.244 0.082,-0.247 0.098,-0.247L0.12,-0.278L0.126,-0.461L0.128,-0.674L0.093,-0.674L0.067,-0.68Z" style="fill:rgb(17,28,78);fill-rule:nonzero;"/>
                </g>
                <g transform="matrix(32.6468,0,0,32.6468,375.861,317.392)">
                    <path class="step1c" d="M0.148,-0.592L0.188,-0.598L0.291,-0.568C0.308,-0.559 0.343,-0.538 0.342,-0.511L0.314,-0.485L0.267,-0.507L0.193,-0.536L0.157,-0.527L0.142,-0.501L0.143,-0.492L0.198,-0.452L0.27,-0.404L0.293,-0.335L0.252,-0.254C0.222,-0.229 0.186,-0.221 0.148,-0.222L0.085,-0.25L0.055,-0.304L0.064,-0.324L0.084,-0.33L0.113,-0.309L0.161,-0.289L0.211,-0.302L0.229,-0.348L0.219,-0.375L0.175,-0.395L0.096,-0.431L0.074,-0.487L0.095,-0.55L0.148,-0.592Z" style="fill:rgb(17,28,78);fill-rule:nonzero;"/>
                </g>
            </g>
        </g>
        <g transform="matrix(1.5181,0.202483,-0.202483,1.5181,143.324,-428.15)">
            <g>
                <g>
                    <g transform="matrix(32.6468,0,0,32.6468,316.411,317.392)">
                        <path class="step1c" d="M0.013,-0.624L0.037,-0.643L0.069,-0.623L0.076,-0.586L0.077,-0.522L0.073,-0.442L0.138,-0.455L0.254,-0.473L0.307,-0.476L0.301,-0.555L0.316,-0.65L0.336,-0.662C0.386,-0.665 0.368,-0.564 0.371,-0.513L0.375,-0.426L0.38,-0.239L0.358,-0.206L0.335,-0.221L0.325,-0.31L0.318,-0.417L0.21,-0.405L0.093,-0.383L0.089,-0.273L0.088,-0.193L0.073,-0.171L0.053,-0.209L0.031,-0.388L0.025,-0.452L0.019,-0.51L0.013,-0.624Z" style="fill:rgb(17,28,78);fill-rule:nonzero;"/>
                    </g>
                    <g transform="matrix(32.6468,0,0,32.6468,330.874,317.392)">
                        <path class="step1c" d="M0.167,-0.39L0.175,-0.389L0.208,-0.404L0.221,-0.436L0.215,-0.456L0.196,-0.474L0.169,-0.463L0.137,-0.416L0.167,-0.39ZM0.083,-0.477C0.106,-0.501 0.142,-0.533 0.179,-0.535L0.241,-0.516C0.27,-0.5 0.278,-0.468 0.28,-0.437L0.273,-0.386L0.229,-0.344L0.163,-0.32L0.143,-0.312L0.152,-0.292L0.165,-0.275L0.184,-0.271L0.275,-0.294L0.296,-0.298L0.312,-0.275C0.314,-0.232 0.219,-0.21 0.206,-0.206L0.197,-0.205L0.122,-0.236L0.075,-0.313L0.047,-0.39L0.04,-0.411L0.083,-0.477Z" style="fill:rgb(17,28,78);fill-rule:nonzero;"/>
                    </g>
                    <g transform="matrix(32.6468,0,0,32.6468,342.953,317.392)">
                        <path class="step1c" d="M0.274,-0.479L0.214,-0.501L0.151,-0.475L0.117,-0.411L0.104,-0.334L0.108,-0.313L0.156,-0.289L0.209,-0.305L0.264,-0.388L0.287,-0.454L0.274,-0.479ZM0.153,-0.547L0.212,-0.565L0.275,-0.55L0.342,-0.488L0.366,-0.34L0.37,-0.267L0.366,-0.229L0.347,-0.221L0.325,-0.231L0.314,-0.273L0.302,-0.313L0.291,-0.297L0.231,-0.247L0.147,-0.223L0.078,-0.252L0.055,-0.283L0.048,-0.321L0.049,-0.361C0.052,-0.439 0.077,-0.512 0.153,-0.547Z" style="fill:rgb(17,28,78);fill-rule:nonzero;"/>
                    </g>
                    <g transform="matrix(32.6468,0,0,32.6468,356.763,317.392)">
                        <path class="step1c" d="M0.215,-0.482L0.171,-0.5L0.134,-0.479L0.106,-0.374L0.117,-0.304L0.147,-0.266L0.16,-0.264L0.211,-0.284L0.253,-0.332L0.264,-0.38C0.265,-0.422 0.25,-0.457 0.215,-0.482ZM0.283,-0.706L0.318,-0.716L0.33,-0.712L0.331,-0.68L0.334,-0.588L0.337,-0.471L0.339,-0.323L0.334,-0.25L0.32,-0.227L0.305,-0.225L0.281,-0.232L0.265,-0.238L0.24,-0.227L0.173,-0.208C0.139,-0.208 0.107,-0.217 0.084,-0.242L0.057,-0.287L0.05,-0.374L0.072,-0.502C0.088,-0.533 0.116,-0.551 0.149,-0.56L0.18,-0.566L0.232,-0.543L0.273,-0.514L0.273,-0.606L0.283,-0.706Z" style="fill:rgb(17,28,78);fill-rule:nonzero;"/>
                    </g>
                    <g transform="matrix(32.6468,0,0,32.6468,369.397,317.392)">
                        <path class="step1c" d="M0.054,-0.296L0.054,-0.507L0.06,-0.718L0.083,-0.753L0.105,-0.737L0.117,-0.672L0.122,-0.506L0.111,-0.341L0.098,-0.275L0.076,-0.26L0.054,-0.296Z" style="fill:rgb(17,28,78);fill-rule:nonzero;"/>
                    </g>
                    <g transform="matrix(32.6468,0,0,32.6468,374.849,317.392)">
                        <path class="step1c" d="M0.185,-0.403L0.193,-0.402L0.226,-0.414L0.242,-0.445L0.237,-0.466L0.22,-0.485L0.192,-0.476L0.157,-0.432L0.185,-0.403ZM0.108,-0.496C0.133,-0.519 0.171,-0.548 0.208,-0.547L0.268,-0.524C0.296,-0.505 0.302,-0.472 0.301,-0.441L0.29,-0.391L0.242,-0.353L0.174,-0.334L0.154,-0.328L0.162,-0.307L0.174,-0.289L0.192,-0.284L0.284,-0.299L0.306,-0.301L0.32,-0.278C0.318,-0.234 0.221,-0.22 0.209,-0.217L0.199,-0.217L0.127,-0.254L0.087,-0.334L0.065,-0.413L0.06,-0.435L0.108,-0.496Z" style="fill:rgb(17,28,78);fill-rule:nonzero;"/>
                    </g>
                    <g transform="matrix(32.6468,0,0,32.6468,386.929,317.392)">
                        <path class="step1c" d="M0.156,-0.579L0.196,-0.584L0.299,-0.552C0.316,-0.542 0.35,-0.52 0.348,-0.493L0.32,-0.468L0.273,-0.49L0.2,-0.521L0.164,-0.513L0.148,-0.487L0.149,-0.478L0.203,-0.437L0.275,-0.388L0.296,-0.319L0.253,-0.239C0.223,-0.214 0.186,-0.207 0.149,-0.209L0.086,-0.237L0.057,-0.292L0.067,-0.312L0.087,-0.318L0.116,-0.296L0.163,-0.275L0.213,-0.287L0.232,-0.332L0.223,-0.36L0.179,-0.38L0.1,-0.418L0.08,-0.475L0.102,-0.538L0.156,-0.579Z" style="fill:rgb(17,28,78);fill-rule:nonzero;"/>
                    </g>
                    <g transform="matrix(32.6468,0,0,32.6468,399.367,317.392)">
                        <path class="step1c" d="M0.165,-0.555L0.205,-0.559L0.307,-0.525C0.324,-0.514 0.357,-0.492 0.355,-0.465L0.326,-0.44L0.28,-0.464L0.208,-0.497L0.171,-0.489L0.155,-0.463L0.155,-0.454L0.209,-0.412L0.279,-0.362L0.299,-0.292L0.254,-0.213C0.224,-0.189 0.187,-0.182 0.149,-0.185L0.087,-0.215L0.059,-0.271L0.069,-0.29L0.089,-0.296L0.118,-0.274L0.165,-0.251L0.215,-0.262L0.235,-0.307L0.227,-0.334L0.183,-0.356L0.105,-0.396L0.086,-0.453L0.11,-0.515L0.165,-0.555Z" style="fill:rgb(17,28,78);fill-rule:nonzero;"/>
                    </g>
                    <g transform="matrix(32.6468,0,0,32.6468,341.37,336.436)">
                        <path class="step1c" d="M0.145,-0.539L0.199,-0.594L0.236,-0.61L0.271,-0.606L0.347,-0.572L0.38,-0.532L0.374,-0.519L0.353,-0.511L0.314,-0.52L0.254,-0.53L0.233,-0.528L0.162,-0.465L0.121,-0.353L0.118,-0.319L0.127,-0.287L0.161,-0.247L0.25,-0.201L0.318,-0.223L0.354,-0.239L0.37,-0.227L0.374,-0.213L0.35,-0.177C0.322,-0.151 0.288,-0.138 0.25,-0.138L0.153,-0.17L0.078,-0.257L0.053,-0.334L0.063,-0.397L0.089,-0.471L0.145,-0.539Z" style="fill:rgb(17,28,78);fill-rule:nonzero;"/>
                    </g>
                    <g transform="matrix(32.6468,0,0,32.6468,355.539,336.436)">
                        <path class="step1c" d="M0.071,-0.582C0.079,-0.606 0.095,-0.637 0.126,-0.637C0.156,-0.637 0.178,-0.609 0.191,-0.587L0.251,-0.449L0.285,-0.365L0.291,-0.372L0.352,-0.51L0.405,-0.614L0.44,-0.634L0.478,-0.612L0.505,-0.562L0.52,-0.339L0.516,-0.195L0.501,-0.151L0.488,-0.148L0.471,-0.174L0.467,-0.279L0.459,-0.463L0.438,-0.537L0.391,-0.454L0.334,-0.287L0.297,-0.178L0.279,-0.169C0.244,-0.169 0.239,-0.229 0.232,-0.263L0.179,-0.465L0.133,-0.543L0.118,-0.521L0.101,-0.339L0.09,-0.218L0.072,-0.188L0.056,-0.242L0.05,-0.37L0.071,-0.582Z" style="fill:rgb(17,28,78);fill-rule:nonzero;"/>
                    </g>
                    <g transform="matrix(32.6468,0,0,32.6468,374.147,336.436)">
                        <path class="step1c" d="M0.087,-0.549L0.123,-0.583L0.167,-0.595L0.263,-0.558L0.307,-0.496L0.294,-0.47L0.277,-0.462L0.248,-0.488C0.23,-0.512 0.206,-0.526 0.175,-0.526C0.148,-0.526 0.127,-0.515 0.117,-0.489L0.111,-0.459L0.135,-0.411L0.198,-0.392C0.237,-0.392 0.27,-0.379 0.298,-0.352C0.323,-0.325 0.337,-0.295 0.337,-0.258L0.304,-0.176C0.275,-0.145 0.236,-0.133 0.194,-0.133L0.133,-0.146L0.098,-0.184L0.096,-0.198L0.119,-0.225L0.146,-0.213L0.197,-0.195L0.253,-0.212L0.277,-0.255L0.255,-0.309L0.182,-0.334L0.084,-0.373L0.053,-0.457L0.087,-0.549Z" style="fill:rgb(17,28,78);fill-rule:nonzero;"/>
                    </g>
                </g>
            </g>
        </g>
        <g transform="matrix(0.999946,-0.0103331,0.0103331,0.999946,-70.5284,36.7004)">
            <g>
                <g transform="matrix(50,0,0,50,185.959,680.156)">
                    <path class="step1c" d="M0.06,-0.615L0.087,-0.627L0.106,-0.617L0.107,-0.585L0.108,-0.499L0.108,-0.392L0.111,-0.179L0.19,-0.196L0.289,-0.211C0.308,-0.211 0.339,-0.208 0.339,-0.18L0.325,-0.157L0.258,-0.144L0.126,-0.115L0.076,-0.101L0.062,-0.105L0.05,-0.381L0.06,-0.615Z" style="fill:rgb(16,27,78);fill-rule:nonzero;"/>
                </g>
                <g transform="matrix(50,0,0,50,205.659,680.156)">
                    <path class="step1c" d="M0.261,-0.413L0.198,-0.439L0.149,-0.41L0.124,-0.344L0.109,-0.268L0.112,-0.247L0.159,-0.221L0.212,-0.236L0.269,-0.317L0.285,-0.385L0.261,-0.413ZM0.13,-0.489L0.178,-0.509L0.233,-0.491L0.317,-0.421C0.373,-0.355 0.366,-0.355 0.369,-0.267L0.371,-0.194L0.367,-0.157L0.348,-0.149L0.326,-0.159L0.316,-0.201L0.305,-0.242L0.293,-0.226L0.233,-0.177L0.148,-0.155L0.08,-0.187L0.059,-0.218L0.053,-0.257L0.055,-0.297C0.059,-0.349 0.073,-0.451 0.13,-0.489Z" style="fill:rgb(16,27,78);fill-rule:nonzero;"/>
                </g>
                <g transform="matrix(50,0,0,50,226.809,680.156)">
                    <path class="step1c" d="M0.028,-0.4L-0.005,-0.477L0.02,-0.483L0.041,-0.472C0.089,-0.338 0.105,-0.369 0.138,-0.243L0.158,-0.201L0.18,-0.212L0.225,-0.277C0.241,-0.325 0.244,-0.337 0.215,-0.382C0.202,-0.402 0.182,-0.454 0.205,-0.452L0.223,-0.444C0.281,-0.401 0.305,-0.348 0.305,-0.282L0.295,-0.149L0.242,-0.033C0.221,-0.008 0.193,0.016 0.158,0.016L0.084,-0.005L0.052,-0.05L0.067,-0.079L0.084,-0.087L0.104,-0.072L0.155,-0.05L0.189,-0.061L0.216,-0.105L0.234,-0.163L0.23,-0.17L0.213,-0.158L0.168,-0.143L0.107,-0.166L0.072,-0.247C0.05,-0.34 0.073,-0.331 0.028,-0.4Z" style="fill:rgb(16,27,78);fill-rule:nonzero;"/>
                </g>
                <g transform="matrix(50,0,0,50,244.609,680.156)">
                    <path class="step1c" d="M0.214,-0.371L0.145,-0.385L0.099,-0.373L0.12,-0.319L0.147,-0.242L0.213,-0.213L0.286,-0.241L0.318,-0.301L0.285,-0.338L0.214,-0.371ZM0.076,-0.435L0.178,-0.456L0.239,-0.439L0.318,-0.366C0.355,-0.333 0.383,-0.325 0.383,-0.283L0.382,-0.273L0.322,-0.188L0.218,-0.157C0.166,-0.157 0.122,-0.174 0.088,-0.215L0.053,-0.318L0.036,-0.388L0.076,-0.435Z" style="fill:rgb(16,27,78);fill-rule:nonzero;"/>
                </g>
                <g transform="matrix(50,0,0,50,266.359,680.156)">
                    <path class="step1c" d="M0.028,-0.403C0.031,-0.421 0.04,-0.445 0.064,-0.445L0.087,-0.431L0.092,-0.376L0.139,-0.267C0.146,-0.246 0.165,-0.197 0.199,-0.197L0.212,-0.2L0.255,-0.264L0.263,-0.342L0.265,-0.397L0.283,-0.422L0.296,-0.423C0.328,-0.423 0.331,-0.348 0.332,-0.341L0.297,-0.206C0.276,-0.169 0.245,-0.131 0.198,-0.131L0.143,-0.15L0.094,-0.207L0.062,-0.304L0.025,-0.378L0.028,-0.403Z" style="fill:rgb(16,27,78);fill-rule:nonzero;"/>
                </g>
                <g transform="matrix(50,0,0,50,285.759,680.156)">
                    <path class="step1c" d="M0.168,-0.537L0.2,-0.543L0.227,-0.477L0.238,-0.425L0.27,-0.413C0.289,-0.412 0.309,-0.406 0.31,-0.383L0.301,-0.362L0.263,-0.352L0.215,-0.347L0.219,-0.291L0.233,-0.195L0.266,-0.17L0.299,-0.195L0.331,-0.221L0.352,-0.191L0.324,-0.135L0.261,-0.11L0.23,-0.117L0.179,-0.171L0.158,-0.284L0.146,-0.354L0.138,-0.356L0.099,-0.369L0.056,-0.399L0.109,-0.423L0.154,-0.435L0.16,-0.478L0.168,-0.537Z" style="fill:rgb(16,27,78);fill-rule:nonzero;"/>
                </g>
            </g>
        </g>
        <g transform="matrix(0.999746,0.0225387,-0.0225387,0.999746,140.784,69.07)">
            <g>
                <g transform="matrix(50,0,0,50,187.434,680.156)">
                    <path class="step1c" d="M0.263,-0.453C0.261,-0.464 0.254,-0.512 0.229,-0.515C0.191,-0.518 0.145,-0.413 0.144,-0.411L0.122,-0.352L0.137,-0.324L0.203,-0.31L0.281,-0.303L0.277,-0.354L0.263,-0.453ZM0.173,-0.559L0.228,-0.573C0.26,-0.57 0.285,-0.555 0.302,-0.529L0.335,-0.395L0.339,-0.208L0.327,-0.127L0.302,-0.114L0.28,-0.126L0.279,-0.169L0.269,-0.225L0.171,-0.252L0.124,-0.26L0.088,-0.252L0.063,-0.188C0.059,-0.173 0.048,-0.139 0.023,-0.142L0.001,-0.168L0,-0.195L0.071,-0.395L0.173,-0.559Z" style="fill:rgb(16,27,78);fill-rule:nonzero;"/>
                </g>
                <g transform="matrix(50,0,0,50,208.634,680.156)">
                    <path class="step1c" d="M0.128,-0.473L0.168,-0.478L0.27,-0.445L0.319,-0.387L0.291,-0.362L0.244,-0.384L0.171,-0.415L0.135,-0.408L0.119,-0.382L0.12,-0.373L0.174,-0.331L0.246,-0.282L0.269,-0.213C0.267,-0.179 0.25,-0.153 0.225,-0.132C0.193,-0.107 0.154,-0.101 0.115,-0.103L0.05,-0.133L0.021,-0.189L0.032,-0.208L0.053,-0.214L0.082,-0.192L0.131,-0.169L0.183,-0.181L0.203,-0.226L0.193,-0.253L0.148,-0.275L0.069,-0.314L0.05,-0.372L0.074,-0.433L0.128,-0.473Z" style="fill:rgb(16,27,78);fill-rule:nonzero;"/>
                </g>
                <g transform="matrix(50,0,0,50,227.684,680.156)">
                    <path class="step1c" d="M0.133,-0.456L0.173,-0.462L0.275,-0.434L0.327,-0.378L0.3,-0.351L0.253,-0.371L0.179,-0.4L0.143,-0.39L0.128,-0.364L0.128,-0.355L0.184,-0.315L0.259,-0.269L0.284,-0.201C0.284,-0.167 0.268,-0.141 0.243,-0.119C0.213,-0.093 0.174,-0.085 0.135,-0.085L0.069,-0.113L0.038,-0.167L0.048,-0.187L0.068,-0.193L0.099,-0.172L0.148,-0.152L0.2,-0.166L0.217,-0.212L0.207,-0.239L0.161,-0.258L0.081,-0.294L0.059,-0.351L0.081,-0.414L0.133,-0.456Z" style="fill:rgb(16,27,78);fill-rule:nonzero;"/>
                </g>
                <g transform="matrix(50,0,0,50,246.734,680.156)">
                    <path class="step1c" d="M0.185,-0.266L0.193,-0.265L0.226,-0.279L0.24,-0.311L0.235,-0.331L0.216,-0.35L0.188,-0.339L0.155,-0.293L0.185,-0.266ZM0.103,-0.355C0.127,-0.379 0.163,-0.409 0.201,-0.41L0.262,-0.391C0.291,-0.374 0.299,-0.342 0.3,-0.311L0.292,-0.26L0.246,-0.219L0.178,-0.197L0.157,-0.189L0.166,-0.168L0.179,-0.151L0.199,-0.147L0.293,-0.168L0.315,-0.171L0.332,-0.149C0.333,-0.104 0.23,-0.084 0.22,-0.082L0.21,-0.08L0.132,-0.114L0.087,-0.192L0.063,-0.271L0.056,-0.292L0.103,-0.355Z" style="fill:rgb(16,27,78);fill-rule:nonzero;"/>
                </g>
                <g transform="matrix(50,0,0,50,265.234,680.156)">
                    <path class="step1c" d="M0.166,-0.552L0.196,-0.559L0.224,-0.495L0.237,-0.444L0.268,-0.433C0.286,-0.432 0.305,-0.426 0.307,-0.404L0.299,-0.382L0.263,-0.371L0.217,-0.364L0.233,-0.266L0.263,-0.145L0.299,-0.122L0.332,-0.15L0.364,-0.178L0.388,-0.15L0.363,-0.091L0.298,-0.062L0.265,-0.067L0.208,-0.117L0.175,-0.247L0.151,-0.368L0.144,-0.37L0.126,-0.376L0.106,-0.382L0.064,-0.41L0.114,-0.436L0.156,-0.45L0.16,-0.493L0.166,-0.552Z" style="fill:rgb(16,27,78);fill-rule:nonzero;"/>
                </g>
                <g transform="matrix(50,0,0,50,285.534,680.156)">
                    <path class="step1c" d="M0.147,-0.5L0.186,-0.511L0.291,-0.497L0.35,-0.448L0.327,-0.418L0.276,-0.432L0.199,-0.451L0.165,-0.437L0.153,-0.409L0.155,-0.4L0.215,-0.368L0.295,-0.331L0.329,-0.267C0.333,-0.234 0.321,-0.205 0.299,-0.18C0.272,-0.151 0.235,-0.138 0.196,-0.134L0.127,-0.152L0.089,-0.202L0.096,-0.223L0.116,-0.232L0.149,-0.215L0.201,-0.201L0.25,-0.222L0.262,-0.269L0.248,-0.294L0.2,-0.308L0.115,-0.333L0.086,-0.387L0.1,-0.452L0.147,-0.5Z" style="fill:rgb(16,27,78);fill-rule:nonzero;"/>
                </g>
            </g>
        </g>
        <g transform="matrix(0.998456,0.055542,-0.055542,0.998456,453.745,-75.3889)">
            <g>
                <g transform="matrix(50,0,0,50,133.434,680.156)">
                    <path class="step1c" d="M0.068,-0.581L0.119,-0.618L0.178,-0.588L0.226,-0.459L0.259,-0.374L0.263,-0.381L0.322,-0.524L0.378,-0.615L0.411,-0.629L0.444,-0.615L0.464,-0.578C0.489,-0.441 0.433,-0.444 0.467,-0.351C0.498,-0.269 0.524,-0.27 0.516,-0.195L0.501,-0.151L0.488,-0.148L0.471,-0.174L0.451,-0.283C0.408,-0.385 0.412,-0.369 0.412,-0.48L0.402,-0.553L0.352,-0.47C0.314,-0.389 0.32,-0.378 0.326,-0.29L0.297,-0.178L0.279,-0.169C0.244,-0.169 0.239,-0.229 0.232,-0.263L0.162,-0.471L0.124,-0.546L0.109,-0.524L0.096,-0.34L0.09,-0.218L0.072,-0.188L0.056,-0.242L0.048,-0.37L0.068,-0.581Z" style="fill:rgb(16,27,78);fill-rule:nonzero;"/>
                </g>
                <g transform="matrix(50,0,0,50,161.934,680.156)">
                    <path class="step1c" d="M0.218,-0.39L0.159,-0.421L0.089,-0.404L0.054,-0.346L0.081,-0.269L0.097,-0.247L0.156,-0.221L0.199,-0.234L0.21,-0.306L0.229,-0.364L0.218,-0.39ZM0.101,-0.475L0.165,-0.485L0.228,-0.461L0.29,-0.39L0.333,-0.255L0.37,-0.194L0.367,-0.157L0.348,-0.149L0.326,-0.159L0.315,-0.201L0.284,-0.237L0.281,-0.223L0.233,-0.177L0.148,-0.155L0.08,-0.187L0.059,-0.218L0.035,-0.259L0.01,-0.302C-0.035,-0.384 0.016,-0.451 0.101,-0.475Z" style="fill:rgb(16,27,78);fill-rule:nonzero;"/>
                </g>
                <g transform="matrix(50,0,0,50,183.084,680.156)">
                    <path class="step1c" d="M0.232,-0.35L0.179,-0.374L0.107,-0.347L0.079,-0.317L0.071,-0.282L0.076,-0.263L0.105,-0.223L0.148,-0.211L0.162,-0.21L0.192,-0.214L0.219,-0.232L0.254,-0.296L0.232,-0.35ZM0.107,-0.423L0.176,-0.441L0.236,-0.421L0.313,-0.363L0.327,-0.247L0.336,-0.208C0.349,-0.17 0.356,-0.047 0.357,-0.088L0.392,-0.112L0.431,-0.126L0.453,-0.101L0.394,-0.028L0.321,0.024L0.299,-0.005L0.293,-0.1L0.276,-0.193L0.242,-0.178L0.16,-0.162L0.104,-0.176C0.068,-0.194 0.02,-0.231 0.005,-0.27C-0.006,-0.299 0.016,-0.338 0.029,-0.359L0.107,-0.423Z" style="fill:rgb(16,27,78);fill-rule:nonzero;"/>
                </g>
                <g transform="matrix(50,0,0,50,208.584,680.156)">
                    <path class="step1c" d="M0.036,-0.4C0.039,-0.418 0.047,-0.443 0.071,-0.442L0.094,-0.428L0.098,-0.368L0.124,-0.201L0.193,-0.158L0.206,-0.159L0.248,-0.193L0.265,-0.32L0.269,-0.396L0.286,-0.421L0.299,-0.423C0.334,-0.423 0.333,-0.358 0.334,-0.323C0.334,-0.282 0.333,-0.195 0.295,-0.158C0.268,-0.132 0.234,-0.12 0.197,-0.122L0.14,-0.135L0.083,-0.17L0.044,-0.242L0.032,-0.367L0.036,-0.4Z" style="fill:rgb(16,27,78);fill-rule:nonzero;"/>
                </g>
                <g transform="matrix(50,0,0,50,227.984,680.156)">
                    <path class="step1c" d="M0.19,-0.268L0.198,-0.267L0.232,-0.282L0.246,-0.314L0.24,-0.333L0.22,-0.352L0.192,-0.341L0.159,-0.295L0.19,-0.268ZM0.104,-0.357C0.129,-0.381 0.166,-0.411 0.204,-0.412L0.267,-0.393C0.296,-0.377 0.306,-0.345 0.307,-0.314L0.3,-0.262L0.254,-0.221L0.184,-0.199L0.163,-0.191L0.172,-0.17L0.187,-0.158L0.207,-0.155L0.303,-0.17L0.326,-0.174L0.343,-0.153C0.348,-0.111 0.264,-0.119 0.222,-0.116L0.211,-0.115L0.137,-0.138L0.091,-0.193L0.064,-0.272L0.058,-0.293L0.104,-0.357Z" style="fill:rgb(16,27,78);fill-rule:nonzero;"/>
                </g>
                <g transform="matrix(50,0,0,50,246.484,680.156)">
                    <path class="step1c" d="M0.176,-0.557L0.206,-0.564L0.236,-0.5L0.249,-0.449L0.282,-0.438C0.3,-0.438 0.32,-0.433 0.322,-0.41L0.314,-0.388L0.277,-0.377L0.231,-0.369L0.248,-0.271L0.281,-0.15L0.318,-0.131L0.352,-0.156L0.383,-0.185L0.409,-0.157C0.412,-0.13 0.399,-0.118 0.376,-0.106L0.299,-0.086L0.267,-0.091L0.224,-0.128L0.189,-0.252L0.163,-0.373L0.155,-0.375L0.137,-0.38L0.116,-0.386L0.073,-0.413L0.124,-0.44L0.167,-0.454L0.171,-0.498L0.176,-0.557Z" style="fill:rgb(16,27,78);fill-rule:nonzero;"/>
                </g>
                <g transform="matrix(50,0,0,50,266.784,680.156)">
                    <path class="step1c" d="M0.323,-0.409L0.265,-0.426L0.203,-0.394L0.174,-0.327L0.167,-0.25L0.173,-0.23L0.226,-0.209L0.28,-0.23L0.323,-0.318L0.336,-0.386L0.323,-0.409ZM0.199,-0.466L0.257,-0.49L0.318,-0.48L0.38,-0.422L0.413,-0.274L0.42,-0.201L0.419,-0.163L0.404,-0.155L0.385,-0.164L0.373,-0.206L0.36,-0.246L0.352,-0.229L0.308,-0.174L0.222,-0.142L0.146,-0.166L0.12,-0.195L0.109,-0.233L0.107,-0.273C0.105,-0.351 0.126,-0.425 0.199,-0.466Z" style="fill:rgb(16,27,78);fill-rule:nonzero;"/>
                </g>
                <g transform="matrix(50,0,0,50,287.934,680.156)">
                    <path class="step1c" d="M0.15,-0.474L0.229,-0.498L0.315,-0.458L0.351,-0.4L0.333,-0.38L0.327,-0.379L0.284,-0.406L0.231,-0.435C0.2,-0.436 0.175,-0.413 0.157,-0.391L0.131,-0.326L0.152,-0.275L0.209,-0.244L0.262,-0.262L0.304,-0.28L0.328,-0.254L0.291,-0.203L0.205,-0.184L0.152,-0.192L0.116,-0.224L0.082,-0.319L0.097,-0.408L0.15,-0.474Z" style="fill:rgb(16,27,78);fill-rule:nonzero;"/>
                </g>
                <g transform="matrix(50,0,0,50,307.884,680.156)">
                    <path class="step1c" d="M0.061,-0.633L0.1,-0.652L0.106,-0.651L0.128,-0.64L0.134,-0.607L0.128,-0.575L0.102,-0.567L0.066,-0.58L0.051,-0.608L0.061,-0.633ZM0.067,-0.491L0.091,-0.505L0.097,-0.504L0.117,-0.476L0.121,-0.353L0.117,-0.229L0.094,-0.207L0.071,-0.228L0.063,-0.339L0.063,-0.389L0.067,-0.491Z" style="fill:rgb(16,27,78);fill-rule:nonzero;"/>
                </g>
                <g transform="matrix(50,0,0,50,317.084,680.156)">
                    <path class="step1c" d="M0.244,-0.399L0.181,-0.413L0.128,-0.392L0.12,-0.319L0.147,-0.242L0.213,-0.213L0.286,-0.241L0.318,-0.301L0.299,-0.355L0.244,-0.399ZM0.127,-0.477L0.221,-0.506L0.279,-0.493L0.345,-0.401L0.383,-0.283L0.382,-0.273L0.322,-0.188L0.218,-0.157C0.166,-0.157 0.122,-0.174 0.088,-0.215L0.053,-0.318L0.073,-0.407L0.127,-0.477Z" style="fill:rgb(16,27,78);fill-rule:nonzero;"/>
                </g>
                <g transform="matrix(50,0,0,50,338.834,680.156)">
                    <path class="step1c" d="M0.052,-0.397L0.052,-0.425L0.057,-0.482L0.076,-0.493L0.098,-0.486L0.111,-0.467L0.124,-0.447L0.148,-0.46L0.204,-0.478C0.246,-0.478 0.278,-0.453 0.302,-0.421C0.332,-0.38 0.344,-0.333 0.344,-0.283C0.344,-0.279 0.348,-0.173 0.303,-0.173L0.282,-0.187L0.278,-0.253L0.259,-0.368L0.212,-0.413L0.168,-0.385L0.14,-0.277L0.122,-0.198L0.098,-0.18C0.024,-0.18 0.052,-0.323 0.052,-0.397Z" style="fill:rgb(16,27,78);fill-rule:nonzero;"/>
                </g>
            </g>
        </g>
        <g transform="matrix(0.998772,-0.0495338,0.0495338,0.998772,-141.966,-54.0347)">
            <g>
                <g transform="matrix(50,0,0,50,152.684,680.156)">
                    <path class="step1c" d="M0.119,-0.634L0.181,-0.631L0.296,-0.599L0.3,-0.581L0.297,-0.568L0.251,-0.557L0.193,-0.568L0.107,-0.584L0.094,-0.448L0.139,-0.441L0.18,-0.413L0.131,-0.387L0.084,-0.379L0.077,-0.268L0.071,-0.181L0.063,-0.136L0.045,-0.128L0.043,-0.128L0.025,-0.151L0.023,-0.266L0.034,-0.453L0.04,-0.517L0.054,-0.63L0.119,-0.634Z" style="fill:rgb(16,27,78);fill-rule:nonzero;"/>
                </g>
                <g transform="matrix(50,0,0,50,171.084,680.156)">
                    <path class="step1c" d="M0.014,-0.331L0.031,-0.447L0.056,-0.466L0.077,-0.455L0.079,-0.422L0.083,-0.389L0.108,-0.399L0.194,-0.413L0.258,-0.395L0.281,-0.346C0.28,-0.327 0.272,-0.314 0.251,-0.315L0.224,-0.33L0.183,-0.348L0.12,-0.322L0.079,-0.22L0.061,-0.159L0.036,-0.146L0.005,-0.181L0.014,-0.331Z" style="fill:rgb(16,27,78);fill-rule:nonzero;"/>
                </g>
                <g transform="matrix(50,0,0,50,188.884,680.156)">
                    <path class="step1c" d="M0.27,-0.342L0.211,-0.369L0.145,-0.347L0.104,-0.286L0.084,-0.211L0.085,-0.189L0.134,-0.161L0.191,-0.173L0.255,-0.252L0.283,-0.317L0.27,-0.342ZM0.153,-0.418L0.214,-0.433L0.277,-0.413L0.341,-0.347L0.358,-0.198L0.358,-0.125L0.351,-0.088L0.331,-0.081L0.308,-0.092L0.299,-0.134L0.289,-0.175L0.276,-0.16L0.209,-0.113L0.118,-0.096L0.047,-0.132L0.027,-0.164L0.024,-0.203L0.029,-0.243C0.041,-0.32 0.074,-0.389 0.153,-0.418Z" style="fill:rgb(16,27,78);fill-rule:nonzero;"/>
                </g>
                <g transform="matrix(50,0,0,50,210.034,680.156)">
                    <path class="step1c" d="M0.059,-0.426L0.082,-0.446L0.111,-0.383L0.116,-0.325L0.149,-0.367C0.17,-0.394 0.197,-0.41 0.232,-0.41L0.298,-0.382L0.324,-0.356L0.361,-0.389L0.432,-0.427C0.463,-0.428 0.482,-0.405 0.494,-0.381L0.521,-0.246C0.522,-0.203 0.529,-0.124 0.486,-0.121L0.471,-0.123L0.454,-0.164L0.456,-0.214L0.457,-0.259L0.445,-0.338L0.428,-0.378L0.405,-0.345L0.36,-0.224L0.338,-0.153L0.311,-0.136L0.287,-0.152L0.273,-0.228C0.268,-0.27 0.272,-0.347 0.23,-0.347L0.212,-0.339C0.171,-0.307 0.147,-0.226 0.135,-0.184L0.092,-0.103L0.073,-0.114L0.056,-0.203L0.05,-0.353L0.059,-0.426Z" style="fill:rgb(16,27,78);fill-rule:nonzero;"/>
                </g>
                <g transform="matrix(50,0,0,50,237.534,680.156)">
                    <path class="step1c" d="M0.212,-0.281L0.221,-0.28L0.254,-0.296L0.268,-0.328L0.262,-0.348L0.242,-0.366L0.214,-0.354L0.181,-0.307L0.212,-0.281ZM0.126,-0.367C0.15,-0.392 0.186,-0.423 0.225,-0.426L0.287,-0.409C0.317,-0.393 0.327,-0.362 0.329,-0.33L0.323,-0.279L0.277,-0.236L0.207,-0.211L0.186,-0.203L0.195,-0.183L0.21,-0.166L0.23,-0.162L0.326,-0.187L0.348,-0.191L0.365,-0.173C0.36,-0.128 0.284,-0.128 0.239,-0.12L0.228,-0.118L0.16,-0.135L0.114,-0.203L0.087,-0.281L0.08,-0.302L0.126,-0.367Z" style="fill:rgb(16,27,78);fill-rule:nonzero;"/>
                </g>
                <g transform="matrix(50,0,0,50,256.034,680.156)">
                    <path class="step1c" d="M0.093,-0.399L0.095,-0.438L0.115,-0.449L0.145,-0.43L0.175,-0.317C0.185,-0.275 0.192,-0.198 0.235,-0.202L0.273,-0.243L0.292,-0.365L0.301,-0.448L0.319,-0.469L0.328,-0.469L0.353,-0.455L0.372,-0.402L0.409,-0.293L0.442,-0.246L0.479,-0.291L0.483,-0.394L0.48,-0.459L0.495,-0.476L0.507,-0.476L0.53,-0.465L0.543,-0.417L0.547,-0.394C0.554,-0.347 0.558,-0.289 0.524,-0.248C0.501,-0.221 0.453,-0.183 0.413,-0.181C0.385,-0.179 0.377,-0.195 0.368,-0.218L0.346,-0.242L0.345,-0.241L0.3,-0.192L0.211,-0.157L0.163,-0.174L0.125,-0.262L0.093,-0.399Z" style="fill:rgb(16,27,78);fill-rule:nonzero;"/>
                </g>
                <g transform="matrix(50,0,0,50,282.784,680.156)">
                    <path class="step1c" d="M0.269,-0.41L0.211,-0.427L0.165,-0.407L0.164,-0.336L0.186,-0.254L0.235,-0.22L0.308,-0.248L0.342,-0.309L0.321,-0.364L0.269,-0.41ZM0.156,-0.491L0.241,-0.517L0.296,-0.501L0.361,-0.407L0.399,-0.287L0.397,-0.277C0.386,-0.24 0.361,-0.211 0.329,-0.19L0.222,-0.159C0.174,-0.159 0.139,-0.176 0.127,-0.225L0.107,-0.335L0.114,-0.423L0.156,-0.491Z" style="fill:rgb(16,27,78);fill-rule:nonzero;"/>
                </g>
                <g transform="matrix(50,0,0,50,304.534,680.156)">
                    <path class="step1c" d="M0.054,-0.356L0.056,-0.472L0.078,-0.493L0.099,-0.485L0.104,-0.452L0.111,-0.419L0.134,-0.432L0.216,-0.453L0.279,-0.44L0.305,-0.393C0.305,-0.375 0.299,-0.36 0.278,-0.36L0.251,-0.373L0.211,-0.387L0.153,-0.356L0.124,-0.251L0.113,-0.189L0.091,-0.173L0.059,-0.205L0.054,-0.356Z" style="fill:rgb(16,27,78);fill-rule:nonzero;"/>
                </g>
                <g transform="matrix(50,0,0,50,322.334,680.156)">
                    <path class="step1c" d="M0.057,-0.633L0.083,-0.652L0.088,-0.651L0.109,-0.622L0.119,-0.508L0.125,-0.371L0.191,-0.432L0.271,-0.492L0.281,-0.488L0.287,-0.477L0.231,-0.399L0.167,-0.333L0.195,-0.304L0.252,-0.224L0.279,-0.157L0.259,-0.133L0.233,-0.144L0.212,-0.172L0.157,-0.248L0.119,-0.285L0.119,-0.239L0.106,-0.177L0.077,-0.151L0.064,-0.156L0.049,-0.223L0.053,-0.309L0.057,-0.45L0.055,-0.529L0.053,-0.586L0.057,-0.633Z" style="fill:rgb(16,27,78);fill-rule:nonzero;"/>
                </g>
            </g>
        </g>
        <g transform="matrix(0.999653,-0.0263593,0.0263593,0.999653,324.029,31.1346)">
            <g>
                <g transform="matrix(50,0,0,50,148.484,680.156)">
                    <path class="step1c" d="M0.122,-0.627L0.189,-0.63L0.307,-0.612L0.313,-0.595L0.311,-0.581L0.268,-0.565L0.21,-0.569L0.115,-0.577L0.115,-0.441L0.166,-0.437L0.216,-0.414L0.164,-0.383L0.112,-0.371L0.115,-0.261L0.117,-0.174L0.113,-0.129L0.092,-0.12L0.09,-0.12L0.067,-0.143L0.055,-0.257L0.05,-0.444L0.051,-0.507L0.055,-0.62L0.122,-0.627Z" style="fill:rgb(16,27,78);fill-rule:nonzero;"/>
                </g>
                <g transform="matrix(50,0,0,50,166.884,680.156)">
                    <path class="step1c" d="M0.178,-0.336L0.186,-0.335L0.219,-0.349L0.233,-0.38L0.228,-0.4L0.21,-0.419L0.183,-0.409L0.15,-0.364L0.178,-0.336ZM0.1,-0.427C0.124,-0.45 0.16,-0.48 0.197,-0.48L0.256,-0.459C0.284,-0.441 0.291,-0.408 0.291,-0.378L0.282,-0.327L0.237,-0.288L0.17,-0.267L0.15,-0.26L0.158,-0.239L0.171,-0.222L0.189,-0.217L0.28,-0.235L0.301,-0.238L0.316,-0.215C0.316,-0.171 0.221,-0.154 0.208,-0.151L0.198,-0.15L0.125,-0.185L0.083,-0.264L0.06,-0.343L0.054,-0.364L0.1,-0.427Z" style="fill:rgb(16,27,78);fill-rule:nonzero;"/>
                </g>
                <g transform="matrix(50,0,0,50,185.384,680.156)">
                    <path class="step1c" d="M0.164,-0.608L0.194,-0.613L0.218,-0.547L0.227,-0.495L0.257,-0.482C0.275,-0.48 0.293,-0.473 0.293,-0.451L0.284,-0.43L0.248,-0.421L0.203,-0.417L0.212,-0.318L0.233,-0.195L0.266,-0.17L0.299,-0.195L0.331,-0.221L0.352,-0.191L0.324,-0.135L0.261,-0.11L0.23,-0.117L0.179,-0.171L0.155,-0.303L0.139,-0.425L0.132,-0.428L0.095,-0.441L0.056,-0.471L0.106,-0.495L0.148,-0.506L0.155,-0.549L0.164,-0.608Z" style="fill:rgb(16,27,78);fill-rule:nonzero;"/>
                </g>
                <g transform="matrix(50,0,0,50,205.684,680.156)">
                    <path class="step1c" d="M0.138,-0.467L0.222,-0.493L0.31,-0.457L0.347,-0.4L0.328,-0.379L0.321,-0.378L0.276,-0.404L0.221,-0.431L0.141,-0.384L0.109,-0.319L0.129,-0.269L0.19,-0.24L0.249,-0.26L0.295,-0.279L0.321,-0.253L0.281,-0.202L0.184,-0.18L0.124,-0.187L0.086,-0.217L0.054,-0.311L0.077,-0.4L0.138,-0.467Z" style="fill:rgb(16,27,78);fill-rule:nonzero;"/>
                </g>
                <g transform="matrix(50,0,0,50,225.634,680.156)">
                    <path class="step1c" d="M0.052,-0.653L0.076,-0.665L0.083,-0.664L0.103,-0.641L0.11,-0.563L0.119,-0.467L0.168,-0.493L0.247,-0.519L0.307,-0.487L0.328,-0.315L0.32,-0.161L0.284,-0.147L0.266,-0.152L0.261,-0.174L0.266,-0.245L0.271,-0.333C0.271,-0.375 0.276,-0.453 0.234,-0.453C0.201,-0.453 0.179,-0.416 0.168,-0.392L0.139,-0.251L0.13,-0.182L0.099,-0.16L0.078,-0.2L0.06,-0.399L0.05,-0.62L0.052,-0.653Z" style="fill:rgb(16,27,78);fill-rule:nonzero;"/>
                </g>
                <g transform="matrix(50,0,0,50,257.034,680.156)">
                    <path class="step1c" d="M0.281,-0.525L0.175,-0.547L0.113,-0.547L0.113,-0.241L0.16,-0.232L0.183,-0.23L0.269,-0.257L0.336,-0.327L0.365,-0.418C0.365,-0.472 0.325,-0.504 0.281,-0.525ZM0.069,-0.597L0.137,-0.611L0.18,-0.609C0.244,-0.605 0.31,-0.589 0.361,-0.547C0.403,-0.512 0.427,-0.468 0.427,-0.413C0.427,-0.362 0.407,-0.315 0.379,-0.273C0.332,-0.205 0.266,-0.173 0.184,-0.173L0.119,-0.179L0.064,-0.188L0.055,-0.384L0.05,-0.522L0.054,-0.575L0.069,-0.597Z" style="fill:rgb(16,27,78);fill-rule:nonzero;"/>
                </g>
                <g transform="matrix(50,0,0,50,280.934,680.156)">
                    <path class="step1c" d="M0.28,-0.408L0.222,-0.432L0.159,-0.407L0.124,-0.344L0.109,-0.268L0.112,-0.247L0.159,-0.221L0.212,-0.236L0.269,-0.317L0.293,-0.383L0.28,-0.408ZM0.163,-0.479L0.222,-0.496L0.283,-0.479L0.347,-0.416L0.369,-0.267L0.371,-0.194L0.367,-0.157L0.348,-0.149L0.326,-0.159L0.316,-0.201L0.305,-0.242L0.293,-0.226L0.233,-0.177L0.148,-0.155L0.08,-0.187L0.059,-0.218L0.053,-0.257L0.055,-0.297C0.061,-0.373 0.088,-0.446 0.163,-0.479Z" style="fill:rgb(16,27,78);fill-rule:nonzero;"/>
                </g>
                <g transform="matrix(50,0,0,50,302.084,680.156)">
                    <path class="step1c" d="M0.164,-0.608L0.194,-0.613L0.218,-0.547L0.227,-0.495L0.257,-0.482C0.275,-0.48 0.293,-0.473 0.293,-0.451L0.284,-0.43L0.248,-0.421L0.203,-0.417L0.212,-0.318L0.233,-0.195L0.266,-0.17L0.299,-0.195L0.331,-0.221L0.352,-0.191L0.324,-0.135L0.261,-0.11L0.23,-0.117L0.179,-0.171L0.155,-0.303L0.139,-0.425L0.132,-0.428L0.095,-0.441L0.056,-0.471L0.106,-0.495L0.148,-0.506L0.155,-0.549L0.164,-0.608Z" style="fill:rgb(16,27,78);fill-rule:nonzero;"/>
                </g>
                <g transform="matrix(50,0,0,50,322.384,680.156)">
                    <path class="step1c" d="M0.28,-0.408L0.222,-0.432L0.159,-0.407L0.124,-0.344L0.109,-0.268L0.112,-0.247L0.159,-0.221L0.212,-0.236L0.269,-0.317L0.293,-0.383L0.28,-0.408ZM0.163,-0.479L0.222,-0.496L0.283,-0.479L0.347,-0.416L0.369,-0.267L0.371,-0.194L0.367,-0.157L0.348,-0.149L0.326,-0.159L0.316,-0.201L0.305,-0.242L0.293,-0.226L0.233,-0.177L0.148,-0.155L0.08,-0.187L0.059,-0.218L0.053,-0.257L0.055,-0.297C0.061,-0.373 0.088,-0.446 0.163,-0.479Z" style="fill:rgb(16,27,78);fill-rule:nonzero;"/>
                </g>
            </g>
        </g>
        <g transform="matrix(1.53154,0,0,1.53154,239.507,433.249)">
            <g transform="matrix(65.294,0,0,65.294,0,0)">
                <path class="step1c" d="M0.087,-0.549C0.1,-0.565 0.112,-0.576 0.123,-0.581C0.134,-0.586 0.149,-0.589 0.167,-0.589C0.201,-0.589 0.233,-0.579 0.263,-0.558C0.292,-0.537 0.307,-0.517 0.307,-0.496C0.307,-0.485 0.303,-0.477 0.294,-0.47C0.287,-0.465 0.281,-0.462 0.277,-0.462C0.27,-0.462 0.261,-0.471 0.248,-0.488C0.229,-0.513 0.204,-0.526 0.175,-0.526C0.146,-0.526 0.127,-0.514 0.117,-0.489C0.113,-0.479 0.111,-0.469 0.111,-0.459C0.111,-0.439 0.119,-0.423 0.135,-0.411C0.15,-0.398 0.171,-0.392 0.198,-0.392C0.238,-0.392 0.271,-0.379 0.298,-0.352C0.324,-0.325 0.337,-0.293 0.337,-0.258C0.337,-0.226 0.326,-0.199 0.304,-0.176C0.277,-0.147 0.241,-0.133 0.194,-0.133C0.171,-0.133 0.15,-0.137 0.133,-0.146C0.115,-0.155 0.103,-0.167 0.098,-0.184C0.097,-0.187 0.096,-0.192 0.096,-0.198C0.096,-0.216 0.104,-0.225 0.119,-0.225C0.128,-0.225 0.137,-0.221 0.146,-0.213C0.16,-0.201 0.177,-0.195 0.197,-0.195C0.218,-0.195 0.236,-0.201 0.253,-0.212C0.269,-0.223 0.277,-0.238 0.277,-0.255C0.277,-0.278 0.27,-0.296 0.255,-0.309C0.24,-0.321 0.215,-0.329 0.182,-0.334C0.137,-0.34 0.105,-0.353 0.084,-0.373C0.063,-0.393 0.053,-0.421 0.053,-0.457C0.053,-0.491 0.064,-0.522 0.087,-0.549Z" style="fill:rgb(207,80,73);fill-rule:nonzero;"/>
            </g>
            <g transform="matrix(65.294,0,0,65.294,25.3994,0)">
                <path class="step1c" d="M0.061,-0.633C0.071,-0.646 0.084,-0.652 0.1,-0.652C0.101,-0.652 0.102,-0.652 0.103,-0.652C0.104,-0.651 0.105,-0.651 0.106,-0.651C0.117,-0.65 0.124,-0.646 0.128,-0.64C0.132,-0.633 0.134,-0.622 0.134,-0.607C0.134,-0.59 0.132,-0.58 0.128,-0.575C0.124,-0.57 0.115,-0.567 0.102,-0.567C0.087,-0.567 0.075,-0.571 0.066,-0.58C0.056,-0.588 0.051,-0.597 0.051,-0.608C0.051,-0.617 0.054,-0.626 0.061,-0.633ZM0.067,-0.491C0.07,-0.5 0.078,-0.505 0.091,-0.505C0.092,-0.505 0.093,-0.505 0.094,-0.505C0.095,-0.504 0.096,-0.504 0.097,-0.504C0.108,-0.502 0.114,-0.493 0.117,-0.476C0.12,-0.459 0.121,-0.418 0.121,-0.353C0.121,-0.285 0.12,-0.244 0.117,-0.229C0.114,-0.214 0.107,-0.207 0.094,-0.207C0.082,-0.207 0.074,-0.214 0.071,-0.228C0.068,-0.242 0.065,-0.279 0.063,-0.339L0.063,-0.389C0.063,-0.45 0.064,-0.484 0.067,-0.491Z" style="fill:rgb(207,80,73);fill-rule:nonzero;"/>
            </g>
            <g transform="matrix(65.294,0,0,65.294,37.4135,0)">
                <path class="step1c" d="M0.164,-0.608C0.169,-0.613 0.179,-0.614 0.194,-0.613C0.207,-0.61 0.215,-0.588 0.218,-0.547C0.22,-0.519 0.223,-0.502 0.227,-0.495C0.231,-0.488 0.241,-0.484 0.257,-0.482C0.281,-0.479 0.293,-0.469 0.293,-0.451C0.293,-0.441 0.29,-0.434 0.284,-0.43C0.277,-0.425 0.265,-0.422 0.248,-0.421L0.203,-0.417L0.212,-0.318C0.217,-0.253 0.224,-0.212 0.233,-0.195C0.242,-0.178 0.253,-0.17 0.266,-0.17C0.279,-0.17 0.29,-0.178 0.299,-0.195C0.308,-0.212 0.319,-0.221 0.331,-0.221C0.345,-0.221 0.352,-0.211 0.352,-0.191C0.352,-0.17 0.343,-0.151 0.324,-0.135C0.305,-0.118 0.284,-0.11 0.261,-0.11C0.25,-0.11 0.239,-0.112 0.23,-0.117C0.206,-0.128 0.189,-0.146 0.179,-0.171C0.169,-0.196 0.161,-0.24 0.155,-0.303C0.146,-0.382 0.141,-0.423 0.139,-0.425C0.138,-0.425 0.136,-0.426 0.132,-0.428C0.127,-0.429 0.122,-0.431 0.115,-0.434C0.108,-0.437 0.102,-0.439 0.095,-0.441C0.069,-0.449 0.056,-0.459 0.056,-0.471C0.056,-0.484 0.073,-0.492 0.106,-0.495C0.129,-0.497 0.143,-0.501 0.148,-0.506C0.153,-0.511 0.155,-0.526 0.155,-0.549C0.155,-0.582 0.158,-0.602 0.164,-0.608Z" style="fill:rgb(207,80,73);fill-rule:nonzero;"/>
            </g>
            <g transform="matrix(65.294,0,0,65.294,63.9228,0)">
                <path class="step1c" d="M0.061,-0.633C0.071,-0.646 0.084,-0.652 0.1,-0.652C0.101,-0.652 0.102,-0.652 0.103,-0.652C0.104,-0.651 0.105,-0.651 0.106,-0.651C0.117,-0.65 0.124,-0.646 0.128,-0.64C0.132,-0.633 0.134,-0.622 0.134,-0.607C0.134,-0.59 0.132,-0.58 0.128,-0.575C0.124,-0.57 0.115,-0.567 0.102,-0.567C0.087,-0.567 0.075,-0.571 0.066,-0.58C0.056,-0.588 0.051,-0.597 0.051,-0.608C0.051,-0.617 0.054,-0.626 0.061,-0.633ZM0.067,-0.491C0.07,-0.5 0.078,-0.505 0.091,-0.505C0.092,-0.505 0.093,-0.505 0.094,-0.505C0.095,-0.504 0.096,-0.504 0.097,-0.504C0.108,-0.502 0.114,-0.493 0.117,-0.476C0.12,-0.459 0.121,-0.418 0.121,-0.353C0.121,-0.285 0.12,-0.244 0.117,-0.229C0.114,-0.214 0.107,-0.207 0.094,-0.207C0.082,-0.207 0.074,-0.214 0.071,-0.228C0.068,-0.242 0.065,-0.279 0.063,-0.339L0.063,-0.389C0.063,-0.45 0.064,-0.484 0.067,-0.491Z" style="fill:rgb(207,80,73);fill-rule:nonzero;"/>
            </g>
            <g transform="matrix(65.294,0,0,65.294,75.9369,0)">
                <path class="step1c" d="M0.244,-0.399C0.224,-0.408 0.203,-0.413 0.181,-0.413C0.151,-0.413 0.133,-0.406 0.128,-0.392C0.123,-0.376 0.12,-0.352 0.12,-0.319C0.12,-0.287 0.129,-0.261 0.147,-0.242C0.165,-0.223 0.187,-0.213 0.213,-0.213C0.238,-0.213 0.263,-0.222 0.286,-0.241C0.307,-0.258 0.318,-0.278 0.318,-0.301C0.318,-0.319 0.312,-0.337 0.299,-0.355C0.286,-0.372 0.267,-0.387 0.244,-0.399ZM0.127,-0.477C0.152,-0.496 0.183,-0.506 0.221,-0.506C0.244,-0.506 0.264,-0.502 0.279,-0.493C0.298,-0.483 0.32,-0.452 0.345,-0.401C0.37,-0.349 0.383,-0.31 0.383,-0.283C0.383,-0.278 0.383,-0.275 0.382,-0.273C0.373,-0.237 0.353,-0.209 0.322,-0.188C0.291,-0.167 0.256,-0.157 0.218,-0.157C0.163,-0.157 0.12,-0.176 0.088,-0.215C0.065,-0.242 0.053,-0.277 0.053,-0.318C0.053,-0.349 0.059,-0.378 0.073,-0.407C0.086,-0.436 0.104,-0.459 0.127,-0.477Z" style="fill:rgb(207,80,73);fill-rule:nonzero;"/>
            </g>
            <g transform="matrix(65.294,0,0,65.294,120.663,0)">
                <path class="step1c" d="M0.061,-0.593C0.067,-0.599 0.073,-0.602 0.078,-0.602C0.086,-0.602 0.093,-0.597 0.099,-0.588C0.105,-0.576 0.111,-0.524 0.117,-0.433C0.126,-0.336 0.135,-0.268 0.145,-0.229L0.161,-0.164L0.18,-0.201C0.194,-0.228 0.209,-0.295 0.224,-0.403C0.231,-0.45 0.237,-0.485 0.24,-0.507C0.243,-0.528 0.247,-0.546 0.252,-0.561C0.257,-0.575 0.261,-0.583 0.264,-0.586C0.267,-0.588 0.273,-0.589 0.28,-0.589C0.293,-0.589 0.302,-0.56 0.307,-0.501C0.319,-0.381 0.34,-0.291 0.37,-0.232C0.386,-0.199 0.4,-0.183 0.411,-0.183C0.434,-0.183 0.45,-0.256 0.461,-0.403C0.47,-0.518 0.476,-0.58 0.479,-0.587C0.483,-0.598 0.493,-0.603 0.508,-0.603C0.518,-0.603 0.525,-0.6 0.529,-0.593C0.53,-0.59 0.531,-0.582 0.531,-0.567C0.531,-0.55 0.529,-0.502 0.525,-0.422C0.518,-0.307 0.506,-0.228 0.488,-0.183C0.47,-0.138 0.442,-0.116 0.405,-0.116C0.386,-0.116 0.367,-0.127 0.348,-0.148C0.329,-0.169 0.313,-0.198 0.3,-0.234C0.291,-0.259 0.284,-0.271 0.277,-0.271C0.27,-0.271 0.262,-0.253 0.253,-0.218C0.244,-0.183 0.23,-0.156 0.212,-0.136C0.194,-0.115 0.176,-0.105 0.157,-0.105C0.136,-0.105 0.12,-0.118 0.108,-0.143C0.094,-0.172 0.081,-0.228 0.069,-0.312C0.057,-0.396 0.051,-0.467 0.051,-0.525C0.051,-0.564 0.054,-0.587 0.061,-0.593Z" style="fill:rgb(207,80,73);fill-rule:nonzero;"/>
            </g>
            <g transform="matrix(65.294,0,0,65.294,158.599,0)">
                <path class="step1c" d="M0.178,-0.336C0.18,-0.335 0.183,-0.335 0.186,-0.335C0.198,-0.335 0.209,-0.339 0.219,-0.349C0.228,-0.358 0.233,-0.368 0.233,-0.38C0.233,-0.385 0.231,-0.392 0.228,-0.4C0.222,-0.413 0.216,-0.419 0.21,-0.419C0.205,-0.419 0.196,-0.416 0.183,-0.409C0.161,-0.398 0.15,-0.383 0.15,-0.364C0.15,-0.347 0.159,-0.338 0.178,-0.336ZM0.1,-0.427C0.136,-0.462 0.168,-0.48 0.197,-0.48C0.215,-0.48 0.235,-0.473 0.256,-0.459C0.279,-0.444 0.291,-0.417 0.291,-0.378C0.291,-0.361 0.288,-0.344 0.282,-0.327C0.277,-0.314 0.262,-0.301 0.237,-0.288C0.212,-0.274 0.189,-0.267 0.17,-0.267C0.157,-0.267 0.15,-0.265 0.15,-0.26C0.15,-0.257 0.153,-0.25 0.158,-0.239C0.163,-0.23 0.167,-0.225 0.171,-0.222C0.174,-0.219 0.18,-0.217 0.189,-0.217C0.202,-0.217 0.232,-0.223 0.28,-0.235C0.289,-0.237 0.296,-0.238 0.301,-0.238C0.311,-0.238 0.316,-0.23 0.316,-0.215C0.316,-0.188 0.28,-0.166 0.208,-0.151C0.206,-0.15 0.203,-0.15 0.198,-0.15C0.173,-0.15 0.149,-0.162 0.125,-0.185C0.101,-0.208 0.087,-0.235 0.083,-0.264C0.076,-0.299 0.069,-0.325 0.06,-0.343C0.056,-0.351 0.054,-0.358 0.054,-0.364C0.054,-0.375 0.069,-0.396 0.1,-0.427Z" style="fill:rgb(207,80,73);fill-rule:nonzero;"/>
            </g>
            <g transform="matrix(65.294,0,0,65.294,182.758,0)">
                <path class="step1c" d="M0.278,-0.388C0.268,-0.399 0.25,-0.404 0.225,-0.404C0.19,-0.404 0.165,-0.396 0.149,-0.38C0.14,-0.371 0.131,-0.354 0.123,-0.33C0.115,-0.305 0.111,-0.285 0.111,-0.268C0.111,-0.258 0.112,-0.252 0.115,-0.249C0.122,-0.244 0.149,-0.241 0.196,-0.241C0.225,-0.241 0.245,-0.243 0.258,-0.246C0.271,-0.249 0.28,-0.256 0.287,-0.267C0.296,-0.278 0.3,-0.295 0.3,-0.316C0.3,-0.345 0.293,-0.369 0.278,-0.388ZM0.061,-0.676C0.065,-0.687 0.073,-0.693 0.086,-0.693C0.087,-0.693 0.088,-0.693 0.089,-0.693C0.089,-0.692 0.09,-0.692 0.091,-0.692C0.099,-0.691 0.104,-0.687 0.107,-0.68C0.11,-0.673 0.111,-0.658 0.111,-0.636C0.111,-0.629 0.11,-0.604 0.109,-0.561L0.106,-0.434L0.161,-0.453C0.185,-0.462 0.208,-0.466 0.23,-0.466C0.269,-0.466 0.301,-0.452 0.324,-0.424C0.346,-0.396 0.358,-0.357 0.358,-0.308C0.358,-0.283 0.356,-0.266 0.351,-0.255C0.346,-0.244 0.336,-0.231 0.319,-0.217C0.284,-0.188 0.241,-0.173 0.189,-0.173C0.17,-0.173 0.153,-0.175 0.138,-0.18C0.125,-0.184 0.115,-0.186 0.109,-0.186C0.1,-0.186 0.094,-0.179 0.091,-0.166C0.089,-0.16 0.086,-0.155 0.082,-0.151C0.077,-0.146 0.073,-0.144 0.069,-0.144L0.068,-0.144L0.066,-0.145C0.055,-0.15 0.05,-0.218 0.05,-0.35L0.05,-0.403C0.051,-0.566 0.055,-0.657 0.061,-0.676Z" style="fill:rgb(207,80,73);fill-rule:nonzero;"/>
            </g>
        </g>
        <g transform="matrix(1.53154,0,0,1.53154,-157.682,-185.178)">
            <g>
                <g transform="matrix(43.529,0,0,43.529,305.17,317.392)">
                    <path class="step1c" d="M0.205,-0.395L0.18,-0.421L0.112,-0.412L0.053,-0.383L0.04,-0.36L0.052,-0.313L0.077,-0.268L0.119,-0.275L0.189,-0.329L0.205,-0.395ZM0.085,-0.568L-0.002,-0.558L-0.03,-0.538L-0.019,-0.493L0.004,-0.454L0.043,-0.46L0.114,-0.503L0.141,-0.547L0.085,-0.568ZM-0.121,-0.572L-0.075,-0.6L0.06,-0.629C0.1,-0.629 0.194,-0.624 0.213,-0.565L0.214,-0.519L0.213,-0.496L0.238,-0.469L0.277,-0.416L0.27,-0.335L0.205,-0.257L0.116,-0.205L0.102,-0.2L0.054,-0.193L0.027,-0.217L-0.071,-0.426L-0.121,-0.572Z" style="fill:rgb(17,28,78);fill-rule:nonzero;"/>
                </g>
                <g transform="matrix(43.529,0,0,43.529,322.321,317.392)">
                    <path class="step1c" d="M0.215,-0.591L0.146,-0.601L0.084,-0.561L0.062,-0.49L0.065,-0.413L0.074,-0.393L0.128,-0.38L0.179,-0.407L0.221,-0.5L0.234,-0.57L0.215,-0.591ZM0.071,-0.632L0.132,-0.663L0.203,-0.661L0.286,-0.613L0.336,-0.471L0.351,-0.4L0.353,-0.362L0.336,-0.351L0.312,-0.357L0.293,-0.396L0.274,-0.434L0.265,-0.416L0.213,-0.355L0.133,-0.313L0.056,-0.326L0.026,-0.35L0.01,-0.386L0.002,-0.425C-0.014,-0.507 0.002,-0.583 0.071,-0.632Z" style="fill:rgb(17,28,78);fill-rule:nonzero;"/>
                </g>
                <g transform="matrix(43.529,0,0,43.529,340.733,317.392)">
                    <path class="step1c" d="M0.091,-0.7L0.182,-0.736L0.284,-0.708L0.328,-0.654L0.309,-0.631L0.301,-0.63L0.25,-0.652L0.187,-0.674L0.104,-0.618L0.078,-0.549L0.105,-0.502L0.173,-0.48L0.233,-0.506L0.28,-0.529L0.309,-0.505L0.27,-0.451L0.173,-0.42L0.11,-0.42L0.067,-0.445L0.02,-0.533L0.032,-0.625L0.091,-0.7Z" style="fill:rgb(17,28,78);fill-rule:nonzero;"/>
                </g>
                <g transform="matrix(43.529,0,0,43.529,358.101,317.392)">
                    <path class="step1c" d="M0.043,-0.891L0.073,-0.911L0.079,-0.91L0.104,-0.881L0.116,-0.767L0.124,-0.63L0.197,-0.691L0.288,-0.749L0.299,-0.744L0.305,-0.733L0.24,-0.657L0.169,-0.592L0.199,-0.563L0.257,-0.481L0.283,-0.413L0.261,-0.39L0.235,-0.402L0.214,-0.431L0.158,-0.507L0.118,-0.544L0.118,-0.498L0.105,-0.436L0.075,-0.41L0.062,-0.415L0.045,-0.481L0.047,-0.567L0.048,-0.708L0.043,-0.787L0.04,-0.844L0.043,-0.891Z" style="fill:rgb(17,28,78);fill-rule:nonzero;"/>
                </g>
                <g transform="matrix(43.529,0,0,43.529,372.901,317.392)">
                    <path class="step1c" d="M0.208,-0.572L0.216,-0.57L0.253,-0.579L0.273,-0.609L0.27,-0.629L0.252,-0.65L0.222,-0.644L0.181,-0.603L0.208,-0.572ZM0.132,-0.671C0.162,-0.694 0.205,-0.718 0.245,-0.713L0.308,-0.684C0.337,-0.662 0.34,-0.629 0.335,-0.598L0.318,-0.549L0.264,-0.516L0.192,-0.505L0.17,-0.5L0.176,-0.478L0.187,-0.459L0.206,-0.453L0.303,-0.458L0.325,-0.458L0.337,-0.433C0.331,-0.39 0.23,-0.386 0.218,-0.385L0.207,-0.385L0.136,-0.428L0.099,-0.511L0.081,-0.591L0.077,-0.613L0.132,-0.671Z" style="fill:rgb(17,28,78);fill-rule:nonzero;"/>
                </g>
                <g transform="matrix(43.529,0,0,43.529,389.007,317.392)">
                    <path class="step1c" d="M0.111,-0.593L0.116,-0.62L0.131,-0.675L0.155,-0.682L0.177,-0.67L0.189,-0.648L0.199,-0.626L0.228,-0.633L0.293,-0.636C0.338,-0.626 0.367,-0.594 0.386,-0.554C0.407,-0.507 0.408,-0.458 0.394,-0.409C0.391,-0.399 0.367,-0.303 0.323,-0.315L0.305,-0.333L0.318,-0.399L0.327,-0.515L0.287,-0.571L0.233,-0.554L0.18,-0.456L0.145,-0.382L0.117,-0.37C0.044,-0.385 0.097,-0.52 0.111,-0.593Z" style="fill:rgb(17,28,78);fill-rule:nonzero;"/>
                </g>
                <g transform="matrix(43.529,0,0,43.529,406.201,317.392)">
                    <path class="step1c" d="M0.315,-0.437L0.275,-0.47L0.23,-0.463L0.166,-0.374L0.155,-0.304L0.172,-0.258L0.184,-0.252L0.242,-0.252L0.301,-0.281L0.329,-0.322C0.345,-0.363 0.341,-0.401 0.315,-0.437ZM0.466,-0.619L0.507,-0.613L0.519,-0.604L0.476,-0.488L0.436,-0.377L0.382,-0.239L0.35,-0.173L0.328,-0.158L0.313,-0.162L0.292,-0.178L0.279,-0.189L0.25,-0.188L0.178,-0.194C0.146,-0.206 0.118,-0.225 0.102,-0.257L0.089,-0.309L0.11,-0.394L0.173,-0.507C0.201,-0.532 0.237,-0.538 0.273,-0.534L0.307,-0.529L0.354,-0.487L0.386,-0.444L0.419,-0.529L0.466,-0.619Z" style="fill:rgb(17,28,78);fill-rule:nonzero;"/>
                </g>
            </g>
        </g>
        <g transform="matrix(1.53154,0,0,1.53154,-157.682,65.7954)">
            <g transform="matrix(43.529,0,0,43.529,296.377,317.392)">
                <path class="step1c" d="M0.121,-0.62L0.188,-0.618L0.304,-0.59L0.309,-0.572L0.306,-0.559L0.261,-0.546L0.204,-0.555L0.109,-0.571L0.097,-0.436L0.148,-0.427L0.197,-0.4L0.141,-0.374L0.088,-0.366L0.081,-0.257L0.075,-0.17L0.066,-0.125L0.044,-0.118L0.042,-0.118L0.021,-0.143L0.019,-0.258L0.031,-0.445L0.038,-0.507L0.053,-0.62L0.121,-0.62Z" style="fill:rgb(17,28,78);fill-rule:nonzero;"/>
            </g>
            <g transform="matrix(43.529,0,0,43.529,312.396,317.392)">
                <path class="step1c" d="M0.03,-0.325L0.042,-0.442L0.067,-0.461L0.088,-0.451L0.091,-0.418L0.095,-0.385L0.12,-0.396L0.204,-0.412L0.267,-0.395L0.291,-0.347C0.29,-0.328 0.282,-0.314 0.261,-0.315L0.235,-0.33L0.195,-0.346L0.134,-0.319L0.097,-0.216L0.081,-0.155L0.058,-0.141L0.027,-0.175L0.03,-0.325Z" style="fill:rgb(17,28,78);fill-rule:nonzero;"/>
            </g>
            <g transform="matrix(43.529,0,0,43.529,327.892,317.392)">
                <path class="step1c" d="M0.235,-0.339L0.171,-0.355L0.116,-0.337L0.105,-0.264L0.129,-0.186L0.196,-0.154L0.272,-0.18L0.307,-0.238L0.288,-0.293L0.235,-0.339ZM0.119,-0.422L0.215,-0.447L0.273,-0.432L0.337,-0.337L0.372,-0.218L0.371,-0.208C0.36,-0.172 0.339,-0.145 0.307,-0.125L0.199,-0.098C0.146,-0.1 0.1,-0.119 0.068,-0.162C0.043,-0.192 0.035,-0.228 0.037,-0.266L0.061,-0.354L0.119,-0.422Z" style="fill:rgb(17,28,78);fill-rule:nonzero;"/>
            </g>
            <g transform="matrix(43.529,0,0,43.529,346.827,317.392)">
                <path class="step1c" d="M0.046,-0.33L0.047,-0.358L0.053,-0.414L0.073,-0.425L0.094,-0.417L0.108,-0.399L0.12,-0.378L0.145,-0.391L0.202,-0.408C0.244,-0.408 0.276,-0.383 0.3,-0.35C0.33,-0.31 0.343,-0.262 0.343,-0.212C0.343,-0.206 0.347,-0.102 0.3,-0.102L0.279,-0.116L0.275,-0.182L0.256,-0.297L0.209,-0.343L0.164,-0.315L0.134,-0.208L0.114,-0.129L0.089,-0.112C0.015,-0.113 0.045,-0.256 0.046,-0.33Z" style="fill:rgb(17,28,78);fill-rule:nonzero;"/>
            </g>
            <g transform="matrix(43.529,0,0,43.529,364.021,317.392)">
                <path class="step1c" d="M0.165,-0.538L0.195,-0.543L0.22,-0.477L0.229,-0.426L0.26,-0.413C0.278,-0.411 0.296,-0.405 0.297,-0.383L0.288,-0.361L0.252,-0.352L0.206,-0.347L0.216,-0.248L0.24,-0.126L0.274,-0.101L0.308,-0.127L0.34,-0.153L0.362,-0.124L0.335,-0.067L0.27,-0.041L0.238,-0.048L0.184,-0.1L0.158,-0.233L0.141,-0.355L0.133,-0.357L0.117,-0.363L0.096,-0.37L0.057,-0.4L0.107,-0.424L0.149,-0.436L0.156,-0.479L0.165,-0.538Z" style="fill:rgb(17,28,78);fill-rule:nonzero;"/>
            </g>
            <g transform="matrix(43.529,0,0,43.529,381.694,317.392)">
                <path class="step1c" d="M0.19,-0.276L0.198,-0.275L0.23,-0.29L0.244,-0.322L0.238,-0.342L0.219,-0.36L0.192,-0.349L0.16,-0.303L0.19,-0.276ZM0.107,-0.364C0.131,-0.388 0.166,-0.419 0.204,-0.42L0.264,-0.402C0.293,-0.385 0.302,-0.353 0.303,-0.322L0.296,-0.271L0.251,-0.23L0.184,-0.206L0.164,-0.199L0.173,-0.178L0.186,-0.161L0.205,-0.157L0.298,-0.179L0.319,-0.183L0.336,-0.161C0.338,-0.116 0.238,-0.095 0.227,-0.092L0.217,-0.091L0.141,-0.123L0.095,-0.201L0.062,-0.3L0.107,-0.364Z" style="fill:rgb(17,28,78);fill-rule:nonzero;"/>
            </g>
            <g transform="matrix(43.529,0,0,43.529,397.8,317.392)">
                <path class="step1c" d="M0.065,-0.348L0.064,-0.376L0.065,-0.432L0.085,-0.445L0.107,-0.438L0.121,-0.421L0.136,-0.401L0.159,-0.416L0.215,-0.437C0.257,-0.44 0.29,-0.417 0.317,-0.387C0.35,-0.348 0.366,-0.302 0.37,-0.252C0.37,-0.246 0.381,-0.142 0.335,-0.139L0.313,-0.151L0.304,-0.217L0.277,-0.33L0.227,-0.373L0.184,-0.342L0.161,-0.233L0.147,-0.152L0.124,-0.133C0.05,-0.129 0.069,-0.274 0.065,-0.348Z" style="fill:rgb(17,28,78);fill-rule:nonzero;"/>
            </g>
            <g transform="matrix(43.529,0,0,43.529,414.994,317.392)">
                <path class="step1c" d="M0.235,-0.397L0.19,-0.411L0.156,-0.387L0.135,-0.28L0.151,-0.211L0.184,-0.176L0.198,-0.175L0.249,-0.199L0.287,-0.251L0.294,-0.3C0.29,-0.341 0.273,-0.375 0.235,-0.397ZM0.282,-0.626L0.315,-0.639L0.327,-0.636L0.331,-0.604L0.343,-0.513L0.358,-0.397L0.375,-0.25L0.378,-0.177L0.366,-0.152L0.35,-0.149L0.325,-0.154L0.308,-0.158L0.283,-0.145L0.216,-0.12C0.181,-0.117 0.148,-0.124 0.121,-0.148L0.091,-0.19L0.078,-0.277L0.092,-0.405C0.106,-0.438 0.132,-0.457 0.164,-0.469L0.194,-0.477L0.247,-0.459L0.29,-0.434L0.282,-0.525L0.282,-0.626Z" style="fill:rgb(17,28,78);fill-rule:nonzero;"/>
            </g>
        </g>
    </g>
</svg>
