<?xml version="1.0" encoding="UTF-8" standalone="no"?>
<!DOCTYPE svg PUBLIC "-//W3C//DTD SVG 1.1//EN" "http://www.w3.org/Graphics/SVG/1.1/DTD/svg11.dtd">
<svg width="100%" height="100%" viewBox="0 0 800 800" version="1.1" xmlns="http://www.w3.org/2000/svg" xmlns:xlink="http://www.w3.org/1999/xlink" xml:space="preserve" xmlns:serif="http://www.serif.com/" style="fill-rule:evenodd;clip-rule:evenodd;stroke-linejoin:round;stroke-miterlimit:2;">
    <g transform="matrix(1.49323,0,0,1.39214,-431.927,-36.1914)">
        <path class="step4e" d="M495.119,116.615C510.552,104.848 529.601,93.899 544.322,87.806C556.461,82.782 566.958,80.865 573.564,80.9L586.643,82.928L598.997,89.334L609.419,100.708L610.134,102.478C621.711,94.075 632.349,88.646 640.746,86.382L656.962,84.607L670.633,87.517L682.106,93.925L691.368,103.246L692.361,105.054C699.573,99.781 706.076,95.651 711.457,93.149L729.829,87.641L740.816,87.617L749.812,89.697L759.896,94.793L768.957,103.045L775.343,113.015L778.851,122.792C786.23,152.296 784.564,174.896 779.015,192.789C774.53,207.254 767.342,219.144 758.413,229.142L761.175,240.035L760.357,258.093L754.822,273.797L746.92,285.511C740.752,292.755 732.001,299.538 721.368,304.818C694.328,318.244 653.739,320.691 638.007,315.371L620.121,305.762L609.675,293.053C595.233,302.632 579.611,309.818 566.762,313.634C559.774,315.71 553.462,316.887 548.31,317.329L532.278,316.471L519.736,311.691L509.394,303.394L504.788,296.41C504.236,296.886 503.694,297.351 503.161,297.804C490.872,308.255 481.022,314.128 473.597,316.722L460.799,319.385L450.301,318.851L436.941,314.264L426.222,306.436L419.047,296.87C398.508,310.448 379.382,315.061 362.349,312.412C355.659,311.371 349.335,308.487 343.996,304.04L337.183,297.061L331.694,288.421L326.504,270.089L326.59,258.497L329.48,245.212C331.645,238.548 335.378,230.681 340.759,222.238C340.907,222.005 341.057,221.772 341.209,221.537C324.171,198.083 319.069,167.615 328.247,141.727C336.782,117.648 357.999,93.174 401.165,85.748C418.322,82.797 439.013,82.731 454.291,86.288L469.651,91.586L481.114,98.783L493.966,113.9L495.119,116.615Z" style="fill:rgb(255,232,190);"/>
    </g>
</svg>
