<?xml version="1.0" encoding="UTF-8" standalone="no"?>
<!DOCTYPE svg PUBLIC "-//W3C//DTD SVG 1.1//EN" "http://www.w3.org/Graphics/SVG/1.1/DTD/svg11.dtd">
<svg width="100%" height="100%" viewBox="0 0 800 800" version="1.1" xmlns="http://www.w3.org/2000/svg" xmlns:xlink="http://www.w3.org/1999/xlink" xml:space="preserve" xmlns:serif="http://www.serif.com/" stroke-width="3" style="fill-rule:evenodd;clip-rule:evenodd;stroke-linejoin:round;stroke-miterlimit:2;">
    <style type="text/css">
        .step4c{fill:none;stroke:#0053BF;}
    </style>
    <g transform="matrix(0.953836,0,0,1.05225,-138.229,-15.9603)">
        <path class="step4c" d="M248.308,220.772C247.605,222.746 246.901,224.72 246.197,226.695C253.454,223.597 253.236,223.73 259.7,219.378L258.398,225.163C266.303,221.269 265.91,221.116 273.778,217.785L273.597,225.393C276.09,223.69 278.582,221.986 281.074,220.282L279.761,226.083C282.754,223.459 285.747,220.835 288.74,218.211L287.285,225.867C299.85,217.304 299.604,217.43 301.732,216.08C301.169,219.123 300.607,222.165 300.044,225.208C305.244,221.807 310.443,218.406 315.643,215.005C313.92,218.301 312.196,221.598 310.473,224.895C314.09,221.32 317.708,217.745 321.326,214.17C320.855,216.98 320.385,219.79 319.915,222.6C328.308,217.424 328.06,217.578 337.28,213.853L333.329,224.177C340.755,218.141 340.602,218.282 348.459,213.114C345.99,220.042 346.255,219.961 344.305,223.942C351.894,218.521 351.615,218.747 359.685,214.743C358.439,218.415 357.192,222.087 355.946,225.758C364.237,219.423 364.196,219.957 373.351,215.277C372.003,218.049 370.654,220.82 369.306,223.592C374.753,218.203 374.631,218.512 381.216,214.154C380.699,216.896 380.183,219.637 379.666,222.379C388.874,217.332 388.668,217.52 398.494,213.568C398.476,216.431 398.458,219.293 398.441,222.156L405.794,217.385L403.507,224.548C407.554,221.748 411.601,218.948 415.648,216.148L413.372,224.09C422.339,217.404 422.001,217.398 431.728,211.791C430.461,216.077 429.194,220.363 427.927,224.649C429.665,223.262 428.683,221.854 444.869,213.676L442.115,222.853C447.509,219.752 452.903,216.651 458.297,213.551L457.158,223.164C460.086,220.718 463.014,218.272 465.942,215.826C465.641,219.234 465.34,222.642 465.039,226.049C466.083,225.327 466.009,225.445 478.397,217.475L478.215,222.86C484.79,219.103 484.604,219.189 492.453,218.821" style="fill:none;"/>
    </g>
    <g transform="matrix(0.953836,0,0,1.05225,-138.229,82.24)">
        <path class="step4c" d="M248.308,220.772C247.605,222.746 246.901,224.72 246.197,226.695C253.454,223.597 253.236,223.73 259.7,219.378L258.398,225.163C266.303,221.269 265.91,221.116 273.778,217.785L273.597,225.393C276.09,223.69 278.582,221.986 281.074,220.282L279.761,226.083C282.754,223.459 285.747,220.835 288.74,218.211L287.285,225.867C299.85,217.304 299.604,217.43 301.732,216.08C301.169,219.123 300.607,222.165 300.044,225.208C305.244,221.807 310.443,218.406 315.643,215.005C313.92,218.301 312.196,221.598 310.473,224.895C314.09,221.32 317.708,217.745 321.326,214.17C320.855,216.98 320.385,219.79 319.915,222.6C328.308,217.424 328.06,217.578 337.28,213.853L333.329,224.177C340.755,218.141 340.602,218.282 348.459,213.114C345.99,220.042 346.255,219.961 344.305,223.942C351.894,218.521 351.615,218.747 359.685,214.743C358.439,218.415 357.192,222.087 355.946,225.758C364.237,219.423 364.196,219.957 373.351,215.277C372.003,218.049 370.654,220.82 369.306,223.592C374.753,218.203 374.631,218.512 381.216,214.154C380.699,216.896 380.183,219.637 379.666,222.379C388.874,217.332 388.668,217.52 398.494,213.568C398.476,216.431 398.458,219.293 398.441,222.156L405.794,217.385L403.507,224.548C407.554,221.748 411.601,218.948 415.648,216.148L413.372,224.09C422.339,217.404 422.001,217.398 431.728,211.791C430.461,216.077 429.194,220.363 427.927,224.649C429.665,223.262 428.683,221.854 444.869,213.676L442.115,222.853C447.509,219.752 452.903,216.651 458.297,213.551L457.158,223.164C460.086,220.718 463.014,218.272 465.942,215.826C465.641,219.234 465.34,222.642 465.039,226.049C466.083,225.327 466.009,225.445 478.397,217.475L478.215,222.86C484.79,219.103 484.604,219.189 492.453,218.821" style="fill:none;"/>
    </g>
    <g transform="matrix(1.21216,0,0,1.18454,-71.8642,-77.6911)">
        <path class="step4c" d="M597.281,601.638C549.841,604.742 531.775,619.331 540.827,636.526C552.091,657.923 620.657,664.04 637.035,637.77C652.154,613.519 612.754,609.062 591.253,607.319" style="fill:none;"/>
    </g>
    <g transform="matrix(0.947778,0,0,0.700689,214.338,205.902)">
        <path class="step4c" d="M176.357,585.178C102.444,585.096 79.362,610.762 79.202,641.397C78.912,696.706 342.241,720.269 309.815,622.851C299.649,592.307 192.404,578.365 113.441,601.673" style="fill:none;"/>
    </g>
    <g transform="matrix(0.854358,-0.156351,0.180014,0.983664,-314.353,122.525)">
        <path class="step4c" d="M412.813,600.689C360.845,609.125 347.507,647.765 398.007,662.698C482.425,687.662 517.784,656.113 480.913,631.054C428.968,595.75 386.095,604.673 372.395,609.642" style="fill:none;"/>
    </g>
    <g transform="matrix(1.01371,0,0,1.141,21.9175,-68.7644)">
        <path class="step4c" d="M297.795,678.818C286.515,678.607 237.771,676.83 231.524,704.746C225.462,731.83 346.867,749.5 347.79,721.664C348.994,685.351 300.801,686.559 285.885,685.43" style="fill:none;"/>
    </g>
    <g transform="matrix(1.10482,-0.082988,0.0749035,0.997191,-92.8691,72.4891)">
        <path class="step4c" d="M531.344,682.715C449.263,679.853 415.935,691.322 431.242,719.953C447.444,750.256 597.675,751.965 607.247,721.879C617.238,690.474 529.275,687.26 521.904,686.991" style="fill:none;"/>
    </g>
</svg>
