<?xml version="1.0" encoding="UTF-8" standalone="no"?>
<!DOCTYPE svg PUBLIC "-//W3C//DTD SVG 1.1//EN" "http://www.w3.org/Graphics/SVG/1.1/DTD/svg11.dtd">
<svg width="100%" height="100%" viewBox="0 0 800 800" version="1.1" xmlns="http://www.w3.org/2000/svg" xmlns:xlink="http://www.w3.org/1999/xlink" xml:space="preserve" xmlns:serif="http://www.serif.com/" style="fill-rule:evenodd;clip-rule:evenodd;stroke-linejoin:round;stroke-miterlimit:2;">
    <g transform="matrix(1,0,0,1,20.6609,-142.916)">
        <g transform="matrix(75,0,0,75,68.1537,308.746)">
            <path class="step4a" d="M0.189,-0.596C0.226,-0.615 0.256,-0.625 0.28,-0.625C0.3,-0.625 0.325,-0.619 0.354,-0.607C0.371,-0.6 0.386,-0.589 0.397,-0.576C0.408,-0.563 0.414,-0.55 0.414,-0.538C0.414,-0.529 0.411,-0.522 0.405,-0.516C0.402,-0.513 0.398,-0.511 0.394,-0.511C0.385,-0.511 0.371,-0.52 0.352,-0.539C0.332,-0.559 0.316,-0.569 0.303,-0.569C0.294,-0.569 0.28,-0.566 0.261,-0.56C0.16,-0.527 0.109,-0.47 0.109,-0.389C0.109,-0.36 0.116,-0.33 0.13,-0.297C0.146,-0.26 0.162,-0.234 0.178,-0.221C0.193,-0.207 0.215,-0.2 0.242,-0.2C0.299,-0.2 0.342,-0.227 0.37,-0.28C0.384,-0.307 0.391,-0.325 0.391,-0.335C0.391,-0.344 0.387,-0.351 0.378,-0.355C0.369,-0.358 0.353,-0.36 0.332,-0.36C0.283,-0.36 0.259,-0.369 0.259,-0.386C0.259,-0.391 0.262,-0.397 0.269,-0.404C0.274,-0.409 0.296,-0.415 0.334,-0.42C0.372,-0.425 0.404,-0.428 0.43,-0.428C0.448,-0.428 0.457,-0.426 0.457,-0.423C0.457,-0.42 0.462,-0.383 0.472,-0.313C0.477,-0.28 0.479,-0.247 0.479,-0.215C0.479,-0.203 0.478,-0.194 0.477,-0.187C0.471,-0.17 0.461,-0.161 0.448,-0.161C0.434,-0.161 0.425,-0.17 0.421,-0.187C0.418,-0.199 0.414,-0.205 0.41,-0.205C0.406,-0.205 0.393,-0.197 0.37,-0.18C0.353,-0.167 0.336,-0.158 0.32,-0.154C0.304,-0.149 0.279,-0.147 0.245,-0.147C0.21,-0.147 0.185,-0.149 0.171,-0.153C0.157,-0.157 0.143,-0.166 0.129,-0.18C0.082,-0.227 0.056,-0.294 0.053,-0.381L0.053,-0.392C0.053,-0.417 0.055,-0.438 0.06,-0.453C0.065,-0.468 0.075,-0.487 0.09,-0.509C0.101,-0.524 0.117,-0.541 0.136,-0.558C0.155,-0.575 0.173,-0.587 0.189,-0.596Z" style="fill:rgb(17,28,78);fill-rule:nonzero;"/>
        </g>
        <g transform="matrix(75,0,0,75,107.904,308.746)">
            <path class="step4a" d="M0.244,-0.399C0.224,-0.408 0.203,-0.413 0.181,-0.413C0.151,-0.413 0.133,-0.406 0.128,-0.392C0.123,-0.376 0.12,-0.352 0.12,-0.319C0.12,-0.287 0.129,-0.261 0.147,-0.242C0.165,-0.223 0.187,-0.213 0.213,-0.213C0.238,-0.213 0.263,-0.222 0.286,-0.241C0.307,-0.258 0.318,-0.278 0.318,-0.301C0.318,-0.319 0.312,-0.337 0.299,-0.355C0.286,-0.372 0.267,-0.387 0.244,-0.399ZM0.127,-0.477C0.152,-0.496 0.183,-0.506 0.221,-0.506C0.244,-0.506 0.264,-0.502 0.279,-0.493C0.298,-0.483 0.32,-0.452 0.345,-0.401C0.37,-0.349 0.383,-0.31 0.383,-0.283C0.383,-0.278 0.383,-0.275 0.382,-0.273C0.373,-0.237 0.353,-0.209 0.322,-0.188C0.291,-0.167 0.256,-0.157 0.218,-0.157C0.163,-0.157 0.12,-0.176 0.088,-0.215C0.065,-0.242 0.053,-0.277 0.053,-0.318C0.053,-0.349 0.059,-0.378 0.073,-0.407C0.086,-0.436 0.104,-0.459 0.127,-0.477Z" style="fill:rgb(17,28,78);fill-rule:nonzero;"/>
        </g>
        <g transform="matrix(75,0,0,75,140.529,308.746)">
            <path class="step4a" d="M0.244,-0.399C0.224,-0.408 0.203,-0.413 0.181,-0.413C0.151,-0.413 0.133,-0.406 0.128,-0.392C0.123,-0.376 0.12,-0.352 0.12,-0.319C0.12,-0.287 0.129,-0.261 0.147,-0.242C0.165,-0.223 0.187,-0.213 0.213,-0.213C0.238,-0.213 0.263,-0.222 0.286,-0.241C0.307,-0.258 0.318,-0.278 0.318,-0.301C0.318,-0.319 0.312,-0.337 0.299,-0.355C0.286,-0.372 0.267,-0.387 0.244,-0.399ZM0.127,-0.477C0.152,-0.496 0.183,-0.506 0.221,-0.506C0.244,-0.506 0.264,-0.502 0.279,-0.493C0.298,-0.483 0.32,-0.452 0.345,-0.401C0.37,-0.349 0.383,-0.31 0.383,-0.283C0.383,-0.278 0.383,-0.275 0.382,-0.273C0.373,-0.237 0.353,-0.209 0.322,-0.188C0.291,-0.167 0.256,-0.157 0.218,-0.157C0.163,-0.157 0.12,-0.176 0.088,-0.215C0.065,-0.242 0.053,-0.277 0.053,-0.318C0.053,-0.349 0.059,-0.378 0.073,-0.407C0.086,-0.436 0.104,-0.459 0.127,-0.477Z" style="fill:rgb(17,28,78);fill-rule:nonzero;"/>
        </g>
        <g transform="matrix(75,0,0,75,173.154,308.746)">
            <path class="step4a" d="M0.262,-0.444C0.248,-0.458 0.233,-0.465 0.217,-0.465C0.196,-0.465 0.175,-0.454 0.154,-0.433C0.142,-0.421 0.134,-0.41 0.13,-0.401C0.125,-0.391 0.123,-0.378 0.123,-0.361C0.123,-0.351 0.123,-0.343 0.124,-0.336C0.126,-0.308 0.129,-0.29 0.134,-0.283C0.138,-0.276 0.148,-0.271 0.163,-0.269L0.171,-0.269C0.198,-0.269 0.223,-0.283 0.246,-0.311C0.269,-0.338 0.28,-0.367 0.28,-0.396C0.28,-0.416 0.274,-0.432 0.262,-0.444ZM0.079,-0.433C0.097,-0.468 0.121,-0.493 0.15,-0.509C0.179,-0.525 0.2,-0.533 0.211,-0.533C0.225,-0.533 0.243,-0.528 0.264,-0.518C0.285,-0.507 0.304,-0.495 0.319,-0.481C0.332,-0.468 0.341,-0.452 0.344,-0.436C0.347,-0.419 0.348,-0.379 0.348,-0.316C0.347,-0.231 0.34,-0.165 0.326,-0.119C0.312,-0.072 0.289,-0.038 0.256,-0.017C0.228,0.002 0.198,0.012 0.165,0.012C0.136,0.012 0.112,0.004 0.094,-0.011C0.079,-0.024 0.071,-0.038 0.071,-0.054C0.071,-0.069 0.078,-0.076 0.091,-0.076C0.093,-0.076 0.098,-0.075 0.106,-0.072C0.124,-0.064 0.143,-0.06 0.163,-0.06C0.2,-0.06 0.227,-0.072 0.244,-0.095C0.253,-0.107 0.262,-0.128 0.271,-0.158C0.28,-0.188 0.284,-0.211 0.284,-0.227C0.284,-0.236 0.282,-0.24 0.279,-0.24C0.272,-0.24 0.254,-0.233 0.224,-0.22C0.193,-0.207 0.169,-0.201 0.152,-0.201C0.13,-0.201 0.109,-0.212 0.088,-0.233C0.065,-0.256 0.053,-0.288 0.053,-0.329C0.053,-0.364 0.062,-0.399 0.079,-0.433Z" style="fill:rgb(17,28,78);fill-rule:nonzero;"/>
        </g>
        <g transform="matrix(75,0,0,75,203.004,308.746)">
            <path class="step4a" d="M0.053,-0.222C0.051,-0.246 0.05,-0.316 0.05,-0.433C0.05,-0.55 0.051,-0.62 0.054,-0.644C0.056,-0.668 0.063,-0.68 0.075,-0.68C0.085,-0.68 0.092,-0.675 0.097,-0.665C0.101,-0.654 0.105,-0.632 0.109,-0.599C0.114,-0.539 0.117,-0.484 0.117,-0.433C0.117,-0.383 0.114,-0.328 0.109,-0.268C0.105,-0.235 0.101,-0.213 0.097,-0.203C0.092,-0.192 0.085,-0.187 0.075,-0.187C0.063,-0.187 0.056,-0.199 0.053,-0.222Z" style="fill:rgb(17,28,78);fill-rule:nonzero;"/>
        </g>
        <g transform="matrix(75,0,0,75,215.529,308.746)">
            <path class="step4a" d="M0.178,-0.336C0.18,-0.335 0.183,-0.335 0.186,-0.335C0.198,-0.335 0.209,-0.339 0.219,-0.349C0.228,-0.358 0.233,-0.368 0.233,-0.38C0.233,-0.385 0.231,-0.392 0.228,-0.4C0.222,-0.413 0.216,-0.419 0.21,-0.419C0.205,-0.419 0.196,-0.416 0.183,-0.409C0.161,-0.398 0.15,-0.383 0.15,-0.364C0.15,-0.347 0.159,-0.338 0.178,-0.336ZM0.1,-0.427C0.136,-0.462 0.168,-0.48 0.197,-0.48C0.215,-0.48 0.235,-0.473 0.256,-0.459C0.279,-0.444 0.291,-0.417 0.291,-0.378C0.291,-0.361 0.288,-0.344 0.282,-0.327C0.277,-0.314 0.262,-0.301 0.237,-0.288C0.212,-0.274 0.189,-0.267 0.17,-0.267C0.157,-0.267 0.15,-0.265 0.15,-0.26C0.15,-0.257 0.153,-0.25 0.158,-0.239C0.163,-0.23 0.167,-0.225 0.171,-0.222C0.174,-0.219 0.18,-0.217 0.189,-0.217C0.202,-0.217 0.232,-0.223 0.28,-0.235C0.289,-0.237 0.296,-0.238 0.301,-0.238C0.311,-0.238 0.316,-0.23 0.316,-0.215C0.316,-0.188 0.28,-0.166 0.208,-0.151C0.206,-0.15 0.203,-0.15 0.198,-0.15C0.173,-0.15 0.149,-0.162 0.125,-0.185C0.101,-0.208 0.087,-0.235 0.083,-0.264C0.076,-0.299 0.069,-0.325 0.06,-0.343C0.056,-0.351 0.054,-0.358 0.054,-0.364C0.054,-0.375 0.069,-0.396 0.1,-0.427Z" style="fill:rgb(17,28,78);fill-rule:nonzero;"/>
        </g>
    </g>
    <g transform="matrix(1,0,0,1,244.225,219.953)">
        <g transform="matrix(58.3333,0,0,58.3333,-31.1546,308.746)">
            <path class="step4a" d="M0.087,-0.549C0.1,-0.565 0.112,-0.576 0.123,-0.581C0.134,-0.586 0.149,-0.589 0.167,-0.589C0.201,-0.589 0.233,-0.579 0.263,-0.558C0.292,-0.537 0.307,-0.517 0.307,-0.496C0.307,-0.485 0.303,-0.477 0.294,-0.47C0.287,-0.465 0.281,-0.462 0.277,-0.462C0.27,-0.462 0.261,-0.471 0.248,-0.488C0.229,-0.513 0.204,-0.526 0.175,-0.526C0.146,-0.526 0.127,-0.514 0.117,-0.489C0.113,-0.479 0.111,-0.469 0.111,-0.459C0.111,-0.439 0.119,-0.423 0.135,-0.411C0.15,-0.398 0.171,-0.392 0.198,-0.392C0.238,-0.392 0.271,-0.379 0.298,-0.352C0.324,-0.325 0.337,-0.293 0.337,-0.258C0.337,-0.226 0.326,-0.199 0.304,-0.176C0.277,-0.147 0.241,-0.133 0.194,-0.133C0.171,-0.133 0.15,-0.137 0.133,-0.146C0.115,-0.155 0.103,-0.167 0.098,-0.184C0.097,-0.187 0.096,-0.192 0.096,-0.198C0.096,-0.216 0.104,-0.225 0.119,-0.225C0.128,-0.225 0.137,-0.221 0.146,-0.213C0.16,-0.201 0.177,-0.195 0.197,-0.195C0.218,-0.195 0.236,-0.201 0.253,-0.212C0.269,-0.223 0.277,-0.238 0.277,-0.255C0.277,-0.278 0.27,-0.296 0.255,-0.309C0.24,-0.321 0.215,-0.329 0.182,-0.334C0.137,-0.34 0.105,-0.353 0.084,-0.373C0.063,-0.393 0.053,-0.421 0.053,-0.457C0.053,-0.491 0.064,-0.522 0.087,-0.549Z" style="fill:rgb(16,27,78);fill-rule:nonzero;"/>
        </g>
        <g transform="matrix(58.3333,0,0,58.3333,-8.46294,308.746)">
            <path class="step4a" d="M0.109,-0.616C0.128,-0.62 0.147,-0.622 0.167,-0.622C0.196,-0.622 0.22,-0.618 0.241,-0.611C0.261,-0.603 0.271,-0.593 0.271,-0.582C0.271,-0.579 0.27,-0.575 0.268,-0.571C0.262,-0.564 0.235,-0.56 0.188,-0.56L0.116,-0.56L0.116,-0.415L0.173,-0.411C0.195,-0.41 0.21,-0.407 0.218,-0.403C0.225,-0.398 0.229,-0.391 0.229,-0.38C0.229,-0.369 0.225,-0.362 0.218,-0.358C0.21,-0.353 0.195,-0.35 0.173,-0.349L0.116,-0.345L0.116,-0.276C0.116,-0.229 0.123,-0.196 0.137,-0.175C0.144,-0.164 0.151,-0.157 0.158,-0.154C0.164,-0.15 0.173,-0.148 0.185,-0.148C0.195,-0.148 0.208,-0.149 0.225,-0.151C0.248,-0.154 0.261,-0.155 0.265,-0.155C0.283,-0.155 0.294,-0.15 0.299,-0.139C0.3,-0.136 0.301,-0.132 0.301,-0.126C0.301,-0.113 0.293,-0.102 0.278,-0.093C0.263,-0.084 0.242,-0.08 0.217,-0.08C0.178,-0.08 0.145,-0.089 0.118,-0.108C0.091,-0.127 0.073,-0.152 0.064,-0.183C0.055,-0.212 0.051,-0.271 0.051,-0.361C0.051,-0.432 0.054,-0.492 0.06,-0.54C0.064,-0.57 0.069,-0.589 0.074,-0.598C0.079,-0.606 0.091,-0.612 0.109,-0.616Z" style="fill:rgb(16,27,78);fill-rule:nonzero;"/>
        </g>
        <g transform="matrix(58.3333,0,0,58.3333,12.4204,308.746)">
            <path class="step4a" d="M0.242,-0.579C0.231,-0.586 0.22,-0.59 0.209,-0.59C0.182,-0.59 0.16,-0.571 0.142,-0.533C0.124,-0.495 0.115,-0.448 0.115,-0.391C0.115,-0.373 0.116,-0.355 0.118,-0.337C0.124,-0.292 0.134,-0.262 0.149,-0.246C0.164,-0.23 0.182,-0.222 0.202,-0.222C0.225,-0.222 0.246,-0.231 0.267,-0.25C0.287,-0.268 0.3,-0.291 0.305,-0.32C0.306,-0.323 0.306,-0.328 0.306,-0.335C0.306,-0.367 0.298,-0.414 0.282,-0.476C0.266,-0.537 0.253,-0.572 0.242,-0.579ZM0.146,-0.632C0.166,-0.644 0.191,-0.65 0.221,-0.65C0.253,-0.65 0.276,-0.643 0.289,-0.63C0.301,-0.618 0.315,-0.584 0.331,-0.527C0.347,-0.47 0.357,-0.419 0.36,-0.376C0.362,-0.353 0.363,-0.335 0.363,-0.32C0.363,-0.303 0.361,-0.288 0.357,-0.277C0.353,-0.265 0.345,-0.251 0.333,-0.234C0.3,-0.184 0.259,-0.159 0.208,-0.159C0.185,-0.159 0.163,-0.165 0.142,-0.176C0.123,-0.186 0.109,-0.197 0.099,-0.21C0.089,-0.223 0.08,-0.242 0.071,-0.267C0.058,-0.303 0.052,-0.343 0.052,-0.388C0.052,-0.441 0.061,-0.49 0.078,-0.537C0.095,-0.583 0.118,-0.615 0.146,-0.632Z" style="fill:rgb(16,27,78);fill-rule:nonzero;"/>
        </g>
        <g transform="matrix(58.3333,0,0,58.3333,51.1537,308.746)">
            <path class="step4a" d="M0.058,-0.399C0.058,-0.444 0.061,-0.469 0.067,-0.475C0.073,-0.481 0.082,-0.484 0.094,-0.484C0.106,-0.484 0.112,-0.481 0.112,-0.475C0.12,-0.356 0.129,-0.278 0.138,-0.243C0.145,-0.215 0.152,-0.201 0.158,-0.201C0.161,-0.201 0.169,-0.205 0.18,-0.212C0.199,-0.224 0.214,-0.246 0.225,-0.277C0.236,-0.308 0.241,-0.345 0.241,-0.388C0.242,-0.443 0.251,-0.47 0.268,-0.47C0.273,-0.47 0.278,-0.467 0.283,-0.462C0.298,-0.447 0.305,-0.387 0.305,-0.282C0.305,-0.225 0.302,-0.18 0.295,-0.149C0.286,-0.104 0.269,-0.065 0.242,-0.033C0.215,-0 0.187,0.016 0.158,0.016C0.129,0.016 0.105,0.009 0.084,-0.005C0.063,-0.018 0.052,-0.033 0.052,-0.05C0.052,-0.061 0.057,-0.07 0.067,-0.079C0.073,-0.084 0.079,-0.087 0.084,-0.087C0.089,-0.087 0.096,-0.082 0.104,-0.072C0.115,-0.057 0.132,-0.05 0.155,-0.05C0.17,-0.05 0.181,-0.054 0.189,-0.061C0.196,-0.068 0.205,-0.082 0.216,-0.105C0.228,-0.133 0.234,-0.152 0.234,-0.163C0.234,-0.168 0.233,-0.17 0.23,-0.17C0.227,-0.17 0.221,-0.166 0.213,-0.158C0.203,-0.148 0.188,-0.143 0.168,-0.143C0.141,-0.143 0.121,-0.151 0.107,-0.166C0.094,-0.179 0.082,-0.206 0.072,-0.247C0.063,-0.286 0.058,-0.337 0.058,-0.399Z" style="fill:rgb(16,27,78);fill-rule:nonzero;"/>
        </g>
        <g transform="matrix(58.3333,0,0,58.3333,86.5037,308.746)">
            <path class="step4a" d="M0.244,-0.399C0.224,-0.408 0.203,-0.413 0.181,-0.413C0.151,-0.413 0.133,-0.406 0.128,-0.392C0.123,-0.376 0.12,-0.352 0.12,-0.319C0.12,-0.287 0.129,-0.261 0.147,-0.242C0.165,-0.223 0.187,-0.213 0.213,-0.213C0.238,-0.213 0.263,-0.222 0.286,-0.241C0.307,-0.258 0.318,-0.278 0.318,-0.301C0.318,-0.319 0.312,-0.337 0.299,-0.355C0.286,-0.372 0.267,-0.387 0.244,-0.399ZM0.127,-0.477C0.152,-0.496 0.183,-0.506 0.221,-0.506C0.244,-0.506 0.264,-0.502 0.279,-0.493C0.298,-0.483 0.32,-0.452 0.345,-0.401C0.37,-0.349 0.383,-0.31 0.383,-0.283C0.383,-0.278 0.383,-0.275 0.382,-0.273C0.373,-0.237 0.353,-0.209 0.322,-0.188C0.291,-0.167 0.256,-0.157 0.218,-0.157C0.163,-0.157 0.12,-0.176 0.088,-0.215C0.065,-0.242 0.053,-0.277 0.053,-0.318C0.053,-0.349 0.059,-0.378 0.073,-0.407C0.086,-0.436 0.104,-0.459 0.127,-0.477Z" style="fill:rgb(16,27,78);fill-rule:nonzero;"/>
        </g>
        <g transform="matrix(58.3333,0,0,58.3333,111.879,308.746)">
            <path class="step4a" d="M0.246,-0.399C0.224,-0.426 0.198,-0.44 0.167,-0.44C0.148,-0.44 0.136,-0.438 0.131,-0.434C0.125,-0.429 0.12,-0.419 0.117,-0.403C0.115,-0.393 0.114,-0.379 0.114,-0.36C0.114,-0.342 0.115,-0.325 0.117,-0.309C0.121,-0.281 0.126,-0.265 0.131,-0.26C0.136,-0.255 0.153,-0.253 0.181,-0.253C0.212,-0.253 0.236,-0.26 0.253,-0.273C0.27,-0.286 0.279,-0.302 0.279,-0.323C0.279,-0.348 0.268,-0.373 0.246,-0.399ZM0.081,-0.473C0.102,-0.495 0.13,-0.506 0.163,-0.506C0.192,-0.506 0.221,-0.497 0.25,-0.48C0.309,-0.445 0.338,-0.393 0.338,-0.325C0.338,-0.282 0.327,-0.249 0.304,-0.228C0.281,-0.206 0.244,-0.193 0.195,-0.189L0.121,-0.184L0.121,-0.111C0.121,-0.064 0.114,-0.038 0.099,-0.031C0.096,-0.03 0.092,-0.029 0.086,-0.029C0.077,-0.029 0.071,-0.031 0.067,-0.035C0.059,-0.043 0.054,-0.112 0.053,-0.243C0.052,-0.306 0.051,-0.343 0.051,-0.354C0.051,-0.394 0.053,-0.421 0.057,-0.434C0.06,-0.447 0.068,-0.46 0.081,-0.473Z" style="fill:rgb(16,27,78);fill-rule:nonzero;"/>
        </g>
        <g transform="matrix(58.3333,0,0,58.3333,134.57,308.746)">
            <path class="step4a" d="M0.164,-0.608C0.169,-0.613 0.179,-0.614 0.194,-0.613C0.207,-0.61 0.215,-0.588 0.218,-0.547C0.22,-0.519 0.223,-0.502 0.227,-0.495C0.231,-0.488 0.241,-0.484 0.257,-0.482C0.281,-0.479 0.293,-0.469 0.293,-0.451C0.293,-0.441 0.29,-0.434 0.284,-0.43C0.277,-0.425 0.265,-0.422 0.248,-0.421L0.203,-0.417L0.212,-0.318C0.217,-0.253 0.224,-0.212 0.233,-0.195C0.242,-0.178 0.253,-0.17 0.266,-0.17C0.279,-0.17 0.29,-0.178 0.299,-0.195C0.308,-0.212 0.319,-0.221 0.331,-0.221C0.345,-0.221 0.352,-0.211 0.352,-0.191C0.352,-0.17 0.343,-0.151 0.324,-0.135C0.305,-0.118 0.284,-0.11 0.261,-0.11C0.25,-0.11 0.239,-0.112 0.23,-0.117C0.206,-0.128 0.189,-0.146 0.179,-0.171C0.169,-0.196 0.161,-0.24 0.155,-0.303C0.146,-0.382 0.141,-0.423 0.139,-0.425C0.138,-0.425 0.136,-0.426 0.132,-0.428C0.127,-0.429 0.122,-0.431 0.115,-0.434C0.108,-0.437 0.102,-0.439 0.095,-0.441C0.069,-0.449 0.056,-0.459 0.056,-0.471C0.056,-0.484 0.073,-0.492 0.106,-0.495C0.129,-0.497 0.143,-0.501 0.148,-0.506C0.153,-0.511 0.155,-0.526 0.155,-0.549C0.155,-0.582 0.158,-0.602 0.164,-0.608Z" style="fill:rgb(16,27,78);fill-rule:nonzero;"/>
        </g>
        <g transform="matrix(58.3333,0,0,58.3333,158.254,308.746)">
            <path class="step4a" d="M0.061,-0.633C0.071,-0.646 0.084,-0.652 0.1,-0.652C0.101,-0.652 0.102,-0.652 0.103,-0.652C0.104,-0.651 0.105,-0.651 0.106,-0.651C0.117,-0.65 0.124,-0.646 0.128,-0.64C0.132,-0.633 0.134,-0.622 0.134,-0.607C0.134,-0.59 0.132,-0.58 0.128,-0.575C0.124,-0.57 0.115,-0.567 0.102,-0.567C0.087,-0.567 0.075,-0.571 0.066,-0.58C0.056,-0.588 0.051,-0.597 0.051,-0.608C0.051,-0.617 0.054,-0.626 0.061,-0.633ZM0.067,-0.491C0.07,-0.5 0.078,-0.505 0.091,-0.505C0.092,-0.505 0.093,-0.505 0.094,-0.505C0.095,-0.504 0.096,-0.504 0.097,-0.504C0.108,-0.502 0.114,-0.493 0.117,-0.476C0.12,-0.459 0.121,-0.418 0.121,-0.353C0.121,-0.285 0.12,-0.244 0.117,-0.229C0.114,-0.214 0.107,-0.207 0.094,-0.207C0.082,-0.207 0.074,-0.214 0.071,-0.228C0.068,-0.242 0.065,-0.279 0.063,-0.339L0.063,-0.389C0.063,-0.45 0.064,-0.484 0.067,-0.491Z" style="fill:rgb(16,27,78);fill-rule:nonzero;"/>
        </g>
        <g transform="matrix(58.3333,0,0,58.3333,168.987,308.746)">
            <path class="step4a" d="M0.058,-0.497C0.065,-0.51 0.072,-0.517 0.08,-0.517C0.094,-0.517 0.104,-0.496 0.109,-0.455L0.115,-0.397L0.146,-0.439C0.167,-0.468 0.193,-0.482 0.225,-0.482C0.25,-0.482 0.272,-0.472 0.289,-0.453L0.313,-0.427L0.349,-0.46C0.374,-0.484 0.397,-0.496 0.418,-0.496C0.443,-0.496 0.462,-0.48 0.477,-0.448C0.492,-0.416 0.499,-0.371 0.499,-0.313C0.499,-0.23 0.487,-0.188 0.464,-0.188C0.46,-0.188 0.455,-0.189 0.45,-0.191C0.44,-0.196 0.435,-0.21 0.435,-0.233C0.435,-0.252 0.436,-0.269 0.437,-0.283C0.438,-0.303 0.439,-0.318 0.439,-0.328C0.439,-0.362 0.436,-0.388 0.429,-0.407L0.413,-0.447L0.391,-0.415C0.377,-0.397 0.362,-0.357 0.347,-0.295C0.338,-0.259 0.331,-0.235 0.326,-0.224C0.32,-0.213 0.312,-0.207 0.301,-0.207C0.29,-0.207 0.283,-0.213 0.279,-0.224C0.274,-0.235 0.27,-0.261 0.265,-0.3C0.255,-0.379 0.241,-0.419 0.223,-0.419C0.218,-0.419 0.213,-0.416 0.206,-0.411C0.178,-0.388 0.154,-0.336 0.135,-0.256C0.122,-0.202 0.109,-0.175 0.096,-0.175C0.091,-0.175 0.085,-0.178 0.078,-0.185C0.071,-0.192 0.065,-0.222 0.06,-0.275C0.054,-0.327 0.051,-0.377 0.051,-0.424C0.051,-0.464 0.053,-0.488 0.058,-0.497Z" style="fill:rgb(16,27,78);fill-rule:nonzero;"/>
        </g>
        <g transform="matrix(58.3333,0,0,58.3333,201.07,308.746)">
            <path class="step4a" d="M0.061,-0.633C0.071,-0.646 0.084,-0.652 0.1,-0.652C0.101,-0.652 0.102,-0.652 0.103,-0.652C0.104,-0.651 0.105,-0.651 0.106,-0.651C0.117,-0.65 0.124,-0.646 0.128,-0.64C0.132,-0.633 0.134,-0.622 0.134,-0.607C0.134,-0.59 0.132,-0.58 0.128,-0.575C0.124,-0.57 0.115,-0.567 0.102,-0.567C0.087,-0.567 0.075,-0.571 0.066,-0.58C0.056,-0.588 0.051,-0.597 0.051,-0.608C0.051,-0.617 0.054,-0.626 0.061,-0.633ZM0.067,-0.491C0.07,-0.5 0.078,-0.505 0.091,-0.505C0.092,-0.505 0.093,-0.505 0.094,-0.505C0.095,-0.504 0.096,-0.504 0.097,-0.504C0.108,-0.502 0.114,-0.493 0.117,-0.476C0.12,-0.459 0.121,-0.418 0.121,-0.353C0.121,-0.285 0.12,-0.244 0.117,-0.229C0.114,-0.214 0.107,-0.207 0.094,-0.207C0.082,-0.207 0.074,-0.214 0.071,-0.228C0.068,-0.242 0.065,-0.279 0.063,-0.339L0.063,-0.389C0.063,-0.45 0.064,-0.484 0.067,-0.491Z" style="fill:rgb(16,27,78);fill-rule:nonzero;"/>
        </g>
        <g transform="matrix(58.3333,0,0,58.3333,211.804,308.746)">
            <path class="step4a" d="M0.059,-0.491C0.062,-0.5 0.076,-0.505 0.101,-0.505C0.121,-0.505 0.146,-0.504 0.175,-0.501C0.237,-0.496 0.281,-0.491 0.306,-0.484C0.331,-0.476 0.343,-0.467 0.343,-0.454C0.343,-0.441 0.329,-0.413 0.301,-0.368C0.272,-0.323 0.246,-0.288 0.221,-0.263L0.179,-0.22L0.259,-0.228C0.278,-0.231 0.295,-0.232 0.312,-0.232C0.333,-0.232 0.346,-0.229 0.35,-0.222C0.353,-0.217 0.354,-0.213 0.354,-0.209C0.354,-0.187 0.321,-0.172 0.254,-0.163C0.25,-0.162 0.204,-0.157 0.117,-0.147C0.101,-0.144 0.087,-0.143 0.076,-0.143C0.067,-0.143 0.061,-0.145 0.058,-0.148C0.055,-0.151 0.054,-0.155 0.054,-0.162C0.054,-0.169 0.063,-0.184 0.081,-0.207C0.098,-0.23 0.119,-0.254 0.143,-0.279C0.202,-0.339 0.237,-0.379 0.249,-0.4C0.254,-0.409 0.256,-0.415 0.256,-0.418C0.256,-0.423 0.253,-0.426 0.246,-0.429C0.239,-0.431 0.224,-0.434 0.203,-0.437C0.159,-0.442 0.126,-0.445 0.105,-0.445C0.072,-0.445 0.055,-0.455 0.055,-0.474C0.055,-0.48 0.056,-0.486 0.059,-0.491Z" style="fill:rgb(16,27,78);fill-rule:nonzero;"/>
        </g>
        <g transform="matrix(58.3333,0,0,58.3333,235.487,308.746)">
            <path class="step4a" d="M0.28,-0.408C0.266,-0.424 0.247,-0.432 0.222,-0.432C0.197,-0.432 0.176,-0.424 0.159,-0.407C0.146,-0.394 0.134,-0.373 0.124,-0.344C0.114,-0.315 0.109,-0.29 0.109,-0.268C0.109,-0.26 0.11,-0.253 0.112,-0.247C0.117,-0.23 0.133,-0.221 0.159,-0.221C0.176,-0.221 0.194,-0.226 0.212,-0.236C0.229,-0.245 0.248,-0.272 0.269,-0.317C0.285,-0.352 0.293,-0.374 0.293,-0.383C0.293,-0.391 0.289,-0.399 0.28,-0.408ZM0.163,-0.479C0.19,-0.49 0.209,-0.496 0.222,-0.496C0.234,-0.496 0.254,-0.49 0.283,-0.479C0.314,-0.466 0.335,-0.445 0.347,-0.416C0.359,-0.386 0.366,-0.336 0.369,-0.267C0.37,-0.223 0.371,-0.199 0.371,-0.194C0.371,-0.174 0.37,-0.162 0.367,-0.157C0.364,-0.152 0.357,-0.149 0.348,-0.149C0.337,-0.149 0.33,-0.152 0.326,-0.159C0.322,-0.166 0.319,-0.18 0.316,-0.201C0.312,-0.228 0.308,-0.242 0.305,-0.242C0.304,-0.242 0.3,-0.237 0.293,-0.226C0.283,-0.208 0.263,-0.192 0.233,-0.177C0.202,-0.162 0.174,-0.155 0.148,-0.155C0.122,-0.155 0.099,-0.166 0.08,-0.187C0.069,-0.198 0.062,-0.209 0.059,-0.218C0.055,-0.227 0.053,-0.24 0.053,-0.257C0.053,-0.262 0.054,-0.276 0.055,-0.297C0.062,-0.39 0.098,-0.45 0.163,-0.479Z" style="fill:rgb(16,27,78);fill-rule:nonzero;"/>
        </g>
        <g transform="matrix(58.3333,0,0,58.3333,260.162,308.746)">
            <path class="step4a" d="M0.138,-0.467C0.165,-0.484 0.193,-0.493 0.222,-0.493C0.255,-0.493 0.285,-0.481 0.31,-0.457C0.335,-0.432 0.347,-0.413 0.347,-0.4C0.347,-0.391 0.341,-0.384 0.328,-0.379C0.327,-0.378 0.324,-0.378 0.321,-0.378C0.307,-0.378 0.292,-0.387 0.276,-0.404C0.259,-0.422 0.24,-0.431 0.221,-0.431C0.195,-0.431 0.168,-0.415 0.141,-0.384C0.12,-0.36 0.109,-0.338 0.109,-0.319C0.109,-0.304 0.116,-0.288 0.129,-0.269C0.142,-0.25 0.163,-0.24 0.19,-0.24C0.211,-0.24 0.23,-0.247 0.249,-0.26C0.266,-0.273 0.281,-0.279 0.295,-0.279C0.312,-0.279 0.321,-0.27 0.321,-0.253C0.321,-0.233 0.308,-0.216 0.281,-0.202C0.254,-0.187 0.221,-0.18 0.184,-0.18C0.156,-0.18 0.136,-0.182 0.124,-0.187C0.112,-0.191 0.099,-0.201 0.086,-0.217C0.065,-0.242 0.054,-0.274 0.054,-0.311C0.054,-0.342 0.062,-0.371 0.077,-0.4C0.092,-0.429 0.112,-0.451 0.138,-0.467Z" style="fill:rgb(16,27,78);fill-rule:nonzero;"/>
        </g>
        <g transform="matrix(58.3333,0,0,58.3333,283.437,308.746)">
            <path class="step4a" d="M0.061,-0.633C0.071,-0.646 0.084,-0.652 0.1,-0.652C0.101,-0.652 0.102,-0.652 0.103,-0.652C0.104,-0.651 0.105,-0.651 0.106,-0.651C0.117,-0.65 0.124,-0.646 0.128,-0.64C0.132,-0.633 0.134,-0.622 0.134,-0.607C0.134,-0.59 0.132,-0.58 0.128,-0.575C0.124,-0.57 0.115,-0.567 0.102,-0.567C0.087,-0.567 0.075,-0.571 0.066,-0.58C0.056,-0.588 0.051,-0.597 0.051,-0.608C0.051,-0.617 0.054,-0.626 0.061,-0.633ZM0.067,-0.491C0.07,-0.5 0.078,-0.505 0.091,-0.505C0.092,-0.505 0.093,-0.505 0.094,-0.505C0.095,-0.504 0.096,-0.504 0.097,-0.504C0.108,-0.502 0.114,-0.493 0.117,-0.476C0.12,-0.459 0.121,-0.418 0.121,-0.353C0.121,-0.285 0.12,-0.244 0.117,-0.229C0.114,-0.214 0.107,-0.207 0.094,-0.207C0.082,-0.207 0.074,-0.214 0.071,-0.228C0.068,-0.242 0.065,-0.279 0.063,-0.339L0.063,-0.389C0.063,-0.45 0.064,-0.484 0.067,-0.491Z" style="fill:rgb(16,27,78);fill-rule:nonzero;"/>
        </g>
        <g transform="matrix(58.3333,0,0,58.3333,294.17,308.746)">
            <path class="step4a" d="M0.244,-0.399C0.224,-0.408 0.203,-0.413 0.181,-0.413C0.151,-0.413 0.133,-0.406 0.128,-0.392C0.123,-0.376 0.12,-0.352 0.12,-0.319C0.12,-0.287 0.129,-0.261 0.147,-0.242C0.165,-0.223 0.187,-0.213 0.213,-0.213C0.238,-0.213 0.263,-0.222 0.286,-0.241C0.307,-0.258 0.318,-0.278 0.318,-0.301C0.318,-0.319 0.312,-0.337 0.299,-0.355C0.286,-0.372 0.267,-0.387 0.244,-0.399ZM0.127,-0.477C0.152,-0.496 0.183,-0.506 0.221,-0.506C0.244,-0.506 0.264,-0.502 0.279,-0.493C0.298,-0.483 0.32,-0.452 0.345,-0.401C0.37,-0.349 0.383,-0.31 0.383,-0.283C0.383,-0.278 0.383,-0.275 0.382,-0.273C0.373,-0.237 0.353,-0.209 0.322,-0.188C0.291,-0.167 0.256,-0.157 0.218,-0.157C0.163,-0.157 0.12,-0.176 0.088,-0.215C0.065,-0.242 0.053,-0.277 0.053,-0.318C0.053,-0.349 0.059,-0.378 0.073,-0.407C0.086,-0.436 0.104,-0.459 0.127,-0.477Z" style="fill:rgb(16,27,78);fill-rule:nonzero;"/>
        </g>
        <g transform="matrix(58.3333,0,0,58.3333,319.545,308.746)">
            <path class="step4a" d="M0.052,-0.397L0.052,-0.425C0.052,-0.455 0.054,-0.474 0.057,-0.482C0.059,-0.489 0.066,-0.493 0.076,-0.493C0.083,-0.493 0.091,-0.491 0.098,-0.486C0.105,-0.481 0.109,-0.474 0.111,-0.467C0.115,-0.454 0.119,-0.447 0.124,-0.447C0.129,-0.447 0.137,-0.451 0.148,-0.46C0.165,-0.472 0.183,-0.478 0.204,-0.478C0.241,-0.478 0.273,-0.459 0.302,-0.421C0.33,-0.383 0.344,-0.337 0.344,-0.283C0.344,-0.21 0.33,-0.173 0.303,-0.173C0.292,-0.173 0.285,-0.178 0.282,-0.187C0.279,-0.196 0.278,-0.218 0.278,-0.253C0.278,-0.299 0.272,-0.337 0.259,-0.368C0.246,-0.398 0.231,-0.413 0.212,-0.413C0.193,-0.413 0.178,-0.404 0.168,-0.385C0.158,-0.366 0.149,-0.33 0.14,-0.277C0.133,-0.236 0.127,-0.209 0.122,-0.198C0.117,-0.186 0.109,-0.18 0.098,-0.18C0.068,-0.18 0.053,-0.252 0.052,-0.397Z" style="fill:rgb(16,27,78);fill-rule:nonzero;"/>
        </g>
    </g>
    <g transform="matrix(1,0,0,1,1.07447,1.113)">
        <path class="step4a" d="M553.869,491.788C553.469,492.617 552.472,492.965 551.643,492.566C550.815,492.166 550.466,491.169 550.866,490.341C551.37,489.295 553.239,486.98 554.51,485.55C555.121,484.863 556.175,484.8 556.863,485.411C557.55,486.022 557.612,487.077 557.001,487.764C555.925,488.976 554.296,490.903 553.869,491.788Z" style="fill:rgb(15,26,78);"/>
    </g>
    <g transform="matrix(1,0,0,1,262.424,11.2768)">
        <g transform="matrix(50,0,0,50,63.0567,656.944)">
            <path class="step4a" d="M0.063,-0.651C0.065,-0.66 0.072,-0.665 0.084,-0.665C0.087,-0.665 0.09,-0.665 0.091,-0.664C0.101,-0.662 0.108,-0.653 0.112,-0.638C0.115,-0.622 0.118,-0.588 0.121,-0.536L0.128,-0.413L0.191,-0.473C0.226,-0.505 0.255,-0.536 0.276,-0.567C0.291,-0.589 0.308,-0.6 0.329,-0.6C0.342,-0.6 0.348,-0.594 0.348,-0.583C0.348,-0.572 0.336,-0.549 0.311,-0.514C0.286,-0.479 0.262,-0.451 0.239,-0.429L0.205,-0.4L0.255,-0.349C0.278,-0.324 0.298,-0.294 0.313,-0.259C0.328,-0.224 0.335,-0.191 0.335,-0.161C0.335,-0.144 0.329,-0.135 0.316,-0.135C0.311,-0.135 0.308,-0.135 0.305,-0.136C0.294,-0.137 0.285,-0.142 0.28,-0.149C0.275,-0.156 0.27,-0.169 0.267,-0.187C0.26,-0.234 0.246,-0.271 0.225,-0.296C0.204,-0.321 0.179,-0.333 0.148,-0.333C0.135,-0.333 0.125,-0.32 0.119,-0.294C0.112,-0.267 0.107,-0.218 0.104,-0.147C0.103,-0.115 0.1,-0.095 0.097,-0.086C0.094,-0.077 0.086,-0.071 0.075,-0.069C0.074,-0.069 0.072,-0.069 0.071,-0.069C0.07,-0.068 0.069,-0.068 0.068,-0.068C0.064,-0.068 0.061,-0.069 0.059,-0.072C0.057,-0.074 0.055,-0.079 0.054,-0.087C0.053,-0.094 0.052,-0.105 0.051,-0.119C0.05,-0.132 0.05,-0.151 0.05,-0.174C0.05,-0.187 0.051,-0.245 0.052,-0.349C0.056,-0.542 0.06,-0.643 0.063,-0.651Z" style="fill:rgb(17,28,78);fill-rule:nonzero;"/>
        </g>
        <g transform="matrix(50,0,0,50,83.1567,656.944)">
            <path class="step4a" d="M0.178,-0.336C0.18,-0.335 0.183,-0.335 0.186,-0.335C0.198,-0.335 0.209,-0.339 0.219,-0.349C0.228,-0.358 0.233,-0.368 0.233,-0.38C0.233,-0.385 0.231,-0.392 0.228,-0.4C0.222,-0.413 0.216,-0.419 0.21,-0.419C0.205,-0.419 0.196,-0.416 0.183,-0.409C0.161,-0.398 0.15,-0.383 0.15,-0.364C0.15,-0.347 0.159,-0.338 0.178,-0.336ZM0.1,-0.427C0.136,-0.462 0.168,-0.48 0.197,-0.48C0.215,-0.48 0.235,-0.473 0.256,-0.459C0.279,-0.444 0.291,-0.417 0.291,-0.378C0.291,-0.361 0.288,-0.344 0.282,-0.327C0.277,-0.314 0.262,-0.301 0.237,-0.288C0.212,-0.274 0.189,-0.267 0.17,-0.267C0.157,-0.267 0.15,-0.265 0.15,-0.26C0.15,-0.257 0.153,-0.25 0.158,-0.239C0.163,-0.23 0.167,-0.225 0.171,-0.222C0.174,-0.219 0.18,-0.217 0.189,-0.217C0.202,-0.217 0.232,-0.223 0.28,-0.235C0.289,-0.237 0.296,-0.238 0.301,-0.238C0.311,-0.238 0.316,-0.23 0.316,-0.215C0.316,-0.188 0.28,-0.166 0.208,-0.151C0.206,-0.15 0.203,-0.15 0.198,-0.15C0.173,-0.15 0.149,-0.162 0.125,-0.185C0.101,-0.208 0.087,-0.235 0.083,-0.264C0.076,-0.299 0.069,-0.325 0.06,-0.343C0.056,-0.351 0.054,-0.358 0.054,-0.364C0.054,-0.375 0.069,-0.396 0.1,-0.427Z" style="fill:rgb(17,28,78);fill-rule:nonzero;"/>
        </g>
        <g transform="matrix(50,0,0,50,101.657,656.944)">
            <path class="step4a" d="M0.058,-0.399C0.058,-0.444 0.061,-0.469 0.067,-0.475C0.073,-0.481 0.082,-0.484 0.094,-0.484C0.106,-0.484 0.112,-0.481 0.112,-0.475C0.12,-0.356 0.129,-0.278 0.138,-0.243C0.145,-0.215 0.152,-0.201 0.158,-0.201C0.161,-0.201 0.169,-0.205 0.18,-0.212C0.199,-0.224 0.214,-0.246 0.225,-0.277C0.236,-0.308 0.241,-0.345 0.241,-0.388C0.242,-0.443 0.251,-0.47 0.268,-0.47C0.273,-0.47 0.278,-0.467 0.283,-0.462C0.298,-0.447 0.305,-0.387 0.305,-0.282C0.305,-0.225 0.302,-0.18 0.295,-0.149C0.286,-0.104 0.269,-0.065 0.242,-0.033C0.215,-0 0.187,0.016 0.158,0.016C0.129,0.016 0.105,0.009 0.084,-0.005C0.063,-0.018 0.052,-0.033 0.052,-0.05C0.052,-0.061 0.057,-0.07 0.067,-0.079C0.073,-0.084 0.079,-0.087 0.084,-0.087C0.089,-0.087 0.096,-0.082 0.104,-0.072C0.115,-0.057 0.132,-0.05 0.155,-0.05C0.17,-0.05 0.181,-0.054 0.189,-0.061C0.196,-0.068 0.205,-0.082 0.216,-0.105C0.228,-0.133 0.234,-0.152 0.234,-0.163C0.234,-0.168 0.233,-0.17 0.23,-0.17C0.227,-0.17 0.221,-0.166 0.213,-0.158C0.203,-0.148 0.188,-0.143 0.168,-0.143C0.141,-0.143 0.121,-0.151 0.107,-0.166C0.094,-0.179 0.082,-0.206 0.072,-0.247C0.063,-0.286 0.058,-0.337 0.058,-0.399Z" style="fill:rgb(17,28,78);fill-rule:nonzero;"/>
        </g>
        <g transform="matrix(50,0,0,50,119.457,656.944)">
            <path class="step4a" d="M0.052,-0.436C0.052,-0.455 0.054,-0.468 0.057,-0.475C0.06,-0.481 0.067,-0.484 0.077,-0.484C0.09,-0.484 0.099,-0.476 0.105,-0.462C0.11,-0.447 0.116,-0.408 0.124,-0.347C0.135,-0.264 0.151,-0.222 0.174,-0.222C0.186,-0.222 0.198,-0.236 0.209,-0.264C0.22,-0.292 0.23,-0.332 0.238,-0.383C0.244,-0.425 0.249,-0.452 0.254,-0.465C0.258,-0.477 0.264,-0.483 0.273,-0.483C0.274,-0.483 0.275,-0.483 0.277,-0.483C0.278,-0.482 0.28,-0.482 0.281,-0.482C0.292,-0.481 0.299,-0.475 0.304,-0.466C0.309,-0.457 0.313,-0.438 0.316,-0.411C0.321,-0.37 0.329,-0.332 0.34,-0.298C0.351,-0.264 0.36,-0.247 0.368,-0.247C0.383,-0.247 0.395,-0.261 0.405,-0.288C0.415,-0.315 0.42,-0.349 0.42,-0.389C0.42,-0.423 0.421,-0.445 0.424,-0.455C0.426,-0.464 0.431,-0.469 0.44,-0.469C0.445,-0.469 0.448,-0.469 0.451,-0.468C0.463,-0.467 0.471,-0.462 0.476,-0.454C0.48,-0.446 0.483,-0.43 0.484,-0.405C0.485,-0.4 0.485,-0.392 0.485,-0.382C0.485,-0.327 0.473,-0.279 0.449,-0.24C0.424,-0.201 0.397,-0.181 0.367,-0.181C0.342,-0.181 0.32,-0.196 0.302,-0.225C0.29,-0.245 0.282,-0.255 0.277,-0.255C0.276,-0.255 0.276,-0.254 0.276,-0.253C0.276,-0.244 0.265,-0.228 0.243,-0.203C0.223,-0.18 0.199,-0.169 0.17,-0.169C0.146,-0.169 0.126,-0.178 0.111,-0.195C0.098,-0.21 0.086,-0.243 0.073,-0.297C0.059,-0.349 0.053,-0.396 0.052,-0.436Z" style="fill:rgb(17,28,78);fill-rule:nonzero;"/>
        </g>
        <g transform="matrix(50,0,0,50,146.207,656.944)">
            <path class="step4a" d="M0.244,-0.399C0.224,-0.408 0.203,-0.413 0.181,-0.413C0.151,-0.413 0.133,-0.406 0.128,-0.392C0.123,-0.376 0.12,-0.352 0.12,-0.319C0.12,-0.287 0.129,-0.261 0.147,-0.242C0.165,-0.223 0.187,-0.213 0.213,-0.213C0.238,-0.213 0.263,-0.222 0.286,-0.241C0.307,-0.258 0.318,-0.278 0.318,-0.301C0.318,-0.319 0.312,-0.337 0.299,-0.355C0.286,-0.372 0.267,-0.387 0.244,-0.399ZM0.127,-0.477C0.152,-0.496 0.183,-0.506 0.221,-0.506C0.244,-0.506 0.264,-0.502 0.279,-0.493C0.298,-0.483 0.32,-0.452 0.345,-0.401C0.37,-0.349 0.383,-0.31 0.383,-0.283C0.383,-0.278 0.383,-0.275 0.382,-0.273C0.373,-0.237 0.353,-0.209 0.322,-0.188C0.291,-0.167 0.256,-0.157 0.218,-0.157C0.163,-0.157 0.12,-0.176 0.088,-0.215C0.065,-0.242 0.053,-0.277 0.053,-0.318C0.053,-0.349 0.059,-0.378 0.073,-0.407C0.086,-0.436 0.104,-0.459 0.127,-0.477Z" style="fill:rgb(17,28,78);fill-rule:nonzero;"/>
        </g>
        <g transform="matrix(50,0,0,50,167.957,656.944)">
            <path class="step4a" d="M0.051,-0.355C0.051,-0.419 0.052,-0.458 0.055,-0.472C0.058,-0.486 0.065,-0.493 0.078,-0.493C0.089,-0.493 0.096,-0.49 0.099,-0.485C0.102,-0.479 0.104,-0.468 0.104,-0.452C0.104,-0.43 0.106,-0.419 0.111,-0.419C0.114,-0.419 0.122,-0.423 0.134,-0.432C0.154,-0.446 0.181,-0.453 0.216,-0.453C0.241,-0.453 0.262,-0.449 0.279,-0.44C0.296,-0.43 0.305,-0.414 0.305,-0.393C0.305,-0.371 0.296,-0.36 0.278,-0.36C0.26,-0.36 0.251,-0.364 0.251,-0.373C0.251,-0.382 0.238,-0.387 0.211,-0.387C0.186,-0.387 0.166,-0.377 0.153,-0.356C0.14,-0.335 0.13,-0.3 0.124,-0.251C0.121,-0.22 0.117,-0.199 0.113,-0.189C0.108,-0.178 0.101,-0.173 0.091,-0.173C0.074,-0.173 0.063,-0.184 0.058,-0.205C0.053,-0.226 0.051,-0.276 0.051,-0.355Z" style="fill:rgb(17,28,78);fill-rule:nonzero;"/>
        </g>
        <g transform="matrix(50,0,0,50,185.757,656.944)">
            <path class="step4a" d="M0.215,-0.407C0.197,-0.419 0.183,-0.425 0.172,-0.425C0.161,-0.425 0.149,-0.418 0.136,-0.404C0.117,-0.382 0.107,-0.347 0.107,-0.299C0.107,-0.273 0.111,-0.25 0.118,-0.229C0.125,-0.208 0.134,-0.196 0.147,-0.191C0.152,-0.19 0.157,-0.189 0.16,-0.189C0.175,-0.189 0.193,-0.196 0.212,-0.209C0.231,-0.222 0.244,-0.238 0.253,-0.257C0.26,-0.272 0.264,-0.288 0.264,-0.305C0.264,-0.35 0.248,-0.384 0.215,-0.407ZM0.281,-0.631C0.286,-0.638 0.298,-0.641 0.315,-0.641C0.322,-0.641 0.326,-0.64 0.327,-0.637C0.327,-0.636 0.327,-0.626 0.328,-0.605C0.329,-0.584 0.33,-0.554 0.331,-0.514C0.332,-0.473 0.334,-0.434 0.335,-0.396C0.337,-0.33 0.338,-0.281 0.338,-0.248C0.338,-0.212 0.337,-0.188 0.334,-0.175C0.331,-0.162 0.327,-0.155 0.32,-0.152C0.315,-0.151 0.31,-0.15 0.305,-0.15C0.294,-0.15 0.286,-0.152 0.281,-0.157C0.276,-0.161 0.271,-0.163 0.265,-0.163C0.259,-0.163 0.251,-0.159 0.24,-0.152C0.223,-0.139 0.2,-0.133 0.173,-0.133C0.135,-0.133 0.105,-0.145 0.084,-0.168C0.07,-0.183 0.061,-0.198 0.058,-0.213C0.054,-0.228 0.052,-0.257 0.052,-0.3C0.052,-0.357 0.059,-0.399 0.075,-0.428C0.09,-0.456 0.115,-0.475 0.151,-0.485C0.163,-0.489 0.173,-0.491 0.181,-0.491C0.195,-0.491 0.212,-0.483 0.232,-0.468L0.272,-0.439L0.272,-0.531C0.272,-0.593 0.275,-0.626 0.281,-0.631Z" style="fill:rgb(17,28,78);fill-rule:nonzero;"/>
        </g>
        <g transform="matrix(50,0,0,50,205.107,656.944)">
            <path class="step4a" d="M0.136,-0.525C0.146,-0.53 0.159,-0.532 0.175,-0.532C0.208,-0.532 0.242,-0.523 0.277,-0.506C0.311,-0.488 0.328,-0.469 0.328,-0.45C0.328,-0.432 0.319,-0.423 0.302,-0.423C0.288,-0.423 0.272,-0.43 0.255,-0.443C0.232,-0.461 0.208,-0.47 0.182,-0.47C0.168,-0.47 0.156,-0.467 0.147,-0.46C0.138,-0.453 0.133,-0.444 0.133,-0.433C0.133,-0.429 0.133,-0.426 0.134,-0.424C0.137,-0.408 0.155,-0.395 0.189,-0.386C0.221,-0.377 0.245,-0.362 0.262,-0.341C0.279,-0.32 0.287,-0.298 0.287,-0.273C0.287,-0.242 0.274,-0.214 0.249,-0.191C0.224,-0.167 0.19,-0.155 0.147,-0.155C0.126,-0.155 0.105,-0.164 0.084,-0.181C0.063,-0.198 0.052,-0.215 0.052,-0.234C0.052,-0.243 0.055,-0.249 0.061,-0.254C0.066,-0.259 0.073,-0.261 0.08,-0.261C0.095,-0.261 0.105,-0.254 0.11,-0.241C0.115,-0.228 0.131,-0.222 0.158,-0.222C0.181,-0.222 0.197,-0.227 0.207,-0.237C0.218,-0.248 0.223,-0.263 0.223,-0.283C0.223,-0.295 0.22,-0.304 0.213,-0.31C0.206,-0.315 0.191,-0.321 0.168,-0.328C0.129,-0.337 0.103,-0.349 0.089,-0.362C0.074,-0.375 0.066,-0.394 0.066,-0.418C0.066,-0.44 0.073,-0.461 0.086,-0.482C0.098,-0.502 0.115,-0.516 0.136,-0.525Z" style="fill:rgb(17,28,78);fill-rule:nonzero;"/>
        </g>
    </g>
    <g transform="matrix(1,0,0,1,384.765,103.558)">
        <g transform="matrix(50,0,0,50,57.5817,656.944)">
            <path class="step4a" d="M0.145,-0.539C0.17,-0.564 0.188,-0.581 0.199,-0.588C0.21,-0.595 0.222,-0.599 0.236,-0.599C0.245,-0.599 0.257,-0.598 0.271,-0.596C0.299,-0.593 0.324,-0.585 0.347,-0.572C0.369,-0.558 0.38,-0.545 0.38,-0.532C0.38,-0.527 0.378,-0.523 0.374,-0.519C0.369,-0.514 0.362,-0.511 0.353,-0.511C0.344,-0.511 0.331,-0.514 0.314,-0.52C0.294,-0.527 0.274,-0.53 0.254,-0.53C0.248,-0.53 0.241,-0.529 0.233,-0.528C0.209,-0.522 0.185,-0.501 0.162,-0.465C0.139,-0.428 0.125,-0.391 0.121,-0.353C0.119,-0.339 0.118,-0.328 0.118,-0.319C0.118,-0.306 0.121,-0.296 0.127,-0.287C0.132,-0.278 0.144,-0.264 0.161,-0.247C0.192,-0.216 0.221,-0.201 0.25,-0.201C0.271,-0.201 0.293,-0.208 0.318,-0.223C0.335,-0.234 0.347,-0.239 0.354,-0.239C0.359,-0.239 0.365,-0.235 0.37,-0.227C0.373,-0.222 0.374,-0.218 0.374,-0.213C0.374,-0.203 0.366,-0.191 0.35,-0.177C0.321,-0.151 0.288,-0.138 0.25,-0.138C0.216,-0.138 0.184,-0.149 0.153,-0.17C0.122,-0.191 0.097,-0.22 0.078,-0.257C0.061,-0.292 0.053,-0.318 0.053,-0.334C0.053,-0.344 0.056,-0.365 0.063,-0.397C0.07,-0.428 0.078,-0.452 0.089,-0.471C0.1,-0.49 0.118,-0.512 0.145,-0.539Z" style="fill:rgb(17,28,78);fill-rule:nonzero;"/>
        </g>
        <g transform="matrix(50,0,0,50,79.2817,656.944)">
            <path class="step4a" d="M0.244,-0.399C0.224,-0.408 0.203,-0.413 0.181,-0.413C0.151,-0.413 0.133,-0.406 0.128,-0.392C0.123,-0.376 0.12,-0.352 0.12,-0.319C0.12,-0.287 0.129,-0.261 0.147,-0.242C0.165,-0.223 0.187,-0.213 0.213,-0.213C0.238,-0.213 0.263,-0.222 0.286,-0.241C0.307,-0.258 0.318,-0.278 0.318,-0.301C0.318,-0.319 0.312,-0.337 0.299,-0.355C0.286,-0.372 0.267,-0.387 0.244,-0.399ZM0.127,-0.477C0.152,-0.496 0.183,-0.506 0.221,-0.506C0.244,-0.506 0.264,-0.502 0.279,-0.493C0.298,-0.483 0.32,-0.452 0.345,-0.401C0.37,-0.349 0.383,-0.31 0.383,-0.283C0.383,-0.278 0.383,-0.275 0.382,-0.273C0.373,-0.237 0.353,-0.209 0.322,-0.188C0.291,-0.167 0.256,-0.157 0.218,-0.157C0.163,-0.157 0.12,-0.176 0.088,-0.215C0.065,-0.242 0.053,-0.277 0.053,-0.318C0.053,-0.349 0.059,-0.378 0.073,-0.407C0.086,-0.436 0.104,-0.459 0.127,-0.477Z" style="fill:rgb(17,28,78);fill-rule:nonzero;"/>
        </g>
        <g transform="matrix(50,0,0,50,101.032,656.944)">
            <path class="step4a" d="M0.052,-0.397L0.052,-0.425C0.052,-0.455 0.054,-0.474 0.057,-0.482C0.059,-0.489 0.066,-0.493 0.076,-0.493C0.083,-0.493 0.091,-0.491 0.098,-0.486C0.105,-0.481 0.109,-0.474 0.111,-0.467C0.115,-0.454 0.119,-0.447 0.124,-0.447C0.129,-0.447 0.137,-0.451 0.148,-0.46C0.165,-0.472 0.183,-0.478 0.204,-0.478C0.241,-0.478 0.273,-0.459 0.302,-0.421C0.33,-0.383 0.344,-0.337 0.344,-0.283C0.344,-0.21 0.33,-0.173 0.303,-0.173C0.292,-0.173 0.285,-0.178 0.282,-0.187C0.279,-0.196 0.278,-0.218 0.278,-0.253C0.278,-0.299 0.272,-0.337 0.259,-0.368C0.246,-0.398 0.231,-0.413 0.212,-0.413C0.193,-0.413 0.178,-0.404 0.168,-0.385C0.158,-0.366 0.149,-0.33 0.14,-0.277C0.133,-0.236 0.127,-0.209 0.122,-0.198C0.117,-0.186 0.109,-0.18 0.098,-0.18C0.068,-0.18 0.053,-0.252 0.052,-0.397Z" style="fill:rgb(17,28,78);fill-rule:nonzero;"/>
        </g>
        <g transform="matrix(50,0,0,50,120.782,656.944)">
            <path class="step4a" d="M0.164,-0.608C0.169,-0.613 0.179,-0.614 0.194,-0.613C0.207,-0.61 0.215,-0.588 0.218,-0.547C0.22,-0.519 0.223,-0.502 0.227,-0.495C0.231,-0.488 0.241,-0.484 0.257,-0.482C0.281,-0.479 0.293,-0.469 0.293,-0.451C0.293,-0.441 0.29,-0.434 0.284,-0.43C0.277,-0.425 0.265,-0.422 0.248,-0.421L0.203,-0.417L0.212,-0.318C0.217,-0.253 0.224,-0.212 0.233,-0.195C0.242,-0.178 0.253,-0.17 0.266,-0.17C0.279,-0.17 0.29,-0.178 0.299,-0.195C0.308,-0.212 0.319,-0.221 0.331,-0.221C0.345,-0.221 0.352,-0.211 0.352,-0.191C0.352,-0.17 0.343,-0.151 0.324,-0.135C0.305,-0.118 0.284,-0.11 0.261,-0.11C0.25,-0.11 0.239,-0.112 0.23,-0.117C0.206,-0.128 0.189,-0.146 0.179,-0.171C0.169,-0.196 0.161,-0.24 0.155,-0.303C0.146,-0.382 0.141,-0.423 0.139,-0.425C0.138,-0.425 0.136,-0.426 0.132,-0.428C0.127,-0.429 0.122,-0.431 0.115,-0.434C0.108,-0.437 0.102,-0.439 0.095,-0.441C0.069,-0.449 0.056,-0.459 0.056,-0.471C0.056,-0.484 0.073,-0.492 0.106,-0.495C0.129,-0.497 0.143,-0.501 0.148,-0.506C0.153,-0.511 0.155,-0.526 0.155,-0.549C0.155,-0.582 0.158,-0.602 0.164,-0.608Z" style="fill:rgb(17,28,78);fill-rule:nonzero;"/>
        </g>
        <g transform="matrix(50,0,0,50,141.082,656.944)">
            <path class="step4a" d="M0.178,-0.336C0.18,-0.335 0.183,-0.335 0.186,-0.335C0.198,-0.335 0.209,-0.339 0.219,-0.349C0.228,-0.358 0.233,-0.368 0.233,-0.38C0.233,-0.385 0.231,-0.392 0.228,-0.4C0.222,-0.413 0.216,-0.419 0.21,-0.419C0.205,-0.419 0.196,-0.416 0.183,-0.409C0.161,-0.398 0.15,-0.383 0.15,-0.364C0.15,-0.347 0.159,-0.338 0.178,-0.336ZM0.1,-0.427C0.136,-0.462 0.168,-0.48 0.197,-0.48C0.215,-0.48 0.235,-0.473 0.256,-0.459C0.279,-0.444 0.291,-0.417 0.291,-0.378C0.291,-0.361 0.288,-0.344 0.282,-0.327C0.277,-0.314 0.262,-0.301 0.237,-0.288C0.212,-0.274 0.189,-0.267 0.17,-0.267C0.157,-0.267 0.15,-0.265 0.15,-0.26C0.15,-0.257 0.153,-0.25 0.158,-0.239C0.163,-0.23 0.167,-0.225 0.171,-0.222C0.174,-0.219 0.18,-0.217 0.189,-0.217C0.202,-0.217 0.232,-0.223 0.28,-0.235C0.289,-0.237 0.296,-0.238 0.301,-0.238C0.311,-0.238 0.316,-0.23 0.316,-0.215C0.316,-0.188 0.28,-0.166 0.208,-0.151C0.206,-0.15 0.203,-0.15 0.198,-0.15C0.173,-0.15 0.149,-0.162 0.125,-0.185C0.101,-0.208 0.087,-0.235 0.083,-0.264C0.076,-0.299 0.069,-0.325 0.06,-0.343C0.056,-0.351 0.054,-0.358 0.054,-0.364C0.054,-0.375 0.069,-0.396 0.1,-0.427Z" style="fill:rgb(17,28,78);fill-rule:nonzero;"/>
        </g>
        <g transform="matrix(50,0,0,50,159.582,656.944)">
            <path class="step4a" d="M0.052,-0.397L0.052,-0.425C0.052,-0.455 0.054,-0.474 0.057,-0.482C0.059,-0.489 0.066,-0.493 0.076,-0.493C0.083,-0.493 0.091,-0.491 0.098,-0.486C0.105,-0.481 0.109,-0.474 0.111,-0.467C0.115,-0.454 0.119,-0.447 0.124,-0.447C0.129,-0.447 0.137,-0.451 0.148,-0.46C0.165,-0.472 0.183,-0.478 0.204,-0.478C0.241,-0.478 0.273,-0.459 0.302,-0.421C0.33,-0.383 0.344,-0.337 0.344,-0.283C0.344,-0.21 0.33,-0.173 0.303,-0.173C0.292,-0.173 0.285,-0.178 0.282,-0.187C0.279,-0.196 0.278,-0.218 0.278,-0.253C0.278,-0.299 0.272,-0.337 0.259,-0.368C0.246,-0.398 0.231,-0.413 0.212,-0.413C0.193,-0.413 0.178,-0.404 0.168,-0.385C0.158,-0.366 0.149,-0.33 0.14,-0.277C0.133,-0.236 0.127,-0.209 0.122,-0.198C0.117,-0.186 0.109,-0.18 0.098,-0.18C0.068,-0.18 0.053,-0.252 0.052,-0.397Z" style="fill:rgb(17,28,78);fill-rule:nonzero;"/>
        </g>
        <g transform="matrix(50,0,0,50,179.332,656.944)">
            <path class="step4a" d="M0.061,-0.633C0.071,-0.646 0.084,-0.652 0.1,-0.652C0.101,-0.652 0.102,-0.652 0.103,-0.652C0.104,-0.651 0.105,-0.651 0.106,-0.651C0.117,-0.65 0.124,-0.646 0.128,-0.64C0.132,-0.633 0.134,-0.622 0.134,-0.607C0.134,-0.59 0.132,-0.58 0.128,-0.575C0.124,-0.57 0.115,-0.567 0.102,-0.567C0.087,-0.567 0.075,-0.571 0.066,-0.58C0.056,-0.588 0.051,-0.597 0.051,-0.608C0.051,-0.617 0.054,-0.626 0.061,-0.633ZM0.067,-0.491C0.07,-0.5 0.078,-0.505 0.091,-0.505C0.092,-0.505 0.093,-0.505 0.094,-0.505C0.095,-0.504 0.096,-0.504 0.097,-0.504C0.108,-0.502 0.114,-0.493 0.117,-0.476C0.12,-0.459 0.121,-0.418 0.121,-0.353C0.121,-0.285 0.12,-0.244 0.117,-0.229C0.114,-0.214 0.107,-0.207 0.094,-0.207C0.082,-0.207 0.074,-0.214 0.071,-0.228C0.068,-0.242 0.065,-0.279 0.063,-0.339L0.063,-0.389C0.063,-0.45 0.064,-0.484 0.067,-0.491Z" style="fill:rgb(17,28,78);fill-rule:nonzero;"/>
        </g>
        <g transform="matrix(50,0,0,50,188.532,656.944)">
            <path class="step4a" d="M0.215,-0.407C0.197,-0.419 0.183,-0.425 0.172,-0.425C0.161,-0.425 0.149,-0.418 0.136,-0.404C0.117,-0.382 0.107,-0.347 0.107,-0.299C0.107,-0.273 0.111,-0.25 0.118,-0.229C0.125,-0.208 0.134,-0.196 0.147,-0.191C0.152,-0.19 0.157,-0.189 0.16,-0.189C0.175,-0.189 0.193,-0.196 0.212,-0.209C0.231,-0.222 0.244,-0.238 0.253,-0.257C0.26,-0.272 0.264,-0.288 0.264,-0.305C0.264,-0.35 0.248,-0.384 0.215,-0.407ZM0.281,-0.631C0.286,-0.638 0.298,-0.641 0.315,-0.641C0.322,-0.641 0.326,-0.64 0.327,-0.637C0.327,-0.636 0.327,-0.626 0.328,-0.605C0.329,-0.584 0.33,-0.554 0.331,-0.514C0.332,-0.473 0.334,-0.434 0.335,-0.396C0.337,-0.33 0.338,-0.281 0.338,-0.248C0.338,-0.212 0.337,-0.188 0.334,-0.175C0.331,-0.162 0.327,-0.155 0.32,-0.152C0.315,-0.151 0.31,-0.15 0.305,-0.15C0.294,-0.15 0.286,-0.152 0.281,-0.157C0.276,-0.161 0.271,-0.163 0.265,-0.163C0.259,-0.163 0.251,-0.159 0.24,-0.152C0.223,-0.139 0.2,-0.133 0.173,-0.133C0.135,-0.133 0.105,-0.145 0.084,-0.168C0.07,-0.183 0.061,-0.198 0.058,-0.213C0.054,-0.228 0.052,-0.257 0.052,-0.3C0.052,-0.357 0.059,-0.399 0.075,-0.428C0.09,-0.456 0.115,-0.475 0.151,-0.485C0.163,-0.489 0.173,-0.491 0.181,-0.491C0.195,-0.491 0.212,-0.483 0.232,-0.468L0.272,-0.439L0.272,-0.531C0.272,-0.593 0.275,-0.626 0.281,-0.631Z" style="fill:rgb(17,28,78);fill-rule:nonzero;"/>
        </g>
        <g transform="matrix(50,0,0,50,207.882,656.944)">
            <path class="step4a" d="M0.244,-0.399C0.224,-0.408 0.203,-0.413 0.181,-0.413C0.151,-0.413 0.133,-0.406 0.128,-0.392C0.123,-0.376 0.12,-0.352 0.12,-0.319C0.12,-0.287 0.129,-0.261 0.147,-0.242C0.165,-0.223 0.187,-0.213 0.213,-0.213C0.238,-0.213 0.263,-0.222 0.286,-0.241C0.307,-0.258 0.318,-0.278 0.318,-0.301C0.318,-0.319 0.312,-0.337 0.299,-0.355C0.286,-0.372 0.267,-0.387 0.244,-0.399ZM0.127,-0.477C0.152,-0.496 0.183,-0.506 0.221,-0.506C0.244,-0.506 0.264,-0.502 0.279,-0.493C0.298,-0.483 0.32,-0.452 0.345,-0.401C0.37,-0.349 0.383,-0.31 0.383,-0.283C0.383,-0.278 0.383,-0.275 0.382,-0.273C0.373,-0.237 0.353,-0.209 0.322,-0.188C0.291,-0.167 0.256,-0.157 0.218,-0.157C0.163,-0.157 0.12,-0.176 0.088,-0.215C0.065,-0.242 0.053,-0.277 0.053,-0.318C0.053,-0.349 0.059,-0.378 0.073,-0.407C0.086,-0.436 0.104,-0.459 0.127,-0.477Z" style="fill:rgb(17,28,78);fill-rule:nonzero;"/>
        </g>
    </g>
    <g transform="matrix(1,0,0,1,24.04,42.9246)">
        <g transform="matrix(50,0,0,50,104.557,656.944)">
            <path class="step4a" d="M0.06,-0.611C0.064,-0.62 0.078,-0.625 0.101,-0.625C0.121,-0.625 0.146,-0.624 0.175,-0.621C0.249,-0.615 0.29,-0.608 0.297,-0.601C0.302,-0.596 0.305,-0.591 0.305,-0.585C0.305,-0.576 0.3,-0.568 0.29,-0.561C0.279,-0.554 0.267,-0.55 0.252,-0.55L0.212,-0.55L0.212,-0.367C0.212,-0.293 0.21,-0.242 0.207,-0.214C0.204,-0.185 0.197,-0.171 0.187,-0.171C0.182,-0.171 0.175,-0.175 0.165,-0.183C0.155,-0.191 0.15,-0.203 0.15,-0.219C0.15,-0.227 0.151,-0.236 0.153,-0.246C0.155,-0.258 0.156,-0.28 0.156,-0.313C0.156,-0.35 0.155,-0.388 0.153,-0.428L0.144,-0.563L0.106,-0.563C0.073,-0.563 0.056,-0.573 0.056,-0.594C0.056,-0.6 0.057,-0.606 0.06,-0.611Z" style="fill:rgb(17,28,78);fill-rule:nonzero;"/>
        </g>
        <g transform="matrix(50,0,0,50,122.557,656.944)">
            <path class="step4a" d="M0.28,-0.408C0.266,-0.424 0.247,-0.432 0.222,-0.432C0.197,-0.432 0.176,-0.424 0.159,-0.407C0.146,-0.394 0.134,-0.373 0.124,-0.344C0.114,-0.315 0.109,-0.29 0.109,-0.268C0.109,-0.26 0.11,-0.253 0.112,-0.247C0.117,-0.23 0.133,-0.221 0.159,-0.221C0.176,-0.221 0.194,-0.226 0.212,-0.236C0.229,-0.245 0.248,-0.272 0.269,-0.317C0.285,-0.352 0.293,-0.374 0.293,-0.383C0.293,-0.391 0.289,-0.399 0.28,-0.408ZM0.163,-0.479C0.19,-0.49 0.209,-0.496 0.222,-0.496C0.234,-0.496 0.254,-0.49 0.283,-0.479C0.314,-0.466 0.335,-0.445 0.347,-0.416C0.359,-0.386 0.366,-0.336 0.369,-0.267C0.37,-0.223 0.371,-0.199 0.371,-0.194C0.371,-0.174 0.37,-0.162 0.367,-0.157C0.364,-0.152 0.357,-0.149 0.348,-0.149C0.337,-0.149 0.33,-0.152 0.326,-0.159C0.322,-0.166 0.319,-0.18 0.316,-0.201C0.312,-0.228 0.308,-0.242 0.305,-0.242C0.304,-0.242 0.3,-0.237 0.293,-0.226C0.283,-0.208 0.263,-0.192 0.233,-0.177C0.202,-0.162 0.174,-0.155 0.148,-0.155C0.122,-0.155 0.099,-0.166 0.08,-0.187C0.069,-0.198 0.062,-0.209 0.059,-0.218C0.055,-0.227 0.053,-0.24 0.053,-0.257C0.053,-0.262 0.054,-0.276 0.055,-0.297C0.062,-0.39 0.098,-0.45 0.163,-0.479Z" style="fill:rgb(17,28,78);fill-rule:nonzero;"/>
        </g>
        <g transform="matrix(50,0,0,50,143.707,656.944)">
            <path class="step4a" d="M0.262,-0.444C0.248,-0.458 0.233,-0.465 0.217,-0.465C0.196,-0.465 0.175,-0.454 0.154,-0.433C0.142,-0.421 0.134,-0.41 0.13,-0.401C0.125,-0.391 0.123,-0.378 0.123,-0.361C0.123,-0.351 0.123,-0.343 0.124,-0.336C0.126,-0.308 0.129,-0.29 0.134,-0.283C0.138,-0.276 0.148,-0.271 0.163,-0.269L0.171,-0.269C0.198,-0.269 0.223,-0.283 0.246,-0.311C0.269,-0.338 0.28,-0.367 0.28,-0.396C0.28,-0.416 0.274,-0.432 0.262,-0.444ZM0.079,-0.433C0.097,-0.468 0.121,-0.493 0.15,-0.509C0.179,-0.525 0.2,-0.533 0.211,-0.533C0.225,-0.533 0.243,-0.528 0.264,-0.518C0.285,-0.507 0.304,-0.495 0.319,-0.481C0.332,-0.468 0.341,-0.452 0.344,-0.436C0.347,-0.419 0.348,-0.379 0.348,-0.316C0.347,-0.231 0.34,-0.165 0.326,-0.119C0.312,-0.072 0.289,-0.038 0.256,-0.017C0.228,0.002 0.198,0.012 0.165,0.012C0.136,0.012 0.112,0.004 0.094,-0.011C0.079,-0.024 0.071,-0.038 0.071,-0.054C0.071,-0.069 0.078,-0.076 0.091,-0.076C0.093,-0.076 0.098,-0.075 0.106,-0.072C0.124,-0.064 0.143,-0.06 0.163,-0.06C0.2,-0.06 0.227,-0.072 0.244,-0.095C0.253,-0.107 0.262,-0.128 0.271,-0.158C0.28,-0.188 0.284,-0.211 0.284,-0.227C0.284,-0.236 0.282,-0.24 0.279,-0.24C0.272,-0.24 0.254,-0.233 0.224,-0.22C0.193,-0.207 0.169,-0.201 0.152,-0.201C0.13,-0.201 0.109,-0.212 0.088,-0.233C0.065,-0.256 0.053,-0.288 0.053,-0.329C0.053,-0.364 0.062,-0.399 0.079,-0.433Z" style="fill:rgb(17,28,78);fill-rule:nonzero;"/>
        </g>
        <g transform="matrix(50,0,0,50,163.607,656.944)">
            <path class="step4a" d="M0.136,-0.525C0.146,-0.53 0.159,-0.532 0.175,-0.532C0.208,-0.532 0.242,-0.523 0.277,-0.506C0.311,-0.488 0.328,-0.469 0.328,-0.45C0.328,-0.432 0.319,-0.423 0.302,-0.423C0.288,-0.423 0.272,-0.43 0.255,-0.443C0.232,-0.461 0.208,-0.47 0.182,-0.47C0.168,-0.47 0.156,-0.467 0.147,-0.46C0.138,-0.453 0.133,-0.444 0.133,-0.433C0.133,-0.429 0.133,-0.426 0.134,-0.424C0.137,-0.408 0.155,-0.395 0.189,-0.386C0.221,-0.377 0.245,-0.362 0.262,-0.341C0.279,-0.32 0.287,-0.298 0.287,-0.273C0.287,-0.242 0.274,-0.214 0.249,-0.191C0.224,-0.167 0.19,-0.155 0.147,-0.155C0.126,-0.155 0.105,-0.164 0.084,-0.181C0.063,-0.198 0.052,-0.215 0.052,-0.234C0.052,-0.243 0.055,-0.249 0.061,-0.254C0.066,-0.259 0.073,-0.261 0.08,-0.261C0.095,-0.261 0.105,-0.254 0.11,-0.241C0.115,-0.228 0.131,-0.222 0.158,-0.222C0.181,-0.222 0.197,-0.227 0.207,-0.237C0.218,-0.248 0.223,-0.263 0.223,-0.283C0.223,-0.295 0.22,-0.304 0.213,-0.31C0.206,-0.315 0.191,-0.321 0.168,-0.328C0.129,-0.337 0.103,-0.349 0.089,-0.362C0.074,-0.375 0.066,-0.394 0.066,-0.418C0.066,-0.44 0.073,-0.461 0.086,-0.482C0.098,-0.502 0.115,-0.516 0.136,-0.525Z" style="fill:rgb(17,28,78);fill-rule:nonzero;"/>
        </g>
    </g>
    <g transform="matrix(1,0,0,1,171.819,100.645)">
        <g transform="matrix(50,0,0,50,99.2317,656.944)">
            <path class="step4a" d="M0.273,-0.324C0.273,-0.337 0.268,-0.348 0.259,-0.357C0.25,-0.366 0.229,-0.371 0.198,-0.371C0.177,-0.371 0.157,-0.369 0.139,-0.364C0.13,-0.362 0.123,-0.356 0.12,-0.347C0.117,-0.338 0.115,-0.322 0.115,-0.299C0.115,-0.27 0.117,-0.253 0.121,-0.248C0.125,-0.243 0.138,-0.24 0.16,-0.24C0.19,-0.24 0.216,-0.249 0.239,-0.267C0.262,-0.284 0.273,-0.303 0.273,-0.324ZM0.222,-0.527C0.197,-0.54 0.172,-0.547 0.148,-0.547C0.133,-0.547 0.123,-0.544 0.12,-0.539C0.117,-0.533 0.115,-0.518 0.115,-0.493C0.115,-0.468 0.117,-0.452 0.121,-0.448C0.125,-0.443 0.136,-0.44 0.155,-0.44C0.18,-0.44 0.204,-0.445 0.227,-0.456C0.25,-0.466 0.262,-0.477 0.262,-0.488C0.262,-0.5 0.249,-0.513 0.222,-0.527ZM0.058,-0.604C0.064,-0.61 0.079,-0.613 0.103,-0.613C0.145,-0.613 0.184,-0.606 0.219,-0.593C0.291,-0.562 0.327,-0.526 0.327,-0.483C0.327,-0.469 0.323,-0.454 0.315,-0.439C0.31,-0.432 0.308,-0.424 0.308,-0.417C0.308,-0.408 0.313,-0.397 0.322,-0.384C0.335,-0.365 0.342,-0.344 0.342,-0.322C0.342,-0.295 0.332,-0.27 0.313,-0.247C0.293,-0.224 0.266,-0.206 0.231,-0.193C0.198,-0.181 0.166,-0.175 0.134,-0.175C0.132,-0.175 0.121,-0.176 0.12,-0.176C0.097,-0.178 0.083,-0.182 0.076,-0.187C0.069,-0.192 0.063,-0.203 0.06,-0.22C0.053,-0.253 0.05,-0.33 0.05,-0.45C0.05,-0.548 0.053,-0.599 0.058,-0.604Z" style="fill:rgb(17,28,78);fill-rule:nonzero;"/>
        </g>
        <g transform="matrix(50,0,0,50,118.932,656.944)">
            <path class="step4a" d="M0.053,-0.222C0.051,-0.246 0.05,-0.316 0.05,-0.433C0.05,-0.55 0.051,-0.62 0.054,-0.644C0.056,-0.668 0.063,-0.68 0.075,-0.68C0.085,-0.68 0.092,-0.675 0.097,-0.665C0.101,-0.654 0.105,-0.632 0.109,-0.599C0.114,-0.539 0.117,-0.484 0.117,-0.433C0.117,-0.383 0.114,-0.328 0.109,-0.268C0.105,-0.235 0.101,-0.213 0.097,-0.203C0.092,-0.192 0.085,-0.187 0.075,-0.187C0.063,-0.187 0.056,-0.199 0.053,-0.222Z" style="fill:rgb(17,28,78);fill-rule:nonzero;"/>
        </g>
        <g transform="matrix(50,0,0,50,127.282,656.944)">
            <path class="step4a" d="M0.244,-0.399C0.224,-0.408 0.203,-0.413 0.181,-0.413C0.151,-0.413 0.133,-0.406 0.128,-0.392C0.123,-0.376 0.12,-0.352 0.12,-0.319C0.12,-0.287 0.129,-0.261 0.147,-0.242C0.165,-0.223 0.187,-0.213 0.213,-0.213C0.238,-0.213 0.263,-0.222 0.286,-0.241C0.307,-0.258 0.318,-0.278 0.318,-0.301C0.318,-0.319 0.312,-0.337 0.299,-0.355C0.286,-0.372 0.267,-0.387 0.244,-0.399ZM0.127,-0.477C0.152,-0.496 0.183,-0.506 0.221,-0.506C0.244,-0.506 0.264,-0.502 0.279,-0.493C0.298,-0.483 0.32,-0.452 0.345,-0.401C0.37,-0.349 0.383,-0.31 0.383,-0.283C0.383,-0.278 0.383,-0.275 0.382,-0.273C0.373,-0.237 0.353,-0.209 0.322,-0.188C0.291,-0.167 0.256,-0.157 0.218,-0.157C0.163,-0.157 0.12,-0.176 0.088,-0.215C0.065,-0.242 0.053,-0.277 0.053,-0.318C0.053,-0.349 0.059,-0.378 0.073,-0.407C0.086,-0.436 0.104,-0.459 0.127,-0.477Z" style="fill:rgb(17,28,78);fill-rule:nonzero;"/>
        </g>
        <g transform="matrix(50,0,0,50,149.032,656.944)">
            <path class="step4a" d="M0.262,-0.444C0.248,-0.458 0.233,-0.465 0.217,-0.465C0.196,-0.465 0.175,-0.454 0.154,-0.433C0.142,-0.421 0.134,-0.41 0.13,-0.401C0.125,-0.391 0.123,-0.378 0.123,-0.361C0.123,-0.351 0.123,-0.343 0.124,-0.336C0.126,-0.308 0.129,-0.29 0.134,-0.283C0.138,-0.276 0.148,-0.271 0.163,-0.269L0.171,-0.269C0.198,-0.269 0.223,-0.283 0.246,-0.311C0.269,-0.338 0.28,-0.367 0.28,-0.396C0.28,-0.416 0.274,-0.432 0.262,-0.444ZM0.079,-0.433C0.097,-0.468 0.121,-0.493 0.15,-0.509C0.179,-0.525 0.2,-0.533 0.211,-0.533C0.225,-0.533 0.243,-0.528 0.264,-0.518C0.285,-0.507 0.304,-0.495 0.319,-0.481C0.332,-0.468 0.341,-0.452 0.344,-0.436C0.347,-0.419 0.348,-0.379 0.348,-0.316C0.347,-0.231 0.34,-0.165 0.326,-0.119C0.312,-0.072 0.289,-0.038 0.256,-0.017C0.228,0.002 0.198,0.012 0.165,0.012C0.136,0.012 0.112,0.004 0.094,-0.011C0.079,-0.024 0.071,-0.038 0.071,-0.054C0.071,-0.069 0.078,-0.076 0.091,-0.076C0.093,-0.076 0.098,-0.075 0.106,-0.072C0.124,-0.064 0.143,-0.06 0.163,-0.06C0.2,-0.06 0.227,-0.072 0.244,-0.095C0.253,-0.107 0.262,-0.128 0.271,-0.158C0.28,-0.188 0.284,-0.211 0.284,-0.227C0.284,-0.236 0.282,-0.24 0.279,-0.24C0.272,-0.24 0.254,-0.233 0.224,-0.22C0.193,-0.207 0.169,-0.201 0.152,-0.201C0.13,-0.201 0.109,-0.212 0.088,-0.233C0.065,-0.256 0.053,-0.288 0.053,-0.329C0.053,-0.364 0.062,-0.399 0.079,-0.433Z" style="fill:rgb(17,28,78);fill-rule:nonzero;"/>
        </g>
        <g transform="matrix(50,0,0,50,168.932,656.944)">
            <path class="step4a" d="M0.136,-0.525C0.146,-0.53 0.159,-0.532 0.175,-0.532C0.208,-0.532 0.242,-0.523 0.277,-0.506C0.311,-0.488 0.328,-0.469 0.328,-0.45C0.328,-0.432 0.319,-0.423 0.302,-0.423C0.288,-0.423 0.272,-0.43 0.255,-0.443C0.232,-0.461 0.208,-0.47 0.182,-0.47C0.168,-0.47 0.156,-0.467 0.147,-0.46C0.138,-0.453 0.133,-0.444 0.133,-0.433C0.133,-0.429 0.133,-0.426 0.134,-0.424C0.137,-0.408 0.155,-0.395 0.189,-0.386C0.221,-0.377 0.245,-0.362 0.262,-0.341C0.279,-0.32 0.287,-0.298 0.287,-0.273C0.287,-0.242 0.274,-0.214 0.249,-0.191C0.224,-0.167 0.19,-0.155 0.147,-0.155C0.126,-0.155 0.105,-0.164 0.084,-0.181C0.063,-0.198 0.052,-0.215 0.052,-0.234C0.052,-0.243 0.055,-0.249 0.061,-0.254C0.066,-0.259 0.073,-0.261 0.08,-0.261C0.095,-0.261 0.105,-0.254 0.11,-0.241C0.115,-0.228 0.131,-0.222 0.158,-0.222C0.181,-0.222 0.197,-0.227 0.207,-0.237C0.218,-0.248 0.223,-0.263 0.223,-0.283C0.223,-0.295 0.22,-0.304 0.213,-0.31C0.206,-0.315 0.191,-0.321 0.168,-0.328C0.129,-0.337 0.103,-0.349 0.089,-0.362C0.074,-0.375 0.066,-0.394 0.066,-0.418C0.066,-0.44 0.073,-0.461 0.086,-0.482C0.098,-0.502 0.115,-0.516 0.136,-0.525Z" style="fill:rgb(17,28,78);fill-rule:nonzero;"/>
        </g>
    </g>
    <g transform="matrix(1,0,0,1,498.995,28.6496)">
        <g transform="matrix(50,0,0,50,101.257,656.944)">
            <path class="step4a" d="M0.06,-0.615C0.064,-0.623 0.073,-0.627 0.087,-0.627C0.1,-0.627 0.106,-0.624 0.106,-0.617C0.106,-0.615 0.106,-0.604 0.107,-0.585C0.107,-0.565 0.107,-0.536 0.108,-0.499C0.108,-0.461 0.108,-0.425 0.108,-0.392L0.111,-0.179L0.19,-0.196C0.233,-0.206 0.266,-0.211 0.289,-0.211C0.322,-0.211 0.339,-0.201 0.339,-0.18C0.339,-0.169 0.334,-0.161 0.325,-0.157C0.315,-0.152 0.293,-0.148 0.258,-0.144C0.208,-0.139 0.164,-0.13 0.126,-0.115C0.107,-0.106 0.09,-0.101 0.076,-0.101C0.069,-0.101 0.065,-0.102 0.062,-0.105C0.054,-0.113 0.05,-0.205 0.05,-0.381C0.05,-0.526 0.053,-0.604 0.06,-0.615Z" style="fill:rgb(17,28,78);fill-rule:nonzero;"/>
        </g>
        <g transform="matrix(50,0,0,50,120.957,656.944)">
            <path class="step4a" d="M0.061,-0.633C0.071,-0.646 0.084,-0.652 0.1,-0.652C0.101,-0.652 0.102,-0.652 0.103,-0.652C0.104,-0.651 0.105,-0.651 0.106,-0.651C0.117,-0.65 0.124,-0.646 0.128,-0.64C0.132,-0.633 0.134,-0.622 0.134,-0.607C0.134,-0.59 0.132,-0.58 0.128,-0.575C0.124,-0.57 0.115,-0.567 0.102,-0.567C0.087,-0.567 0.075,-0.571 0.066,-0.58C0.056,-0.588 0.051,-0.597 0.051,-0.608C0.051,-0.617 0.054,-0.626 0.061,-0.633ZM0.067,-0.491C0.07,-0.5 0.078,-0.505 0.091,-0.505C0.092,-0.505 0.093,-0.505 0.094,-0.505C0.095,-0.504 0.096,-0.504 0.097,-0.504C0.108,-0.502 0.114,-0.493 0.117,-0.476C0.12,-0.459 0.121,-0.418 0.121,-0.353C0.121,-0.285 0.12,-0.244 0.117,-0.229C0.114,-0.214 0.107,-0.207 0.094,-0.207C0.082,-0.207 0.074,-0.214 0.071,-0.228C0.068,-0.242 0.065,-0.279 0.063,-0.339L0.063,-0.389C0.063,-0.45 0.064,-0.484 0.067,-0.491Z" style="fill:rgb(17,28,78);fill-rule:nonzero;"/>
        </g>
        <g transform="matrix(50,0,0,50,130.157,656.944)">
            <path class="step4a" d="M0.052,-0.397L0.052,-0.425C0.052,-0.455 0.054,-0.474 0.057,-0.482C0.059,-0.489 0.066,-0.493 0.076,-0.493C0.083,-0.493 0.091,-0.491 0.098,-0.486C0.105,-0.481 0.109,-0.474 0.111,-0.467C0.115,-0.454 0.119,-0.447 0.124,-0.447C0.129,-0.447 0.137,-0.451 0.148,-0.46C0.165,-0.472 0.183,-0.478 0.204,-0.478C0.241,-0.478 0.273,-0.459 0.302,-0.421C0.33,-0.383 0.344,-0.337 0.344,-0.283C0.344,-0.21 0.33,-0.173 0.303,-0.173C0.292,-0.173 0.285,-0.178 0.282,-0.187C0.279,-0.196 0.278,-0.218 0.278,-0.253C0.278,-0.299 0.272,-0.337 0.259,-0.368C0.246,-0.398 0.231,-0.413 0.212,-0.413C0.193,-0.413 0.178,-0.404 0.168,-0.385C0.158,-0.366 0.149,-0.33 0.14,-0.277C0.133,-0.236 0.127,-0.209 0.122,-0.198C0.117,-0.186 0.109,-0.18 0.098,-0.18C0.068,-0.18 0.053,-0.252 0.052,-0.397Z" style="fill:rgb(17,28,78);fill-rule:nonzero;"/>
        </g>
        <g transform="matrix(50,0,0,50,149.907,656.944)">
            <path class="step4a" d="M0.057,-0.633C0.061,-0.646 0.07,-0.652 0.083,-0.652C0.084,-0.652 0.085,-0.652 0.086,-0.652C0.087,-0.651 0.087,-0.651 0.088,-0.651C0.098,-0.649 0.105,-0.639 0.109,-0.622C0.113,-0.604 0.116,-0.566 0.119,-0.508L0.125,-0.371L0.191,-0.432C0.235,-0.472 0.262,-0.492 0.271,-0.492C0.274,-0.492 0.277,-0.491 0.281,-0.488C0.285,-0.485 0.287,-0.481 0.287,-0.477C0.287,-0.462 0.268,-0.436 0.231,-0.399L0.167,-0.333L0.195,-0.304C0.215,-0.282 0.234,-0.255 0.252,-0.224C0.27,-0.193 0.279,-0.17 0.279,-0.157C0.279,-0.141 0.272,-0.133 0.259,-0.133C0.25,-0.133 0.242,-0.137 0.233,-0.144C0.224,-0.151 0.217,-0.16 0.212,-0.172C0.203,-0.195 0.185,-0.22 0.157,-0.248L0.119,-0.285L0.119,-0.239C0.119,-0.214 0.115,-0.194 0.106,-0.177C0.097,-0.16 0.088,-0.151 0.077,-0.151C0.072,-0.151 0.067,-0.153 0.064,-0.156C0.054,-0.164 0.049,-0.186 0.049,-0.223C0.049,-0.231 0.05,-0.26 0.053,-0.309C0.056,-0.348 0.057,-0.395 0.057,-0.45C0.057,-0.49 0.056,-0.516 0.055,-0.529C0.054,-0.556 0.053,-0.575 0.053,-0.586C0.053,-0.611 0.054,-0.627 0.057,-0.633Z" style="fill:rgb(17,28,78);fill-rule:nonzero;"/>
        </g>
        <g transform="matrix(50,0,0,50,166.907,656.944)">
            <path class="step4a" d="M0.136,-0.525C0.146,-0.53 0.159,-0.532 0.175,-0.532C0.208,-0.532 0.242,-0.523 0.277,-0.506C0.311,-0.488 0.328,-0.469 0.328,-0.45C0.328,-0.432 0.319,-0.423 0.302,-0.423C0.288,-0.423 0.272,-0.43 0.255,-0.443C0.232,-0.461 0.208,-0.47 0.182,-0.47C0.168,-0.47 0.156,-0.467 0.147,-0.46C0.138,-0.453 0.133,-0.444 0.133,-0.433C0.133,-0.429 0.133,-0.426 0.134,-0.424C0.137,-0.408 0.155,-0.395 0.189,-0.386C0.221,-0.377 0.245,-0.362 0.262,-0.341C0.279,-0.32 0.287,-0.298 0.287,-0.273C0.287,-0.242 0.274,-0.214 0.249,-0.191C0.224,-0.167 0.19,-0.155 0.147,-0.155C0.126,-0.155 0.105,-0.164 0.084,-0.181C0.063,-0.198 0.052,-0.215 0.052,-0.234C0.052,-0.243 0.055,-0.249 0.061,-0.254C0.066,-0.259 0.073,-0.261 0.08,-0.261C0.095,-0.261 0.105,-0.254 0.11,-0.241C0.115,-0.228 0.131,-0.222 0.158,-0.222C0.181,-0.222 0.197,-0.227 0.207,-0.237C0.218,-0.248 0.223,-0.263 0.223,-0.283C0.223,-0.295 0.22,-0.304 0.213,-0.31C0.206,-0.315 0.191,-0.321 0.168,-0.328C0.129,-0.337 0.103,-0.349 0.089,-0.362C0.074,-0.375 0.066,-0.394 0.066,-0.418C0.066,-0.44 0.073,-0.461 0.086,-0.482C0.098,-0.502 0.115,-0.516 0.136,-0.525Z" style="fill:rgb(17,28,78);fill-rule:nonzero;"/>
        </g>
    </g>
</svg>
