<?xml version="1.0" encoding="UTF-8" standalone="no"?>
<!DOCTYPE svg PUBLIC "-//W3C//DTD SVG 1.1//EN" "http://www.w3.org/Graphics/SVG/1.1/DTD/svg11.dtd">
<svg width="100%" height="100%" viewBox="0 0 800 800" version="1.1" xmlns="http://www.w3.org/2000/svg" xmlns:xlink="http://www.w3.org/1999/xlink" xml:space="preserve" xmlns:serif="http://www.serif.com/" style="fill-rule:evenodd;clip-rule:evenodd;stroke-linejoin:round;stroke-miterlimit:2;">
    <g transform="matrix(1.42269,0,0,0.8462,-385.999,421.489)">
        <path class="step3e" d="M334.444,224.112L332.152,209.309L331.925,184.793L335.541,157.749L342.872,134.133L356.53,110.581C365.248,99.324 377.238,89.565 390.625,82.899C409.776,73.364 431.882,69.891 446.691,71.686L461.597,75.696L474.967,84.921L480.673,92.179C499.385,81.842 525.871,74.429 549.437,73.302C571.854,72.23 591.73,77.808 602.953,85.578C617.128,78.634 632.245,74.214 644.286,73.771L665.167,77.088L676.21,83.63L685.203,92.989L685.39,93.346C689.426,89.08 693.26,85.678 696.787,83.308L713.539,76.469L728.288,77.866L741.341,85.654L752.543,99.067L763.914,124.129L768.896,152.612L767.701,179.156L762.602,200.049L755.69,215.119C758.472,220.236 760.837,226.15 762.655,232.779C772.126,267.333 763.131,308.315 742.579,324.239C726.412,336.766 717.11,341.455 710.064,343.279C698.792,346.198 692.061,342.862 672.068,336.1L656.349,328.179L649.484,321.591C630.653,332.741 605.301,338.096 582.839,337.28C579.463,338.966 575.93,340.45 572.254,341.711C540.369,352.652 494.381,346.686 466.625,338.61C449.344,333.583 437.302,325.91 433.439,322.186L424.077,310.576C406.922,326.519 390.946,333.318 370.418,330.125C365.4,329.345 360.51,327.015 355.995,323.254L341.43,304.553L333.193,281.396L330.528,261.176L330.989,242.908L333.818,226.049L334.444,224.112Z" style="fill:rgb(177,207,255);"/>
    </g>
    <g transform="matrix(0.8363,0,0,0.905715,78.4762,20.8358)">
        <path class="step3e" d="M491.466,88.282C509.351,82.543 528.736,78.763 546.996,77.89C564.763,77.041 581.284,78.678 594.462,82.012L603.874,85.505C610.381,83.388 616.809,81.733 622.925,80.574L659.84,79.05L678.883,83.375L684.644,85.946L698.276,80.585L728.168,80.373L756.994,91.584L769.214,101.266L780.698,115.457L789.485,133.174L794.172,155.4L792.194,178.054L785.633,196.087C781.819,203.833 774.643,212.627 765.303,224.913L768.431,234.505L767.239,262.334L757.7,284.319L744.378,300.343L726.035,314.253C709.348,324.462 687.545,331.451 681.221,333.259L664.093,336.667L646.61,336.798L619.136,329.059L613.413,324.804C609.51,325.213 605.589,325.475 601.674,325.603L583.793,332.088C538.411,344.12 476.544,328.408 448.969,310.902L439.079,318.985L416.125,328.979L394.065,332.612L373.137,331.481C360.048,329.445 347.861,324.003 338.005,315.795L322.92,298.746L314.476,280.005L311.752,260.331L313.936,244.483L312.038,241.11L306.438,221.82L305.931,196.437C307.402,183.49 311.965,168.007 319.804,150.124L330.436,131.363L343.515,115.951L365.309,98.567C372.588,93.903 380.27,89.928 388.022,86.68C395.794,83.423 403.635,80.897 411.184,79.077L435.702,75.405L458.541,76.39L477.334,81.168L491.466,88.282Z" style="fill:rgb(255,207,190);"/>
    </g>
</svg>
