<?xml version="1.0" encoding="UTF-8" standalone="no"?>
<!DOCTYPE svg PUBLIC "-//W3C//DTD SVG 1.1//EN" "http://www.w3.org/Graphics/SVG/1.1/DTD/svg11.dtd">
<svg width="100%" height="100%" viewBox="0 0 1000 400" version="1.1" xmlns="http://www.w3.org/2000/svg" xmlns:xlink="http://www.w3.org/1999/xlink" xml:space="preserve" xmlns:serif="http://www.serif.com/" style="fill-rule:evenodd;clip-rule:evenodd;stroke-linejoin:round;stroke-miterlimit:2;">
    <g transform="matrix(0,-0.716608,-0.716608,0,928.537,119.067)">
        <g transform="matrix(1,0,0,1,-44.6313,-341.724)">
            <g transform="matrix(0,-11.4843,-11.4843,0,-167.242,738.065)">
                <path d="M0,1.942L0.808,1.669L1.492,2.178L1.482,1.326L2.179,0.833L1.363,0.58L1.11,-0.236L0.617,0.462L-0.237,0.449L0.273,1.134L0,1.942Z" style="fill:rgb(190,155,96);fill-rule:nonzero;"/>
            </g>
            <g transform="matrix(0,-11.4843,-11.4843,0,-211.842,619.768)">
                <path d="M0,2.327L0.378,1.561L1.222,1.439L0.612,0.843L0.755,0L0,0.398L-0.756,0L-0.61,0.843L-1.223,1.439L-0.378,1.561L0,2.327Z" style="fill:rgb(190,155,96);fill-rule:nonzero;"/>
            </g>
            <g transform="matrix(0,-11.4843,-11.4843,0,-197.782,683.862)">
                <path d="M0,2.439L0.642,1.877L1.47,2.086L1.134,1.303L1.588,0.58L0.739,0.658L0.192,0L0.004,0.834L-0.79,1.148L-0.056,1.587L0,2.439Z" style="fill:rgb(190,155,96);fill-rule:nonzero;"/>
            </g>
            <g transform="matrix(0,-11.4843,-11.4843,0,-195.777,550.823)">
                <path d="M0,2.429L0.028,1.577L0.749,1.115L-0.056,0.825L-0.27,0L-0.795,0.673L-1.645,0.622L-1.167,1.329L-1.479,2.124L-0.659,1.889L0,2.429Z" style="fill:rgb(190,155,96);fill-rule:nonzero;"/>
            </g>
            <g transform="matrix(0,-11.4843,-11.4843,0,-167.242,501.476)">
                <path d="M0,1.942L-0.273,1.134L0.237,0.449L-0.616,0.462L-1.109,-0.236L-1.362,0.58L-2.178,0.833L-1.481,1.326L-1.491,2.178L-0.809,1.669L0,1.942Z" style="fill:rgb(190,155,96);fill-rule:nonzero;"/>
            </g>
            <g transform="matrix(0,-11.4843,-11.4843,0,66.7039,600.024)">
                <path d="M0,16.08C1.246,14.415 2.358,10.103 1.799,-3.026C1.798,-3.049 1.779,-3.068 1.756,-3.069C1.73,-3.071 1.713,-3.053 1.709,-3.031C1.704,-2.994 1.167,0.644 -0.264,5.168C-1.583,9.341 -3.954,15.141 -7.756,19.076C-7.77,19.09 -7.772,19.113 -7.762,19.13C-7.753,19.144 -7.739,19.151 -7.724,19.151C-7.719,19.151 -7.714,19.151 -7.71,19.149L-1.218,17.053C-0.749,16.902 -0.289,16.466 0,16.08" style="fill:rgb(190,155,96);fill-rule:nonzero;"/>
            </g>
            <g transform="matrix(0,-11.4843,-11.4843,0,-85.1544,549.499)">
                <path d="M0,-3.207C-0.681,-4.834 -1.607,-6.158 -1.616,-6.171C-1.628,-6.188 -1.649,-6.195 -1.669,-6.188C-1.688,-6.182 -1.699,-6.162 -1.698,-6.142C-1.557,0.641 -3.072,2.882 -3.095,2.92C-3.104,2.936 -3.104,2.957 -3.091,2.971C-3.083,2.982 -3.07,2.988 -3.057,2.988C-3.052,2.988 -3.047,2.987 -3.042,2.986L-0.611,2.152C0.27,1.85 0.873,1.014 0.841,0.083C0.803,-1.022 0.407,-2.234 0,-3.207" style="fill:rgb(190,155,96);fill-rule:nonzero;"/>
            </g>
            <g transform="matrix(0,-11.4843,-11.4843,0,-170.861,546.875)">
                <path d="M0,-4.644L-12.014,-0.63C-12.04,-0.622 -12.038,-0.584 -12.012,-0.578C-12.012,-0.578 -11.751,-0.501 -11.231,-0.307C-10.569,-0.06 -9.738,0.009 -8.397,-0.271C-6.996,-0.565 -3.531,-1.692 -2.474,-2.161C-1.497,-2.593 -1.049,-2.858 -0.634,-3.445C-0.245,-3.994 0.028,-4.6 0.028,-4.6C0.048,-4.62 0.027,-4.653 0,-4.644" style="fill:rgb(190,155,96);fill-rule:nonzero;"/>
            </g>
        </g>
        <g transform="matrix(1,0,0,1,0,-20.3862)">
            <g transform="matrix(0,-11.4843,-11.4843,0,-211.873,1056.65)">
                <path d="M0,1.942L0.808,1.669L1.492,2.178L1.482,1.326L2.179,0.833L1.363,0.58L1.11,-0.236L0.617,0.462L-0.237,0.449L0.273,1.134L0,1.942Z" style="fill:rgb(193,152,106);fill-rule:nonzero;"/>
            </g>
            <g transform="matrix(0,-11.4843,-11.4843,0,-256.474,938.352)">
                <path d="M0,2.327L0.378,1.561L1.222,1.439L0.612,0.843L0.755,0L0,0.398L-0.756,0L-0.61,0.843L-1.223,1.439L-0.378,1.561L0,2.327Z" style="fill:rgb(193,152,106);fill-rule:nonzero;"/>
            </g>
            <g transform="matrix(0,-11.4843,-11.4843,0,-242.413,1002.45)">
                <path d="M0,2.439L0.642,1.877L1.47,2.086L1.134,1.303L1.588,0.58L0.739,0.658L0.192,0L0.004,0.834L-0.79,1.148L-0.056,1.587L0,2.439Z" style="fill:rgb(193,152,106);fill-rule:nonzero;"/>
            </g>
            <g transform="matrix(0,-11.4843,-11.4843,0,-240.408,869.407)">
                <path d="M0,2.429L0.028,1.577L0.749,1.115L-0.056,0.825L-0.27,0L-0.795,0.673L-1.645,0.622L-1.167,1.329L-1.479,2.124L-0.659,1.889L0,2.429Z" style="fill:rgb(193,152,106);fill-rule:nonzero;"/>
            </g>
            <g transform="matrix(0,-11.4843,-11.4843,0,-211.873,820.06)">
                <path d="M0,1.942L-0.273,1.134L0.237,0.449L-0.616,0.462L-1.109,-0.236L-1.362,0.58L-2.178,0.833L-1.481,1.326L-1.491,2.178L-0.809,1.669L0,1.942Z" style="fill:rgb(193,152,106);fill-rule:nonzero;"/>
            </g>
            <g transform="matrix(1,0,0,1,0,326.708)">
                <g transform="matrix(0,-1.39546,-1.39546,0,166.154,1295.74)">
                    <path d="M433.927,259.2C433.927,259.2 457.362,235.676 468.677,219.995C479.992,204.314 488.152,193.219 493.178,182.387C498.204,171.554 510.661,136.877 515.606,77.991C517.963,97.97 524.084,147.999 522.454,175.719C520.825,203.438 518.609,216.346 513.934,222.787C509.258,229.227 497.91,234.572 486.464,240.32C475.017,246.068 444.155,256.485 433.927,259.2Z" style="fill:rgb(193,152,106);"/>
                </g>
                <g transform="matrix(0,-1.39546,-1.39546,0,166.154,1295.74)">
                    <path d="M528.065,204.467C531.751,194.854 534.24,189.427 535.635,187.892C538.468,184.774 537.533,190.865 537.738,201.033C537.833,205.708 539.896,213.498 543.53,218.124C546.807,222.297 552.018,224.835 550.368,225.499C548.719,226.163 539.904,227.13 533.111,226.962C526.326,226.795 522.118,227.053 522.726,222.183C523.44,216.472 525.241,211.831 528.065,204.467Z" style="fill:rgb(193,152,106);"/>
                </g>
                <g transform="matrix(0,-1.39546,-1.39546,0,166.154,1295.74)">
                    <path d="M436.442,266.025L548.999,234.901C548.999,234.901 541.491,244.776 531.651,250.601C521.812,256.425 507.476,260.616 488.272,264.24C469.067,267.864 460.675,269.728 452.257,268.955C443.84,268.182 437.915,267.135 436.442,266.025Z" style="fill:rgb(193,152,106);"/>
                </g>
            </g>
        </g>
        <g transform="matrix(0,-1.66347,-1.39546,0,154.545,1444.04)">
            <path d="M542.985,194.181L468.271,194.181C467.114,194.181 466.174,193.061 466.174,191.681C466.174,190.301 467.114,189.181 468.271,189.181L542.985,189.181L534.53,179.103C533.712,178.127 533.712,176.543 534.53,175.567C535.349,174.592 536.678,174.592 537.496,175.567L551.014,191.681L537.496,207.795C536.678,208.771 535.349,208.771 534.53,207.795C533.712,206.819 533.712,205.235 534.53,204.259L542.985,194.181Z" style="fill:rgb(17,28,78);"/>
        </g>
    </g>
</svg>
