<?xml version="1.0" encoding="UTF-8" standalone="no"?>
<!DOCTYPE svg PUBLIC "-//W3C//DTD SVG 1.1//EN" "http://www.w3.org/Graphics/SVG/1.1/DTD/svg11.dtd">
<svg width="100%" height="100%" viewBox="0 0 1000 400" version="1.1" xmlns="http://www.w3.org/2000/svg" xmlns:xlink="http://www.w3.org/1999/xlink" xml:space="preserve" xmlns:serif="http://www.serif.com/" style="fill-rule:evenodd;clip-rule:evenodd;stroke-linejoin:round;stroke-miterlimit:2;">
    <g transform="matrix(5.73801,0,0,5.73801,-231.934,-206.629)">
        <g>
            <g transform="matrix(1,0,0,1,55.1626,60.4641)">
                <path d="M0,0.061L0,0.031C0,-2.905 2.155,-5.504 5.366,-5.504C7.17,-5.504 8.286,-4.983 9.356,-4.081L8.577,-3.165C7.751,-3.883 6.834,-4.388 5.32,-4.388C2.95,-4.388 1.253,-2.384 1.253,-0.001L1.253,0.031C1.253,2.583 2.889,4.479 5.488,4.479C6.712,4.479 7.843,4.006 8.577,3.409L8.577,0.748L5.32,0.748L5.32,-0.335L9.739,-0.335L9.739,3.929C8.745,4.816 7.247,5.565 5.442,5.565C2.079,5.565 0,3.119 0,0.061" style="fill:rgb(16,28,78);fill-rule:nonzero;"/>
            </g>
            <g transform="matrix(1,0,0,1,72.8809,60.3863)">
                <path d="M0,0.216C1.605,0.216 2.752,-0.61 2.752,-1.985L2.752,-2.016C2.752,-3.332 1.743,-4.127 0.016,-4.127L-3.287,-4.127L-3.287,0.216L0,0.216ZM-4.495,-5.243L0.107,-5.243C1.422,-5.243 2.478,-4.846 3.15,-4.172C3.67,-3.652 3.975,-2.904 3.975,-2.062L3.975,-2.032C3.975,-0.258 2.752,0.781 1.07,1.087L4.357,5.459L2.874,5.459L-0.229,1.301L-3.287,1.301L-3.287,5.459L-4.495,5.459L-4.495,-5.243Z" style="fill:rgb(16,28,78);fill-rule:nonzero;"/>
            </g>
            <g transform="matrix(1,0,0,1,87.144,58.9814)">
                <path d="M0,2.95L-2.43,-2.508L-4.877,2.95L0,2.95ZM-2.981,-3.914L-1.85,-3.914L3.027,6.864L1.728,6.864L0.475,4.036L-5.351,4.036L-6.62,6.864L-7.858,6.864L-2.981,-3.914Z" style="fill:rgb(16,28,78);fill-rule:nonzero;"/>
            </g>
            <g transform="matrix(1,0,0,1,93.0454,65.8453)">
                <path d="M0,-10.702L1.131,-10.702L7.873,-2.124L7.873,-10.702L9.05,-10.702L9.05,0L8.087,0L1.177,-8.775L1.177,0L0,0L0,-10.702Z" style="fill:rgb(16,28,78);fill-rule:nonzero;"/>
            </g>
            <g transform="matrix(1,0,0,1,109.602,56.2592)">
                <path d="M0,8.47C2.706,8.47 4.434,6.636 4.434,4.266L4.434,4.236C4.434,1.866 2.706,-0 0,-0L-2.507,-0L-2.507,8.47L0,8.47ZM-3.716,-1.116L0,-1.116C3.364,-1.116 5.687,1.193 5.687,4.204L5.687,4.236C5.687,7.246 3.364,9.586 0,9.586L-3.716,9.586L-3.716,-1.116Z" style="fill:rgb(16,28,78);fill-rule:nonzero;"/>
            </g>
            <g transform="matrix(1,0,0,1,136.706,65.8453)">
                <path d="M0,-10.702L1.223,-10.702L5.121,-4.862L9.02,-10.702L10.243,-10.702L10.243,0L9.035,0L9.035,-8.668L5.136,-2.935L5.075,-2.935L1.177,-8.653L1.177,0L0,0L0,-10.702Z" style="fill:rgb(16,28,78);fill-rule:nonzero;"/>
            </g>
            <g transform="matrix(1,0,0,1,157.681,58.9814)">
                <path d="M0,2.95L-2.43,-2.508L-4.877,2.95L0,2.95ZM-2.98,-3.914L-1.851,-3.914L3.026,6.864L1.729,6.864L0.474,4.036L-5.352,4.036L-6.619,6.864L-7.858,6.864L-2.98,-3.914Z" style="fill:rgb(16,28,78);fill-rule:nonzero;"/>
            </g>
            <g transform="matrix(1,0,0,1,167.312,60.3863)">
                <path d="M0,0.216C1.604,0.216 2.752,-0.61 2.752,-1.985L2.752,-2.016C2.752,-3.332 1.741,-4.127 0.015,-4.127L-3.287,-4.127L-3.287,0.216L0,0.216ZM-4.496,-5.243L0.105,-5.243C1.421,-5.243 2.477,-4.846 3.149,-4.172C3.668,-3.652 3.975,-2.904 3.975,-2.062L3.975,-2.032C3.975,-0.258 2.752,0.781 1.069,1.087L4.357,5.459L2.874,5.459L-0.23,1.301L-3.287,1.301L-3.287,5.459L-4.496,5.459L-4.496,-5.243Z" style="fill:rgb(16,28,78);fill-rule:nonzero;"/>
            </g>
            <g transform="matrix(1,0,0,1,0,-20.744)">
                <rect x="173.977" y="75.887" width="1.208" height="10.702" style="fill:rgb(16,28,78);"/>
            </g>
            <g transform="matrix(1,0,0,1,178.318,65.8453)">
                <path d="M0,-10.702L1.131,-10.702L7.874,-2.124L7.874,-10.702L9.052,-10.702L9.052,0L8.088,0L1.177,-8.775L1.177,0L0,0L0,-10.702Z" style="fill:rgb(16,28,78);fill-rule:nonzero;"/>
            </g>
            <g transform="matrix(1,0,0,1,197.337,58.9814)">
                <path d="M0,2.95L-2.431,-2.508L-4.877,2.95L0,2.95ZM-2.981,-3.914L-1.85,-3.914L3.027,6.864L1.729,6.864L0.474,4.036L-5.352,4.036L-6.62,6.864L-7.859,6.864L-2.981,-3.914Z" style="fill:rgb(16,28,78);fill-rule:nonzero;"/>
            </g>
            <g transform="matrix(-1,0,0,1,338.341,-0.519)">
                <rect x="136.923" y="70.886" width="64.495" height="0.479" style="fill:rgb(190,155,96);"/>
            </g>
            <g transform="matrix(-1,0,0,1,165.489,-0.29)">
                <rect x="53.7" y="70.772" width="58.089" height="0.478" style="fill:rgb(190,155,96);"/>
            </g>
            <g transform="matrix(1,0,0,1,74.1143,79.1912)">
                <path d="M0,4.915C0.285,4.771 0.535,4.668 0.75,4.606C0.805,4.574 0.842,4.528 0.858,4.473C0.875,4.415 0.883,4.196 0.883,3.82C0.883,3.768 0.878,3.666 0.867,3.519L0.867,3.42L0.871,2.536L0.867,1.911L0.875,1.727L0.875,1.561C0.875,1.519 0.88,1.458 0.892,1.374L0.867,1.191L0.872,1.144C0.88,1.098 0.883,1.043 0.883,0.979C0.883,0.685 0.86,0.466 0.817,0.324C0.714,0.248 0.548,0.181 0.316,0.121C0.187,0.089 0.086,0.05 0.017,0.008L0.046,-0.246C0.093,-0.251 0.142,-0.256 0.192,-0.256C0.417,-0.256 0.627,-0.243 0.822,-0.218C1.016,-0.193 1.286,-0.18 1.631,-0.18L2.057,-0.201C2.266,-0.203 2.427,-0.212 2.541,-0.226C2.624,-0.234 2.682,-0.238 2.716,-0.238C2.752,-0.238 2.792,-0.236 2.837,-0.234C2.846,-0.207 2.85,-0.177 2.85,-0.144C2.85,-0.063 2.846,-0.001 2.837,0.036C2.662,0.102 2.494,0.146 2.333,0.175C2.172,0.201 2.081,0.227 2.058,0.251C2.022,0.282 2.004,0.332 2.004,0.4L2.004,0.725C2.004,0.769 2.006,0.846 2.013,0.952C2.018,1.115 2.021,1.229 2.021,1.294C2.021,1.336 2.018,1.429 2.013,1.573L2.013,1.891L2.004,2.191C2.004,2.206 2.005,2.225 2.008,2.251C2.208,2.078 2.475,1.817 2.808,1.472C2.963,1.307 3.087,1.182 3.179,1.095C3.215,1.059 3.41,0.853 3.766,0.478C3.88,0.322 3.941,0.232 3.95,0.207L3.916,0.178C3.744,0.146 3.615,0.128 3.529,0.122C3.47,0.12 3.375,0.1 3.246,0.062C3.24,0.018 3.237,-0.063 3.237,-0.181L3.241,-0.234L3.425,-0.234C3.514,-0.234 3.631,-0.228 3.777,-0.215C3.922,-0.203 4.035,-0.196 4.112,-0.196L5.116,-0.213C5.274,-0.231 5.449,-0.245 5.641,-0.259L5.636,0.065C5.59,0.077 5.498,0.097 5.362,0.125C5.028,0.23 4.803,0.313 4.687,0.371C4.57,0.43 4.454,0.507 4.337,0.601C4.22,0.693 4.004,0.886 3.691,1.179C3.266,1.573 3.012,1.816 2.929,1.907C2.982,1.969 3.045,2.039 3.121,2.12L3.258,2.261C3.283,2.288 3.313,2.324 3.35,2.366L4.232,3.386L4.966,4.298C5.05,4.404 5.106,4.475 5.137,4.511L5.203,4.586C5.25,4.648 5.284,4.683 5.304,4.694C5.329,4.711 5.385,4.732 5.475,4.758C5.521,4.768 5.639,4.817 5.828,4.903C5.834,4.953 5.837,4.991 5.837,5.019C5.837,5.053 5.831,5.103 5.82,5.174L5.362,5.165C5.309,5.156 5.224,5.15 5.107,5.144L4.7,5.124L4.612,5.127L4.037,5.124C3.981,5.124 3.827,5.132 3.574,5.15C3.441,5.16 3.353,5.165 3.308,5.165C3.286,5.165 3.252,5.163 3.208,5.161C3.194,5.117 3.188,5.082 3.188,5.056C3.188,5.021 3.193,4.972 3.204,4.907C3.326,4.865 3.45,4.831 3.574,4.804C3.669,4.786 3.732,4.763 3.762,4.732C3.792,4.701 3.808,4.668 3.808,4.632C3.808,4.606 3.803,4.586 3.794,4.569C3.771,4.506 3.727,4.435 3.666,4.356C3.644,4.332 3.446,4.108 3.074,3.684L2.016,2.498C2.005,2.598 2,2.711 2,2.836C2,3.01 2.005,3.158 2.016,3.28C2.019,3.305 2.023,3.485 2.029,3.824L2.021,4.204L2.038,4.615C2.115,4.685 2.254,4.746 2.454,4.799C2.571,4.828 2.676,4.872 2.771,4.931C2.779,4.985 2.783,5.026 2.783,5.054C2.783,5.075 2.78,5.11 2.774,5.156C2.644,5.163 2.542,5.165 2.47,5.165C2.393,5.165 2.327,5.165 2.273,5.161L1.681,5.135C1.6,5.13 1.522,5.127 1.444,5.127C1.363,5.127 1.261,5.132 1.139,5.14L0.401,5.137C0.37,5.137 0.237,5.14 0.004,5.148L0,4.915Z" style="fill:rgb(190,155,96);fill-rule:nonzero;"/>
            </g>
            <g transform="matrix(1,0,0,1,82.5728,78.9429)">
                <path d="M0,5.422L0,5.121C0.056,5.106 0.146,5.082 0.273,5.052C0.453,5.007 0.587,4.961 0.675,4.914C0.726,4.828 0.751,4.708 0.751,4.555L0.746,4.065L0.754,3.113L0.751,2.889C0.772,2.339 0.784,2.056 0.784,2.038L0.776,1.485L0.788,1.26L0.767,0.785L0.759,0.606C0.756,0.578 0.746,0.533 0.729,0.473C0.616,0.418 0.431,0.387 0.175,0.371C0.114,0.369 0.066,0.365 0.029,0.36L0.021,-0.008L1.212,0.044C1.359,0.049 1.451,0.052 1.487,0.052C1.651,0.052 1.913,0.041 2.274,0.018C2.478,0.004 2.604,-0.003 2.658,-0.008C2.661,0.047 2.663,0.09 2.663,0.126C2.663,0.173 2.659,0.235 2.653,0.311C2.542,0.35 2.415,0.385 2.272,0.42C2.13,0.455 2.013,0.491 1.92,0.527C1.904,0.599 1.896,0.703 1.896,0.839C1.896,0.958 1.9,1.056 1.908,1.13C1.9,1.6 1.896,1.961 1.896,2.214L1.9,3.315L1.879,3.872L1.896,4.705L1.883,4.863C1.883,4.886 1.892,4.918 1.908,4.959C2.077,4.995 2.23,5.021 2.368,5.034C2.393,5.037 2.478,5.048 2.621,5.068C2.632,5.151 2.638,5.22 2.638,5.276C2.638,5.306 2.636,5.354 2.634,5.418C2.598,5.418 2.569,5.419 2.551,5.422C2.461,5.427 2.41,5.43 2.396,5.43C2.376,5.43 2.341,5.425 2.288,5.418C2.25,5.411 2.065,5.393 1.735,5.36L0.999,5.351C0.852,5.351 0.638,5.365 0.358,5.393C0.175,5.409 0.056,5.419 0,5.422" style="fill:rgb(190,155,96);fill-rule:nonzero;"/>
            </g>
            <g transform="matrix(1,0,0,1,88.2153,84.1635)">
                <path d="M0,-4.865L-0.016,-5.157L0.338,-5.157L0.458,-5.161C0.625,-5.169 0.74,-5.174 0.805,-5.174C0.838,-5.174 0.935,-5.171 1.097,-5.166C1.132,-5.162 1.163,-5.161 1.187,-5.161C1.212,-5.161 1.301,-5.163 1.45,-5.169C1.601,-5.174 1.685,-5.177 1.705,-5.177C1.735,-5.177 1.778,-5.176 1.834,-5.174C2.261,-4.784 2.61,-4.449 2.879,-4.17C3.149,-3.888 4.132,-2.907 5.829,-1.223L5.829,-1.329L5.812,-1.812C5.804,-2.094 5.793,-2.319 5.779,-2.483C5.766,-2.649 5.757,-2.846 5.754,-3.077C5.751,-3.304 5.742,-3.512 5.725,-3.698C5.692,-4.062 5.674,-4.272 5.674,-4.327C5.672,-4.508 5.652,-4.617 5.616,-4.657C5.558,-4.717 5.425,-4.763 5.216,-4.795C5.064,-4.819 4.95,-4.851 4.875,-4.89L4.878,-5.136L4.987,-5.148L5.808,-5.174L6.725,-5.198C6.786,-5.202 6.844,-5.203 6.9,-5.203L6.904,-4.931C6.84,-4.897 6.774,-4.873 6.708,-4.857C6.53,-4.815 6.428,-4.786 6.399,-4.769C6.258,-4.688 6.182,-4.64 6.17,-4.624C6.146,-4.591 6.133,-4.539 6.133,-4.469C6.133,-4.453 6.136,-4.394 6.141,-4.293C6.144,-4.243 6.146,-4.128 6.146,-3.943C6.148,-3.541 6.159,-3.223 6.179,-2.991C6.184,-2.916 6.188,-2.831 6.191,-2.737L6.237,-1.273C6.24,-1.171 6.241,-1.098 6.241,-1.056L6.241,-0.545L6.254,-0.328L6.241,-0.102C6.252,0.012 6.258,0.078 6.258,0.1L6.258,0.322L5.779,0.338L5.283,-0.174L4.271,-1.177L3.563,-1.886L3.042,-2.42C2.703,-2.753 2.395,-3.047 2.117,-3.299L1.438,-3.911L1.475,-2.361C1.478,-2.266 1.479,-2.17 1.479,-2.07L1.475,-1.775L1.5,-1.229C1.509,-1 1.523,-0.753 1.546,-0.486C1.552,-0.414 1.559,-0.364 1.567,-0.335C1.575,-0.306 1.592,-0.262 1.617,-0.207C1.726,-0.168 1.961,-0.138 2.325,-0.119C2.35,-0.114 2.386,-0.105 2.433,-0.091L2.451,0.247L2.288,0.251C2.199,0.251 1.918,0.23 1.446,0.189C1.004,0.196 0.71,0.202 0.563,0.214C0.415,0.225 0.335,0.23 0.322,0.23C0.288,0.23 0.242,0.225 0.183,0.214C0.178,0.15 0.176,0.094 0.176,0.047C0.176,0.017 0.177,-0.033 0.18,-0.102C0.257,-0.116 0.322,-0.124 0.372,-0.124C0.388,-0.124 0.442,-0.12 0.533,-0.115C0.767,-0.115 0.905,-0.133 0.948,-0.168C0.992,-0.202 1.016,-0.296 1.021,-0.448C1.041,-0.89 1.05,-1.159 1.05,-1.257L1.05,-1.487L1.059,-2.842L1.046,-3.685C1.043,-4.008 1.023,-4.231 0.984,-4.357C0.967,-4.421 0.935,-4.475 0.888,-4.523C0.791,-4.624 0.682,-4.698 0.563,-4.748C0.491,-4.778 0.303,-4.818 0,-4.865" style="fill:rgb(190,155,96);fill-rule:nonzero;"/>
            </g>
            <g transform="matrix(1,0,0,1,98.0864,84.1611)">
                <path d="M0,-4.842L-0.012,-5.171C0.038,-5.173 0.089,-5.174 0.143,-5.174C0.282,-5.174 0.428,-5.171 0.581,-5.163C0.948,-5.143 1.163,-5.133 1.228,-5.133C1.45,-5.133 1.667,-5.137 1.88,-5.147C2.093,-5.155 2.282,-5.16 2.448,-5.163C2.613,-5.165 2.725,-5.168 2.783,-5.171L2.78,-5.121L2.788,-4.879L2.788,-4.847C2.632,-4.823 2.471,-4.813 2.305,-4.813C2.149,-4.813 2.046,-4.781 1.996,-4.721C1.962,-4.682 1.946,-4.517 1.946,-4.225C1.946,-4.136 1.947,-4.065 1.95,-4.008L1.955,-3.858L1.946,-3.466L1.971,-3.132L1.955,-2.412L2.009,-1.367C2.022,-1.065 2.089,-0.813 2.209,-0.613C2.298,-0.466 2.423,-0.351 2.584,-0.267C2.817,-0.15 3.046,-0.092 3.271,-0.092C3.538,-0.092 3.786,-0.128 4.017,-0.196C4.152,-0.236 4.281,-0.298 4.402,-0.385C4.523,-0.473 4.607,-0.552 4.654,-0.625C4.754,-0.78 4.824,-0.921 4.862,-1.054C4.915,-1.238 4.941,-1.523 4.941,-1.908C4.941,-2.58 4.905,-3.336 4.833,-4.179L4.817,-4.401C4.809,-4.564 4.778,-4.674 4.725,-4.73C4.636,-4.816 4.536,-4.858 4.425,-4.858L4.033,-4.85L3.979,-4.863L3.988,-5.183L4.317,-5.183L5.113,-5.146C5.379,-5.146 5.634,-5.158 5.875,-5.183L5.946,-5.174C5.962,-5.083 5.971,-5.02 5.971,-4.984C5.971,-4.952 5.965,-4.915 5.954,-4.87C5.852,-4.843 5.743,-4.825 5.629,-4.821C5.443,-4.795 5.34,-4.775 5.321,-4.758C5.282,-4.725 5.262,-4.674 5.262,-4.604C5.262,-4.554 5.266,-4.482 5.275,-4.387C5.283,-4.319 5.287,-4.197 5.287,-4.024C5.287,-3.927 5.289,-3.851 5.29,-3.795C5.291,-3.74 5.292,-3.683 5.296,-3.623C5.304,-3.424 5.311,-3.221 5.317,-3.015L5.358,-2.168C5.358,-1.601 5.338,-1.223 5.3,-1.03C5.261,-0.839 5.209,-0.688 5.142,-0.576C5.039,-0.41 4.893,-0.256 4.704,-0.115C4.515,0.024 4.279,0.137 3.996,0.219C3.712,0.301 3.382,0.341 3.004,0.341C2.574,0.341 2.205,0.283 1.896,0.168C1.587,0.053 1.355,-0.098 1.199,-0.285C1.042,-0.473 0.933,-0.717 0.875,-1.017C0.834,-1.223 0.813,-1.517 0.813,-1.901L0.813,-3.888C0.813,-4.357 0.79,-4.622 0.747,-4.683C0.686,-4.769 0.495,-4.818 0.176,-4.829C0.106,-4.829 0.048,-4.834 0,-4.842" style="fill:rgb(190,155,96);fill-rule:nonzero;"/>
            </g>
            <g transform="matrix(1,0,0,1,107.242,78.9374)">
                <path d="M0,5.41C0,5.326 0.009,5.229 0.025,5.114L0.551,5.024C0.616,5.01 0.692,4.988 0.783,4.957L0.837,3.915C0.827,3.54 0.821,3.26 0.821,3.074L0.825,2.972C0.833,2.86 0.837,2.573 0.837,2.115L0.827,1.994L0.837,1.644L0.829,1.283L0.829,1.103C0.829,0.941 0.817,0.753 0.793,0.536C0.791,0.516 0.78,0.483 0.762,0.436C0.739,0.429 0.714,0.422 0.688,0.419C0.661,0.417 0.634,0.413 0.606,0.407C0.497,0.388 0.38,0.374 0.257,0.366L0.193,0.348C0.119,0.34 0.06,0.33 0.021,0.316C0.013,0.235 0.009,0.183 0.009,0.162C0.009,0.128 0.016,0.082 0.034,0.023C0.089,0.014 0.167,0.008 0.268,0.008C0.367,0.008 0.437,0.006 0.476,0.003C0.815,0.04 1.067,0.058 1.231,0.06C1.306,0.06 1.381,0.063 1.458,0.068C1.535,0.072 1.602,0.074 1.661,0.074C1.752,0.074 1.976,0.06 2.332,0.032C2.391,0.018 2.455,0.011 2.524,0.011C2.627,0.011 2.713,0.017 2.783,0.028C2.785,0.087 2.788,0.128 2.788,0.152C2.788,0.198 2.782,0.251 2.771,0.316L2.033,0.431C1.975,0.461 1.946,0.5 1.946,0.553L1.955,0.707L1.958,0.773L1.955,0.957L1.95,1.098L1.95,1.132C1.955,1.162 1.958,1.188 1.958,1.212L1.95,1.74C1.955,1.79 1.958,1.827 1.958,1.851C1.958,1.866 1.957,1.912 1.953,1.987C1.951,2.03 1.95,2.076 1.95,2.123C1.95,2.165 1.953,2.264 1.958,2.419C2.036,2.433 2.101,2.441 2.154,2.444L2.77,2.458L3.069,2.458L3.818,2.461L4.546,2.439C4.64,2.439 4.74,2.431 4.845,2.41C4.851,2.316 4.854,2.085 4.858,1.715L4.866,1.528L4.841,0.819L4.812,0.528C4.804,0.51 4.784,0.491 4.754,0.473C4.657,0.419 4.462,0.356 4.171,0.286C4.117,0.275 4.067,0.262 4.02,0.244C4.026,0.148 4.038,0.068 4.054,0.008C4.115,0.005 4.152,0.003 4.166,0.003L4.569,0.008C4.827,0.041 5.089,0.057 5.355,0.057C5.417,0.057 5.465,0.056 5.501,0.053L6.042,0.036C6.092,0.034 6.14,0.031 6.187,0.028C6.287,0.006 6.391,-0.005 6.496,-0.005C6.576,-0.005 6.673,-0.002 6.787,0.008C6.784,0.115 6.777,0.214 6.766,0.304C6.512,0.356 6.346,0.394 6.267,0.417C6.187,0.44 6.108,0.473 6.028,0.515L6.003,0.598L6.003,0.67L6.007,0.778L6.002,0.832C5.994,0.89 5.991,0.935 5.991,0.965L5.991,1.069C5.997,1.194 6,1.264 6,1.278L6,1.807L6.003,2.207L5.992,2.735C5.988,2.858 5.993,3.108 6.007,3.486L6.007,4.077L6.016,4.569C6.016,4.661 6.013,4.771 6.007,4.902C6.065,4.92 6.119,4.932 6.169,4.944C6.429,5 6.625,5.057 6.757,5.114L6.77,5.406C6.658,5.409 6.594,5.41 6.575,5.41C6.442,5.41 6.289,5.402 6.117,5.386C5.89,5.36 5.523,5.348 5.019,5.348C4.792,5.348 4.497,5.367 4.137,5.402C4.098,5.402 4.051,5.393 3.995,5.378C3.998,5.249 4.005,5.16 4.016,5.107L4.337,5.031L4.674,4.977C4.708,4.97 4.751,4.957 4.804,4.94C4.834,4.715 4.851,4.341 4.853,3.819L4.858,3.464C4.841,3.318 4.833,3.141 4.833,2.936C4.73,2.929 4.619,2.923 4.5,2.92L2.57,2.899L2.533,2.894L2.503,2.889C2.484,2.889 2.461,2.892 2.437,2.894C2.364,2.897 2.303,2.899 2.253,2.899L2.137,2.899C2.084,2.899 2.024,2.908 1.958,2.929L1.937,3.241L1.937,3.295C1.943,3.37 1.946,3.418 1.946,3.44L1.946,4.731C1.946,4.805 1.95,4.878 1.958,4.953L1.996,4.977L2.611,5.074C2.643,5.085 2.666,5.091 2.683,5.094C2.719,5.102 2.75,5.114 2.774,5.132C2.783,5.195 2.788,5.239 2.788,5.261C2.788,5.297 2.782,5.348 2.771,5.41C2.67,5.414 2.585,5.415 2.516,5.415C2.455,5.415 2.398,5.414 2.345,5.41C2.32,5.41 2.296,5.409 2.274,5.406L1.686,5.381C1.546,5.367 1.352,5.36 1.102,5.36L1.014,5.365C0.897,5.371 0.829,5.375 0.81,5.378C0.637,5.4 0.367,5.41 0,5.41" style="fill:rgb(190,155,96);fill-rule:nonzero;"/>
            </g>
            <g transform="matrix(1,0,0,1,121.46,84.3358)">
                <path d="M0,-5.338C0.075,-5.359 0.249,-5.37 0.521,-5.37L0.562,-5.362C0.632,-5.351 0.681,-5.346 0.708,-5.346L0.75,-5.349C0.792,-5.344 0.905,-5.334 1.092,-5.32C1.436,-5.296 1.71,-5.283 1.912,-5.283C2.135,-5.283 2.353,-5.298 2.567,-5.329C2.597,-5.334 2.619,-5.338 2.633,-5.338L2.667,-5.333C2.68,-5.296 2.687,-5.27 2.687,-5.249L2.683,-5.032C2.619,-5.009 2.543,-4.987 2.454,-4.975L2.267,-4.942C2.197,-4.928 2.104,-4.912 1.987,-4.896L1.962,-4.879L1.954,-4.824C2.045,-4.627 2.24,-4.32 2.537,-3.903C2.616,-3.771 2.693,-3.647 2.771,-3.529C2.793,-3.499 2.872,-3.369 3.008,-3.142C3.022,-3.116 3.038,-3.092 3.054,-3.067C3.079,-3.027 3.104,-2.99 3.128,-2.954C3.176,-2.885 3.207,-2.839 3.221,-2.816C3.276,-2.728 3.324,-2.659 3.362,-2.613L3.796,-3.221C3.937,-3.404 4.122,-3.671 4.35,-4.021L4.366,-4.042L4.721,-4.67C4.776,-4.751 4.804,-4.811 4.804,-4.85C4.804,-4.862 4.799,-4.887 4.791,-4.92C4.749,-4.948 4.714,-4.965 4.687,-4.97C4.676,-4.977 4.617,-4.982 4.512,-4.987C4.454,-4.998 4.398,-5.009 4.345,-5.017C4.293,-5.025 4.25,-5.032 4.216,-5.041C4.21,-5.077 4.203,-5.181 4.191,-5.349L5.045,-5.304C5.07,-5.301 5.105,-5.296 5.149,-5.286L5.35,-5.286L5.42,-5.291C5.509,-5.305 5.624,-5.317 5.766,-5.324C5.808,-5.327 5.848,-5.331 5.887,-5.338L5.883,-5.025L5.828,-5.009C5.595,-4.969 5.436,-4.918 5.35,-4.855C5.224,-4.76 5.056,-4.531 4.845,-4.17L4.303,-3.359C3.978,-2.917 3.769,-2.616 3.674,-2.454C3.649,-2.415 3.628,-2.366 3.612,-2.308L3.612,-2.18L3.608,-1.817L3.608,-1.717C3.6,-1.644 3.596,-1.569 3.596,-1.49L3.612,-0.424C3.624,-0.403 3.638,-0.387 3.658,-0.379C3.697,-0.368 3.785,-0.355 3.924,-0.337C4.191,-0.31 4.34,-0.286 4.371,-0.267C4.392,-0.253 4.404,-0.225 4.404,-0.184C4.404,-0.158 4.4,-0.125 4.396,-0.084C4.396,-0.058 4.394,-0.02 4.391,0.032L3.912,0.025L3.466,-0.013L3.158,-0.033L2.695,-0.018L2.349,-0.018C2.31,-0.02 2.248,-0.015 2.162,0C2.023,0.023 1.919,0.032 1.85,0.032L1.562,0.029C1.56,-0.029 1.558,-0.073 1.558,-0.105C1.558,-0.136 1.56,-0.181 1.562,-0.241L2.329,-0.401C2.362,-0.41 2.394,-0.424 2.425,-0.442C2.427,-0.569 2.429,-0.649 2.429,-0.68C2.429,-1.105 2.426,-1.394 2.42,-1.548C2.415,-1.702 2.412,-1.791 2.412,-1.817L2.412,-1.912C2.412,-2.088 2.321,-2.288 2.137,-2.518C2.059,-2.613 2.011,-2.677 1.991,-2.708L1.175,-3.95L0.792,-4.567C0.777,-4.589 0.692,-4.702 0.533,-4.907C0.482,-4.951 0.434,-4.983 0.387,-4.998C0.359,-5.011 0.233,-5.04 0.008,-5.087C-0.005,-5.112 -0.012,-5.135 -0.012,-5.154C-0.012,-5.171 -0.011,-5.192 -0.008,-5.22C-0.005,-5.244 -0.003,-5.284 0,-5.338" style="fill:rgb(190,155,96);fill-rule:nonzero;"/>
            </g>
            <g transform="matrix(1,0,0,1,129.923,84.1611)">
                <path d="M0,-4.842L-0.013,-5.171C0.037,-5.173 0.09,-5.174 0.142,-5.174C0.281,-5.174 0.428,-5.171 0.58,-5.163C0.947,-5.143 1.162,-5.133 1.228,-5.133C1.449,-5.133 1.667,-5.137 1.88,-5.147C2.093,-5.155 2.282,-5.16 2.447,-5.163C2.612,-5.165 2.725,-5.168 2.783,-5.171L2.779,-5.121L2.787,-4.879L2.787,-4.847C2.633,-4.823 2.471,-4.813 2.304,-4.813C2.148,-4.813 2.046,-4.781 1.996,-4.721C1.962,-4.682 1.946,-4.517 1.946,-4.225C1.946,-4.136 1.947,-4.065 1.949,-4.008L1.954,-3.858L1.946,-3.466L1.971,-3.132L1.954,-2.412L2.008,-1.367C2.022,-1.065 2.089,-0.813 2.208,-0.613C2.297,-0.466 2.422,-0.351 2.583,-0.267C2.816,-0.15 3.046,-0.092 3.271,-0.092C3.537,-0.092 3.786,-0.128 4.017,-0.196C4.152,-0.236 4.281,-0.298 4.401,-0.385C4.521,-0.473 4.606,-0.552 4.654,-0.625C4.754,-0.78 4.823,-0.921 4.862,-1.054C4.915,-1.238 4.94,-1.523 4.94,-1.908C4.94,-2.58 4.905,-3.336 4.834,-4.179L4.815,-4.401C4.808,-4.564 4.777,-4.674 4.726,-4.73C4.636,-4.816 4.536,-4.858 4.425,-4.858L4.034,-4.85L3.979,-4.863L3.987,-5.183L4.316,-5.183L5.112,-5.146C5.379,-5.146 5.633,-5.158 5.874,-5.183L5.946,-5.174C5.962,-5.083 5.971,-5.02 5.971,-4.984C5.971,-4.952 5.965,-4.915 5.954,-4.87C5.851,-4.843 5.742,-4.825 5.628,-4.821C5.442,-4.795 5.339,-4.775 5.32,-4.758C5.281,-4.725 5.262,-4.674 5.262,-4.604C5.262,-4.554 5.267,-4.482 5.274,-4.387C5.283,-4.319 5.287,-4.197 5.287,-4.024C5.287,-3.927 5.287,-3.851 5.289,-3.795C5.291,-3.74 5.292,-3.683 5.296,-3.623C5.304,-3.424 5.311,-3.221 5.316,-3.015L5.358,-2.168C5.358,-1.601 5.339,-1.223 5.299,-1.03C5.261,-0.839 5.207,-0.688 5.142,-0.576C5.038,-0.41 4.893,-0.256 4.704,-0.115C4.515,0.024 4.279,0.137 3.995,0.219C3.712,0.301 3.382,0.341 3.004,0.341C2.574,0.341 2.204,0.283 1.896,0.168C1.587,0.053 1.354,-0.098 1.198,-0.285C1.042,-0.473 0.934,-0.717 0.875,-1.017C0.833,-1.223 0.812,-1.517 0.812,-1.901L0.812,-3.888C0.812,-4.357 0.79,-4.622 0.746,-4.683C0.686,-4.769 0.494,-4.818 0.176,-4.829C0.105,-4.829 0.047,-4.834 0,-4.842" style="fill:rgb(190,155,96);fill-rule:nonzero;"/>
            </g>
            <g transform="matrix(1,0,0,1,143.932,84.2364)">
                <path d="M0,-5.18C0.035,-5.096 0.109,-4.859 0.22,-4.467C0.271,-4.289 0.297,-4.099 0.3,-3.901L-0.08,-3.901C-0.347,-4.278 -0.621,-4.549 -0.905,-4.715C-1.187,-4.88 -1.504,-4.963 -1.854,-4.963C-2.284,-4.963 -2.632,-4.794 -2.896,-4.458C-3.254,-4.002 -3.433,-3.368 -3.433,-2.555C-3.433,-2.081 -3.402,-1.746 -3.342,-1.547C-3.242,-1.222 -3.115,-0.956 -2.963,-0.751C-2.846,-0.596 -2.694,-0.471 -2.505,-0.379C-2.26,-0.255 -1.999,-0.192 -1.721,-0.192C-1.416,-0.192 -1.12,-0.286 -0.835,-0.477C-0.551,-0.666 -0.278,-0.949 -0.017,-1.326C0.086,-1.346 0.22,-1.356 0.387,-1.358C0.376,-1.254 0.357,-1.145 0.333,-1.03C0.325,-0.987 0.292,-0.811 0.237,-0.503L0.2,-0.379L0.142,-0.185C-0.028,-0.054 -0.266,0.045 -0.573,0.11C-0.88,0.175 -1.258,0.208 -1.705,0.208C-2.046,0.208 -2.369,0.175 -2.673,0.111C-2.978,0.049 -3.238,-0.054 -3.454,-0.192C-3.771,-0.392 -4.02,-0.609 -4.2,-0.842C-4.381,-1.075 -4.515,-1.329 -4.602,-1.606C-4.689,-1.879 -4.732,-2.188 -4.732,-2.531C-4.732,-3.357 -4.46,-4.041 -3.915,-4.579C-3.369,-5.118 -2.673,-5.388 -1.825,-5.388C-1.481,-5.388 -1.156,-5.37 -0.853,-5.335C-0.548,-5.301 -0.265,-5.248 0,-5.18" style="fill:rgb(190,155,96);fill-rule:nonzero;"/>
            </g>
            <g transform="matrix(1,0,0,1,149,81.2122)">
                <path d="M0,0.807C0.649,0.816 1.033,0.819 1.149,0.819L1.253,0.816C1.17,0.569 1.062,0.28 0.928,-0.049C0.795,-0.38 0.687,-0.63 0.603,-0.801L0,0.807ZM-1.959,3.149L-1.951,2.866C-1.897,2.849 -1.805,2.828 -1.673,2.802C-1.457,2.761 -1.328,2.723 -1.283,2.69C-1.237,2.657 -1.18,2.578 -1.113,2.449L-0.272,0.245L0.714,-2.342L1.167,-2.342L1.205,-2.267L1.93,-0.551C2.092,-0.187 2.24,0.166 2.37,0.509C2.5,0.852 2.613,1.132 2.707,1.349C2.764,1.48 2.839,1.675 2.937,1.935C2.986,2.078 3.062,2.255 3.165,2.47C3.22,2.585 3.263,2.654 3.291,2.673C3.341,2.713 3.422,2.743 3.533,2.756C3.646,2.77 3.768,2.802 3.898,2.852C3.912,2.945 3.919,3.013 3.919,3.056C3.919,3.076 3.918,3.106 3.915,3.149C3.71,3.149 3.483,3.139 3.235,3.119C2.988,3.1 2.767,3.09 2.569,3.09C2.35,3.09 2.192,3.092 2.094,3.099L1.386,3.135L1.183,3.144C1.183,3.048 1.186,2.954 1.194,2.866L1.657,2.765C1.796,2.729 1.876,2.702 1.898,2.682C1.927,2.654 1.94,2.621 1.94,2.585C1.94,2.549 1.934,2.512 1.919,2.473L1.754,2.065L1.427,1.249L-0.163,1.244C-0.222,1.378 -0.345,1.703 -0.53,2.223C-0.583,2.37 -0.609,2.471 -0.609,2.523C-0.609,2.596 -0.59,2.647 -0.552,2.678C-0.487,2.73 -0.365,2.768 -0.185,2.789C-0.159,2.796 -0.061,2.811 0.111,2.836C0.114,2.936 0.116,3.004 0.116,3.044C0.116,3.076 0.113,3.106 0.107,3.14C-0.064,3.14 -0.476,3.117 -1.126,3.069L-1.297,3.099C-1.502,3.131 -1.698,3.149 -1.885,3.149L-1.959,3.149Z" style="fill:rgb(190,155,96);fill-rule:nonzero;"/>
            </g>
            <g transform="matrix(1,0,0,1,155.755,84.365)">
                <path d="M0,-5.629L0.258,-5.629C0.277,-5.599 0.291,-5.575 0.299,-5.562C0.377,-5.427 0.437,-5.338 0.478,-5.296C0.515,-5.287 0.705,-5.283 1.049,-5.283C1.263,-5.283 1.453,-5.284 1.619,-5.286L1.702,-5.296L2.207,-5.3L3.148,-5.296L4.436,-5.296L4.683,-5.33C4.717,-5.355 4.757,-5.422 4.798,-5.531C4.81,-5.558 4.824,-5.592 4.845,-5.637L5.027,-5.642C5.055,-5.642 5.097,-5.64 5.152,-5.637C5.155,-5.445 5.157,-5.156 5.157,-4.772L5.161,-4.4L5.157,-4.188C5.157,-4.115 5.15,-4.053 5.14,-4C5.026,-3.963 4.927,-3.942 4.839,-3.933C4.769,-4.042 4.688,-4.198 4.604,-4.404C4.52,-4.609 4.466,-4.723 4.443,-4.745C4.409,-4.781 4.371,-4.805 4.327,-4.817C4.26,-4.83 3.965,-4.837 3.44,-4.837C3.363,-4.837 3.266,-4.831 3.148,-4.82C3.135,-4.712 3.128,-4.623 3.128,-4.554L3.131,-3.995L3.131,-2.771L3.146,-1.45L3.141,-0.908C3.141,-0.717 3.157,-0.572 3.19,-0.475C3.234,-0.456 3.317,-0.44 3.438,-0.421C3.46,-0.418 3.563,-0.397 3.747,-0.354C3.831,-0.335 3.905,-0.314 3.969,-0.287C3.983,-0.188 3.989,-0.128 3.989,-0.104C3.989,-0.079 3.986,-0.044 3.979,0.003C3.916,0.006 3.866,0.008 3.828,0.008C3.541,0.008 3.299,-0.003 3.099,-0.024C2.898,-0.044 2.536,-0.054 2.012,-0.054C1.928,-0.054 1.684,-0.037 1.277,-0.004C1.119,0.006 1.018,0.013 0.97,0.013C0.967,-0.029 0.964,-0.061 0.961,-0.084L0.957,-0.18L0.957,-0.213C1.019,-0.293 1.133,-0.353 1.303,-0.392C1.592,-0.461 1.792,-0.524 1.903,-0.58C1.931,-0.632 1.948,-0.701 1.953,-0.787C1.972,-1.12 1.982,-1.652 1.982,-2.38L1.961,-3.954C1.961,-4.388 1.953,-4.65 1.936,-4.742C1.931,-4.767 1.921,-4.785 1.906,-4.798C1.894,-4.811 1.873,-4.817 1.849,-4.82C1.763,-4.831 1.482,-4.837 1.007,-4.837C0.746,-4.837 0.571,-4.813 0.482,-4.763C0.362,-4.693 0.184,-4.504 -0.055,-4.194C-0.125,-4.107 -0.176,-4.062 -0.209,-4.062C-0.337,-4.129 -0.419,-4.184 -0.455,-4.225C-0.369,-4.405 -0.249,-4.767 -0.097,-5.309C-0.053,-5.467 -0.021,-5.573 0,-5.629" style="fill:rgb(190,155,96);fill-rule:nonzero;"/>
            </g>
            <g transform="matrix(1,0,0,1,166.087,83.0228)">
                <path d="M0,-4.444C0.087,-4.752 0.229,-5.196 0.426,-5.782L1.567,-5.774L0.313,-4.437C0.21,-4.433 0.149,-4.432 0.129,-4.432C0.091,-4.432 0.049,-4.437 0,-4.444M-0.501,-1.004C0.146,-0.995 0.53,-0.992 0.647,-0.992L0.751,-0.995C0.668,-1.242 0.56,-1.531 0.426,-1.86C0.293,-2.19 0.185,-2.44 0.101,-2.612L-0.501,-1.004ZM-2.461,1.338L-2.453,1.055C-2.401,1.038 -2.308,1.017 -2.174,0.992C-1.96,0.951 -1.83,0.912 -1.784,0.879C-1.738,0.846 -1.683,0.767 -1.616,0.638L-0.775,-1.565L0.212,-4.153L0.665,-4.153L0.703,-4.078L1.428,-2.362C1.591,-1.998 1.738,-1.644 1.868,-1.301C1.998,-0.959 2.11,-0.678 2.205,-0.462C2.261,-0.331 2.337,-0.135 2.435,0.124C2.483,0.267 2.56,0.445 2.663,0.66C2.719,0.775 2.761,0.843 2.788,0.863C2.838,0.903 2.919,0.932 3.031,0.946C3.144,0.959 3.265,0.992 3.396,1.041C3.41,1.134 3.417,1.202 3.417,1.245C3.417,1.265 3.415,1.295 3.412,1.338C3.207,1.338 2.98,1.328 2.733,1.308C2.487,1.289 2.265,1.28 2.066,1.28C1.847,1.28 1.689,1.282 1.592,1.288L0.884,1.325L0.68,1.333C0.68,1.238 0.684,1.144 0.692,1.055L1.154,0.954C1.293,0.918 1.375,0.891 1.396,0.871C1.425,0.843 1.437,0.811 1.437,0.775C1.437,0.739 1.432,0.702 1.417,0.662L1.252,0.254L0.925,-0.561L-0.665,-0.567C-0.726,-0.432 -0.847,-0.107 -1.033,0.412C-1.085,0.56 -1.111,0.66 -1.111,0.712C-1.111,0.785 -1.092,0.836 -1.054,0.868C-0.989,0.919 -0.867,0.957 -0.687,0.979C-0.662,0.986 -0.563,1 -0.391,1.026C-0.389,1.125 -0.387,1.194 -0.387,1.234C-0.387,1.265 -0.391,1.295 -0.395,1.329C-0.567,1.329 -0.979,1.306 -1.629,1.258L-1.799,1.288C-2.005,1.321 -2.201,1.338 -2.387,1.338L-2.461,1.338Z" style="fill:rgb(190,155,96);fill-rule:nonzero;"/>
            </g>
            <g transform="matrix(1,0,0,1,171.939,84.1635)">
                <path d="M0,-4.865L-0.018,-5.157L0.337,-5.157L0.457,-5.161C0.624,-5.169 0.738,-5.174 0.803,-5.174C0.837,-5.174 0.934,-5.171 1.095,-5.166C1.131,-5.162 1.162,-5.161 1.187,-5.161C1.212,-5.161 1.299,-5.163 1.449,-5.169C1.6,-5.174 1.684,-5.177 1.702,-5.177C1.733,-5.177 1.776,-5.176 1.832,-5.174C2.26,-4.784 2.608,-4.449 2.878,-4.17C3.147,-3.888 4.131,-2.907 5.828,-1.223L5.828,-1.329L5.811,-1.812C5.803,-2.094 5.791,-2.319 5.777,-2.483C5.764,-2.649 5.755,-2.846 5.752,-3.077C5.75,-3.304 5.74,-3.512 5.724,-3.698C5.69,-4.062 5.673,-4.272 5.673,-4.327C5.671,-4.508 5.651,-4.617 5.615,-4.657C5.557,-4.717 5.423,-4.763 5.215,-4.795C5.062,-4.819 4.949,-4.851 4.873,-4.89L4.878,-5.136L4.986,-5.148L5.807,-5.174L6.723,-5.198C6.784,-5.202 6.843,-5.203 6.898,-5.203L6.902,-4.931C6.839,-4.897 6.772,-4.873 6.706,-4.857C6.528,-4.815 6.427,-4.786 6.399,-4.769C6.256,-4.688 6.18,-4.64 6.169,-4.624C6.144,-4.591 6.132,-4.539 6.132,-4.469C6.132,-4.453 6.135,-4.394 6.14,-4.293C6.144,-4.243 6.144,-4.128 6.144,-3.943C6.147,-3.541 6.158,-3.223 6.177,-2.991C6.184,-2.916 6.187,-2.831 6.189,-2.737L6.235,-1.273C6.238,-1.171 6.239,-1.098 6.239,-1.056L6.239,-0.545L6.252,-0.328L6.239,-0.102C6.251,0.012 6.256,0.078 6.256,0.1L6.256,0.322L5.777,0.338L5.281,-0.174L4.27,-1.177L3.562,-1.886L3.04,-2.42C2.701,-2.753 2.394,-3.047 2.115,-3.299L1.436,-3.911L1.474,-2.361C1.478,-2.266 1.479,-2.17 1.479,-2.07L1.474,-1.775L1.5,-1.229C1.507,-1 1.522,-0.753 1.545,-0.486C1.55,-0.414 1.557,-0.364 1.565,-0.335C1.573,-0.306 1.59,-0.262 1.615,-0.207C1.724,-0.168 1.96,-0.138 2.323,-0.119C2.35,-0.114 2.385,-0.105 2.433,-0.091L2.449,0.247L2.286,0.251C2.197,0.251 1.917,0.23 1.445,0.189C1.002,0.196 0.708,0.202 0.562,0.214C0.414,0.225 0.334,0.23 0.319,0.23C0.286,0.23 0.24,0.225 0.183,0.214C0.178,0.15 0.174,0.094 0.174,0.047C0.174,0.017 0.177,-0.033 0.178,-0.102C0.256,-0.116 0.319,-0.124 0.369,-0.124C0.387,-0.124 0.44,-0.12 0.532,-0.115C0.766,-0.115 0.904,-0.133 0.946,-0.168C0.989,-0.202 1.015,-0.296 1.02,-0.448C1.039,-0.89 1.049,-1.159 1.049,-1.257L1.049,-1.487L1.057,-2.842L1.045,-3.685C1.042,-4.008 1.021,-4.231 0.982,-4.357C0.966,-4.421 0.934,-4.475 0.887,-4.523C0.789,-4.624 0.681,-4.698 0.562,-4.748C0.489,-4.778 0.301,-4.818 0,-4.865" style="fill:rgb(190,155,96);fill-rule:nonzero;"/>
            </g>
            <g transform="matrix(1,0,0,1,122.402,94.3171)">
                <path d="M0,0.002L-1.337,1.341L-2.102,0.574C-2.418,0.259 -2.418,-0.256 -2.102,-0.569L-1.337,-1.336L0,0.002ZM4.023,0.002L2.275,1.75L0.526,0.002L2.275,-1.747L4.023,0.002ZM5.886,-1.336L6.652,-0.569C6.805,-0.418 6.889,-0.216 6.889,0.002C6.889,0.218 6.805,0.421 6.652,0.574L5.886,1.341L4.548,0.002L5.886,-1.336ZM3.875,-3.014C4.09,-3.014 4.292,-2.928 4.447,-2.774L5.624,-1.599L4.287,-0.261L2.536,-2.011L3.302,-2.774C3.455,-2.928 3.658,-3.014 3.875,-3.014M0.675,-3.014C0.89,-3.014 1.093,-2.928 1.247,-2.774L2.012,-2.011L0.263,-0.261L-1.074,-1.598L0.102,-2.774C0.255,-2.928 0.459,-3.014 0.675,-3.014M0.675,3.015C0.457,3.015 0.255,2.931 0.102,2.778L-1.074,1.603L0.263,0.264L2.012,2.013L1.247,2.778C1.094,2.931 0.892,3.015 0.675,3.015M3.875,3.015C3.658,3.015 3.455,2.931 3.302,2.778L2.536,2.013L4.287,0.264L5.625,1.601L4.447,2.778C4.293,2.931 4.091,3.015 3.875,3.015M-2.155,2.683L-1.337,1.864L-0.159,3.04C0.064,3.264 0.361,3.386 0.675,3.386C0.99,3.386 1.287,3.264 1.51,3.04L2.275,2.276L3.041,3.04C3.262,3.264 3.558,3.386 3.875,3.386C4.192,3.386 4.486,3.264 4.708,3.04L5.886,1.862L6.708,2.683L6.973,2.683L6.973,2.426L6.149,1.603L6.913,0.836C7.136,0.615 7.259,0.317 7.259,0.002C7.259,-0.314 7.136,-0.609 6.913,-0.834L6.149,-1.599L6.974,-2.423L6.974,-2.686L6.711,-2.686L5.886,-1.86L4.708,-3.037C4.485,-3.262 4.19,-3.384 3.875,-3.384C3.559,-3.384 3.262,-3.262 3.041,-3.037L2.275,-2.272L1.51,-3.037C1.286,-3.262 0.99,-3.384 0.675,-3.384C0.361,-3.384 0.064,-3.262 -0.159,-3.037L-1.337,-1.86L-2.162,-2.686L-2.423,-2.686L-2.423,-2.424L-1.6,-1.598L-2.364,-0.834C-2.587,-0.609 -2.711,-0.314 -2.709,0.002C-2.709,0.32 -2.587,0.615 -2.364,0.836L-1.6,1.603L-2.423,2.426L-2.423,2.683L-2.155,2.683Z" style="fill:rgb(190,155,96);fill-rule:nonzero;"/>
            </g>
            <g transform="matrix(1,0,0,1,114.54,67.4688)">
                <path d="M0,1.942L0.808,1.669L1.492,2.178L1.482,1.326L2.179,0.833L1.363,0.58L1.11,-0.236L0.617,0.462L-0.237,0.449L0.273,1.134L0,1.942Z" style="fill:rgb(190,155,96);fill-rule:nonzero;"/>
            </g>
            <g transform="matrix(1,0,0,1,124.841,71.3524)">
                <path d="M0,2.327L0.378,1.561L1.222,1.439L0.612,0.843L0.755,0L0,0.398L-0.756,0L-0.61,0.843L-1.223,1.439L-0.378,1.561L0,2.327Z" style="fill:rgb(190,155,96);fill-rule:nonzero;"/>
            </g>
            <g transform="matrix(1,0,0,1,119.26,70.1281)">
                <path d="M0,2.439L0.642,1.877L1.47,2.086L1.134,1.303L1.588,0.58L0.739,0.658L0.192,0L0.004,0.834L-0.79,1.148L-0.056,1.587L0,2.439Z" style="fill:rgb(190,155,96);fill-rule:nonzero;"/>
            </g>
            <g transform="matrix(1,0,0,1,130.845,69.9535)">
                <path d="M0,2.429L0.028,1.577L0.749,1.115L-0.056,0.825L-0.27,0L-0.795,0.673L-1.645,0.622L-1.167,1.329L-1.479,2.124L-0.659,1.889L0,2.429Z" style="fill:rgb(190,155,96);fill-rule:nonzero;"/>
            </g>
            <g transform="matrix(1,0,0,1,135.142,67.4688)">
                <path d="M0,1.942L-0.273,1.134L0.237,0.449L-0.616,0.462L-1.109,-0.236L-1.362,0.58L-2.178,0.833L-1.481,1.326L-1.491,2.178L-0.809,1.669L0,1.942Z" style="fill:rgb(190,155,96);fill-rule:nonzero;"/>
            </g>
            <g transform="matrix(1,0,0,1,126.56,47.0979)">
                <path d="M0,16.08C1.246,14.415 2.358,10.103 1.799,-3.026C1.798,-3.049 1.779,-3.068 1.756,-3.069C1.73,-3.071 1.713,-3.053 1.709,-3.031C1.704,-2.994 1.167,0.644 -0.264,5.168C-1.583,9.341 -3.954,15.141 -7.756,19.076C-7.77,19.09 -7.772,19.113 -7.762,19.13C-7.753,19.144 -7.739,19.151 -7.724,19.151C-7.719,19.151 -7.714,19.151 -7.71,19.149L-1.218,17.053C-0.749,16.902 -0.289,16.466 0,16.08" style="fill:rgb(190,155,96);fill-rule:nonzero;"/>
            </g>
            <g transform="matrix(1,0,0,1,130.96,60.321)">
                <path d="M0,-3.207C-0.681,-4.834 -1.607,-6.158 -1.616,-6.171C-1.628,-6.188 -1.649,-6.195 -1.669,-6.188C-1.688,-6.182 -1.699,-6.162 -1.698,-6.142C-1.557,0.641 -3.072,2.882 -3.095,2.92C-3.104,2.936 -3.104,2.957 -3.091,2.971C-3.083,2.982 -3.07,2.988 -3.057,2.988C-3.052,2.988 -3.047,2.987 -3.042,2.986L-0.611,2.152C0.27,1.85 0.873,1.014 0.841,0.083C0.803,-1.022 0.407,-2.234 0,-3.207" style="fill:rgb(190,155,96);fill-rule:nonzero;"/>
            </g>
            <g transform="matrix(1,0,0,1,131.188,67.7839)">
                <path d="M0,-4.644L-12.014,-0.63C-12.04,-0.622 -12.038,-0.584 -12.012,-0.578C-12.012,-0.578 -11.751,-0.501 -11.231,-0.307C-10.569,-0.06 -9.738,0.009 -8.397,-0.271C-6.996,-0.565 -3.531,-1.692 -2.474,-2.161C-1.497,-2.593 -1.049,-2.858 -0.634,-3.445C-0.245,-3.994 0.028,-4.6 0.028,-4.6C0.048,-4.62 0.027,-4.653 0,-4.644" style="fill:rgb(190,155,96);fill-rule:nonzero;"/>
            </g>
        </g>
    </g>
</svg>
