<?xml version="1.0" encoding="utf-8"?>
<!-- Generator: Adobe Illustrator 24.0.0, SVG Export Plug-In . SVG Version: 6.00 Build 0)  -->
<svg version="1.1" id="Capa_1" xmlns="http://www.w3.org/2000/svg" xmlns:xlink="http://www.w3.org/1999/xlink" x="0px" y="0px"
	 viewBox="0 0 1000 200" style="enable-background:new 0 0 1000 200;" xml:space="preserve">
<style type="text/css">
	.st0{fill:#0071CE;}
</style>
<g>
	<path class="st0" d="M38.6,54l-3.9-8.3c-0.3-0.7-0.2-1.5,0.2-2l3.1-3.9c0.4-0.5,0.9-0.7,1.5-0.7h24.7c0.8,0,1.4-0.9,1-1.6L60,26.6
		c-0.2-0.4-0.6-0.7-1-0.7H31.3c-0.8,0-1.4,0.9-1,1.6l3.9,8.3c0.3,0.7,0.2,1.5-0.2,2l-3.1,3.9c-0.4,0.5-0.9,0.7-1.5,0.7h-9.6
		c-0.8,0-1.4,0.9-1,1.6L23.9,55c0.2,0.4,0.6,0.7,1,0.7h12.6C38.4,55.7,38.9,54.8,38.6,54z"/>
	<path class="st0" d="M80.4,56.7l-5.2-10.9c-0.2-0.4-0.6-0.7-1-0.7H61.7c-0.8,0-1.4,0.9-1,1.6l3.9,8.3c0.3,0.7,0.2,1.4-0.2,2
		L61.4,61c-0.4,0.5-0.9,0.8-1.5,0.8H35.2c-0.8,0-1.4,0.9-1,1.6l5.2,10.9c0.2,0.4,0.6,0.7,1,0.7H68c0.8,0,1.4-0.9,1-1.6L65.1,65
		c-0.3-0.7-0.2-1.4,0.2-2l2.9-3.9c0.4-0.5,0.9-0.8,1.5-0.8h9.6C80.2,58.4,80.8,57.5,80.4,56.7z"/>
</g>
<g>
	<path class="st0" d="M183.2,63.4h-16.9V40.8c0-9.2-7.5-16.6-16.6-16.6c-9.2,0-16.6,7.5-16.6,16.6v22.6h-16.9v-2.1h14.9V40.8
		c0-10.3,8.4-18.7,18.7-18.7c10.3,0,18.7,8.4,18.7,18.7v20.5h14.8V63.4z"/>
	<path class="st0" d="M178.2,68.5h-16.9V41.3c0-6.4-5.2-11.7-11.7-11.7c-6.4,0-11.7,5.2-11.7,11.7v27.2H121v-2.1h14.8V41.3
		c0-7.6,6.2-13.7,13.7-13.7c7.6,0,13.7,6.2,13.7,13.7v25.1h14.8V68.5z"/>
	<path class="st0" d="M173.3,73.6h-16.9V41.9c0-3.7-3-6.7-6.7-6.7s-6.7,3-6.7,6.7v31.7H126v-2.1h14.8V41.9c0-4.9,3.9-8.8,8.8-8.8
		c4.9,0,8.8,3.9,8.8,8.8v29.6h14.8V73.6z"/>
	<path class="st0" d="M167.8,78.7h-16.4V42.4c0-1-0.8-1.8-1.8-1.8c-1,0-1.8,0.8-1.8,1.8v36.3h-16.4v-2.1h14.3V42.4
		c0-2.1,1.7-3.9,3.9-3.9s3.9,1.7,3.9,3.9v34.2h14.3V78.7z"/>
</g>
<g>
	<polygon class="st0" points="230.4,68.2 249.6,56.3 249.6,42.5 230.4,54.4 	"/>
	<polygon class="st0" points="268.9,82.1 249.6,70.1 249.6,56.3 268.9,68.2 	"/>
	<polygon class="st0" points="268.9,54.4 249.6,42.5 249.6,18.8 268.9,30.7 	"/>
</g>
<g>
	<path class="st0" d="M345.6,41.1l1.5-4.2h-21.9c-2.1,0-3.9,1.3-4.6,3.2l-1.5,4.2H341C343,44.3,344.9,43,345.6,41.1z"/>
	<path class="st0" d="M378.6,36.9h-4.5h-8.8c-2.1,0-3.9,1.3-4.6,3.2l-1.5,4.2h8.8l-7.1,19.6h4.5c2.1,0,3.9-1.3,4.6-3.2l6-16.4h5.3
		c2.1,0,3.9-1.3,4.6-3.2l1.5-4.2H378.6z"/>
	<path class="st0" d="M311.9,63.9h4.4c2.1,0,3.9-1.3,4.6-3.2l2.1-5.7h9.1c2.1,0,3.9-1.3,4.6-3.2l1.5-4.2h-20.4L311.9,63.9z"/>
	<path class="st0" d="M349.4,40.1l-8.7,23.8h4.4c2.1,0,3.9-1.3,4.6-3.3l8.6-23.8H354C352,36.9,350.1,38.2,349.4,40.1z"/>
</g>
<g>
	<g>
		<polygon class="st0" points="471.3,45.8 471.3,43.4 458.9,42.7 470.1,37.3 469.2,35.1 457.4,39.3 465.8,29.9 464.1,28.3 
			454.9,36.7 459.1,24.8 456.8,23.9 451.5,35.2 450.8,22.7 448.4,22.7 447.8,35.2 442.4,23.9 440.2,24.8 444.3,36.7 435.1,28.3 
			433.4,29.9 441.8,39.3 430,35.1 429.1,37.3 440.3,42.7 427.9,43.4 427.9,45.8 446,46.7 444.6,56.5 454.6,56.5 453.3,46.7 		"/>
	</g>
	<g>
		<path class="st0" d="M446,68.7l-1.4-12.3h-16.7c0,12,9.7,21.7,21.7,21.7c12,0,21.7-9.7,21.7-21.7h-16.7l-1.4,12.3H446z"/>
	</g>
</g>
<g>
	<polygon class="st0" points="547.3,38 547.3,39.5 547.3,48.1 547.3,52.7 547.3,61.3 547.3,62.9 547.3,71.5 551.9,71.5 551.9,62.9 
		551.9,61.3 551.9,52.7 551.9,48.1 551.9,39.5 551.9,38 551.9,29.3 547.3,29.3 	"/>
	<rect x="553.4" y="61.3" class="st0" width="10.5" height="1.5"/>
	<rect x="535.3" y="61.3" class="st0" width="10.5" height="1.5"/>
	<path class="st0" d="M566.8,48.1V26.3h-14.9v-2.4h-4.6v2.4h-14.9v21.8h-2.1v4.6h2.1v21.8h14.9v2.4h4.6v-2.4h14.9V52.7h2.1v-4.6
		H566.8z M565.4,61.3v1.5V73h-0.1v0h-13.4v0h-4.6v0h-13.4v0h-0.1V62.9v-1.5v-8.6v-4.6v-8.6V38V27.8h0.1v0h13.4v0h4.6v0h13.4v0h0.1
		V38v1.5v8.6v4.6V61.3z"/>
	<rect x="553.4" y="48.1" class="st0" width="10.5" height="4.6"/>
	<rect x="535.3" y="48.1" class="st0" width="10.5" height="4.6"/>
	<rect x="535.3" y="38" class="st0" width="10.5" height="1.5"/>
	<rect x="553.4" y="38" class="st0" width="10.5" height="1.5"/>
</g>
<path class="st0" d="M670,30.1h-40.7v13.6h27.6c0.2,0,0.4,0.3,0.2,0.5l-9.9,12.6c-0.2,0.3-0.6,0.5-1,0.5h-16.9v13.6h8.1
	c0.4,0,0.7-0.2,1-0.5l9.9-12.6c0.2-0.3,0.6-0.5,1-0.5H670V43.6h-10.1c-0.2,0-0.4-0.3-0.2-0.5L670,30.1z"/>
<g>
	<g>
		<path class="st0" d="M745.6,21.9c-0.2-0.3-0.5-0.5-0.9-0.6c-0.4-0.1-0.7-0.2-1-0.2c-0.2,0-0.4,0-0.6,0.1c-0.2,0-0.4,0.1-0.6,0.2
			c-0.2,0.1-0.3,0.2-0.4,0.4c-0.1,0.2-0.2,0.3-0.2,0.6c0,0.4,0.1,0.6,0.4,0.8c0.3,0.2,0.6,0.3,1,0.5c0.4,0.1,0.8,0.3,1.3,0.4
			c0.5,0.1,0.9,0.3,1.3,0.6c0.4,0.2,0.7,0.6,1,1c0.3,0.4,0.4,1,0.4,1.6c0,0.7-0.1,1.2-0.4,1.7c-0.2,0.5-0.6,0.9-1,1.2
			c-0.4,0.3-0.9,0.6-1.4,0.7c-0.5,0.2-1.1,0.2-1.7,0.2c-0.8,0-1.5-0.1-2.1-0.3c-0.7-0.2-1.3-0.6-1.8-1.1l1.8-2
			c0.3,0.4,0.6,0.6,1,0.8c0.4,0.2,0.8,0.3,1.3,0.3c0.2,0,0.4,0,0.6-0.1c0.2,0,0.4-0.1,0.6-0.2c0.2-0.1,0.3-0.2,0.4-0.4
			c0.1-0.2,0.2-0.3,0.2-0.5c0-0.4-0.1-0.6-0.4-0.8c-0.3-0.2-0.6-0.4-1-0.5c-0.4-0.1-0.9-0.3-1.3-0.4c-0.5-0.1-0.9-0.3-1.3-0.6
			c-0.4-0.2-0.7-0.6-1-1c-0.3-0.4-0.4-0.9-0.4-1.6c0-0.6,0.1-1.2,0.4-1.7c0.2-0.5,0.6-0.9,1-1.2c0.4-0.3,0.9-0.6,1.4-0.7
			c0.5-0.2,1.1-0.2,1.7-0.2c0.7,0,1.3,0.1,1.9,0.3c0.6,0.2,1.2,0.5,1.7,0.9L745.6,21.9z"/>
		<path class="st0" d="M759.1,26.3c0,0.7-0.1,1.3-0.3,1.9c-0.2,0.6-0.5,1.1-0.9,1.5s-0.9,0.8-1.5,1c-0.6,0.2-1.3,0.4-2.1,0.4
			c-0.8,0-1.5-0.1-2.2-0.4c-0.6-0.2-1.1-0.6-1.5-1c-0.4-0.4-0.7-0.9-0.9-1.5c-0.2-0.6-0.3-1.2-0.3-1.9v-7.2h2.6v7.1
			c0,0.4,0.1,0.7,0.2,1c0.1,0.3,0.3,0.6,0.5,0.8c0.2,0.2,0.5,0.4,0.8,0.5c0.3,0.1,0.6,0.2,1,0.2c0.3,0,0.7-0.1,0.9-0.2
			c0.3-0.1,0.5-0.3,0.7-0.5c0.2-0.2,0.4-0.5,0.5-0.8c0.1-0.3,0.2-0.6,0.2-1v-7.1h2.6V26.3z"/>
		<path class="st0" d="M738.4,36.5h4.4c0.5,0,1,0,1.5,0.1c0.5,0.1,1,0.2,1.4,0.4c0.4,0.2,0.7,0.5,1,0.9c0.3,0.4,0.4,0.9,0.4,1.5
			c0,0.7-0.2,1.2-0.6,1.6c-0.4,0.4-0.9,0.7-1.5,0.9v0c0.4,0.1,0.7,0.2,1.1,0.3c0.3,0.2,0.6,0.4,0.8,0.6c0.2,0.2,0.4,0.5,0.5,0.9
			c0.1,0.3,0.2,0.7,0.2,1.1c0,0.6-0.1,1.1-0.4,1.5c-0.3,0.4-0.6,0.7-1,1c-0.4,0.3-0.9,0.4-1.4,0.5c-0.5,0.1-1,0.2-1.6,0.2h-4.8V36.5
			z M741,41.2h1.9c0.2,0,0.4,0,0.6-0.1c0.2,0,0.4-0.1,0.5-0.2c0.2-0.1,0.3-0.2,0.4-0.4c0.1-0.2,0.1-0.4,0.1-0.6
			c0-0.2-0.1-0.4-0.2-0.6c-0.1-0.2-0.2-0.3-0.4-0.4c-0.2-0.1-0.4-0.2-0.6-0.2c-0.2,0-0.4-0.1-0.6-0.1H741V41.2z M741,46h2.3
			c0.2,0,0.4,0,0.6-0.1c0.2,0,0.4-0.1,0.6-0.2c0.2-0.1,0.3-0.3,0.4-0.4c0.1-0.2,0.2-0.4,0.2-0.6c0-0.3-0.1-0.5-0.2-0.7
			c-0.1-0.2-0.3-0.3-0.5-0.4c-0.2-0.1-0.4-0.1-0.7-0.2c-0.2,0-0.5,0-0.7,0h-2V46z"/>
		<path class="st0" d="M749.2,36.5h2.6v9.3h4.8v2.4h-7.4V36.5z"/>
		<path class="st0" d="M758,36.5h2.6v11.7H758V36.5z"/>
		<path class="st0" d="M737.6,53.9h3.9l2.7,7.7h0l2.7-7.7h3.9v11.7h-2.6v-9h0l-3.1,9h-2l-3-9h0v9h-2.6V53.9z"/>
		<path class="st0" d="M753.3,53.9h8v2.4h-5.4v2.2h5.1v2.4h-5.1v2.4h5.7v2.4h-8.3V53.9z"/>
	</g>
	<g>
		<path class="st0" d="M737.6,71.7h1.3l0.9,2.6h0l0.9-2.6h1.3v4h-0.9v-3.1h0l-1.1,3.1h-0.7l-1-3.1h0v3.1h-0.9V71.7z"/>
		<path class="st0" d="M743.5,73.7c0-0.3,0.1-0.6,0.2-0.9c0.1-0.3,0.3-0.5,0.5-0.7c0.2-0.2,0.4-0.3,0.7-0.4c0.3-0.1,0.6-0.1,0.9-0.1
			s0.6,0,0.9,0.1c0.3,0.1,0.5,0.2,0.7,0.4c0.2,0.2,0.3,0.4,0.5,0.7c0.1,0.3,0.2,0.6,0.2,0.9c0,0.3-0.1,0.6-0.2,0.9
			c-0.1,0.3-0.3,0.5-0.5,0.7c-0.2,0.2-0.4,0.3-0.7,0.4c-0.3,0.1-0.6,0.1-0.9,0.1s-0.6,0-0.9-0.1c-0.3-0.1-0.5-0.2-0.7-0.4
			c-0.2-0.2-0.3-0.4-0.5-0.7C743.6,74.3,743.5,74,743.5,73.7z M744.5,73.7c0,0.2,0,0.4,0.1,0.5c0.1,0.2,0.1,0.3,0.3,0.4
			c0.1,0.1,0.2,0.2,0.4,0.3c0.2,0.1,0.3,0.1,0.5,0.1s0.4,0,0.5-0.1c0.2-0.1,0.3-0.2,0.4-0.3c0.1-0.1,0.2-0.3,0.3-0.4
			c0.1-0.2,0.1-0.3,0.1-0.5c0-0.2,0-0.4-0.1-0.5c-0.1-0.2-0.1-0.3-0.3-0.4c-0.1-0.1-0.2-0.2-0.4-0.3c-0.2-0.1-0.3-0.1-0.5-0.1
			s-0.4,0-0.5,0.1c-0.2,0.1-0.3,0.2-0.4,0.3c-0.1,0.1-0.2,0.3-0.3,0.4C744.5,73.3,744.5,73.5,744.5,73.7z"/>
		<path class="st0" d="M749.3,71.7h1.2l1.7,2.8h0v-2.8h0.9v4H752l-1.8-2.9h0v2.9h-0.9V71.7z"/>
		<path class="st0" d="M755.6,72.4h-1.1v-0.8h3.2v0.8h-1.1v3.2h-0.9V72.4z"/>
		<path class="st0" d="M758.9,71.7h2.7v0.8h-1.8v0.7h1.7V74h-1.7v0.8h1.9v0.8h-2.8V71.7z"/>
		<path class="st0" d="M737.6,77.9h1.5c0.2,0,0.3,0,0.5,0c0.2,0,0.3,0.1,0.5,0.1c0.1,0.1,0.3,0.2,0.3,0.3c0.1,0.1,0.1,0.3,0.1,0.5
			c0,0.2-0.1,0.4-0.2,0.6c-0.1,0.1-0.3,0.3-0.5,0.3v0c0.1,0,0.3,0.1,0.4,0.1c0.1,0.1,0.2,0.1,0.3,0.2c0.1,0.1,0.1,0.2,0.2,0.3
			c0,0.1,0.1,0.2,0.1,0.4c0,0.2,0,0.4-0.1,0.5c-0.1,0.1-0.2,0.3-0.4,0.3c-0.1,0.1-0.3,0.1-0.5,0.2c-0.2,0-0.4,0.1-0.5,0.1h-1.6V77.9
			z M738.5,79.5h0.6c0.1,0,0.1,0,0.2,0c0.1,0,0.1,0,0.2-0.1c0.1,0,0.1-0.1,0.1-0.1c0-0.1,0-0.1,0-0.2c0-0.1,0-0.2-0.1-0.2
			c0-0.1-0.1-0.1-0.1-0.1c-0.1,0-0.1-0.1-0.2-0.1c-0.1,0-0.1,0-0.2,0h-0.6V79.5z M738.5,81.2h0.8c0.1,0,0.1,0,0.2,0
			c0.1,0,0.1,0,0.2-0.1c0.1,0,0.1-0.1,0.1-0.1c0-0.1,0.1-0.1,0.1-0.2c0-0.1,0-0.2-0.1-0.2c0-0.1-0.1-0.1-0.2-0.1
			c-0.1,0-0.1-0.1-0.2-0.1c-0.1,0-0.2,0-0.2,0h-0.7V81.2z"/>
		<path class="st0" d="M743,77.9h2.7v0.8h-1.8v0.7h1.7v0.8h-1.7v0.8h1.9V82H743V77.9z"/>
		<path class="st0" d="M748.3,77.9h0.9v3.2h1.6V82h-2.5V77.9z"/>
		<path class="st0" d="M753,77.9h0.9v3.2h1.6V82H753V77.9z"/>
		<path class="st0" d="M757.5,79.9c0-0.3,0.1-0.6,0.2-0.9c0.1-0.3,0.3-0.5,0.5-0.7c0.2-0.2,0.4-0.3,0.7-0.4c0.3-0.1,0.6-0.1,0.9-0.1
			c0.3,0,0.6,0,0.9,0.1c0.3,0.1,0.5,0.2,0.7,0.4c0.2,0.2,0.3,0.4,0.5,0.7c0.1,0.3,0.2,0.6,0.2,0.9c0,0.3-0.1,0.6-0.2,0.9
			c-0.1,0.3-0.3,0.5-0.5,0.7c-0.2,0.2-0.4,0.3-0.7,0.4c-0.3,0.1-0.6,0.1-0.9,0.1c-0.3,0-0.6,0-0.9-0.1c-0.3-0.1-0.5-0.2-0.7-0.4
			c-0.2-0.2-0.3-0.4-0.5-0.7C757.6,80.6,757.5,80.3,757.5,79.9z M758.4,79.9c0,0.2,0,0.4,0.1,0.5c0.1,0.2,0.1,0.3,0.3,0.4
			c0.1,0.1,0.2,0.2,0.4,0.3c0.2,0.1,0.3,0.1,0.5,0.1c0.2,0,0.4,0,0.5-0.1c0.2-0.1,0.3-0.2,0.4-0.3c0.1-0.1,0.2-0.3,0.3-0.4
			c0.1-0.2,0.1-0.3,0.1-0.5c0-0.2,0-0.4-0.1-0.5c-0.1-0.2-0.1-0.3-0.3-0.4c-0.1-0.1-0.2-0.2-0.4-0.3c-0.2-0.1-0.3-0.1-0.5-0.1
			c-0.2,0-0.4,0-0.5,0.1c-0.2,0.1-0.3,0.2-0.4,0.3c-0.1,0.1-0.2,0.3-0.3,0.4C758.5,79.6,758.4,79.8,758.4,79.9z"/>
	</g>
	<g>
		<rect x="737.2" y="33.3" class="st0" width="24.7" height="0.9"/>
		<rect x="737.2" y="68.1" class="st0" width="24.7" height="0.9"/>
		<rect x="737.2" y="50.7" class="st0" width="24.7" height="0.9"/>
	</g>
</g>
<g id="XMLID_146_">
	<path id="XMLID_150_" class="st0" d="M242.4,160.2H240l-2,4.2c-1.2,2.5-4.4,9.7-4.4,9.7h8.5l0-0.8c0,0-6.1,0-4.5-2.9L242.4,160.2z"
		/>
	<path id="XMLID_147_" class="st0" d="M271,170.1l-20-43.4h-3.2L228,169.3c-2.2,4.3-6,4-6,4v0.8h6.2l17.3-37.4l0.8,1.4l-16.6,35.9
		h2.4l7-15H256l4.8,10.5c1.3,2.7-5.4,3.7-5.4,3.7v0.8h21.9v-0.8C277.2,173.3,272.7,172.9,271,170.1z M239.9,157l7.5-16.2l0.8,1.7
		l-6.2,13.5h2.4l5-10.9l5.6,12H239.9z"/>
</g>
<g>
	<path class="st0" d="M859,40.6c-3-4.9-5.2-9.7-8.9-15.5c0,0-6.3,11.2-8.1,15.9c0,0-7.1-3.4-14.2-6.2c0,0,2.5,7.8,5.4,15.3
		c2.3,6,5,12.9,7.1,14c-3.4-5.4,0.6-9.9,7.6-13c1.6-0.7,3.4-0.6,4.9,0.3c6.3,3.7,8.9,6.4,7.1,8.3c-2.5,2.6-11.3,2.1-14,1.8
		c-0.1,0-0.1,0-0.2-0.1c-0.3-0.1-0.5-0.3-0.7-0.4c-0.1-0.1-0.1-0.1-0.2-0.2c0,0,0,0,0,0c0,0,0,0,0,0c0,0,0,0,0,0c0,0,0,0,0,0
		c0-0.1,0-0.1,0-0.2c0-0.1,0.1-0.3,0.2-0.5c0.3-0.4,0.7-0.9,1.2-1.4c0.3-0.2,0.5-0.5,0.8-0.7c0.3-0.2,0.6-0.4,0.9-0.7
		c0.6-0.4,1.2-0.8,1.8-1.2l0.5-0.3c0.1-0.1,0.2-0.1,0.3-0.1c0.2-0.1,0.4-0.1,0.6-0.1c0.1,0,0.1,0,0.2,0c0.1,0,0.2,0.1,0.3,0.1
		c0.2,0.1,0.4,0.1,0.5,0.2c0.4,0.1,0.7,0.3,1.1,0.4c1.4,0.6,2.8,1.2,4.2,2c-0.5-0.7-1-1.3-1.6-1.8c-0.6-0.6-1.2-1.1-1.8-1.6
		c-0.3-0.2-0.7-0.5-1-0.7c-0.2-0.1-0.3-0.2-0.5-0.3c-0.1-0.1-0.2-0.1-0.3-0.2c-0.1-0.1-0.3-0.1-0.4-0.2c-0.5-0.2-1.1-0.3-1.7-0.2
		c-0.3,0-0.6,0.1-0.8,0.2l-0.3,0.1l-0.3,0.1c-0.8,0.3-1.5,0.7-2.3,1.1c-0.7,0.4-1.4,0.9-2.1,1.4c-0.3,0.3-0.7,0.6-1,0.9
		c-0.3,0.3-0.6,0.7-0.9,1.1c-0.3,0.4-0.5,1-0.7,1.6c0,0.2-0.1,0.3-0.1,0.5c0,0.2,0,0.4,0,0.5c0,0.2,0,0.4,0.1,0.5
		c0,0.1,0,0.2,0.1,0.3c0,0.1,0.1,0.2,0.1,0.3c0,0.1,0.1,0.2,0.1,0.3c0,0.1,0.1,0.2,0.1,0.3c0.1,0.1,0.1,0.2,0.2,0.2
		c0.1,0.1,0.1,0.1,0.2,0.2c0.2,0.3,0.5,0.5,0.7,0.6c0.5,0.3,0.9,0.6,1.3,0.8c0.9,0.4,1.7,0.6,2.5,0.8c1.7,0.3,3.3,0.5,4.9,0.4
		c1.6,0,3.2-0.2,4.8-0.5c0.8-0.2,1.6-0.3,2.4-0.6c0.5-0.2,1.1-0.4,1.6-0.6c0.9-0.3,1.9-1,2.6-2.8c1.8-4.7,5.6-15.5,8.2-27.8
		C871.4,33.1,861.5,38.6,859,40.6z"/>
	<path class="st0" d="M840.8,66.1l3.8,8.3c0,0,2.8,1.3,6.7,1.3c4.1,0,6.9-1.3,6.9-1.3l3.1-8.3c0,0-3.4,1.8-10,1.8
		C845.2,67.9,840.8,66.1,840.8,66.1z"/>
</g>
<g>
	<path class="st0" d="M49.6,177c10.7,0,19.3-8.7,19.3-19.3h-8.5c0,6-4.9,10.8-10.8,10.8s-10.8-4.9-10.8-10.8h-8.5
		C30.3,168.3,39,177,49.6,177z"/>
	<polygon class="st0" points="31.4,149.9 40.9,149.9 49.6,137.4 58.3,149.9 67.9,149.9 49.6,123.8 	"/>
</g>
<g>
	<path class="st0" d="M155.6,158.8c0,1.1-0.1,2.2-0.4,3.3c0.4,0,0.8,0,1.3,0c10.2,0,18.6-8.3,18.6-18.6c0-10.2-8.3-18.6-18.6-18.6
		c-10.2,0-18.6,8.3-18.6,18.6c0,0.4,0,0.8,0,1.3c1.1-0.2,2.2-0.4,3.3-0.4C149.2,144.5,155.6,150.9,155.6,158.8z"/>
	<path class="st0" d="M156.5,165.6c-0.9,0-1.7-0.1-2.5-0.1c-1.3-0.1-2.5-0.4-3.7-0.7c-7-2-12.5-7.5-14.8-14.4
		c-0.4-1.4-0.8-2.8-0.9-4.3c-0.1-0.8-0.1-1.7-0.1-2.5c0-0.8,0-1.5,0.1-2.3l-9.3,19.7c0,0,0,0,0,0c-0.8,1.4-1.2,3.5-1.2,5.2
		c0,5.5,3.5,9.3,9,9.6c2,0.1,4.3-0.3,6.1-1.2l0,0c0,0,18.9-9.1,18.9-9.1C157.6,165.6,157,165.6,156.5,165.6z"/>
</g>
<g>
	<path class="st0" d="M374.4,158.9c-0.5,0.3-1.1,0.5-1.7,0.7c-0.6,0.2-1.2,0.4-1.8,0.6l-1.9,0.6c-0.7,0.2-1.3,0.4-2.1,0.6
		c0.7,0.4,1.4,0.6,2.1,0.7c0.7,0.1,1.4,0.2,2.1,0.2c-0.3,0.2-0.6,0.3-0.9,0.5c-0.3,0.1-0.5,0.3-0.8,0.4l-0.8,0.4
		c-2.1,1.1-4.2,2.1-6.3,3c-4.2,1.7-8.6,2.8-12.9,2.9c-2.2,0.1-4.3-0.1-6.5-0.5c-0.5-0.1-1.1-0.2-1.6-0.4c-0.3-0.1-0.5-0.1-0.8-0.2
		l-0.4-0.1l-0.4-0.1c-0.5-0.2-1.1-0.3-1.6-0.5c-0.5-0.2-1.1-0.4-1.6-0.6c-2.1-0.8-4.2-1.9-6.2-3.1c-0.5-0.3-1-0.6-1.5-0.9
		c-0.4-0.3-0.8-0.5-1.2-0.8c0.1,0,0.3,0,0.4,0c0.7,0,1.5-0.1,2.2-0.2c0.7-0.2,1.4-0.4,2.1-0.7c-0.7-0.3-1.4-0.4-2.1-0.6l-1.9-0.6
		c-0.6-0.2-1.2-0.4-1.8-0.6c-0.6-0.2-1.2-0.4-1.7-0.7l-3.3-1.6l1.5,3.2c0.2,0.5,0.5,1.1,0.6,1.7c0.2,0.6,0.3,1.2,0.5,1.8
		c0.3,1.3,0.4,2.6,0.7,4c0.4-0.6,0.6-1.3,0.8-2c0.2-0.7,0.3-1.4,0.4-2.1c0-0.3,0-0.6,0-1c0,0.1,0.1,0.1,0.1,0.2c0.7,1,1.5,2,2.4,2.9
		c1.7,1.9,3.7,3.5,5.9,4.9c1.1,0.7,2.2,1.3,3.4,1.9l0.4,0.2l0.5,0.2c0.3,0.1,0.6,0.2,0.9,0.4c0.6,0.2,1.3,0.4,1.9,0.6
		c2.5,0.7,5.2,1.1,7.9,1c2.7-0.1,5.3-0.5,7.8-1.3c1.2-0.4,2.5-0.9,3.6-1.4c0.3-0.1,0.6-0.3,0.9-0.4l0.9-0.4c0.6-0.3,1.1-0.7,1.7-1
		c2.2-1.4,4.1-3,5.9-4.8l0.7-0.7c0.2-0.2,0.4-0.5,0.6-0.7c0.4-0.5,0.8-0.9,1.2-1.4c0.1-0.1,0.2-0.3,0.3-0.4c0,0.4,0,0.9,0,1.3
		c0.1,0.7,0.2,1.4,0.4,2.1c0.2,0.7,0.4,1.4,0.8,2c0.2-1.4,0.4-2.7,0.7-4c0.1-0.6,0.3-1.3,0.5-1.8c0.2-0.6,0.4-1.2,0.6-1.7l1.5-3.2
		L374.4,158.9z"/>
	<path class="st0" d="M337.9,145.9c1.8,0,3.3-1.5,3.4-3.3c0.8,0,1.7,0,2.5-0.1c1.2,0,2.4,0,3.6,0l-1.7,22.3c0,0,1.5,1.2,3.7,1.2
		c2.2,0,4.1-1.2,4.1-1.2l-1.9-22.3c1.3,0,2.5,0,3.8,0c0.8,0,1.7,0,2.5,0.1c0,1.8,1.5,3.3,3.4,3.3c1.9,0,3.4-1.5,3.4-3.4
		c0-1.9-1.5-3.4-3.4-3.4c-1.2,0-2.2,0.6-2.8,1.5c0,0,0,0,0,0c-1-0.4-1.9-0.7-2.9-1c-1.4-0.4-2.8-0.6-4.1-0.7l-0.3-3
		c2.2-0.7,3.8-2.7,3.8-5.1c0-2.9-2.4-5.3-5.3-5.3c-2.9,0-5.3,2.4-5.3,5.3c0,2.3,1.5,4.3,3.6,5l-0.2,3.1c-1.3,0.1-2.6,0.3-3.9,0.7
		c-1,0.3-2,0.6-2.9,1c0,0,0,0,0,0c-0.6-0.9-1.6-1.5-2.8-1.5c-1.9,0-3.4,1.5-3.4,3.4C334.6,144.4,336.1,145.9,337.9,145.9z
		 M349.6,129c1,0,1.9,0.8,1.9,1.9c0,1-0.8,1.9-1.9,1.9c-1,0-1.9-0.8-1.9-1.9C347.7,129.8,348.6,129,349.6,129z"/>
</g>
<g>
	<path class="st0" d="M449.2,137.2c0-0.8-0.6-1.4-1.4-1.4c-0.4,0-0.7,0.2-1,0.4c0,0,0.1,0,0.1,0c0.8,0,1.4,0.6,1.4,1.4
		c0,0.4-0.2,0.7-0.4,1C448.6,138.5,449.2,137.9,449.2,137.2z"/>
	<path class="st0" d="M451.4,139.8c-0.4,0-0.7,0.2-1,0.4c0,0,0.1,0,0.1,0c0.8,0,1.4,0.6,1.4,1.4c0,0.4-0.2,0.7-0.4,1
		c0.3,0,0.6-0.1,0.8-0.3c0.3-0.3,0.5-0.7,0.5-1.1c0-0.7-0.5-1.2-1.1-1.4C451.6,139.8,451.5,139.8,451.4,139.8z"/>
	<path class="st0" d="M449.8,143.7c-0.4,0-0.7,0.2-1,0.4c0,0,0.1,0,0.1,0c0.8,0,1.4,0.6,1.4,1.4c0,0.4-0.2,0.7-0.4,1
		c0.7,0,1.3-0.7,1.3-1.4C451.2,144.3,450.6,143.7,449.8,143.7z"/>
	<path class="st0" d="M449.7,141.2c0-0.8-0.6-1.4-1.4-1.4c-0.4,0-0.7,0.2-1,0.4c0,0,0.1,0,0.1,0c0.8,0,1.4,0.6,1.4,1.4
		c0,0.4-0.2,0.7-0.4,1C449.1,142.6,449.7,142,449.7,141.2z"/>
	<path class="st0" d="M452,144.1C452,144.1,452,144.1,452,144.1c0.1,0,0.1,0,0.2,0c0.7,0,1.3,0.7,1.3,1.4c0,0.4-0.2,0.7-0.4,1
		c0.7,0,1.3-0.7,1.3-1.4c0-0.8-0.6-1.4-1.4-1.4c-0.3,0-0.6,0.1-0.9,0.3C452.1,144.1,452,144.1,452,144.1z"/>
	<path class="st0" d="M446.7,143.7c-0.4,0-0.7,0.2-1,0.4c0,0,0.1,0,0.1,0c0.8,0,1.4,0.6,1.4,1.4c0,0.4-0.2,0.7-0.4,1
		c0.7,0,1.3-0.7,1.3-1.4C448.1,144.3,447.5,143.7,446.7,143.7z"/>
	<path class="st0" d="M445.6,141.6c0,0.4-0.2,0.7-0.4,1c0.7,0,1.3-0.7,1.3-1.4c0-0.8-0.6-1.4-1.4-1.4c-0.4,0-0.7,0.2-1,0.4
		c0,0,0.1,0,0.1,0C445,140.2,445.6,140.9,445.6,141.6z"/>
	<path class="st0" d="M448.9,130c0,0.3-0.1,0.5-0.2,0.7c-0.1,0.1-0.1,0.2-0.2,0.3c0.2,0,0.3-0.1,0.5-0.1c0.5-0.2,0.9-0.7,0.9-1.3
		c0-0.8-0.6-1.4-1.4-1.4c-0.4,0-0.7,0.2-1,0.4c0,0,0.1,0,0.1,0C448.2,128.5,448.9,129.2,448.9,130z"/>
	<path class="st0" d="M448.9,132.3C448.9,132.3,448.9,132.3,448.9,132.3c0.1,0,0.2,0,0.2,0c0.7,0.1,1.3,0.7,1.3,1.4
		c0,0.4-0.2,0.7-0.4,1c0.7,0,1.3-0.7,1.3-1.4c0-0.8-0.6-1.4-1.4-1.4c-0.3,0-0.6,0.1-0.9,0.3C449,132.2,448.9,132.2,448.9,132.3z"/>
	<path class="st0" d="M447.2,133.7c0,0.4-0.2,0.7-0.4,1c0.7,0,1.3-0.7,1.3-1.4c0-0.8-0.6-1.4-1.4-1.4c-0.4,0-0.7,0.2-1,0.4
		c0,0,0.1,0,0.1,0C446.6,132.3,447.2,132.9,447.2,133.7z"/>
	<path class="st0" d="M481.6,149.9c-4.2,1.7-7.2,1.8-10.2,1.8c-0.3,0-0.6,0-1,0c-1.9,0-3.8,0-6,0.4c2.7-6.5,9.2-11.6,9.2-11.6
		s-5.7,0-11.9,2.3l0,0c1.7-5.1,3.8-9.4,6.3-12.8c-3.5,0.9-7.1,2.1-10.8,5.4c-0.4-1.4-0.8-2.7-1.1-3.6c-0.8-2.2-1.7-4.2-2.5-5.7
		c-0.9-1.6-2.1-3.3-3.9-3.3c-1.8,0-3,1.6-3.9,3.2c-0.9,1.5-1.8,3.4-2.5,5.6c-0.4,1-0.8,2.3-1.2,3.8c-3.6-3.3-7.3-4.5-10.7-5.4
		c2.5,3.3,4.6,7.7,6.3,12.8c-6.2-2.3-11.9-2.3-11.9-2.3s6.6,5.1,9.2,11.6c-2.2-0.4-4.2-0.4-6-0.4c-0.3,0-0.6,0-1,0
		c-3,0-6-0.1-10.2-1.8c2.5,3.9,9.4,11,13.3,13.3c1,0.6,2,1.1,3,1.6c-2.3,1.7-4.7,3.5-7.8,4.1c1.9,1.4,6.6,4.2,12,4.2
		c1.5,0,3-0.2,4.5-0.7c0.5-0.1,0.9-0.3,1.3-0.5c1.2,3,4.3,6.1,5.8,6.1c1.1,0,4.2-3.4,5.6-6.2c0.4,0.2,0.9,0.4,1.4,0.6
		c1.5,0.5,3,0.7,4.5,0.7c5.4,0,10.1-2.8,12-4.2c-3.1-0.7-5.6-2.4-7.9-4.1c1-0.4,2-1,3-1.6C472.2,160.9,479.1,153.8,481.6,149.9z
		 M458.2,138.3c0.1-0.3,0.2-0.5,0.4-0.6c0.6-0.5,1.1-1,1.7-1.4c-0.3,0.4-0.6,0.9-0.8,1.3c-0.1,0.1-0.1,0.3-0.2,0.4
		c0,0.1-0.1,0.3-0.1,0.4l-0.1,0.2c0,0.1,0,0.2,0,0.2c0,0.2,0,0.3,0,0.5c0.5-0.4,0.9-0.8,1.3-1.2c0.3-0.3,0.6-0.7,0.9-1
		c-0.7,1.5-1.3,3.2-1.8,4.9c0,0,0,0,0,0s-0.2,0.5-0.5,0.4c-0.2-0.1-0.3-0.2-0.4-1.1c0,0-0.4-2-0.4-2
		C458.1,138.8,458.1,138.6,458.2,138.3z M443.3,140.6C443.3,140.6,443.3,140.6,443.3,140.6c0.2-1.1,0.4-2.1,0.7-3.1c0,0,0,0,0,0
		c0.1-0.4,0.2-0.8,0.3-1.2c0.5,0.2,0.8,0.7,0.8,1.3c0,0.4-0.2,0.7-0.4,1c0.7,0,1.3-0.7,1.3-1.4c0-0.8-0.6-1.4-1.4-1.4
		c-0.1,0-0.1,0-0.2,0c1.7-6.1,4.2-10.4,5.2-10.4c1.1,0,3.9,5.3,5.6,12.2c0.1,0.5,0.2,0.9,0.3,1.4c0,0,0,0.1,0,0.1
		c0.1,0.5,0.2,1,0.3,1.5c0,0,0,0,0,0c0.3,1.5,0.5,3.1,0.6,4.7c-1.4,0.9-2.7,1.9-3.9,3.1c-0.2-0.5-0.7-0.9-1.3-0.9
		c-0.4,0-0.7,0.2-1,0.4c0,0,0.1,0,0.1,0c0.7,0,1.3,0.6,1.4,1.3c-0.5,0.6-1,1.1-1.4,1.8c-0.3,0.4-0.5,0.8-0.8,1.2
		c-0.3-0.4-0.5-0.8-0.8-1.2c-0.2-0.2-0.4-0.5-0.5-0.7c0.7,0,1.3-0.7,1.3-1.4c0-0.8-0.6-1.4-1.4-1.4c-0.4,0-0.7,0.2-1,0.4
		c0,0,0.1,0,0.1,0c0.8,0,1.4,0.6,1.4,1.4c0,0.4-0.2,0.7-0.4,1c-1.2-1.6-2.6-2.9-4.1-4c0.5-0.2,0.8-0.7,0.8-1.3
		c0-0.8-0.6-1.4-1.4-1.4c-0.2,0-0.4,0.1-0.6,0.2C443,142.8,443.1,141.7,443.3,140.6z M442.8,144.2c0.7,0.1,1.2,0.7,1.2,1.4
		c0,0.2-0.1,0.4-0.2,0.6c-0.4-0.3-0.7-0.5-1.1-0.8C442.7,145,442.8,144.6,442.8,144.2z M438.9,138.1c0.4,0.4,0.8,0.8,1.3,1.2
		c0-0.2,0-0.3,0-0.5c0-0.1,0-0.2,0-0.2l-0.1-0.2c0-0.1-0.1-0.3-0.1-0.4c-0.1-0.1-0.1-0.3-0.2-0.4c-0.2-0.5-0.5-0.9-0.8-1.3
		c0.6,0.4,1.1,0.9,1.7,1.4c0.1,0.1,0.3,0.4,0.4,0.6c0.1,0.3,0.1,0.6,0.1,1c0,0,0,0,0,0c-0.1,0.6-0.2,1.3-0.3,2c0,0,0,0,0,0
		c-0.1,0.8-0.2,1-0.4,1.1c-0.3,0.1-0.5-0.4-0.5-0.4s0,0,0,0c-0.6-1.7-1.2-3.3-1.8-4.9C438.3,137.4,438.6,137.8,438.9,138.1z
		 M432.7,161.3c-0.1-0.1-0.2-0.1-0.3-0.2l-0.2-0.1c-1.2-0.7-2.8-2-4.5-3.5c0.1,0,0.2,0.1,0.3,0.1l0.5,0.2c0.2,0.1,0.3,0.1,0.5,0.2
		c0.2,0.1,0.3,0.1,0.5,0.2c0.7,0.2,1.3,0.3,2,0.4c0.7,0.1,1.3,0.1,2,0c0.7-0.1,1.3-0.2,2-0.4c-0.6-0.2-1.2-0.4-1.8-0.7
		c-0.6-0.2-1.2-0.4-1.7-0.7c-0.6-0.2-1.1-0.5-1.6-0.7l-0.4-0.2l-0.4-0.2l-0.2-0.1l-0.1-0.1l-0.1-0.1c-0.1-0.1-0.3-0.2-0.4-0.2
		c-0.7-0.4-1.5-0.8-2.2-1.2c0.5,0,0.9,0,1.4,0l0.5,0l0.5,0c1.7,0,3.2,0,4.9,0.3c0.6,0.1,1.1,0.3,1.5,0.7c0.4,0.4,0.6,0.7,0.7,1.7
		c0,0,0,0,0,0c0.2,1.2,0.4,2.4,0.8,3.4c0,0,0,0,0,0c0,0,0,0,0,0c0,0.1,0,0.1,0.1,0.2c0.2,0.9-0.5,1.7-1.5,1.6
		C434.4,162.1,433.2,161.6,432.7,161.3z M441.7,169.4c-0.4,0.5-1.1,0.9-2,1c-0.5,0.1-1.1,0.1-1.7,0.1c-1.6,0-3.2-0.3-4.7-0.8
		c0.6-0.1,1.2-0.3,1.8-0.5c0.6-0.3,1.2-0.6,1.6-1.1c-0.7,0-1.3,0.1-1.9,0.1c-0.6,0.1-1.2,0.2-1.8,0.2c-0.1,0-0.2,0-0.3,0.1
		c1-0.7,2-1.4,2.9-2.1c0.4-0.3,0.8-0.6,1.2-0.9c0.2-0.1,0.4-0.3,0.6-0.4c0,0,0.4-0.3,0.8-0.3c0.4,0,0.5,0.1,0.9,0.6
		c0,0,0.1,0.2,0.2,0.2c0.7,0.9,1.4,1.6,1.9,2c0,0,0.1,0.1,0.1,0.1c0,0,0,0,0,0C442.1,168.2,442.1,168.9,441.7,169.4z M445.8,161.9
		c-0.3,1.6-0.4,3.1-0.8,3.9c-0.3,0.6-1.1,0.6-1.9,0.1c-0.1-0.1-0.2-0.2-0.3-0.2c-0.1-0.1-0.3-0.2-0.5-0.4c0,0-0.1-0.1-0.1-0.1
		c0,0,0,0,0,0c-0.6-0.6-1.2-1.4-1.9-2.6c-1.1-2-1.8-4.3-2.1-6.8c-0.3-2.6-1.3-5.3-2.9-8c0.7,0.6,1.3,1.2,2,1.8l0.1,0.1l0.1,0.1
		c0.1,0.1,0.1,0.1,0.2,0.2c0.1,0.1,0.3,0.3,0.4,0.4l0.2,0.2l0.2,0.2c0.1,0.2,0.3,0.3,0.4,0.5c0.5,0.7,1,1.4,1.5,2.1
		c0.5,0.7,0.9,1.5,1.4,2.3c0.5,0.8,1,1.6,1.5,2.3c-0.1-0.9-0.2-1.9-0.4-2.8c-0.2-0.9-0.5-1.8-0.8-2.7c-0.3-0.9-0.7-1.7-1.2-2.6
		c-0.3-0.4-0.5-0.8-0.8-1.2c-0.1-0.2-0.3-0.4-0.5-0.6c-0.1-0.1-0.2-0.2-0.3-0.3l-0.1-0.1c0,0-0.1-0.1-0.1-0.1
		c-1.3-1.2-2.7-2.4-4.3-3.3c4.2,1.3,8.9,3.7,12,8c0.2,0.3,0.4,0.6,0.6,0.9c0.3,0.6,0.3,1.1,0.2,1.8c-0.1,0.9-0.4,1.8-0.7,2.7
		c0,0,0,0,0,0C446.4,159.3,446.1,160.6,445.8,161.9C445.8,161.9,445.8,161.9,445.8,161.9z M453.1,170.4c-0.3,0.6-0.7,1.3-1.4,2.3
		c-0.9,1.2-1.7,2-2.2,2.4c-0.5-0.4-1.3-1.1-2-2.1c-0.8-1-1.2-1.9-1.4-2.6c0,0,0,0,0,0c-0.4-0.9,0.2-0.9,0.7-0.7c0.1,0,0.1,0,0.2,0.1
		c0.5,0.2,1.1,0.2,1.8,0.3c0,0,0,0,0,0c0,0.1,0,0.1,0,0.2c0,0.3,0,0.5,0.1,0.8c0.1,0.2,0.2,0.4,0.2,0.6c0.1,0.3,0.2,0.5,0.2,0.8
		c0,0.1,0,0.2,0,0.3c0,0.1,0,0.2,0,0.3c0,0.2,0,0.4,0,0.7c0.1,0,0.2-0.1,0.3-0.2c0.1-0.1,0.2-0.1,0.3-0.2c0.1-0.1,0.2-0.2,0.2-0.3
		c0.1-0.1,0.1-0.2,0.2-0.3c0.1-0.1,0.1-0.3,0.1-0.4c0-0.1,0-0.3,0-0.4c0-0.3-0.1-0.6-0.2-0.8c-0.1-0.2-0.2-0.4-0.3-0.5
		c-0.1-0.1-0.2-0.3-0.2-0.4c0,0,0-0.1,0-0.1c1.2,0,2.4-0.2,2.9-0.3C453.1,169.8,453.2,170.1,453.1,170.4z M456.4,165.6
		c-1.4,1.1-3.3,1.7-4.9,1.7c-1.2,0-2.1-0.4-2.8-1.1c-0.5-0.6-0.8-2.3-0.2-5.2c0.7-2.8,2.1-6,3.9-8.6c1.5-2.1,3.5-3.9,6-5.4
		c1.7-1,3.6-1.8,5.6-2.5c-0.2,0.1-0.4,0.2-0.6,0.4c-0.5,0.3-1,0.6-1.4,1c-0.5,0.4-0.9,0.7-1.4,1.1c-0.4,0.4-0.9,0.8-1.3,1.2
		c-0.2,0.2-0.4,0.4-0.6,0.7c-0.2,0.2-0.4,0.5-0.5,0.7c-1.3,1.8-2.5,3.8-3.4,6c-0.6,1.5-1,3-1.2,4.6l0,0c-0.1,0.6-0.2,1.1-0.1,1.6
		c0,0.2,0,0.4,0,0.6c0.5-1,0.9-2.1,1.4-3c0.5-1,1-1.9,1.6-2.9c1.1-1.8,2.4-3.6,3.7-5.3c1.2-1.6,2.8-3.1,4.4-4.5
		c-2.1,3.1-3.3,6.1-3.6,9.1c-0.3,2.5-1,4.8-2.1,6.8C458,164.1,457,165.2,456.4,165.6z M466.4,168.5c-0.1,0-0.2,0-0.3-0.1
		c-0.6-0.1-1.2-0.2-1.8-0.2c-0.6-0.1-1.2-0.1-1.9-0.1c0.5,0.5,1,0.9,1.6,1.1c0.6,0.3,1.2,0.4,1.8,0.5c-1.4,0.5-3,0.8-4.7,0.8
		c-0.6,0-1.1,0-1.7-0.1c-0.9-0.1-1.6-0.5-2-1c-0.4-0.5-0.4-1.2,0.2-1.7c0,0,0,0,0,0c0,0,0.1-0.1,0.1-0.1c0.6-0.4,1.3-1.2,2.1-2.2
		c0,0,0,0,0,0c0.4-0.5,0.5-0.5,0.9-0.6c0.3,0,0.5,0.1,0.7,0.2c0.6,0.4,1.3,0.9,2,1.4C464.4,167.1,465.4,167.8,466.4,168.5z
		 M466.9,161.1c-0.1,0.1-0.2,0.1-0.3,0.2c-0.5,0.3-1.7,0.8-2.6,0.9c-1,0-1.8-0.7-1.5-1.6c0,0,0-0.1,0-0.1c0,0,0-0.1,0-0.1
		c0,0,0,0,0,0c0.3-1,0.6-2.2,0.8-3.4c0,0,0,0,0,0c0.2-1,0.4-1.3,0.7-1.7c0.3-0.4,0.8-0.7,1.5-0.7c1.7-0.3,3.3-0.3,4.9-0.3l0.5,0
		l0.5,0c0.5,0,0.9,0,1.4,0c-0.8,0.4-1.5,0.8-2.2,1.2c-0.1,0.1-0.3,0.2-0.4,0.2l-0.1,0.1l-0.1,0.1l-0.2,0.1l-0.4,0.2l-0.4,0.2
		c-0.5,0.3-1.1,0.5-1.6,0.7c-0.6,0.2-1.1,0.5-1.7,0.7c-0.6,0.2-1.2,0.4-1.8,0.7c0.6,0.2,1.3,0.3,2,0.4c0.7,0.1,1.3,0,2,0
		c0.7-0.1,1.3-0.2,2-0.4c0.2-0.1,0.3-0.1,0.5-0.2c0.2-0.1,0.3-0.1,0.5-0.2l0.5-0.2c0.1,0,0.2-0.1,0.3-0.1c-1.7,1.5-3.2,2.8-4.5,3.5
		L466.9,161.1z"/>
	<path class="st0" d="M449.9,136.2C449.9,136.2,450,136.2,449.9,136.2c0.9,0,1.5,0.6,1.5,1.4c0,0.4-0.2,0.7-0.4,1
		c0.7,0,1.3-0.7,1.3-1.4c0-0.8-0.6-1.4-1.4-1.4C450.5,135.8,450.2,135.9,449.9,136.2z"/>
</g>
<g>
	<path class="st0" d="M567.8,166.9c-0.3-1.2-0.7-2.5-1.3-3.9c-0.1-0.4-0.3-0.7-0.5-1c-0.2-0.3-0.4-0.7-0.6-1.1
		c-0.2-0.4-0.4-0.7-0.6-1.1c-0.2-0.3-0.5-0.7-0.7-1.1c-1-1.4-2.2-2.8-3.5-4.1c-0.6-0.7-1.4-1.3-2.1-1.9c-0.4-0.3-0.7-0.6-1.1-0.9
		c-0.4-0.3-0.8-0.6-1.2-0.8c-0.2-0.2-0.5-0.3-0.7-0.5c-0.8,0.5-1.6,1-2.4,1.4c3.4,3.2,6.5,6.9,7.4,12.2c0.2,1-0.1,2.1-0.8,2.9
		c-0.7,0.8-1.7,1.3-2.7,1.3h-14.3c-1.1,0-2-0.5-2.7-1.3c-0.7-0.8-1-1.9-0.8-2.9c0.2-1.2,0.6-2.3,1-3.3c-0.4,0.4-0.8,0.7-1.3,1.1
		c-2.1,1.9-4.1,3.8-6,5.9c0,0,0.1,0,0.1,0c0,0,0,0,0,0c2,0.7,3.4,2.6,3.4,4.8h26.5c0-2.8,2.2-5.1,5-5.2
		C567.9,167.3,567.8,167.1,567.8,166.9z"/>
	<path class="st0" d="M532.1,135.8c0.2,0.6,0.5,1.3,0.8,2c0.3,0.7,0.7,1.4,1.1,2.1c0.4,0.7,0.9,1.4,1.4,2.1c0.5,0.7,1.1,1.3,1.7,2.1
		c0.6,0.7,1.3,1.3,1.9,2c1.4,1.2,2.8,2.5,4.5,3.6c0.4,0.3,0.8,0.6,1.2,0.9c0.2,0.1,0.4,0.3,0.6,0.4l-0.4,0.3
		c-0.4,0.3-0.8,0.5-1.2,0.8c-0.4,0.3-0.8,0.5-1.2,0.8c-0.4,0.3-0.7,0.6-1.1,0.9c-0.7,0.6-1.5,1.2-2.1,1.8c-1.3,1.2-2.5,2.6-3.5,3.9
		c-0.2,0.3-0.5,0.7-0.7,1c-0.2,0.3-0.5,0.7-0.7,1c-0.2,0.3-0.4,0.7-0.6,1c-0.2,0.3-0.4,0.6-0.5,1c-0.7,1.3-1.1,2.6-1.5,3.7
		c-0.1,0.2-0.1,0.3-0.1,0.5c0.1,0,0.3,0,0.4,0.1c1.5-2.5,3.4-4.8,5.4-6.9c2.7-2.8,5.6-5.3,8.9-7.5c1.6-1.1,3.3-2,5-2.9
		c1.7-0.9,3.3-1.7,4.9-2.7c0.4-0.2,0.7-0.5,1.1-0.7c0.7-0.6,1.4-1.2,2.1-1.8c0.7-0.6,1.3-1.3,1.9-1.9c0.6-0.7,1.1-1.3,1.7-2
		c0.5-0.7,1-1.3,1.4-2c0.4-0.7,0.8-1.3,1.2-2c0.3-0.7,0.6-1.3,0.9-1.9c0.2-0.6,0.5-1.2,0.6-1.8c0.1-0.4,0.2-0.8,0.3-1.2
		c-0.4,0-0.7-0.1-1-0.2l0,0c-2-0.5-3.5-2.2-3.8-4.3h-26.6c-0.4,2.5-2.5,4.4-5.1,4.4c0.1,0.4,0.2,0.9,0.3,1.3
		C531.7,134.5,531.9,135.1,532.1,135.8z M539.9,133.8c0.7-0.8,1.7-1.3,2.7-1.3h14.2c1.1,0,2.1,0.5,2.8,1.3c0.7,0.8,0.9,1.9,0.7,2.9
		c-0.6,2.6-1.8,4.9-3.3,6.9c-0.4,0.3-0.8,0.6-1.3,0.9l-0.5,0.4c-0.2,0.1-0.4,0.2-0.6,0.4c-0.4,0.2-0.7,0.5-1.1,0.7
		c-0.4,0.2-0.7,0.5-1.1,0.7c-0.3,0.2-0.7,0.4-1,0.6c3.4-3.2,6.4-6.5,7.3-11c0.1-0.6,0-1.1-0.4-1.6c-0.4-0.5-0.9-0.7-1.5-0.7h-14.2
		c-0.6,0-1.1,0.3-1.5,0.7c-0.4,0.4-0.5,1-0.4,1.6c1,5.3,4.6,8.7,8.5,12.2c-0.1,0.1-0.3,0.2-0.4,0.2c-0.3,0.2-0.7,0.4-1,0.6
		c-3.8-3.4-7.5-7.1-8.6-12.7C539,135.7,539.3,134.6,539.9,133.8z"/>
	<path class="st0" d="M542.7,166.7h14.3c0.6,0,1.1-0.3,1.5-0.7c0.4-0.4,0.5-1,0.4-1.6c-0.9-5-3.8-8.4-7.3-11.6
		c-1.3,0.7-2.6,1.5-3.8,2.3c-1.6,1-3.1,2.1-4.5,3.2c-1.2,1.8-2.1,3.8-2.5,6.1c-0.1,0.6,0.1,1.1,0.4,1.6
		C541.5,166.5,542.1,166.7,542.7,166.7z"/>
</g>
<g>
	<path class="st0" d="M649.6,124.6c-4.6,0-8.9,1.2-12.6,3.3c0,0,0,0-0.1,0c-0.9,0.2-1.8,0.5-2.7,0.8c-0.9,0.3-1.7,0.7-2.6,1.2
		c-0.4,0.3-0.8,0.5-1.2,0.9c-0.2,0.2-0.4,0.4-0.6,0.6c-0.2,0.2-0.4,0.5-0.4,1l0,0.3l0.2,0.2c0.1,0.2,0.3,0.4,0.4,0.5
		c0,0,0.1,0.1,0.1,0.1c-3.9,4.5-6.3,10.4-6.3,16.9c0,14.3,11.6,25.8,25.8,25.8c14.3,0,25.8-11.6,25.8-25.8
		C675.5,136.2,663.9,124.6,649.6,124.6z M631.1,132.3c0.1-0.1,0.2-0.3,0.4-0.4c0.2-0.2,0.4-0.4,0.7-0.5c0.1-0.1,0.2-0.1,0.3-0.2
		c0.7-0.4,1.5-0.8,2.3-1.1c0.8-0.3,1.7-0.5,2.5-0.7c0.1,0,0.2,0,0.3-0.1c0,0,0,0,0,0c0.1,0,0.2,0,0.3-0.1c0.2,0,0.4-0.1,0.6-0.1
		c0,0,0,0,0,0c0.4,0,0.8,0,1.3,0c0.1,0,0.1,0,0.2,0c0.7,0,1.3,0.1,2,0.2c0.1,0,0.2,0,0.3,0.1c0.4,0.1,0.7,0.2,1.1,0.3
		c0.1,0,0.1,0,0.2,0c0,0,0,0,0,0c0.2,0.1,0.4,0.1,0.6,0.1c0.2,0,0.4,0.1,0.6,0.1c0,0,0,0,0.1,0c0,0,0.1,0,0.1,0
		c0.1,0,0.2,0.1,0.3,0.1c0.1,0,0.3,0.1,0.4,0.1c0.2,0,0.4,0.1,0.6,0.2c0.4,0.1,0.8,0.2,1.1,0.3c0.4,0.1,0.9,0.3,1.3,0.4
		c0.4,0.2,0.9,0.3,1.3,0.5c-0.4-0.3-0.7-0.6-1.1-0.8c-0.3-0.2-0.7-0.5-1-0.7c0.1,0,0.1,0,0.2,0l0.3,0c0.2,0,0.4-0.1,0.7-0.1
		c1.6-0.2,3.4-0.4,4.6,0.3c0.8,0.5,2.4,1.2,4,1.7c1.3,0.5,3,1.2,3.3,1.5c0.3,0.3,0.7,0.7,1.2,1.2c1,1,2.3,2.4,3.5,3.5
		c1,0.9,1.8,3.7,2.3,5.6c0.3,1,0.5,1.7,0.7,2.2l0.2,0.3c0.5,1.1,1.2,2.4,1.4,3.4c0.2,0.7,0.2,1.2,0.1,1.7c0,0.2,0,0.4,0,0.7
		c0,0.3-0.1,0.6-0.1,0.8c-0.1,0.2-0.1,0.4-0.2,0.7c0-0.1-0.1-0.1-0.1-0.2c-0.2-0.2-0.6-0.2-0.9-0.2c-0.1,0-0.2,0-0.2,0
		c-0.1,0-0.4-0.4-0.5-0.7c0,0,0,0,0,0c0,0,0.1,0,0.2,0l0,0c0.2,0,0.3,0,0.3-0.2c0-0.2-0.1-0.2-0.3-0.4c-0.2-0.1-0.4-0.1-0.5-0.1
		c-0.2,0.1-0.4,0.3-0.4,0.5c-0.1,0.5,0.1,0.7,0.5,1.1c0.2,0.2,0.3,0.3,0.5,0.4c0.1,0.1,0.3,0.2,0.5,0.4c0.3,0.2,0.4,0.6,0.5,0.9
		c0,0.1,0,0.1,0,0.2c0,0.4,0.1,0.7-0.1,1c-0.2,0.4-0.5,0.4-0.7,0.4c-0.4,0-0.7,0-0.7,0c0,0-0.1,0-0.1,0c0,0-0.1,0-0.1-0.1
		c-0.4-0.2-1-0.5-1.5-0.9c0,0,0,0,0,0c-0.1-0.1-0.2-0.2-0.3-0.3c-0.1-0.1-0.2-0.2-0.4-0.3c-0.2-0.2-0.4-0.4-0.6-0.6
		c-0.2-0.2-0.3-0.3-0.4-0.4c-0.1-0.1-0.2-0.2-0.2-0.2s0,0.1,0.1,0.2c0.1,0.1,0.2,0.3,0.3,0.5c0.1,0.2,0.3,0.5,0.5,0.7
		c0.1,0.1,0.2,0.3,0.3,0.4c0.1,0.1,0.2,0.3,0.3,0.4c0.2,0.3,0.4,0.5,0.6,0.7c0.2,0.3,0.5,0.5,0.7,0.7c0.1,0.1,0.2,0.2,0.3,0.3
		c0,0,0.1,0.1,0.1,0.1c0,0,0,0,0,0c-0.2,0.1-0.4,0.3-0.8,0.4c-0.1,0.1-0.3,0.1-0.4,0.2c-0.1,0-0.1,0.1-0.2,0.1
		c-0.3,0.1-0.5,0.1-1.2-0.2c-0.1-0.1-0.2-0.1-0.3-0.2c-0.3-0.2-0.6-0.4-0.9-0.5c-0.2-0.1-0.5-0.3-0.7-0.4c0,0,0,0,0,0
		c-0.2-0.1-0.3-0.3-0.5-0.4c-0.3-0.2-0.6-0.4-0.9-0.7c-0.2-0.1-0.3-0.2-0.5-0.3c-0.2-0.1-0.3-0.2-0.5-0.3c-0.3-0.2-0.7-0.4-1-0.6
		c0,0,0,0-0.1,0c-0.4-0.2-0.7-0.4-1.1-0.6c-0.4-0.2-0.7-0.4-1.1-0.5c-0.4-0.2-0.7-0.3-1.1-0.4c-0.2-0.1-0.3-0.1-0.5-0.2
		c-0.2-0.1-0.3-0.1-0.5-0.2c-0.2-0.1-0.5-0.1-0.7-0.2c0,0-0.1,0-0.1,0c-0.2-0.1-0.5-0.1-0.6-0.2c0,0,0,0-0.1,0
		c-0.1,0-0.3-0.1-0.3-0.1c-0.1,0-0.1,0-0.1,0s0,0,0.1,0.1c0,0,0.1,0.1,0.2,0.1c0,0,0,0,0,0c0.1,0,0.1,0.1,0.2,0.1
		c0.2,0.1,0.4,0.2,0.6,0.3c0.2,0.1,0.5,0.2,0.7,0.4c0.3,0.1,0.6,0.3,0.9,0.5c0.3,0.2,0.6,0.3,1,0.5c0.3,0.1,0.5,0.3,0.8,0.4
		c0.1,0,0.2,0.1,0.2,0.1c0.4,0.2,0.7,0.4,1.1,0.6c0.1,0,0.1,0.1,0.2,0.1c-0.4-0.1-0.8-0.3-1.2-0.4c-0.2-0.1-0.4-0.1-0.6-0.2
		c-0.8-0.2-1.4-0.4-2-0.6c-0.1,0-0.1-0.1-0.2-0.1c-0.5-0.2-1-0.4-1.5-0.6c-0.1,0-0.2-0.1-0.4-0.1c-0.4-0.1-0.7-0.2-1.1-0.3
		c0,0-0.1,0-0.1,0c-0.2-0.1-0.5-0.1-0.7-0.1c-0.3,0-0.5,0-0.8-0.1c-0.1,0-0.2,0-0.3,0l0,0.2l0,0c0,0,0,0,0,0v0c0,0,0,0-0.1,0.1
		c-0.1,0-0.1,0.1-0.2,0.2c-0.1,0.1-0.2,0.1-0.4,0.2c0,0,0,0,0,0c0,0,0,0,0,0c-0.1,0-0.3,0.1-0.4,0.1c-0.1,0-0.2,0-0.2,0
		c0,0,0,0-0.1,0c0,0,0,0-0.1,0c0,0-0.1,0-0.1,0c-0.2,0-0.3-0.1-0.4-0.2c0,0,0,0,0,0c0,0,0,0-0.1-0.1c-0.1-0.1-0.2-0.2-0.3-0.3
		c0,0,0,0,0,0c0,0,0-0.1-0.1-0.1c0,0,0,0,0,0c0,0,0-0.1-0.1-0.1l0,0l0,0l0-0.1c0,0,0,0,0,0l0,0c0,0,0,0,0,0c0-0.1-0.1-0.3-0.1-0.4
		c0,0,0,0,0,0c0-0.2,0-0.3,0.1-0.5c0-0.1,0.1-0.1,0.1-0.2c0-0.1,0.1-0.2,0.1-0.2c0,0,0.1-0.1,0.1-0.1l0,0l0,0c0,0,0,0,0,0l0,0l0,0
		l0,0c0,0,0,0,0.1-0.1c0,0,0,0,0,0c0,0,0.1-0.1,0.2-0.1c0,0,0,0,0,0c0.1-0.1,0.2-0.1,0.3-0.2c0,0,0,0,0.1,0c0.1,0,0.3-0.1,0.4-0.1
		c0.1,0,0.1,0,0.2,0c0,0,0.1,0,0.1,0c0.1,0,0.1,0,0.1,0c0,0,0,0,0,0s0,0,0,0c0-0.1,0.1-0.1,0.1-0.2c0.1-0.1,0.2-0.2,0.3-0.3
		c0.1-0.1,0.1-0.2,0.2-0.3c0,0,0-0.1,0-0.1c0,0,0,0,0,0s0,0-0.1,0.1c-0.1,0-0.2,0.1-0.3,0.1c0,0,0,0,0,0c-0.1,0.1-0.3,0.1-0.4,0.1
		c-0.1,0-0.2,0-0.3,0c-0.1,0-0.1,0-0.2,0c-0.1,0-0.2,0-0.3,0c0,0-0.1,0-0.1,0c0,0-0.1,0-0.1,0c0,0,0,0,0,0c-0.1,0-0.2-0.1-0.3-0.2
		c-0.1,0-0.2-0.1-0.2-0.1c-0.1-0.1-0.2-0.2-0.3-0.4c0,0,0,0-0.1-0.1c0,0,0,0,0-0.1l0-0.1c0,0,0-0.1-0.1-0.1l0,0l0,0l0-0.1
		c0,0,0,0,0-0.1l0,0c0,0,0,0,0-0.1c0-0.1,0-0.2,0-0.2c0-0.1,0-0.2,0-0.3c0-0.1,0.1-0.3,0.2-0.4c0,0,0-0.1,0.1-0.1
		c0.1-0.1,0.2-0.2,0.3-0.3c0,0,0.1-0.1,0.1-0.1c0,0,0,0,0,0c0,0,0.1,0,0.1-0.1l0,0l0,0c0,0,0,0,0,0l0,0l0,0l0,0c0,0,0.1,0,0.1,0
		c0.1,0,0.2-0.1,0.2-0.1c0.1,0,0.1,0,0.2,0c0.1,0,0.1,0,0.2,0c0.1,0,0.1,0,0.2,0c0.1,0,0.3,0,0.4,0c0,0,0.1,0,0.1,0
		c0.1,0,0.2,0,0.3,0c0.1,0,0.1,0,0.1,0s0,0-0.1-0.1c0-0.1-0.1-0.2-0.2-0.3c-0.1-0.1-0.2-0.1-0.2-0.2c-0.1-0.9-0.6-1.7-1.2-2.4
		c0.2-0.4,0.3-0.9,0.3-1.4c0-0.7-0.2-1.4-0.5-2c0,0,0-0.1,0-0.1c0,0,0-0.1,0-0.1c0,0,0,0,0,0l0,0c0,0,0,0-0.1,0.1c0,0,0,0,0,0
		c-0.1,0-0.1,0.1-0.2,0.2c-0.1,0.1-0.2,0.1-0.4,0.2c0,0,0,0,0,0c-0.2,0.1-0.3,0.1-0.5,0.1c-0.1,0-0.2,0-0.3,0c0,0,0,0,0,0
		c0,0-0.1,0-0.1,0c0,0-0.1,0-0.1,0c0,0,0,0,0,0c-0.2,0-0.4-0.1-0.6-0.2c0,0-0.1-0.1-0.1-0.1c-0.1-0.1-0.2-0.2-0.3-0.3c0,0,0,0,0-0.1
		l0-0.1c0,0-0.1-0.1-0.1-0.1l0,0l0,0l0,0l0,0l0-0.1c0,0,0,0,0,0l0,0c0,0,0,0,0,0c-0.1-0.2-0.1-0.4-0.1-0.6c0,0,0,0,0,0
		c0-0.2,0-0.4,0.1-0.6c0-0.1,0.1-0.1,0.1-0.2c0-0.1,0.1-0.1,0.1-0.2c0,0,0.1-0.1,0.1-0.1c0,0,0.1-0.1,0.1-0.1l0,0l0,0c0,0,0,0,0,0
		l0,0l0,0l0,0l0.1-0.1c0.1-0.1,0.1-0.1,0.2-0.2c0,0,0.1,0,0.1,0c0.1-0.1,0.3-0.1,0.4-0.2c0.1,0,0.2,0,0.3-0.1c0,0,0.1,0,0.1,0
		c0.1,0,0.2,0,0.3,0c0.1,0,0.1,0,0.1,0s0,0-0.1-0.1c-0.1-0.1-0.1-0.1-0.3-0.2c-0.1,0-0.2-0.1-0.2-0.1c0,0,0.1-0.1,0.1-0.1
		c0.1-0.2,0.2-0.3,0.3-0.5c0.1-0.1,0.1-0.3,0.1-0.3c0,0,0-0.1,0-0.1c0,0,0,0,0,0v0c0,0,0,0-0.1,0.1c-0.1,0-0.1,0.1-0.3,0.2
		c-0.1,0.1-0.2,0.2-0.4,0.2c-0.1,0-0.1,0-0.2,0.1c-0.1,0-0.2,0.1-0.3,0.1c-0.1,0-0.2,0-0.3,0c0,0-0.1,0-0.1,0c0,0-0.1,0-0.1,0
		c0,0,0,0-0.1,0c-0.2,0-0.3-0.1-0.5-0.2c0,0,0,0,0,0c-0.2-0.1-0.3-0.2-0.5-0.4c0,0,0,0,0-0.1l0-0.1c0,0,0,0,0-0.1c0,0,0,0,0,0l0,0
		l0,0l-0.1-0.1c0,0,0,0,0,0l0,0c0,0,0,0,0,0c-0.1-0.2-0.1-0.4-0.1-0.5c0,0,0,0,0,0c0-0.2,0-0.4,0.1-0.6c0-0.1,0.1-0.2,0.2-0.3
		c0-0.1,0.1-0.1,0.1-0.2c0,0,0.1-0.1,0.1-0.1l0,0l0,0c0,0,0,0,0,0l0,0l0,0l0,0l0.1-0.1c0.1,0,0.1-0.1,0.2-0.1c0,0,0,0,0,0
		c0.2-0.1,0.3-0.2,0.5-0.2c0.2,0,0.3-0.1,0.5-0.1c0.1,0,0.2,0,0.3,0c0.1,0,0.1,0,0.1,0c0,0,0,0,0,0l0,0c0,0,0,0,0.1,0
		c0.6,0.1,0.9,0.3,0.9,0.3s-0.2-0.2-0.5-0.4c-0.5-0.4-1.4-1-2.5-1.5c-0.1-0.1-0.3-0.1-0.4-0.1c-0.2-0.1-0.4-0.2-0.6-0.2
		c-0.2,0-0.3-0.1-0.5-0.1c-0.1,0-0.2-0.1-0.4-0.1c-0.3-0.1-0.6-0.1-1-0.2c-0.2,0-0.3,0-0.5,0c-0.1,0-0.3,0-0.4,0
		c-0.5,0-1,0.1-1.5,0.2c-1,0.2-1.9,0.4-2.7,0.6c-1.1,0.3-1.8,0.7-1.8,0.7s0.2,0.2,0.5,0.3c0.2,0.1,0.6,0.3,1,0.4
		c0.3,0.1,0.6,0.1,1,0.2c0.4,0,0.9,0,1.4,0c0,0,0.1,0,0.1,0c0.2,0,0.4-0.1,0.6-0.1c0.1,0,0.2,0,0.2,0c0,0,0,0,0,0
		c0.3-0.1,0.6-0.1,1-0.2c0.2,0,0.3,0,0.5-0.1c0.5,0,1-0.1,1.4-0.1c0.3,0,0.5,0,0.7,0c0.3,0,0.5,0,0.8,0.1c-0.2,0-0.4,0-0.6,0
		c0,0-0.1,0-0.1,0c-0.3,0-0.6,0-0.9,0c-0.1,0-0.1,0-0.2,0.1c-0.1,0-0.2,0-0.3,0.1c0,0,0,0,0,0l-0.5,0.1l-0.5,0.1l-0.5,0.1
		c-0.1,0-0.2,0-0.3,0.1c-0.1,0-0.3,0.1-0.4,0.1c-0.2,0-0.3,0.1-0.5,0.1c-0.1,0-0.3,0.1-0.4,0.1c-0.1,0-0.2,0.1-0.3,0.1l-0.5,0.1
		c0,0-0.1,0-0.1,0c-0.1,0-0.1,0-0.2,0c0,0,0,0-0.1,0c0,0-0.1,0-0.1,0c0,0,0,0-0.1,0c-0.1,0-0.3,0-0.4,0c-0.2,0-0.3,0-0.5,0
		c-0.1,0-0.1,0-0.2,0c-0.3,0-0.7-0.1-1-0.1c-0.2,0-0.5-0.1-0.7-0.1c-0.1,0-0.3-0.1-0.4-0.1c-0.2-0.1-0.5-0.2-0.7-0.3
		c-0.1,0-0.2-0.1-0.3-0.2c-0.1,0-0.2-0.1-0.3-0.1c-0.3-0.1-0.5-0.3-0.8-0.5C631.3,132.5,631.2,132.5,631.1,132.3
		C631.1,132.4,631.1,132.3,631.1,132.3C631.1,132.3,631.1,132.3,631.1,132.3z M642,135.8c0,0.1,0,0.3,0.1,0.4l0.1,0.2l0,0.1l0,0.1
		l0,0l0,0.1l0,0l0,0l0,0l0,0l0,0l0,0.1c0.1,0.1,0.1,0.2,0.2,0.3c0,0,0.1,0.1,0.1,0.1c0,0.1-0.1,0.3-0.2,0.4
		c-0.2-0.3-0.5-0.6-0.8-0.8c-0.2-0.2-0.5-0.3-0.8-0.4c0,0,0,0,0-0.1c0-0.2,0-0.3,0-0.5c0-0.1,0-0.3,0-0.4c0-0.2,0-0.4-0.1-0.5l0.2,0
		c0.2,0,0.3-0.1,0.5-0.1c0.2,0,0.3,0,0.5-0.1c0,0,0,0,0.1,0c0,0,0,0,0,0c0,0.1-0.1,0.3-0.1,0.5c0,0,0,0,0,0.1
		C641.9,135.3,641.9,135.5,642,135.8z M659,168.6c0,0.1,0,0.1,0,0.2c0,0,0,0,0,0.1c0,0,0,0.1,0,0.1c-0.1,0-0.2,0.1-0.3,0.1
		c0,0,0,0-0.1,0c-0.2,0.1-0.4,0.2-0.6,0.3c0,0-0.1,0-0.1,0.1c0,0,0,0,0,0c-0.2,0.1-0.4,0.2-0.6,0.3c-0.1,0-0.2,0.1-0.3,0.1
		c0,0,0,0,0-0.1c0-0.1,0-0.1,0.1-0.2c0.1-0.2,0.2-0.4,0.4-0.5c0,0,0-0.1,0.1-0.1c0.2-0.2,0.3-0.3,0.5-0.4c0,0,0.1-0.1,0.1-0.1
		c0.2-0.1,0.4-0.2,0.7-0.2c0,0,0,0,0.1,0c0,0,0,0,0.1,0c0,0,0,0,0,0.1c0,0,0,0.1,0,0.1C659,168.5,659,168.6,659,168.6z M657.5,162.5
		c0,0-0.1,0-0.1,0c0.4-0.8,0.6-1.7,0.6-2.7c0-1.1-0.3-2.2-0.9-3.1c0.4,0.1,1.1,0.4,1.8,0.6c0.1,0.4,0.1,0.8,0.1,1.3
		C659.1,160.1,658.5,161.5,657.5,162.5z M657.2,166.2C657.2,166.2,657.2,166.2,657.2,166.2l0.4-0.2l0.5-0.2l0.1,0
		c0,0.2-0.1,0.4-0.1,0.5c0,0,0,0,0,0c-0.3,0.1-0.5,0.2-0.7,0.3c-0.3,0.1-0.5,0.3-0.7,0.4c-0.2,0.2-0.4,0.4-0.6,0.6
		c0,0.1-0.1,0.1-0.1,0.2c-0.2,0-0.4,0-0.6-0.1c0,0,0,0-0.1,0c0,0,0,0,0,0c-0.2-0.1-0.4-0.2-0.6-0.3c-0.1-0.1-0.3-0.3-0.4-0.4
		c0,0,0.1,0,0.1,0c0.1,0,0.3,0,0.4,0c0,0,0,0,0,0c0.3,0,0.5-0.1,0.8-0.1c0.3-0.1,0.7-0.1,1-0.2c0.1,0,0.2,0,0.3-0.1l0.1,0l0.1,0
		C657,166.3,657.1,166.3,657.2,166.2z M654.7,170.6c0,0-0.1,0-0.1,0c-0.5,0.1-0.9,0.2-1.4,0.3c0.2-0.5,0.5-1,0.9-1.3
		c0.1,0.1,0.3,0.1,0.4,0.1c0.1,0,0.2,0.1,0.3,0.1C654.8,170.1,654.7,170.3,654.7,170.6C654.7,170.6,654.7,170.6,654.7,170.6z
		 M656,161.9c-0.2,0.5-0.5,0.9-0.9,1.3c-0.3,0.3-0.6,0.5-1,0.7c-0.5,0.3-1,0.5-1.6,0.6c-0.2,0-0.4,0.1-0.7,0.1c0,0-0.1,0-0.1,0
		c-0.2,0-0.5-0.1-0.7-0.2c-0.5-0.2-1.1-0.4-1.6-0.6c-0.4-0.2-0.7-0.4-1-0.7c-0.8-0.8-1.2-1.9-1.2-3.1c0-0.4,0.1-0.7,0.1-1.1
		c0.2-0.8,0.6-1.6,1.2-2.1c0.6-0.6,1.3-1,2.1-1.3c0.3-0.1,0.5-0.1,0.8-0.1c0.1,0,0.2,0,0.4,0c0.5,0,1,0.1,1.5,0.3c0,0,0.1,0,0.1,0
		c0.2,0.1,0.4,0.2,0.7,0.2c1.4,0.8,2.4,2.3,2.4,4.1C656.5,160.6,656.3,161.3,656,161.9z M631.8,143.4
		C631.8,143.4,631.9,143.4,631.8,143.4c0.1,0.1,0.2,0.2,0.3,0.3c-0.2,0-0.3,0.1-0.5,0.1c-0.1,0-0.1,0-0.2,0
		c-0.3,0.1-0.5,0.2-0.8,0.4c0,0,0,0-0.1,0c-0.1,0.1-0.2,0.2-0.3,0.3c-0.2,0-0.3-0.1-0.5-0.1c0-0.1,0.1-0.2,0.1-0.3
		c0-0.1,0-0.1,0.1-0.2c0,0,0-0.1,0-0.1c0,0,0,0,0,0c0.1-0.2,0.2-0.5,0.3-0.7c0,0,0,0,0,0c0.1-0.1,0.1-0.2,0.2-0.3c0,0,0-0.1,0-0.1
		c0.1,0,0.3,0.1,0.4,0.1c0,0,0.1,0,0.1,0.1C631.5,143.1,631.7,143.2,631.8,143.4z M631.5,141.4c0.1-0.1,0.2-0.3,0.3-0.4
		c0.1-0.1,0.1-0.2,0.2-0.3c0.1-0.1,0.2-0.2,0.3-0.4c0,0,0.1-0.1,0.1-0.1c0,0.1,0,0.2,0,0.3c0,0.1,0,0.1,0,0.2c0,0.3-0.1,0.5-0.1,0.8
		c0,0.1,0,0.2-0.1,0.2C631.9,141.6,631.7,141.5,631.5,141.4z M638.4,156.7c0-0.1,0-0.3,0-0.4c0-0.1,0-0.2,0-0.2c0.1,0,0.1,0,0.2-0.1
		c0.2-0.1,0.4-0.1,0.7-0.1c0.1,0,0.1,0,0.2,0c0.1,0,0.2,0,0.4,0c0.1,0,0.3,0.1,0.4,0.1c0.1,0,0.2,0.1,0.3,0.1
		c-0.1,0-0.3,0.1-0.4,0.1c-0.1,0-0.2,0-0.2,0.1c-0.1,0.1-0.3,0.1-0.4,0.2c-0.4,0.2-0.8,0.5-1.1,0.9c0,0,0-0.1,0-0.1
		c0-0.1,0-0.3,0-0.4C638.4,156.9,638.4,156.8,638.4,156.7z M640.4,154.6C640.3,154.6,640.3,154.6,640.4,154.6
		c-0.1-0.3-0.1-0.5-0.2-0.7c0-0.1,0-0.1-0.1-0.2c0,0,0-0.1,0-0.1c0,0,0.1,0,0.1,0c0,0,0.1,0,0.1,0c0.2,0,0.5,0,0.7,0.1c0,0,0,0,0,0
		c0,0,0.1,0,0.1,0c0.2,0.1,0.4,0.2,0.6,0.3c0,0,0,0,0,0c0,0,0,0,0,0c0,0,0.1,0.1,0.1,0.1c0.2,0.1,0.3,0.3,0.4,0.4
		c0.1,0.1,0.1,0.1,0.1,0.2c-0.1,0-0.1,0.1-0.2,0.1s-0.1,0.1-0.1,0.1c-0.1,0.1-0.2,0.1-0.2,0.2c-0.1,0.1-0.1,0.1-0.2,0.2
		c-0.1-0.1-0.3-0.2-0.4-0.3c0,0-0.1,0-0.1,0c0,0-0.1,0-0.1-0.1c0,0,0,0-0.1,0c-0.2-0.1-0.3-0.2-0.5-0.2
		C640.5,154.6,640.4,154.6,640.4,154.6z M641.1,152.1c-0.3-0.1-0.5-0.1-0.8-0.1c-0.2,0-0.4,0-0.7,0.1c-0.1,0-0.2,0-0.3,0.1
		c0,0-0.1,0-0.1,0c-0.1-0.1-0.2-0.2-0.4-0.4c-0.1,0-0.1-0.1-0.2-0.1c-0.1-0.1-0.3-0.2-0.4-0.3c0,0,0,0-0.1,0
		c-0.2-0.1-0.5-0.2-0.7-0.3c-0.2-0.1-0.3-0.1-0.5-0.1c0,0,0-0.1,0-0.1c0,0,0,0,0,0c0.2-0.1,0.3-0.3,0.5-0.4c0.2-0.1,0.3-0.2,0.5-0.2
		c0.1,0,0.2-0.1,0.3-0.1c0.1,0,0.3,0,0.4,0c0,0,0,0,0,0c0,0,0,0,0,0c0.1,0,0.2,0,0.3,0c0.1,0,0.2,0,0.3,0.1c0,0,0.1,0,0.1,0
		c0.2,0,0.3,0.1,0.4,0.2c0.1,0.1,0.2,0.1,0.3,0.2c0.1,0.1,0.2,0.2,0.3,0.3c0.1,0.1,0.2,0.3,0.3,0.4c0.1,0.2,0.2,0.4,0.3,0.6
		c0,0.1,0,0.1,0.1,0.2C641.2,152.1,641.2,152.1,641.1,152.1z M637.7,152.8c0,0,0.1,0.1,0.1,0.1c0.2,0.1,0.3,0.3,0.5,0.5
		c0,0,0.1,0.1,0.1,0.1c0.2,0.2,0.3,0.5,0.3,0.7c0,0.1,0.1,0.2,0.1,0.3c-0.1,0-0.3,0-0.4,0c-0.2,0-0.4,0.1-0.6,0.2
		c-0.1-0.1-0.2-0.2-0.2-0.3c-0.2-0.2-0.4-0.4-0.6-0.5c0,0,0,0,0,0c-0.1-0.1-0.2-0.2-0.3-0.3c-0.1-0.1-0.2-0.1-0.3-0.1
		c-0.1-0.1-0.3-0.2-0.4-0.2c-0.1-0.1-0.3-0.1-0.4-0.1c-0.1,0-0.2-0.1-0.3-0.1c-0.2,0-0.3,0-0.5,0c0,0,0,0,0,0c0,0,0,0,0,0
		c0,0,0.1-0.1,0.1-0.1c0.2-0.1,0.4-0.2,0.6-0.3c0,0,0,0,0,0c0.2-0.1,0.5-0.1,0.7-0.1c0,0,0,0,0.1,0c0,0,0,0,0,0c0,0,0,0,0,0
		c0,0,0,0,0.1,0c0.2,0,0.5,0.1,0.7,0.1C637.2,152.5,637.5,152.6,637.7,152.8z M637,158.9C637,158.9,637,158.9,637,158.9
		c0.1,0.1,0.1,0.1,0.1,0.2c-0.1,0-0.2,0-0.3,0.1c0,0-0.1,0-0.1,0c-0.2,0.1-0.5,0.2-0.7,0.3c-0.2,0.1-0.5,0.3-0.7,0.4
		c-0.1,0.1-0.3,0.2-0.4,0.4c-0.1,0.1-0.1,0.1-0.2,0.2c0-0.1,0-0.1-0.1-0.2c-0.1-0.3-0.2-0.5-0.3-0.7c-0.1-0.2-0.2-0.3-0.3-0.5
		c0.1-0.2,0.1-0.4,0.1-0.6c0,0,0-0.1,0-0.1c0.3-0.1,0.6-0.2,0.9-0.2c0,0,0,0,0,0c0.1,0,0.2,0,0.2,0c0.1,0,0.3,0,0.4,0.1c0,0,0,0,0,0
		c0.2,0.1,0.4,0.1,0.6,0.2c0.1,0,0.1,0.1,0.2,0.1C636.8,158.6,636.9,158.8,637,158.9z M636.1,161.2c0.2-0.2,0.4-0.3,0.6-0.4
		c0.2-0.1,0.4-0.2,0.6-0.2c0.1,0,0.2,0,0.3,0c0,0,0,0,0,0c0,0,0.1,0,0.1,0c0.1,0,0.2,0,0.3,0c0.1,0,0.2,0,0.3,0.1
		c0.2,0,0.3,0.1,0.5,0.2c0.1,0,0.2,0.1,0.3,0.1c0,0,0.1,0,0.1,0.1c0.3,0.2,0.5,0.4,0.7,0.7c0,0,0,0,0,0c0,0.1,0,0.2,0,0.3
		c-0.1,0-0.2,0.1-0.3,0.1c-0.1,0.1-0.2,0.1-0.4,0.2c-0.1-0.1-0.2-0.1-0.4-0.2c-0.1-0.1-0.2-0.1-0.4-0.1c-0.1,0-0.2-0.1-0.3-0.1
		c-0.2,0-0.4-0.1-0.6-0.1c-0.1,0-0.1,0-0.2,0c-0.1,0-0.1,0-0.2,0c-0.2,0-0.4,0-0.5,0.1c-0.5,0.1-0.9,0.2-1.3,0.4
		C635.6,161.8,635.9,161.5,636.1,161.2z M639.1,159.2C639.1,159.2,639.1,159.2,639.1,159.2c0.1-0.3,0.3-0.5,0.5-0.7
		c0.3-0.3,0.6-0.5,0.9-0.7c0,0,0,0,0,0c0.2-0.1,0.5-0.2,0.8-0.2c0,0,0,0,0,0c0,0,0.1,0,0.1,0c0.1,0,0.1,0,0.2,0c0.2,0,0.3,0,0.5,0.1
		c0.1,0,0.1,0,0.2,0c0.1,0,0.2,0,0.2,0.1c0.2,0.1,0.3,0.2,0.5,0.3c0.1,0.1,0.2,0.1,0.2,0.2c-0.2,0-0.4,0.1-0.6,0.2c0,0-0.1,0-0.1,0
		c0,0,0,0,0,0c-0.2,0.1-0.3,0.1-0.4,0.2c-0.1,0.1-0.2,0.1-0.4,0.2c0,0,0,0,0,0c-0.1,0.1-0.2,0.2-0.3,0.2c0,0,0,0,0,0
		c-0.2,0.2-0.4,0.4-0.6,0.6c-0.1,0.1-0.1,0.2-0.2,0.2C640.2,159.7,639.6,159.4,639.1,159.2z M641.6,161.5c0-0.1,0.1-0.2,0.1-0.3
		c0.1-0.2,0.3-0.5,0.4-0.6c0.1-0.1,0.2-0.2,0.4-0.4c0.1,0,0.1-0.1,0.2-0.1c0.1,0,0.1-0.1,0.2-0.1c0.1,0,0.1-0.1,0.2-0.1
		c0.1,0,0.1,0,0.2-0.1c0.2,0,0.4-0.1,0.6-0.1c0,0,0,0,0,0c0,0,0,0,0.1,0c0.1,0,0.1,0,0.2,0c0.1,0,0.3,0,0.4,0.1c0,0.1,0,0.2,0,0.4
		c-0.2,0.1-0.4,0.3-0.6,0.5c0,0-0.1,0.1-0.1,0.1c0,0,0,0,0,0c0,0,0,0,0,0c-0.2,0.2-0.4,0.4-0.5,0.6c0,0,0,0.1-0.1,0.1c0,0,0,0,0,0
		c-0.1,0.2-0.2,0.3-0.3,0.5c-0.1,0-0.2-0.1-0.3-0.1c0,0,0,0-0.1,0c-0.3-0.1-0.7-0.2-1-0.2c0,0,0,0-0.1,0c0,0-0.1,0-0.1,0
		C641.6,161.6,641.6,161.6,641.6,161.5z M644.3,163.2C644.3,163.2,644.3,163.2,644.3,163.2c0-0.1,0-0.1,0-0.2c0,0,0-0.1,0-0.1
		c0.1-0.2,0.1-0.4,0.2-0.6c0,0,0,0,0,0c0,0,0,0,0,0c0.1-0.2,0.2-0.3,0.3-0.4c0,0.1,0,0.1,0.1,0.2c0,0.1,0,0.1,0.1,0.2
		c0,0.1,0,0.1,0.1,0.2c0.1,0.2,0.2,0.3,0.3,0.5c0,0.1,0.1,0.1,0.1,0.2c0,0,0,0,0,0c-0.3,0-0.6,0-0.9,0.1c0,0-0.1,0-0.1,0
		c0,0,0,0-0.1,0c-0.1,0-0.2,0.1-0.3,0.1C644.3,163.4,644.3,163.3,644.3,163.2z M645.6,156.5C645.6,156.5,645.6,156.6,645.6,156.5
		c-0.3,0.2-0.5,0.3-0.8,0.5c-0.1,0.1-0.2,0.2-0.3,0.3c0,0-0.1,0.1-0.1,0.1c0,0,0-0.1-0.1-0.1c0,0,0,0,0,0c0,0-0.1,0-0.1-0.1
		c-0.2-0.2-0.4-0.4-0.7-0.5c-0.2-0.1-0.5-0.3-0.7-0.3c0.1-0.1,0.3-0.2,0.4-0.3c0.1-0.1,0.2-0.1,0.3-0.2c0.2-0.1,0.5-0.1,0.8-0.2
		c0,0,0,0,0,0c0,0,0.1,0,0.1,0c0.2,0,0.4,0,0.6,0.1c0.2,0.1,0.4,0.2,0.7,0.3C645.7,156.2,645.7,156.4,645.6,156.5z M644.5,154.2
		c-0.2,0-0.4,0-0.6,0.1c0,0,0,0,0-0.1c-0.1-0.2-0.3-0.4-0.4-0.6c-0.1-0.2-0.3-0.4-0.5-0.5c0.1,0,0.1,0,0.2-0.1
		c0.2,0,0.4-0.1,0.6-0.1c0.1,0,0.2,0,0.4,0c0.3,0,0.5,0.1,0.8,0.2c0.3,0.2,0.6,0.4,0.9,0.7c0.2,0.2,0.3,0.4,0.4,0.6
		C645.7,154.3,645.1,154.2,644.5,154.2z M645.5,151.8c-0.2-0.1-0.5-0.2-0.7-0.3c-0.2-0.1-0.5-0.1-0.8-0.1c-0.1,0-0.2,0-0.3,0
		c0,0,0,0,0,0c0,0,0,0,0,0c-0.2,0-0.3,0-0.5,0c0.1-0.1,0.2-0.2,0.3-0.3c0.1-0.1,0.3-0.2,0.4-0.2c0,0,0.1,0,0.1-0.1
		c0.2-0.1,0.5-0.1,0.8-0.2c0,0,0.1,0,0.1,0c0,0,0,0,0,0c0.2,0,0.4,0,0.6,0.1c0.2,0,0.3,0.1,0.5,0.2c0.2,0.1,0.3,0.2,0.5,0.3
		c-0.2,0.3-0.3,0.6-0.4,0.9c0,0,0,0,0,0C646,152,645.8,151.9,645.5,151.8z M643.2,149.6C643.2,149.6,643.2,149.6,643.2,149.6
		c-0.3,0.1-0.5,0.3-0.7,0.4c0,0,0,0,0,0c0,0,0,0,0,0c-0.1,0.1-0.2,0.2-0.3,0.3c-0.1-0.1-0.2-0.3-0.3-0.4c-0.1-0.1-0.1-0.1-0.2-0.2
		c0,0,0,0-0.1-0.1c-0.2-0.2-0.4-0.3-0.6-0.5c-0.2-0.1-0.4-0.3-0.7-0.4c0,0,0,0,0,0c0,0-0.1,0-0.1,0c0,0,0,0,0,0c0,0,0-0.1,0-0.1
		c0,0,0.1,0,0.1,0c0.1-0.1,0.2-0.1,0.3-0.1c0.3-0.1,0.5-0.2,0.8-0.2c0,0,0,0,0,0c0.1,0,0.1,0,0.2,0c0,0,0,0,0,0c0.1,0,0.2,0,0.4,0
		c0.1,0,0.1,0,0.2,0c0,0,0,0,0,0c0.2,0,0.4,0.1,0.6,0.2c0.2,0.1,0.5,0.3,0.7,0.5c0.1,0.1,0.3,0.3,0.4,0.4
		C643.5,149.5,643.4,149.5,643.2,149.6z M641,143.7c-0.2,0.1-0.5,0.2-0.7,0.4c0,0-0.1,0-0.1,0.1c-0.1,0-0.1-0.1-0.2-0.1
		c0,0,0,0-0.1,0c-0.2-0.1-0.4-0.2-0.7-0.3c-0.2-0.1-0.4-0.1-0.6-0.1c0,0,0,0-0.1,0c0-0.1,0-0.1-0.1-0.2c0-0.1-0.1-0.1-0.1-0.2
		c-0.1-0.2-0.2-0.4-0.3-0.6c0.1-0.1,0.3-0.2,0.4-0.2c0.1,0,0.1,0,0.2-0.1c0.1,0,0.3-0.1,0.4-0.1c0.1,0,0.2,0,0.3,0
		c0.1,0,0.3,0,0.4,0c0,0,0.1,0,0.1,0c0.1,0,0.1,0,0.2,0.1c0,0,0,0,0,0c0.2,0.1,0.4,0.1,0.5,0.2c0.1,0,0.1,0.1,0.2,0.1
		c0,0,0.1,0.1,0.1,0.1c0.1,0.1,0.2,0.2,0.3,0.3c0.1,0.1,0.2,0.2,0.2,0.3c0,0.1,0.1,0.1,0.1,0.2C641.4,143.5,641.2,143.6,641,143.7z
		 M638.1,145C638.1,145,638.1,145,638.1,145c0.1,0,0.3,0,0.4,0c0.1,0,0.2,0,0.2,0.1c0,0,0.1,0,0.1,0c0.1,0,0.1,0,0.2,0.1
		c0.2,0.1,0.5,0.2,0.6,0.4c0.2,0.2,0.4,0.4,0.5,0.6c0,0,0,0,0,0c0.1,0.2,0.2,0.4,0.3,0.6c-0.1,0-0.3,0.1-0.4,0.1c0,0-0.1,0-0.1,0
		c-0.2,0.1-0.3,0.2-0.5,0.3c-0.1-0.1-0.2-0.2-0.3-0.3c-0.2-0.2-0.4-0.4-0.6-0.5c0,0,0,0,0,0c-0.2-0.1-0.4-0.3-0.6-0.4
		c-0.2-0.1-0.5-0.2-0.7-0.3c0,0-0.1,0-0.1,0c-0.1,0-0.1,0-0.2,0c-0.1,0-0.2,0-0.3,0c0,0,0-0.1,0-0.1c0.1-0.1,0.3-0.2,0.4-0.3
		c0.1-0.1,0.3-0.1,0.4-0.2c0.1,0,0.2-0.1,0.3-0.1C637.8,145.1,637.9,145,638.1,145z M637.1,147.4
		C637.1,147.4,637.1,147.4,637.1,147.4c0.3,0.1,0.5,0.2,0.7,0.4c0.2,0.2,0.4,0.3,0.5,0.6c0,0.1,0.1,0.1,0.1,0.2c-0.1,0-0.2,0-0.3,0
		c-0.1,0-0.1,0-0.2,0c-0.4,0.1-0.7,0.2-1.1,0.4c-0.2,0.1-0.3,0.2-0.5,0.3c-0.1-0.1-0.2-0.2-0.3-0.3c0,0,0,0,0,0
		c-0.1-0.1-0.2-0.2-0.3-0.4c-0.1-0.1-0.2-0.1-0.2-0.2c0,0,0,0-0.1,0c-0.2-0.1-0.4-0.3-0.6-0.4c-0.1,0-0.1-0.1-0.2-0.1
		c0.1-0.1,0.1-0.1,0.2-0.2c0,0,0.1,0,0.1-0.1c0.2-0.1,0.4-0.2,0.6-0.3c0,0,0,0,0,0c0.2,0,0.3-0.1,0.5-0.1c0,0,0,0,0.1,0
		c0,0,0,0,0.1,0c0,0,0,0,0.1,0C636.6,147.2,636.8,147.3,637.1,147.4z M634.7,149.7c0.2,0.2,0.4,0.4,0.5,0.6c0,0.1,0.1,0.1,0.1,0.2
		c0,0.1,0.1,0.1,0.1,0.2c0,0.1,0,0.2,0.1,0.2c-0.2,0-0.3,0.1-0.5,0.1c-0.3,0.1-0.5,0.2-0.8,0.3c-0.1,0.1-0.3,0.2-0.4,0.3
		c-0.2-0.2-0.4-0.4-0.6-0.6c0,0-0.1-0.1-0.1-0.1c-0.2-0.1-0.3-0.2-0.5-0.3c-0.1-0.1-0.3-0.2-0.4-0.2c-0.1,0-0.2-0.1-0.3-0.1
		c-0.1,0-0.3-0.1-0.4-0.1c0-0.2-0.1-0.3-0.1-0.5c0,0,0-0.1,0-0.1c0,0,0,0,0,0c0.1,0,0.1-0.1,0.2-0.1c0.2-0.1,0.4-0.3,0.7-0.3
		c0.1,0,0.2-0.1,0.2-0.1c0.2,0,0.4-0.1,0.6-0.1c0,0,0,0,0,0c0.1,0,0.1,0,0.2,0c0.2,0,0.4,0,0.5,0.1c0.3,0.1,0.5,0.2,0.8,0.4
		C634.6,149.6,634.6,149.6,634.7,149.7z M630.1,146.1c0.2,0.1,0.5,0.2,0.7,0.4c0.1,0.1,0.3,0.2,0.4,0.4c0.1,0.2,0.3,0.4,0.4,0.6
		c0,0,0,0,0,0.1c0,0.1,0.1,0.2,0.1,0.2c-0.4,0.1-0.7,0.3-1.1,0.6c0,0,0,0,0,0c-0.1-0.2-0.3-0.3-0.5-0.4c-0.1-0.1-0.2-0.2-0.3-0.2
		c-0.2-0.1-0.4-0.2-0.6-0.3c0-0.3,0.1-0.6,0.1-0.9c0-0.1,0.1-0.2,0.1-0.4c0,0,0,0,0,0C629.6,146,629.9,146,630.1,146.1z
		 M629.2,149.1c0.1,0.1,0.1,0.1,0.2,0.2c0,0.1,0.1,0.1,0.1,0.2c0.2,0.2,0.3,0.5,0.4,0.7c0,0-0.1,0-0.1,0c-0.2,0.1-0.5,0.1-0.7,0.2
		c-0.1,0-0.2,0.1-0.3,0.2c0-0.1,0-0.1,0-0.2c0-0.4,0-0.8,0.1-1.2c0-0.1,0-0.2,0-0.3C629,149,629.1,149,629.2,149.1z M629,152.4
		c0.2-0.2,0.5-0.4,0.7-0.5c0.1,0,0.2-0.1,0.2-0.1c0.2-0.1,0.3-0.1,0.5-0.1c0.1,0,0.2,0,0.2,0c0,0,0.1,0,0.1,0c0.3,0,0.5,0.1,0.8,0.1
		c0,0,0,0,0,0c0.5,0.2,0.9,0.5,1.2,0.9c0.1,0.1,0.2,0.2,0.2,0.4c-0.2,0.1-0.4,0.2-0.6,0.2c-0.2,0.1-0.5,0.3-0.7,0.4
		c-0.1,0.1-0.2,0.1-0.3,0.2c-0.3-0.1-0.6-0.2-1-0.2c0,0,0,0,0,0c-0.1,0-0.3,0-0.4,0c-0.2,0-0.4,0-0.5,0.1c-0.1,0-0.2,0-0.2,0
		c-0.1,0-0.1,0-0.2,0.1c0-0.3-0.1-0.5-0.1-0.8c0-0.2-0.1-0.4-0.1-0.6C628.9,152.5,628.9,152.5,629,152.4
		C628.9,152.4,629,152.4,629,152.4z M630.1,155.3c0.2,0,0.3,0,0.5,0c0.3,0,0.5,0.1,0.7,0.3c0.2,0.1,0.5,0.3,0.6,0.5
		c0.1,0.1,0.1,0.2,0.2,0.3c0.2,0.2,0.3,0.4,0.4,0.7c0,0.1,0.1,0.3,0.1,0.4c0,0.1,0,0.2,0,0.4c0,0,0,0,0,0c0,0,0,0.1,0,0.1
		c0,0-0.1,0-0.1-0.1c-0.1,0-0.2-0.1-0.3-0.1c-0.1,0-0.2-0.1-0.4-0.1c-0.2-0.1-0.5-0.1-0.8-0.1c0,0,0,0,0,0c-0.1,0-0.1,0-0.2,0
		c-0.1,0-0.3,0-0.4,0c0,0-0.1,0-0.1,0c-0.1,0-0.1,0-0.2,0c0,0,0,0,0-0.1c-0.1-0.3-0.2-0.6-0.3-0.9c-0.1-0.4-0.2-0.8-0.3-1.2
		C629.6,155.3,629.9,155.3,630.1,155.3z M630.8,159C630.8,159,630.8,159,630.8,159c0.2,0,0.4,0,0.5,0.1c0.2,0,0.4,0.1,0.6,0.2
		c0,0,0.1,0,0.1,0.1c0,0,0,0,0.1,0c0.2,0.1,0.4,0.3,0.6,0.4c0,0,0,0,0,0c0,0,0,0,0,0c0.2,0.2,0.3,0.4,0.4,0.7
		c0.1,0.1,0.1,0.2,0.1,0.4c0.1,0.2,0.1,0.4,0.1,0.7c0,0.3-0.1,0.5-0.1,0.8c0,0.2-0.1,0.3-0.2,0.4c0,0-0.1,0-0.1,0
		c-0.3-0.4-0.6-0.9-0.9-1.4c0-0.1-0.1-0.1-0.1-0.2c0,0,0,0,0,0c-0.1-0.2-0.1-0.3-0.2-0.5c-0.1-0.2-0.2-0.4-0.4-0.7
		c0-0.1-0.1-0.1-0.1-0.2c0,0,0,0,0,0c-0.2-0.3-0.3-0.6-0.4-0.9C630.7,159,630.8,159,630.8,159z M633.1,155.1
		c-0.1-0.1-0.1-0.1-0.2-0.2c0,0,0,0,0,0c0,0,0,0,0,0c0,0,0,0,0,0c0.1-0.1,0.2-0.1,0.3-0.2c0.2-0.1,0.3-0.1,0.5-0.2
		c0.1,0,0.2,0,0.3-0.1c0.1,0,0.2,0,0.3,0c0.1,0,0.2,0,0.4,0c0,0,0.1,0,0.1,0c0.1,0,0.3,0.1,0.4,0.1c0.1,0.1,0.3,0.1,0.4,0.2
		c0.3,0.2,0.5,0.3,0.7,0.6c0,0,0.1,0.1,0.1,0.1c0.2,0.2,0.3,0.5,0.4,0.7c0,0,0,0,0,0c0.1,0.2,0.1,0.5,0.1,0.8
		c-0.2-0.1-0.4-0.1-0.6-0.2c0,0,0,0-0.1,0c-0.2-0.1-0.5-0.1-0.7-0.1c-0.1,0-0.3,0-0.4,0c-0.3,0-0.5,0-0.8,0.1
		c-0.1,0-0.2,0.1-0.3,0.1c0,0,0,0,0-0.1c-0.1-0.3-0.2-0.6-0.4-0.8c0-0.1-0.1-0.1-0.1-0.2C633.4,155.4,633.3,155.3,633.1,155.1z
		 M634.1,164.1c0.1,0,0.3,0,0.4,0c0,0,0,0,0.1,0c0.1,0,0.1,0,0.2,0c0.2,0,0.4,0.1,0.6,0.1c0.1,0,0.2,0.1,0.3,0.1
		c0.2,0.1,0.3,0.2,0.5,0.3c0.3,0.2,0.5,0.5,0.7,0.8c0.1,0.1,0.1,0.3,0.2,0.5c0,0.1,0.1,0.3,0.1,0.4c0,0.1,0,0.2,0,0.3
		c0,0.1,0,0.1,0,0.2c0,0.1,0,0.1,0,0.2c0,0-0.1,0-0.1-0.1c-0.2-0.2-0.4-0.3-0.6-0.5c-0.5-0.4-1-0.9-1.5-1.4
		c-0.1-0.1-0.2-0.3-0.4-0.4c-0.1-0.1-0.1-0.2-0.2-0.2C634.2,164.3,634.1,164.2,634.1,164.1C634,164.1,634,164.1,634.1,164.1
		C634,164.1,634,164.1,634.1,164.1z M637,163.4c-0.1,0-0.1-0.1-0.1-0.1c0.1,0,0.2,0,0.3,0c0,0,0,0,0.1,0c0.3,0,0.6,0.1,0.9,0.2
		c0,0,0,0,0,0c0.2,0.1,0.5,0.2,0.7,0.4c0.2,0.2,0.4,0.3,0.5,0.5c0.1,0.2,0.2,0.4,0.3,0.6c0,0.1,0,0.1,0.1,0.2c-0.1,0-0.1,0-0.2,0
		c0,0-0.1,0-0.1,0c-0.2,0-0.3,0-0.4,0c-0.2,0-0.4,0.1-0.6,0.1c0-0.1-0.1-0.2-0.1-0.3c-0.1-0.3-0.3-0.6-0.5-0.8
		c0-0.1-0.1-0.1-0.1-0.2C637.4,163.7,637.2,163.6,637,163.4z M638.5,167.4c0-0.1,0-0.2,0-0.3c0-0.1,0-0.3,0-0.4
		c0.1,0,0.3-0.1,0.4-0.1c0.1,0,0.3,0,0.4,0c0.1,0,0.2,0,0.3,0c0.1,0,0.1,0,0.2,0c0.2,0,0.4,0.1,0.5,0.2c0.2,0.1,0.5,0.3,0.7,0.4
		c0.2,0.2,0.3,0.3,0.5,0.6c0,0.1,0,0.2,0,0.3c-0.2,0.1-0.4,0.1-0.6,0.2c-0.3,0.1-0.6,0.3-0.9,0.6c0,0,0,0-0.1,0c0,0-0.1,0-0.1-0.1
		c-0.2-0.1-0.5-0.3-0.7-0.4c-0.2-0.1-0.5-0.3-0.7-0.4c0,0-0.1-0.1-0.2-0.1C638.4,167.7,638.5,167.6,638.5,167.4z M641.4,165.5
		c0-0.1,0-0.1,0-0.2c0,0,0-0.1,0-0.1c0-0.3-0.1-0.7-0.2-1c0-0.1,0-0.1-0.1-0.1c-0.1-0.2-0.3-0.5-0.4-0.7c0,0,0,0,0,0
		c0.1,0,0.2-0.1,0.3-0.1c0.1,0,0.2,0,0.3,0c0.1,0,0.2,0,0.3,0c0.1,0,0.2,0,0.2,0c0.1,0,0.2,0,0.3,0c0.1,0,0.3,0.1,0.4,0.1
		c0.2,0.1,0.3,0.1,0.5,0.2c0,0.1,0,0.3,0,0.4c0,0.1,0,0.2,0,0.3c0,0-0.1,0.1-0.1,0.1c-0.2,0.2-0.3,0.4-0.5,0.6
		c-0.1,0.2-0.3,0.4-0.4,0.7c0,0,0,0,0,0.1C641.7,165.7,641.5,165.6,641.4,165.5z M641.9,169.6c0.1,0,0.2-0.1,0.2-0.1
		c0.2,0,0.4-0.1,0.5-0.1c0,0,0,0,0,0c0.1,0,0.2,0,0.3,0c0,0,0.1,0,0.1,0c0.1,0,0.2,0,0.3,0.1c0.3,0.1,0.6,0.2,0.8,0.4
		c0,0.2,0.1,0.3,0.1,0.5c0,0,0,0,0,0c0,0,0,0,0,0.1c-0.4-0.1-0.7-0.2-1.1-0.3c-0.2-0.1-0.5-0.2-0.7-0.3c0,0-0.1,0-0.1,0
		c-0.1,0-0.3-0.1-0.4-0.1c-0.1,0-0.1-0.1-0.2-0.1c-0.1,0-0.1,0-0.2-0.1C641.8,169.6,641.9,169.6,641.9,169.6z M644.2,168.2
		c-0.1-0.1-0.3-0.1-0.4-0.1c-0.2,0-0.3-0.1-0.5-0.1c-0.1,0-0.1,0-0.2,0c0-0.1,0-0.2,0-0.2c0-0.1,0-0.2,0-0.4c0,0,0,0,0,0
		c0-0.4,0.1-0.7,0.2-1c0.1-0.1,0.1-0.3,0.2-0.4c0.1-0.1,0.2-0.2,0.3-0.3c0.1-0.1,0.1-0.1,0.2-0.2c0,0,0.1,0,0.1-0.1
		c0.2-0.2,0.4-0.3,0.6-0.4c0,0,0,0,0,0c0.2-0.1,0.5-0.1,0.7-0.2c0.1,0,0.2,0,0.2,0c0.2,0,0.4,0,0.5,0.1c0.3,0.1,0.5,0.2,0.8,0.3
		c-0.5,0.2-0.9,0.4-1.3,0.7c0,0-0.1,0.1-0.1,0.1c-0.1,0.1-0.1,0.1-0.2,0.2c-0.1,0.1-0.1,0.2-0.2,0.3c-0.2,0.2-0.3,0.4-0.4,0.6
		C644.5,167.4,644.3,167.8,644.2,168.2z M646.1,167.6c0.2-0.3,0.4-0.5,0.7-0.7c0.2-0.1,0.4-0.2,0.6-0.3c0.2-0.1,0.5-0.1,0.7-0.2
		c0,0,0,0,0,0c0.1,0,0.1,0,0.2,0c0.1,0,0.2,0,0.3,0c0.1,0,0.2,0,0.3,0c0,0,0,0,0,0c0.2,0.1,0.4,0.1,0.6,0.2c0.1,0,0.2,0.1,0.2,0.1
		c0,0,0.1,0.1,0.1,0.1c0,0-0.1,0.1-0.1,0.1c-0.2,0.1-0.4,0.3-0.5,0.4c-0.1,0.1-0.2,0.2-0.3,0.3c-0.1,0.1-0.2,0.2-0.2,0.3
		c0,0,0,0.1,0,0.1c-0.2,0-0.3-0.1-0.5-0.1c0,0,0,0-0.1,0c-0.1,0-0.2,0-0.2,0c-0.8,0.1-1.5,0.3-2.1,0.8
		C645.7,168.5,645.9,168,646.1,167.6z M646.2,170.6C646.2,170.6,646.2,170.6,646.2,170.6c0.1-0.2,0.2-0.2,0.3-0.3
		c0.4-0.4,0.9-0.6,1.5-0.6c0,0,0.1,0,0.1,0c0,0,0,0,0.1,0c0.2,0,0.5,0,0.7,0.1c0,0,0,0,0.1,0c0.2,0.1,0.5,0.2,0.7,0.3
		c0.2,0.2,0.4,0.4,0.6,0.6c0.1,0.2,0.2,0.3,0.3,0.5c-0.3,0-0.5,0-0.8,0c0,0,0,0-0.1,0c0,0-0.1,0-0.1,0c-0.2,0-0.4,0-0.6,0
		c-0.3,0-0.5,0-0.8,0c-0.3,0-0.5,0-0.8-0.1c-0.2,0-0.4-0.1-0.6-0.1c0,0,0,0,0,0c-0.2,0-0.5-0.1-0.7-0.1
		C646,170.8,646.1,170.7,646.2,170.6z M650.2,168.7c0.1-0.1,0.1-0.1,0.2-0.2c0.1-0.1,0.2-0.2,0.3-0.3c0.2-0.1,0.5-0.2,0.7-0.3
		c0.2-0.1,0.4-0.1,0.7-0.1c0,0,0,0,0,0c0,0.1,0.1,0.1,0.1,0.2c0.1,0.1,0.2,0.3,0.3,0.4c0.1,0.1,0.2,0.2,0.3,0.3
		c-0.2,0.2-0.4,0.4-0.5,0.6c0,0,0,0,0,0c-0.2,0.3-0.3,0.6-0.4,0.9c0,0.1,0,0.1-0.1,0.2c0-0.1-0.1-0.1-0.1-0.2
		c-0.1-0.1-0.1-0.2-0.2-0.4c-0.1-0.1-0.2-0.3-0.3-0.4c-0.1-0.1-0.2-0.2-0.3-0.3C650.6,169,650.4,168.9,650.2,168.7z M646.8,145.8
		c-0.2,0-0.4-0.1-0.6-0.1c0-0.1-0.1-0.2-0.2-0.3c-0.1-0.2-0.3-0.4-0.5-0.6c-0.1-0.1-0.2-0.2-0.3-0.3c0.2,0,0.4,0,0.6,0.1
		c0.3,0.1,0.5,0.2,0.7,0.3c0.2,0.1,0.4,0.3,0.6,0.5c0.2,0.2,0.3,0.4,0.4,0.7C647.3,146,647,145.9,646.8,145.8z M646.7,143.2
		c-0.4-0.2-0.9-0.3-1.4-0.3c0-0.2,0-0.5-0.1-0.7c0.3,0,0.5,0.1,0.8,0c0.1,0,0.2,0,0.2,0c0.1,0,0.2,0,0.2-0.1c0.1,0,0.2-0.1,0.2-0.1
		c0.1,0.2,0.1,0.4,0.1,0.7C646.7,142.8,646.7,143,646.7,143.2z M645.8,147.2C645.8,147.2,645.8,147.2,645.8,147.2c0.1,0,0.2,0,0.3,0
		c-0.1,0.2-0.2,0.3-0.3,0.5c0,0,0,0,0,0c-0.1,0.2-0.1,0.4-0.1,0.7c0,0.2,0,0.4,0,0.6l0,0.2c-0.1,0-0.2,0-0.4,0c0,0,0,0,0,0
		c-0.1-0.3-0.3-0.5-0.4-0.8c-0.2-0.3-0.4-0.5-0.6-0.7c0.2-0.2,0.5-0.3,0.8-0.4C645.3,147.3,645.5,147.2,645.8,147.2z M644.2,146
		c-0.2,0.1-0.4,0.2-0.6,0.3c-0.1,0.1-0.2,0.1-0.3,0.2c0,0-0.1,0.1-0.1,0.1c-0.1,0.1-0.1,0.1-0.2,0.2c-0.1,0.1-0.1,0.1-0.2,0.2
		c-0.1,0-0.1,0-0.2-0.1c0,0,0,0,0,0c-0.2,0-0.3-0.1-0.5-0.1c0,0,0,0,0,0c0-0.2-0.1-0.3-0.1-0.5c0,0,0,0,0,0c0-0.1,0-0.1-0.1-0.2
		c0-0.1-0.1-0.2-0.1-0.3c0-0.1-0.1-0.2-0.1-0.3c-0.1-0.1-0.1-0.2-0.1-0.3c0,0-0.1-0.1-0.1-0.1c0.1,0,0.1-0.1,0.2-0.1
		c0.1,0,0.1,0,0.2-0.1c0.1,0,0.1,0,0.2,0c0.2,0,0.3-0.1,0.5-0.1c0,0,0.1,0,0.1,0c0,0,0.1,0,0.1,0c0,0,0.1,0,0.1,0
		c0.1,0,0.2,0,0.3,0.1c0.1,0,0.2,0.1,0.3,0.1c0,0,0,0,0,0c0,0,0,0,0,0c0,0,0.1,0.1,0.1,0.1c0.2,0.1,0.4,0.3,0.6,0.4
		c0.1,0.1,0.1,0.2,0.2,0.2C644.4,145.9,644.3,145.9,644.2,146z M643.7,143.2c-0.1,0.1-0.3,0.1-0.4,0.2c0-0.1-0.1-0.2-0.1-0.3
		c-0.1-0.3-0.3-0.5-0.4-0.7c0-0.1-0.1-0.1-0.1-0.2c-0.2-0.2-0.4-0.4-0.6-0.6c0,0,0,0-0.1,0c0,0-0.1,0-0.1-0.1
		c-0.2-0.1-0.3-0.2-0.5-0.3c-0.1,0-0.1-0.1-0.2-0.1c-0.2-0.1-0.4-0.2-0.6-0.2c0-0.1,0-0.1-0.1-0.2c0,0,0-0.1,0-0.1c0,0,0.1,0,0.1,0
		c0.2,0,0.3,0,0.5,0c0.2,0,0.3,0,0.5,0c0,0,0,0,0,0c0.3,0.1,0.5,0.2,0.7,0.3c0,0,0,0,0,0c0.2,0.1,0.4,0.3,0.6,0.5
		c0.1,0.1,0.1,0.1,0.2,0.2c0.2,0.2,0.3,0.4,0.4,0.7c0.1,0.2,0.1,0.5,0.2,0.8c0,0,0,0.1,0,0.1C643.7,143.1,643.7,143.1,643.7,143.2z
		 M641.3,138.5c0.1,0.1,0.2,0.3,0.2,0.4c-0.1,0-0.3,0-0.4,0c-0.5,0-0.9,0.1-1.3,0.2c0,0,0-0.1-0.1-0.1c-0.1-0.1-0.2-0.3-0.3-0.4
		c0,0,0,0,0,0c-0.1-0.1-0.2-0.2-0.4-0.3c-0.1-0.1-0.1-0.1-0.2-0.2c-0.1-0.1-0.3-0.2-0.4-0.2c-0.1,0-0.1-0.1-0.2-0.1c0,0,0-0.1,0-0.1
		c0-0.1,0-0.1-0.1-0.2c0.1-0.1,0.3-0.1,0.4-0.1c0,0,0,0,0,0c0.2,0,0.4-0.1,0.6-0.1c0.1,0,0.2,0,0.3,0c0,0,0.1,0,0.1,0
		c0.2,0,0.5,0.1,0.7,0.2c0,0,0,0,0.1,0C640.7,137.9,641.1,138.2,641.3,138.5z M639.3,135.9c0,0-0.1,0-0.1,0c-0.5,0-1.1,0.1-1.5,0.3
		c-0.1,0-0.2,0.1-0.2,0.1c-0.2-0.2-0.3-0.3-0.5-0.5c0,0,0,0,0,0c0,0,0,0,0,0c0.1-0.1,0.3-0.2,0.4-0.3c0,0,0,0,0.1,0
		c0.1,0,0.3,0,0.4-0.1c0,0,0.1,0,0.1,0c0.5-0.1,0.9-0.2,1.3-0.3c0,0.2,0.1,0.4,0.1,0.6C639.3,135.7,639.3,135.8,639.3,135.9z
		 M637.4,139.2c0.1,0,0.2,0,0.3,0.1c0.2,0.1,0.3,0.1,0.4,0.2c0.1,0.1,0.2,0.1,0.3,0.2c0,0,0,0,0,0c0.1,0.1,0.1,0.1,0.2,0.2
		c0,0,0.1,0.1,0.1,0.1c0.1,0.2,0.3,0.3,0.3,0.5c0,0.1,0.1,0.1,0.1,0.2c-0.1,0-0.2,0-0.3,0c0,0-0.1,0-0.1,0c-0.3,0.1-0.5,0.1-0.8,0.2
		c-0.1,0.1-0.2,0.1-0.4,0.2c-0.1,0.1-0.3,0.2-0.4,0.3c-0.1,0-0.1,0.1-0.2,0.1c0,0,0,0,0,0c0-0.1,0-0.2,0-0.4c0-0.1,0-0.1,0-0.2
		c0,0,0-0.1,0-0.1c0-0.4-0.1-0.8-0.2-1.1c0,0,0,0,0-0.1c0-0.1-0.1-0.2-0.1-0.3c0-0.1-0.1-0.2-0.1-0.3c0,0,0.1,0,0.1,0
		c0,0,0.1,0,0.1,0c0,0,0.1,0,0.1,0C637.1,139.1,637.2,139.2,637.4,139.2z M636.9,143.7c-0.3,0.1-0.5,0.2-0.7,0.3
		c-0.1,0-0.2,0.1-0.2,0.1c-0.2,0.1-0.3,0.2-0.5,0.4c0,0-0.1-0.1-0.1-0.1c-0.1,0-0.1-0.1-0.2-0.1c-0.3-0.2-0.5-0.3-0.8-0.4
		c-0.1,0-0.1,0-0.2-0.1c-0.1,0-0.1,0-0.2-0.1c-0.1-0.2-0.1-0.3-0.2-0.4c-0.1-0.1-0.1-0.2-0.2-0.3c0,0-0.1-0.1-0.1-0.1
		c0,0,0.1,0,0.1-0.1c0.2-0.1,0.5-0.2,0.7-0.3c0.2,0,0.3-0.1,0.5-0.1c0,0,0.1,0,0.1,0c0.3,0,0.6,0.1,0.8,0.2c0.1,0,0.1,0.1,0.2,0.1
		c0,0,0,0,0,0c0.2,0.1,0.3,0.2,0.4,0.3c0.1,0,0.1,0.1,0.2,0.1C636.7,143.3,636.8,143.5,636.9,143.7z M636.3,137.6
		c-0.2,0-0.4,0-0.6,0.1c-0.1,0-0.2,0.1-0.3,0.1c-0.2-0.1-0.4-0.3-0.6-0.4l0.1-0.1c0.2-0.1,0.3-0.3,0.5-0.4c0,0,0.1-0.1,0.1-0.1
		c0.2,0.1,0.4,0.3,0.6,0.4c0,0,0,0.1,0.1,0.1c0.1,0.1,0.2,0.2,0.3,0.3C636.4,137.6,636.4,137.6,636.3,137.6z M635.1,139.6
		C635.1,139.6,635.1,139.7,635.1,139.6c0.2,0.4,0.3,0.8,0.3,1.3c0,0,0,0.1,0,0.1c-0.1,0-0.1,0-0.2,0c-0.2,0-0.3,0-0.5,0
		c-0.2,0-0.4,0-0.6,0.1c-0.1,0-0.2,0-0.3,0c0-0.1,0-0.2,0-0.3c0-0.3,0-0.6-0.1-0.8c-0.1-0.3-0.2-0.6-0.3-0.9c0-0.1-0.1-0.1-0.1-0.2
		c0-0.1,0.1-0.1,0.1-0.2c0.1-0.1,0.1-0.1,0.2-0.2c0,0,0.1,0,0.1,0c0,0,0.1,0,0.1,0.1c0.2,0.1,0.5,0.3,0.7,0.4
		c0.1,0.1,0.1,0.1,0.2,0.2C634.9,139.4,635,139.5,635.1,139.6z M633.4,145.2c0.3,0,0.5,0.1,0.8,0.3c0.1,0.1,0.2,0.1,0.3,0.2
		c0.1,0.1,0.2,0.2,0.3,0.3c-0.2,0.1-0.4,0.2-0.6,0.3c-0.1,0-0.1,0.1-0.2,0.1c-0.3,0.2-0.6,0.5-0.9,0.7c-0.1,0.1-0.1,0.1-0.2,0.2
		c0-0.1,0-0.2-0.1-0.2c0-0.1-0.1-0.2-0.2-0.4c-0.1-0.2-0.2-0.3-0.3-0.5c0,0-0.1-0.1-0.1-0.1c-0.2-0.2-0.3-0.4-0.5-0.6
		c0.1-0.1,0.2-0.1,0.4-0.1c0.1,0,0.3-0.1,0.4-0.1c0.1,0,0.2,0,0.3,0C633.2,145.2,633.3,145.2,633.4,145.2z M627.3,150.4
		c0,12.3,10,22.4,22.4,22.4c12.3,0,22.4-10,22.4-22.4c0-12.3-10-22.4-22.4-22.4c-1.6,0-3.2,0.2-4.8,0.5c-0.1,0-0.1,0-0.2-0.1
		c-0.2-0.1-0.4-0.2-0.7-0.2c-0.3-0.1-0.7-0.1-1-0.2c2.1-0.6,4.3-1,6.6-1c12.9,0,23.3,10.5,23.3,23.3c0,12.9-10.5,23.3-23.3,23.3
		c-12.9,0-23.3-10.5-23.3-23.3c0-6,2.3-11.4,6-15.6c0.3,0.1,0.7,0.2,1,0.3C629.6,139.2,627.3,144.5,627.3,150.4z M660.6,157.9
		c0,0,0.1,0,0.1,0c0.4,0.1,0.7,0.3,1,0.4c0,1.8-0.8,3.3-2.1,4.4c0,0-0.1,0-0.1,0c0.8-1.2,1.2-2.6,1.2-4.1
		C660.6,158.4,660.6,158.1,660.6,157.9z M662.2,163.9c0.1,0,0.1,0,0.2-0.1c0,0,0.1,0,0.1-0.1c0,0,0,0,0,0c-0.1,0.1-0.1,0.2-0.1,0.4
		c-0.1,0-0.2,0.1-0.3,0.1c-0.7,0.2-1.3,0.6-1.8,1.1c0,0,0-0.1,0-0.1c0-0.1,0-0.2,0-0.4c0-0.1,0-0.1,0-0.2c0.1,0,0.2-0.1,0.3-0.1
		c0.1,0,0.1-0.1,0.2-0.1c0.3-0.1,0.6-0.3,0.9-0.4C661.9,164,662.1,164,662.2,163.9z M662.2,161.8c0.4-0.8,0.7-1.7,0.9-2.6
		c0.3,0.2,0.6,0.4,1,0.6C663.6,160.6,663,161.3,662.2,161.8C662.2,161.8,662.2,161.8,662.2,161.8z M663.1,166.3
		c-0.2,0.2-0.5,0.4-0.7,0.6c-0.1,0.1-0.3,0.2-0.4,0.3c-0.1,0.1-0.2,0.1-0.3,0.2c-0.1,0.1-0.2,0.2-0.3,0.2c0-0.1,0.1-0.2,0.2-0.3
		c0.1-0.1,0.1-0.2,0.2-0.3c0.1-0.2,0.3-0.3,0.5-0.4C662.5,166.4,662.8,166.3,663.1,166.3z M664.7,164.3c0.1-0.2,0.3-0.3,0.4-0.4
		c0.1-0.1,0.2-0.1,0.2-0.2c0.1-0.1,0.2-0.1,0.3-0.2c-0.1,0.1-0.2,0.2-0.2,0.3c0,0.1-0.1,0.1-0.1,0.2c-0.1,0.1-0.2,0.3-0.4,0.4
		C664.9,164.3,664.8,164.3,664.7,164.3z M649.6,174.7c-13.4,0-24.3-10.9-24.3-24.3c0-6.1,2.3-11.7,6.1-16c0,0,0,0,0,0
		c0.1,0,0.2,0.1,0.3,0.1c-3.7,4.2-6,9.8-6,15.9c0,13.2,10.8,24,24,24c13.2,0,24-10.7,24-24c0-13.2-10.8-24-24-24
		c-2.8,0-5.4,0.5-7.9,1.4c-0.2,0-0.5-0.1-0.7-0.1c2.7-1,5.6-1.6,8.6-1.6c13.4,0,24.3,10.9,24.3,24.3
		C673.9,163.8,663,174.7,649.6,174.7z"/>
	<path class="st0" d="M651.5,138.4c0.4,0.3,1.7,1.2,2.7,0.3c0.2-0.1,0.3-0.2,0.4-0.2c0.1,0,0.2,0.1,0.3,0.3c0.3,0.6,0.9,1,1.3,1
		c0.1,0,0.2,0,0.3-0.1l0.5-0.2l-0.4-0.3c0,0-0.2-0.2-0.6-0.8c-0.1-0.2-0.3-0.4-0.4-0.7c-0.3-0.5-0.6-1-1-1.3
		c-0.5-0.5-0.9-0.4-1.3-0.2c-0.1,0.1-0.3,0.1-0.5,0.2c-0.1,0-0.3,0.1-0.4,0.1c-0.7,0.2-1.2,0.3-1.4,0.6c-0.1,0.2-0.2,0.3-0.1,0.5
		C651,138,651.3,138.3,651.5,138.4z"/>
	<path class="st0" d="M657.4,148c-0.1-0.1-0.1-0.2-0.2-0.3c-0.1-0.1-0.1-0.2-0.2-0.3c-0.1-0.2-0.3-0.4-0.4-0.6
		c-0.1-0.2-0.3-0.4-0.4-0.7c-0.2-0.2-0.3-0.4-0.5-0.6c-0.2-0.2-0.4-0.4-0.6-0.5c-0.2-0.1-0.4-0.2-0.6-0.3c-0.2-0.1-0.4-0.1-0.5-0.2
		c-0.2,0-0.3-0.1-0.4-0.1c-0.1,0-0.2,0-0.3,0c-0.1,0-0.1,0-0.1,0s0.1,0.1,0.3,0.2c0.1,0.1,0.2,0.1,0.3,0.2c0.1,0.1,0.3,0.2,0.4,0.3
		c0.1,0.1,0.1,0.1,0.2,0.2c0,0,0.1,0.1,0.1,0.1c0,0,0.1,0.1,0.1,0.1c0.1,0.2,0.3,0.3,0.4,0.5c0.1,0.1,0.1,0.2,0.2,0.3
		c0.1,0.1,0.1,0.2,0.2,0.3c0.1,0.2,0.3,0.4,0.4,0.6c0.1,0.2,0.3,0.5,0.4,0.7c0.2,0.2,0.3,0.4,0.5,0.6c0.2,0.2,0.4,0.4,0.6,0.5
		c0.2,0.1,0.4,0.2,0.6,0.3c0.1,0,0.1,0,0.2,0.1c0.1,0,0.2,0.1,0.3,0.1c0.2,0,0.3,0.1,0.4,0.1c0.1,0,0.2,0,0.3,0c0.1,0,0.1,0,0.1,0
		s-0.1-0.1-0.3-0.2c0,0-0.1,0-0.1-0.1c-0.1-0.1-0.2-0.1-0.2-0.2c-0.1-0.1-0.3-0.2-0.4-0.3c-0.1-0.1-0.3-0.3-0.4-0.4
		C657.7,148.4,657.6,148.2,657.4,148z"/>
	<path class="st0" d="M652.4,134.9c0.1,0,0.2,0,0.4,0c0.2,0,0.3,0,0.5,0c0.2,0,0.4-0.1,0.6-0.1c0.2,0,0.4-0.1,0.6-0.1
		c0.2,0,0.4,0,0.6,0c0,0,0.1,0,0.2,0l0.1,0l0,0l0,0l0,0c0.1,0,0.1,0,0.2,0.1c0.1,0.1,0.3,0.3,0.4,0.5c0.1,0.2,0.2,0.4,0.3,0.6
		c0.1,0.2,0.2,0.4,0.3,0.6c0.1,0.2,0.2,0.3,0.3,0.5c0.2,0.3,0.5,0.5,0.6,0.6c0.1,0.1,0.2,0.1,0.2,0.1c0,0,0.1,0,0.1,0s0,0-0.1-0.1
		c0,0-0.1-0.1-0.2-0.2c-0.1-0.1-0.1-0.2-0.2-0.3c-0.1-0.1-0.2-0.3-0.2-0.4c-0.2-0.3-0.3-0.7-0.5-1.1c-0.1-0.2-0.2-0.4-0.3-0.6
		c-0.1-0.2-0.2-0.5-0.5-0.7c-0.1-0.1-0.3-0.2-0.4-0.2l-0.1,0l-0.1,0l-0.1,0c-0.1,0-0.1,0-0.2,0c-0.1,0-0.3,0-0.4,0
		c-0.1,0-0.3,0-0.4,0c-0.2,0-0.5,0.1-0.7,0.2c-0.2,0.1-0.4,0.1-0.5,0.2c-0.3,0.1-0.6,0.2-0.8,0.3c-0.1,0-0.2,0.1-0.2,0.1
		c-0.1,0-0.1,0-0.1,0s0,0,0.1,0C652.2,134.9,652.3,134.9,652.4,134.9z"/>
</g>
<g>
	<path class="st0" d="M768.7,158.3c-4.2,0.6-9,1.2-12.1,3.3c-4.2,2.9-8.4,5.5-14.9,6.2c-1.2,0.1-2.2,0.2-3.2,0.2
		c-2.8,0-5.4-0.5-8.2-1.7c2.8,3.2,6.4,5.3,9.1,6.5c4.4,2,8.3,2.7,9.9,2.7c4.8,0,9.2-1,13.1-3c6.8-3.4,9.8-8.3,12.2-15.3
		C773,157.7,771,158,768.7,158.3z"/>
	<path class="st0" d="M752.6,142.2c0-1.1-0.9-1.9-1.9-1.9c-1.1,0-1.9,0.9-1.9,1.9c0,1.1,0.9,1.9,1.9,1.9
		C751.7,144.1,752.6,143.2,752.6,142.2z"/>
	<circle class="st0" cx="750.7" cy="151.7" r="1.9"/>
	<path class="st0" d="M753,159c1.1,0,1.9-0.9,1.9-1.9c0-1.1-0.9-1.9-1.9-1.9c-1.1,0-1.9,0.9-1.9,1.9C751.1,158.2,752,159,753,159z"
		/>
	<path class="st0" d="M748.3,159c1.1,0,1.9-0.9,1.9-1.9c0-1.1-0.9-1.9-1.9-1.9c-1.1,0-1.9,0.9-1.9,1.9
		C746.4,158.2,747.2,159,748.3,159z"/>
	<path class="st0" d="M755.8,146.2c0,1.1,0.9,1.9,1.9,1.9c1.1,0,1.9-0.9,1.9-1.9c0-1.1-0.9-1.9-1.9-1.9
		C756.6,144.2,755.8,145.1,755.8,146.2z"/>
	
		<ellipse transform="matrix(8.064470e-03 -1 1 8.064470e-03 595.9588 911.8555)" class="st0" cx="757.6" cy="155.5" rx="1.9" ry="1.9"/>
	<path class="st0" d="M755.8,139.5c-1.1,0-1.9,0.9-1.9,1.9c0,1.1,0.9,1.9,1.9,1.9c1.1,0,1.9-0.9,1.9-1.9
		C757.8,140.4,756.9,139.5,755.8,139.5z"/>
	<path class="st0" d="M741.7,146.2c0,1.1,0.9,1.9,1.9,1.9c1.1,0,1.9-0.9,1.9-1.9c0-1.1-0.9-1.9-1.9-1.9
		C742.6,144.2,741.7,145.1,741.7,146.2z"/>
	<path class="st0" d="M750.7,130.6c-1.1,0-1.9,0.9-1.9,1.9c0,1.1,0.9,1.9,1.9,1.9c1.1,0,1.9-0.9,1.9-1.9
		C752.6,131.4,751.7,130.6,750.7,130.6z"/>
	<path class="st0" d="M743.8,141.5c0,1.1,0.9,1.9,1.9,1.9c1.1,0,1.9-0.9,1.9-1.9c0-1.1-0.9-1.9-1.9-1.9
		C744.6,139.5,743.8,140.4,743.8,141.5z"/>
	<path class="st0" d="M743.6,153.6c-1.1,0-1.9,0.9-1.9,1.9c0,1.1,0.9,1.9,1.9,1.9c1.1,0,1.9-0.9,1.9-1.9
		C745.5,154.5,744.6,153.6,743.6,153.6z"/>
	<path class="st0" d="M753.1,135c-1.1,0-1.9,0.9-1.9,1.9c0,1.1,0.9,1.9,1.9,1.9s1.9-0.9,1.9-1.9C755,135.9,754.2,135,753.1,135z"/>
	<path class="st0" d="M746.3,136.9c0,1.1,0.9,1.9,1.9,1.9c1.1,0,1.9-0.9,1.9-1.9c0-1.1-0.9-1.9-1.9-1.9
		C747.2,135,746.3,135.9,746.3,136.9z"/>
	<path class="st0" d="M758.2,151c0-1.1-0.9-1.9-1.9-1.9c-1.1,0-1.9,0.9-1.9,1.9c0,1.1,0.9,1.9,1.9,1.9
		C757.3,153,758.2,152.1,758.2,151z"/>
	<path class="st0" d="M747,151c0-1.1-0.9-1.9-1.9-1.9s-1.9,0.9-1.9,1.9c0,1.1,0.9,1.9,1.9,1.9S747,152.1,747,151z"/>
	<path class="st0" d="M737.8,153.9c0,0.9,0.7,1.7,1.6,1.9c0.5,0.1,0.9,0.3,1.4,0.4c-0.1-0.2-0.1-0.5-0.1-0.7c0-1.2,0.8-2.2,1.8-2.6
		c0-0.1,0-0.1,0-0.2c-0.3-0.5-0.5-1-0.5-1.6c0-0.4,0.1-0.9,0.3-1.2c0-0.3,0-0.5,0-0.8c0-0.1,0-0.2,0-0.3c-0.9-0.5-1.5-1.4-1.5-2.5
		c0-1.4,1-2.5,2.2-2.8c0-0.2,0.1-0.4,0.2-0.6c-0.2-0.4-0.4-0.9-0.4-1.4c0-1.2,0.8-2.2,1.8-2.6c0.3-0.6,0.5-1.1,0.8-1.6
		c0-0.1,0-0.2,0-0.3c0-1.2,0.7-2.1,1.7-2.6c0.3-0.4,0.5-0.8,0.8-1.2c-0.1-0.2-0.1-0.4-0.1-0.7c0-1.6,1.3-2.8,2.8-2.8
		c1.6,0,2.8,1.3,2.8,2.8c0,0.2,0,0.4-0.1,0.6c0.3,0.4,0.6,0.8,0.9,1.3c0.9,0.5,1.6,1.4,1.6,2.5c0,0.1,0,0.1,0,0.2
		c0.3,0.6,0.5,1.1,0.8,1.6c1.1,0.4,2,1.4,2,2.7c0,0.6-0.2,1.1-0.5,1.5c0,0.1,0.1,0.3,0.1,0.4c1.3,0.3,2.2,1.4,2.2,2.8
		c0,1.1-0.6,2-1.5,2.5c0,0.1,0,0.2,0,0.3c0,0.3,0,0.6,0,0.8c0.2,0.4,0.3,0.8,0.3,1.2c0,0.6-0.2,1.2-0.5,1.6c0,0.1,0,0.2,0,0.3
		c1,0.4,1.7,1.4,1.7,2.6c0,0.4-0.1,0.7-0.2,1c0.4-0.1,0.9-0.2,1.3-0.3c1-0.1,1.7-0.9,1.7-1.9c0-0.8-0.4-1.4-1.1-1.7
		c0-0.3,0.1-0.6,0.1-0.9c0.8-0.3,1.3-1,1.3-1.8c0-0.8-0.5-1.5-1.2-1.8c0-0.4,0-0.7-0.1-1.1c0.5-0.3,0.9-0.9,0.9-1.6
		c0-0.9-0.6-1.7-1.4-1.9c-0.1-0.4-0.2-0.8-0.3-1.2c0.3-0.3,0.5-0.8,0.5-1.3c0-0.9-0.6-1.7-1.5-1.9c-0.2-0.4-0.3-0.9-0.5-1.3
		c0.3-0.3,0.4-0.8,0.4-1.2c0-1.1-0.9-1.9-1.9-1.9c0,0,0,0,0,0c-0.3-0.5-0.6-1-0.9-1.5c0.1-0.3,0.2-0.5,0.2-0.8
		c0-1.1-0.9-1.9-1.9-1.9c-0.1,0-0.1,0-0.2,0c-0.2-0.2-0.4-0.5-0.6-0.7c0-0.2,0.1-0.3,0.1-0.5c0-1.1-0.9-1.9-1.9-1.9
		c-0.2,0-0.4,0-0.6,0.1c0,0,0,0,0,0c0,0,0,0,0,0c0-1.1-0.9-1.9-1.9-1.9c-1.1,0-1.9,0.9-1.9,1.9c0,0,0,0,0,0c-0.2,0-0.3-0.1-0.5-0.1
		c-1.1,0-1.9,0.9-1.9,1.9c0,0.2,0,0.3,0.1,0.4c-0.2,0.2-0.4,0.5-0.6,0.8c0,0-0.1,0-0.1,0c-1.1,0-1.9,0.9-1.9,1.9
		c0,0.3,0.1,0.5,0.2,0.8c-0.3,0.5-0.6,1-0.9,1.6c-1,0-1.9,0.9-1.9,1.9c0,0.4,0.1,0.8,0.4,1.1c-0.2,0.5-0.4,0.9-0.6,1.4
		c-0.8,0.2-1.4,1-1.4,1.8c0,0.4,0.1,0.8,0.4,1.2c-0.1,0.4-0.2,0.9-0.3,1.3c-0.9,0.2-1.5,1-1.5,1.9c0,0.7,0.4,1.3,0.9,1.7
		c0,0.4-0.1,0.7-0.1,1.1c-0.6,0.3-1.1,1-1.1,1.7c0,0.8,0.4,1.4,1.1,1.7c0,0.2,0,0.4,0,0.6C738.3,152.5,737.8,153.1,737.8,153.9z"/>
	<path class="st0" d="M731.7,164.9C731.8,164.9,731.8,164.9,731.7,164.9c1,0,1.9-0.4,2.5-1.1c0.3,1,0.9,1.7,1.8,2.2
		c0.8,0.1,1.6,0.2,2.5,0.2c0.1,0,0.1,0,0.2,0c0.7-0.2,1.2-0.7,1.6-1.2c0.1,0.4,0.2,0.8,0.4,1.1c0.3,0,0.5,0,0.8-0.1
		c0.5,0,0.9-0.1,1.4-0.2c-0.5-0.3-0.8-0.8-0.8-1.4c0-0.9,0.7-1.6,1.6-1.6c0.9,0,1.6,0.7,1.6,1.6c0,0.4-0.1,0.7-0.4,1
		c0.7-0.2,1.5-0.4,2.1-0.6c0-0.1,0-0.3,0-0.4c0-0.2,0-0.5-0.1-0.7c0.4,0.2,0.7,0.5,1.1,0.7c0.7-0.3,1.3-0.5,1.9-0.9
		c-1.5-1.1-3.1-2.1-5-3c-4.5-2.3-8.9-3.5-12.4-3.5c-0.3,0-0.6,0-0.9,0c0,0,0,0,0,0s0,0,0,0c-0.2,0-0.4,0-0.7,0.1
		c-1.5,0.1-5.1,0.3-6.5-1.1c0.4,1.8,1.2,4.2,2.3,6.4l1,0.6c0.5,0.3,0.9,0.5,1.3,0.7c0,0,0,0,0,0c0.1,0,0.2,0.1,0.2,0.1
		c0.1,0,0.1,0.1,0.2,0.1c0,0,0,0,0,0C730.4,164.3,731.1,164.6,731.7,164.9z M742.4,161.2c-0.6,0.2-1.1,0.6-1.5,1.2
		c-0.2-1-0.7-1.8-1.5-2.3C740.4,160.4,741.4,160.8,742.4,161.2z M739.2,162.9c0,0.9-0.7,1.6-1.6,1.6c-0.9,0-1.6-0.7-1.6-1.6
		c0-0.9,0.7-1.6,1.6-1.6C738.4,161.3,739.2,162.1,739.2,162.9z M737.5,159.5c-1,0-1.8,0.4-2.4,1.1c-0.2-0.7-0.5-1.2-1-1.7
		C735.1,159,736.3,159.2,737.5,159.5z M731.8,159.9c0.9,0,1.6,0.7,1.6,1.6c0,0.9-0.7,1.6-1.6,1.6c-0.9,0-1.6-0.7-1.6-1.6
		C730.2,160.6,730.9,159.9,731.8,159.9z"/>
	<path class="st0" d="M753.1,148.8c1.1,0,1.9-0.9,1.9-1.9c0-1.1-0.9-1.9-1.9-1.9c-1.1,0-1.9,0.9-1.9,1.9
		C751.1,148,752,148.8,753.1,148.8z"/>
	<path class="st0" d="M746.3,146.9c0,1.1,0.9,1.9,1.9,1.9c1.1,0,1.9-0.9,1.9-1.9c0-1.1-0.9-1.9-1.9-1.9
		C747.2,145,746.3,145.9,746.3,146.9z"/>
</g>
<g>
	<g>
		<polygon class="st0" points="845.7,154.4 837.1,144.2 832.7,144.2 843.5,156.9 		"/>
		<polygon class="st0" points="855.6,144.2 856.3,144.9 860.8,150.3 865.2,150.3 860,144.2 		"/>
		<polygon class="st0" points="860.8,150.9 860.7,151 849.5,164.4 844.2,170.7 848.5,170.7 865.2,150.9 		"/>
		<polygon class="st0" points="846.7,163.9 830.1,144.2 825.8,144.2 832.9,152.6 842.4,163.9 		"/>
		<polygon class="st0" points="842.4,164.5 837.2,170.7 841.6,170.7 846.7,164.5 		"/>
		<polygon class="st0" points="879.5,150.3 862.8,130.6 858.5,130.6 875.1,150.3 		"/>
		<polygon class="st0" points="875.1,150.9 863.8,164.4 858.5,170.7 862.8,170.7 879.5,150.9 		"/>
		<polygon class="st0" points="857.2,136.7 860.7,136.7 855.6,130.6 851.3,130.6 856.4,136.7 		"/>
		<polygon class="st0" points="867.9,150.3 872.2,150.3 867.1,144.2 862.7,144.2 865.9,147.9 		"/>
		<polygon class="st0" points="867.9,150.9 867.8,151 856.5,164.4 851.3,170.7 855.6,170.7 872.2,150.9 		"/>
		<polygon class="st0" points="848.6,150.9 845.5,150.9 847,152.7 		"/>
		<path class="st0" d="M854.7,143.6C854.7,143.6,854.7,143.6,854.7,143.6C854.8,143.6,854.8,143.6,854.7,143.6
			c0.1-0.1,0.2-0.1,0.2-0.1h0.5l5.2-6.2l-4.4,0l-10.8,12.9h3.6L854.7,143.6z"/>
	</g>
	<g>
		<path class="st0" d="M860.3,150.6l-5.3-6.2l-8.6,10.2l0,0l-2.6,3.1c-0.1,0.1-0.1,0.1-0.2,0.1c-0.1,0-0.2,0-0.2-0.1l-11.2-13.3
			l-0.5,0.6l16,19.1c0.1,0.1,0.1,0.1,0.1,0.2c0,0.1,0,0.2-0.1,0.2l-4.6,5.5l0.5,0.6L860.3,150.6L860.3,150.6z"/>
		<polygon class="st0" points="825.1,144.3 819.8,150.6 836.6,170.5 841.9,164.2 825.9,145.3 		"/>
		<path class="st0" d="M862,135.7l-4.2-4.9l-0.6,0.7l4.4,5.3c0.1,0.1,0.1,0.1,0.1,0.2c0,0.1,0,0.2-0.1,0.2l-5.3,6.3h3.9
			c0.1,0,0.2,0,0.2,0.1l0.7,0.8l0.7-0.8c0,0,0,0,0.1,0c0,0,0,0,0,0c0,0,0.1,0,0.2,0c0,0,0,0,0,0h5.2c0.1,0,0.2,0,0.2,0.1l5.6,6.7
			c0.1,0.1,0.1,0.1,0.1,0.2c0,0.1,0,0.2-0.1,0.2l-15.9,19l0.6,0.7l16.8-19.9L862,135.7z"/>
		<path class="st0" d="M846.6,153.2l-2-2.4c0,0,0,0,0,0c0,0,0,0,0,0c0,0,0,0,0,0c0,0,0,0,0-0.1c0,0,0,0,0,0c0,0,0,0,0-0.1
			c0,0,0,0,0,0c0,0,0,0,0,0c0,0,0,0,0,0l11.2-13.4l-3.3-4l-1.9-2.3l-12,14.2l7.5,8.9L846.6,153.2z"/>
		<path class="st0" d="M865,147.8l-3-3.5l-0.5,0.6l4.5,5.4c0.1,0.1,0.1,0.1,0.1,0.2c0,0.1,0,0.2-0.1,0.2l-16,19l0.5,0.6l0.1-0.1
			l16.7-19.8L865,147.8z"/>
	</g>
</g>
<g>
	<path class="st0" d="M952.5,138.1l6.1,9.3l13.5-18.7l-10.8-0.1c-1.9,0-3.6,0.9-4.7,2.4l-4.5,6.3L952.5,138.1z"/>
	<path class="st0" d="M945,131c-1.1-1.6-2.8-2.6-4.7-2.6l-9.2-0.1l13,20l-17,23.6l10.8,0.1c1.9,0,3.6-0.9,4.7-2.3l0.4-0.5l14.2-19.7
		L945,131z"/>
	<path class="st0" d="M958.5,151.7l-6.1,8.4l5.7,9.5c1,1.7,2.9,2.8,4.9,2.8l9.2,0.1L958.5,151.7z"/>
</g>
<g>
	<polygon class="st0" points="928.2,48.3 928.2,50.3 949.6,42.9 971,50.3 971,48.3 949.6,38.4 	"/>
	<polygon class="st0" points="928.2,55.1 928.2,57.2 949.6,54.7 971,57.2 971,55.1 949.6,50.1 	"/>
	<polygon class="st0" points="928.2,51.7 928.2,53.8 949.6,48.8 971,53.8 971,51.7 949.6,44.2 	"/>
	<polygon class="st0" points="928.2,58.5 928.2,60.7 949.6,60.5 971,60.7 971,58.5 949.6,55.9 	"/>
	<polygon class="st0" points="928.2,65.4 928.2,67.5 949.6,72.3 971,67.5 971,65.4 949.6,67.7 	"/>
	<polygon class="st0" points="928.2,61.9 928.2,64.1 949.6,66.4 971,64.1 971,61.9 949.6,61.8 	"/>
	<polygon class="st0" points="949.6,28.6 919.2,47.2 927.4,47.2 949.6,36.1 971.8,47.2 980,47.2 	"/>
</g>
</svg>
