<?xml version="1.0" encoding="UTF-8" standalone="no"?>
<!DOCTYPE svg PUBLIC "-//W3C//DTD SVG 1.1//EN" "http://www.w3.org/Graphics/SVG/1.1/DTD/svg11.dtd">
<svg width="100%" height="100%" viewBox="0 0 200 130" version="1.1" xmlns="http://www.w3.org/2000/svg" xmlns:xlink="http://www.w3.org/1999/xlink" xml:space="preserve" xmlns:serif="http://www.serif.com/" style="fill-rule:evenodd;clip-rule:evenodd;stroke-linejoin:round;stroke-miterlimit:2;">
    <g transform="matrix(0.563274,0,0,0.563274,26.6664,85.8533)">
        <path d="M58.037,-55.985C48.164,-49.698 38.175,-45.391 29.387,-46.207C60.982,-52.708 94.071,-100.006 108.266,-106.032C137.519,-118.453 149.281,-80.957 202.06,-52.228C228.531,-37.82 263.657,-38.794 258.149,-38.43C208.67,-35.136 183.527,-39.32 160.636,-53.483C156.611,-55.242 152.526,-56.8 148.368,-58.109C139.509,-60.868 130.38,-62.557 121.168,-63.077C111.951,-63.616 102.672,-62.998 93.496,-61.477C88.911,-60.682 84.341,-59.699 79.827,-58.444C75.299,-57.226 70.82,-55.772 66.403,-54.027C70.32,-56.741 74.64,-58.835 79.036,-60.719C83.461,-62.539 88.026,-64.072 92.7,-65.218C102.03,-67.58 111.774,-68.542 121.452,-67.991C130.486,-67.48 139.465,-65.62 147.891,-62.425C123.437,-81.365 116.689,-96.831 105.31,-92.292C98.869,-89.718 85.87,-76.879 71.179,-65.39C71.241,-65.423 71.303,-65.456 71.365,-65.489C74.526,-67.203 77.799,-68.674 81.124,-70.037C84.459,-71.364 87.874,-72.488 91.342,-73.43C94.82,-74.32 98.352,-75.02 101.925,-75.436C105.499,-75.808 109.105,-75.987 112.694,-75.741C119.864,-75.331 126.996,-73.509 133.285,-70.083C126.527,-72.31 119.572,-73.375 112.634,-73.334C109.168,-73.289 105.707,-73.063 102.276,-72.537C98.844,-72.049 95.437,-71.35 92.076,-70.442C88.703,-69.586 85.383,-68.504 82.097,-67.302C78.802,-66.131 75.574,-64.748 72.361,-63.325C67.501,-61.106 62.719,-58.668 58.037,-55.985ZM0,-19.538L2.795,-19.538L10.841,0L7.677,0L5.854,-4.499L-3.059,-4.499L-4.882,0L-8.045,0L0,-19.538ZM-2.034,-7.157L4.831,-7.157L1.41,-15.603L-2.034,-7.157ZM34.343,-19.538L34.343,-2.659L43.265,-2.659L43.265,0L31.504,0L31.504,-19.538L34.343,-19.538ZM61.054,-16.879L61.054,-19.538L75.936,-19.538L75.936,-16.879L69.916,-16.879L69.916,0.002L67.074,0.002L67.074,-16.879L61.054,-16.879ZM105.917,-19.84C111.461,-19.84 115.485,-15.597 115.485,-9.753C115.485,-3.909 111.461,0.331 105.917,0.331C100.374,0.331 96.349,-3.909 96.349,-9.753C96.349,-15.597 100.374,-19.84 105.917,-19.84ZM105.917,-2.327C109.847,-2.327 112.588,-5.381 112.588,-9.753C112.588,-14.196 109.905,-17.182 105.917,-17.182C101.927,-17.182 99.246,-14.196 99.246,-9.753C99.246,-5.312 101.927,-2.327 105.917,-2.327ZM150.916,-17.38L140.397,-2.658L151.113,-2.658L151.113,0.001L136.588,0.001L136.588,-2.181L147.108,-16.877L136.588,-16.877L136.588,-19.538L150.916,-19.538L150.916,-17.38ZM179.293,-19.538L182.087,-19.538L190.134,0L186.97,0L185.149,-4.499L176.235,-4.499L174.412,0L171.248,0L179.293,-19.538ZM177.259,-7.157L184.121,-7.157L180.701,-15.603L177.259,-7.157ZM224.33,-5.283L224.33,-19.538L227.141,-19.538L227.141,-0L224.66,-0L213.993,-14.463L213.993,-0L211.181,-0L211.181,-19.538L213.714,-19.538L224.33,-5.283ZM259.248,-19.84C264.795,-19.84 268.817,-15.597 268.817,-9.753C268.817,-3.909 264.795,0.331 259.248,0.331C253.706,0.331 249.683,-3.909 249.683,-9.753C249.683,-15.597 253.706,-19.84 259.248,-19.84ZM259.248,-2.327C263.18,-2.327 265.921,-5.381 265.921,-9.753C265.921,-14.196 263.243,-17.182 259.248,-17.182C255.26,-17.182 252.578,-14.196 252.578,-9.753C252.578,-5.312 255.26,-2.327 259.248,-2.327ZM-8.433,14.263L-6.91,14.263L-6.91,22.645L-2.398,22.645L-2.398,23.972L-8.433,23.972L-8.433,14.263ZM13.875,14.164L14.047,14.164L18.329,23.973L16.748,23.973L16.188,22.603L11.72,22.603L11.16,23.973L9.694,23.973L13.875,14.164ZM15.641,21.332L14.421,18.304C14.176,17.734 13.932,16.862 13.932,16.862C13.932,16.862 13.703,17.734 13.458,18.304L12.237,21.332L15.641,21.332ZM47.581,18.304C47.193,17.891 46.661,17.219 46.661,17.219C46.661,17.219 46.762,18.02 46.762,18.619L46.762,23.973L45.354,23.973L45.354,14.164L45.554,14.164L50.943,19.918C51.317,20.318 51.848,21.003 51.848,21.003C51.848,21.003 51.748,20.147 51.748,19.604L51.748,14.263L53.155,14.263L53.155,24.074L52.97,24.074L47.581,18.304ZM66.527,20.561L66.527,14.264L68.05,14.264L68.05,20.476C68.05,22.045 68.827,22.746 70.249,22.746C71.671,22.746 72.461,22.045 72.461,20.476L72.461,14.264L73.97,14.264L73.97,20.561C73.97,22.918 72.361,24.102 70.249,24.102C68.122,24.102 66.527,22.918 66.527,20.561ZM87.34,14.263L93.547,14.263L93.547,15.59L88.863,15.59L88.863,19.361L93.016,19.361L93.016,20.66L88.863,20.66L88.863,22.645L93.748,22.645L93.748,23.972L87.34,23.972L87.34,14.263ZM106.084,14.263L107.707,14.263L109.905,19.476C110.192,20.118 110.494,21.202 110.494,21.202C110.494,21.202 110.768,20.132 111.069,19.476L113.239,14.263L114.719,14.263L110.552,24.074L110.366,24.074L106.084,14.263ZM130.805,14.164L130.977,14.164L135.259,23.973L133.679,23.973L133.118,22.603L128.651,22.603L128.09,23.973L126.625,23.973L130.805,14.164ZM132.572,21.332L131.352,18.304C131.107,17.734 130.863,16.862 130.863,16.862C130.863,16.862 130.633,17.734 130.388,18.304L129.167,21.332L132.572,21.332ZM162.286,14.164L162.444,14.164L167.114,19.59L171.741,14.164L171.898,14.164L171.898,23.973L170.447,23.973L170.447,18.933C170.447,18.39 170.505,17.533 170.505,17.533C170.505,17.533 170.03,18.262 169.629,18.705L167.172,21.645L166.999,21.645L164.542,18.705C164.169,18.262 163.68,17.533 163.68,17.533C163.68,17.533 163.738,18.39 163.738,18.933L163.738,23.973L162.286,23.973L162.286,14.164ZM185.328,14.263L191.535,14.263L191.535,15.59L186.851,15.59L186.851,19.361L191.003,19.361L191.003,20.66L186.851,20.66L186.851,22.645L191.736,22.645L191.736,23.972L185.328,23.972L185.328,14.263ZM188.719,10.537L190.386,10.537L188.977,13.25L187.857,13.25L188.719,10.537ZM211.6,23.973L209.847,23.973L208.094,21.418C207.823,21.446 207.549,21.475 207.276,21.475L206.356,21.475L206.356,23.973L204.833,23.973L204.833,14.264L207.276,14.264C209.977,14.264 211.485,15.663 211.485,17.891C211.485,19.389 210.811,20.419 209.532,20.975L211.6,23.973ZM207.218,20.175C209.157,20.175 209.934,19.332 209.934,17.891C209.934,16.434 209.128,15.591 207.218,15.591L206.356,15.591L206.356,20.175L207.218,20.175ZM226.163,14.263L226.163,23.972L224.654,23.972L224.654,14.263L226.163,14.263ZM239.632,14.263L242.32,14.263C245.451,14.263 247.535,16.205 247.535,19.118C247.535,22.031 245.466,23.972 242.32,23.972L239.632,23.972L239.632,14.263ZM242.219,22.645C244.761,22.645 245.954,21.188 245.954,19.118C245.954,17.048 244.761,15.59 242.219,15.59L241.155,15.59L241.155,22.645L242.219,22.645ZM263.922,14.164L264.094,14.164L268.376,23.973L266.794,23.973L266.234,22.603L261.767,22.603L261.207,23.973L259.74,23.973L263.922,14.164ZM265.688,21.332L264.468,18.304C264.223,17.734 263.979,16.862 263.979,16.862C263.979,16.862 263.75,17.734 263.504,18.304L262.283,21.332L265.688,21.332Z" style="fill:rgb(124,134,163);"/>
    </g>
</svg>
