<?xml version="1.0" encoding="UTF-8" standalone="no"?>
<!DOCTYPE svg PUBLIC "-//W3C//DTD SVG 1.1//EN" "http://www.w3.org/Graphics/SVG/1.1/DTD/svg11.dtd">
<svg width="100%" height="100%" viewBox="0 0 200 130" version="1.1" xmlns="http://www.w3.org/2000/svg" xmlns:xlink="http://www.w3.org/1999/xlink" xml:space="preserve" xmlns:serif="http://www.serif.com/" style="fill-rule:evenodd;clip-rule:evenodd;stroke-linejoin:round;stroke-miterlimit:2;">
    <g transform="matrix(-0.0936863,0,0,0.0936863,320.462,18.5347)">
        <path d="M1721.19,365.55L1592,365.55L1592,377.703L1721.19,377.703L1721.19,365.55ZM3094.3,529.074L3094.3,642.009L2969.4,642.009L2969.4,654.553L3222.4,654.553L3222.4,403.595L2975.8,403.595L2975.8,416.139L3094.3,416.139L3094.3,516.523L3004.62,516.523L3004.62,529.074L3094.3,529.074ZM2666.47,403.036L2538.37,403.036L2538.37,653.995L2666.47,653.995L2666.47,437.54L2752.94,653.995L2796.18,653.995L2922.67,450.092L2922.67,653.995L2935.48,653.995L2935.48,403.036L2800.98,403.036L2719.31,536.356L2666.47,403.036ZM2374.08,529.074L2374.08,642.009L2249.18,642.009L2249.18,654.553L2502.18,654.553L2502.18,403.595L2255.58,403.595L2255.58,416.139L2374.08,416.139L2374.08,516.523L2284.41,516.523L2284.41,529.074L2374.08,529.074ZM1483.98,654.553L1621.68,654.553L1671.01,541.717L1764.7,541.717L1764.7,537.666L1815.12,654.553L1829.21,654.553L1720.64,403.594L1591.26,403.594L1483.98,654.553ZM1761.2,529.564L1676.32,529.564L1719.04,431.826L1761.2,529.564ZM1977.62,464.763L1857.53,654.554L2006.44,654.554L2073.7,540.051L2080.1,544.761L2080.1,654.554L2208.2,654.554L2208.2,403.595L2080.1,403.595L2080.1,529.075L1926.38,403.595L1905.56,403.595L1977.62,461.627L1977.62,464.763Z" style="fill:rgb(124,134,163);"/>
    </g>
</svg>
