<?xml version="1.0" encoding="UTF-8" standalone="no"?>
<!DOCTYPE svg PUBLIC "-//W3C//DTD SVG 1.1//EN" "http://www.w3.org/Graphics/SVG/1.1/DTD/svg11.dtd">
<svg width="100%" height="100%" viewBox="0 0 200 130" version="1.1" xmlns="http://www.w3.org/2000/svg" xmlns:xlink="http://www.w3.org/1999/xlink" xml:space="preserve" xmlns:serif="http://www.serif.com/" style="fill-rule:evenodd;clip-rule:evenodd;stroke-linejoin:round;stroke-miterlimit:2;">
    <g transform="matrix(0.736171,0,0,0.736171,26.3602,-8.61948)">
        <path d="M156.104,128.5C156.1,128.53 156.1,128.565 156.1,128.6C155,132.4 153.9,135.6 153,137.7C152.418,138.572 150.522,141.323 148.221,141.31C148.115,141.312 148.008,141.309 147.9,141.3C147.469,141.228 146.832,140.95 146.285,140.651C141.273,138.434 134.845,125 117.2,125C90.7,125 57.8,159.5 45.9,132.3C44.5,129.2 43.6,126.4 42.9,123.6C43,123.5 43.1,123.3 43.2,123.1C44.3,121.2 45.3,119 46,116.8C47.1,118.9 48.5,120.5 50.2,121.6C51.8,122.6 53.5,123.1 55.3,123.1C56.1,123.1 56.9,123 57.8,122.8L58.2,122.6C58.4,122.5 58.7,122.4 59,122.3C59.9,122 60.5,121.8 61,121.5C63.2,120.3 65,118.6 66.6,116.4C68.4,118.2 70.5,119.2 72.8,119.2C73.6,119.2 74.4,119 75.2,118.8C77.1,118.3 79.1,117 80.8,115.4C82.5,116.7 84.6,117.4 86.4,117.4L87.4,117.4C87.6,117.3 87.9,117.3 88.2,117.2C88.6,117.1 89,116.9 89.4,116.7C90.4,116 91.4,115.2 92.2,114.2C94.1,115.9 96.3,116.7 99,116.7L99.5,116.7C101.7,116.6 104.7,115.7 107.3,113.9C108.9,115.7 111.2,116.8 113.2,116.9L113.6,116.9C113.8,116.9 114.1,116.8 114.4,116.8C114.9,116.7 115.3,116.6 115.7,116.4C116.9,115.9 117.9,115.3 118.9,114.4C120.9,116.7 124,118 127.2,118C129.3,118 131.4,117.4 133.2,116.3L133.3,116.2C133.8,115.8 134.4,115.4 134.9,114.9C135.2,115.7 135.6,116.4 136.2,117.1C138.1,119.4 141.1,120.8 144.4,121L145.1,121C146.027,121 146.905,120.87 147.748,120.623C147.832,120.45 147.917,120.275 148,120.1C148.7,119.9 149.3,119.7 149.9,119.4C150,119.4 150.2,119.3 150.3,119.2C150.7,118.9 151.2,118.6 151.6,118.3L151.6,118.374C151.634,118.349 151.667,118.325 151.7,118.3C151.674,118.384 151.647,118.467 151.62,118.551C151.649,118.665 151.7,118.757 151.7,118.9L151.7,119C151.7,119.1 151.8,119.2 151.8,119.3C151.9,119.3 151.9,119.4 151.9,119.4C151.9,119.5 152,119.6 152,119.7C152.1,119.7 152.1,119.8 152.1,119.8C152.1,119.9 152.2,120 152.2,120.1C152.3,120.2 152.3,120.2 152.3,120.3C152.3,120.4 152.4,120.5 152.4,120.6C152.5,120.7 152.5,120.8 152.6,120.9L152.6,121C153.3,122.2 154.189,123.32 155.3,123.9C155.498,124.004 155.6,124.1 155.8,124.2C155.9,124.2 155.9,124.3 156,124.3C156.1,124.3 156.2,124.4 156.3,124.4L156.4,124.4C156.6,124.5 156.7,124.5 156.9,124.6C156.645,126.047 156.244,127.422 155.884,128.724C155.957,128.651 156.031,128.576 156.104,128.5ZM156.104,128.5C156.112,128.443 156.135,128.4 156.2,128.4C156.168,128.434 156.136,128.467 156.104,128.5ZM156.29,93.588C156.293,93.592 156.297,93.596 156.3,93.6C156.298,93.602 156.294,93.598 156.29,93.588ZM156.29,93.588C156.25,93.54 156.208,93.494 156.165,93.448C156.177,93.532 156.189,93.616 156.2,93.7C156.2,93.7 155.642,93.142 154.463,92.502C154.475,92.535 154.488,92.567 154.5,92.6C153.7,92.2 152.8,91.8 151.8,91.5C150.8,91.2 149.6,91.1 148.6,91.1C146.5,91.1 144.6,91.6 143.1,92.6C142.3,93.1 141.6,93.7 141,94.4C140.723,93.743 140.387,93.14 140.006,92.588L140,92.6C139.9,92.6 139.9,92.5 139.9,92.5L139.92,92.466C139.913,92.456 139.906,92.446 139.898,92.436C139.866,92.489 139.833,92.544 139.8,92.6C138.9,91.3 137.7,90.3 136.4,89.6C136.421,89.558 136.443,89.515 136.464,89.471C136.358,89.399 136.189,89.389 136.1,89.3C136.108,89.242 136.116,89.183 136.124,89.125C136.101,89.112 136.078,89.099 136.055,89.086C136.036,89.192 136.017,89.297 136,89.4C135.1,88.9 134.3,88.6 133.5,88.4C133.488,88.267 133.476,88.134 133.464,88.001C133.341,87.965 133.22,87.931 133.1,87.9C132.3,87.7 131.4,87.6 130.6,87.6C128.572,87.6 126.749,88.14 125.132,89.063C125.118,89.203 125.108,89.316 125.1,89.4C125.074,89.334 125.039,89.247 124.998,89.141C123.482,90.033 122.149,91.264 121,92.7C121,92.3 121,91.9 120.8,91.4C121.1,91.2 121.4,91 121.7,90.7C122.3,90 122.7,89.2 122.7,88.3C122.651,86.292 121.691,84.285 120.278,82.759C120.252,82.806 120.226,82.853 120.2,82.9C119.5,82.2 118.7,81.6 117.8,81.1C117.8,81.018 117.8,80.935 117.801,80.852C116.872,80.374 115.883,80.1 114.9,80.1C113.8,80.1 112.7,80.5 111.9,81.2C110.6,82.3 110,83.8 110.3,85.4C110.4,85.8 110.5,86.2 110.7,86.6C110.2,86.9 109.8,87.5 109.5,88.2C109.2,88 108.9,87.7 108.6,87.5C107,86.4 104.8,85.8 102.5,85.8C99.7,85.8 97.1,86.6 95.2,88.1C93.8,89.2 92.7,90.6 91.7,92.1C91.6,91.7 91.5,91.3 91.3,90.9C91.5,90.7 91.7,90.6 91.9,90.4C92.5,89.7 92.8,88.7 92.7,87.8C92.2,84 88.3,80.4 84.6,80.4C83.3,80.4 82.2,80.8 81.3,81.6C79.8,78.8 76.8,77 73.5,77C70.7,77 68.2,78.4 66.6,80.7C66,81.6 64.9,83.4 64.3,85.3C63.6,87.7 63.1,90.1 62.8,92.5C62,92 61.1,91.6 60.1,91.4C59.6,91.3 59,91.2 58.4,91.2C55.5,91.2 51.3,92.5 49,94.9C48.4,95.5 47.9,96.2 47.4,96.8C47.4,96.7 47.4,96.6 47.3,96.5C46.8,95.1 46.4,93.5 45.7,92.1C54.1,70.3 75.2,54.8 100,54.8C104.338,54.8 108.566,55.276 112.636,56.18C114.058,53.576 115.7,51.8 115.7,51.8L116.4,51.1C116.4,51.1 123.7,49.4 128,51.1C128.655,51.349 129.3,51.621 129.937,51.922C129.266,51.583 128.587,51.278 127.9,51C123.6,49.3 116.3,51 116.3,51C116.7,50.6 117.1,50.2 117.5,49.9C119,48.8 119.5,48.6 119.7,48.5L120.5,48.1C120.9,48 121.2,47.9 121.2,47.9C121.6,47.8 121.9,47.7 122.3,47.6L122.6,47.6C127.3,46.6 131,49.4 132.6,50.3C134.776,51.639 136.252,53.118 137.261,54.503C137.925,52.524 140.023,47.749 145.4,45.1C150.4,42.6 154.9,42.5 161.4,44.7C161.4,44.7 160.308,45.064 158.644,45.792C158.775,45.824 158.894,45.86 159,45.9C155.1,48.1 151.3,50.5 147.6,55.3L147.216,55.732C147.295,55.714 147.362,55.7 147.4,55.7C163,53.9 169,61.4 173.4,65.8C175.9,68.3 177.3,72.2 178,75.1C176.5,70.2 173.7,68.9 173.7,68.9C173.7,68.9 173.727,68.958 173.775,69.063C174.549,69.564 176.775,71.298 178,75.3L178.3,76.5C178.7,78.1 178.8,79.1 178.8,79.3C175.6,77 173.7,75 169.7,72.3C169.2,71.9 169.1,71.6 166.7,70C165.9,69.5 163.4,68.5 162.6,68.2C160.214,67.405 154.962,65.819 153.525,65.702C153.661,65.792 153.848,65.92 154.1,66.1C154.2,66.1 154.7,66.5 154.9,66.6C156.8,67.9 157.9,69.1 160,72.4C160.6,73.4 161,74.8 161.5,75.8C161.372,75.672 161.242,75.545 161.108,75.417C162.205,77.712 163.102,80.105 163.7,82.2C163.7,82.395 164.174,85.052 163.185,86.946C163.195,86.982 163.2,87 163.2,87C164.3,85.1 163.8,82.3 163.8,82.1C164,82.9 164.2,83.6 164.3,84.2C164.4,84.5 164.5,84.8 164.5,85.1C164.7,86.3 164.8,87.3 164.8,87.6C164.9,91.2 164.3,94.2 164,95.3C163.9,95.6 163.9,95.7 163.9,95.7C163.7,95.4 161.9,92.1 157.5,84.7C157.2,84.3 157,83.9 156.7,83.5C155.1,80.9 154.9,80.5 152.6,78.6C151.903,78.042 150.33,76.949 149.476,76.271C151.037,78.306 152.31,80.947 153.315,83.551C154.317,85.974 155.419,89.132 156.005,92.443C156.162,93.1 156.256,93.511 156.29,93.588ZM148.512,75.384C148.188,75.137 147.803,74.88 147.382,74.619C147.836,74.919 148.222,75.182 148.512,75.384ZM146.518,68.576C146.397,68.454 146.29,68.36 146.2,68.3C146.2,68.3 148.008,71.34 148.122,72.505C148.174,72.631 148.2,72.7 148.2,72.7C148.441,72.057 147.066,69.538 146.518,68.576ZM122.533,56.769C123.751,55.932 125.8,55.2 125.8,55.2C125.789,55.198 125.778,55.196 125.767,55.194C125.014,55.416 123.184,56.016 122.4,56.8C122.4,56.8 122.446,56.789 122.533,56.769ZM150.315,46.063C150.205,46.075 150.122,46.085 150.069,46.092C150.191,46.078 150.313,46.069 150.435,46.065C150.395,46.064 150.355,46.063 150.315,46.063ZM139.709,60.018C139.717,60.154 139.715,60.282 139.7,60.4C139.776,60.476 139.794,60.567 139.788,60.655C139.808,60.63 139.827,60.604 139.847,60.579C139.811,60.378 139.76,60.136 139.709,60.018ZM153.218,63.501C153.276,63.556 153.326,63.605 153.369,63.648C153.454,63.682 153.5,63.7 153.5,63.7C153.432,63.654 153.336,63.587 153.218,63.501ZM169.178,67.215C168.992,67.062 168.698,66.82 168.329,66.521C168.868,66.994 169.2,67.3 169.2,67.3C169.194,67.273 169.187,67.245 169.178,67.215ZM161.147,61.499C161.017,61.45 160.901,61.417 160.8,61.4C160.8,61.4 160.81,61.408 160.829,61.424C160.929,61.441 161.036,61.466 161.147,61.499ZM165.5,66.2C165.5,66.2 160.532,62.267 157.016,60.534C160.568,62.334 165.5,66.2 165.5,66.2ZM158.011,76.07C157.941,76.008 157.87,75.951 157.8,75.9C157.8,75.9 159.755,80.461 159.443,83.296C159.481,83.429 159.5,83.5 159.5,83.5C159.93,81.093 158.438,77.133 158.011,76.07ZM141.335,71.297C141.249,71.032 141.162,70.765 141.074,70.495C141.162,70.851 141.23,71.122 141.267,71.271C141.29,71.279 141.312,71.288 141.335,71.297ZM127.846,57.102C128.593,56.687 130.5,56.6 130.5,56.6C130.443,56.58 130.385,56.562 130.325,56.544C129.533,56.611 128.267,56.767 127.8,57.1C127.8,57.1 127.816,57.101 127.846,57.102ZM175.551,73.605C174.864,72.276 171.879,66.797 168.164,64.354C172.286,67.257 175.6,73.8 175.6,73.8C175.589,73.744 175.572,73.679 175.551,73.605ZM149.417,70.198C149.342,70.157 149.27,70.124 149.2,70.1C149.2,70.1 151.736,74.175 151.722,75.776C151.773,75.857 151.8,75.9 151.8,75.9C151.975,74.676 149.933,71.082 149.417,70.198ZM133.42,60.056C133.722,59.957 134.228,59.871 134.752,59.801C134.101,59.825 133.478,59.881 133.2,60C133.2,60 133.279,60.018 133.42,60.056ZM138.169,62.689C136.313,62.063 133.277,60.988 132.9,60.8C132.8,60.8 132.7,60.7 132.6,60.7L133,61C133.272,61 136.089,61.985 138.029,62.691C138.077,62.689 138.123,62.688 138.169,62.689ZM139.583,61.474C139.551,61.595 139.527,61.711 139.508,61.822C139.535,61.715 139.562,61.595 139.583,61.474ZM150.9,50.1C147.434,50.647 143.718,52.942 143.092,53.341C143.179,53.288 143.275,53.241 143.377,53.198C144.582,52.458 147.868,50.579 150.9,50.1ZM141.637,60.2C141.625,60.2 141.612,60.2 141.6,60.2C141.6,60.2 141.757,60.285 142.001,60.424C141.865,60.339 141.741,60.263 141.637,60.2ZM139.446,58.796C139.455,58.823 139.463,58.851 139.472,58.878C140.287,57.874 143.771,53.987 147.9,53C147.9,53 147.786,52.991 147.591,52.98C143.886,54.01 140.621,57.474 139.446,58.796ZM153.353,72.4C153.27,72.331 153.185,72.264 153.1,72.2C153.1,72.2 155.163,76.147 155.466,78.264C155.553,78.416 155.6,78.5 155.6,78.5C155.516,76.814 153.869,73.424 153.353,72.4ZM136.1,63.6L136.1,63.2C136.1,63.2 136.089,63.211 136.067,63.233C136.039,63.396 136.069,63.523 136.087,63.612C136.091,63.608 136.096,63.604 136.1,63.6ZM122.707,59.41C124.981,60.377 127.181,61.485 129.297,62.723C130.792,61.7 132.092,61.134 132.55,60.955C132.184,60.804 131.802,60.651 131.6,60.6C129.67,60.096 126.331,59.523 122.707,59.41ZM123.6,135.9C130.4,135.9 135.9,138.5 139.9,140.7C135.6,140.5 128.9,141.6 118.3,146.7C105.8,152.7 74.6,166.8 55.1,145.6C60.7,149 66.6,150.7 73.1,150.7C83.8,150.7 94.6,146 105,141.4C107.3,140.3 109.7,139.3 112.1,138.3C115.9,136.7 119.8,135.9 123.6,135.9ZM117.2,127.4C127.8,127.4 133.9,132.6 138.4,137C132,133.8 122.7,131.1 111.1,135.9C93.7,143.2 76.7,153 59.8,145.1L60.4,145.1C68.3,145.1 77.4,141 87,136.7C97.2,132.2 107.7,127.4 117.2,127.4ZM138.7,103C137.7,107.3 135.4,111.4 131.8,113.9C128.3,116 123.4,115.5 120.6,112.2C120,111.4 119.6,110.5 119.2,109.6C117.9,111.5 116.4,113 114.6,113.8C114.4,113.9 114.2,113.9 114,114L113.4,114C111.2,113.8 108.6,112 108,109.6C107.9,109.8 107.7,109.9 107.6,110.1C105.3,112.5 101.9,113.8 99.5,113.9C97.3,114 95.6,113.5 94.1,112C93.3,111.3 92.7,110.4 92.2,109.4C91.2,111.5 89.9,113.1 88.2,114.2L87.6,114.5C87.4,114.6 87.1,114.6 87,114.6C84.9,114.8 82.1,113.4 81.1,111.2C79.5,113.5 77.1,115.4 74.7,116.2C71,117.3 68.1,114.5 66.7,111.2C66.7,111.3 66.6,111.4 66.6,111.5C65,115.1 62.8,117.6 60,119.1C59.4,119.4 57.9,119.8 57.4,120.1C55.5,120.6 53.7,120.4 51.8,119.2C50,118.1 48.8,116.2 47.9,113.8C46.2,108.2 46.7,101.3 50.8,97C52.7,95 57,93.7 59.5,94.2C62.9,94.9 64.4,98.7 63,102.5C62.2,104.6 61,106.2 59.6,107.5C58.3,108.7 56,110 54.5,110.6C54.1,110.8 54.1,111 54.2,111.5C55,114.3 56.9,115.7 59,115.1C61.6,114.4 63.6,112.5 65.2,109.7C65.3,109.4 65.5,109.2 65.6,108.9C65.6,108.8 65.7,108.7 65.7,108.7C65.4,107.6 65.1,106.6 65,105.9C64.4,98.9 64.6,92.8 66.6,86.3C67,85 67.7,83.6 68.5,82.5C71.4,78.2 77.6,79.7 79.2,84.1C79.9,86 79.8,88.2 79.4,90.2C78.5,95.6 75.5,102 72,106.2C71.9,106.4 71.8,106.7 71.8,107C72.5,110.4 74.8,112.7 77.3,111.3C78.6,110.6 79.6,109.5 80.4,108.1L80.4,107.4C80.7,103 81,98.5 81.4,94.1C81.5,93.3 81.6,91.8 81.7,91C81.7,90.2 82,89.8 82.6,89.8C84.7,89.9 88.9,91.7 88.8,93.1C88.2,97.9 87.5,102.8 87,107.6C86.9,108.1 86.9,108.7 87,109.2C87.1,110.2 87.6,110.5 88.3,110.2C89.1,109.8 90.4,108 91.2,106.8C91.1,106.3 91,105.7 91,105.1C90.6,100.3 92.6,93.5 96.5,90.4C99.1,88.3 104,88 106.8,89.9C108.3,90.9 109.1,92.7 108.9,95C108.6,97.4 106.5,100.9 103.1,100.4C102.4,100.2 102.2,99.8 102.5,98.9C103,97.4 103.7,95.2 103.8,93.5L103.8,92.3C103.7,91.5 103.2,91.2 102.6,91.3C101.7,91.5 101.1,92.2 100.5,93.1C98.9,95.5 97.9,98.9 97.7,101.9C97.6,103 97.6,104.2 97.7,105.2C98,107.8 99.3,109.4 101.3,109.5C103.8,109.6 106,108.3 107.9,106.2C107.9,106.1 107.9,105.9 108,105.8C108.8,101.5 109.8,97.2 110.7,92.9C110.9,92.1 111.2,90.7 111.4,89.9C111.5,89.1 111.8,88.8 112.5,88.9C114.6,89.3 118.5,91.7 118.2,93.1C116.9,97.7 115.7,102.4 114.6,107.1C114.5,107.6 114.4,108.2 114.4,108.7C114.4,109.7 114.8,110.1 115.5,109.9C116.3,109.7 117.8,108 118.7,107L118.7,105.3C119.3,99 124.2,88.9 132.4,90.7C134.7,91.2 137.9,93.1 138.9,96.8C139.4,98.7 139.2,100.8 138.7,103ZM71.7,102.9C71.8,102.6 72,102.4 72.1,102.1C74.1,98.1 75.2,93.9 75.9,89.6C76.2,87.9 76.4,86.1 76,84.3C75.9,83.9 75.6,83.3 75.3,83.2C75,83.1 74.4,83.5 74.2,83.9C73.7,84.8 73.3,85.8 73,86.8C72,90.4 71.4,94.5 71.3,98.2L71.3,103L71.5,103C71.6,103 71.6,103 71.7,102.9ZM133.5,95.2C133.3,93.3 132.2,92.7 130.7,93.7C129.7,94.4 129,95.4 128.3,96.5C126.5,99.5 125.4,103 124.8,106.6C124.6,107.7 124.6,108.9 124.7,110.1C124.7,111.1 125.1,111.9 125.9,112C127.1,112.2 128.6,110.2 129,109.5C131,106.5 132.2,103 132.9,99.7C133.4,98 133.7,96.5 133.5,95.2ZM53.6,108.3C53.9,108.1 54.2,108 54.4,107.8C56.3,106.2 57.5,103.6 58.1,100.7C58.2,100 58.2,99.2 58.2,98.5C58,96.9 57,96.4 56,97.4C55.5,98 55,98.8 54.7,99.6C53.9,101.8 53.6,104.5 53.6,106.9C53.5,107.4 53.6,107.8 53.6,108.3ZM151.2,105.5C151.9,106.5 152.4,107.6 152.5,109.3C153,112 151.9,115 149.9,116.8C148.1,118.4 146.2,118.9 144.3,118.8C142.1,118.6 139.6,117.7 138,115.8C137.2,114.8 136.6,113.6 136.7,111.9C136.8,109.8 138.3,107.8 140,107.6C140.8,107.5 141.1,107.9 140.9,108.9C140.4,111.5 140.9,113 142.5,113.9C143,114.2 143.5,114.3 144.1,114.3C144.9,114.2 145.8,113.4 145.6,112C145.4,111 145,110.2 144.5,109.4C143.7,108.3 142.9,107.2 142.1,106C141.3,104.8 140.7,103.5 140.6,101.8C140.5,99.2 141.9,96.5 144.1,95.1C146.1,93.8 148.8,93.8 150.8,94.3C152.5,94.7 153.9,95.4 155.1,96.7C155.8,97.4 156.2,98.2 156.4,99.2C156.6,100.4 156.2,101.5 155.3,102.3C154.6,102.9 153.8,103.2 153,103.2C152.5,103.2 152.4,103 152.4,102.3C152.5,100.3 152,98.6 150.5,97.6C150.1,97.3 149.5,97.2 149,97.2C147.9,97.2 147.7,98.6 147.9,99.9C148,100.4 148.2,101 148.5,101.4C149.4,102.8 150.3,104.1 151.2,105.5ZM191,133C190.2,133.9 189.3,133.4 189.5,132.4C190,130.4 189.2,129.1 188,128.4C183.5,125.9 177.4,126.9 172.3,126.8C167.5,126.7 165.5,122.3 166.2,118C165.6,118.7 165,119.1 164.6,119.6C161.7,122.8 158.3,122.4 156,121.3C154,120.2 153.1,117 153.6,113.6C154.3,108.8 157.6,102.7 161.8,100.1C165.8,97.6 171.2,99 174,102.9C174.6,103.7 176,104.5 177,104.2C178.5,103.8 180.6,105 179.3,107C176.7,111 173.3,114.8 171,119.1C171.1,125 187.9,119.5 191.7,123C195.5,127.3 191.4,132.8 191,133ZM171.3,105.3C171.5,103.2 169.8,101.7 168.1,102.6C167.2,103.1 166.4,103.8 165.7,104.5C163.3,107.1 161.4,110.7 160.2,114.1C160.1,114.5 159.9,115.3 159.8,116C159.5,118.1 160.5,119 162.1,117.9C163,117.3 163.8,116.4 164.6,115.5C167,112.6 169.2,109.2 171.1,105.8C171.1,105.7 171.2,105.5 171.3,105.3ZM33,84.7C39.2,85.8 43.4,91.2 44.8,97C46.3,105.2 45.4,114 41.2,121.3C38.7,125.5 34.1,128.7 29.5,129.2C24.5,129.7 21.5,124.8 20.7,120.1C19.4,112.4 18.4,104.6 17.4,96.9C17.3,96.4 17.6,96.1 17.9,95.9C20.7,94.2 24.4,94.5 25.1,94.9C25.3,95.1 25.7,95.3 25.8,96.4C26.2,99.9 26.5,103.4 26.9,106.8C27.4,111.1 28,115.5 28.6,119.8C29.1,123.2 30.6,124.6 32.7,123.2C32.9,123.1 33.1,122.9 33.3,122.7C34.9,121.1 35.8,118.7 36.3,116.1C37.3,110.5 36.9,103.5 35.5,98C34.9,95.6 33.9,93.7 32.1,92.1C27.6,88.1 20.9,89.8 16.9,93.8C13.8,97.5 12.6,102.2 13.5,106.9C13.9,109.3 14.8,111.4 16.5,112.7C17,113.1 17.1,113.8 16.7,114.2C16.1,114.8 15.5,115.5 14.8,115.7C11.6,116.8 8.5,114.3 7.3,110C6.3,106.5 6.7,101.5 8.4,98.3C10.5,94.4 13.1,90.8 17,88.3C21.3,85.7 27.9,83.8 33,84.7ZM88.8,89C88.1,88.8 87.2,87.9 85.1,87.3C82.5,86.8 81.6,84.9 82.9,83.6C84.8,81.6 89.5,84.7 89.9,88.1C89.9,88.7 89.2,89.2 88.8,89ZM118.7,89.3C118.1,89 117.2,88 115.1,87.3C112.6,86.5 111.9,84.6 113.3,83.4C115.4,81.7 119.7,85.2 119.8,88.6C119.8,89.2 119.1,89.5 118.7,89.3Z" style="fill:rgb(124,134,163);"/>
    </g>
</svg>
