<?xml version="1.0" encoding="UTF-8" standalone="no"?>
<!DOCTYPE svg PUBLIC "-//W3C//DTD SVG 1.1//EN" "http://www.w3.org/Graphics/SVG/1.1/DTD/svg11.dtd">
<svg width="100%" height="100%" viewBox="0 0 200 130" version="1.1" xmlns="http://www.w3.org/2000/svg" xmlns:xlink="http://www.w3.org/1999/xlink" xml:space="preserve" xmlns:serif="http://www.serif.com/" style="fill-rule:evenodd;clip-rule:evenodd;stroke-linejoin:round;stroke-miterlimit:2;">
    <g transform="matrix(0.0313332,0,0,0.0313332,140.349,83.4517)">
        <path d="M-1287.63,-447.044L-1454.29,-520.186L-1826.23,-1131.39L-1867.1,-1198.56L-1867.1,-700.842L-2034.11,-774.139L-2034.11,-992.263L-2034.68,-992.01L-2034.68,-1717.78L-1867.68,-1791.07L-1867.68,-1426.86L-1867.1,-1426.61L-1826.24,-1361.46L-1454.87,-1971.73L-1288.21,-2044.87L-1288.21,-2045.28L-1121.2,-1971.98L-749.11,-1360.52L-708.392,-1425.43L-708.392,-1791.33L-541.385,-1718.03L-541.385,-1499.4L-540.807,-1499.65L-540.807,-773.885L-707.815,-700.588L-707.815,-1198.31L-749.102,-1130.46L-1120.63,-519.933L-1287.63,-446.636L-1287.63,-447.044ZM-1287.28,-1172.56L-1120.63,-1245.7L-1120.63,-768.224L-821.258,-1245.5L-1121.2,-1723.69L-1121.2,-1246.21L-1287.86,-1319.36L-1287.86,-1319.26L-1454.87,-1245.96L-1454.87,-1723.44L-1754.08,-1246.42L-1454.29,-768.477L-1454.29,-1245.95L-1287.28,-1172.66L-1287.28,-1172.56ZM390.8,339.501C264.9,339.501 257.6,339.601 256.9,341.2C256,343.601 209.6,472.9 207.7,478.301L206.2,482.501L122.3,482.501C76.2,482.501 38.4,482.301 38.4,482.101C38.4,481.9 39.1,480.101 39.9,478.2C40.7,476.2 41.4,474.4 41.4,474.2C41.4,474.001 36.3,475.501 30.2,477.601C8.9,484.801 -14.6,489.801 -42.6,493.101C-61.1,495.2 -110.9,496.101 -131.1,494.601C-181.9,490.9 -226,480.001 -261.1,462.4L-271.1,457.4L-276.1,459.501C-302.8,471.2 -351.9,484.601 -389.1,490.4C-415.9,494.601 -422.5,495.001 -457.1,495.001C-490.1,494.9 -501.3,494.301 -527.4,490.9C-605.3,480.9 -672.6,452.4 -722.8,408.2C-726.6,405.001 -729.6,402.7 -729.6,403.2C-729.6,403.7 -722.8,420.801 -714.5,441.101C-706.2,461.4 -699,479.001 -698.5,480.301L-697.6,482.501L-781.7,482.301L-865.8,482.001L-891,411.001L-916.3,340.001L-1182.9,340.001L-1208.5,411.2L-1234.1,482.501L-1352.6,482.501L-1471.1,482.4L-1650.1,266.9C-1748.5,148.4 -1829.9,50.701 -1830.8,49.801C-1832.5,48.301 -1832.6,58.601 -1832.6,265.301L-1832.6,482.501L-1979.6,482.501L-1979.6,401.001C-1979.6,356.2 -1979.9,319.501 -1980.3,319.501C-1980.8,319.501 -1983.6,323.501 -1986.6,328.301C-2008.3,363.001 -2041.1,396.601 -2080.1,424.4C-2096.4,435.9 -2106.1,441.801 -2126.1,452.001C-2174.6,476.7 -2224.7,490.101 -2286.1,494.601C-2306.2,496.101 -2355,495.2 -2373.6,493.101C-2460.1,483.101 -2528.5,454.101 -2590.1,401.601C-2615.5,379.9 -2640.4,351.2 -2656.2,325.601L-2660.1,319.2L-2660.4,400.801L-2660.6,482.501L-2808.2,482.501L-2818.7,469.7C-2824.5,462.7 -2870.4,407.501 -2920.7,347.001C-2971,286.501 -3047.4,194.501 -3090.6,142.501L-3169.1,48.101L-3169.4,265.301L-3169.6,482.501L-3317.6,482.501L-3317.6,-160.499L-3243.3,-160.499L-3169.1,-160.399L-3020.6,17.701C-2938.9,115.601 -2857.9,212.801 -2840.6,233.501L-2809.1,271.301L-2808.8,55.4L-2808.6,-160.499L-2660.6,-160.499L-2660.6,-79.299C-2660.5,-6.6 -2660.4,1.801 -2659,0.001C-2658.2,-1.1 -2654.4,-6.699 -2650.6,-12.499C-2639.2,-29.699 -2628.1,-42.999 -2610.1,-60.999C-2550.1,-121.199 -2477.7,-156.799 -2390,-169.399C-2377.7,-171.199 -2360.1,-172.799 -2342.1,-173.899C-2330,-174.6 -2288.7,-173.499 -2273.3,-171.999C-2216.5,-166.499 -2168.9,-152.899 -2122.9,-128.999C-2068.7,-100.799 -2020.3,-57.899 -1988.7,-9.999L-1980.1,3.001L-1979.8,-78.799L-1979.6,-160.499L-1832.1,-160.499L-1720.1,-26.299C-1658.5,47.601 -1577.5,144.7 -1540.1,189.7C-1502.7,234.601 -1471.8,271.4 -1471.3,271.4C-1470.9,271.501 -1470.6,174.301 -1470.6,55.501L-1470.6,-160.499L-1323.6,-160.499L-1323.6,64.2C-1323.6,193.601 -1323.2,288.4 -1322.7,287.501C-1321.9,286.101 -1300.7,234.501 -1181.9,-56.299L-1139.3,-160.499L-959.9,-160.499L-894.6,-0.299C-858.7,87.9 -829,160.4 -828.6,160.801C-828.2,161.2 -827.6,154.301 -827.3,145.301C-823.9,61.7 -795.4,-6.999 -740.6,-63.899C-684.7,-121.899 -611.2,-157.399 -522.1,-169.399C-457.7,-178.1 -379.7,-174.899 -326.4,-161.399C-303.8,-155.699 -285.4,-148.899 -263.8,-138.299L-251.6,-132.199L-251.6,-128.299C-251.6,-126.199 -251.4,-124.499 -251.2,-124.499C-251,-124.499 -246.6,-127.399 -241.5,-130.899C-208.1,-153.6 -165.6,-167.399 -113.1,-172.6C-85.2,-175.399 -42.3,-174.199 -14.6,-169.899C29.6,-162.899 67.4,-147.399 99.9,-122.6C106.5,-117.6 127.5,-97.499 130.5,-93.399L132.4,-90.799L87.7,-50.399C63.1,-28.199 42.3,-9.499 41.4,-8.799C39.9,-7.699 39.2,-8.299 36,-12.899C31,-20.199 18.4,-32.199 9.4,-38.199C-19.5,-57.6 -56.5,-66.999 -89.6,-63.499C-115.7,-60.699 -132,-53.899 -146.6,-39.499C-165,-21.499 -167.4,1.801 -153.5,25.101C-151.6,28.301 -146.5,34.601 -142.1,39.301C-120.8,61.9 -93.2,78.801 -36.1,104.101C55.6,144.7 112.8,185.601 136,227.2C138.5,231.501 139.9,233.301 140.4,232.4C140.8,231.601 177,142.9 221,35.301L300.9,-160.499L390.7,-160.199L480.6,-159.999L581.5,87.501C637,223.601 695.8,367.601 712,407.501C728.3,447.4 741.9,480.601 742.1,481.301C742.5,482.2 725.4,482.501 658.6,482.501L574.699,482.501L557.1,433.2C547.5,406.2 536.1,374.001 531.8,361.801L523.9,339.501L390.8,339.501ZM0,318.001C1.2,298.301 -4.7,284.301 -21.1,267.9C-40.7,248.2 -68.1,232.101 -142.6,196.4C-197.3,170.2 -221.8,156.001 -250.3,133.801C-285.6,106.4 -307.1,71.2 -313,31.201C-314.9,18.601 -315,-7.499 -313.2,-19.399L-312,-27.799L-317,-29.999C-335,-37.899 -368.1,-46.999 -392.1,-50.6C-402.6,-52.1 -412.3,-52.699 -430.6,-52.999C-444.1,-53.199 -456.7,-53.1 -458.6,-52.899C-460.5,-52.699 -467,-51.999 -473.1,-51.399C-520.8,-46.799 -566.4,-28.6 -599.1,-1.399C-611.3,8.801 -626.7,25.101 -634.8,36.601C-648.2,55.2 -660.4,83.2 -665.5,106.501C-670.7,130.9 -672.2,166.9 -669.1,193.7C-663.2,244.001 -644.6,284.501 -612.9,315.7C-600.4,328.001 -596.5,331.2 -583.6,339.801C-544.3,365.801 -492.1,377.601 -430,374.501C-397.2,372.9 -370.9,368.2 -344.1,359.301C-313.8,349.301 -283.2,332.2 -258.7,311.4C-254.4,307.801 -251,305.7 -250.8,306.4C-249.6,310.101 -241,321.2 -233.5,328.601C-212.8,349.2 -183.3,367.101 -155,376.4C-135.1,382.9 -118.5,385.501 -96.3,385.501C-71.1,385.501 -52.1,381.9 -35.7,373.9C-27.7,370.001 -24.7,367.9 -18.1,361.101C-5.9,348.9 -1.1,337.4 0,318.001ZM-2185.1,334.7C-2124.5,293.9 -2093.4,230.601 -2095.9,153.001C-2097.8,95.501 -2115.3,52.301 -2152,14.601C-2170.8,-4.6 -2186.6,-15.999 -2210.1,-27.499C-2233.5,-38.999 -2257.9,-45.899 -2285.5,-48.999C-2299.2,-50.499 -2321.9,-51.399 -2333.1,-50.899C-2397.1,-47.899 -2448.5,-26.799 -2487.6,12.501C-2517.2,42.201 -2535.1,77.001 -2542.6,119.7C-2545.8,137.301 -2546.5,171.9 -2544.2,190.501C-2538.3,237.301 -2521,274.4 -2490.1,306.4C-2456.1,341.7 -2413.3,362.601 -2359.6,370.2C-2342,372.7 -2298.1,372.601 -2281.1,370.101C-2243.5,364.601 -2212.6,353.2 -2185.1,334.7ZM-1050,237.501L-952.4,237.501L-952.9,235.2C-953.3,233.101 -1046.5,-27.699 -1049,-33.899L-1050.2,-36.899L-1052.3,-30.899C-1058.3,-14.399 -1147.6,236.9 -1147.6,237.2C-1147.6,237.301 -1103.7,237.501 -1050,237.501ZM341.2,100.301L292.6,237.001L341.5,237.301C368.4,237.4 412.4,237.4 439.3,237.301L488.199,237.001L439.5,100.801C412.8,25.9 390.6,-35.6 390.3,-35.899C390.1,-36.199 368,25.101 341.2,100.301ZM-1727.29,616.9C-1727.29,619.7 -1652.49,826.1 -1641.39,853.801C-1639.69,858.1 -1638.29,861.9 -1638.29,862.301C-1638.29,862.7 -1651.29,863.001 -1667.19,863.001L-1696.19,863.1L-1699.39,852.001C-1702.39,841.501 -1715.59,802.6 -1722.29,784.2L-1725.49,775.501L-1821.79,775.501L-1835.39,804.301C-1842.89,820.1 -1852.19,839.7 -1855.89,848.001L-1862.79,863.001L-1923.19,863.001L-1920.89,859.001C-1906.89,834.801 -1829.09,686.1 -1807.49,642.301L-1794.79,616.6L-1760.99,616.501C-1742.49,616.501 -1727.29,616.7 -1727.29,616.9ZM-1735.99,737.7C-1735.39,736.801 -1763.29,654.501 -1764.19,654.501C-1764.49,654.501 -1773.79,673.001 -1784.79,695.6C-1795.79,718.2 -1804.89,737.1 -1805.09,737.6C-1805.49,738.7 -1736.59,738.801 -1735.99,737.7ZM-952.292,616.501L-772.792,616.501L-774.792,653.9L-836.792,653.9L-898.792,654.001L-900.192,685.801C-900.992,703.2 -901.292,717.9 -900.892,718.301C-900.492,718.7 -875.992,719.001 -846.592,718.9L-792.992,718.801L-793.692,728.9C-793.992,734.501 -794.592,743.001 -794.892,748.001L-795.492,757.001L-849.392,757.001C-878.992,757.001 -903.392,757.301 -903.692,757.501C-903.892,757.801 -904.592,769.501 -905.192,783.501C-905.792,797.501 -906.492,812.9 -906.892,817.7L-907.492,826.501L-883.092,826.501C-869.692,826.501 -841.492,826.001 -820.392,825.501C-799.292,824.9 -781.992,824.501 -781.892,824.7C-781.592,825.001 -783.092,847.501 -783.892,857.001L-784.392,863.001L-964.292,863.001C-963.792,863.001 -958.692,788.001 -957.292,759.001C-955.392,719.4 -952.292,635.501 -952.292,622.7L-952.292,616.501ZM-1074.79,630.2C-1065.89,635.4 -1053.89,646.4 -1047.79,655.001C-1018.59,696.001 -1020.29,768.9 -1051.49,814.2C-1054.19,818.1 -1060.49,825.2 -1065.29,829.9C-1082.39,846.4 -1099.39,854.9 -1122.89,858.9C-1144.39,862.501 -1150.79,862.801 -1211.49,862.9L-1272.09,863.001L-1271.69,860.501C-1271.49,859.1 -1270.19,842.7 -1268.89,824.001C-1265.19,773.2 -1261.29,676.7 -1261.29,635.801L-1261.29,616.501L-1225.49,616.2C-1158.09,615.6 -1122.79,616.1 -1111.29,618.001C-1097.69,620.1 -1084.19,624.6 -1074.79,630.2ZM-1094.39,784.7C-1085.09,766.6 -1081.79,752.4 -1081.89,729.501C-1081.89,715.9 -1082.29,711.4 -1084.19,704.001C-1088.99,684.301 -1100.09,668.501 -1114.29,661.1C-1126.49,654.6 -1135.19,653.301 -1168.29,653.001C-1183.99,652.9 -1199.59,653.001 -1202.99,653.2L-1209.09,653.6L-1209.69,661.801C-1210.49,673.1 -1216.29,811.501 -1216.29,819.4L-1216.29,825.7L-1186.49,825.2C-1138.29,824.301 -1126.79,821.001 -1108.29,802.501C-1100.79,795.1 -1097.79,791.2 -1094.39,784.7ZM-1458.99,751.4C-1439.39,770.4 -1432.89,783.001 -1432.99,802.001C-1433.29,842.501 -1467.49,867.6 -1522.29,867.501C-1535.79,867.4 -1552.69,865.4 -1572.99,861.4L-1589.19,858.2L-1589.69,853.1C-1589.99,850.3 -1590.69,841.501 -1591.29,833.501C-1591.99,825.501 -1592.69,817.8 -1592.99,816.3L-1593.49,813.6L-1585.19,817.1C-1561.59,827.001 -1533.39,831.8 -1516.69,828.6C-1497.19,824.9 -1486.09,813.501 -1487.49,798.8C-1488.49,788.001 -1493.09,782.9 -1531.29,749.4C-1557.69,726.3 -1567.39,716.501 -1573.79,706.6C-1584.89,689.4 -1586.19,668.6 -1577.29,649.9C-1567.19,628.8 -1545.19,615.8 -1513.89,612.501C-1503.49,611.4 -1481.19,612.1 -1465.49,614.1C-1458.69,615.001 -1450.19,616.2 -1446.49,616.9L-1439.79,618.101L-1438.09,637.6C-1437.19,648.3 -1436.39,657.8 -1436.39,658.7C-1436.29,660.2 -1437.39,660.001 -1444.99,657.4C-1459.19,652.6 -1472.29,650.3 -1485.79,650.2C-1499.99,650.1 -1507.39,651.8 -1516.09,657.501C-1524.09,662.6 -1527.59,668.001 -1528.09,676.001C-1528.79,687.001 -1522.89,696.1 -1506.59,709.2C-1495.19,718.4 -1470.09,740.7 -1458.99,751.4ZM-2827.39,761.7C-2820.29,770.1 -2813.69,782.6 -2812.29,790.4C-2808.99,808.001 -2813.89,826.7 -2825.29,840.4C-2836.79,854.301 -2854.79,862.801 -2878.99,866.001C-2900.19,868.801 -2919.89,867.501 -2951.49,861.301L-2968.29,858.1L-2968.29,854.501C-2968.39,850.501 -2969.79,831.2 -2970.89,821.1C-2971.69,813.1 -2973.09,813.301 -2958.29,819.1C-2953.09,821.1 -2943.59,824.1 -2937.29,825.801C-2927.09,828.4 -2924.09,828.801 -2910.29,828.9C-2896.59,829.001 -2893.99,828.7 -2887.69,826.7C-2873.19,821.9 -2866.39,813.7 -2866.29,801.001C-2866.29,788.7 -2870.19,784.1 -2909.79,749.501C-2942.89,720.501 -2953.49,708.7 -2958.49,694.801C-2961.19,687.6 -2962.09,670.7 -2960.29,662.6C-2955.29,639.4 -2935.39,621.4 -2907.69,614.9C-2892.39,611.4 -2868.69,611.001 -2844.79,614.001C-2838.69,614.801 -2830.29,615.9 -2826.09,616.6L-2818.39,617.801L-2817.89,623.9C-2817.59,627.301 -2816.69,636.7 -2815.99,645.001C-2815.19,653.2 -2814.69,660.1 -2814.69,660.1C-2814.79,660.2 -2818.79,659.001 -2823.69,657.4C-2846.59,649.9 -2871.19,647.801 -2884.09,652.4C-2892.09,655.1 -2896.79,658.1 -2901.39,663.2C-2905.99,668.301 -2907.69,673.4 -2906.99,679.6C-2905.79,689.4 -2898.79,698.301 -2881.09,712.6C-2865.39,725.301 -2834.09,753.9 -2827.39,761.7ZM-2756.09,616.501L-2547.09,616.501L-2547.69,620.7C-2547.99,623.101 -2548.49,631.9 -2548.89,640.4L-2549.59,655.7L-2553.19,655.101C-2555.19,654.801 -2572.39,654.2 -2591.49,653.9C-2621.09,653.301 -2626.29,653.4 -2626.29,654.601C-2626.29,655.4 -2626.79,662.301 -2627.29,670.001C-2628.79,691.501 -2633.19,799.4 -2633.99,833.001L-2634.59,863.001L-2690.29,863.001L-2690.29,859.501C-2690.29,857.601 -2689.59,847.7 -2688.79,837.501C-2685.99,803.501 -2680.39,683.2 -2680.29,656.101L-2680.29,653.2L-2713.49,653.9C-2731.79,654.301 -2749.39,654.801 -2752.59,655.2L-2758.29,655.801L-2757.79,652.9C-2757.59,651.301 -2757.09,642.501 -2756.69,633.2L-2756.09,616.501ZM-3212.29,732.901C-3184.39,757.901 -3174.49,769.401 -3169.19,783.002C-3166.09,791.101 -3165.79,811.002 -3168.69,819.502C-3171.89,829.101 -3176.59,836.801 -3183.29,843.601C-3195.29,855.8 -3211.79,863.101 -3233.59,866.002C-3255.29,868.801 -3275.89,867.502 -3306.79,861.2L-3322.79,858.002L-3323.49,848.002C-3323.89,842.501 -3324.69,832.901 -3325.29,826.7C-3325.99,820.401 -3326.19,815.101 -3325.99,814.8C-3325.69,814.601 -3321.49,815.9 -3316.59,817.901C-3271.99,835.7 -3231.79,832.601 -3222.59,810.601C-3221.69,808.601 -3221.09,804.2 -3221.09,800.801C-3220.99,789.101 -3224.29,785.201 -3261.49,752.401C-3274.59,740.801 -3288.29,728.401 -3292.09,724.701C-3309.79,707.2 -3316.29,694.002 -3316.29,675.502C-3316.29,658.901 -3310.99,646.2 -3299.29,634.4C-3287.09,622.101 -3269.99,614.801 -3247.79,612.601C-3236.99,611.501 -3214.89,612.101 -3199.79,614.002C-3193.69,614.801 -3185.29,615.901 -3181.09,616.601L-3173.39,617.801L-3172.89,621.901C-3172.19,628.502 -3169.59,660.002 -3169.69,660.2C-3169.79,660.401 -3172.29,659.501 -3175.29,658.4C-3191.39,652.301 -3216.09,648.601 -3229.39,650.401C-3244.99,652.4 -3258.59,661.601 -3261.39,671.801C-3264.59,683.801 -3257.09,695.801 -3236.29,712.401C-3231.09,716.501 -3220.29,725.801 -3212.29,732.901ZM-2036.79,616.501L-1962.79,616.501L-1963.99,646.2C-1965.99,698.801 -1967.39,765.7 -1967.39,815.001L-1967.49,863.001L-2016.59,863.001L-2015.89,853.501C-2015.49,848.301 -2014.39,814.301 -2013.29,778.001C-2011.19,707.9 -2010.79,664.001 -2012.19,666.501C-2013.09,668.001 -2080.19,844.9 -2084.29,856.501L-2086.59,863.001L-2135.99,863.001L-2150.79,810.001C-2158.89,780.9 -2170.19,741.7 -2175.89,723.001C-2181.59,704.301 -2187.49,684.2 -2188.99,678.2C-2190.49,672.301 -2192.09,667.501 -2192.39,667.501C-2193.09,667.501 -2193.49,671.9 -2195.79,700.501C-2198.29,732.001 -2205.29,845.2 -2205.29,854.4L-2205.29,863.001L-2251.79,863.001L-2249.59,843.601C-2245.99,813.501 -2231.29,632.2 -2231.29,618.7L-2231.29,616.501L-2158.59,616.501L-2156.29,627.2C-2153.39,641.2 -2150.59,650.801 -2138.99,687.001C-2128.89,718.601 -2123.59,736.9 -2113.29,775.801C-2109.79,788.9 -2106.69,799.2 -2106.29,798.801C-2105.89,798.4 -2100.29,783.4 -2093.79,765.501C-2087.29,747.601 -2073.59,712.301 -2063.29,687.001C-2052.99,661.7 -2042.79,635.501 -2040.69,628.801L-2036.79,616.501ZM-2489.89,616.501L-2310.09,616.501L-2310.69,620.2C-2310.99,622.301 -2311.49,630.7 -2311.89,639.001L-2312.49,654.001L-2374.29,653.7L-2436.19,653.301L-2436.69,657.7C-2437.69,665.7 -2439.49,717.601 -2438.79,718.301C-2438.39,718.7 -2413.99,718.9 -2384.39,718.9L-2330.79,718.801L-2331.49,729.9C-2331.99,736.001 -2332.59,744.601 -2332.89,749.001L-2333.39,757.001L-2386.79,757.001C-2420.79,757.001 -2440.59,757.4 -2441.19,758.001C-2442.09,759.001 -2445.39,824.301 -2444.59,825.7C-2443.99,826.801 -2403.39,826.7 -2358.39,825.501C-2337.29,824.9 -2319.89,824.501 -2319.79,824.7C-2319.49,825.101 -2321.29,856.001 -2321.89,860.001L-2322.29,863.001L-2502.29,863.001L-2501.79,858.501C-2498.49,830.2 -2494.19,749.2 -2491.59,670.7L-2489.89,616.501ZM359.708,617.501C386.408,621.601 405.708,636.101 413.008,657.4C415.808,665.7 416.408,682.001 414.308,692.501C410.208,712.801 397.508,730.101 380.508,738.4C375.908,740.7 366.808,744.101 360.308,746.001C353.808,747.9 348.208,749.7 347.908,749.9C347.008,750.801 369.008,791.7 392.708,833.001C401.108,847.601 408.708,861.801 408.708,862.7C408.708,862.9 395.508,863.001 379.308,863.001L349.908,863.001L340.208,839.501C334.808,826.601 320.608,796.001 308.608,771.601L286.708,727.301L293.408,728.001C325.808,731.501 349.108,723.001 358.608,704.301C368.408,684.801 363.008,664.801 345.708,657.101C337.508,653.4 329.208,652.501 301.008,652.501L275.808,652.501L275.308,655.7C274.108,663.4 268.708,829.9 268.708,858.501L268.708,863.001L213.508,863.001L214.108,858.001C218.308,822.2 222.008,750.2 223.908,669.301L225.108,616.501L258.108,616.2C310.008,615.7 351.508,616.2 359.708,617.501ZM-3088.29,616.501L-3031.29,616.501L-3031.29,618.9C-3031.29,620.101 -3031.69,626.801 -3032.29,633.601C-3035.19,671.001 -3038.39,754.101 -3039.89,828.001L-3040.49,863.001L-3069.39,863.001L-3098.29,863.101L-3097.79,858.001C-3094.59,825.7 -3088.29,681.101 -3088.29,638.7L-3088.29,616.501ZM749.208,711.101C751.508,725.601 750.808,752.502 747.808,766.7C737.908,812.401 711.408,842.8 668.108,857.8C621.608,874.001 559.708,869.201 523.208,846.601C487.808,824.701 470.408,791.401 470.408,745.502C470.408,706.8 482.908,674.002 506.408,651.401C521.808,636.601 538.308,627.101 560.808,620.101C584.308,612.8 605.208,610.502 630.308,612.501C668.508,615.601 696.308,627.2 718.108,648.901C735.408,666.201 745.308,686.001 749.208,711.101ZM688.708,777.401C699.608,749.101 698.608,716.601 686.008,690.502C682.208,682.601 680.108,679.701 672.808,672.401C665.408,665.101 662.708,663.101 654.708,659.201C643.508,653.901 636.508,651.9 624.208,650.501C613.908,649.4 610.208,649.4 599.708,650.701C590.608,651.801 576.208,656.502 568.908,660.701C542.708,675.7 527.108,703.2 525.108,738.101C523.408,766.301 532.708,792.3 549.908,807.901C557.208,814.601 570.108,821.401 582.308,825.2C590.608,827.7 592.408,827.901 609.208,827.901C624.608,827.901 628.308,827.601 635.008,825.701C660.108,818.801 679.408,801.401 688.708,777.401ZM-29.292,616.501L150.908,616.501L150.308,627.2C149.908,633.2 149.408,641.601 149.108,646.001L148.508,654.001L86.608,653.7C27.008,653.301 24.708,653.4 24.708,655.2C24.708,656.2 24.008,670.7 23.208,687.4C22.408,704.2 22.008,718.101 22.308,718.4C22.608,718.7 47.208,719.001 76.808,718.9L130.808,718.801L130.208,725.4C129.808,729.001 129.208,737.601 128.908,744.501L128.208,757.001L74.508,757.001C45.008,757.001 20.508,757.4 20.108,757.801C19.408,758.501 16.908,806.2 16.808,820.7L16.708,826.501L41.008,826.501C54.308,826.501 82.208,826.001 103.108,825.501C123.908,824.9 141.208,824.601 141.408,824.9C141.608,825.101 141.208,833.801 140.608,844.101L139.308,863.001L-40.292,863.001L-40.292,860.501C-40.292,859.101 -39.192,843.601 -37.792,826.001C-34.092,777.001 -29.292,668.2 -29.292,632.101L-29.292,616.501ZM-138.292,613.601C-128.892,614.601 -106.192,618.201 -105.792,618.701C-105.392,619.301 -103.392,658.901 -103.792,659.301C-103.992,659.501 -110.192,658.301 -117.492,656.701C-136.192,652.401 -145.692,651.201 -162.292,651.201C-178.392,651.101 -185.192,652.101 -199.392,656.601C-238.392,668.901 -262.092,705.801 -259.992,750.901C-259.292,765.401 -256.792,775.701 -251.192,787.401C-247.792,794.401 -245.392,797.601 -237.892,805.001C-223.392,819.501 -208.192,826.201 -184.492,828.701C-166.692,830.601 -137.792,827.201 -114.892,820.501C-111.092,819.401 -107.792,818.701 -107.592,818.801C-107.492,819.001 -108.392,825.401 -109.792,833.101C-111.092,840.701 -112.492,849.801 -112.792,853.101C-113.192,856.501 -113.792,859.701 -114.192,860.301C-115.692,862.701 -160.492,867.501 -181.492,867.501C-209.292,867.501 -239.992,860.001 -259.692,848.301C-290.492,830.201 -306.392,807.501 -312.992,772.301C-315.592,758.101 -315.292,729.301 -312.492,715.801C-303.892,675.801 -281.892,646.301 -247.792,629.101C-230.992,620.701 -208.892,614.601 -187.692,612.601C-176.792,611.601 -153.192,612.001 -138.292,613.601ZM-440.892,653.2C-428.792,687.7 -372.592,841.4 -366.892,855.4C-365.492,859.001 -364.292,862.1 -364.292,862.4C-364.292,862.7 -377.292,863.001 -393.292,863.001L-422.192,863.1L-424.292,856.001C-428.092,843.301 -438.392,812.301 -445.092,793.7L-451.592,775.501L-547.792,775.501L-557.292,795.2C-562.492,806.1 -571.692,825.801 -577.792,839.001L-588.892,862.9L-618.992,863.001C-635.592,863.001 -648.992,862.801 -648.792,862.501C-628.692,826.501 -552.792,681.301 -531.992,639.2L-520.792,616.501L-453.692,616.501L-440.892,653.2ZM-461.992,737.7C-461.492,736.9 -489.492,654.501 -490.292,654.501C-490.592,654.501 -499.892,673.1 -511.092,695.9C-522.192,718.6 -531.292,737.501 -531.292,737.9C-531.292,738.801 -462.492,738.6 -461.992,737.7Z" style="fill:rgb(124,134,163);"/>
    </g>
</svg>
