<?xml version="1.0" encoding="UTF-8" standalone="no"?>
<!DOCTYPE svg PUBLIC "-//W3C//DTD SVG 1.1//EN" "http://www.w3.org/Graphics/SVG/1.1/DTD/svg11.dtd">
<svg width="100%" height="100%" viewBox="0 0 200 130" version="1.1" xmlns="http://www.w3.org/2000/svg" xmlns:xlink="http://www.w3.org/1999/xlink" xml:space="preserve" xmlns:serif="http://www.serif.com/" style="fill-rule:evenodd;clip-rule:evenodd;stroke-linejoin:round;stroke-miterlimit:2;">
    <g transform="matrix(0.815201,0,0,0.815201,5.26063,45.8428)">
        <path d="M10,32.3L10,32.2L16.3,32.2C16.4,36.3 19.7,39.5 23.7,39.6L23.7,46C16.2,46 10,39.9 10,32.3ZM36.8,14.7L36.8,14.8L30.5,14.8C30.4,10.7 27.1,7.5 23.1,7.4L23.1,1C30.7,1 36.8,7.1 36.8,14.7ZM9.1,16.2L12.2,21.7C8.8,23.8 7.5,28.3 9.5,31.8L4,35C0.3,28.4 2.6,20 9.1,16.2ZM37.7,30.8L34.6,25.3C38,23.2 39.3,18.7 37.3,15.2L42.8,12C46.5,18.6 44.2,27 37.7,30.8ZM22.6,7.4L19.4,12.8C15.9,10.8 11.4,12 9.3,15.5L3.8,12.3C7.6,5.8 16,3.6 22.6,7.4ZM24.2,39.5L27.5,34C31,36 35.5,34.9 37.5,31.4L43,34.6C39.2,41.1 30.8,43.3 24.2,39.5ZM119.9,28.9C119.9,34.9 115,39.8 109,39.8C103,39.8 98.1,34.9 98.1,28.9C98.1,22.9 103,18 109,18C115.1,18 119.9,22.9 119.9,28.9ZM109.1,22.6C106.1,22.6 103.7,25.5 103.7,29C103.7,32.5 106.1,35.4 109.1,35.4C112.1,35.4 114.5,32.5 114.5,29C114.4,25.4 112,22.6 109.1,22.6ZM82.1,18.7L87.9,18.7L89.1,23.4C89.1,23.4 90.4,17.6 96.8,18.1L96.8,24.3C96.8,24.3 92,22.8 89.1,24.4L89.1,39.1L83.2,39.1L83.2,23.1L82.1,18.7ZM124.7,25.9L121.9,21.9C121.9,21.9 125.1,18.1 131.4,18.1C137.6,18.1 139.4,21.9 139.4,21.9C139.4,21.9 140.1,23.1 140.1,24L140.1,34.6L141.4,39.3L135.6,39.3L134.5,34.8L134.4,34.8C134.4,34.8 134,40 128.1,40C122.2,40 121.4,35.5 121.4,34C121.4,32.4 122,29.9 125.8,28.6C129.6,27.3 134.6,27.5 134.6,25C134.7,22.4 129.8,21.5 124.7,25.9ZM131.1,30.3C127.6,31.1 127.2,32.2 127.2,33.1C127.2,33.8 127.5,35.6 130.3,35.6C133.1,35.6 134.6,33.9 134.6,33.9L134.6,28.9C134.6,28.7 134.6,29.5 131.1,30.3ZM152.4,18.7L158.4,18.7L159.4,23.5L159.6,23.5C159.6,23.5 160.2,18.1 165.8,18.1C171.4,18.1 171.8,23.5 171.8,23.5L172,23.5C172,23.5 172.8,18.1 178.2,18.1C183.6,18.1 184.1,22.8 184.1,22.8L184.1,39.2L178.3,39.2L178.3,24.7C178.3,24.7 177.9,22.7 175.3,22.7C172.7,22.7 171.9,24.6 171.9,24.6L171.9,39.2L166,39.2L166,24.6C166,24.6 165.7,22.7 163,22.7C160.3,22.7 159.6,24.5 159.6,24.5L159.6,39.1L153.7,39.1L153.7,23.3L152.4,18.7ZM207.1,18.7L214,18.7L218.5,25.2L223.2,18.7L230,18.7L222.5,28.9L230.2,39.2L223.3,39.2L218.6,32.5L213.9,39.2L207.1,39.2L214.7,29L207.1,18.7ZM57.8,9.2L63.6,9.2L64.8,13.7C64.8,13.7 65.9,8.7 71.5,8.7C77.2,8.7 80,13.8 80,19.2C80,24.6 76.7,30.5 69.8,30.5C67.5,30.5 65.6,30 65,29.2L65,39.2L59.1,39.2L59.1,14.1L57.8,9.2ZM64.9,24.4C64.9,24.4 66.4,25.9 68.7,25.9C70.9,25.9 74.4,24.3 74.4,19.5C74.4,14.7 71,12.9 68.7,12.9C66.3,12.9 64.9,14.6 64.9,14.6L64.9,24.4ZM143.3,7.2L149.2,7.2L149.2,34.4L150.4,39.2L144.6,39.2L143.3,33.8L143.3,7.2ZM197.8,39.8C194.1,39.8 191.1,38.6 189.1,36.3C187.4,34.4 186.4,31.7 186.4,28.8C186.4,23.8 189.3,18 197.3,18C204.7,18 206.7,22.5 206.7,25.2C206.7,26.3 206.2,28 205,29.4C204,30.5 202.1,31.9 198.7,31.9C193.2,31.9 192,27.1 191.9,26.4C191.6,26.9 190.2,35.3 197.8,35.3C201.5,35.3 203.9,33.2 204,33.2L204.2,33L207.1,36.6L206.9,36.7C204.8,38.8 200.6,39.8 197.8,39.8ZM192.3,25.7C192.7,26.2 194.4,28 197.7,28C198.8,28 201.5,27.7 201.5,25.2C201.5,25.1 201.5,22.4 197.4,22.4C194.4,22.5 192.8,24.5 192.3,25.7Z" style="fill:rgb(124,134,163);"/>
    </g>
</svg>
