<?xml version="1.0" encoding="UTF-8" standalone="no"?>
<!DOCTYPE svg PUBLIC "-//W3C//DTD SVG 1.1//EN" "http://www.w3.org/Graphics/SVG/1.1/DTD/svg11.dtd">
<svg width="100%" height="100%" viewBox="0 0 200 130" version="1.1" xmlns="http://www.w3.org/2000/svg" xmlns:xlink="http://www.w3.org/1999/xlink" xml:space="preserve" xmlns:serif="http://www.serif.com/" style="fill-rule:evenodd;clip-rule:evenodd;stroke-linejoin:round;stroke-miterlimit:2;">
    <g transform="matrix(0.666976,0,0,0.666976,50.1699,70.9067)">
        <path d="M0,-24.506L14.676,-24.506L14.676,-22.429L2.284,-22.429L2.284,-13.707L13.81,-13.707L13.81,-11.63L2.284,-11.63L2.284,0L0,0L0,-24.506ZM21.114,-12.253C21.114,-14.122 21.425,-15.841 22.048,-17.41C22.671,-18.979 23.536,-20.335 24.644,-21.477C25.752,-22.619 27.084,-23.513 28.642,-24.16C30.199,-24.805 31.913,-25.129 33.782,-25.129C35.651,-25.129 37.364,-24.805 38.922,-24.16C40.479,-23.513 41.812,-22.619 42.92,-21.477C44.027,-20.335 44.892,-18.979 45.515,-17.41C46.138,-15.841 46.45,-14.122 46.45,-12.253C46.45,-10.384 46.138,-8.659 45.515,-7.078C44.892,-5.497 44.027,-4.136 42.92,-2.994C41.812,-1.852 40.479,-0.963 38.922,-0.329C37.364,0.306 35.651,0.623 33.782,0.623C31.913,0.623 30.199,0.306 28.642,-0.329C27.084,-0.963 25.752,-1.852 24.644,-2.994C23.536,-4.136 22.671,-5.497 22.048,-7.078C21.425,-8.659 21.114,-10.384 21.114,-12.253ZM23.398,-12.253C23.398,-10.73 23.64,-9.311 24.125,-7.996C24.609,-6.68 25.302,-5.538 26.202,-4.569C27.101,-3.6 28.192,-2.838 29.472,-2.285C30.753,-1.731 32.19,-1.454 33.782,-1.454C35.374,-1.454 36.81,-1.731 38.091,-2.285C39.372,-2.838 40.462,-3.6 41.362,-4.569C42.262,-5.538 42.954,-6.68 43.439,-7.996C43.923,-9.311 44.166,-10.73 44.166,-12.253C44.166,-13.776 43.923,-15.195 43.439,-16.51C42.954,-17.826 42.262,-18.968 41.362,-19.937C40.462,-20.906 39.372,-21.667 38.091,-22.221C36.81,-22.775 35.374,-23.052 33.782,-23.052C32.19,-23.052 30.753,-22.775 29.472,-22.221C28.192,-21.667 27.101,-20.906 26.202,-19.937C25.302,-18.968 24.609,-17.826 24.125,-16.51C23.64,-15.195 23.398,-13.776 23.398,-12.253ZM60.468,-22.429L52.092,-22.429L52.092,-24.506L71.128,-24.506L71.128,-22.429L62.752,-22.429L62.752,-0L60.468,-0L60.468,-22.429ZM76.769,-12.253C76.769,-14.122 77.081,-15.841 77.704,-17.41C78.327,-18.979 79.192,-20.335 80.3,-21.477C81.408,-22.619 82.74,-23.513 84.298,-24.16C85.855,-24.805 87.569,-25.129 89.438,-25.129C91.307,-25.129 93.02,-24.805 94.578,-24.16C96.135,-23.513 97.468,-22.619 98.575,-21.477C99.683,-20.335 100.548,-18.979 101.171,-17.41C101.794,-15.841 102.106,-14.122 102.106,-12.253C102.106,-10.384 101.794,-8.659 101.171,-7.078C100.548,-5.497 99.683,-4.136 98.575,-2.994C97.468,-1.852 96.135,-0.963 94.578,-0.329C93.02,0.306 91.307,0.623 89.438,0.623C87.569,0.623 85.855,0.306 84.298,-0.329C82.74,-0.963 81.408,-1.852 80.3,-2.994C79.192,-4.136 78.327,-5.497 77.704,-7.078C77.081,-8.659 76.769,-10.384 76.769,-12.253ZM79.054,-12.253C79.054,-10.73 79.296,-9.311 79.781,-7.996C80.265,-6.68 80.958,-5.538 81.858,-4.569C82.758,-3.6 83.848,-2.838 85.128,-2.285C86.409,-1.731 87.846,-1.454 89.438,-1.454C91.03,-1.454 92.466,-1.731 93.747,-2.285C95.028,-2.838 96.118,-3.6 97.018,-4.569C97.918,-5.538 98.61,-6.68 99.095,-7.996C99.579,-9.311 99.822,-10.73 99.822,-12.253C99.822,-13.776 99.579,-15.195 99.095,-16.51C98.61,-17.826 97.918,-18.968 97.018,-19.937C96.118,-20.906 95.028,-21.667 93.747,-22.221C92.466,-22.775 91.03,-23.052 89.438,-23.052C87.846,-23.052 86.409,-22.775 85.128,-22.221C83.848,-21.667 82.758,-20.906 81.858,-19.937C80.958,-18.968 80.265,-17.826 79.781,-16.51C79.296,-15.195 79.054,-13.776 79.054,-12.253ZM115.156,-24.506L115.156,-0L109.756,-0L109.756,-24.506L115.156,-24.506ZM123.531,-24.506L131.631,-24.506C133.592,-24.506 135.455,-24.286 137.221,-23.848C138.986,-23.409 140.526,-22.7 141.841,-21.719C143.157,-20.738 144.2,-19.463 144.974,-17.894C145.747,-16.325 146.133,-14.421 146.133,-12.183C146.133,-10.199 145.758,-8.451 145.009,-6.94C144.258,-5.428 143.249,-4.159 141.98,-3.132C140.711,-2.105 139.246,-1.326 137.584,-0.796C135.923,-0.265 134.18,-0 132.358,-0L123.531,-0L123.531,-24.506ZM128.931,-4.984L131.735,-4.984C132.981,-4.984 134.14,-5.111 135.213,-5.365C136.286,-5.618 137.215,-6.04 137.999,-6.628C138.784,-7.217 139.401,-7.989 139.851,-8.947C140.301,-9.904 140.526,-11.076 140.526,-12.46C140.526,-13.66 140.301,-14.704 139.851,-15.593C139.401,-16.481 138.796,-17.214 138.034,-17.791C137.272,-18.367 136.378,-18.8 135.352,-19.089C134.325,-19.377 133.246,-19.521 132.115,-19.521L128.931,-19.521L128.931,-4.984ZM153.471,-24.506L170.12,-24.506L170.12,-19.522L158.871,-19.522L158.871,-14.953L169.497,-14.953L169.497,-9.969L158.871,-9.969L158.871,-4.984L170.743,-4.984L170.743,0L153.471,0L153.471,-24.506ZM186.594,-24.506L191.059,-24.506L201.72,-0.001L195.628,-0.001L193.517,-5.192L183.998,-5.192L181.956,-0.001L176.003,-0.001L186.594,-24.506ZM188.671,-17.376L185.694,-9.761L191.682,-9.761L188.671,-17.376ZM219.753,-18.518C219.314,-19.072 218.72,-19.481 217.97,-19.747C217.221,-20.012 216.511,-20.145 215.842,-20.145C215.449,-20.145 215.046,-20.098 214.63,-20.006C214.215,-19.914 213.823,-19.769 213.454,-19.574C213.084,-19.377 212.784,-19.118 212.554,-18.795C212.323,-18.471 212.208,-18.079 212.208,-17.618C212.208,-16.879 212.484,-16.314 213.038,-15.922C213.592,-15.529 214.29,-15.195 215.132,-14.918C215.974,-14.641 216.88,-14.365 217.849,-14.088C218.818,-13.811 219.724,-13.418 220.566,-12.911C221.409,-12.403 222.107,-11.722 222.661,-10.869C223.214,-10.015 223.491,-8.873 223.491,-7.442C223.491,-6.08 223.237,-4.892 222.73,-3.877C222.222,-2.861 221.536,-2.019 220.67,-1.35C219.805,-0.681 218.801,-0.185 217.659,0.138C216.517,0.461 215.311,0.623 214.042,0.623C212.45,0.623 210.973,0.38 209.612,-0.104C208.25,-0.589 206.981,-1.373 205.804,-2.458L209.646,-6.681C210.2,-5.942 210.898,-5.371 211.74,-4.967C212.582,-4.563 213.454,-4.362 214.353,-4.362C214.792,-4.362 215.236,-4.413 215.686,-4.517C216.136,-4.621 216.54,-4.777 216.898,-4.984C217.255,-5.192 217.543,-5.457 217.763,-5.781C217.982,-6.103 218.092,-6.484 218.092,-6.923C218.092,-7.661 217.809,-8.243 217.244,-8.671C216.678,-9.097 215.969,-9.461 215.115,-9.761C214.261,-10.061 213.338,-10.361 212.346,-10.661C211.354,-10.961 210.43,-11.364 209.577,-11.872C208.723,-12.38 208.014,-13.049 207.448,-13.88C206.883,-14.711 206.6,-15.806 206.6,-17.168C206.6,-18.483 206.86,-19.637 207.379,-20.629C207.898,-21.621 208.59,-22.452 209.456,-23.122C210.321,-23.79 211.319,-24.292 212.45,-24.627C213.58,-24.961 214.746,-25.129 215.946,-25.129C217.33,-25.129 218.668,-24.933 219.961,-24.541C221.253,-24.148 222.418,-23.49 223.457,-22.568L219.753,-18.518ZM-25.837,-30.721C-21.851,-30.721 -18.62,-27.489 -18.62,-23.503L-18.62,-1.002C-18.62,2.984 -21.851,6.215 -25.837,6.215L-38.109,6.215L-45.149,17.393C-45.703,18.273 -46.986,18.273 -47.541,17.393L-54.581,6.215L-66.853,6.215C-70.839,6.215 -74.07,2.984 -74.07,-1.002L-74.07,-23.503C-74.07,-27.489 -70.839,-30.721 -66.853,-30.721L-55.982,-30.721L-55.476,-32.741C-55.032,-34.518 -53.435,-35.764 -51.603,-35.764L-41.086,-35.764C-39.255,-35.764 -37.658,-34.518 -37.213,-32.741L-36.708,-30.721L-25.837,-30.721ZM-46.345,0.058C-39.557,0.058 -34.034,-5.465 -34.034,-12.253C-34.034,-19.041 -39.557,-24.563 -46.345,-24.563C-53.133,-24.563 -58.656,-19.041 -58.656,-12.253C-58.656,-5.465 -53.133,0.058 -46.345,0.058ZM-46.345,-19.434C-42.385,-19.434 -39.164,-16.213 -39.164,-12.253C-39.164,-8.293 -42.385,-5.072 -46.345,-5.072C-50.305,-5.072 -53.526,-8.293 -53.526,-12.253C-53.526,-16.213 -50.305,-19.434 -46.345,-19.434Z" style="fill:rgb(124,134,163);"/>
    </g>
</svg>
