<?xml version="1.0" encoding="utf-8"?>
<!-- Generator: Adobe Illustrator 24.0.0, SVG Export Plug-In . SVG Version: 6.00 Build 0)  -->
<svg version="1.1" id="Capa_1" xmlns="http://www.w3.org/2000/svg" xmlns:xlink="http://www.w3.org/1999/xlink" x="0px" y="0px"
	 viewBox="0 0 200 130" style="enable-background:new 0 0 200 130;" xml:space="preserve">
<style type="text/css">
	.st0{fill:#7C86A3;}
</style>
<g>
	<g>
		<path class="st0" d="M18.2,84.4c-1,0-2.1-0.1-3.4-0.2s-2.5-0.3-3.7-0.5s-2.3-0.3-3.2-0.5l0.4-3.6c0.9,0.1,1.9,0.2,3.1,0.4
			c1.2,0.1,2.4,0.3,3.5,0.4c1.2,0.1,2.1,0.1,3,0.1c2.1,0,3.7-0.5,4.7-1.4s1.5-2.4,1.5-4.4c0-1.1-0.2-2-0.6-2.6s-1.1-1.2-2.1-1.5
			c-1-0.4-2.3-0.7-3.9-1.1c-2.3-0.5-4.1-1-5.6-1.7S9.4,66.2,8.7,65c-0.7-1.2-1-2.8-1-4.9c0-2.2,0.4-3.9,1.3-5.2
			c0.8-1.3,2-2.3,3.6-2.9c1.6-0.6,3.4-0.9,5.5-0.9c0.9,0,2,0.1,3.2,0.2c1.2,0.1,2.4,0.2,3.6,0.4s2.2,0.3,3,0.5l-0.3,3.7
			c-0.9-0.1-1.9-0.2-3.1-0.4c-1.2-0.1-2.3-0.2-3.4-0.3c-1.1-0.1-2-0.1-2.6-0.1c-2.1,0-3.7,0.4-4.7,1.1c-1,0.8-1.6,2-1.6,3.6
			c0,1.2,0.2,2.2,0.7,2.9c0.5,0.7,1.2,1.2,2.3,1.5c1.1,0.4,2.5,0.8,4.2,1.2c1.6,0.4,3,0.8,4.2,1.2c1.2,0.4,2.1,1,2.9,1.6
			c0.8,0.7,1.3,1.5,1.7,2.4c0.3,1,0.5,2.2,0.5,3.6c0,2.4-0.4,4.3-1.3,5.8c-0.8,1.5-2,2.5-3.6,3.2C22.2,84,20.3,84.4,18.2,84.4z"/>
		<path class="st0" d="M40.7,84.4c-2,0-3.5-0.4-4.5-1.2c-1-0.8-1.8-2.1-2.2-3.8c-0.4-1.7-0.6-3.9-0.6-6.6V60.5h4.2v12.2
			c0,1.9,0.1,3.5,0.3,4.6c0.2,1.2,0.6,2,1.2,2.5c0.6,0.5,1.6,0.7,2.8,0.7s2.3-0.2,3.4-0.5c1-0.3,1.8-0.7,2.5-1V60.5H52v23.4h-4.2
			v-1.6c-1,0.6-2,1-3.1,1.5C43.5,84.2,42.2,84.4,40.7,84.4z"/>
		<path class="st0" d="M58.1,83.9V50.5h4.2v11.1c0.8-0.3,1.8-0.7,3.1-1.1s2.5-0.6,3.7-0.6c2.1,0,3.7,0.4,4.9,1.1
			c1.1,0.8,1.9,2,2.4,3.7c0.4,1.7,0.6,3.9,0.6,6.7v12.4h-4.3v-12c0-1.9-0.1-3.5-0.3-4.6c-0.2-1.2-0.6-2-1.3-2.5
			c-0.6-0.5-1.6-0.8-2.9-0.8c-1.1,0-2.2,0.1-3.3,0.4c-1.1,0.3-2,0.6-2.6,0.8v18.8C62.3,83.9,58.1,83.9,58.1,83.9z"/>
		<path class="st0" d="M82.8,55.7v-4.5H87v4.5H82.8z M82.8,83.9V60.5H87v23.4H82.8z"/>
		<path class="st0" d="M100.6,84.4c-0.8,0-1.7,0-2.7-0.1s-2-0.2-3-0.4c-1-0.1-1.8-0.3-2.6-0.4l0.2-3.5c0.8,0.1,1.6,0.2,2.6,0.3
			c1,0.1,1.9,0.2,2.9,0.3c0.9,0.1,1.7,0.1,2.2,0.1c1.2,0,2.1-0.1,2.9-0.3c0.8-0.2,1.3-0.6,1.7-1.1c0.4-0.5,0.6-1.2,0.6-2.1
			c0-0.7-0.2-1.3-0.5-1.7c-0.3-0.4-0.9-0.7-1.7-1c-0.8-0.3-2-0.5-3.6-0.8c-1.7-0.3-3.1-0.6-4.2-1.1c-1.1-0.4-2-1.1-2.5-1.9
			C92.3,69.8,92,68.6,92,67c0-1.8,0.4-3.2,1.2-4.2c0.8-1,1.9-1.7,3.1-2.2c1.3-0.4,2.7-0.7,4.1-0.7c0.9,0,1.9,0,2.9,0.1
			s2.1,0.2,3,0.4c1,0.2,1.8,0.3,2.5,0.4l-0.1,3.6c-0.7-0.1-1.6-0.2-2.6-0.4c-1-0.1-1.9-0.2-2.9-0.3c-1-0.1-1.8-0.1-2.6-0.1
			c-0.9,0-1.6,0.1-2.3,0.3c-0.7,0.2-1.2,0.5-1.6,0.9c-0.4,0.5-0.6,1.1-0.6,1.9c0,0.6,0.1,1.1,0.4,1.5s0.8,0.7,1.6,1
			c0.8,0.3,2,0.5,3.5,0.8c1.9,0.3,3.4,0.7,4.5,1.2s1.9,1.1,2.5,2c0.5,0.9,0.8,2.1,0.8,3.6c0,2.8-0.8,4.7-2.4,5.8
			C105.7,83.8,103.4,84.4,100.6,84.4z"/>
		<path class="st0" d="M122,84.4c-0.8,0-1.7,0-2.7-0.1s-2-0.2-3-0.4c-1-0.1-1.8-0.3-2.6-0.4l0.2-3.5c0.8,0.1,1.6,0.2,2.6,0.3
			c1,0.1,1.9,0.2,2.9,0.3c0.9,0.1,1.7,0.1,2.2,0.1c1.2,0,2.1-0.1,2.9-0.3c0.8-0.2,1.3-0.6,1.7-1.1c0.4-0.5,0.6-1.2,0.6-2.1
			c0-0.7-0.2-1.3-0.5-1.7c-0.3-0.4-0.9-0.7-1.7-1c-0.8-0.3-2-0.5-3.6-0.8c-1.7-0.3-3.1-0.6-4.2-1.1c-1.1-0.4-2-1.1-2.5-1.9
			c-0.5-0.9-0.8-2.1-0.8-3.6c0-1.8,0.4-3.2,1.2-4.2c0.8-1,1.9-1.7,3.1-2.2c1.3-0.4,2.7-0.7,4.1-0.7c0.9,0,1.9,0,2.9,0.1
			s2.1,0.2,3,0.4c1,0.2,1.8,0.3,2.5,0.4l-0.1,3.6c-0.7-0.1-1.6-0.2-2.6-0.4c-1-0.1-1.9-0.2-2.9-0.3c-1-0.1-1.8-0.1-2.6-0.1
			c-0.9,0-1.6,0.1-2.3,0.3c-0.7,0.2-1.2,0.5-1.6,0.9c-0.4,0.5-0.6,1.1-0.6,1.9c0,0.6,0.1,1.1,0.4,1.5s0.8,0.7,1.6,1
			c0.8,0.3,2,0.5,3.5,0.8c1.9,0.3,3.4,0.7,4.5,1.2s1.9,1.1,2.5,2c0.5,0.9,0.8,2.1,0.8,3.6c0,2.8-0.8,4.7-2.4,5.8
			C127,83.8,124.8,84.4,122,84.4z"/>
		<path class="st0" d="M141.1,84.4c-2.2,0-3.8-0.6-4.9-1.8c-1.1-1.2-1.7-3-1.7-5.4c0-1.6,0.3-2.9,0.8-3.9s1.4-1.7,2.4-2.2
			c1.1-0.5,2.4-0.8,4-0.9l6.6-0.7v-1.8c0-1.5-0.3-2.5-1-3.1c-0.6-0.6-1.6-0.9-2.9-0.9c-0.8,0-1.7,0-2.8,0.1s-2.1,0.1-3.1,0.2
			s-2,0.2-2.8,0.3l-0.2-3.2c0.8-0.2,1.7-0.4,2.7-0.5c1-0.2,2.2-0.3,3.3-0.4c1.2-0.1,2.2-0.2,3.2-0.2c1.8,0,3.3,0.3,4.4,0.8
			c1.2,0.5,2,1.4,2.6,2.5c0.5,1.1,0.8,2.6,0.8,4.4v11.5c0.1,0.6,0.3,1.1,0.8,1.4c0.4,0.3,1,0.5,1.7,0.6l-0.1,3.2
			c-0.7,0-1.3,0-1.9-0.1c-0.6,0-1.1-0.1-1.6-0.3c-0.5-0.1-0.9-0.3-1.3-0.5c-0.4-0.2-0.7-0.5-1.1-0.8c-0.5,0.2-1.3,0.5-2.1,0.8
			c-0.9,0.3-1.8,0.5-2.8,0.7S142.1,84.4,141.1,84.4z M142,80.9c0.8,0,1.5-0.1,2.4-0.2c0.8-0.2,1.6-0.3,2.3-0.5s1.3-0.4,1.8-0.5v-7
			l-6.1,0.6c-1.3,0.1-2.2,0.5-2.7,1.1s-0.8,1.6-0.8,2.7c0,1.2,0.3,2.2,0.8,2.9C140.1,80.6,140.9,80.9,142,80.9z"/>
	</g>
	<g>
		<path class="st0" d="M177.2,75.3c8.3,0,15.1-6.8,15.1-15.1h-6.7c0,4.7-3.8,8.5-8.5,8.5s-8.5-3.8-8.5-8.5h-6.7
			C162.1,68.5,168.8,75.3,177.2,75.3z"/>
		<polyline class="st0" points="171.8,41.3 162.9,54.1 170.4,54.1 177.2,44.3 184,54.1 191.5,54.1 177.2,33.6 171.8,41.3 		"/>
	</g>
</g>
</svg>
