<?xml version="1.0" encoding="UTF-8" standalone="no"?>
<!DOCTYPE svg PUBLIC "-//W3C//DTD SVG 1.1//EN" "http://www.w3.org/Graphics/SVG/1.1/DTD/svg11.dtd">
<svg width="100%" height="100%" viewBox="0 0 200 130" version="1.1" xmlns="http://www.w3.org/2000/svg" xmlns:xlink="http://www.w3.org/1999/xlink" xml:space="preserve" xmlns:serif="http://www.serif.com/" style="fill-rule:evenodd;clip-rule:evenodd;stroke-linejoin:round;stroke-miterlimit:2;">
    <g transform="matrix(0.95514,0,0,0.95514,4.48372,2.64896)">
        <g>
            <path d="M40.1,74.2L40.1,62.1C40.1,60.3 39.8,58.8 39.3,57.4C38.8,56 38,54.9 36.9,54.1C35.8,53.3 34.4,52.9 32.7,52.9C30.8,52.9 29,53.4 27.3,54.4C26.3,55 25.3,55.7 24.5,56.4C24.4,55.6 24.1,54.9 23.7,54.4C23.1,53.5 22.1,53.1 20.8,53.1L18.2,53.1L17.8,53.5L17.8,80.4C18.8,80.6 20,80.6 21.2,80.6C22.5,80.6 23.6,80.5 24.6,80.4L24.6,61.7C24.8,61.5 24.9,61.4 25.1,61.2C26,60.4 26.8,59.9 27.8,59.5C28.7,59.1 29.6,58.9 30.3,58.9C31.5,58.9 32.2,59.3 32.7,60C33.1,60.7 33.3,61.9 33.3,63.5L33.3,76.5C33.3,77.9 33.6,78.9 34.1,79.6C34.6,80.3 35.6,80.7 36.9,80.7C37.7,80.7 38.5,80.6 39.3,80.3C40,80 40.7,79.7 41.2,79.3C40.8,78.6 40.5,77.9 40.4,77C40.2,76.2 40.1,75.2 40.1,74.2Z" style="fill:rgb(124,134,163);fill-rule:nonzero;"/>
            <path d="M63.6,54.2C62,53.2 60,52.7 57.6,52.7C54.9,52.7 52.7,53.3 51,54.6C49.3,55.9 48,57.6 47.2,59.7C46.4,61.9 45.9,64.3 45.9,67C45.9,68.8 46.1,70.6 46.5,72.3C46.9,74 47.5,75.5 48.4,76.8C49.3,78.1 50.5,79.2 52,80C53.5,80.8 55.4,81.2 57.6,81.2C59.5,81.2 61.4,80.9 63.2,80.4C65,79.9 66.6,79.1 68,78.1C67.9,77.4 67.7,76.7 67.3,75.9C67,75.1 66.5,74.5 66,74C64.9,74.5 63.7,75 62.4,75.3C61.2,75.7 59.9,75.9 58.6,75.9C57,75.9 55.8,75.5 55,74.8C54.2,74.1 53.6,73.1 53.3,71.8C53.1,71 53,70.1 52.9,69.2L68.2,69.2C68.4,68.4 68.5,67.6 68.6,66.9C68.7,66.2 68.7,65.4 68.7,64.4C68.7,62.2 68.3,60.3 67.4,58.5C66.5,56.6 65.3,55.2 63.6,54.2ZM62.3,64.3L52.9,64.3C53,62.3 53.4,60.8 54,59.6C54.8,58.2 56,57.5 57.6,57.5C58.7,57.5 59.7,57.8 60.3,58.3C61,58.9 61.5,59.6 61.8,60.5C62.1,61.4 62.3,62.4 62.3,63.5L62.3,64.3Z" style="fill:rgb(124,134,163);fill-rule:nonzero;"/>
            <path d="M87.9,53C86.3,53 85,53.4 83.9,54C82.8,54.7 82,55.6 81.4,56.8C81.2,57.1 81,57.5 80.9,57.8C80.6,57 80.3,56.3 79.8,55.6C78.8,54.1 77.2,53.2 75.1,52.8C74.6,53.1 74.2,53.7 73.7,54.4C73.3,55.1 73,55.8 72.8,56.4C73.3,56.8 73.7,57.5 74.2,58.4C74.6,59.3 74.9,60.5 74.9,62.1L74.9,80.4C75.9,80.6 77,80.6 78.3,80.6C79.6,80.6 80.7,80.5 81.7,80.4L81.7,62.9C82,62.3 82.4,61.8 82.8,61.3C83.3,60.7 83.9,60.2 84.6,59.8C85.3,59.4 86.1,59.2 87,59.2C87.4,59.3 87.8,59.3 88.2,59.3C88.6,59.3 89,59.4 89.4,59.5C90,58.6 90.4,57.5 90.7,56.3C91,55.1 91.1,54 91.1,53.2C90.6,53.1 90.1,53 89.6,52.9C89.1,53 88.5,53 87.9,53Z" style="fill:rgb(124,134,163);fill-rule:nonzero;"/>
            <path d="M117.4,53.2C116.8,53.1 116.2,53.1 115.6,53.1C115.2,53.1 114.8,53.1 114.4,53.2C114,53.2 113.6,53.3 113.1,53.4L107.4,75.1C107.1,75.1 106.9,75 106.9,74.7C106.8,74.1 106.6,73.4 106.5,72.6C106.3,71.8 106.1,70.9 105.9,69.9C105.7,69 105.4,68.1 105.2,67.3L101.9,56C101.6,54.9 101.2,54.1 100.6,53.6C100,53.2 99.2,52.9 98.1,52.9C97.5,52.9 96.9,53 96.3,53.2C95.6,53.4 95,53.6 94.3,53.9L101.4,77.2C101.9,78.7 102.4,79.6 103.2,80.1C103.9,80.5 104.9,80.7 106.2,80.7C107,80.7 107.9,80.7 108.8,80.6C109.7,80.6 110.5,80.5 111.2,80.4C111.7,78.9 112.3,77 112.9,74.9C113.6,72.7 114.3,70.4 115,68C115.7,65.6 116.5,63.1 117.2,60.7C117.9,58.3 118.6,56 119.2,54L119,53.7C118.6,53.5 118,53.3 117.4,53.2Z" style="fill:rgb(124,134,163);fill-rule:nonzero;"/>
            <path d="M144.6,59.5C143.7,57.4 142.4,55.7 140.6,54.5C138.8,53.3 136.6,52.7 133.9,52.7C131.3,52.7 129.1,53.3 127.3,54.5C125.5,55.7 124.2,57.4 123.2,59.5C122.3,61.6 121.8,64.1 121.8,67C121.8,69.8 122.3,72.3 123.2,74.4C124.1,76.5 125.5,78.2 127.2,79.4C129,80.6 131.2,81.2 133.9,81.2C136.6,81.2 138.8,80.6 140.6,79.4C142.4,78.2 143.8,76.5 144.7,74.4C145.6,72.3 146.1,69.8 146.1,66.9C146,64.1 145.5,61.6 144.6,59.5ZM138.6,71.4C138.3,72.8 137.8,73.9 137.1,74.8C136.4,75.6 135.3,76.1 133.9,76.1C132.5,76.1 131.5,75.7 130.7,74.8C130,74 129.4,72.8 129.2,71.4C128.9,70 128.8,68.5 128.8,66.9C128.8,65.3 128.9,63.8 129.2,62.4C129.5,61 130,59.9 130.7,59C131.4,58.1 132.5,57.7 133.9,57.7C135.3,57.7 136.4,58.1 137.1,59C137.8,59.9 138.3,61 138.6,62.4C138.9,63.8 139,65.3 139,66.9C139,68.5 138.9,70 138.6,71.4Z" style="fill:rgb(124,134,163);fill-rule:nonzero;"/>
        </g>
        <g>
            <path d="M155.5,71.1L168.8,62.8L168.8,53.2L155.5,61.5L155.5,71.1Z" style="fill:rgb(124,134,163);fill-rule:nonzero;"/>
            <path d="M182.1,80.6L168.8,72.4L168.8,62.8L182.1,71.1L182.1,80.6Z" style="fill:rgb(124,134,163);fill-rule:nonzero;"/>
            <path d="M182.1,61.5L168.8,53.2L168.8,36.9L182.1,45.1L182.1,61.5Z" style="fill:rgb(124,134,163);fill-rule:nonzero;"/>
        </g>
    </g>
</svg>
