<?xml version="1.0" encoding="utf-8"?>
<!-- Generator: Adobe Illustrator 24.0.0, SVG Export Plug-In . SVG Version: 6.00 Build 0)  -->
<svg version="1.1" id="Capa_1" xmlns="http://www.w3.org/2000/svg" xmlns:xlink="http://www.w3.org/1999/xlink" x="0px" y="0px"
	 viewBox="0 0 200 130" style="enable-background:new 0 0 200 130;" xml:space="preserve">
<style type="text/css">
	.st0{fill:#7C86A3;}
</style>
<g>
	<g>
		<path class="st0" d="M40.1,74.2V62.1c0-1.8-0.3-3.3-0.8-4.7c-0.5-1.4-1.3-2.5-2.4-3.3c-1.1-0.8-2.5-1.2-4.2-1.2
			c-1.9,0-3.7,0.5-5.4,1.5c-1,0.6-2,1.3-2.8,2c-0.1-0.8-0.4-1.5-0.8-2c-0.6-0.9-1.6-1.3-2.9-1.3h-2.6l-0.4,0.4v26.9
			c1,0.2,2.2,0.2,3.4,0.2c1.3,0,2.4-0.1,3.4-0.2V61.7c0.2-0.2,0.3-0.3,0.5-0.5c0.9-0.8,1.7-1.3,2.7-1.7c0.9-0.4,1.8-0.6,2.5-0.6
			c1.2,0,1.9,0.4,2.4,1.1c0.4,0.7,0.6,1.9,0.6,3.5v13c0,1.4,0.3,2.4,0.8,3.1s1.5,1.1,2.8,1.1c0.8,0,1.6-0.1,2.4-0.4
			c0.7-0.3,1.4-0.6,1.9-1c-0.4-0.7-0.7-1.4-0.8-2.3C40.2,76.2,40.1,75.2,40.1,74.2z"/>
		<path class="st0" d="M63.6,54.2c-1.6-1-3.6-1.5-6-1.5c-2.7,0-4.9,0.6-6.6,1.9c-1.7,1.3-3,3-3.8,5.1c-0.8,2.2-1.3,4.6-1.3,7.3
			c0,1.8,0.2,3.6,0.6,5.3c0.4,1.7,1,3.2,1.9,4.5s2.1,2.4,3.6,3.2c1.5,0.8,3.4,1.2,5.6,1.2c1.9,0,3.8-0.3,5.6-0.8
			c1.8-0.5,3.4-1.3,4.8-2.3c-0.1-0.7-0.3-1.4-0.7-2.2C67,75.1,66.5,74.5,66,74c-1.1,0.5-2.3,1-3.6,1.3c-1.2,0.4-2.5,0.6-3.8,0.6
			c-1.6,0-2.8-0.4-3.6-1.1s-1.4-1.7-1.7-3c-0.2-0.8-0.3-1.7-0.4-2.6h15.3c0.2-0.8,0.3-1.6,0.4-2.3c0.1-0.7,0.1-1.5,0.1-2.5
			c0-2.2-0.4-4.1-1.3-5.9C66.5,56.6,65.3,55.2,63.6,54.2z M62.3,64.3h-9.4c0.1-2,0.5-3.5,1.1-4.7c0.8-1.4,2-2.1,3.6-2.1
			c1.1,0,2.1,0.3,2.7,0.8c0.7,0.6,1.2,1.3,1.5,2.2c0.3,0.9,0.5,1.9,0.5,3V64.3z"/>
		<path class="st0" d="M87.9,53c-1.6,0-2.9,0.4-4,1c-1.1,0.7-1.9,1.6-2.5,2.8c-0.2,0.3-0.4,0.7-0.5,1c-0.3-0.8-0.6-1.5-1.1-2.2
			c-1-1.5-2.6-2.4-4.7-2.8c-0.5,0.3-0.9,0.9-1.4,1.6c-0.4,0.7-0.7,1.4-0.9,2c0.5,0.4,0.9,1.1,1.4,2c0.4,0.9,0.7,2.1,0.7,3.7v18.3
			c1,0.2,2.1,0.2,3.4,0.2s2.4-0.1,3.4-0.2V62.9c0.3-0.6,0.7-1.1,1.1-1.6c0.5-0.6,1.1-1.1,1.8-1.5c0.7-0.4,1.5-0.6,2.4-0.6
			c0.4,0.1,0.8,0.1,1.2,0.1c0.4,0,0.8,0.1,1.2,0.2c0.6-0.9,1-2,1.3-3.2s0.4-2.3,0.4-3.1c-0.5-0.1-1-0.2-1.5-0.3
			C89.1,53,88.5,53,87.9,53z"/>
		<path class="st0" d="M117.4,53.2c-0.6-0.1-1.2-0.1-1.8-0.1c-0.4,0-0.8,0-1.2,0.1c-0.4,0-0.8,0.1-1.3,0.2l-5.7,21.7
			c-0.3,0-0.5-0.1-0.5-0.4c-0.1-0.6-0.3-1.3-0.4-2.1c-0.2-0.8-0.4-1.7-0.6-2.7c-0.2-0.9-0.5-1.8-0.7-2.6L101.9,56
			c-0.3-1.1-0.7-1.9-1.3-2.4c-0.6-0.4-1.4-0.7-2.5-0.7c-0.6,0-1.2,0.1-1.8,0.3c-0.7,0.2-1.3,0.4-2,0.7l7.1,23.3
			c0.5,1.5,1,2.4,1.8,2.9c0.7,0.4,1.7,0.6,3,0.6c0.8,0,1.7,0,2.6-0.1c0.9,0,1.7-0.1,2.4-0.2c0.5-1.5,1.1-3.4,1.7-5.5
			c0.7-2.2,1.4-4.5,2.1-6.9s1.5-4.9,2.2-7.3s1.4-4.7,2-6.7l-0.2-0.3C118.6,53.5,118,53.3,117.4,53.2z"/>
		<path class="st0" d="M144.6,59.5c-0.9-2.1-2.2-3.8-4-5c-1.8-1.2-4-1.8-6.7-1.8c-2.6,0-4.8,0.6-6.6,1.8c-1.8,1.2-3.1,2.9-4.1,5
			c-0.9,2.1-1.4,4.6-1.4,7.5c0,2.8,0.5,5.3,1.4,7.4s2.3,3.8,4,5c1.8,1.2,4,1.8,6.7,1.8s4.9-0.6,6.7-1.8c1.8-1.2,3.2-2.9,4.1-5
			c0.9-2.1,1.4-4.6,1.4-7.5C146,64.1,145.5,61.6,144.6,59.5z M138.6,71.4c-0.3,1.4-0.8,2.5-1.5,3.4c-0.7,0.8-1.8,1.3-3.2,1.3
			s-2.4-0.4-3.2-1.3c-0.7-0.8-1.3-2-1.5-3.4c-0.3-1.4-0.4-2.9-0.4-4.5s0.1-3.1,0.4-4.5c0.3-1.4,0.8-2.5,1.5-3.4s1.8-1.3,3.2-1.3
			s2.5,0.4,3.2,1.3s1.2,2,1.5,3.4s0.4,2.9,0.4,4.5S138.9,70,138.6,71.4z"/>
	</g>
	<g>
		<polygon class="st0" points="155.5,71.1 168.8,62.8 168.8,53.2 155.5,61.5 		"/>
		<polygon class="st0" points="182.1,80.6 168.8,72.4 168.8,62.8 182.1,71.1 		"/>
		<polygon class="st0" points="182.1,61.5 168.8,53.2 168.8,36.9 182.1,45.1 		"/>
	</g>
</g>
</svg>
