<?xml version="1.0" encoding="UTF-8" standalone="no"?>
<!DOCTYPE svg PUBLIC "-//W3C//DTD SVG 1.1//EN" "http://www.w3.org/Graphics/SVG/1.1/DTD/svg11.dtd">
<svg width="100%" height="100%" viewBox="0 0 200 130" version="1.1" xmlns="http://www.w3.org/2000/svg" xmlns:xlink="http://www.w3.org/1999/xlink" xml:space="preserve" xmlns:serif="http://www.serif.com/" style="fill-rule:evenodd;clip-rule:evenodd;stroke-linejoin:round;stroke-miterlimit:2;">
    <g transform="matrix(0.82512,0,0,0.82512,55.6856,88.781)">
        <path d="M0,-10.958C0,-10.811 -0.058,-10.681 -0.141,-10.579C-5.388,-3.647 -13.715,0.824 -23.072,0.773C-32.435,0.722 -40.72,-3.829 -45.883,-10.821C-45.972,-10.921 -46.027,-11.051 -46.027,-11.195C-46.027,-11.519 -45.765,-11.782 -45.444,-11.782C-45.266,-11.782 -45.116,-11.701 -45.01,-11.578C-39.536,-5.651 -31.729,-1.913 -23.061,-1.868C-14.391,-1.828 -6.545,-5.48 -1.008,-11.354C-0.906,-11.472 -0.747,-11.545 -0.575,-11.545C-0.256,-11.543 0.005,-11.277 0,-10.958ZM-19.831,-56.031C-19.701,-56.102 -19.562,-56.122 -19.427,-56.09L-19.425,-56.09C-10.802,-55.019 -2.771,-50.043 1.87,-41.908C6.506,-33.777 6.704,-24.328 3.237,-16.363C3.193,-16.234 3.1,-16.122 2.98,-16.045C2.696,-15.883 2.343,-15.984 2.181,-16.258C2.094,-16.412 2.085,-16.586 2.138,-16.745C4.536,-24.443 3.864,-33.071 -0.427,-40.599C-4.725,-48.132 -11.813,-53.097 -19.659,-54.952C-19.819,-54.986 -19.965,-55.085 -20.051,-55.238C-20.209,-55.512 -20.111,-55.872 -19.831,-56.031ZM-48.946,-16.322C-49.074,-16.394 -49.159,-16.508 -49.202,-16.636C-52.589,-24.644 -52.289,-34.088 -47.569,-42.174C-42.846,-50.251 -34.763,-55.146 -26.124,-56.125C-25.992,-56.153 -25.85,-56.131 -25.724,-56.058C-25.446,-55.902 -25.351,-55.542 -25.514,-55.265C-25.598,-55.113 -25.746,-55.016 -25.905,-54.987C-33.773,-53.213 -40.912,-48.317 -45.289,-40.835C-49.66,-33.352 -50.417,-24.73 -48.1,-17C-48.048,-16.85 -48.062,-16.673 -48.151,-16.527C-48.315,-16.249 -48.672,-16.154 -48.946,-16.322ZM-48.272,-12.019L-48.274,-12.023C-48.715,-11.854 -49.225,-12.026 -49.473,-12.446C-49.698,-12.838 -49.626,-13.323 -49.326,-13.63L-49.332,-13.63L-25.38,-41.227L-21.756,-30.724C-22.631,-31.065 -23.642,-31.031 -24.517,-30.522C-24.904,-30.294 -25.236,-29.997 -25.487,-29.652L-34.923,-18.779C-34.991,-18.716 -35.034,-18.621 -35.032,-18.522C-35.028,-18.352 -34.904,-18.21 -34.743,-18.186L-32.473,-17.789L-32.473,-17.785C-32.334,-17.768 -32.201,-17.692 -32.127,-17.561C-31.997,-17.339 -32.075,-17.061 -32.294,-16.932C-32.32,-16.915 -32.342,-16.905 -32.37,-16.896C-32.384,-16.89 -32.396,-16.885 -32.41,-16.885L-48.272,-12.019ZM3.388,-13.691L3.386,-13.69C3.749,-13.39 3.858,-12.862 3.616,-12.438C3.388,-12.05 2.938,-11.866 2.519,-11.972L2.519,-11.967L-33.35,-18.91L-26.068,-27.303C-25.929,-26.375 -25.388,-25.513 -24.516,-25.011C-24.123,-24.788 -23.704,-24.653 -23.278,-24.609L-9.141,-21.872C-9.052,-21.846 -8.954,-21.852 -8.869,-21.907C-8.715,-21.99 -8.659,-22.172 -8.715,-22.325L-9.51,-24.489C-9.561,-24.617 -9.559,-24.772 -9.486,-24.903C-9.363,-25.121 -9.08,-25.198 -8.859,-25.071C-8.834,-25.06 -8.81,-25.042 -8.789,-25.025L-8.787,-25.021C-8.778,-25.011 -8.768,-25.005 -8.76,-24.995L3.388,-13.691ZM-27.612,-41.423L-23.86,-57.594C-23.782,-58.06 -23.408,-58.412 -22.915,-58.416C-22.465,-58.422 -22.082,-58.114 -21.967,-57.7L-21.967,-57.706L-10.044,-23.166L-20.948,-25.276C-20.216,-25.859 -19.74,-26.759 -19.742,-27.771C-19.742,-28.222 -19.842,-28.655 -20.012,-29.041L-24.709,-42.656L-24.711,-42.651C-24.73,-42.744 -24.79,-42.826 -24.881,-42.875C-25.027,-42.955 -25.207,-42.919 -25.317,-42.792L-26.795,-41.033C-26.882,-40.915 -27.012,-40.841 -27.165,-40.841C-27.417,-40.839 -27.626,-41.044 -27.626,-41.297C-27.626,-41.329 -27.626,-41.355 -27.614,-41.381L-27.614,-41.386C-27.614,-41.396 -27.612,-41.409 -27.612,-41.423ZM38.805,-34.728C43.938,-34.728 48.119,-30.539 48.119,-25.409C48.119,-20.279 43.938,-16.099 38.805,-16.099L16.217,-16.099L16.217,-24.275L38.805,-24.275C39.434,-24.275 39.936,-24.786 39.936,-25.409C39.936,-26.032 39.434,-26.545 38.805,-26.545L24.42,-26.545C19.293,-26.545 15.106,-30.729 15.106,-35.858C15.106,-40.99 19.293,-45.176 24.42,-45.176L47.009,-45.176L47.009,-36.995L24.42,-36.995C23.798,-36.995 23.287,-36.485 23.287,-35.858C23.287,-35.235 23.798,-34.728 24.42,-34.728L38.805,-34.728ZM75.265,-16.099L73.219,-20.97L60.426,-20.97L58.38,-16.099L48.118,-16.099L61.694,-45.176L71.952,-45.176L85.52,-16.099L75.265,-16.099ZM63.581,-28.472L70.063,-28.472L66.822,-36.192L63.581,-28.472ZM110.675,-45.171L119.031,-45.171L119.031,-16.099L109.071,-16.094L96.373,-33.372L96.373,-16.099L87.844,-16.099L87.844,-45.171L97.808,-45.171L110.502,-27.905L110.502,-45.165L110.675,-45.165L110.675,-45.171ZM148.734,-45.171L158.882,-45.171L145.196,-26.554L145.196,-16.099L135.048,-16.099L135.048,-26.554L121.358,-45.171L131.51,-45.171L140.119,-33.463L148.734,-45.171Z" style="fill:rgb(124,134,163);"/>
    </g>
</svg>
