<?xml version="1.0" encoding="UTF-8" standalone="no"?>
<!DOCTYPE svg PUBLIC "-//W3C//DTD SVG 1.1//EN" "http://www.w3.org/Graphics/SVG/1.1/DTD/svg11.dtd">
<svg width="100%" height="100%" viewBox="0 0 200 130" version="1.1" xmlns="http://www.w3.org/2000/svg" xmlns:xlink="http://www.w3.org/1999/xlink" xml:space="preserve" xmlns:serif="http://www.serif.com/" style="fill-rule:evenodd;clip-rule:evenodd;stroke-linejoin:round;stroke-miterlimit:2;">
    <g transform="matrix(0.931074,0,0,0.931074,6.89476,4.26997)">
        <g>
            <path d="M22.6,58.4L18.4,58.4L18.4,85.6C18.4,85.9 18.7,86.2 19,86.2L23.2,86.2L23.2,58.9C23.2,58.6 22.9,58.4 22.6,58.4Z" style="fill:rgb(124,134,163);fill-rule:nonzero;"/>
            <path d="M22.6,45.9L18.4,45.9L18.4,50.5C18.4,50.8 18.7,51.1 19,51.1L23.2,51.1L23.2,46.5C23.2,46.2 22.9,45.9 22.6,45.9Z" style="fill:rgb(124,134,163);fill-rule:nonzero;"/>
            <path d="M45.5,58L38.2,58C33.7,58 30.1,61.7 30.1,66.1L30.1,78.4C30.1,82.9 33.7,86.5 38.2,86.5L45.5,86.5C50,86.5 53.7,82.9 53.7,78.4L53.7,66.1C53.7,61.6 50,58 45.5,58ZM48.9,78.6C48.9,80.4 47.4,81.9 45.6,81.9L38.3,81.9C36.5,81.9 35,80.4 35,78.6L35,65.9C35,64.1 36.4,62.6 38.3,62.6L45.6,62.6C47.4,62.6 48.9,64.1 48.9,65.9L48.9,78.6Z" style="fill:rgb(124,134,163);fill-rule:nonzero;"/>
            <path d="M133.2,58.4L111.4,58.4C109.4,58.4 107.8,60 107.8,62L107.8,86.2L112,86.2C112.3,86.2 112.6,85.9 112.6,85.6L112.6,63.4C112.7,63.1 112.9,62.9 113.2,62.9L121.6,62.9C121.9,62.9 122.2,63.2 122.2,63.5L122.2,85.5C122.2,85.8 122.5,86.1 122.8,86.1L127,86.1L127,64.5C127,63.8 126.6,63.3 126,62.9L133.2,62.9C135,62.9 136.5,64.4 136.5,66.2L136.5,85.5C136.5,85.8 136.8,86.1 137.1,86.1L141.3,86.1L141.3,66.5C141.3,62 137.7,58.4 133.2,58.4Z" style="fill:rgb(124,134,163);fill-rule:nonzero;"/>
            <path d="M73.6,81.5L68.6,81.5C66.8,81.5 65.3,80.1 65.3,78.2L65.3,63L73,63L77.6,58.4L66.9,58.4C66.2,58.4 65.6,58.8 65.3,59.4L65.3,45.5C65.3,45.2 65,44.9 64.7,44.9L60.5,44.9L60.5,78C60.5,82.5 64.2,86.1 68.6,86.1L74.2,86.1L74.2,82.1C74.2,81.8 73.9,81.5 73.6,81.5Z" style="fill:rgb(124,134,163);fill-rule:nonzero;"/>
            <path d="M92.9,58.4L84.7,58.4L80.1,63L92.9,63C95.1,63 96.2,64.5 96.2,66.3L96.2,67.7C96.2,68 95.9,68.3 95.6,68.3L86.2,68.3C81.7,68.3 78.1,71.9 78.1,76.4L78.1,78C78.1,82.5 81.7,86.1 86.2,86.1L99.1,86.1C100.1,86.1 100.9,85.3 100.9,84.3L100.9,66.1C101,61.1 97.4,58.4 92.9,58.4ZM96.3,80.8C96.3,81.1 96.1,81.4 95.7,81.4L86.3,81.4C84.5,81.4 83,80 83,78.1L83,76C83,74.2 84.4,72.7 86.3,72.7L94.9,72.7C95.5,72.6 96.1,72.4 96.3,71.9L96.3,80.8Z" style="fill:rgb(124,134,163);fill-rule:nonzero;"/>
        </g>
        <g>
            <path d="M157.2,53.8L154.9,49C154.7,48.6 154.8,48.2 155,47.8L156.8,45.5C157,45.2 157.3,45.1 157.7,45.1L172.1,45.1C172.6,45.1 172.9,44.6 172.7,44.1L169.7,37.8C169.6,37.6 169.4,37.4 169.1,37.4L153,37.4C152.5,37.4 152.2,37.9 152.4,38.4L154.7,43.2C154.9,43.6 154.8,44 154.6,44.4L152.8,46.7C152.6,47 152.3,47.1 151.9,47.1L146.3,47.1C145.8,47.1 145.5,47.6 145.7,48.1L148.7,54.4C148.8,54.6 149,54.8 149.3,54.8L156.6,54.8C157.1,54.8 157.4,54.3 157.2,53.8Z" style="fill:rgb(124,134,163);fill-rule:nonzero;"/>
            <path d="M181.6,55.4L178.6,49.1C178.5,48.9 178.3,48.7 178,48.7L170.7,48.7C170.2,48.7 169.9,49.2 170.1,49.7L172.4,54.5C172.6,54.9 172.5,55.3 172.3,55.7L170.6,57.9C170.4,58.2 170.1,58.3 169.7,58.3L155.3,58.3C154.8,58.3 154.5,58.8 154.7,59.3L157.7,65.6C157.8,65.8 158,66 158.3,66L174.4,66C174.9,66 175.2,65.5 175,65L172.7,60.2C172.5,59.8 172.6,59.4 172.8,59L174.5,56.8C174.7,56.5 175,56.4 175.4,56.4L181,56.4C181.5,56.4 181.8,55.9 181.6,55.4Z" style="fill:rgb(124,134,163);fill-rule:nonzero;"/>
        </g>
    </g>
</svg>
