<?xml version="1.0" encoding="UTF-8" standalone="no"?>
<!DOCTYPE svg PUBLIC "-//W3C//DTD SVG 1.1//EN" "http://www.w3.org/Graphics/SVG/1.1/DTD/svg11.dtd">
<svg width="100%" height="100%" viewBox="0 0 200 130" version="1.1" xmlns="http://www.w3.org/2000/svg" xmlns:xlink="http://www.w3.org/1999/xlink" xml:space="preserve" xmlns:serif="http://www.serif.com/" style="fill-rule:evenodd;clip-rule:evenodd;stroke-linejoin:round;stroke-miterlimit:2;">
    <g transform="matrix(1.31693,0,0,1.31693,-67.9861,-28.3254)">
        <path d="M55.163,60.525L55.163,60.495C55.163,57.559 57.318,54.96 60.529,54.96C62.333,54.96 63.449,55.481 64.519,56.383L63.74,57.299C62.914,56.581 61.997,56.076 60.483,56.076C58.113,56.076 56.416,58.08 56.416,60.463L56.416,60.495C56.416,63.047 58.052,64.943 60.651,64.943C61.875,64.943 63.006,64.47 63.74,63.873L63.74,61.212L60.483,61.212L60.483,60.129L64.902,60.129L64.902,64.393C63.908,65.28 62.41,66.029 60.605,66.029C57.242,66.029 55.163,63.583 55.163,60.525ZM68.386,55.143L72.988,55.143C74.303,55.143 75.359,55.54 76.031,56.214C76.551,56.734 76.856,57.482 76.856,58.324L76.856,58.354C76.856,60.128 75.633,61.167 73.951,61.473L77.238,65.845L75.755,65.845L72.652,61.687L69.594,61.687L69.594,65.845L68.386,65.845L68.386,55.143ZM72.881,60.602C74.486,60.602 75.633,59.776 75.633,58.401L75.633,58.37C75.633,57.054 74.624,56.259 72.897,56.259L69.594,56.259L69.594,60.602L72.881,60.602ZM84.163,55.067L85.294,55.067L90.171,65.845L88.872,65.845L87.619,63.017L81.793,63.017L80.524,65.845L79.286,65.845L84.163,55.067ZM87.144,61.931L84.714,56.473L82.267,61.931L87.144,61.931ZM93.045,55.143L94.176,55.143L100.918,63.721L100.918,55.143L102.095,55.143L102.095,65.845L101.132,65.845L94.222,57.07L94.222,65.845L93.045,65.845L93.045,55.143ZM105.886,55.143L109.602,55.143C112.966,55.143 115.289,57.452 115.289,60.463L115.289,60.495C115.289,63.505 112.966,65.845 109.602,65.845L105.886,65.845L105.886,55.143ZM109.602,64.729C112.308,64.729 114.036,62.895 114.036,60.525L114.036,60.495C114.036,58.125 112.308,56.259 109.602,56.259L107.095,56.259L107.095,64.729L109.602,64.729ZM136.706,55.143L137.929,55.143L141.827,60.983L145.726,55.143L146.949,55.143L146.949,65.845L145.741,65.845L145.741,57.177L141.842,62.91L141.781,62.91L137.883,57.192L137.883,65.845L136.706,65.845L136.706,55.143ZM154.701,55.067L155.83,55.067L160.707,65.845L159.41,65.845L158.155,63.017L152.329,63.017L151.062,65.845L149.823,65.845L154.701,55.067ZM157.681,61.931L155.251,56.473L152.804,61.931L157.681,61.931ZM162.816,55.143L167.417,55.143C168.733,55.143 169.789,55.54 170.461,56.214C170.98,56.734 171.287,57.482 171.287,58.324L171.287,58.354C171.287,60.128 170.064,61.167 168.381,61.473L171.669,65.845L170.186,65.845L167.082,61.687L164.025,61.687L164.025,65.845L162.816,65.845L162.816,55.143ZM167.312,60.602C168.916,60.602 170.064,59.776 170.064,58.401L170.064,58.37C170.064,57.054 169.053,56.259 167.327,56.259L164.025,56.259L164.025,60.602L167.312,60.602ZM175.185,55.143L175.185,65.845L173.977,65.845L173.977,55.143L175.185,55.143ZM178.318,55.143L179.449,55.143L186.192,63.721L186.192,55.143L187.37,55.143L187.37,65.845L186.406,65.845L179.495,57.07L179.495,65.845L178.318,65.845L178.318,55.143ZM194.356,55.067L195.487,55.067L200.364,65.845L199.066,65.845L197.811,63.017L191.985,63.017L190.717,65.845L189.478,65.845L194.356,55.067ZM197.337,61.931L194.906,56.473L192.46,61.931L197.337,61.931ZM136.923,70.367L201.418,70.367L201.418,70.846L136.923,70.846L136.923,70.367ZM53.7,70.482L111.789,70.482L111.789,70.96L53.7,70.96L53.7,70.482ZM74.114,84.106C74.399,83.962 74.649,83.859 74.864,83.797C74.919,83.765 74.956,83.719 74.972,83.664C74.989,83.606 74.997,83.387 74.997,83.011C74.997,82.959 74.992,82.857 74.981,82.71L74.981,82.611L74.985,81.727L74.981,81.102L74.989,80.918L74.989,80.752C74.989,80.71 74.994,80.649 75.006,80.565L74.981,80.382L74.986,80.335C74.994,80.289 74.997,80.234 74.997,80.17C74.997,79.876 74.974,79.657 74.931,79.515C74.828,79.439 74.662,79.372 74.43,79.312C74.301,79.28 74.2,79.241 74.131,79.199L74.16,78.945C74.207,78.94 74.256,78.935 74.306,78.935C74.531,78.935 74.741,78.948 74.936,78.973C75.13,78.998 75.4,79.011 75.745,79.011L76.171,78.99C76.38,78.988 76.541,78.979 76.655,78.965C76.738,78.957 76.796,78.953 76.83,78.953C76.866,78.953 76.906,78.955 76.951,78.957C76.96,78.984 76.964,79.014 76.964,79.047C76.964,79.128 76.96,79.19 76.951,79.227C76.776,79.293 76.608,79.337 76.447,79.366C76.286,79.392 76.195,79.418 76.172,79.442C76.136,79.473 76.118,79.523 76.118,79.591L76.118,79.916C76.118,79.96 76.12,80.037 76.127,80.143C76.132,80.306 76.135,80.42 76.135,80.485C76.135,80.527 76.132,80.62 76.127,80.764L76.127,81.082L76.118,81.382C76.118,81.397 76.119,81.416 76.122,81.442C76.322,81.269 76.589,81.008 76.922,80.663C77.077,80.498 77.201,80.373 77.293,80.286C77.329,80.25 77.524,80.044 77.88,79.669C77.994,79.513 78.055,79.423 78.064,79.398L78.03,79.369C77.858,79.337 77.729,79.319 77.643,79.313C77.584,79.311 77.489,79.291 77.36,79.253C77.354,79.209 77.351,79.128 77.351,79.01L77.355,78.957L77.539,78.957C77.628,78.957 77.745,78.963 77.891,78.976C78.036,78.988 78.149,78.995 78.226,78.995L79.23,78.978C79.388,78.96 79.563,78.946 79.755,78.932L79.75,79.256C79.704,79.268 79.612,79.288 79.476,79.316C79.142,79.421 78.917,79.504 78.801,79.562C78.684,79.621 78.568,79.698 78.451,79.792C78.334,79.884 78.118,80.077 77.805,80.37C77.38,80.764 77.126,81.007 77.043,81.098C77.096,81.16 77.159,81.23 77.235,81.311L77.372,81.452C77.397,81.479 77.427,81.515 77.464,81.557L78.346,82.577L79.08,83.489C79.164,83.595 79.22,83.666 79.251,83.702L79.317,83.777C79.364,83.839 79.398,83.874 79.418,83.885C79.443,83.902 79.499,83.923 79.589,83.949C79.635,83.959 79.753,84.008 79.942,84.094C79.948,84.144 79.951,84.182 79.951,84.21C79.951,84.244 79.945,84.294 79.934,84.365L79.476,84.356C79.423,84.347 79.338,84.341 79.221,84.335L78.814,84.315L78.726,84.318L78.151,84.315C78.095,84.315 77.941,84.323 77.688,84.341C77.555,84.351 77.467,84.356 77.422,84.356C77.4,84.356 77.366,84.354 77.322,84.352C77.308,84.308 77.302,84.273 77.302,84.247C77.302,84.212 77.307,84.163 77.318,84.098C77.44,84.056 77.564,84.022 77.688,83.995C77.783,83.977 77.846,83.954 77.876,83.923C77.906,83.892 77.922,83.859 77.922,83.823C77.922,83.797 77.917,83.777 77.908,83.76C77.885,83.697 77.841,83.626 77.78,83.547C77.758,83.523 77.56,83.299 77.188,82.875L76.13,81.689C76.119,81.789 76.114,81.902 76.114,82.027C76.114,82.201 76.119,82.349 76.13,82.471C76.133,82.496 76.137,82.676 76.143,83.015L76.135,83.395L76.152,83.806C76.229,83.876 76.368,83.937 76.568,83.99C76.685,84.019 76.79,84.063 76.885,84.122C76.893,84.176 76.897,84.217 76.897,84.245C76.897,84.266 76.894,84.301 76.888,84.347C76.758,84.354 76.656,84.356 76.584,84.356C76.507,84.356 76.441,84.356 76.387,84.352L75.795,84.326C75.714,84.321 75.636,84.318 75.558,84.318C75.477,84.318 75.375,84.323 75.253,84.331L74.515,84.328C74.484,84.328 74.351,84.331 74.118,84.339L74.114,84.106ZM82.573,84.365L82.573,84.064C82.629,84.049 82.719,84.025 82.846,83.995C83.026,83.95 83.16,83.904 83.248,83.857C83.299,83.771 83.324,83.651 83.324,83.498L83.319,83.008L83.327,82.056L83.324,81.832C83.345,81.282 83.357,80.999 83.357,80.981L83.349,80.428L83.361,80.203L83.34,79.728L83.332,79.549C83.329,79.521 83.319,79.476 83.302,79.416C83.189,79.361 83.004,79.33 82.748,79.314C82.687,79.312 82.639,79.308 82.602,79.303L82.594,78.935L83.785,78.987C83.932,78.992 84.024,78.995 84.06,78.995C84.224,78.995 84.486,78.984 84.847,78.961C85.051,78.947 85.177,78.94 85.231,78.935C85.234,78.99 85.236,79.033 85.236,79.069C85.236,79.116 85.232,79.178 85.226,79.254C85.115,79.293 84.988,79.328 84.845,79.363C84.703,79.398 84.586,79.434 84.493,79.47C84.477,79.542 84.469,79.646 84.469,79.782C84.469,79.901 84.473,79.999 84.481,80.073C84.473,80.543 84.469,80.904 84.469,81.157L84.473,82.258L84.452,82.815L84.469,83.648L84.456,83.806C84.456,83.829 84.465,83.861 84.481,83.902C84.65,83.938 84.803,83.964 84.941,83.977C84.966,83.98 85.051,83.991 85.194,84.011C85.205,84.094 85.211,84.163 85.211,84.219C85.211,84.249 85.209,84.297 85.207,84.361C85.171,84.361 85.142,84.362 85.124,84.365C85.034,84.37 84.983,84.373 84.969,84.373C84.949,84.373 84.914,84.368 84.861,84.361C84.823,84.354 84.638,84.336 84.308,84.303L83.572,84.294C83.425,84.294 83.211,84.308 82.931,84.336C82.748,84.352 82.629,84.362 82.573,84.365ZM88.215,79.298L88.199,79.006L88.553,79.006L88.673,79.002C88.84,78.994 88.955,78.989 89.02,78.989C89.053,78.989 89.15,78.992 89.312,78.997C89.347,79.001 89.378,79.002 89.402,79.002C89.427,79.002 89.516,79 89.665,78.994C89.816,78.989 89.9,78.986 89.92,78.986C89.95,78.986 89.993,78.987 90.049,78.989C90.476,79.379 90.825,79.714 91.094,79.993C91.364,80.275 92.347,81.256 94.044,82.94L94.044,82.834L94.027,82.351C94.019,82.069 94.008,81.844 93.994,81.68C93.981,81.514 93.972,81.317 93.969,81.086C93.966,80.859 93.957,80.651 93.94,80.465C93.907,80.101 93.889,79.891 93.889,79.836C93.887,79.655 93.867,79.546 93.831,79.506C93.773,79.446 93.64,79.4 93.431,79.368C93.279,79.344 93.165,79.312 93.09,79.273L93.093,79.027L93.202,79.015L94.023,78.989L94.94,78.965C95.001,78.961 95.059,78.96 95.115,78.96L95.119,79.232C95.055,79.266 94.989,79.29 94.923,79.306C94.745,79.348 94.643,79.377 94.614,79.394C94.473,79.475 94.397,79.523 94.385,79.539C94.361,79.572 94.348,79.624 94.348,79.694C94.348,79.71 94.351,79.769 94.356,79.87C94.359,79.92 94.361,80.035 94.361,80.22C94.363,80.622 94.374,80.94 94.394,81.172C94.399,81.247 94.403,81.332 94.406,81.426L94.452,82.89C94.455,82.992 94.456,83.065 94.456,83.107L94.456,83.618L94.469,83.835L94.456,84.061C94.467,84.175 94.473,84.241 94.473,84.263L94.473,84.485L93.994,84.501L93.498,83.989L92.486,82.986L91.778,82.277L91.257,81.743C90.918,81.41 90.61,81.116 90.332,80.864L89.653,80.252L89.69,81.802C89.693,81.897 89.694,81.993 89.694,82.093L89.69,82.388L89.715,82.934C89.724,83.163 89.738,83.41 89.761,83.677C89.767,83.749 89.774,83.799 89.782,83.828C89.79,83.857 89.807,83.901 89.832,83.956C89.941,83.995 90.176,84.025 90.54,84.044C90.565,84.049 90.601,84.058 90.648,84.072L90.666,84.41L90.503,84.414C90.414,84.414 90.133,84.393 89.661,84.352C89.219,84.359 88.925,84.365 88.778,84.377C88.63,84.388 88.55,84.393 88.537,84.393C88.503,84.393 88.457,84.388 88.398,84.377C88.393,84.313 88.391,84.257 88.391,84.21C88.391,84.18 88.392,84.13 88.395,84.061C88.472,84.047 88.537,84.039 88.587,84.039C88.603,84.039 88.657,84.043 88.748,84.048C88.982,84.048 89.12,84.03 89.163,83.995C89.207,83.961 89.231,83.867 89.236,83.715C89.256,83.273 89.265,83.004 89.265,82.906L89.265,82.676L89.274,81.321L89.261,80.478C89.258,80.155 89.238,79.932 89.199,79.806C89.182,79.742 89.15,79.688 89.103,79.64C89.006,79.539 88.897,79.465 88.778,79.415C88.706,79.385 88.518,79.345 88.215,79.298ZM98.086,79.319L98.074,78.99C98.124,78.988 98.175,78.987 98.229,78.987C98.368,78.987 98.514,78.99 98.667,78.998C99.034,79.018 99.249,79.028 99.314,79.028C99.536,79.028 99.753,79.024 99.966,79.014C100.179,79.006 100.368,79.001 100.534,78.998C100.699,78.996 100.811,78.993 100.869,78.99L100.866,79.04L100.874,79.282L100.874,79.314C100.718,79.338 100.557,79.348 100.391,79.348C100.235,79.348 100.132,79.38 100.082,79.44C100.048,79.479 100.032,79.644 100.032,79.936C100.032,80.025 100.033,80.096 100.036,80.153L100.041,80.303L100.032,80.695L100.057,81.029L100.041,81.749L100.095,82.794C100.108,83.096 100.175,83.348 100.295,83.548C100.384,83.695 100.509,83.81 100.67,83.894C100.903,84.011 101.132,84.069 101.357,84.069C101.624,84.069 101.872,84.033 102.103,83.965C102.238,83.925 102.367,83.863 102.488,83.776C102.609,83.688 102.693,83.609 102.74,83.536C102.84,83.381 102.91,83.24 102.948,83.107C103.001,82.923 103.027,82.638 103.027,82.253C103.027,81.581 102.991,80.825 102.919,79.982L102.903,79.76C102.895,79.597 102.864,79.487 102.811,79.431C102.722,79.345 102.622,79.303 102.511,79.303L102.119,79.311L102.065,79.298L102.074,78.978L102.403,78.978L103.199,79.015C103.465,79.015 103.72,79.003 103.961,78.978L104.032,78.987C104.048,79.078 104.057,79.141 104.057,79.177C104.057,79.209 104.051,79.246 104.04,79.291C103.938,79.318 103.829,79.336 103.715,79.34C103.529,79.366 103.426,79.386 103.407,79.403C103.368,79.436 103.348,79.487 103.348,79.557C103.348,79.607 103.352,79.679 103.361,79.774C103.369,79.842 103.373,79.964 103.373,80.137C103.373,80.234 103.375,80.31 103.376,80.366C103.377,80.421 103.378,80.478 103.382,80.538C103.39,80.737 103.397,80.94 103.403,81.146L103.444,81.993C103.444,82.56 103.424,82.938 103.386,83.131C103.347,83.322 103.295,83.473 103.228,83.585C103.125,83.751 102.979,83.905 102.79,84.046C102.601,84.185 102.365,84.298 102.082,84.38C101.798,84.462 101.468,84.502 101.09,84.502C100.66,84.502 100.291,84.444 99.982,84.329C99.673,84.214 99.441,84.063 99.285,83.876C99.128,83.688 99.019,83.444 98.961,83.144C98.92,82.938 98.899,82.644 98.899,82.26L98.899,80.273C98.899,79.804 98.876,79.539 98.833,79.478C98.772,79.392 98.581,79.343 98.262,79.332C98.192,79.332 98.134,79.327 98.086,79.319ZM107.242,84.347C107.242,84.263 107.251,84.166 107.267,84.051L107.793,83.961C107.858,83.947 107.934,83.925 108.025,83.894L108.079,82.852C108.069,82.477 108.063,82.197 108.063,82.011L108.067,81.909C108.075,81.797 108.079,81.51 108.079,81.052L108.069,80.931L108.079,80.581L108.071,80.22L108.071,80.04C108.071,79.878 108.059,79.69 108.035,79.473C108.033,79.453 108.022,79.42 108.004,79.373C107.981,79.366 107.956,79.359 107.93,79.356C107.903,79.354 107.876,79.35 107.848,79.344C107.739,79.325 107.622,79.311 107.499,79.303L107.435,79.285C107.361,79.277 107.302,79.267 107.263,79.253C107.255,79.172 107.251,79.12 107.251,79.099C107.251,79.065 107.258,79.019 107.276,78.96C107.331,78.951 107.409,78.945 107.51,78.945C107.609,78.945 107.679,78.943 107.718,78.94C108.057,78.977 108.309,78.995 108.473,78.997C108.548,78.997 108.623,79 108.7,79.005C108.777,79.009 108.844,79.011 108.903,79.011C108.994,79.011 109.218,78.997 109.574,78.969C109.633,78.955 109.697,78.948 109.766,78.948C109.869,78.948 109.955,78.954 110.025,78.965C110.027,79.024 110.03,79.065 110.03,79.089C110.03,79.135 110.024,79.188 110.013,79.253L109.275,79.368C109.217,79.398 109.188,79.437 109.188,79.49L109.197,79.644L109.2,79.71L109.197,79.894L109.192,80.035L109.192,80.069C109.197,80.099 109.2,80.125 109.2,80.149L109.192,80.677C109.197,80.727 109.2,80.764 109.2,80.788C109.2,80.803 109.199,80.849 109.195,80.924C109.193,80.967 109.192,81.013 109.192,81.06C109.192,81.102 109.195,81.201 109.2,81.356C109.278,81.37 109.343,81.378 109.396,81.381L110.012,81.395L110.311,81.395L111.06,81.398L111.788,81.376C111.882,81.376 111.982,81.368 112.087,81.347C112.093,81.253 112.096,81.022 112.1,80.652L112.108,80.465L112.083,79.756L112.054,79.465C112.046,79.447 112.026,79.428 111.996,79.41C111.899,79.356 111.704,79.293 111.413,79.223C111.359,79.212 111.309,79.199 111.262,79.181C111.268,79.085 111.28,79.005 111.296,78.945C111.357,78.942 111.394,78.94 111.408,78.94L111.811,78.945C112.069,78.978 112.331,78.994 112.597,78.994C112.659,78.994 112.707,78.993 112.743,78.99L113.284,78.973C113.334,78.971 113.382,78.968 113.429,78.965C113.529,78.943 113.633,78.932 113.738,78.932C113.818,78.932 113.915,78.935 114.029,78.945C114.026,79.052 114.019,79.151 114.008,79.241C113.754,79.293 113.588,79.331 113.509,79.354C113.429,79.377 113.35,79.41 113.27,79.452L113.245,79.535L113.245,79.607L113.249,79.715L113.244,79.769C113.236,79.827 113.233,79.872 113.233,79.902L113.233,80.006C113.239,80.131 113.242,80.201 113.242,80.215L113.242,80.744L113.245,81.144L113.234,81.672C113.23,81.795 113.235,82.045 113.249,82.423L113.249,83.014L113.258,83.506C113.258,83.598 113.255,83.708 113.249,83.839C113.307,83.857 113.361,83.869 113.411,83.881C113.671,83.937 113.867,83.994 113.999,84.051L114.012,84.343C113.9,84.346 113.836,84.347 113.817,84.347C113.684,84.347 113.531,84.339 113.359,84.323C113.132,84.297 112.765,84.285 112.261,84.285C112.034,84.285 111.739,84.304 111.379,84.339C111.34,84.339 111.293,84.33 111.237,84.315C111.24,84.186 111.247,84.097 111.258,84.044L111.579,83.968L111.916,83.914C111.95,83.907 111.993,83.894 112.046,83.877C112.076,83.652 112.093,83.278 112.095,82.756L112.1,82.401C112.083,82.255 112.075,82.078 112.075,81.873C111.972,81.866 111.861,81.86 111.742,81.857L109.812,81.836L109.775,81.831L109.745,81.826C109.726,81.826 109.703,81.829 109.679,81.831C109.606,81.834 109.545,81.836 109.495,81.836L109.379,81.836C109.326,81.836 109.266,81.845 109.2,81.866L109.179,82.178L109.179,82.232C109.185,82.307 109.188,82.355 109.188,82.377L109.188,83.668C109.188,83.742 109.192,83.815 109.2,83.89L109.238,83.914L109.853,84.011C109.885,84.022 109.908,84.028 109.925,84.031C109.961,84.039 109.992,84.051 110.016,84.069C110.025,84.132 110.03,84.176 110.03,84.198C110.03,84.234 110.024,84.285 110.013,84.347C109.912,84.351 109.827,84.352 109.758,84.352C109.697,84.352 109.64,84.351 109.587,84.347C109.562,84.347 109.538,84.346 109.516,84.343L108.928,84.318C108.788,84.304 108.594,84.297 108.344,84.297L108.256,84.302C108.139,84.308 108.071,84.312 108.052,84.315C107.879,84.337 107.609,84.347 107.242,84.347ZM121.46,78.998C121.535,78.977 121.709,78.966 121.981,78.966L122.022,78.974C122.092,78.985 122.141,78.99 122.168,78.99L122.21,78.987C122.252,78.992 122.365,79.002 122.552,79.016C122.896,79.04 123.17,79.053 123.372,79.053C123.595,79.053 123.813,79.038 124.027,79.007C124.057,79.002 124.079,78.998 124.093,78.998L124.127,79.003C124.14,79.04 124.147,79.066 124.147,79.087L124.143,79.304C124.079,79.327 124.003,79.349 123.914,79.361L123.727,79.394C123.657,79.408 123.564,79.424 123.447,79.44L123.422,79.457L123.414,79.512C123.505,79.709 123.7,80.016 123.997,80.433C124.076,80.565 124.153,80.689 124.231,80.807C124.253,80.837 124.332,80.967 124.468,81.194C124.482,81.22 124.498,81.244 124.514,81.269C124.539,81.309 124.564,81.346 124.588,81.382C124.636,81.451 124.667,81.497 124.681,81.52C124.736,81.608 124.784,81.677 124.822,81.723L125.256,81.115C125.397,80.932 125.582,80.665 125.81,80.315L125.826,80.294L126.181,79.666C126.236,79.585 126.264,79.525 126.264,79.486C126.264,79.474 126.259,79.449 126.251,79.416C126.209,79.388 126.174,79.371 126.147,79.366C126.136,79.359 126.077,79.354 125.972,79.349C125.914,79.338 125.858,79.327 125.805,79.319C125.753,79.311 125.71,79.304 125.676,79.295C125.67,79.259 125.663,79.155 125.651,78.987L126.505,79.032C126.53,79.035 126.565,79.04 126.609,79.05L126.81,79.05L126.88,79.045C126.969,79.031 127.084,79.019 127.226,79.012C127.268,79.009 127.308,79.005 127.347,78.998L127.343,79.311L127.288,79.327C127.055,79.367 126.896,79.418 126.81,79.481C126.684,79.576 126.516,79.805 126.305,80.166L125.763,80.977C125.438,81.419 125.229,81.72 125.134,81.882C125.109,81.921 125.088,81.97 125.072,82.028L125.072,82.156L125.068,82.519L125.068,82.619C125.06,82.692 125.056,82.767 125.056,82.846L125.072,83.912C125.084,83.933 125.098,83.949 125.118,83.957C125.157,83.968 125.245,83.981 125.384,83.999C125.651,84.026 125.8,84.05 125.831,84.069C125.852,84.083 125.864,84.111 125.864,84.152C125.864,84.178 125.86,84.211 125.856,84.252C125.856,84.278 125.854,84.316 125.851,84.368L125.372,84.361L124.926,84.323L124.618,84.303L124.155,84.318L123.809,84.318C123.77,84.316 123.708,84.321 123.622,84.336C123.483,84.359 123.379,84.368 123.31,84.368L123.022,84.365C123.02,84.307 123.018,84.263 123.018,84.231C123.018,84.2 123.02,84.155 123.022,84.095L123.789,83.935C123.822,83.926 123.854,83.912 123.885,83.894C123.887,83.767 123.889,83.687 123.889,83.656C123.889,83.231 123.886,82.942 123.88,82.788C123.875,82.634 123.872,82.545 123.872,82.519L123.872,82.424C123.872,82.248 123.781,82.048 123.597,81.818C123.519,81.723 123.471,81.659 123.451,81.628L122.635,80.386L122.252,79.769C122.237,79.747 122.152,79.634 121.993,79.429C121.942,79.385 121.894,79.353 121.847,79.338C121.819,79.325 121.693,79.296 121.468,79.249C121.455,79.224 121.448,79.201 121.448,79.182C121.448,79.165 121.449,79.144 121.452,79.116C121.455,79.092 121.457,79.052 121.46,78.998ZM129.923,79.319L129.91,78.99C129.96,78.988 130.013,78.987 130.065,78.987C130.204,78.987 130.351,78.99 130.503,78.998C130.87,79.018 131.085,79.028 131.151,79.028C131.372,79.028 131.59,79.024 131.803,79.014C132.016,79.006 132.205,79.001 132.37,78.998C132.535,78.996 132.648,78.993 132.706,78.99L132.702,79.04L132.71,79.282L132.71,79.314C132.556,79.338 132.394,79.348 132.227,79.348C132.071,79.348 131.969,79.38 131.919,79.44C131.885,79.479 131.869,79.644 131.869,79.936C131.869,80.025 131.87,80.096 131.872,80.153L131.877,80.303L131.869,80.695L131.894,81.029L131.877,81.749L131.931,82.794C131.945,83.096 132.012,83.348 132.131,83.548C132.22,83.695 132.345,83.81 132.506,83.894C132.739,84.011 132.969,84.069 133.194,84.069C133.46,84.069 133.709,84.033 133.94,83.965C134.075,83.925 134.204,83.863 134.324,83.776C134.444,83.688 134.529,83.609 134.577,83.536C134.677,83.381 134.746,83.24 134.785,83.107C134.838,82.923 134.863,82.638 134.863,82.253C134.863,81.581 134.828,80.825 134.757,79.982L134.738,79.76C134.731,79.597 134.7,79.487 134.649,79.431C134.559,79.345 134.459,79.303 134.348,79.303L133.957,79.311L133.902,79.298L133.91,78.978L134.239,78.978L135.035,79.015C135.302,79.015 135.556,79.003 135.797,78.978L135.869,78.987C135.885,79.078 135.894,79.141 135.894,79.177C135.894,79.209 135.888,79.246 135.877,79.291C135.774,79.318 135.665,79.336 135.551,79.34C135.365,79.366 135.262,79.386 135.243,79.403C135.204,79.436 135.185,79.487 135.185,79.557C135.185,79.607 135.19,79.679 135.197,79.774C135.206,79.842 135.21,79.964 135.21,80.137C135.21,80.234 135.21,80.31 135.212,80.366C135.214,80.421 135.215,80.478 135.219,80.538C135.227,80.737 135.234,80.94 135.239,81.146L135.281,81.993C135.281,82.56 135.262,82.938 135.222,83.131C135.184,83.322 135.13,83.473 135.065,83.585C134.961,83.751 134.816,83.905 134.627,84.046C134.438,84.185 134.202,84.298 133.918,84.38C133.635,84.462 133.305,84.502 132.927,84.502C132.497,84.502 132.127,84.444 131.819,84.329C131.51,84.214 131.277,84.063 131.121,83.876C130.965,83.688 130.857,83.444 130.798,83.144C130.756,82.938 130.735,82.644 130.735,82.26L130.735,80.273C130.735,79.804 130.713,79.539 130.669,79.478C130.609,79.392 130.417,79.343 130.099,79.332C130.028,79.332 129.97,79.327 129.923,79.319ZM143.932,79.056C143.967,79.14 144.041,79.377 144.152,79.769C144.203,79.947 144.229,80.137 144.232,80.335L143.852,80.335C143.585,79.958 143.311,79.687 143.027,79.521C142.745,79.356 142.428,79.273 142.078,79.273C141.648,79.273 141.3,79.442 141.036,79.778C140.678,80.234 140.499,80.868 140.499,81.681C140.499,82.155 140.53,82.49 140.59,82.689C140.69,83.014 140.817,83.28 140.969,83.485C141.086,83.64 141.238,83.765 141.427,83.857C141.672,83.981 141.933,84.044 142.211,84.044C142.516,84.044 142.812,83.95 143.097,83.759C143.381,83.57 143.654,83.287 143.915,82.91C144.018,82.89 144.152,82.88 144.319,82.878C144.308,82.982 144.289,83.091 144.265,83.206C144.257,83.249 144.224,83.425 144.169,83.733L144.132,83.857L144.074,84.051C143.904,84.182 143.666,84.281 143.359,84.346C143.052,84.411 142.674,84.444 142.227,84.444C141.886,84.444 141.563,84.411 141.259,84.347C140.954,84.285 140.694,84.182 140.478,84.044C140.161,83.844 139.912,83.627 139.732,83.394C139.551,83.161 139.417,82.907 139.33,82.63C139.243,82.357 139.2,82.048 139.2,81.705C139.2,80.879 139.472,80.195 140.017,79.657C140.563,79.118 141.259,78.848 142.107,78.848C142.451,78.848 142.776,78.866 143.079,78.901C143.384,78.935 143.667,78.988 143.932,79.056ZM147.041,84.361L147.049,84.078C147.103,84.061 147.195,84.04 147.327,84.014C147.543,83.973 147.672,83.935 147.717,83.902C147.763,83.869 147.82,83.79 147.887,83.661L148.728,81.457L149.714,78.87L150.167,78.87L150.205,78.945L150.93,80.661C151.092,81.025 151.24,81.378 151.37,81.721C151.5,82.064 151.613,82.344 151.707,82.561C151.764,82.692 151.839,82.887 151.937,83.147C151.986,83.29 152.062,83.467 152.165,83.682C152.22,83.797 152.263,83.866 152.291,83.885C152.341,83.925 152.422,83.955 152.533,83.968C152.646,83.982 152.768,84.014 152.898,84.064C152.912,84.157 152.919,84.225 152.919,84.268C152.919,84.288 152.918,84.318 152.915,84.361C152.71,84.361 152.483,84.351 152.235,84.331C151.988,84.312 151.767,84.302 151.569,84.302C151.35,84.302 151.192,84.304 151.094,84.311L150.386,84.347L150.183,84.356C150.183,84.26 150.186,84.166 150.194,84.078L150.657,83.977C150.796,83.941 150.876,83.914 150.898,83.894C150.927,83.866 150.94,83.833 150.94,83.797C150.94,83.761 150.934,83.724 150.919,83.685L150.754,83.277L150.427,82.461L148.837,82.456C148.778,82.59 148.655,82.915 148.47,83.435C148.417,83.582 148.391,83.683 148.391,83.735C148.391,83.808 148.41,83.859 148.448,83.89C148.513,83.942 148.635,83.98 148.815,84.001C148.841,84.008 148.939,84.023 149.111,84.048C149.114,84.148 149.116,84.216 149.116,84.256C149.116,84.288 149.113,84.318 149.107,84.352C148.936,84.352 148.524,84.329 147.874,84.281L147.703,84.311C147.498,84.343 147.302,84.361 147.115,84.361L147.041,84.361ZM149,82.019C149.649,82.028 150.033,82.031 150.149,82.031L150.253,82.028C150.17,81.781 150.062,81.492 149.928,81.163C149.795,80.832 149.687,80.582 149.603,80.411L149,82.019ZM155.755,78.736L156.013,78.736C156.032,78.766 156.046,78.79 156.054,78.803C156.132,78.938 156.192,79.027 156.233,79.069C156.27,79.078 156.46,79.082 156.804,79.082C157.018,79.082 157.208,79.081 157.374,79.079L157.457,79.069L157.962,79.065L158.903,79.069L160.191,79.069L160.438,79.035C160.472,79.01 160.512,78.943 160.553,78.834C160.565,78.807 160.579,78.773 160.6,78.728L160.782,78.723C160.81,78.723 160.852,78.725 160.907,78.728C160.91,78.92 160.912,79.209 160.912,79.593L160.916,79.965L160.912,80.177C160.912,80.25 160.905,80.312 160.895,80.365C160.781,80.402 160.682,80.423 160.594,80.432C160.524,80.323 160.443,80.167 160.359,79.961C160.275,79.756 160.221,79.642 160.198,79.62C160.164,79.584 160.126,79.56 160.082,79.548C160.015,79.535 159.72,79.528 159.195,79.528C159.118,79.528 159.021,79.534 158.903,79.545C158.89,79.653 158.883,79.742 158.883,79.811L158.886,80.37L158.886,81.594L158.901,82.915L158.896,83.457C158.896,83.648 158.912,83.793 158.945,83.89C158.989,83.909 159.072,83.925 159.193,83.944C159.215,83.947 159.318,83.968 159.502,84.011C159.586,84.03 159.66,84.051 159.724,84.078C159.738,84.177 159.744,84.237 159.744,84.261C159.744,84.286 159.741,84.321 159.734,84.368C159.671,84.371 159.621,84.373 159.583,84.373C159.296,84.373 159.054,84.362 158.854,84.341C158.653,84.321 158.291,84.311 157.767,84.311C157.683,84.311 157.439,84.328 157.032,84.361C156.874,84.371 156.773,84.378 156.725,84.378C156.722,84.336 156.719,84.304 156.716,84.281L156.712,84.185L156.712,84.152C156.774,84.072 156.888,84.012 157.058,83.973C157.347,83.904 157.547,83.841 157.658,83.785C157.686,83.733 157.703,83.664 157.708,83.578C157.727,83.245 157.737,82.713 157.737,81.985L157.716,80.411C157.716,79.977 157.708,79.715 157.691,79.623C157.686,79.598 157.676,79.58 157.661,79.567C157.649,79.554 157.628,79.548 157.604,79.545C157.518,79.534 157.237,79.528 156.762,79.528C156.501,79.528 156.326,79.552 156.237,79.602C156.117,79.672 155.939,79.861 155.7,80.171C155.63,80.258 155.579,80.303 155.546,80.303C155.418,80.236 155.336,80.181 155.3,80.14C155.386,79.96 155.506,79.598 155.658,79.056C155.702,78.898 155.734,78.792 155.755,78.736ZM166.087,78.579C166.174,78.271 166.316,77.827 166.513,77.241L167.654,77.249L166.4,78.586C166.297,78.59 166.236,78.591 166.216,78.591C166.178,78.591 166.136,78.586 166.087,78.579ZM163.626,84.361L163.634,84.078C163.686,84.061 163.779,84.04 163.913,84.015C164.127,83.974 164.257,83.935 164.303,83.902C164.349,83.869 164.404,83.79 164.471,83.661L165.312,81.458L166.299,78.87L166.752,78.87L166.79,78.945L167.515,80.661C167.678,81.025 167.825,81.379 167.955,81.722C168.085,82.064 168.197,82.345 168.292,82.561C168.348,82.692 168.424,82.888 168.522,83.147C168.57,83.29 168.647,83.468 168.75,83.683C168.806,83.798 168.848,83.866 168.875,83.886C168.925,83.926 169.006,83.955 169.118,83.969C169.231,83.982 169.352,84.015 169.483,84.064C169.497,84.157 169.504,84.225 169.504,84.268C169.504,84.288 169.502,84.318 169.499,84.361C169.294,84.361 169.067,84.351 168.82,84.331C168.574,84.312 168.352,84.303 168.153,84.303C167.934,84.303 167.776,84.305 167.679,84.311L166.971,84.348L166.767,84.356C166.767,84.261 166.771,84.167 166.779,84.078L167.241,83.977C167.38,83.941 167.462,83.914 167.483,83.894C167.512,83.866 167.524,83.834 167.524,83.798C167.524,83.762 167.519,83.725 167.504,83.685L167.339,83.277L167.012,82.462L165.422,82.456C165.361,82.591 165.24,82.916 165.054,83.435C165.002,83.583 164.976,83.683 164.976,83.735C164.976,83.808 164.995,83.859 165.033,83.891C165.098,83.942 165.22,83.98 165.4,84.002C165.425,84.009 165.524,84.023 165.696,84.049C165.698,84.148 165.7,84.217 165.7,84.257C165.7,84.288 165.696,84.318 165.692,84.352C165.52,84.352 165.108,84.329 164.458,84.281L164.288,84.311C164.082,84.344 163.886,84.361 163.7,84.361L163.626,84.361ZM165.586,82.019C166.233,82.028 166.617,82.031 166.734,82.031L166.838,82.028C166.755,81.781 166.647,81.492 166.513,81.163C166.38,80.833 166.272,80.583 166.188,80.411L165.586,82.019ZM171.939,79.298L171.921,79.006L172.276,79.006L172.396,79.002C172.563,78.994 172.677,78.989 172.742,78.989C172.776,78.989 172.873,78.992 173.034,78.997C173.07,79.001 173.101,79.002 173.126,79.002C173.151,79.002 173.238,79 173.388,78.994C173.539,78.989 173.623,78.986 173.641,78.986C173.672,78.986 173.715,78.987 173.771,78.989C174.199,79.379 174.547,79.714 174.817,79.993C175.086,80.275 176.07,81.256 177.767,82.94L177.767,82.834L177.75,82.351C177.742,82.069 177.73,81.844 177.716,81.68C177.703,81.514 177.694,81.317 177.691,81.086C177.689,80.859 177.679,80.651 177.663,80.465C177.629,80.101 177.612,79.891 177.612,79.836C177.61,79.655 177.59,79.546 177.554,79.506C177.496,79.446 177.362,79.4 177.154,79.368C177.001,79.344 176.888,79.312 176.812,79.273L176.817,79.027L176.925,79.015L177.746,78.989L178.662,78.965C178.723,78.961 178.782,78.96 178.837,78.96L178.841,79.232C178.778,79.266 178.711,79.29 178.645,79.306C178.467,79.348 178.366,79.377 178.338,79.394C178.195,79.475 178.119,79.523 178.108,79.539C178.083,79.572 178.071,79.624 178.071,79.694C178.071,79.71 178.074,79.769 178.079,79.87C178.083,79.92 178.083,80.035 178.083,80.22C178.086,80.622 178.097,80.94 178.116,81.172C178.123,81.247 178.126,81.332 178.128,81.426L178.174,82.89C178.177,82.992 178.178,83.065 178.178,83.107L178.178,83.618L178.191,83.835L178.178,84.061C178.19,84.175 178.195,84.241 178.195,84.263L178.195,84.485L177.716,84.501L177.22,83.989L176.209,82.986L175.501,82.277L174.979,81.743C174.64,81.41 174.333,81.116 174.054,80.864L173.375,80.252L173.413,81.802C173.417,81.897 173.418,81.993 173.418,82.093L173.413,82.388L173.439,82.934C173.446,83.163 173.461,83.41 173.484,83.677C173.489,83.749 173.496,83.799 173.504,83.828C173.512,83.857 173.529,83.901 173.554,83.956C173.663,83.995 173.9,84.025 174.262,84.044C174.289,84.049 174.324,84.058 174.372,84.072L174.388,84.41L174.225,84.414C174.136,84.414 173.856,84.393 173.384,84.352C172.941,84.359 172.647,84.365 172.501,84.377C172.353,84.388 172.273,84.393 172.258,84.393C172.225,84.393 172.179,84.388 172.122,84.377C172.117,84.313 172.113,84.257 172.113,84.21C172.113,84.18 172.116,84.13 172.117,84.061C172.195,84.047 172.258,84.039 172.308,84.039C172.326,84.039 172.379,84.043 172.471,84.048C172.705,84.048 172.843,84.03 172.885,83.995C172.928,83.961 172.954,83.867 172.959,83.715C172.978,83.273 172.988,83.004 172.988,82.906L172.988,82.676L172.996,81.321L172.984,80.478C172.981,80.155 172.96,79.932 172.921,79.806C172.905,79.742 172.873,79.688 172.826,79.64C172.728,79.539 172.62,79.465 172.501,79.415C172.428,79.385 172.24,79.345 171.939,79.298ZM120.247,97L119.979,97L119.979,96.743L120.802,95.92L120.038,95.153C119.815,94.932 119.693,94.637 119.693,94.319C119.691,94.003 119.815,93.708 120.038,93.483L120.802,92.719L119.979,91.893L119.979,91.631L120.24,91.631L121.065,92.457L122.243,91.28C122.466,91.055 122.763,90.933 123.077,90.933C123.392,90.933 123.688,91.055 123.912,91.28L124.677,92.045L125.443,91.28C125.664,91.055 125.961,90.933 126.277,90.933C126.592,90.933 126.887,91.055 127.11,91.28L128.288,92.457L129.113,91.631L129.376,91.631L129.376,91.894L128.551,92.718L129.315,93.483C129.538,93.708 129.661,94.003 129.661,94.319C129.661,94.634 129.538,94.932 129.315,95.153L128.551,95.92L129.375,96.743L129.375,97L129.11,97L128.288,96.179L127.11,97.357C126.888,97.581 126.594,97.703 126.277,97.703C125.96,97.703 125.664,97.581 125.443,97.357L124.677,96.593L123.912,97.357C123.689,97.581 123.392,97.703 123.077,97.703C122.763,97.703 122.466,97.581 122.243,97.357L121.065,96.181L120.247,97ZM126.277,91.303C126.06,91.303 125.857,91.389 125.704,91.543L124.938,92.306L126.689,94.056L128.026,92.718L126.849,91.543C126.694,91.389 126.492,91.303 126.277,91.303ZM122.402,94.319L121.065,92.981L120.3,93.748C119.984,94.061 119.984,94.576 120.3,94.891L121.065,95.658L122.402,94.319ZM128.288,92.981L126.95,94.319L128.288,95.658L129.054,94.891C129.207,94.738 129.291,94.535 129.291,94.319C129.291,94.101 129.207,93.899 129.054,93.748L128.288,92.981ZM123.077,97.332C123.294,97.332 123.496,97.248 123.649,97.095L124.414,96.33L122.665,94.581L121.328,95.92L122.504,97.095C122.657,97.248 122.859,97.332 123.077,97.332ZM123.077,91.303C122.861,91.303 122.657,91.389 122.504,91.543L121.328,92.719L122.665,94.056L124.414,92.306L123.649,91.543C123.495,91.389 123.292,91.303 123.077,91.303ZM126.277,97.332C126.493,97.332 126.695,97.248 126.849,97.095L128.027,95.918L126.689,94.581L124.938,96.33L125.704,97.095C125.857,97.248 126.06,97.332 126.277,97.332ZM126.425,94.319L124.677,92.57L122.928,94.319L124.677,96.067L126.425,94.319ZM114.54,69.411L114.813,68.603L114.303,67.918L115.157,67.931L115.65,67.233L115.903,68.049L116.719,68.302L116.022,68.795L116.033,69.647L115.349,69.138L114.54,69.411ZM124.841,73.679L124.463,72.913L123.618,72.791L124.231,72.195L124.085,71.352L124.841,71.75L125.596,71.352L125.453,72.195L126.063,72.791L125.219,72.913L124.841,73.679ZM119.26,72.567L119.204,71.715L118.47,71.276L119.264,70.962L119.452,70.128L119.999,70.786L120.848,70.708L120.394,71.431L120.73,72.214L119.902,72.005L119.26,72.567ZM130.845,72.382L130.186,71.842L129.366,72.077L129.678,71.282L129.2,70.575L130.05,70.626L130.575,69.953L130.789,70.778L131.594,71.068L130.873,71.53L130.845,72.382ZM135.142,69.411L134.333,69.138L133.651,69.647L133.661,68.795L132.964,68.302L133.78,68.049L134.033,67.233L134.526,67.931L135.379,67.918L134.869,68.603L135.142,69.411ZM126.56,63.178C126.271,63.564 125.811,64 125.343,64.151L118.85,66.247C118.846,66.249 118.842,66.249 118.837,66.249C118.821,66.249 118.807,66.242 118.798,66.228C118.789,66.211 118.79,66.188 118.804,66.174C122.606,62.239 124.977,56.439 126.296,52.266C127.727,47.742 128.265,44.104 128.269,44.067C128.273,44.045 128.29,44.027 128.316,44.029C128.339,44.03 128.358,44.049 128.359,44.072C128.918,57.201 127.806,61.513 126.56,63.178ZM130.96,57.114C131.367,58.087 131.763,59.299 131.801,60.404C131.833,61.335 131.23,62.171 130.349,62.473L127.918,63.307C127.913,63.308 127.908,63.309 127.903,63.309C127.89,63.309 127.877,63.303 127.869,63.292C127.856,63.278 127.856,63.257 127.865,63.241C127.888,63.203 129.403,60.962 129.262,54.179C129.261,54.159 129.272,54.139 129.291,54.133C129.311,54.126 129.332,54.133 129.344,54.15C129.353,54.163 130.279,55.487 130.96,57.114ZM131.188,63.14C131.216,63.131 131.236,63.164 131.217,63.184C131.217,63.184 130.944,63.79 130.554,64.339C130.14,64.926 129.691,65.191 128.714,65.623C127.658,66.092 124.193,67.219 122.791,67.513C121.45,67.793 120.619,67.724 119.957,67.477C119.438,67.283 119.176,67.206 119.176,67.206C119.15,67.2 119.148,67.162 119.174,67.154L131.188,63.14Z" style="fill:rgb(124,134,163);"/>
    </g>
</svg>
