<?xml version="1.0" encoding="UTF-8" standalone="no"?>
<!DOCTYPE svg PUBLIC "-//W3C//DTD SVG 1.1//EN" "http://www.w3.org/Graphics/SVG/1.1/DTD/svg11.dtd">
<svg width="100%" height="100%" viewBox="0 0 200 130" version="1.1" xmlns="http://www.w3.org/2000/svg" xmlns:xlink="http://www.w3.org/1999/xlink" xml:space="preserve" xmlns:serif="http://www.serif.com/" style="fill-rule:evenodd;clip-rule:evenodd;stroke-linejoin:round;stroke-miterlimit:2;">
    <g transform="matrix(1.86839,0,0,1.86839,46.9061,81.5446)">
        <path d="M-1.462,-20.327C-1.425,-22.201 -0.975,-24.338 1.087,-25.463C15.408,-33.298 39.514,-33.598 55.672,-25.463C57.959,-24.301 58.296,-22.089 58.296,-20.252L58.296,2.542C58.296,4.379 57.959,6.553 55.672,7.753C39.514,15.888 15.408,15.588 1.087,7.753C-0.975,6.628 -1.425,4.529 -1.462,2.617L-1.462,-20.327ZM54.959,2.617L54.959,-20.177C54.885,-21.376 54.397,-22.089 53.685,-22.426C37.602,-29.812 17.695,-29.324 3.261,-22.426C2.474,-22.051 2.062,-21.302 2.062,-20.327L2.062,2.767C2.062,3.779 2.512,4.491 3.261,4.866C17.732,11.764 37.602,12.252 53.685,4.866C54.397,4.491 54.847,3.816 54.959,2.617ZM23.581,-5.219C23.956,-6.193 25.83,-6.081 25.718,-4.619L23.131,2.842C22.756,3.779 22.344,4.604 21.256,4.641C20.132,4.604 19.682,3.779 19.382,2.842L16.795,-4.619C16.683,-6.118 18.52,-6.231 18.932,-5.219L20.807,-1.207C20.957,-0.945 21.106,-0.795 21.256,-0.795C21.406,-0.795 21.594,-0.945 21.706,-1.207L23.581,-5.219ZM49.711,-5.856C50.386,-5.856 50.948,-5.294 50.948,-4.619L50.948,3.442C50.948,4.116 50.386,4.679 49.711,4.679L43.975,4.679C43.3,4.679 42.738,4.116 42.738,3.442L42.738,-4.619C42.738,-5.294 43.3,-5.856 43.975,-5.856L49.711,-5.856ZM48.061,1.83L48.061,-3.044C48.061,-3.457 47.911,-3.794 47.724,-3.794L46.074,-3.794C45.85,-3.794 45.7,-3.457 45.7,-3.044L45.7,1.83C45.7,2.242 45.887,2.579 46.074,2.579L47.724,2.579C47.911,2.579 48.061,2.242 48.061,1.83ZM15.596,3.816C15.596,4.266 15.371,4.641 15.108,4.679L13.121,4.679C12.859,4.679 12.634,4.304 12.634,3.816L12.634,-5.031C12.634,-5.518 12.821,-5.893 13.121,-5.893L15.108,-5.893C15.371,-5.893 15.596,-5.518 15.596,-5.031L15.596,3.816ZM9.222,3.816C9.222,4.266 8.997,4.641 8.735,4.716L6.748,4.716C6.486,4.716 6.261,4.341 6.261,3.854L6.261,-4.994C6.261,-5.481 6.448,-5.856 6.748,-5.856L10.459,-5.856C10.909,-5.856 11.284,-5.631 11.284,-5.331L11.284,-3.269C11.284,-3.007 10.909,-2.744 10.459,-2.744L9.222,-2.744L9.222,3.816ZM21.256,-7.056C21.744,-7.056 22.156,-6.756 22.156,-6.343C22.156,-5.931 21.744,-4.319 21.256,-4.319C20.769,-4.319 20.357,-5.931 20.357,-6.343C20.357,-6.756 20.769,-7.056 21.256,-7.056ZM21.444,-17.778C21.856,-18.752 23.693,-18.677 23.618,-17.178L21.031,-9.942C20.694,-9.042 20.282,-8.255 19.195,-8.218C18.07,-8.218 17.657,-9.042 17.358,-9.942L14.733,-17.178C14.621,-18.64 16.495,-18.752 16.87,-17.778L18.707,-13.879C18.857,-13.616 19.007,-13.466 19.157,-13.466C19.344,-13.504 19.494,-13.616 19.607,-13.879L21.444,-17.778ZM39.364,3.816C39.364,4.266 39.139,4.641 38.839,4.716L36.852,4.716C36.59,4.716 36.365,4.341 36.365,3.854L36.365,-4.994C36.365,-5.481 36.552,-5.856 36.852,-5.856L40.601,-5.856C41.051,-5.856 41.426,-5.631 41.426,-5.331L41.426,-3.269C41.426,-3.007 41.051,-2.744 40.601,-2.744L39.364,-2.744L39.364,3.816ZM13.871,-9.08C13.871,-8.593 13.309,-8.255 12.559,-8.255L7.46,-8.255C6.785,-8.255 6.186,-8.63 6.186,-9.08L6.186,-14.291C6.186,-14.591 6.336,-14.816 6.636,-14.816L10.572,-14.816C10.834,-14.816 11.059,-14.966 11.059,-15.191L11.059,-15.566C11.059,-15.791 10.834,-15.941 10.572,-15.941L6.711,-15.941C6.411,-15.941 6.223,-16.053 6.223,-16.39L6.223,-17.628C6.223,-18.077 6.785,-18.452 7.498,-18.452L12.596,-18.452C13.271,-18.452 13.871,-18.077 13.871,-17.628L13.871,-14.853C14.433,-14.853 14.921,-14.366 14.921,-13.766C14.921,-13.166 14.433,-12.679 13.871,-12.679L13.871,-9.08ZM11.322,-10.804L11.322,-12.267C11.322,-12.491 11.247,-12.641 11.134,-12.641L9.147,-12.641C9.072,-12.641 8.96,-12.491 8.96,-12.267L8.96,-10.804C8.96,-10.58 9.035,-10.43 9.147,-10.43L11.134,-10.43C11.209,-10.43 11.322,-10.58 11.322,-10.804ZM34.64,3.816C34.64,4.266 34.04,4.641 33.328,4.566L28.192,4.566C27.48,4.566 26.88,4.191 26.88,3.704L26.88,0.78C26.28,0.78 25.793,0.292 25.793,-0.307C25.793,-0.907 26.318,-1.395 26.88,-1.395L26.88,-5.106C26.88,-5.593 27.48,-5.968 28.192,-5.968L33.366,-5.968C34.078,-5.968 34.678,-5.593 34.678,-5.106L34.678,0.255C34.64,0.592 34.49,0.817 34.19,0.817L30.254,0.817C29.991,0.817 29.767,1.005 29.767,1.23L29.767,1.642C29.767,1.867 29.991,2.054 30.254,2.054L34.153,2.054C34.453,2.054 34.64,2.204 34.64,2.542L34.64,3.816ZM29.467,-1.695C29.467,-1.507 29.542,-1.32 29.654,-1.32L31.679,-1.32C31.753,-1.32 31.866,-1.47 31.866,-1.695L31.866,-3.194C31.866,-3.382 31.791,-3.569 31.679,-3.569L29.654,-3.569C29.579,-3.569 29.467,-3.419 29.467,-3.194L29.467,-1.695ZM30.441,-26.4C30.704,-25.2 30.291,-24.451 29.017,-24.226C29.054,-25.275 29.617,-25.913 30.441,-26.4ZM32.428,-26.588C32.616,-25.613 32.241,-24.826 30.966,-24.413C30.779,-25.238 31.304,-25.95 32.428,-26.588ZM37.564,-23.101C35.727,-22.689 34.453,-22.764 34.115,-23.588C34.94,-24.188 36.102,-24.038 37.564,-23.101ZM34.04,-26.213C34.528,-25.388 33.628,-24.338 32.691,-24.413C32.578,-25.2 33.066,-25.8 34.04,-26.213ZM30.291,-21.114C29.504,-21.489 28.979,-22.089 28.754,-23.064C29.879,-23.139 30.404,-22.539 30.291,-21.114ZM41.838,-9.23C41.838,-8.705 41.388,-8.255 40.976,-8.218L39.889,-8.218C39.364,-8.218 38.914,-8.705 38.914,-9.23L38.914,-14.253C38.914,-14.853 38.277,-15.378 37.527,-15.378C36.777,-15.378 36.14,-14.853 36.14,-14.253L36.14,-9.23C36.14,-8.668 35.69,-8.218 35.165,-8.218L34.078,-8.218C33.553,-8.218 33.103,-8.705 33.103,-9.23L33.103,-14.628C33.103,-16.765 34.828,-18.415 36.927,-18.415L38.014,-18.415C40.114,-18.415 41.838,-16.765 41.838,-14.591L41.838,-9.23ZM28.754,-20.889C27.967,-20.852 27.442,-21.489 27.105,-22.839C28.154,-22.914 28.679,-22.239 28.754,-20.889ZM32.053,-21.302C31.266,-21.676 30.741,-22.314 30.591,-23.326C31.604,-23.251 32.203,-22.689 32.053,-21.302ZM33.515,-23.813C29.092,-23.963 24.368,-22.801 19.419,-20.402L18.52,-20.852C25.643,-23.963 30.404,-24.713 33.515,-23.813ZM28.492,-26.325C28.867,-25.088 28.417,-24.413 27.292,-24.151C27.292,-25.125 27.78,-25.8 28.492,-26.325ZM25.605,-20.852C25.343,-21.751 25.68,-22.464 26.58,-22.801C26.73,-21.789 26.392,-21.114 25.605,-20.852ZM50.611,-14.816C51.173,-14.816 51.66,-14.328 51.66,-13.766C51.66,-13.166 51.173,-12.679 50.611,-12.679L50.611,-9.08C50.611,-8.63 50.048,-8.255 49.336,-8.255L44.237,-8.255C43.563,-8.255 42.963,-8.63 42.963,-9.08L42.963,-14.291C42.963,-14.591 43.113,-14.816 43.413,-14.816L47.312,-14.816C47.574,-14.816 47.799,-14.966 47.799,-15.191L47.799,-15.566C47.799,-15.791 47.574,-15.941 47.312,-15.941L43.45,-15.941C43.15,-15.941 42.963,-16.053 42.963,-16.39L42.963,-17.628C42.963,-18.077 43.525,-18.452 44.237,-18.452L49.336,-18.452C50.011,-18.452 50.611,-18.077 50.611,-17.628L50.611,-14.816ZM48.061,-10.804L48.061,-12.267C48.061,-12.491 47.986,-12.641 47.874,-12.641L45.887,-12.641C45.812,-12.641 45.7,-12.491 45.7,-12.267L45.7,-10.804C45.7,-10.58 45.775,-10.43 45.887,-10.43L47.874,-10.43C47.949,-10.43 48.061,-10.58 48.061,-10.804ZM33.965,-21.189C33.028,-21.489 32.503,-22.276 32.278,-23.288C33.366,-23.139 34.003,-22.464 33.965,-21.189ZM26.955,-23.963C25.868,-23.663 25.193,-24.076 24.855,-25.013C26.018,-25.163 26.655,-24.751 26.955,-23.963ZM19.157,-19.614C19.644,-19.614 20.057,-19.315 20.057,-18.94C20.057,-18.565 19.644,-16.99 19.157,-16.99C18.67,-16.99 18.257,-18.565 18.257,-18.94C18.257,-19.315 18.67,-19.614 19.157,-19.614ZM32.166,-9.08C32.166,-8.593 31.604,-8.255 30.854,-8.143L25.755,-8.143C25.08,-8.143 24.481,-8.518 24.481,-8.967L24.481,-11.817C23.918,-11.817 23.431,-12.304 23.431,-12.904C23.431,-13.504 23.918,-13.991 24.481,-13.991L24.481,-17.59C24.481,-18.04 25.043,-18.415 25.755,-18.415L30.891,-18.415C31.566,-18.415 32.166,-18.04 32.166,-17.59L32.166,-12.417C32.166,-12.117 32.016,-11.892 31.716,-11.892L27.817,-11.892C27.555,-11.892 27.33,-11.742 27.33,-11.517L27.33,-11.142C27.33,-10.917 27.555,-10.767 27.817,-10.767L31.679,-10.767C31.978,-10.767 32.166,-10.654 32.166,-10.317L32.166,-9.08ZM27.03,-14.403C27.03,-14.216 27.142,-14.029 27.217,-14.029L29.204,-14.029C29.279,-14.029 29.392,-14.179 29.392,-14.403L29.392,-15.866C29.392,-16.09 29.317,-16.24 29.204,-16.24L27.217,-16.24C27.142,-16.24 27.03,-16.09 27.03,-15.866L27.03,-14.403Z" style="fill:rgb(124,134,163);"/>
    </g>
</svg>
