<?xml version="1.0" encoding="utf-8"?>
<!-- Generator: Adobe Illustrator 24.0.0, SVG Export Plug-In . SVG Version: 6.00 Build 0)  -->
<svg version="1.1" id="Capa_1" xmlns="http://www.w3.org/2000/svg" xmlns:xlink="http://www.w3.org/1999/xlink" x="0px" y="0px"
	 viewBox="0 0 200 130" style="enable-background:new 0 0 200 130;" xml:space="preserve">
<style type="text/css">
	.st0{fill:#7C86A3;}
</style>
<g>
	<g>
		<path class="st0" d="M22.6,58.4h-4.2v27.2c0,0.3,0.3,0.6,0.6,0.6h4.2V58.9C23.2,58.6,22.9,58.4,22.6,58.4z"/>
		<path class="st0" d="M22.6,45.9h-4.2v4.6c0,0.3,0.3,0.6,0.6,0.6h4.2v-4.6C23.2,46.2,22.9,45.9,22.6,45.9z"/>
		<path class="st0" d="M45.5,58h-7.3c-4.5,0-8.1,3.7-8.1,8.1v12.3c0,4.5,3.6,8.1,8.1,8.1h7.3c4.5,0,8.2-3.6,8.2-8.1V66.1
			C53.7,61.6,50,58,45.5,58z M48.9,78.6c0,1.8-1.5,3.3-3.3,3.3h-7.3c-1.8,0-3.3-1.5-3.3-3.3V65.9c0-1.8,1.4-3.3,3.3-3.3h7.3
			c1.8,0,3.3,1.5,3.3,3.3V78.6z"/>
		<path class="st0" d="M133.2,58.4h-21.8c-2,0-3.6,1.6-3.6,3.6v24.2h4.2c0.3,0,0.6-0.3,0.6-0.6V63.4c0.1-0.3,0.3-0.5,0.6-0.5h8.4
			c0.3,0,0.6,0.3,0.6,0.6v22c0,0.3,0.3,0.6,0.6,0.6h4.2V64.5c0-0.7-0.4-1.2-1-1.6h7.2c1.8,0,3.3,1.5,3.3,3.3v19.3
			c0,0.3,0.3,0.6,0.6,0.6h4.2V66.5C141.3,62,137.7,58.4,133.2,58.4z"/>
		<path class="st0" d="M73.6,81.5h-5c-1.8,0-3.3-1.4-3.3-3.3V63H73l4.6-4.6H66.9c-0.7,0-1.3,0.4-1.6,1V45.5c0-0.3-0.3-0.6-0.6-0.6
			h-4.2V78c0,4.5,3.7,8.1,8.1,8.1h5.6v-4C74.2,81.8,73.9,81.5,73.6,81.5z"/>
		<path class="st0" d="M92.9,58.4h-8.2L80.1,63h12.8c2.2,0,3.3,1.5,3.3,3.3v1.4c0,0.3-0.3,0.6-0.6,0.6h-9.4c-4.5,0-8.1,3.6-8.1,8.1
			V78c0,4.5,3.6,8.1,8.1,8.1h9.9h2.4h0.6c1,0,1.8-0.8,1.8-1.8V66.1C101,61.1,97.4,58.4,92.9,58.4z M96.3,80.8c0,0.3-0.2,0.6-0.6,0.6
			h-9.4c-1.8,0-3.3-1.4-3.3-3.3V76c0-1.8,1.4-3.3,3.3-3.3h8.6c0.6-0.1,1.2-0.3,1.4-0.8V80.8z"/>
	</g>
	<g>
		<path class="st0" d="M157.2,53.8l-2.3-4.8c-0.2-0.4-0.1-0.8,0.1-1.2l1.8-2.3c0.2-0.3,0.5-0.4,0.9-0.4h14.4c0.5,0,0.8-0.5,0.6-1
			l-3-6.3c-0.1-0.2-0.3-0.4-0.6-0.4H153c-0.5,0-0.8,0.5-0.6,1l2.3,4.8c0.2,0.4,0.1,0.8-0.1,1.2l-1.8,2.3c-0.2,0.3-0.5,0.4-0.9,0.4
			h-5.6c-0.5,0-0.8,0.5-0.6,1l3,6.3c0.1,0.2,0.3,0.4,0.6,0.4h7.3C157.1,54.8,157.4,54.3,157.2,53.8z"/>
		<path class="st0" d="M181.6,55.4l-3-6.3c-0.1-0.2-0.3-0.4-0.6-0.4h-7.3c-0.5,0-0.8,0.5-0.6,1l2.3,4.8c0.2,0.4,0.1,0.8-0.1,1.2
			l-1.7,2.2c-0.2,0.3-0.5,0.4-0.9,0.4h-14.4c-0.5,0-0.8,0.5-0.6,1l3,6.3c0.1,0.2,0.3,0.4,0.6,0.4h16.1c0.5,0,0.8-0.5,0.6-1l-2.3-4.8
			c-0.2-0.4-0.1-0.8,0.1-1.2l1.7-2.2c0.2-0.3,0.5-0.4,0.9-0.4h5.6C181.5,56.4,181.8,55.9,181.6,55.4z"/>
	</g>
</g>
</svg>
