<?xml version="1.0" encoding="UTF-8" standalone="no"?>
<!DOCTYPE svg PUBLIC "-//W3C//DTD SVG 1.1//EN" "http://www.w3.org/Graphics/SVG/1.1/DTD/svg11.dtd">
<svg width="100%" height="100%" viewBox="0 0 200 130" version="1.1" xmlns="http://www.w3.org/2000/svg" xmlns:xlink="http://www.w3.org/1999/xlink" xml:space="preserve" xmlns:serif="http://www.serif.com/" style="fill-rule:evenodd;clip-rule:evenodd;stroke-linejoin:round;stroke-miterlimit:2;">
    <g transform="matrix(1.86839,0,0,1.86839,46.9061,81.5446)">
        <path d="M0,-17.71L-4.48,-12.017C-4.548,-11.932 -4.487,-11.806 -4.378,-11.806L0,-11.806L0,-5.903L-9.028,-5.903C-9.195,-5.903 -9.353,-5.826 -9.456,-5.695L-13.775,-0.208C-13.879,-0.076 -14.036,0 -14.203,0L-17.71,0L-17.71,-5.903L-10.352,-5.903C-10.185,-5.903 -10.027,-5.98 -9.924,-6.11L-5.606,-11.596C-5.539,-11.681 -5.6,-11.806 -5.709,-11.806L-17.71,-11.806L-17.71,-17.71L0,-17.71ZM7.679,-15.223L7.679,-4.295L14.057,-4.295L14.057,-2.486L5.817,-2.486L5.817,-15.223L7.679,-15.223ZM18.676,-15.222L18.676,-2.485L16.814,-2.485L16.814,-15.222L18.676,-15.222ZM31.605,-6.32L31.572,-15.223L33.433,-15.223L33.433,-2.047L33.398,-2.047L24.124,-11.255L24.158,-2.486L22.278,-2.486L22.278,-15.645L22.348,-15.645L31.605,-6.32ZM43.371,-6.71L49.79,-15.663L49.808,-15.663L49.808,-2.486L47.945,-2.486L47.945,-10.313L43.36,-3.804L43.325,-3.804L38.862,-9.999L38.862,-2.486L37.053,-2.486L37.053,-15.663L37.07,-15.663L43.371,-6.71ZM55.271,-7.985L55.271,-4.296L62,-4.296L62,-2.486L53.409,-2.486L53.409,-15.223L61.753,-15.223L61.753,-13.431L55.271,-13.431L55.271,-9.795L61.051,-9.795L61.051,-7.985L55.271,-7.985ZM74.544,-2.486L72.137,-2.486L68.921,-7.437L65.988,-2.486L63.687,-2.486L67.871,-9.052L63.862,-15.223L66.234,-15.223L69.32,-10.493L72.119,-15.223L74.368,-15.223L70.337,-8.935L74.544,-2.486Z" style="fill:rgb(124,134,163);"/>
    </g>
</svg>
