<?xml version="1.0" encoding="UTF-8" standalone="no"?>
<!DOCTYPE svg PUBLIC "-//W3C//DTD SVG 1.1//EN" "http://www.w3.org/Graphics/SVG/1.1/DTD/svg11.dtd">
<svg width="100%" height="100%" viewBox="0 0 200 130" version="1.1" xmlns="http://www.w3.org/2000/svg" xmlns:xlink="http://www.w3.org/1999/xlink" xml:space="preserve" xmlns:serif="http://www.serif.com/" style="fill-rule:evenodd;clip-rule:evenodd;stroke-linejoin:round;stroke-miterlimit:2;">
    <g transform="matrix(0.698686,0,0,0.698686,32.1925,-8.05475)">
        <path d="M135.502,76.735C138.329,75.953 141.44,75.5 144.8,75.5C149.975,75.5 155.769,76.562 162.016,79.186C162.035,79.194 162.053,79.202 162.072,79.21C162.446,79.368 162.822,79.531 163.2,79.7C161.801,80.934 159.115,83.463 155.613,86.229C151.337,89.607 145.844,93.339 139.991,95.5C139.873,95.544 139.755,95.587 139.636,95.629C132.911,98.033 125.735,98.323 119.4,93.6C123.9,88.5 135.7,84.2 145.3,82.5C138.1,82.5 126.4,84.2 117.8,91.5C119.426,86.001 125.792,79.422 135.502,76.735ZM129.925,72.326C129.82,72.452 129.715,72.579 129.609,72.705C128.558,73.958 127.429,75.199 126.218,76.422C124.431,78.225 122.465,79.989 120.3,81.7C120.319,80.061 120.395,78.46 120.52,76.904C120.565,76.348 120.616,75.797 120.673,75.253C120.677,75.206 120.682,75.159 120.687,75.113C122.194,60.885 127.594,50.638 128.9,48.2C123.245,56.464 118.642,65.937 117.223,76.086C117.216,76.137 117.209,76.189 117.202,76.241C117.148,76.636 117.099,77.032 117.055,77.428C116.674,80.852 116.662,84.35 117.1,87.9C113.542,85.127 110.873,82.249 109.003,79.319C108.889,79.142 108.779,78.964 108.671,78.786C108.66,78.767 108.648,78.748 108.637,78.729C97.928,60.898 116.443,41.266 144,31.4C143.592,42.084 141.721,58.022 129.925,72.326ZM104.87,79.852C104.94,79.903 105.01,79.955 105.08,80.006C105.264,80.141 105.445,80.276 105.626,80.413C113.38,86.271 118.007,93.186 114.8,99.7C110.122,99.616 99.511,94.089 91.831,87.316C90.998,86.582 90.2,85.833 89.448,85.075C89.358,84.984 89.268,84.893 89.179,84.802C88.662,84.271 88.167,83.737 87.7,83.2C88.018,83.69 88.414,84.262 88.888,84.899C88.961,84.996 89.035,85.095 89.111,85.196C89.7,85.972 90.397,86.836 91.202,87.759C95.176,92.313 101.788,98.301 111,102.3C105.007,104.356 99.425,104.358 94.598,102.728C90.299,101.277 86.599,98.532 83.741,94.791C82.22,92.799 80.937,90.524 79.93,88.013C77.618,82.245 76.759,75.225 77.8,67.5C86.781,69.721 97.208,74.274 104.87,79.852ZM26.018,119.825C30.442,115.274 35.213,111.364 39.9,108C50.111,100.626 61.995,94.699 77.304,88.98C78.635,92.067 80.301,94.81 82.192,97.063C82.774,97.756 83.378,98.404 84,99C97.2,111.7 113.7,104 115.4,101.8C117.1,99.6 117.5,96.2 117.6,94.4C119.63,96.457 121.862,97.851 124.225,98.702C127.034,99.714 130.027,99.957 133.087,99.632C133.155,99.625 133.224,99.617 133.293,99.609C141.461,98.674 150.079,93.725 156.89,88.546C161.048,85.384 164.532,82.137 166.829,79.664C167.142,79.328 167.433,79.006 167.7,78.7C166.461,78.248 165.253,77.833 164.073,77.455L164.018,77.437C150.219,73.021 140.343,73.534 132.37,76.464C130.033,77.323 127.86,78.389 125.8,79.6C126.995,78.546 128.125,77.466 129.192,76.366C130.686,74.826 132.059,73.247 133.319,71.641C158.602,64.364 176.74,58.654 184.8,52.8C184.826,52.781 184.901,52.726 184.9,52.8C184.9,64.107 181.071,83.641 171.295,102.929C172.621,104.146 173.695,105.651 174.5,107.4C175.2,108.9 176,110.5 176.7,112.2C179.9,119.1 182.4,124.7 184.3,128.7C185.2,130.5 188.2,134.2 191.1,136.3L168,139.5C170.9,137.3 172.6,134.3 171.1,132.6C170.5,131.1 170.1,129.7 169.5,128.3C165.1,130.5 164.2,133.6 162.2,136.6C158.7,141.9 154.4,143.3 148.8,144.3C148.8,144.3 149.4,143.3 150.1,142.2C149.5,142.5 148.8,142.7 148.1,142.8L134.94,144.669C104.448,164.473 62.021,168.902 37.3,169L32.9,169C25.5,168.9 15.3,168.9 6.1,170.6C5.583,158.264 8.138,147.764 12.473,138.825C11.533,132.157 10.697,126.221 10.5,124.8C9.9,120.4 9.3,119 7.2,117.7L3,115.1C10.7,113.3 10.7,113.1 13.9,113.1C18.5,113.1 22.2,115 25.3,118.9C25.52,119.184 25.76,119.494 26.018,119.825ZM14.408,135.137C15.826,145.207 17.7,158.5 17.7,158.5L23.1,157.7L19.3,130.6C22.968,135.093 29.326,143.117 34.366,148.89L34.368,148.893C34.824,149.415 35.269,149.919 35.7,150.4C39.5,154.6 43.8,156.1 50.2,155.7C48.289,154.267 47.109,153.017 45.525,142.446L45.524,142.438C45.45,141.946 45.376,141.433 45.3,140.9C44.4,133.9 41.2,111.4 41.2,111.4L35.6,112.2L39.5,140C39.5,140 29.505,127.111 24.785,121.12C24.464,120.713 24.167,120.337 23.9,120C19.2,114.1 13.8,114.5 8.6,115.8C11.6,117.6 12.3,119.9 12.9,124.4C13.07,125.623 13.679,129.953 14.408,135.137ZM170.341,104.774C166.583,101.255 160.852,100.947 157.2,101.9C158.8,103.6 159.2,106 158.8,109.6C158.209,114.834 157.547,119.569 156.813,125.129C156.678,126.155 156.54,127.209 156.4,128.3C155.4,136.8 154.9,137.1 152.5,141.3C158.2,139.5 159.7,136.8 161.8,133.6C164.3,129.9 165.6,127 171.1,124.9C171.1,124.9 172.9,129.1 173.8,131.3C174.8,133.7 174.7,134.9 173.3,136.7L186.6,134.8C184.3,132.8 183.3,131 182.6,129.6C181.8,128.2 176.5,116.4 172.8,108.2C172.161,106.819 171.318,105.688 170.341,104.774ZM147.39,135.033C144.733,135.656 142.092,135.567 140.7,135L139.3,124.7L147.7,123.5L145.7,118.2L138.5,119.2L137.3,110.7C139.347,110.368 142.097,110.006 144.519,109.748C146.475,109.54 148.217,109.4 149.2,109.4L146.8,103.6L125.6,106.5C128,108 128.2,110.1 128.5,112.5C128.636,113.454 128.803,114.632 128.992,115.962C130.321,125.363 132.7,142.4 132.7,142.4C132.7,142.4 136.002,141.928 139.654,141.409C142.934,140.942 146.496,140.437 148.2,140.2C151.9,139.7 153.6,134.6 153.9,131.2C152.398,133.235 149.887,134.448 147.39,135.033ZM76.511,126.95C76.516,126.961 76.522,126.971 76.528,126.981C78.225,130.031 81.436,131.699 84.6,132.8C89.2,134.4 92.5,136 92.5,139.3C92.5,142.6 89,143.8 86.4,143.8C83.8,143.8 80.5,142.9 77.3,140.8C77.7,142.2 78.6,146.6 79.9,147.8C81.2,149 84.7,149.4 87,149.4C93,149.4 101.1,146.4 101.1,137.5C101.3,128.9 93.9,126.9 89.5,125C87.813,124.262 86.433,123.663 85.503,122.852C85.49,122.84 85.477,122.829 85.464,122.817C84.655,122.095 84.2,121.203 84.2,119.9C84.2,117.71 86.341,116.805 87.705,116.514C88.085,116.433 88.404,116.4 88.6,116.4C89.5,116.4 92,116.3 95,118.1L94.1,111.7C94.1,111.7 91.9,111 88.8,111C86.246,111 83.996,111.398 82.103,112.137C77.77,113.828 75.3,117.307 75.3,121.9C75.3,123.914 75.751,125.572 76.511,126.95ZM52.562,138.675L52.564,138.688C52.862,140.869 53.127,142.788 53.3,144C53.8,147.9 54.6,150.5 55.6,151.5C56.7,152.4 58,152.9 59.6,152.7C65.2,152 64,152.2 73.8,150.8L74.6,141.8C72.2,146.8 66.2,146.6 62.7,146.2L61.2,135.7L69.6,134.5L67.6,129.2L60.4,130.2L59.2,121.7C59.2,121.7 62.4,121.3 65.8,120.8C69.2,120.3 71.1,120.4 71.1,120.4L68.7,114.6C68.7,114.6 51.6,117 47.6,117.6C50.2,119.2 50.3,122.4 50.6,124.5C50.884,126.348 51.826,133.301 52.562,138.675ZM116.607,118.635C116.191,115.721 115.9,113.7 115.9,113.7C119,113.3 122.9,112.6 125,112.8L123,106.9L98.7,110.3L98.2,116.7C98.757,116.488 99.44,116.297 100.198,116.123C100.315,116.096 100.433,116.07 100.553,116.044C102.593,115.603 105.087,115.278 107.1,115C107.1,115 107.358,116.853 107.732,119.527C108.473,124.834 109.668,133.377 110.2,137.1C111,142.8 110.7,143.8 109.4,145.6L122.3,143.8C119.6,141.4 119.4,138.2 119,135.6C118.372,131.016 117.31,123.554 116.607,118.635ZM164.6,109.9L169.3,120.6C167,121.2 165.4,121.5 162.9,123.2L164.6,109.9Z" style="fill:rgb(124,134,163);"/>
    </g>
</svg>
