<?xml version="1.0" encoding="UTF-8" standalone="no"?>
<!DOCTYPE svg PUBLIC "-//W3C//DTD SVG 1.1//EN" "http://www.w3.org/Graphics/SVG/1.1/DTD/svg11.dtd">
<svg width="100%" height="100%" viewBox="0 0 200 130" version="1.1" xmlns="http://www.w3.org/2000/svg" xmlns:xlink="http://www.w3.org/1999/xlink" xml:space="preserve" xmlns:serif="http://www.serif.com/" style="fill-rule:evenodd;clip-rule:evenodd;stroke-linejoin:round;stroke-miterlimit:2;">
    <g transform="matrix(0.910059,0,0,0.910059,8.99408,5.30651)">
        <g>
            <path d="M18.2,84.4C17.2,84.4 16.1,84.3 14.8,84.2C13.5,84.1 12.3,83.9 11.1,83.7C9.9,83.5 8.8,83.4 7.9,83.2L8.3,79.6C9.2,79.7 10.2,79.8 11.4,80C12.6,80.1 13.8,80.3 14.9,80.4C16.1,80.5 17,80.5 17.9,80.5C20,80.5 21.6,80 22.6,79.1C23.6,78.2 24.1,76.7 24.1,74.7C24.1,73.6 23.9,72.7 23.5,72.1C23.1,71.5 22.4,70.9 21.4,70.6C20.4,70.2 19.1,69.9 17.5,69.5C15.2,69 13.4,68.5 11.9,67.8C10.4,67.1 9.4,66.2 8.7,65C8,63.8 7.7,62.2 7.7,60.1C7.7,57.9 8.1,56.2 9,54.9C9.8,53.6 11,52.6 12.6,52C14.2,51.4 16,51.1 18.1,51.1C19,51.1 20.1,51.2 21.3,51.3C22.5,51.4 23.7,51.5 24.9,51.7C26.1,51.9 27.1,52 27.9,52.2L27.6,55.9C26.7,55.8 25.7,55.7 24.5,55.5C23.3,55.4 22.2,55.3 21.1,55.2C20,55.1 19.1,55.1 18.5,55.1C16.4,55.1 14.8,55.5 13.8,56.2C12.8,57 12.2,58.2 12.2,59.8C12.2,61 12.4,62 12.9,62.7C13.4,63.4 14.1,63.9 15.2,64.2C16.3,64.6 17.7,65 19.4,65.4C21,65.8 22.4,66.2 23.6,66.6C24.8,67 25.7,67.6 26.5,68.2C27.3,68.9 27.8,69.7 28.2,70.6C28.5,71.6 28.7,72.8 28.7,74.2C28.7,76.6 28.3,78.5 27.4,80C26.6,81.5 25.4,82.5 23.8,83.2C22.2,84 20.3,84.4 18.2,84.4Z" style="fill:rgb(124,134,163);fill-rule:nonzero;"/>
            <path d="M40.7,84.4C38.7,84.4 37.2,84 36.2,83.2C35.2,82.4 34.4,81.1 34,79.4C33.6,77.7 33.4,75.5 33.4,72.8L33.4,60.5L37.6,60.5L37.6,72.7C37.6,74.6 37.7,76.2 37.9,77.3C38.1,78.5 38.5,79.3 39.1,79.8C39.7,80.3 40.7,80.5 41.9,80.5C43.1,80.5 44.2,80.3 45.3,80C46.3,79.7 47.1,79.3 47.8,79L47.8,60.5L52,60.5L52,83.9L47.8,83.9L47.8,82.3C46.8,82.9 45.8,83.3 44.7,83.8C43.5,84.2 42.2,84.4 40.7,84.4Z" style="fill:rgb(124,134,163);fill-rule:nonzero;"/>
            <path d="M58.1,83.9L58.1,50.5L62.3,50.5L62.3,61.6C63.1,61.3 64.1,60.9 65.4,60.5C66.7,60.1 67.9,59.9 69.1,59.9C71.2,59.9 72.8,60.3 74,61C75.1,61.8 75.9,63 76.4,64.7C76.8,66.4 77,68.6 77,71.4L77,83.8L72.7,83.8L72.7,71.8C72.7,69.9 72.6,68.3 72.4,67.2C72.2,66 71.8,65.2 71.1,64.7C70.5,64.2 69.5,63.9 68.2,63.9C67.1,63.9 66,64 64.9,64.3C63.8,64.6 62.9,64.9 62.3,65.1L62.3,83.9L58.1,83.9Z" style="fill:rgb(124,134,163);fill-rule:nonzero;"/>
            <path d="M82.8,55.7L82.8,51.2L87,51.2L87,55.7L82.8,55.7ZM82.8,83.9L82.8,60.5L87,60.5L87,83.9L82.8,83.9Z" style="fill:rgb(124,134,163);fill-rule:nonzero;"/>
            <path d="M100.6,84.4C99.8,84.4 98.9,84.4 97.9,84.3C96.9,84.2 95.9,84.1 94.9,83.9C93.9,83.8 93.1,83.6 92.3,83.5L92.5,80C93.3,80.1 94.1,80.2 95.1,80.3C96.1,80.4 97,80.5 98,80.6C98.9,80.7 99.7,80.7 100.2,80.7C101.4,80.7 102.3,80.6 103.1,80.4C103.9,80.2 104.4,79.8 104.8,79.3C105.2,78.8 105.4,78.1 105.4,77.2C105.4,76.5 105.2,75.9 104.9,75.5C104.6,75.1 104,74.8 103.2,74.5C102.4,74.2 101.2,74 99.6,73.7C97.9,73.4 96.5,73.1 95.4,72.6C94.3,72.2 93.4,71.5 92.9,70.7C92.3,69.8 92,68.6 92,67C92,65.2 92.4,63.8 93.2,62.8C94,61.8 95.1,61.1 96.3,60.6C97.6,60.2 99,59.9 100.4,59.9C101.3,59.9 102.3,59.9 103.3,60C104.3,60.1 105.4,60.2 106.3,60.4C107.3,60.6 108.1,60.7 108.8,60.8L108.7,64.4C108,64.3 107.1,64.2 106.1,64C105.1,63.9 104.2,63.8 103.2,63.7C102.2,63.6 101.4,63.6 100.6,63.6C99.7,63.6 99,63.7 98.3,63.9C97.6,64.1 97.1,64.4 96.7,64.8C96.3,65.3 96.1,65.9 96.1,66.7C96.1,67.3 96.2,67.8 96.5,68.2C96.8,68.6 97.3,68.9 98.1,69.2C98.9,69.5 100.1,69.7 101.6,70C103.5,70.3 105,70.7 106.1,71.2C107.2,71.7 108,72.3 108.6,73.2C109.1,74.1 109.4,75.3 109.4,76.8C109.4,79.6 108.6,81.5 107,82.6C105.7,83.8 103.4,84.4 100.6,84.4Z" style="fill:rgb(124,134,163);fill-rule:nonzero;"/>
            <path d="M122,84.4C121.2,84.4 120.3,84.4 119.3,84.3C118.3,84.2 117.3,84.1 116.3,83.9C115.3,83.8 114.5,83.6 113.7,83.5L113.9,80C114.7,80.1 115.5,80.2 116.5,80.3C117.5,80.4 118.4,80.5 119.4,80.6C120.3,80.7 121.1,80.7 121.6,80.7C122.8,80.7 123.7,80.6 124.5,80.4C125.3,80.2 125.8,79.8 126.2,79.3C126.6,78.8 126.8,78.1 126.8,77.2C126.8,76.5 126.6,75.9 126.3,75.5C126,75.1 125.4,74.8 124.6,74.5C123.8,74.2 122.6,74 121,73.7C119.3,73.4 117.9,73.1 116.8,72.6C115.7,72.2 114.8,71.5 114.3,70.7C113.8,69.8 113.5,68.6 113.5,67.1C113.5,65.3 113.9,63.9 114.7,62.9C115.5,61.9 116.6,61.2 117.8,60.7C119.1,60.3 120.5,60 121.9,60C122.8,60 123.8,60 124.8,60.1C125.8,60.2 126.9,60.3 127.8,60.5C128.8,60.7 129.6,60.8 130.3,60.9L130.2,64.5C129.5,64.4 128.6,64.3 127.6,64.1C126.6,64 125.7,63.9 124.7,63.8C123.7,63.7 122.9,63.7 122.1,63.7C121.2,63.7 120.5,63.8 119.8,64C119.1,64.2 118.6,64.5 118.2,64.9C117.8,65.4 117.6,66 117.6,66.8C117.6,67.4 117.7,67.9 118,68.3C118.3,68.7 118.8,69 119.6,69.3C120.4,69.6 121.6,69.8 123.1,70.1C125,70.4 126.5,70.8 127.6,71.3C128.7,71.8 129.5,72.4 130.1,73.3C130.6,74.2 130.9,75.4 130.9,76.9C130.9,79.7 130.1,81.6 128.5,82.7C127,83.8 124.8,84.4 122,84.4Z" style="fill:rgb(124,134,163);fill-rule:nonzero;"/>
            <path d="M141.1,84.4C138.9,84.4 137.3,83.8 136.2,82.6C135.1,81.4 134.5,79.6 134.5,77.2C134.5,75.6 134.8,74.3 135.3,73.3C135.8,72.3 136.7,71.6 137.7,71.1C138.8,70.6 140.1,70.3 141.7,70.2L148.3,69.5L148.3,67.7C148.3,66.2 148,65.2 147.3,64.6C146.7,64 145.7,63.7 144.4,63.7C143.6,63.7 142.7,63.7 141.6,63.8C140.5,63.9 139.5,63.9 138.5,64C137.5,64.1 136.5,64.2 135.7,64.3L135.5,61.1C136.3,60.9 137.2,60.7 138.2,60.6C139.2,60.4 140.4,60.3 141.5,60.2C142.7,60.1 143.7,60 144.7,60C146.5,60 148,60.3 149.1,60.8C150.3,61.3 151.1,62.2 151.7,63.3C152.2,64.4 152.5,65.9 152.5,67.7L152.5,79.2C152.6,79.8 152.8,80.3 153.3,80.6C153.7,80.9 154.3,81.1 155,81.2L154.9,84.4C154.2,84.4 153.6,84.4 153,84.3C152.4,84.3 151.9,84.2 151.4,84C150.9,83.9 150.5,83.7 150.1,83.5C149.7,83.3 149.4,83 149,82.7C148.5,82.9 147.7,83.2 146.9,83.5C146,83.8 145.1,84 144.1,84.2C143.1,84.4 142.1,84.4 141.1,84.4ZM142,80.9C142.8,80.9 143.5,80.8 144.4,80.7C145.2,80.5 146,80.4 146.7,80.2C147.4,80 148,79.8 148.5,79.7L148.5,72.7L142.4,73.3C141.1,73.4 140.2,73.8 139.7,74.4C139.2,75 138.9,76 138.9,77.1C138.9,78.3 139.2,79.3 139.7,80C140.1,80.6 140.9,80.9 142,80.9Z" style="fill:rgb(124,134,163);fill-rule:nonzero;"/>
        </g>
        <g>
            <path d="M177.2,75.3C185.5,75.3 192.3,68.5 192.3,60.2L185.6,60.2C185.6,64.9 181.8,68.7 177.1,68.7C172.4,68.7 168.6,64.9 168.6,60.2L161.9,60.2C162.1,68.5 168.8,75.3 177.2,75.3Z" style="fill:rgb(124,134,163);fill-rule:nonzero;"/>
            <path d="M171.8,41.3L162.9,54.1L170.4,54.1L177.2,44.3L184,54.1L191.5,54.1L177.2,33.6L171.8,41.3" style="fill:rgb(124,134,163);fill-rule:nonzero;"/>
        </g>
    </g>
</svg>
