<?xml version="1.0" encoding="UTF-8" standalone="no"?>
<!DOCTYPE svg PUBLIC "-//W3C//DTD SVG 1.1//EN" "http://www.w3.org/Graphics/SVG/1.1/DTD/svg11.dtd">
<svg width="100%" height="100%" viewBox="0 0 200 200" version="1.1" xmlns="http://www.w3.org/2000/svg" xmlns:xlink="http://www.w3.org/1999/xlink" xml:space="preserve" xmlns:serif="http://www.serif.com/" style="fill-rule:evenodd;clip-rule:evenodd;stroke-linejoin:round;stroke-miterlimit:2;">
    <path d="M100,5.588C152.107,5.588 194.412,47.893 194.412,100C194.412,152.107 152.107,194.412 100,194.412C47.893,194.412 5.588,152.107 5.588,100C5.588,47.893 47.893,5.588 100,5.588ZM100,22.255C57.091,22.255 22.255,57.091 22.255,100C22.255,142.909 57.091,177.745 100,177.745C142.909,177.745 177.745,142.909 177.745,100C177.745,57.091 142.909,22.255 100,22.255ZM52.048,101.546C48.796,98.294 48.796,93.013 52.048,89.761C55.3,86.509 60.581,86.509 63.833,89.761L88.878,114.805L136.167,67.517C139.419,64.265 144.7,64.265 147.952,67.517C151.204,70.769 151.204,76.05 147.952,79.302L94.771,132.483C91.516,135.737 86.24,135.737 82.985,132.483L52.048,101.546Z" style="fill:rgb(39,185,0);"/>
</svg>
