<?xml version="1.0" encoding="UTF-8" standalone="no"?>
<!DOCTYPE svg PUBLIC "-//W3C//DTD SVG 1.1//EN" "http://www.w3.org/Graphics/SVG/1.1/DTD/svg11.dtd">
<svg width="100%" height="100%" viewBox="0 0 50 50" version="1.1" xmlns="http://www.w3.org/2000/svg" xmlns:xlink="http://www.w3.org/1999/xlink" xml:space="preserve" xmlns:serif="http://www.serif.com/" style="fill-rule:evenodd;clip-rule:evenodd;stroke-linejoin:round;stroke-miterlimit:2;">
    <g>
        <g transform="matrix(1,0,0,1,32.2646,21.8772)">
            <path d="M0,5.534C-0.783,5.065 -1.802,4.543 -2.725,4.921C-3.432,5.21 -3.884,6.317 -4.343,6.884C-4.578,7.174 -4.858,7.22 -5.221,7.074C-7.877,6.015 -9.912,4.242 -11.378,1.799C-11.627,1.419 -11.582,1.119 -11.283,0.767C-10.84,0.246 -10.284,-0.346 -10.164,-1.049C-10.044,-1.752 -10.374,-2.573 -10.664,-3.198C-11.035,-3.998 -11.45,-5.139 -12.251,-5.591C-12.988,-6.007 -13.957,-5.774 -14.613,-5.239C-15.745,-4.318 -16.292,-2.873 -16.275,-1.442C-16.271,-1.034 -16.221,-0.629 -16.125,-0.237C-15.897,0.709 -15.461,1.59 -14.969,2.429C-14.599,3.06 -14.196,3.675 -13.763,4.264C-12.341,6.194 -10.573,7.872 -8.526,9.126C-7.504,9.752 -6.402,10.302 -5.262,10.679C-3.982,11.1 -2.843,11.541 -1.461,11.278C-0.015,11.004 1.411,10.108 1.985,8.715C2.155,8.303 2.24,7.843 2.146,7.407C1.949,6.506 0.729,5.97 0,5.534" style="fill:white;fill-rule:nonzero;"/>
        </g>
        <g transform="matrix(1,0,0,1,25.1875,9.8065)">
            <path d="M0,30.387C-2.758,30.387 -5.481,29.633 -7.876,28.206L-8.528,27.818L-14.313,29.367L-12.771,23.616L-13.172,22.958C-14.647,20.534 -15.428,17.768 -15.428,14.959C-15.428,6.451 -8.507,-0.468 0,-0.468C8.507,-0.468 15.429,6.451 15.429,14.959C15.429,23.466 8.507,30.387 0,30.387M0,-4.065C-10.489,-4.065 -19.024,4.469 -19.024,14.959C-19.024,18.167 -18.201,21.329 -16.638,24.15L-19.399,34.452L-9.043,31.678C-6.259,33.189 -3.149,33.984 0,33.984C10.49,33.984 19.024,25.45 19.024,14.959C19.024,4.469 10.49,-4.065 0,-4.065" style="fill:white;fill-rule:nonzero;"/>
        </g>
    </g>
</svg>
