<?xml version="1.0" encoding="UTF-8" standalone="no"?>
<!DOCTYPE svg PUBLIC "-//W3C//DTD SVG 1.1//EN" "http://www.w3.org/Graphics/SVG/1.1/DTD/svg11.dtd">
<svg width="100%" height="100%" viewBox="0 0 1000 400" version="1.1" xmlns="http://www.w3.org/2000/svg" xmlns:xlink="http://www.w3.org/1999/xlink" xml:space="preserve" xmlns:serif="http://www.serif.com/" style="fill-rule:evenodd;clip-rule:evenodd;stroke-linejoin:round;stroke-miterlimit:2;">
    <g transform="matrix(6.52969,0,0,6.52969,-30.8827,-9.90446)">
        <g>
            <g transform="matrix(1,0,0,1,34.9136,18.1841)">
                <path d="M0,17.322C0,17.965 -0.077,18.59 -0.217,19.19C0.02,19.206 0.259,19.218 0.5,19.218C6.321,19.218 11.057,14.482 11.057,8.661C11.057,2.84 6.321,-1.896 0.5,-1.896C-5.32,-1.896 -10.056,2.84 -10.056,8.661C-10.056,8.902 -10.045,9.141 -10.029,9.379C-9.429,9.238 -8.804,9.161 -8.161,9.161C-3.654,9.161 0,12.815 0,17.322" style="fill:rgb(10,31,96);fill-rule:nonzero;"/>
            </g>
            <g transform="matrix(1,0,0,1,35.4141,31.4278)">
                <path d="M0,7.943C-0.484,7.943 -0.96,7.913 -1.429,7.859C-2.144,7.777 -2.839,7.635 -3.511,7.438C-7.485,6.276 -10.646,3.194 -11.918,-0.732C-12.169,-1.509 -12.347,-2.319 -12.442,-3.154C-12.496,-3.623 -12.526,-4.099 -12.526,-4.583C-12.526,-5.015 -12.504,-5.442 -12.461,-5.863L-17.729,5.328C-17.729,5.328 -17.729,5.329 -17.73,5.329C-18.167,6.132 -18.387,7.302 -18.387,8.281C-18.387,11.407 -16.405,13.546 -13.286,13.736C-12.145,13.806 -10.848,13.558 -9.842,13.068C-9.818,13.054 0.918,7.905 0.918,7.905C0.615,7.928 0.309,7.943 0,7.943" style="fill:rgb(25,38,170);fill-rule:nonzero;"/>
            </g>
            <g transform="matrix(1,0,0,1,53.1284,32.7356)">
                <path d="M0,-10.294L5,-10.294L5,-8.823L3.309,-8.823L3.309,0L1.691,0L1.691,-8.823L0,-8.823L0,-10.294Z" style="fill:rgb(25,38,170);fill-rule:nonzero;"/>
            </g>
            <g transform="matrix(1,0,0,1,60.3779,32.8676)">
                <path d="M0,-10.426L0,-2.485C0,-2.113 0.076,-1.853 0.228,-1.706C0.38,-1.559 0.583,-1.485 0.838,-1.485C1.093,-1.485 1.296,-1.559 1.448,-1.706C1.601,-1.853 1.677,-2.113 1.677,-2.485L1.677,-10.426L3.206,-10.426L3.206,-2.588C3.206,-1.755 3.002,-1.115 2.596,-0.669C2.188,-0.223 1.588,0 0.794,0C0,0 -0.601,-0.223 -1.007,-0.669C-1.414,-1.115 -1.618,-1.755 -1.618,-2.588L-1.618,-10.426L0,-10.426Z" style="fill:rgb(25,38,170);fill-rule:nonzero;"/>
            </g>
            <g transform="matrix(1,0,0,1,66.3042,27.0732)">
                <path d="M0,1.03L0,4.192L0.926,4.192C1.201,4.192 1.409,4.118 1.551,3.971C1.693,3.824 1.765,3.559 1.765,3.177L1.765,2.28C1.765,1.8 1.684,1.471 1.522,1.295C1.36,1.118 1.093,1.03 0.72,1.03L0,1.03ZM0,-3.161L0,-0.441L0.632,-0.441C0.936,-0.441 1.174,-0.519 1.346,-0.676C1.517,-0.833 1.603,-1.117 1.603,-1.529L1.603,-2.102C1.603,-2.475 1.537,-2.744 1.404,-2.911C1.272,-3.077 1.063,-3.161 0.779,-3.161L0,-3.161ZM0.823,-4.632C1.667,-4.632 2.277,-4.435 2.654,-4.044C3.032,-3.651 3.221,-3.058 3.221,-2.264L3.221,-1.896C3.221,-1.367 3.137,-0.93 2.971,-0.588C2.804,-0.244 2.539,0.01 2.176,0.177C2.617,0.344 2.929,0.616 3.11,0.993C3.292,1.371 3.382,1.834 3.382,2.383L3.382,3.221C3.382,4.015 3.176,4.62 2.765,5.037C2.353,5.454 1.74,5.662 0.926,5.662L-1.618,5.662L-1.618,-4.632L0.823,-4.632Z" style="fill:rgb(25,38,170);fill-rule:nonzero;"/>
            </g>
            <g transform="matrix(1,0,0,1,72.1421,24.8089)">
                <path d="M0,5.559C0,5.932 0.076,6.194 0.228,6.346C0.38,6.498 0.583,6.574 0.838,6.574C1.093,6.574 1.296,6.498 1.448,6.346C1.601,6.194 1.676,5.932 1.676,5.559L1.676,-0C1.676,-0.372 1.601,-0.634 1.448,-0.786C1.296,-0.938 1.093,-1.014 0.838,-1.014C0.583,-1.014 0.38,-0.938 0.228,-0.786C0.076,-0.634 0,-0.372 0,-0L0,5.559ZM-1.618,0.103C-1.618,-0.73 -1.407,-1.37 -0.985,-1.816C-0.564,-2.262 0.044,-2.485 0.838,-2.485C1.632,-2.485 2.24,-2.262 2.662,-1.816C3.083,-1.37 3.294,-0.73 3.294,0.103L3.294,5.456C3.294,6.289 3.083,6.929 2.662,7.375C2.24,7.821 1.632,8.044 0.838,8.044C0.044,8.044 -0.564,7.821 -0.985,7.375C-1.407,6.929 -1.618,6.289 -1.618,5.456L-1.618,0.103Z" style="fill:rgb(25,38,170);fill-rule:nonzero;"/>
            </g>
            <g transform="matrix(1,0,0,1,76.2739,30.2648)">
                <path d="M0,-5.353C0,-6.186 0.199,-6.826 0.596,-7.272C0.993,-7.718 1.588,-7.941 2.382,-7.941C3.177,-7.941 3.772,-7.718 4.169,-7.272C4.566,-6.826 4.765,-6.186 4.765,-5.353L4.765,-5.029L3.235,-5.029L3.235,-5.456C3.235,-5.828 3.164,-6.09 3.022,-6.242C2.88,-6.394 2.682,-6.47 2.427,-6.47C2.171,-6.47 1.973,-6.394 1.831,-6.242C1.689,-6.09 1.618,-5.828 1.618,-5.456C1.618,-5.103 1.696,-4.791 1.853,-4.522C2.01,-4.252 2.206,-3.997 2.441,-3.757C2.677,-3.517 2.929,-3.277 3.199,-3.037C3.468,-2.796 3.721,-2.534 3.956,-2.25C4.191,-1.965 4.387,-1.642 4.544,-1.279C4.701,-0.916 4.779,-0.49 4.779,-0C4.779,0.834 4.576,1.473 4.169,1.919C3.762,2.365 3.162,2.588 2.368,2.588C1.574,2.588 0.973,2.365 0.566,1.919C0.16,1.473 -0.044,0.834 -0.044,-0L-0.044,-0.632L1.485,-0.632L1.485,0.103C1.485,0.476 1.561,0.735 1.713,0.882C1.865,1.029 2.069,1.103 2.324,1.103C2.579,1.103 2.782,1.029 2.934,0.882C3.086,0.735 3.162,0.476 3.162,0.103C3.162,-0.25 3.083,-0.561 2.927,-0.831C2.77,-1.1 2.574,-1.355 2.338,-1.596C2.103,-1.835 1.851,-2.076 1.581,-2.316C1.311,-2.556 1.059,-2.818 0.824,-3.103C0.588,-3.387 0.392,-3.71 0.235,-4.073C0.079,-4.436 0,-4.862 0,-5.353" style="fill:rgb(25,38,170);fill-rule:nonzero;"/>
            </g>
            <g transform="matrix(1,0,0,1,0,-86.554)">
                <rect x="84.259" y="108.996" width="1.618" height="10.294" style="fill:rgb(25,38,170);"/>
            </g>
            <g transform="matrix(1,0,0,1,88.4941,29.898)">
                <path d="M0,-4.618L0,2.838L-1.456,2.838L-1.456,-7.456L0.573,-7.456L2.235,-1.295L2.235,-7.456L3.676,-7.456L3.676,2.838L2.014,2.838L0,-4.618Z" style="fill:rgb(25,38,170);fill-rule:nonzero;"/>
            </g>
            <g transform="matrix(1,0,0,1,94.9497,31.2643)">
                <path d="M0,-7.352L0,0.001L0.911,0.001C1.166,0.001 1.367,-0.073 1.515,-0.22C1.662,-0.367 1.735,-0.627 1.735,-0.999L1.735,-6.352C1.735,-6.725 1.662,-6.984 1.515,-7.132C1.367,-7.279 1.166,-7.352 0.911,-7.352L0,-7.352ZM-1.618,-8.823L0.941,-8.823C1.754,-8.823 2.36,-8.607 2.757,-8.176C3.154,-7.744 3.353,-7.112 3.353,-6.279L3.353,-1.073C3.353,-0.24 3.154,0.393 2.757,0.824C2.36,1.255 1.754,1.471 0.941,1.471L-1.618,1.471L-1.618,-8.823Z" style="fill:rgb(25,38,170);fill-rule:nonzero;"/>
            </g>
            <g transform="matrix(1,0,0,1,100.875,32.8676)">
                <path d="M0,-10.426L0,-2.485C0,-2.113 0.076,-1.853 0.228,-1.706C0.38,-1.559 0.583,-1.485 0.838,-1.485C1.093,-1.485 1.296,-1.559 1.449,-1.706C1.601,-1.853 1.677,-2.113 1.677,-2.485L1.677,-10.426L3.206,-10.426L3.206,-2.588C3.206,-1.755 3.002,-1.115 2.596,-0.669C2.189,-0.223 1.588,0 0.794,0C0,0 -0.601,-0.223 -1.007,-0.669C-1.414,-1.115 -1.617,-1.755 -1.617,-2.588L-1.617,-10.426L0,-10.426Z" style="fill:rgb(25,38,170);fill-rule:nonzero;"/>
            </g>
            <g transform="matrix(1,0,0,1,104.978,30.2648)">
                <path d="M0,-5.353C0,-6.186 0.199,-6.826 0.596,-7.272C0.993,-7.718 1.588,-7.941 2.382,-7.941C3.177,-7.941 3.772,-7.718 4.169,-7.272C4.566,-6.826 4.765,-6.186 4.765,-5.353L4.765,-5.029L3.235,-5.029L3.235,-5.456C3.235,-5.828 3.164,-6.09 3.022,-6.242C2.88,-6.394 2.682,-6.47 2.427,-6.47C2.172,-6.47 1.973,-6.394 1.831,-6.242C1.689,-6.09 1.618,-5.828 1.618,-5.456C1.618,-5.103 1.696,-4.791 1.853,-4.522C2.01,-4.252 2.206,-3.997 2.441,-3.757C2.677,-3.517 2.929,-3.277 3.199,-3.037C3.468,-2.796 3.721,-2.534 3.956,-2.25C4.191,-1.965 4.387,-1.642 4.544,-1.279C4.701,-0.916 4.779,-0.49 4.779,-0C4.779,0.834 4.576,1.473 4.169,1.919C3.762,2.365 3.162,2.588 2.368,2.588C1.574,2.588 0.973,2.365 0.566,1.919C0.16,1.473 -0.044,0.834 -0.044,-0L-0.044,-0.632L1.485,-0.632L1.485,0.103C1.485,0.476 1.562,0.735 1.713,0.882C1.865,1.029 2.069,1.103 2.324,1.103C2.579,1.103 2.782,1.029 2.934,0.882C3.086,0.735 3.162,0.476 3.162,0.103C3.162,-0.25 3.083,-0.561 2.927,-0.831C2.77,-1.1 2.574,-1.355 2.338,-1.596C2.103,-1.835 1.851,-2.076 1.581,-2.316C1.312,-2.556 1.059,-2.818 0.824,-3.103C0.588,-3.387 0.392,-3.71 0.235,-4.073C0.079,-4.436 0,-4.862 0,-5.353" style="fill:rgb(25,38,170);fill-rule:nonzero;"/>
            </g>
            <g transform="matrix(1,0,0,1,110.213,32.7356)">
                <path d="M0,-10.294L5,-10.294L5,-8.823L3.309,-8.823L3.309,0L1.691,0L1.691,-8.823L0,-8.823L0,-10.294Z" style="fill:rgb(25,38,170);fill-rule:nonzero;"/>
            </g>
            <g transform="matrix(1,0,0,1,117.537,31.2643)">
                <path d="M0,-7.352L0,-4.19L0.632,-4.19C0.936,-4.19 1.174,-4.269 1.345,-4.426C1.517,-4.582 1.603,-4.867 1.603,-5.279L1.603,-6.293C1.603,-6.666 1.536,-6.935 1.404,-7.102C1.271,-7.269 1.063,-7.352 0.779,-7.352L0,-7.352ZM1.764,1.471C1.745,1.402 1.725,1.338 1.706,1.28C1.686,1.221 1.669,1.148 1.654,1.059C1.64,0.971 1.629,0.858 1.625,0.721C1.62,0.584 1.617,0.412 1.617,0.206L1.617,-1.411C1.617,-1.892 1.534,-2.229 1.367,-2.426C1.201,-2.622 0.931,-2.72 0.559,-2.72L0,-2.72L0,1.471L-1.618,1.471L-1.618,-8.823L0.823,-8.823C1.666,-8.823 2.276,-8.626 2.654,-8.235C3.031,-7.842 3.22,-7.249 3.22,-6.455L3.22,-5.646C3.22,-4.587 2.867,-3.892 2.162,-3.558C2.573,-3.392 2.855,-3.119 3.007,-2.742C3.159,-2.364 3.235,-1.906 3.235,-1.367L3.235,0.221C3.235,0.476 3.245,0.699 3.264,0.89C3.284,1.082 3.333,1.275 3.412,1.471L1.764,1.471Z" style="fill:rgb(25,38,170);fill-rule:nonzero;"/>
            </g>
            <g transform="matrix(1,0,0,1,0,-86.554)">
                <rect x="121.83" y="108.996" width="1.618" height="10.294" style="fill:rgb(25,38,170);"/>
            </g>
            <g transform="matrix(1,0,0,1,126.168,25.7069)">
                <path d="M0,3.764L1.559,3.764L0.78,-1.442L0,3.764ZM3.691,7.029L2.059,7.029L1.78,5.161L-0.206,5.161L-0.485,7.029L-1.97,7.029L-0.323,-3.265L2.044,-3.265L3.691,7.029Z" style="fill:rgb(25,38,170);fill-rule:nonzero;"/>
            </g>
            <g transform="matrix(1,0,0,1,130.609,32.7356)">
                <path d="M0,-10.294L1.617,-10.294L1.617,-1.471L4.279,-1.471L4.279,0L0,0L0,-10.294Z" style="fill:rgb(25,38,170);fill-rule:nonzero;"/>
            </g>
            <g transform="matrix(1,0,0,1,137.212,28.3975)">
                <path d="M0,-1.618L2.221,-1.618L2.221,-0.147L0,-0.147L0,2.867L2.794,2.867L2.794,4.338L-1.617,4.338L-1.617,-5.956L2.794,-5.956L2.794,-4.485L0,-4.485L0,-1.618Z" style="fill:rgb(25,38,170);fill-rule:nonzero;"/>
            </g>
            <g transform="matrix(1,0,0,1,140.8,30.2648)">
                <path d="M0,-5.353C0,-6.186 0.198,-6.826 0.596,-7.272C0.993,-7.718 1.588,-7.941 2.382,-7.941C3.177,-7.941 3.771,-7.718 4.169,-7.272C4.566,-6.826 4.765,-6.186 4.765,-5.353L4.765,-5.029L3.235,-5.029L3.235,-5.456C3.235,-5.828 3.164,-6.09 3.021,-6.242C2.88,-6.394 2.682,-6.47 2.427,-6.47C2.172,-6.47 1.973,-6.394 1.831,-6.242C1.688,-6.09 1.617,-5.828 1.617,-5.456C1.617,-5.103 1.696,-4.791 1.853,-4.522C2.01,-4.252 2.206,-3.997 2.441,-3.757C2.677,-3.517 2.929,-3.277 3.198,-3.037C3.468,-2.796 3.721,-2.534 3.956,-2.25C4.191,-1.965 4.387,-1.642 4.544,-1.279C4.701,-0.916 4.779,-0.49 4.779,-0C4.779,0.834 4.576,1.473 4.169,1.919C3.762,2.365 3.161,2.588 2.367,2.588C1.573,2.588 0.973,2.365 0.566,1.919C0.159,1.473 -0.044,0.834 -0.044,-0L-0.044,-0.632L1.485,-0.632L1.485,0.103C1.485,0.476 1.562,0.735 1.713,0.882C1.865,1.029 2.068,1.103 2.323,1.103C2.578,1.103 2.782,1.029 2.934,0.882C3.086,0.735 3.161,0.476 3.161,0.103C3.161,-0.25 3.083,-0.561 2.927,-0.831C2.77,-1.1 2.573,-1.355 2.338,-1.596C2.103,-1.835 1.851,-2.076 1.581,-2.316C1.312,-2.556 1.059,-2.818 0.823,-3.103C0.588,-3.387 0.392,-3.71 0.235,-4.073C0.078,-4.436 0,-4.862 0,-5.353" style="fill:rgb(25,38,170);fill-rule:nonzero;"/>
            </g>
            <g transform="matrix(1,0,0,1,55.959,43.3451)">
                <path d="M0,-6.882C-0.152,-6.691 -0.228,-6.443 -0.228,-6.14C-0.228,-5.924 -0.191,-5.728 -0.118,-5.551C-0.044,-5.375 0.135,-5.081 0.419,-4.669C0.449,-4.62 0.483,-4.61 0.522,-4.639C0.826,-4.884 1.059,-5.13 1.221,-5.375C1.382,-5.62 1.463,-5.884 1.463,-6.169C1.463,-6.463 1.382,-6.703 1.221,-6.89C1.059,-7.076 0.855,-7.169 0.61,-7.169C0.355,-7.169 0.152,-7.073 0,-6.882M1.757,-0.213C1.796,-0.243 1.802,-0.277 1.772,-0.316L1.228,-1.022L0.213,-2.345C0.184,-2.384 0.149,-2.39 0.11,-2.361C-0.478,-1.87 -0.772,-1.361 -0.772,-0.831C-0.772,-0.488 -0.669,-0.203 -0.463,0.022C-0.257,0.248 0.032,0.36 0.404,0.36C0.846,0.36 1.296,0.169 1.757,-0.213M5.022,1.596C5.022,1.664 4.973,1.699 4.875,1.699L3.419,1.699C3.331,1.699 3.257,1.664 3.199,1.596L2.772,1.022C2.743,0.993 2.708,0.988 2.669,1.007C1.963,1.556 1.154,1.831 0.243,1.831C-0.601,1.831 -1.265,1.615 -1.75,1.184C-2.235,0.752 -2.478,0.125 -2.478,-0.698C-2.478,-1.346 -2.331,-1.897 -2.037,-2.353C-1.743,-2.809 -1.34,-3.237 -0.831,-3.639C-0.792,-3.669 -0.787,-3.703 -0.816,-3.743C-1.287,-4.399 -1.59,-4.882 -1.728,-5.191C-1.865,-5.5 -1.934,-5.836 -1.934,-6.198C-1.934,-6.963 -1.706,-7.573 -1.25,-8.029C-0.794,-8.485 -0.189,-8.713 0.566,-8.713C1.066,-8.713 1.512,-8.608 1.904,-8.397C2.296,-8.186 2.605,-7.889 2.831,-7.507C3.056,-7.125 3.169,-6.684 3.169,-6.184C3.169,-5.576 3.015,-5.054 2.706,-4.617C2.397,-4.181 1.978,-3.762 1.448,-3.36C1.409,-3.331 1.404,-3.297 1.434,-3.257C1.473,-3.198 1.659,-2.944 1.993,-2.493L2.757,-1.448C2.777,-1.429 2.796,-1.419 2.816,-1.419C2.836,-1.419 2.851,-1.429 2.86,-1.448C3.105,-1.792 3.331,-2.164 3.537,-2.566C3.596,-2.674 3.679,-2.698 3.787,-2.64L4.787,-2.066C4.885,-1.997 4.904,-1.919 4.846,-1.831C4.512,-1.194 4.169,-0.64 3.816,-0.169C3.787,-0.13 3.782,-0.096 3.801,-0.066C4.046,0.238 4.438,0.752 4.978,1.478C5.007,1.517 5.022,1.556 5.022,1.596" style="fill:rgb(25,38,170);fill-rule:nonzero;"/>
            </g>
            <g transform="matrix(1,0,0,1,66.0396,43.5724)">
                <path d="M0,-7.352L0,-3.867L0.765,-3.867C1.02,-3.867 1.215,-3.935 1.353,-4.073C1.49,-4.21 1.559,-4.465 1.559,-4.837L1.559,-6.382C1.559,-6.754 1.49,-7.009 1.353,-7.146C1.215,-7.284 1.02,-7.352 0.765,-7.352L0,-7.352ZM0.765,-8.823C1.578,-8.823 2.184,-8.607 2.581,-8.176C2.978,-7.744 3.176,-7.112 3.176,-6.279L3.176,-4.94C3.176,-4.107 2.978,-3.475 2.581,-3.043C2.184,-2.612 1.578,-2.396 0.765,-2.396L0,-2.396L0,1.471L-1.618,1.471L-1.618,-8.823L0.765,-8.823Z" style="fill:rgb(25,38,170);fill-rule:nonzero;"/>
            </g>
            <g transform="matrix(1,0,0,1,72.48,36.6467)">
                <path d="M0,6.5L1.235,-1.897L2.721,-1.897L1.133,8.397L-1.279,8.397L-2.867,-1.897L-1.235,-1.897L0,6.5Z" style="fill:rgb(25,38,170);fill-rule:nonzero;"/>
            </g>
            <g transform="matrix(1,0,0,1,80.627,38.5883)">
                <path d="M0,2.617L0,3.985C0,4.818 -0.204,5.458 -0.61,5.904C-1.017,6.35 -1.618,6.573 -2.412,6.573C-3.206,6.573 -3.806,6.35 -4.213,5.904C-4.62,5.458 -4.823,4.818 -4.823,3.985L-4.823,-1.368C-4.823,-2.201 -4.62,-2.841 -4.213,-3.287C-3.806,-3.733 -3.206,-3.956 -2.412,-3.956C-1.618,-3.956 -1.017,-3.733 -0.61,-3.287C-0.204,-2.841 0,-2.201 0,-1.368L0,-0.368L-1.529,-0.368L-1.529,-1.471C-1.529,-1.843 -1.605,-2.106 -1.757,-2.258C-1.909,-2.409 -2.113,-2.486 -2.368,-2.486C-2.623,-2.486 -2.826,-2.409 -2.978,-2.258C-3.13,-2.106 -3.206,-1.843 -3.206,-1.471L-3.206,4.088C-3.206,4.46 -3.13,4.72 -2.978,4.867C-2.826,5.014 -2.623,5.088 -2.368,5.088C-2.113,5.088 -1.909,5.014 -1.757,4.867C-1.605,4.72 -1.529,4.46 -1.529,4.088L-1.529,2.617L0,2.617Z" style="fill:rgb(25,38,170);fill-rule:nonzero;"/>
            </g>
        </g>
    </g>
</svg>
