<?xml version="1.0" encoding="UTF-8" standalone="no"?>
<!DOCTYPE svg PUBLIC "-//W3C//DTD SVG 1.1//EN" "http://www.w3.org/Graphics/SVG/1.1/DTD/svg11.dtd">
<svg width="100%" height="100%" viewBox="0 0 1000 400" version="1.1" xmlns="http://www.w3.org/2000/svg" xmlns:xlink="http://www.w3.org/1999/xlink" xml:space="preserve" xmlns:serif="http://www.serif.com/" style="fill-rule:evenodd;clip-rule:evenodd;stroke-linejoin:round;stroke-miterlimit:2;">
    <g transform="matrix(0,-0.716608,-0.716608,0,928.537,119.067)">
        <g transform="matrix(0.866025,0.5,-0.5,0.866025,443.953,191.496)">
            <path d="M-173.834,834.458C-173.891,834.913 -173.874,835.384 -173.773,835.857C-164.305,879.954 -140.86,982.949 -130.352,1009.14C-120.021,1034.89 -92.259,1043.33 -68.996,1037.79C-53.303,1034.06 -39.803,1023.99 -34.885,1009.01C-26.755,984.247 -19.108,893.198 -9.132,824.222C-9.075,823.822 -9.075,823.427 -9.128,823.046C-1.581,780.128 -28.007,737.752 -70.888,726.262C-116.22,714.115 -162.886,741.058 -175.033,786.39C-179.431,802.806 -178.704,819.396 -173.834,834.458ZM-21.711,854.941C-29.564,917.046 -35.981,985.505 -42.84,1006.39C-46.858,1018.63 -58.113,1026.59 -70.936,1029.65C-90.446,1034.29 -113.917,1027.62 -122.582,1006.02C-131.223,984.485 -148.634,910.582 -159.687,861.01C-148.727,874.951 -133.336,885.597 -114.904,890.535C-78.52,900.285 -41.276,884.852 -21.711,854.941ZM-18.847,828.24C-29.798,869.109 -71.869,893.399 -112.737,882.448C-153.606,871.497 -177.896,829.426 -166.945,788.557C-155.994,747.689 -113.923,723.399 -73.055,734.35C-32.186,745.3 -7.896,787.371 -18.847,828.24ZM-34.47,824.054C-25.83,791.808 -44.995,758.613 -77.241,749.973C-109.487,741.333 -142.682,760.497 -151.322,792.744C-159.962,824.99 -140.797,858.184 -108.551,866.825C-76.305,875.465 -43.111,856.3 -34.47,824.054ZM-42.558,821.887C-50.002,849.669 -78.602,866.181 -106.384,858.737C-134.167,851.293 -150.679,822.693 -143.234,794.911C-135.79,767.128 -107.19,750.616 -79.408,758.06C-51.625,765.505 -35.113,794.104 -42.558,821.887Z" style="fill:rgb(25,38,170);"/>
        </g>
        <g transform="matrix(1.00178,-1.00178,-1.00178,-1.00178,-532.741,1083.33)">
            <path d="M626.788,212.059C617.351,217.935 606.212,221.332 594.286,221.332C560.286,221.332 532.682,193.728 532.682,159.728C532.682,125.728 560.286,98.124 594.286,98.124C606.212,98.124 617.351,101.521 626.788,107.397C636.224,101.52 647.363,98.124 659.289,98.124C693.289,98.124 720.893,125.728 720.893,159.728C720.893,193.728 693.289,221.332 659.289,221.332C647.363,221.332 636.224,217.936 626.788,212.059ZM628.428,206.085C637.264,211.983 647.878,215.422 659.289,215.422C690.028,215.422 714.983,190.466 714.983,159.728C714.983,128.99 690.028,104.034 659.289,104.034C647.878,104.034 637.264,107.473 628.428,113.371C613.462,123.36 603.595,140.401 603.595,159.728C603.595,179.055 613.462,196.096 628.428,206.085Z" style="fill:rgb(25,38,170);"/>
        </g>
        <g transform="matrix(0,-1.39546,-1.39546,0,185.375,1464.58)">
            <path d="M308.258,310.968L308.258,308.728L323.406,308.728L323.406,310.968L317.05,310.968L317.05,328.328L314.614,328.328L314.614,310.968L308.258,310.968ZM334.382,321.188L334.382,314.048L336.678,314.048L336.678,328.328L334.69,328.328L334.382,326.424C333.542,327.488 332.17,328.496 329.818,328.496C326.682,328.496 324.19,326.732 324.19,322L324.19,314.048L326.486,314.048L326.486,321.86C326.486,324.828 327.83,326.396 330.21,326.396C332.814,326.396 334.382,324.408 334.382,321.188ZM347.01,313.88C350.958,313.88 353.87,316.54 353.87,321.188C353.87,325.556 350.958,328.496 347.01,328.496C344.602,328.496 342.978,327.516 342.11,326.144L341.802,328.328L339.814,328.328L339.814,308.728L342.11,308.728L342.11,316.344C343.062,315.028 344.602,313.88 347.01,313.88ZM346.786,326.452C349.614,326.452 351.518,324.296 351.518,321.188C351.518,318.08 349.614,315.924 346.786,315.924C343.986,315.924 342.082,318.08 342.082,321.132C342.082,324.268 343.986,326.452 346.786,326.452ZM363.082,328.496C358.91,328.496 355.998,325.528 355.998,321.188C355.998,316.848 358.91,313.88 363.082,313.88C367.254,313.88 370.166,316.848 370.166,321.188C370.166,325.528 367.254,328.496 363.082,328.496ZM363.082,326.452C365.91,326.452 367.814,324.24 367.814,321.188C367.814,318.136 365.91,315.924 363.082,315.924C360.254,315.924 358.35,318.136 358.35,321.188C358.35,324.24 360.254,326.452 363.082,326.452ZM391.39,316.232L391.39,308.728L393.686,308.728L393.686,328.328L391.698,328.328L391.39,326.032C390.438,327.348 388.898,328.496 386.49,328.496C382.542,328.496 379.63,325.836 379.63,321.188C379.63,316.82 382.542,313.88 386.49,313.88C388.898,313.88 390.522,314.86 391.39,316.232ZM386.714,326.452C389.514,326.452 391.418,324.296 391.418,321.244C391.418,318.108 389.514,315.924 386.714,315.924C383.886,315.924 381.982,318.08 381.982,321.188C381.982,324.296 383.886,326.452 386.714,326.452ZM403.402,328.496C399.118,328.496 396.318,325.556 396.318,321.188C396.318,316.848 399.062,313.88 403.094,313.88C407.126,313.88 409.758,316.428 409.87,320.656C409.87,320.964 409.842,321.3 409.814,321.636L398.726,321.636L398.726,321.832C398.81,324.548 400.518,326.452 403.234,326.452C405.25,326.452 406.818,325.388 407.294,323.54L409.618,323.54C409.058,326.396 406.706,328.496 403.402,328.496ZM398.866,319.732L407.406,319.732C407.182,317.268 405.502,315.896 403.122,315.896C401.022,315.896 399.09,317.408 398.866,319.732ZM432.466,326.228L433.194,326.228L433.194,328.328L431.934,328.328C430.03,328.328 429.386,327.516 429.358,326.116C428.462,327.404 427.034,328.496 424.57,328.496C421.434,328.496 419.306,326.928 419.306,324.324C419.306,321.468 421.294,319.872 425.046,319.872L429.246,319.872L429.246,318.892C429.246,317.044 427.93,315.924 425.69,315.924C423.674,315.924 422.33,316.876 422.05,318.332L419.754,318.332C420.09,315.532 422.358,313.88 425.802,313.88C429.442,313.88 431.542,315.7 431.542,319.032L431.542,325.276C431.542,326.032 431.822,326.228 432.466,326.228ZM429.246,322.504L429.246,321.804L424.822,321.804C422.778,321.804 421.63,322.56 421.63,324.184C421.63,325.584 422.834,326.536 424.738,326.536C427.594,326.536 429.246,324.884 429.246,322.504ZM441.202,328.496C437.03,328.496 434.286,325.668 434.286,321.216C434.286,316.848 437.114,313.88 441.258,313.88C444.758,313.88 446.97,315.84 447.558,318.976L445.15,318.976C444.73,317.072 443.33,315.924 441.23,315.924C438.486,315.924 436.638,318.108 436.638,321.216C436.638,324.324 438.486,326.452 441.23,326.452C443.274,326.452 444.674,325.276 445.122,323.456L447.558,323.456C446.998,326.536 444.674,328.496 441.202,328.496ZM456.658,328.496C452.374,328.496 449.574,325.556 449.574,321.188C449.574,316.848 452.318,313.88 456.35,313.88C460.382,313.88 463.014,316.428 463.126,320.656C463.126,320.964 463.098,321.3 463.07,321.636L451.982,321.636L451.982,321.832C452.066,324.548 453.774,326.452 456.49,326.452C458.506,326.452 460.074,325.388 460.55,323.54L462.874,323.54C462.314,326.396 459.962,328.496 456.658,328.496ZM452.122,319.732L460.662,319.732C460.438,317.268 458.758,315.896 456.378,315.896C454.278,315.896 452.346,317.408 452.122,319.732ZM472.366,314.048L473.01,314.048L473.01,316.288L471.862,316.288C468.866,316.288 468.054,318.78 468.054,321.048L468.054,328.328L465.758,328.328L465.758,314.048L467.746,314.048L468.054,316.204C468.726,315.112 469.818,314.048 472.366,314.048ZM480.766,328.496C476.594,328.496 473.682,325.528 473.682,321.188C473.682,316.848 476.594,313.88 480.766,313.88C484.938,313.88 487.85,316.848 487.85,321.188C487.85,325.528 484.938,328.496 480.766,328.496ZM480.766,326.452C483.594,326.452 485.498,324.24 485.498,321.188C485.498,318.136 483.594,315.924 480.766,315.924C477.938,315.924 476.034,318.136 476.034,321.188C476.034,324.24 477.938,326.452 480.766,326.452Z" style="fill:rgb(10,31,96);"/>
        </g>
        <g transform="matrix(0,-1.39546,-1.39546,0,185.375,884.957)">
            <path d="M309.602,328.328L309.602,308.728L317.134,308.728C321.054,308.728 323.63,311.08 323.63,314.748C323.63,318.416 321.054,320.796 317.134,320.796L312.038,320.796L312.038,328.328L309.602,328.328ZM316.938,310.968L312.038,310.968L312.038,318.556L316.91,318.556C319.486,318.556 321.138,317.072 321.138,314.748C321.138,312.424 319.514,310.968 316.938,310.968ZM331.75,328.496C327.578,328.496 324.666,325.528 324.666,321.188C324.666,316.848 327.578,313.88 331.75,313.88C335.922,313.88 338.834,316.848 338.834,321.188C338.834,325.528 335.922,328.496 331.75,328.496ZM331.75,326.452C334.578,326.452 336.482,324.24 336.482,321.188C336.482,318.136 334.578,315.924 331.75,315.924C328.922,315.924 327.018,318.136 327.018,321.188C327.018,324.24 328.922,326.452 331.75,326.452ZM340.822,323.624L343.174,323.624C343.258,325.304 344.742,326.536 347.122,326.536C349.138,326.536 350.566,325.668 350.566,324.352C350.566,322.56 348.998,322.42 346.87,322.168C343.678,321.776 341.13,321.132 341.13,318.164C341.13,315.56 343.51,313.852 346.73,313.88C349.978,313.908 352.33,315.42 352.554,318.388L350.202,318.388C350.034,316.932 348.69,315.84 346.73,315.84C344.742,315.84 343.398,316.68 343.398,317.996C343.398,319.564 344.91,319.76 346.982,320.012C350.23,320.404 352.834,321.02 352.834,324.184C352.834,326.844 350.286,328.496 347.122,328.496C343.426,328.496 340.878,326.76 340.822,323.624ZM356.558,311.64C355.718,311.64 355.074,311.024 355.074,310.156C355.074,309.288 355.718,308.672 356.558,308.672C357.398,308.672 358.042,309.288 358.042,310.156C358.042,311.024 357.398,311.64 356.558,311.64ZM355.382,328.328L355.382,314.048L357.678,314.048L357.678,328.328L355.382,328.328ZM361.878,324.604L361.878,316.148L359.302,316.148L359.302,314.048L361.878,314.048L361.878,310.044L364.174,310.044L364.174,314.048L367.87,314.048L367.87,316.148L364.174,316.148L364.174,324.576C364.174,325.78 364.594,326.228 365.826,326.228L368.094,326.228L368.094,328.328L365.602,328.328C362.858,328.328 361.878,327.124 361.878,324.604ZM371.258,311.64C370.418,311.64 369.774,311.024 369.774,310.156C369.774,309.288 370.418,308.672 371.258,308.672C372.098,308.672 372.742,309.288 372.742,310.156C372.742,311.024 372.098,311.64 371.258,311.64ZM370.082,328.328L370.082,314.048L372.378,314.048L372.378,328.328L370.082,328.328ZM379.434,328.328L374.086,314.048L376.55,314.048L380.862,325.724L385.146,314.048L387.554,314.048L382.206,328.328L379.434,328.328ZM395.226,328.496C391.054,328.496 388.142,325.528 388.142,321.188C388.142,316.848 391.054,313.88 395.226,313.88C399.398,313.88 402.31,316.848 402.31,321.188C402.31,325.528 399.398,328.496 395.226,328.496ZM395.226,326.452C398.054,326.452 399.958,324.24 399.958,321.188C399.958,318.136 398.054,315.924 395.226,315.924C392.398,315.924 390.494,318.136 390.494,321.188C390.494,324.24 392.398,326.452 395.226,326.452ZM417.081,308.244L419.16,308.244L412.788,328.328L410.71,328.328L417.081,308.244ZM430.11,328.328L427.73,328.328L427.73,308.728L429.97,308.728L440.498,323.848L440.498,308.728L442.878,308.728L442.878,328.328L440.638,328.328L430.11,313.208L430.11,328.328ZM452.93,328.496C448.646,328.496 445.846,325.556 445.846,321.188C445.846,316.848 448.59,313.88 452.622,313.88C456.654,313.88 459.286,316.428 459.398,320.656C459.398,320.964 459.37,321.3 459.342,321.636L448.254,321.636L448.254,321.832C448.338,324.548 450.046,326.452 452.762,326.452C454.778,326.452 456.346,325.388 456.822,323.54L459.146,323.54C458.586,326.396 456.234,328.496 452.93,328.496ZM448.394,319.732L456.934,319.732C456.71,317.268 455.03,315.896 452.65,315.896C450.55,315.896 448.618,317.408 448.394,319.732ZM473.286,316.512L473.594,314.048L475.582,314.048L475.582,327.628C475.582,331.744 473.398,334.096 468.498,334.096C464.858,334.096 462.31,332.388 461.946,329.252L464.298,329.252C464.69,331.044 466.286,332.052 468.666,332.052C471.662,332.052 473.286,330.652 473.286,327.544L473.286,325.864C472.334,327.488 470.794,328.496 468.386,328.496C464.438,328.496 461.526,325.836 461.526,321.188C461.526,316.82 464.438,313.88 468.386,313.88C470.794,313.88 472.39,314.916 473.286,316.512ZM468.61,326.452C471.41,326.452 473.314,324.296 473.314,321.244C473.314,318.108 471.41,315.924 468.61,315.924C465.782,315.924 463.878,318.08 463.878,321.188C463.878,324.296 465.782,326.452 468.61,326.452ZM491.346,326.228L492.074,326.228L492.074,328.328L490.814,328.328C488.91,328.328 488.266,327.516 488.238,326.116C487.342,327.404 485.914,328.496 483.45,328.496C480.314,328.496 478.186,326.928 478.186,324.324C478.186,321.468 480.174,319.872 483.926,319.872L488.126,319.872L488.126,318.892C488.126,317.044 486.81,315.924 484.57,315.924C482.554,315.924 481.21,316.876 480.93,318.332L478.634,318.332C478.97,315.532 481.238,313.88 484.682,313.88C488.322,313.88 490.422,315.7 490.422,319.032L490.422,325.276C490.422,326.032 490.702,326.228 491.346,326.228ZM488.126,322.504L488.126,321.804L483.702,321.804C481.658,321.804 480.51,322.56 480.51,324.184C480.51,325.584 481.714,326.536 483.618,326.536C486.474,326.536 488.126,324.884 488.126,322.504ZM494.902,324.604L494.902,316.148L492.326,316.148L492.326,314.048L494.902,314.048L494.902,310.044L497.198,310.044L497.198,314.048L500.894,314.048L500.894,316.148L497.198,316.148L497.198,324.576C497.198,325.78 497.618,326.228 498.85,326.228L501.118,326.228L501.118,328.328L498.626,328.328C495.882,328.328 494.902,327.124 494.902,324.604ZM504.282,311.64C503.442,311.64 502.798,311.024 502.798,310.156C502.798,309.288 503.442,308.672 504.282,308.672C505.122,308.672 505.766,309.288 505.766,310.156C505.766,311.024 505.122,311.64 504.282,311.64ZM503.106,328.328L503.106,314.048L505.402,314.048L505.402,328.328L503.106,328.328ZM512.458,328.328L507.11,314.048L509.574,314.048L513.886,325.724L518.17,314.048L520.578,314.048L515.23,328.328L512.458,328.328ZM528.25,328.496C524.078,328.496 521.166,325.528 521.166,321.188C521.166,316.848 524.078,313.88 528.25,313.88C532.422,313.88 535.334,316.848 535.334,321.188C535.334,325.528 532.422,328.496 528.25,328.496ZM528.25,326.452C531.078,326.452 532.982,324.24 532.982,321.188C532.982,318.136 531.078,315.924 528.25,315.924C525.422,315.924 523.518,318.136 523.518,321.188C523.518,324.24 525.422,326.452 528.25,326.452Z" style="fill:rgb(10,31,96);"/>
        </g>
    </g>
</svg>
