<?xml version="1.0" encoding="UTF-8" standalone="no"?>
<!DOCTYPE svg PUBLIC "-//W3C//DTD SVG 1.1//EN" "http://www.w3.org/Graphics/SVG/1.1/DTD/svg11.dtd">
<svg width="100%" height="100%" viewBox="0 0 50 50" version="1.1" xmlns="http://www.w3.org/2000/svg" xmlns:xlink="http://www.w3.org/1999/xlink" xml:space="preserve" xmlns:serif="http://www.serif.com/" style="fill-rule:evenodd;clip-rule:evenodd;stroke-linejoin:round;stroke-miterlimit:2;">
    <g transform="matrix(1.08537,0,0,1.08537,-2.13434,-2.41207)">
        <path d="M32.749,42.074C30.386,43.148 27.763,43.747 25,43.747C14.653,43.747 6.253,35.347 6.253,25C6.253,14.653 14.653,6.253 25,6.253C35.347,6.253 43.747,14.653 43.747,25C43.747,28.834 42.594,32.401 40.615,35.372L42.843,42.25C43.016,42.784 42.884,43.369 42.5,43.776C42.116,44.184 41.54,44.351 40.997,44.21L32.749,42.074ZM32.979,38.961L39.059,40.536L37.459,35.594C37.307,35.126 37.389,34.614 37.679,34.216C39.564,31.629 40.676,28.443 40.676,25C40.676,16.348 33.652,9.324 25,9.324C16.348,9.324 9.324,16.348 9.324,25C9.324,33.652 16.348,40.676 25,40.676C27.481,40.676 29.829,40.099 31.915,39.07C32.245,38.908 32.623,38.869 32.979,38.961Z" style="fill:rgb(62,68,94);"/>
    </g>
</svg>
