<svg width="100%" height="100%" viewBox="0 0 800 800" version="1.1" xmlns="http://www.w3.org/2000/svg" xmlns:xlink="http://www.w3.org/1999/xlink" xml:space="preserve" xmlns:serif="http://www.serif.com/" style="fill-rule:evenodd;clip-rule:evenodd;stroke-linejoin:round;stroke-miterlimit:2;">
    <g transform="matrix(0.989673,0,0,0.989673,220.026,156.811)">
        <g>
            <path class="step2a" d="M67.348,-37.034C69.088,-38.775 70.325,-39.897 71.058,-40.401C71.791,-40.905 72.638,-41.157 73.6,-41.157C74.242,-41.157 75.043,-41.088 76.005,-40.951C77.929,-40.768 79.658,-40.207 81.193,-39.268C82.727,-38.329 83.495,-37.424 83.495,-36.554C83.495,-36.233 83.357,-35.935 83.082,-35.66C82.716,-35.294 82.235,-35.111 81.639,-35.111C81.044,-35.111 80.151,-35.317 78.96,-35.729C77.586,-36.187 76.211,-36.416 74.837,-36.416C74.425,-36.416 73.944,-36.37 73.394,-36.279C71.745,-35.866 70.119,-34.412 68.516,-31.916C66.913,-29.419 65.974,-26.865 65.699,-24.254C65.561,-23.293 65.493,-22.514 65.493,-21.918C65.493,-21.048 65.687,-20.304 66.077,-19.685C66.466,-19.067 67.256,-18.162 68.447,-16.971C70.554,-14.864 72.593,-13.811 74.562,-13.811C75.982,-13.811 77.54,-14.314 79.235,-15.322C80.426,-16.055 81.25,-16.422 81.708,-16.422C82.075,-16.422 82.441,-16.147 82.807,-15.597C82.991,-15.276 83.082,-14.956 83.082,-14.635C83.082,-13.948 82.533,-13.124 81.433,-12.162C79.464,-10.375 77.173,-9.482 74.562,-9.482C72.226,-9.482 69.993,-10.203 67.863,-11.646C65.733,-13.089 64.027,-15.093 62.744,-17.658C61.599,-20.086 61.027,-21.85 61.027,-22.949C61.027,-23.636 61.256,-25.079 61.714,-27.278C62.172,-29.385 62.767,-31.08 63.5,-32.362C64.233,-33.645 65.516,-35.202 67.348,-37.034ZM95.931,-32.774C97.626,-34.103 99.779,-34.767 102.39,-34.767C103.993,-34.767 105.321,-34.469 106.375,-33.874C107.657,-33.187 109.169,-31.068 110.91,-27.518C112.65,-23.968 113.521,-21.277 113.521,-19.445C113.521,-19.124 113.498,-18.895 113.452,-18.758C112.811,-16.284 111.425,-14.337 109.295,-12.917C107.165,-11.497 104.795,-10.787 102.184,-10.787C98.427,-10.787 95.45,-12.116 93.251,-14.773C91.648,-16.651 90.846,-19.01 90.846,-21.85C90.846,-23.957 91.293,-25.995 92.186,-27.965C93.08,-29.934 94.328,-31.538 95.931,-32.774ZM103.97,-27.415C102.596,-28.056 101.153,-28.377 99.641,-28.377C97.58,-28.377 96.366,-27.896 96,-26.934C95.633,-25.835 95.45,-24.163 95.45,-21.918C95.45,-19.72 96.068,-17.956 97.305,-16.628C98.542,-15.299 100.054,-14.635 101.84,-14.635C103.581,-14.635 105.253,-15.276 106.856,-16.559C108.322,-17.75 109.055,-19.124 109.055,-20.682C109.055,-21.918 108.608,-23.144 107.715,-24.358C106.821,-25.571 105.573,-26.591 103.97,-27.415ZM120.666,-27.278L120.666,-29.202C120.666,-31.263 120.769,-32.557 120.976,-33.084C121.182,-33.61 121.628,-33.874 122.315,-33.874C122.819,-33.874 123.312,-33.702 123.793,-33.359C124.274,-33.015 124.583,-32.591 124.72,-32.087C124.995,-31.171 125.293,-30.713 125.614,-30.713C125.934,-30.713 126.484,-31.011 127.263,-31.606C128.408,-32.431 129.69,-32.843 131.11,-32.843C133.63,-32.843 135.863,-31.538 137.809,-28.927C139.756,-26.316 140.73,-23.155 140.73,-19.445C140.73,-14.406 139.791,-11.887 137.913,-11.887C137.134,-11.887 136.653,-12.196 136.47,-12.814C136.286,-13.433 136.195,-14.956 136.195,-17.384C136.195,-20.544 135.76,-23.167 134.889,-25.251C134.019,-27.335 132.943,-28.377 131.66,-28.377C130.332,-28.377 129.324,-27.724 128.637,-26.419C127.95,-25.113 127.308,-22.651 126.713,-19.033C126.209,-16.193 125.785,-14.372 125.442,-13.57C125.098,-12.769 124.56,-12.368 123.827,-12.368C121.766,-12.368 120.712,-17.338 120.666,-27.278ZM153.716,-32.087C155.548,-33.278 157.472,-33.874 159.487,-33.874C161.778,-33.874 163.793,-33.049 165.534,-31.4C167.229,-29.705 168.076,-28.4 168.076,-27.484C168.076,-26.843 167.641,-26.362 166.771,-26.041C166.679,-25.995 166.519,-25.972 166.29,-25.972C165.328,-25.972 164.297,-26.568 163.198,-27.759C162.007,-28.995 160.747,-29.614 159.419,-29.614C157.632,-29.614 155.8,-28.537 153.922,-26.384C152.456,-24.735 151.723,-23.247 151.723,-21.918C151.723,-20.911 152.181,-19.765 153.097,-18.483C154.013,-17.154 155.411,-16.49 157.289,-16.49C158.709,-16.49 160.06,-16.948 161.343,-17.864C162.488,-18.735 163.541,-19.17 164.503,-19.17C165.694,-19.17 166.29,-18.574 166.29,-17.384C166.29,-16.009 165.362,-14.83 163.507,-13.845C161.652,-12.86 159.442,-12.368 156.876,-12.368C154.953,-12.368 153.578,-12.517 152.754,-12.814C151.929,-13.112 151.059,-13.811 150.143,-14.91C148.677,-16.651 147.944,-18.804 147.944,-21.369C147.944,-23.476 148.459,-25.514 149.49,-27.484C150.521,-29.454 151.929,-30.988 153.716,-32.087ZM175.84,-43.493C176.527,-44.363 177.421,-44.799 178.52,-44.799C178.566,-44.799 178.634,-44.787 178.726,-44.764C178.818,-44.741 178.886,-44.73 178.932,-44.73C179.665,-44.638 180.169,-44.375 180.444,-43.94C180.719,-43.505 180.856,-42.76 180.856,-41.707C180.856,-40.562 180.719,-39.817 180.444,-39.474C180.169,-39.13 179.573,-38.958 178.657,-38.958C177.65,-38.958 176.814,-39.245 176.149,-39.817C175.485,-40.39 175.153,-41.043 175.153,-41.775C175.153,-42.417 175.382,-42.989 175.84,-43.493ZM176.252,-33.736C176.482,-34.378 177.031,-34.698 177.902,-34.698C177.947,-34.698 178.016,-34.687 178.108,-34.664C178.199,-34.641 178.268,-34.63 178.314,-34.63C179.047,-34.492 179.505,-33.839 179.688,-32.671C179.871,-31.503 179.963,-28.698 179.963,-24.254C179.963,-19.582 179.871,-16.742 179.688,-15.734C179.505,-14.727 178.978,-14.223 178.108,-14.223C177.283,-14.223 176.756,-14.704 176.527,-15.666C176.298,-16.628 176.115,-19.17 175.978,-23.293L175.978,-26.728C175.978,-30.896 176.069,-33.233 176.252,-33.736ZM191.162,-29.339C193.636,-31.767 195.858,-32.981 197.827,-32.981C199.064,-32.981 200.415,-32.5 201.881,-31.538C203.484,-30.53 204.286,-28.675 204.286,-25.972C204.286,-24.781 204.08,-23.613 203.668,-22.468C203.301,-21.598 202.259,-20.693 200.541,-19.754C198.824,-18.815 197.301,-18.345 195.972,-18.345C195.056,-18.345 194.598,-18.185 194.598,-17.864C194.598,-17.635 194.781,-17.154 195.148,-16.422C195.468,-15.826 195.755,-15.425 196.007,-15.219C196.258,-15.013 196.682,-14.91 197.278,-14.91C198.148,-14.91 200.232,-15.322 203.53,-16.147C204.171,-16.284 204.652,-16.353 204.973,-16.353C205.66,-16.353 206.004,-15.826 206.004,-14.773C206.004,-12.895 203.53,-11.429 198.583,-10.375C198.446,-10.329 198.217,-10.306 197.896,-10.306C196.201,-10.306 194.529,-11.108 192.88,-12.711C191.231,-14.314 190.269,-16.124 189.994,-18.139C189.536,-20.521 189.01,-22.331 188.414,-23.567C188.139,-24.117 188.002,-24.598 188.002,-25.01C188.002,-25.789 189.055,-27.232 191.162,-29.339ZM196.522,-23.086C196.659,-23.041 196.842,-23.018 197.072,-23.018C197.896,-23.018 198.64,-23.327 199.305,-23.945C199.969,-24.564 200.301,-25.285 200.301,-26.11C200.301,-26.476 200.186,-26.934 199.957,-27.484C199.545,-28.354 199.133,-28.789 198.721,-28.789C198.354,-28.789 197.736,-28.56 196.865,-28.102C195.354,-27.324 194.598,-26.293 194.598,-25.01C194.598,-23.865 195.239,-23.224 196.522,-23.086ZM213.287,-27.278L213.287,-29.202C213.287,-31.263 213.39,-32.557 213.596,-33.084C213.802,-33.61 214.249,-33.874 214.936,-33.874C215.44,-33.874 215.932,-33.702 216.413,-33.359C216.894,-33.015 217.203,-32.591 217.341,-32.087C217.616,-31.171 217.913,-30.713 218.234,-30.713C218.555,-30.713 219.104,-31.011 219.883,-31.606C221.028,-32.431 222.311,-32.843 223.731,-32.843C226.25,-32.843 228.483,-31.538 230.43,-28.927C232.377,-26.316 233.35,-23.155 233.35,-19.445C233.35,-14.406 232.411,-11.887 230.533,-11.887C229.754,-11.887 229.273,-12.196 229.09,-12.814C228.907,-13.433 228.815,-14.956 228.815,-17.384C228.815,-20.544 228.38,-23.167 227.51,-25.251C226.64,-27.335 225.563,-28.377 224.281,-28.377C222.952,-28.377 221.944,-27.724 221.257,-26.419C220.57,-25.113 219.929,-22.651 219.333,-19.033C218.83,-16.193 218.406,-14.372 218.062,-13.57C217.719,-12.769 217.181,-12.368 216.448,-12.368C214.386,-12.368 213.333,-17.338 213.287,-27.278ZM246.336,-32.087C248.169,-33.278 250.092,-33.874 252.108,-33.874C254.398,-33.874 256.414,-33.049 258.154,-31.4C259.849,-29.705 260.697,-28.4 260.697,-27.484C260.697,-26.843 260.261,-26.362 259.391,-26.041C259.299,-25.995 259.139,-25.972 258.91,-25.972C257.948,-25.972 256.918,-26.568 255.818,-27.759C254.627,-28.995 253.368,-29.614 252.039,-29.614C250.253,-29.614 248.42,-28.537 246.542,-26.384C245.077,-24.735 244.344,-23.247 244.344,-21.918C244.344,-20.911 244.802,-19.765 245.718,-18.483C246.634,-17.154 248.031,-16.49 249.909,-16.49C251.329,-16.49 252.68,-16.948 253.963,-17.864C255.108,-18.735 256.162,-19.17 257.124,-19.17C258.315,-19.17 258.91,-18.574 258.91,-17.384C258.91,-16.009 257.983,-14.83 256.127,-13.845C254.272,-12.86 252.062,-12.368 249.497,-12.368C247.573,-12.368 246.199,-12.517 245.374,-12.814C244.55,-13.112 243.68,-13.811 242.763,-14.91C241.298,-16.651 240.565,-18.804 240.565,-21.369C240.565,-23.476 241.08,-25.514 242.111,-27.484C243.141,-29.454 244.55,-30.988 246.336,-32.087ZM268.461,-43.493C269.148,-44.363 270.041,-44.799 271.14,-44.799C271.186,-44.799 271.255,-44.787 271.347,-44.764C271.438,-44.741 271.507,-44.73 271.553,-44.73C272.286,-44.638 272.789,-44.375 273.064,-43.94C273.339,-43.505 273.477,-42.76 273.477,-41.707C273.477,-40.562 273.339,-39.817 273.064,-39.474C272.789,-39.13 272.194,-38.958 271.278,-38.958C270.27,-38.958 269.434,-39.245 268.77,-39.817C268.106,-40.39 267.774,-41.043 267.774,-41.775C267.774,-42.417 268.003,-42.989 268.461,-43.493ZM268.873,-33.736C269.102,-34.378 269.652,-34.698 270.522,-34.698C270.568,-34.698 270.637,-34.687 270.728,-34.664C270.82,-34.641 270.889,-34.63 270.934,-34.63C271.667,-34.492 272.125,-33.839 272.309,-32.671C272.492,-31.503 272.583,-28.698 272.583,-24.254C272.583,-19.582 272.492,-16.742 272.309,-15.734C272.125,-14.727 271.599,-14.223 270.728,-14.223C269.904,-14.223 269.377,-14.704 269.148,-15.666C268.919,-16.628 268.736,-19.17 268.598,-23.293L268.598,-26.728C268.598,-30.896 268.69,-33.233 268.873,-33.736ZM288.112,-32.912C289.944,-33.691 291.295,-34.08 292.166,-34.08C292.99,-34.08 294.387,-33.691 296.357,-32.912C298.464,-32.042 299.93,-30.587 300.754,-28.549C301.579,-26.51 302.083,-23.109 302.266,-18.345C302.358,-15.322 302.403,-13.65 302.403,-13.33C302.403,-11.955 302.3,-11.097 302.094,-10.753C301.888,-10.41 301.464,-10.238 300.823,-10.238C300.09,-10.238 299.586,-10.467 299.311,-10.925C299.037,-11.383 298.808,-12.345 298.624,-13.811C298.349,-15.689 298.098,-16.628 297.868,-16.628C297.777,-16.628 297.502,-16.261 297.044,-15.528C296.357,-14.292 294.971,-13.169 292.887,-12.162C290.803,-11.154 288.868,-10.65 287.081,-10.65C285.295,-10.65 283.737,-11.383 282.409,-12.849C281.676,-13.627 281.184,-14.337 280.932,-14.979C280.68,-15.62 280.554,-16.513 280.554,-17.658C280.554,-18.025 280.599,-18.941 280.691,-20.407C281.195,-26.774 283.669,-30.942 288.112,-32.912ZM296.151,-28.034C295.189,-29.133 293.86,-29.683 292.166,-29.683C290.425,-29.683 288.982,-29.11 287.837,-27.965C286.921,-27.049 286.119,-25.606 285.432,-23.636C284.745,-21.666 284.401,-19.926 284.401,-18.414C284.401,-17.864 284.47,-17.384 284.608,-16.971C284.974,-15.78 286.05,-15.185 287.837,-15.185C289.028,-15.185 290.242,-15.528 291.478,-16.215C292.669,-16.811 293.975,-18.666 295.395,-21.781C296.494,-24.209 297.044,-25.72 297.044,-26.316C297.044,-26.865 296.746,-27.438 296.151,-28.034ZM26.259,69.51C25.939,69.235 25.778,68.754 25.778,68.067C25.778,67.38 25.939,66.922 26.259,66.693C26.58,66.464 27.405,66.349 28.733,66.349C29.97,66.349 31.023,66.372 31.894,66.418C34.459,66.51 36.154,66.681 36.978,66.933C37.803,67.185 38.284,67.655 38.421,68.342C38.467,68.433 38.49,68.594 38.49,68.823C38.49,69.647 37.94,70.22 36.841,70.541C35.925,70.77 35.375,71.571 35.192,72.945C35.008,74.32 34.917,78.373 34.917,85.107C34.917,91.795 35.008,95.826 35.192,97.2C35.375,98.574 35.902,99.261 36.772,99.261C38.009,99.261 38.627,99.834 38.627,100.979C38.627,101.712 38.295,102.239 37.631,102.559C36.967,102.88 35.581,103.178 33.474,103.452C31.642,103.636 30.565,103.727 30.245,103.727C28.779,103.727 27.679,103.361 26.947,102.628C26.397,102.078 26.122,101.506 26.122,100.91C26.122,99.811 26.947,99.261 28.596,99.261C29.42,99.261 29.924,98.54 30.107,97.097C30.29,95.654 30.382,91.474 30.382,84.557L30.382,69.922L28.046,69.922C27.176,69.922 26.58,69.785 26.259,69.51ZM45.979,83.87L45.979,81.946C45.979,79.885 46.082,78.591 46.288,78.064C46.494,77.537 46.941,77.274 47.628,77.274C48.132,77.274 48.624,77.446 49.105,77.789C49.586,78.133 49.896,78.557 50.033,79.06C50.308,79.977 50.606,80.435 50.926,80.435C51.247,80.435 51.797,80.137 52.575,79.541C53.72,78.717 55.003,78.305 56.423,78.305C58.942,78.305 61.175,79.61 63.122,82.221C65.069,84.832 66.042,87.993 66.042,91.703C66.042,96.742 65.103,99.261 63.225,99.261C62.446,99.261 61.966,98.952 61.782,98.334C61.599,97.715 61.507,96.192 61.507,93.764C61.507,90.604 61.072,87.981 60.202,85.897C59.332,83.813 58.255,82.771 56.973,82.771C55.644,82.771 54.637,83.424 53.949,84.729C53.262,86.035 52.621,88.497 52.026,92.115C51.522,94.955 51.098,96.776 50.754,97.578C50.411,98.379 49.873,98.78 49.14,98.78C47.078,98.78 46.025,93.81 45.979,83.87ZM73.532,78.992C73.99,78.534 74.402,78.305 74.768,78.305C75.364,78.305 75.982,78.923 76.624,80.16C77.265,81.397 78.089,83.504 79.097,86.481C79.555,87.855 80.013,89.138 80.471,90.329C80.929,91.52 81.319,92.459 81.639,93.146C81.96,93.833 82.189,94.177 82.326,94.177C82.693,94.177 83.426,92.573 84.525,89.367C86.907,82.13 89.037,78.35 90.915,78.03C91.007,77.984 91.167,77.961 91.396,77.961C91.946,77.961 92.221,78.35 92.221,79.129C92.221,80.641 90.846,85.038 88.098,92.321C86.678,96.123 85.613,98.677 84.903,99.983C84.193,101.288 83.449,101.987 82.67,102.078C82.624,102.078 82.556,102.09 82.464,102.113C82.372,102.135 82.304,102.147 82.258,102.147C81.616,102.147 81.021,101.723 80.471,100.876C79.922,100.028 79.12,98.322 78.066,95.757C74.814,87.924 73.188,82.771 73.188,80.297C73.188,79.656 73.303,79.221 73.532,78.992ZM102.665,81.809C105.138,79.381 107.36,78.167 109.329,78.167C110.566,78.167 111.917,78.648 113.383,79.61C114.986,80.618 115.788,82.473 115.788,85.176C115.788,86.367 115.582,87.535 115.17,88.68C114.803,89.55 113.761,90.455 112.043,91.394C110.326,92.333 108.803,92.802 107.474,92.802C106.558,92.802 106.1,92.963 106.1,93.283C106.1,93.512 106.283,93.993 106.65,94.726C106.97,95.322 107.257,95.723 107.509,95.929C107.76,96.135 108.184,96.238 108.78,96.238C109.65,96.238 111.734,95.826 115.032,95.001C115.674,94.864 116.155,94.795 116.475,94.795C117.162,94.795 117.506,95.322 117.506,96.375C117.506,98.253 115.032,99.719 110.085,100.773C109.948,100.819 109.719,100.841 109.398,100.841C107.703,100.841 106.031,100.04 104.382,98.437C102.733,96.833 101.771,95.024 101.496,93.009C101.038,90.627 100.512,88.817 99.916,87.58C99.641,87.031 99.504,86.55 99.504,86.138C99.504,85.359 100.557,83.916 102.665,81.809ZM108.024,88.061C108.161,88.107 108.345,88.13 108.574,88.13C109.398,88.13 110.142,87.821 110.807,87.203C111.471,86.584 111.803,85.863 111.803,85.038C111.803,84.672 111.688,84.214 111.459,83.664C111.047,82.794 110.635,82.359 110.223,82.359C109.856,82.359 109.238,82.588 108.367,83.046C106.856,83.824 106.1,84.855 106.1,86.138C106.1,87.283 106.741,87.924 108.024,88.061ZM130.561,75.075C131.248,74.755 132.141,74.594 133.24,74.594C135.531,74.594 137.855,75.201 140.214,76.415C142.573,77.629 143.753,78.9 143.753,80.229C143.753,81.465 143.157,82.084 141.966,82.084C141.004,82.084 139.928,81.626 138.737,80.71C137.18,79.473 135.508,78.854 133.721,78.854C132.759,78.854 131.958,79.083 131.316,79.541C130.675,80 130.354,80.618 130.354,81.397C130.354,81.671 130.377,81.878 130.423,82.015C130.606,83.114 131.866,83.985 134.202,84.626C136.401,85.267 138.073,86.298 139.218,87.718C140.363,89.138 140.936,90.695 140.936,92.39C140.936,94.543 140.065,96.433 138.325,98.059C136.584,99.685 134.248,100.498 131.316,100.498C129.851,100.498 128.396,99.914 126.953,98.746C125.51,97.578 124.789,96.352 124.789,95.07C124.789,94.474 124.984,94.016 125.373,93.696C125.762,93.375 126.209,93.215 126.713,93.215C127.766,93.215 128.454,93.673 128.774,94.589C129.095,95.459 130.194,95.894 132.072,95.894C133.63,95.894 134.752,95.551 135.439,94.864C136.172,94.131 136.538,93.077 136.538,91.703C136.538,90.879 136.298,90.272 135.817,89.882C135.336,89.493 134.317,89.069 132.759,88.611C130.103,87.97 128.293,87.191 127.331,86.275C126.278,85.359 125.751,84.076 125.751,82.427C125.751,80.916 126.198,79.461 127.091,78.064C127.984,76.667 129.141,75.671 130.561,75.075ZM158.663,69.372C158.983,69.052 159.671,68.937 160.724,69.029C161.64,69.258 162.19,70.77 162.373,73.564C162.511,75.488 162.717,76.679 162.992,77.137C163.266,77.595 163.953,77.892 165.053,78.03C166.702,78.213 167.526,78.923 167.526,80.16C167.526,80.847 167.309,81.339 166.874,81.637C166.438,81.935 165.625,82.13 164.434,82.221L161.343,82.496L161.961,89.298C162.282,93.741 162.763,96.559 163.404,97.75C163.999,98.895 164.755,99.467 165.671,99.467C166.587,99.467 167.343,98.895 167.939,97.75C168.58,96.559 169.313,95.963 170.137,95.963C171.099,95.963 171.58,96.65 171.58,98.024C171.58,99.49 170.939,100.784 169.656,101.906C168.374,103.029 166.931,103.59 165.328,103.59C164.549,103.59 163.839,103.43 163.198,103.109C161.549,102.376 160.381,101.151 159.693,99.433C159.006,97.715 158.457,94.68 158.044,90.329C157.449,84.878 157.083,82.084 156.945,81.946C156.899,81.946 156.728,81.889 156.43,81.775C156.132,81.66 155.754,81.511 155.296,81.328C154.838,81.145 154.38,80.984 153.922,80.847C152.135,80.297 151.242,79.61 151.242,78.786C151.242,77.915 152.387,77.366 154.678,77.137C156.281,76.999 157.243,76.747 157.563,76.381C157.884,76.014 158.044,75.03 158.044,73.426C158.044,71.136 158.251,69.785 158.663,69.372ZM179.482,67.655C180.169,66.784 181.062,66.349 182.162,66.349C182.207,66.349 182.276,66.361 182.368,66.384C182.459,66.406 182.528,66.418 182.574,66.418C183.307,66.51 183.811,66.773 184.085,67.208C184.36,67.643 184.498,68.388 184.498,69.441C184.498,70.586 184.36,71.331 184.085,71.674C183.811,72.018 183.215,72.19 182.299,72.19C181.291,72.19 180.455,71.903 179.791,71.331C179.127,70.758 178.795,70.105 178.795,69.372C178.795,68.731 179.024,68.159 179.482,67.655ZM179.894,77.411C180.123,76.77 180.673,76.45 181.543,76.45C181.589,76.45 181.658,76.461 181.749,76.484C181.841,76.507 181.91,76.518 181.955,76.518C182.688,76.656 183.146,77.308 183.33,78.476C183.513,79.645 183.604,82.45 183.604,86.893C183.604,91.566 183.513,94.406 183.33,95.413C183.146,96.421 182.62,96.925 181.749,96.925C180.925,96.925 180.398,96.444 180.169,95.482C179.94,94.52 179.757,91.978 179.619,87.855L179.619,84.42C179.619,80.251 179.711,77.915 179.894,77.411ZM193.361,81.397C194.598,79.015 196.224,77.274 198.24,76.175C200.255,75.075 201.652,74.526 202.431,74.526C203.393,74.526 204.607,74.881 206.072,75.591C207.538,76.301 208.798,77.137 209.851,78.099C210.768,79.015 211.329,80.057 211.535,81.225C211.741,82.393 211.844,85.13 211.844,89.436C211.798,95.299 211.294,99.822 210.332,103.006C209.371,106.189 207.767,108.514 205.523,109.98C203.599,111.308 201.515,111.972 199.27,111.972C197.255,111.972 195.629,111.446 194.392,110.392C193.338,109.522 192.812,108.537 192.812,107.438C192.812,106.43 193.27,105.926 194.186,105.926C194.323,105.926 194.667,106.018 195.216,106.201C196.453,106.75 197.759,107.025 199.133,107.025C201.652,107.025 203.507,106.224 204.698,104.62C205.34,103.796 205.958,102.353 206.553,100.292C207.149,98.23 207.447,96.65 207.447,95.551C207.447,94.955 207.332,94.658 207.103,94.658C206.645,94.658 205.385,95.116 203.324,96.032C201.171,96.902 199.522,97.337 198.377,97.337C196.865,97.337 195.4,96.604 193.98,95.139C192.376,93.535 191.575,91.337 191.575,88.542C191.575,86.115 192.17,83.733 193.361,81.397ZM205.935,80.641C204.973,79.679 203.942,79.198 202.843,79.198C201.423,79.198 199.98,79.931 198.514,81.397C197.69,82.221 197.129,82.965 196.831,83.63C196.533,84.294 196.384,85.199 196.384,86.344C196.384,87.031 196.407,87.603 196.453,88.061C196.591,89.985 196.808,91.199 197.106,91.703C197.404,92.207 198.079,92.528 199.133,92.665L199.682,92.665C201.561,92.665 203.278,91.715 204.836,89.814C206.393,87.913 207.172,85.954 207.172,83.939C207.172,82.565 206.76,81.465 205.935,80.641ZM226.479,78.236C228.311,77.457 229.663,77.068 230.533,77.068C231.358,77.068 232.755,77.457 234.724,78.236C236.831,79.106 238.297,80.561 239.122,82.599C239.946,84.637 240.45,88.039 240.633,92.802C240.725,95.826 240.771,97.498 240.771,97.818C240.771,99.192 240.668,100.051 240.462,100.395C240.255,100.738 239.832,100.91 239.19,100.91C238.458,100.91 237.954,100.681 237.679,100.223C237.404,99.765 237.175,98.803 236.992,97.337C236.717,95.459 236.465,94.52 236.236,94.52C236.144,94.52 235.87,94.887 235.411,95.62C234.724,96.856 233.339,97.979 231.255,98.986C229.17,99.994 227.235,100.498 225.449,100.498C223.662,100.498 222.105,99.765 220.776,98.299C220.043,97.52 219.551,96.81 219.299,96.169C219.047,95.528 218.921,94.635 218.921,93.49C218.921,93.123 218.967,92.207 219.059,90.741C219.562,84.374 222.036,80.206 226.479,78.236ZM234.518,83.114C233.556,82.015 232.228,81.465 230.533,81.465C228.792,81.465 227.35,82.038 226.204,83.183C225.288,84.099 224.487,85.542 223.8,87.512C223.112,89.481 222.769,91.222 222.769,92.734C222.769,93.283 222.838,93.764 222.975,94.177C223.341,95.368 224.418,95.963 226.204,95.963C227.395,95.963 228.609,95.62 229.846,94.932C231.037,94.337 232.342,92.482 233.762,89.367C234.862,86.939 235.411,85.428 235.411,84.832C235.411,84.282 235.114,83.71 234.518,83.114ZM253.826,79.06C255.658,77.87 257.582,77.274 259.597,77.274C261.888,77.274 263.903,78.099 265.644,79.748C267.339,81.442 268.186,82.748 268.186,83.664C268.186,84.305 267.751,84.786 266.88,85.107C266.789,85.153 266.629,85.176 266.399,85.176C265.438,85.176 264.407,84.58 263.308,83.389C262.117,82.152 260.857,81.534 259.529,81.534C257.742,81.534 255.91,82.61 254.032,84.763C252.566,86.412 251.833,87.901 251.833,89.23C251.833,90.237 252.291,91.382 253.207,92.665C254.123,93.993 255.52,94.658 257.399,94.658C258.819,94.658 260.17,94.2 261.452,93.283C262.598,92.413 263.651,91.978 264.613,91.978C265.804,91.978 266.399,92.573 266.399,93.764C266.399,95.139 265.472,96.318 263.617,97.303C261.762,98.288 259.551,98.78 256.986,98.78C255.062,98.78 253.688,98.631 252.864,98.334C252.039,98.036 251.169,97.337 250.253,96.238C248.787,94.497 248.054,92.344 248.054,89.779C248.054,87.672 248.569,85.634 249.6,83.664C250.631,81.694 252.039,80.16 253.826,79.06ZM275.95,67.655C276.637,66.784 277.53,66.349 278.63,66.349C278.676,66.349 278.744,66.361 278.836,66.384C278.928,66.406 278.996,66.418 279.042,66.418C279.775,66.51 280.279,66.773 280.554,67.208C280.829,67.643 280.966,68.388 280.966,69.441C280.966,70.586 280.829,71.331 280.554,71.674C280.279,72.018 279.683,72.19 278.767,72.19C277.759,72.19 276.924,71.903 276.259,71.331C275.595,70.758 275.263,70.105 275.263,69.372C275.263,68.731 275.492,68.159 275.95,67.655ZM276.362,77.411C276.591,76.77 277.141,76.45 278.011,76.45C278.057,76.45 278.126,76.461 278.218,76.484C278.309,76.507 278.378,76.518 278.424,76.518C279.157,76.656 279.615,77.308 279.798,78.476C279.981,79.645 280.073,82.45 280.073,86.893C280.073,91.566 279.981,94.406 279.798,95.413C279.615,96.421 279.088,96.925 278.218,96.925C277.393,96.925 276.866,96.444 276.637,95.482C276.408,94.52 276.225,91.978 276.088,87.855L276.088,84.42C276.088,80.251 276.179,77.915 276.362,77.411ZM293.128,78.373C294.822,77.045 296.975,76.381 299.586,76.381C301.189,76.381 302.518,76.679 303.571,77.274C304.854,77.961 306.366,80.08 308.106,83.63C309.847,87.18 310.717,89.871 310.717,91.703C310.717,92.024 310.694,92.253 310.648,92.39C310.007,94.864 308.622,96.81 306.492,98.23C304.362,99.65 301.991,100.36 299.38,100.36C295.624,100.36 292.647,99.032 290.448,96.375C288.845,94.497 288.043,92.138 288.043,89.298C288.043,87.191 288.49,85.153 289.383,83.183C290.276,81.213 291.524,79.61 293.128,78.373ZM301.167,83.733C299.792,83.091 298.349,82.771 296.838,82.771C294.777,82.771 293.563,83.252 293.196,84.214C292.83,85.313 292.647,86.985 292.647,89.23C292.647,91.428 293.265,93.192 294.502,94.52C295.738,95.849 297.25,96.513 299.037,96.513C300.777,96.513 302.449,95.871 304.052,94.589C305.518,93.398 306.251,92.024 306.251,90.466C306.251,89.23 305.804,88.004 304.911,86.79C304.018,85.576 302.77,84.557 301.167,83.733ZM317.863,83.87L317.863,81.946C317.863,79.885 317.966,78.591 318.172,78.064C318.378,77.537 318.825,77.274 319.512,77.274C320.016,77.274 320.508,77.446 320.989,77.789C321.47,78.133 321.779,78.557 321.917,79.06C322.192,79.977 322.489,80.435 322.81,80.435C323.131,80.435 323.68,80.137 324.459,79.541C325.604,78.717 326.887,78.305 328.307,78.305C330.826,78.305 333.059,79.61 335.006,82.221C336.953,84.832 337.926,87.993 337.926,91.703C337.926,96.742 336.987,99.261 335.109,99.261C334.33,99.261 333.849,98.952 333.666,98.334C333.483,97.715 333.391,96.192 333.391,93.764C333.391,90.604 332.956,87.981 332.086,85.897C331.216,83.813 330.139,82.771 328.857,82.771C327.528,82.771 326.52,83.424 325.833,84.729C325.146,86.035 324.505,88.497 323.909,92.115C323.406,94.955 322.982,96.776 322.638,97.578C322.295,98.379 321.757,98.78 321.024,98.78C318.962,98.78 317.909,93.81 317.863,83.87ZM76.452,182.65C77.368,181.734 78.582,181.276 80.093,181.276C82.292,181.276 84.056,182.124 85.384,183.818C86.483,185.33 87.491,188.319 88.407,192.785C89.323,197.251 89.781,201.5 89.781,205.531C89.781,208.554 89.678,210.42 89.472,211.13C89.266,211.84 88.751,212.195 87.926,212.195C87.148,212.195 86.644,211.966 86.415,211.508C86.186,211.05 86.071,210.065 86.071,208.554C86.071,206.447 85.751,205.187 85.109,204.775C84.468,204.363 82.269,203.973 78.513,203.607C77.185,203.469 76.131,203.401 75.352,203.401C74.116,203.401 73.348,203.687 73.051,204.259C72.753,204.832 72.375,206.355 71.917,208.829C71.551,211.119 70.795,212.264 69.65,212.264C69.008,212.264 68.481,211.737 68.069,210.684C67.886,210.317 67.794,209.699 67.794,208.829C67.794,205.622 68.814,200.881 70.852,194.606C72.89,188.33 74.757,184.345 76.452,182.65ZM83.254,189.246C82.567,186.59 81.674,185.261 80.574,185.261C79.017,185.261 77.345,187.826 75.559,192.957C74.871,194.789 74.528,196.186 74.528,197.148C74.528,198.064 74.94,198.671 75.765,198.969C76.589,199.267 78.078,199.415 80.231,199.415L85.384,199.415L84.834,195.911C84.376,193.529 83.85,191.308 83.254,189.246ZM104.554,180.52C104.875,180.2 105.562,180.085 106.615,180.177C107.531,180.406 108.081,181.917 108.264,184.712C108.402,186.635 108.608,187.826 108.883,188.285C109.158,188.743 109.845,189.04 110.944,189.178C112.593,189.361 113.418,190.071 113.418,191.308C113.418,191.995 113.2,192.487 112.765,192.785C112.33,193.083 111.517,193.277 110.326,193.369L107.234,193.644L107.852,200.446C108.173,204.889 108.654,207.706 109.295,208.897C109.89,210.043 110.646,210.615 111.562,210.615C112.479,210.615 113.234,210.043 113.83,208.897C114.471,207.706 115.204,207.111 116.029,207.111C116.99,207.111 117.471,207.798 117.471,209.172C117.471,210.638 116.83,211.932 115.548,213.054C114.265,214.177 112.822,214.738 111.219,214.738C110.44,214.738 109.73,214.577 109.089,214.257C107.44,213.524 106.272,212.299 105.585,210.581C104.898,208.863 104.348,205.828 103.936,201.477C103.34,196.026 102.974,193.232 102.836,193.094C102.79,193.094 102.619,193.037 102.321,192.922C102.023,192.808 101.645,192.659 101.187,192.476C100.729,192.293 100.271,192.132 99.813,191.995C98.027,191.445 97.133,190.758 97.133,189.934C97.133,189.063 98.279,188.514 100.569,188.285C102.172,188.147 103.134,187.895 103.455,187.529C103.775,187.162 103.936,186.177 103.936,184.574C103.936,182.284 104.142,180.933 104.554,180.52ZM124.686,197.904C124.686,193.506 124.778,190.827 124.961,189.865C125.144,188.903 125.671,188.422 126.541,188.422C127.274,188.422 127.755,188.617 127.984,189.006C128.213,189.395 128.328,190.14 128.328,191.239C128.328,192.751 128.488,193.506 128.809,193.506C129.038,193.506 129.564,193.209 130.389,192.613C131.763,191.651 133.641,191.17 136.023,191.17C137.764,191.17 139.207,191.468 140.352,192.064C141.543,192.751 142.138,193.827 142.138,195.293C142.138,196.804 141.52,197.56 140.283,197.56C139.046,197.56 138.428,197.263 138.428,196.667C138.428,196.026 137.512,195.705 135.679,195.705C133.939,195.705 132.61,196.415 131.694,197.835C130.778,199.255 130.114,201.66 129.702,205.05C129.473,207.203 129.209,208.634 128.912,209.344C128.614,210.054 128.121,210.409 127.434,210.409C126.243,210.409 125.488,209.676 125.167,208.21C124.846,206.744 124.686,203.309 124.686,197.904ZM156.842,189.384C158.674,188.605 160.026,188.216 160.896,188.216C161.72,188.216 163.118,188.605 165.087,189.384C167.194,190.254 168.66,191.709 169.485,193.747C170.309,195.785 170.813,199.186 170.996,203.95C171.088,206.974 171.134,208.645 171.134,208.966C171.134,210.34 171.031,211.199 170.824,211.543C170.618,211.886 170.195,212.058 169.553,212.058C168.82,212.058 168.317,211.829 168.042,211.371C167.767,210.913 167.538,209.951 167.355,208.485C167.08,206.607 166.828,205.668 166.599,205.668C166.507,205.668 166.232,206.034 165.774,206.767C165.087,208.004 163.702,209.126 161.617,210.134C159.533,211.142 157.598,211.646 155.811,211.646C154.025,211.646 152.468,210.913 151.139,209.447C150.406,208.668 149.914,207.958 149.662,207.317C149.41,206.676 149.284,205.783 149.284,204.637C149.284,204.271 149.33,203.355 149.421,201.889C149.925,195.522 152.399,191.354 156.842,189.384ZM164.881,194.262C163.919,193.163 162.591,192.613 160.896,192.613C159.155,192.613 157.712,193.186 156.567,194.331C155.651,195.247 154.849,196.69 154.162,198.66C153.475,200.629 153.132,202.37 153.132,203.882C153.132,204.431 153.2,204.912 153.338,205.324C153.704,206.515 154.781,207.111 156.567,207.111C157.758,207.111 158.972,206.767 160.209,206.08C161.4,205.485 162.705,203.63 164.125,200.515C165.225,198.087 165.774,196.575 165.774,195.98C165.774,195.43 165.477,194.858 164.881,194.262ZM184.188,190.208C186.021,189.017 187.945,188.422 189.96,188.422C192.25,188.422 194.266,189.246 196.007,190.895C197.701,192.59 198.549,193.896 198.549,194.812C198.549,195.453 198.114,195.934 197.243,196.255C197.152,196.301 196.991,196.324 196.762,196.324C195.8,196.324 194.77,195.728 193.67,194.537C192.479,193.3 191.22,192.682 189.891,192.682C188.105,192.682 186.273,193.758 184.395,195.911C182.929,197.56 182.196,199.049 182.196,200.377C182.196,201.385 182.654,202.53 183.57,203.813C184.486,205.141 185.883,205.805 187.761,205.805C189.181,205.805 190.533,205.347 191.815,204.431C192.96,203.561 194.014,203.126 194.976,203.126C196.167,203.126 196.762,203.721 196.762,204.912C196.762,206.286 195.835,207.466 193.98,208.451C192.124,209.436 189.914,209.928 187.349,209.928C185.425,209.928 184.051,209.779 183.227,209.481C182.402,209.184 181.532,208.485 180.616,207.386C179.15,205.645 178.417,203.492 178.417,200.927C178.417,198.82 178.932,196.782 179.963,194.812C180.993,192.842 182.402,191.308 184.188,190.208ZM211.604,190.208C213.436,189.017 215.36,188.422 217.375,188.422C219.666,188.422 221.681,189.246 223.422,190.895C225.116,192.59 225.964,193.896 225.964,194.812C225.964,195.453 225.529,195.934 224.658,196.255C224.567,196.301 224.406,196.324 224.177,196.324C223.216,196.324 222.185,195.728 221.086,194.537C219.895,193.3 218.635,192.682 217.306,192.682C215.52,192.682 213.688,193.758 211.81,195.911C210.344,197.56 209.611,199.049 209.611,200.377C209.611,201.385 210.069,202.53 210.985,203.813C211.901,205.141 213.298,205.805 215.176,205.805C216.596,205.805 217.948,205.347 219.23,204.431C220.376,203.561 221.429,203.126 222.391,203.126C223.582,203.126 224.177,203.721 224.177,204.912C224.177,206.286 223.25,207.466 221.395,208.451C219.54,209.436 217.329,209.928 214.764,209.928C212.84,209.928 211.466,209.779 210.642,209.481C209.817,209.184 208.947,208.485 208.031,207.386C206.565,205.645 205.832,203.492 205.832,200.927C205.832,198.82 206.347,196.782 207.378,194.812C208.409,192.842 209.817,191.308 211.604,190.208ZM233.728,178.803C234.415,177.932 235.308,177.497 236.408,177.497C236.454,177.497 236.522,177.509 236.614,177.531C236.705,177.554 236.774,177.566 236.82,177.566C237.553,177.657 238.057,177.921 238.332,178.356C238.606,178.791 238.744,179.535 238.744,180.589C238.744,181.734 238.606,182.479 238.332,182.822C238.057,183.166 237.461,183.337 236.545,183.337C235.537,183.337 234.701,183.051 234.037,182.479C233.373,181.906 233.041,181.253 233.041,180.52C233.041,179.879 233.27,179.306 233.728,178.803ZM234.14,188.559C234.369,187.918 234.919,187.597 235.789,187.597C235.835,187.597 235.904,187.609 235.995,187.632C236.087,187.655 236.156,187.666 236.202,187.666C236.935,187.804 237.393,188.456 237.576,189.624C237.759,190.792 237.851,193.598 237.851,198.041C237.851,202.714 237.759,205.554 237.576,206.561C237.393,207.569 236.866,208.073 235.995,208.073C235.171,208.073 234.644,207.592 234.415,206.63C234.186,205.668 234.003,203.126 233.865,199.003L233.865,195.568C233.865,191.399 233.957,189.063 234.14,188.559ZM250.905,189.521C252.6,188.193 254.753,187.529 257.364,187.529C258.967,187.529 260.296,187.826 261.349,188.422C262.632,189.109 264.144,191.228 265.884,194.778C267.625,198.328 268.495,201.019 268.495,202.851C268.495,203.172 268.472,203.401 268.426,203.538C267.785,206.012 266.399,207.958 264.269,209.378C262.139,210.798 259.769,211.508 257.158,211.508C253.402,211.508 250.425,210.18 248.226,207.523C246.623,205.645 245.821,203.286 245.821,200.446C245.821,198.339 246.268,196.301 247.161,194.331C248.054,192.361 249.302,190.758 250.905,189.521ZM258.944,194.881C257.57,194.239 256.127,193.919 254.616,193.919C252.555,193.919 251.341,194.4 250.974,195.362C250.608,196.461 250.425,198.133 250.425,200.377C250.425,202.576 251.043,204.34 252.28,205.668C253.516,206.996 255.028,207.661 256.815,207.661C258.555,207.661 260.227,207.019 261.83,205.737C263.296,204.546 264.029,203.172 264.029,201.614C264.029,200.377 263.582,199.152 262.689,197.938C261.796,196.724 260.548,195.705 258.944,194.881ZM275.641,195.018L275.641,193.094C275.641,191.033 275.744,189.739 275.95,189.212C276.156,188.685 276.603,188.422 277.29,188.422C277.794,188.422 278.286,188.594 278.767,188.937C279.248,189.281 279.557,189.705 279.695,190.208C279.97,191.125 280.267,191.583 280.588,191.583C280.909,191.583 281.458,191.285 282.237,190.689C283.382,189.865 284.665,189.453 286.085,189.453C288.604,189.453 290.837,190.758 292.784,193.369C294.731,195.98 295.704,199.141 295.704,202.851C295.704,207.89 294.765,210.409 292.887,210.409C292.108,210.409 291.627,210.1 291.444,209.481C291.261,208.863 291.169,207.34 291.169,204.912C291.169,201.752 290.734,199.129 289.864,197.045C288.993,194.961 287.917,193.919 286.634,193.919C285.306,193.919 284.298,194.571 283.611,195.877C282.924,197.182 282.283,199.644 281.687,203.263C281.184,206.103 280.76,207.924 280.416,208.726C280.073,209.527 279.534,209.928 278.802,209.928C276.74,209.928 275.687,204.958 275.641,195.018ZM62.229,296.409C63.97,294.669 65.206,293.546 65.939,293.042C66.672,292.539 67.52,292.287 68.481,292.287C69.123,292.287 69.924,292.355 70.886,292.493C72.81,292.676 74.539,293.237 76.074,294.176C77.608,295.115 78.376,296.02 78.376,296.89C78.376,297.211 78.238,297.509 77.963,297.783C77.597,298.15 77.116,298.333 76.521,298.333C75.925,298.333 75.032,298.127 73.841,297.715C72.467,297.257 71.092,297.028 69.718,297.028C69.306,297.028 68.825,297.073 68.275,297.165C66.626,297.577 65,299.032 63.397,301.528C61.794,304.024 60.855,306.578 60.58,309.189C60.442,310.151 60.374,310.93 60.374,311.525C60.374,312.396 60.568,313.14 60.958,313.758C61.347,314.377 62.137,315.281 63.328,316.472C65.435,318.579 67.474,319.633 69.443,319.633C70.863,319.633 72.421,319.129 74.116,318.121C75.307,317.388 76.131,317.022 76.589,317.022C76.956,317.022 77.322,317.297 77.689,317.847C77.872,318.167 77.963,318.488 77.963,318.808C77.963,319.496 77.414,320.32 76.314,321.282C74.345,323.068 72.054,323.962 69.443,323.962C67.107,323.962 64.874,323.24 62.744,321.797C60.614,320.354 58.908,318.35 57.625,315.785C56.48,313.358 55.908,311.594 55.908,310.495C55.908,309.808 56.137,308.365 56.595,306.166C57.053,304.059 57.648,302.364 58.381,301.081C59.114,299.799 60.397,298.241 62.229,296.409ZM90.812,300.669C92.507,299.341 94.66,298.677 97.271,298.677C98.874,298.677 100.202,298.974 101.256,299.57C102.539,300.257 104.05,302.375 105.791,305.925C107.531,309.475 108.402,312.167 108.402,313.999C108.402,314.319 108.379,314.548 108.333,314.686C107.692,317.159 106.306,319.106 104.176,320.526C102.046,321.946 99.676,322.656 97.065,322.656C93.309,322.656 90.331,321.328 88.132,318.671C86.529,316.793 85.728,314.434 85.728,311.594C85.728,309.487 86.174,307.449 87.067,305.479C87.961,303.509 89.209,301.906 90.812,300.669ZM98.851,306.029C97.477,305.387 96.034,305.067 94.522,305.067C92.461,305.067 91.247,305.548 90.881,306.509C90.514,307.609 90.331,309.281 90.331,311.525C90.331,313.724 90.95,315.488 92.186,316.816C93.423,318.144 94.935,318.808 96.721,318.808C98.462,318.808 100.134,318.167 101.737,316.885C103.203,315.694 103.936,314.319 103.936,312.762C103.936,311.525 103.489,310.3 102.596,309.086C101.703,307.872 100.454,306.853 98.851,306.029ZM115.548,306.166L115.548,304.242C115.548,302.181 115.651,300.887 115.857,300.36C116.063,299.833 116.51,299.57 117.197,299.57C117.7,299.57 118.193,299.742 118.674,300.085C119.155,300.429 119.464,300.852 119.601,301.356C119.876,302.272 120.174,302.73 120.495,302.73C120.815,302.73 121.365,302.433 122.144,301.837C123.289,301.013 124.571,300.6 125.991,300.6C128.511,300.6 130.744,301.906 132.691,304.517C134.637,307.128 135.611,310.289 135.611,313.999C135.611,319.038 134.672,321.557 132.794,321.557C132.015,321.557 131.534,321.248 131.351,320.629C131.168,320.011 131.076,318.488 131.076,316.06C131.076,312.899 130.641,310.277 129.77,308.193C128.9,306.109 127.824,305.067 126.541,305.067C125.213,305.067 124.205,305.719 123.518,307.025C122.831,308.33 122.189,310.792 121.594,314.411C121.09,317.251 120.666,319.072 120.323,319.873C119.979,320.675 119.441,321.076 118.708,321.076C116.647,321.076 115.593,316.106 115.548,306.166ZM143.1,301.288C143.558,300.829 143.97,300.6 144.337,300.6C144.932,300.6 145.551,301.219 146.192,302.456C146.833,303.692 147.658,305.799 148.666,308.777C149.124,310.151 149.582,311.434 150.04,312.625C150.498,313.816 150.887,314.755 151.208,315.442C151.528,316.129 151.758,316.472 151.895,316.472C152.261,316.472 152.994,314.869 154.094,311.663C156.476,304.425 158.606,300.646 160.484,300.326C160.575,300.28 160.736,300.257 160.965,300.257C161.514,300.257 161.789,300.646 161.789,301.425C161.789,302.937 160.415,307.334 157.667,314.617C156.247,318.419 155.182,320.973 154.472,322.278C153.762,323.584 153.017,324.282 152.238,324.374C152.193,324.374 152.124,324.385 152.032,324.408C151.941,324.431 151.872,324.443 151.826,324.443C151.185,324.443 150.589,324.019 150.04,323.172C149.49,322.324 148.688,320.618 147.635,318.053C144.383,310.22 142.757,305.067 142.757,302.593C142.757,301.952 142.871,301.517 143.1,301.288ZM172.233,304.105C174.707,301.677 176.928,300.463 178.898,300.463C180.135,300.463 181.486,300.944 182.952,301.906C184.555,302.914 185.357,304.769 185.357,307.471C185.357,308.662 185.15,309.83 184.738,310.976C184.372,311.846 183.33,312.751 181.612,313.69C179.894,314.629 178.371,315.098 177.043,315.098C176.127,315.098 175.668,315.258 175.668,315.579C175.668,315.808 175.852,316.289 176.218,317.022C176.539,317.618 176.825,318.018 177.077,318.224C177.329,318.431 177.753,318.534 178.348,318.534C179.218,318.534 181.303,318.121 184.601,317.297C185.242,317.159 185.723,317.091 186.044,317.091C186.731,317.091 187.074,317.618 187.074,318.671C187.074,320.549 184.601,322.015 179.654,323.068C179.516,323.114 179.287,323.137 178.967,323.137C177.272,323.137 175.6,322.336 173.951,320.732C172.302,319.129 171.34,317.32 171.065,315.304C170.607,312.922 170.08,311.113 169.485,309.876C169.21,309.327 169.072,308.846 169.072,308.433C169.072,307.655 170.126,306.212 172.233,304.105ZM177.592,310.357C177.73,310.403 177.913,310.426 178.142,310.426C178.967,310.426 179.711,310.117 180.375,309.498C181.039,308.88 181.371,308.159 181.371,307.334C181.371,306.968 181.257,306.509 181.028,305.96C180.616,305.089 180.203,304.654 179.791,304.654C179.425,304.654 178.806,304.883 177.936,305.341C176.424,306.12 175.668,307.151 175.668,308.433C175.668,309.579 176.31,310.22 177.592,310.357ZM194.289,309.052C194.289,304.654 194.38,301.975 194.564,301.013C194.747,300.051 195.274,299.57 196.144,299.57C196.877,299.57 197.358,299.764 197.587,300.154C197.816,300.543 197.93,301.288 197.93,302.387C197.93,303.899 198.091,304.654 198.411,304.654C198.64,304.654 199.167,304.357 199.992,303.761C201.366,302.799 203.244,302.318 205.626,302.318C207.366,302.318 208.809,302.616 209.955,303.211C211.146,303.899 211.741,304.975 211.741,306.441C211.741,307.952 211.123,308.708 209.886,308.708C208.649,308.708 208.031,308.41 208.031,307.815C208.031,307.174 207.115,306.853 205.282,306.853C203.542,306.853 202.213,307.563 201.297,308.983C200.381,310.403 199.717,312.808 199.305,316.198C199.076,318.35 198.812,319.782 198.514,320.492C198.217,321.202 197.724,321.557 197.037,321.557C195.846,321.557 195.09,320.824 194.77,319.358C194.449,317.892 194.289,314.457 194.289,309.052ZM224.59,297.371C225.277,297.05 226.17,296.89 227.269,296.89C229.56,296.89 231.884,297.497 234.243,298.711C236.602,299.925 237.782,301.196 237.782,302.524C237.782,303.761 237.186,304.379 235.995,304.379C235.034,304.379 233.957,303.921 232.766,303.005C231.209,301.769 229.537,301.15 227.75,301.15C226.788,301.15 225.987,301.379 225.346,301.837C224.704,302.295 224.384,302.914 224.384,303.692C224.384,303.967 224.406,304.173 224.452,304.311C224.636,305.41 225.895,306.28 228.231,306.922C230.43,307.563 232.102,308.594 233.247,310.014C234.392,311.434 234.965,312.991 234.965,314.686C234.965,316.839 234.095,318.728 232.354,320.354C230.613,321.981 228.277,322.794 225.346,322.794C223.88,322.794 222.425,322.21 220.982,321.042C219.54,319.873 218.818,318.648 218.818,317.366C218.818,316.77 219.013,316.312 219.402,315.991C219.791,315.671 220.238,315.51 220.742,315.51C221.796,315.51 222.483,315.968 222.803,316.885C223.124,317.755 224.223,318.19 226.101,318.19C227.659,318.19 228.781,317.847 229.468,317.159C230.201,316.427 230.567,315.373 230.567,313.999C230.567,313.174 230.327,312.567 229.846,312.178C229.365,311.789 228.346,311.365 226.788,310.907C224.132,310.266 222.322,309.487 221.36,308.571C220.307,307.655 219.78,306.372 219.78,304.723C219.78,303.211 220.227,301.757 221.12,300.36C222.013,298.963 223.17,297.967 224.59,297.371ZM245.615,289.95C246.302,289.08 247.195,288.645 248.295,288.645C248.34,288.645 248.409,288.656 248.501,288.679C248.592,288.702 248.661,288.714 248.707,288.714C249.44,288.805 249.944,289.069 250.218,289.504C250.493,289.939 250.631,290.683 250.631,291.737C250.631,292.882 250.493,293.626 250.218,293.97C249.944,294.314 249.348,294.485 248.432,294.485C247.424,294.485 246.588,294.199 245.924,293.626C245.26,293.054 244.928,292.401 244.928,291.668C244.928,291.027 245.157,290.454 245.615,289.95ZM246.027,299.707C246.256,299.066 246.806,298.745 247.676,298.745C247.722,298.745 247.791,298.757 247.882,298.78C247.974,298.803 248.043,298.814 248.088,298.814C248.821,298.951 249.279,299.604 249.463,300.772C249.646,301.94 249.737,304.746 249.737,309.189C249.737,313.861 249.646,316.701 249.463,317.709C249.279,318.717 248.753,319.221 247.882,319.221C247.058,319.221 246.531,318.74 246.302,317.778C246.073,316.816 245.89,314.274 245.752,310.151L245.752,306.716C245.752,302.547 245.844,300.211 246.027,299.707ZM262.792,300.669C264.487,299.341 266.64,298.677 269.251,298.677C270.854,298.677 272.183,298.974 273.236,299.57C274.519,300.257 276.03,302.375 277.771,305.925C279.512,309.475 280.382,312.167 280.382,313.999C280.382,314.319 280.359,314.548 280.313,314.686C279.672,317.159 278.286,319.106 276.156,320.526C274.026,321.946 271.656,322.656 269.045,322.656C265.289,322.656 262.311,321.328 260.113,318.671C258.509,316.793 257.708,314.434 257.708,311.594C257.708,309.487 258.154,307.449 259.048,305.479C259.941,303.509 261.189,301.906 262.792,300.669ZM270.831,306.029C269.457,305.387 268.014,305.067 266.503,305.067C264.441,305.067 263.227,305.548 262.861,306.509C262.494,307.609 262.311,309.281 262.311,311.525C262.311,313.724 262.93,315.488 264.166,316.816C265.403,318.144 266.915,318.808 268.701,318.808C270.442,318.808 272.114,318.167 273.717,316.885C275.183,315.694 275.916,314.319 275.916,312.762C275.916,311.525 275.469,310.3 274.576,309.086C273.683,307.872 272.434,306.853 270.831,306.029ZM287.528,306.166L287.528,304.242C287.528,302.181 287.631,300.887 287.837,300.36C288.043,299.833 288.49,299.57 289.177,299.57C289.681,299.57 290.173,299.742 290.654,300.085C291.135,300.429 291.444,300.852 291.582,301.356C291.856,302.272 292.154,302.73 292.475,302.73C292.795,302.73 293.345,302.433 294.124,301.837C295.269,301.013 296.552,300.6 297.972,300.6C300.491,300.6 302.724,301.906 304.671,304.517C306.618,307.128 307.591,310.289 307.591,313.999C307.591,319.038 306.652,321.557 304.774,321.557C303.995,321.557 303.514,321.248 303.331,320.629C303.148,320.011 303.056,318.488 303.056,316.06C303.056,312.899 302.621,310.277 301.751,308.193C300.88,306.109 299.804,305.067 298.521,305.067C297.193,305.067 296.185,305.719 295.498,307.025C294.811,308.33 294.17,310.792 293.574,314.411C293.07,317.251 292.647,319.072 292.303,319.873C291.959,320.675 291.421,321.076 290.688,321.076C288.627,321.076 287.573,316.106 287.528,306.166ZM64.771,401.923C66.466,401.007 68.413,400.549 70.611,400.549C72.719,400.549 74.665,400.984 76.452,401.854C78.238,402.724 79.475,403.915 80.162,405.427C80.849,406.893 81.193,408.244 81.193,409.481C81.193,410.809 80.781,412.458 79.956,414.428C78.261,418.505 75.146,421.139 70.611,422.33L66.764,423.223L66.764,427.964C66.764,432.453 65.985,434.697 64.428,434.697C64.107,434.697 63.855,434.652 63.672,434.56C63.031,434.285 62.63,433.209 62.469,431.331C62.309,429.452 62.229,425.215 62.229,418.619L62.229,403.297L64.771,401.923ZM76.658,409.893C76.658,408.015 76.314,406.733 75.627,406.045C74.94,405.358 73.268,405.015 70.611,405.015L66.764,405.015L66.764,411.748C66.764,414.497 66.855,416.318 67.039,417.211C67.222,418.104 67.588,418.551 68.138,418.551C69.283,418.551 70.703,418.058 72.398,417.073C74.093,416.088 75.215,415.115 75.765,414.153C76.36,413.008 76.658,411.588 76.658,409.893ZM93.56,411.817C95.255,410.489 97.408,409.824 100.019,409.824C101.622,409.824 102.951,410.122 104.004,410.718C105.287,411.405 106.799,413.523 108.539,417.073C110.28,420.623 111.15,423.314 111.15,425.147C111.15,425.467 111.127,425.696 111.081,425.834C110.44,428.307 109.055,430.254 106.925,431.674C104.795,433.094 102.424,433.804 99.813,433.804C96.057,433.804 93.08,432.476 90.881,429.819C89.278,427.941 88.476,425.582 88.476,422.742C88.476,420.635 88.923,418.596 89.816,416.627C90.709,414.657 91.957,413.054 93.56,411.817ZM101.6,417.176C100.225,416.535 98.782,416.214 97.271,416.214C95.21,416.214 93.996,416.695 93.629,417.657C93.263,418.757 93.08,420.429 93.08,422.673C93.08,424.872 93.698,426.635 94.935,427.964C96.171,429.292 97.683,429.956 99.47,429.956C101.21,429.956 102.882,429.315 104.485,428.033C105.951,426.842 106.684,425.467 106.684,423.91C106.684,422.673 106.237,421.448 105.344,420.234C104.451,419.02 103.203,418.001 101.6,417.176ZM124.068,408.519C124.755,408.198 125.648,408.038 126.747,408.038C129.038,408.038 131.362,408.645 133.721,409.859C136.08,411.073 137.26,412.344 137.26,413.672C137.26,414.909 136.664,415.527 135.473,415.527C134.511,415.527 133.435,415.069 132.244,414.153C130.687,412.916 129.015,412.298 127.228,412.298C126.266,412.298 125.465,412.527 124.823,412.985C124.182,413.443 123.861,414.062 123.861,414.84C123.861,415.115 123.884,415.321 123.93,415.459C124.113,416.558 125.373,417.428 127.709,418.07C129.908,418.711 131.58,419.742 132.725,421.162C133.87,422.582 134.443,424.139 134.443,425.834C134.443,427.987 133.572,429.876 131.832,431.502C130.091,433.128 127.755,433.942 124.823,433.942C123.358,433.942 121.903,433.357 120.46,432.189C119.017,431.021 118.296,429.796 118.296,428.513C118.296,427.918 118.491,427.46 118.88,427.139C119.269,426.819 119.716,426.658 120.22,426.658C121.273,426.658 121.96,427.116 122.281,428.033C122.602,428.903 123.701,429.338 125.579,429.338C127.137,429.338 128.259,428.994 128.946,428.307C129.679,427.574 130.045,426.521 130.045,425.147C130.045,424.322 129.805,423.715 129.324,423.326C128.843,422.937 127.824,422.513 126.266,422.055C123.609,421.413 121.8,420.635 120.838,419.719C119.785,418.803 119.258,417.52 119.258,415.871C119.258,414.359 119.704,412.905 120.598,411.508C121.491,410.111 122.648,409.114 124.068,408.519ZM152.17,402.816C152.49,402.495 153.178,402.381 154.231,402.473C155.147,402.702 155.697,404.213 155.88,407.007C156.018,408.931 156.224,410.122 156.498,410.58C156.773,411.038 157.46,411.336 158.56,411.473C160.209,411.657 161.033,412.367 161.033,413.603C161.033,414.291 160.816,414.783 160.381,415.081C159.945,415.378 159.132,415.573 157.941,415.665L154.849,415.94L155.468,422.742C155.788,427.185 156.269,430.002 156.911,431.193C157.506,432.338 158.262,432.911 159.178,432.911C160.094,432.911 160.85,432.338 161.446,431.193C162.087,430.002 162.82,429.407 163.644,429.407C164.606,429.407 165.087,430.094 165.087,431.468C165.087,432.934 164.446,434.228 163.163,435.35C161.881,436.472 160.438,437.033 158.835,437.033C158.056,437.033 157.346,436.873 156.705,436.552C155.056,435.82 153.888,434.594 153.2,432.877C152.513,431.159 151.964,428.124 151.551,423.773C150.956,418.322 150.589,415.527 150.452,415.39C150.406,415.39 150.234,415.333 149.937,415.218C149.639,415.104 149.261,414.955 148.803,414.772C148.345,414.588 147.887,414.428 147.429,414.291C145.642,413.741 144.749,413.054 144.749,412.229C144.749,411.359 145.894,410.809 148.185,410.58C149.788,410.443 150.75,410.191 151.07,409.824C151.391,409.458 151.551,408.473 151.551,406.87C151.551,404.58 151.758,403.228 152.17,402.816ZM172.783,412.435C173.241,411.977 173.653,411.748 174.019,411.748C174.615,411.748 175.233,412.367 175.875,413.603C176.516,414.84 177.34,416.947 178.348,419.925C178.806,421.299 179.264,422.582 179.722,423.773C180.18,424.963 180.57,425.903 180.89,426.59C181.211,427.277 181.44,427.62 181.577,427.62C181.944,427.62 182.677,426.017 183.776,422.811C186.158,415.573 188.288,411.794 190.166,411.473C190.258,411.428 190.418,411.405 190.647,411.405C191.197,411.405 191.472,411.794 191.472,412.573C191.472,414.084 190.097,418.482 187.349,425.765C185.929,429.567 184.864,432.121 184.154,433.426C183.444,434.732 182.7,435.43 181.921,435.522C181.875,435.522 181.807,435.533 181.715,435.556C181.623,435.579 181.555,435.591 181.509,435.591C180.867,435.591 180.272,435.167 179.722,434.319C179.173,433.472 178.371,431.766 177.317,429.201C174.065,421.368 172.439,416.214 172.439,413.741C172.439,413.1 172.554,412.664 172.783,412.435ZM201.916,415.253C204.389,412.825 206.611,411.611 208.58,411.611C209.817,411.611 211.168,412.092 212.634,413.054C214.237,414.062 215.039,415.917 215.039,418.619C215.039,419.81 214.833,420.978 214.421,422.123C214.054,422.994 213.012,423.898 211.294,424.838C209.577,425.777 208.054,426.246 206.725,426.246C205.809,426.246 205.351,426.406 205.351,426.727C205.351,426.956 205.534,427.437 205.901,428.17C206.221,428.765 206.508,429.166 206.76,429.372C207.011,429.578 207.435,429.682 208.031,429.682C208.901,429.682 210.985,429.269 214.283,428.445C214.925,428.307 215.406,428.239 215.726,428.239C216.413,428.239 216.757,428.765 216.757,429.819C216.757,431.697 214.283,433.163 209.336,434.216C209.199,434.262 208.97,434.285 208.649,434.285C206.954,434.285 205.282,433.483 203.633,431.88C201.984,430.277 201.022,428.468 200.747,426.452C200.289,424.07 199.763,422.261 199.167,421.024C198.892,420.474 198.755,419.993 198.755,419.581C198.755,418.803 199.808,417.36 201.916,415.253ZM207.275,421.505C207.412,421.551 207.596,421.574 207.825,421.574C208.649,421.574 209.393,421.265 210.058,420.646C210.722,420.028 211.054,419.306 211.054,418.482C211.054,418.115 210.939,417.657 210.71,417.108C210.298,416.237 209.886,415.802 209.474,415.802C209.107,415.802 208.489,416.031 207.618,416.489C206.107,417.268 205.351,418.299 205.351,419.581C205.351,420.726 205.992,421.368 207.275,421.505ZM224.04,417.314L224.04,415.39C224.04,413.329 224.143,412.035 224.349,411.508C224.555,410.981 225.002,410.718 225.689,410.718C226.193,410.718 226.685,410.889 227.166,411.233C227.647,411.577 227.956,412 228.094,412.504C228.369,413.42 228.666,413.878 228.987,413.878C229.308,413.878 229.857,413.581 230.636,412.985C231.781,412.161 233.064,411.748 234.484,411.748C237.003,411.748 239.236,413.054 241.183,415.665C243.13,418.276 244.103,421.436 244.103,425.147C244.103,430.185 243.164,432.705 241.286,432.705C240.507,432.705 240.026,432.396 239.843,431.777C239.66,431.159 239.568,429.636 239.568,427.208C239.568,424.047 239.133,421.425 238.263,419.341C237.393,417.257 236.316,416.214 235.034,416.214C233.705,416.214 232.697,416.867 232.01,418.173C231.323,419.478 230.682,421.94 230.086,425.559C229.583,428.399 229.159,430.22 228.815,431.021C228.472,431.823 227.934,432.224 227.201,432.224C225.139,432.224 224.086,427.254 224.04,417.314ZM258.876,402.816C259.196,402.495 259.884,402.381 260.937,402.473C261.853,402.702 262.403,404.213 262.586,407.007C262.724,408.931 262.93,410.122 263.204,410.58C263.479,411.038 264.166,411.336 265.266,411.473C266.915,411.657 267.739,412.367 267.739,413.603C267.739,414.291 267.522,414.783 267.087,415.081C266.651,415.378 265.838,415.573 264.647,415.665L261.555,415.94L262.174,422.742C262.494,427.185 262.975,430.002 263.617,431.193C264.212,432.338 264.968,432.911 265.884,432.911C266.8,432.911 267.556,432.338 268.152,431.193C268.793,430.002 269.526,429.407 270.35,429.407C271.312,429.407 271.793,430.094 271.793,431.468C271.793,432.934 271.152,434.228 269.869,435.35C268.587,436.472 267.144,437.033 265.541,437.033C264.762,437.033 264.052,436.873 263.411,436.552C261.762,435.82 260.594,434.594 259.906,432.877C259.219,431.159 258.67,428.124 258.257,423.773C257.662,418.322 257.295,415.527 257.158,415.39C257.112,415.39 256.94,415.333 256.643,415.218C256.345,415.104 255.967,414.955 255.509,414.772C255.051,414.588 254.593,414.428 254.135,414.291C252.348,413.741 251.455,413.054 251.455,412.229C251.455,411.359 252.6,410.809 254.891,410.58C256.494,410.443 257.456,410.191 257.776,409.824C258.097,409.458 258.257,408.473 258.257,406.87C258.257,404.58 258.464,403.228 258.876,402.816ZM286.703,411.68C288.535,410.901 289.887,410.512 290.757,410.512C291.582,410.512 292.979,410.901 294.948,411.68C297.055,412.55 298.521,414.004 299.346,416.043C300.17,418.081 300.674,421.482 300.857,426.246C300.949,429.269 300.995,430.941 300.995,431.262C300.995,432.636 300.892,433.495 300.686,433.838C300.479,434.182 300.056,434.354 299.414,434.354C298.682,434.354 298.178,434.125 297.903,433.667C297.628,433.209 297.399,432.247 297.216,430.781C296.941,428.903 296.689,427.964 296.46,427.964C296.368,427.964 296.093,428.33 295.635,429.063C294.948,430.3 293.563,431.422 291.478,432.43C289.394,433.438 287.459,433.942 285.673,433.942C283.886,433.942 282.329,433.209 281,431.743C280.267,430.964 279.775,430.254 279.523,429.613C279.271,428.972 279.145,428.078 279.145,426.933C279.145,426.567 279.191,425.651 279.283,424.185C279.786,417.818 282.26,413.649 286.703,411.68ZM294.742,416.558C293.78,415.459 292.452,414.909 290.757,414.909C289.016,414.909 287.573,415.482 286.428,416.627C285.512,417.543 284.711,418.986 284.024,420.955C283.336,422.925 282.993,424.666 282.993,426.177C282.993,426.727 283.062,427.208 283.199,427.62C283.565,428.811 284.642,429.407 286.428,429.407C287.619,429.407 288.833,429.063 290.07,428.376C291.261,427.781 292.566,425.925 293.986,422.811C295.086,420.383 295.635,418.871 295.635,418.276C295.635,417.726 295.338,417.153 294.742,416.558ZM56.011,512.658C57.522,512.521 59.057,512.452 60.614,512.452C65.103,512.452 67.806,512.865 68.722,513.689C68.997,513.872 69.134,514.262 69.134,514.857C69.134,515.269 69.088,515.59 68.997,515.819C68.676,516.552 67.691,516.918 66.042,516.918C65.676,516.918 64.347,516.827 62.057,516.644L55.53,516.094L55.53,525.438L59.034,525.713C61.324,525.851 62.469,526.377 62.469,527.294C62.469,528.164 61.278,528.874 58.897,529.424L55.324,530.248L55.53,537.806C55.621,541.379 55.667,543.372 55.667,543.784C55.667,545.479 55.564,546.521 55.358,546.91C55.152,547.3 54.682,547.494 53.949,547.494L53.812,547.494C53.033,547.494 52.507,546.979 52.232,545.948C51.957,544.918 51.682,542.295 51.407,538.081C51.178,533.958 51.064,529.676 51.064,525.232C51.064,523.171 51.087,521.728 51.132,520.904L51.407,513.139L56.011,512.658ZM77.105,512.246C77.792,511.376 78.685,510.941 79.784,510.941C79.83,510.941 79.899,510.952 79.99,510.975C80.082,510.998 80.151,511.009 80.196,511.009C80.929,511.101 81.433,511.364 81.708,511.8C81.983,512.235 82.12,512.979 82.12,514.033C82.12,515.178 81.983,515.922 81.708,516.266C81.433,516.609 80.838,516.781 79.922,516.781C78.914,516.781 78.078,516.495 77.414,515.922C76.75,515.35 76.417,514.697 76.417,513.964C76.417,513.323 76.646,512.75 77.105,512.246ZM77.517,522.003C77.746,521.362 78.296,521.041 79.166,521.041C79.212,521.041 79.28,521.052 79.372,521.075C79.464,521.098 79.532,521.11 79.578,521.11C80.311,521.247 80.769,521.9 80.952,523.068C81.136,524.236 81.227,527.042 81.227,531.485C81.227,536.157 81.136,538.997 80.952,540.005C80.769,541.013 80.242,541.517 79.372,541.517C78.547,541.517 78.021,541.036 77.792,540.074C77.563,539.112 77.379,536.569 77.242,532.447L77.242,529.011C77.242,524.843 77.334,522.507 77.517,522.003ZM104.863,512.384C105.23,511.926 106.008,511.697 107.199,511.697C107.657,511.697 107.932,511.788 108.024,511.971C108.024,512.017 108.047,512.75 108.093,514.17C108.138,515.59 108.207,517.686 108.299,520.457C108.39,523.228 108.482,525.919 108.574,528.53C108.711,533.065 108.78,536.455 108.78,538.699C108.78,541.173 108.688,542.845 108.505,543.715C108.322,544.586 108.001,545.112 107.543,545.296C107.176,545.387 106.833,545.433 106.512,545.433C105.779,545.433 105.23,545.273 104.863,544.952C104.543,544.677 104.176,544.54 103.764,544.54C103.352,544.54 102.779,544.792 102.046,545.296C100.855,546.166 99.321,546.601 97.443,546.601C94.832,546.601 92.793,545.799 91.327,544.196C90.365,543.188 89.759,542.158 89.507,541.104C89.255,540.051 89.129,538.058 89.129,535.127C89.129,531.233 89.644,528.313 90.675,526.366C91.705,524.419 93.457,523.102 95.931,522.415C96.755,522.14 97.443,522.003 97.992,522.003C98.954,522.003 100.122,522.53 101.496,523.583L104.245,525.576L104.245,519.255C104.245,514.995 104.451,512.704 104.863,512.384ZM100.328,527.775C99.092,526.95 98.107,526.538 97.374,526.538C96.641,526.538 95.816,527.019 94.9,527.981C93.572,529.492 92.908,531.897 92.908,535.195C92.908,536.982 93.148,538.585 93.629,540.005C94.11,541.425 94.786,542.295 95.656,542.616C96.023,542.707 96.32,542.753 96.549,542.753C97.603,542.753 98.782,542.295 100.088,541.379C101.393,540.463 102.344,539.364 102.939,538.081C103.443,537.073 103.695,535.974 103.695,534.783C103.695,531.714 102.573,529.378 100.328,527.775ZM119.017,526.4C121.491,523.973 123.713,522.759 125.682,522.759C126.919,522.759 128.27,523.24 129.736,524.202C131.339,525.209 132.141,527.065 132.141,529.767C132.141,530.958 131.935,532.126 131.523,533.271C131.156,534.142 130.114,535.046 128.396,535.985C126.679,536.924 125.155,537.394 123.827,537.394C122.911,537.394 122.453,537.554 122.453,537.875C122.453,538.104 122.636,538.585 123.003,539.318C123.323,539.913 123.609,540.314 123.861,540.52C124.113,540.726 124.537,540.829 125.133,540.829C126.003,540.829 128.087,540.417 131.385,539.593C132.026,539.455 132.507,539.387 132.828,539.387C133.515,539.387 133.859,539.913 133.859,540.967C133.859,542.845 131.385,544.311 126.438,545.364C126.301,545.41 126.072,545.433 125.751,545.433C124.056,545.433 122.384,544.631 120.735,543.028C119.086,541.425 118.124,539.616 117.849,537.6C117.391,535.218 116.865,533.409 116.269,532.172C115.994,531.622 115.857,531.141 115.857,530.729C115.857,529.95 116.91,528.507 119.017,526.4ZM124.377,532.653C124.514,532.699 124.697,532.722 124.926,532.722C125.751,532.722 126.495,532.412 127.159,531.794C127.824,531.176 128.156,530.454 128.156,529.63C128.156,529.263 128.041,528.805 127.812,528.256C127.4,527.385 126.988,526.95 126.575,526.95C126.209,526.95 125.591,527.179 124.72,527.637C123.209,528.416 122.453,529.447 122.453,530.729C122.453,531.874 123.094,532.516 124.377,532.653ZM141.211,540.486C141.073,538.837 141.004,534.004 141.004,525.988C141.004,517.972 141.085,513.139 141.245,511.49C141.405,509.841 141.898,509.017 142.722,509.017C143.409,509.017 143.902,509.372 144.199,510.082C144.497,510.792 144.784,512.292 145.058,514.582C145.425,518.705 145.608,522.507 145.608,525.988C145.608,529.424 145.425,533.203 145.058,537.325C144.784,539.616 144.497,541.116 144.199,541.826C143.902,542.536 143.409,542.891 142.722,542.891C141.898,542.891 141.394,542.089 141.211,540.486ZM153.235,512.246C153.922,511.376 154.815,510.941 155.914,510.941C155.96,510.941 156.029,510.952 156.121,510.975C156.212,510.998 156.281,511.009 156.327,511.009C157.06,511.101 157.563,511.364 157.838,511.8C158.113,512.235 158.251,512.979 158.251,514.033C158.251,515.178 158.113,515.922 157.838,516.266C157.563,516.609 156.968,516.781 156.052,516.781C155.044,516.781 154.208,516.495 153.544,515.922C152.88,515.35 152.548,514.697 152.548,513.964C152.548,513.323 152.777,512.75 153.235,512.246ZM153.647,522.003C153.876,521.362 154.426,521.041 155.296,521.041C155.342,521.041 155.411,521.052 155.502,521.075C155.594,521.098 155.663,521.11 155.708,521.11C156.441,521.247 156.899,521.9 157.083,523.068C157.266,524.236 157.357,527.042 157.357,531.485C157.357,536.157 157.266,538.997 157.083,540.005C156.899,541.013 156.373,541.517 155.502,541.517C154.678,541.517 154.151,541.036 153.922,540.074C153.693,539.112 153.51,536.569 153.372,532.447L153.372,529.011C153.372,524.843 153.464,522.507 153.647,522.003ZM165.74,522.003C165.923,521.362 166.885,521.041 168.626,521.041C170,521.041 171.695,521.133 173.71,521.316C177.97,521.637 180.959,522.037 182.677,522.518C184.395,522.999 185.253,523.675 185.253,524.545C185.253,525.416 184.28,527.385 182.333,530.454C180.387,533.523 178.566,535.928 176.871,537.669L173.985,540.623L179.482,540.074C180.764,539.89 181.978,539.799 183.123,539.799C184.589,539.799 185.46,540.028 185.734,540.486C185.918,540.807 186.009,541.104 186.009,541.379C186.009,542.891 183.719,543.944 179.138,544.54C178.863,544.586 175.726,544.952 169.725,545.639C168.626,545.822 167.687,545.914 166.908,545.914C166.267,545.914 165.854,545.811 165.671,545.605C165.488,545.399 165.396,545.067 165.396,544.608C165.396,544.15 166.003,543.131 167.217,541.551C168.431,539.971 169.863,538.31 171.512,536.569C175.542,532.447 177.97,529.676 178.795,528.256C179.115,527.614 179.276,527.202 179.276,527.019C179.276,526.698 179.035,526.458 178.554,526.297C178.073,526.137 177.1,525.942 175.634,525.713C172.611,525.347 170.366,525.164 168.901,525.164C166.61,525.164 165.465,524.499 165.465,523.171C165.465,522.759 165.557,522.369 165.74,522.003ZM200.782,522.827C202.614,522.049 203.965,521.659 204.836,521.659C205.66,521.659 207.057,522.049 209.027,522.827C211.134,523.698 212.6,525.152 213.424,527.191C214.249,529.229 214.753,532.63 214.936,537.394C215.028,540.417 215.073,542.089 215.073,542.41C215.073,543.784 214.97,544.643 214.764,544.986C214.558,545.33 214.134,545.502 213.493,545.502C212.76,545.502 212.256,545.273 211.981,544.815C211.707,544.357 211.478,543.395 211.294,541.929C211.02,540.051 210.768,539.112 210.539,539.112C210.447,539.112 210.172,539.478 209.714,540.211C209.027,541.448 207.641,542.57 205.557,543.578C203.473,544.586 201.538,545.089 199.751,545.089C197.965,545.089 196.407,544.357 195.079,542.891C194.346,542.112 193.854,541.402 193.602,540.761C193.35,540.119 193.224,539.226 193.224,538.081C193.224,537.715 193.27,536.798 193.361,535.333C193.865,528.966 196.339,524.797 200.782,522.827ZM208.821,527.706C207.859,526.607 206.531,526.057 204.836,526.057C203.095,526.057 201.652,526.629 200.507,527.775C199.591,528.691 198.789,530.134 198.102,532.103C197.415,534.073 197.072,535.814 197.072,537.325C197.072,537.875 197.14,538.356 197.278,538.768C197.644,539.959 198.721,540.555 200.507,540.555C201.698,540.555 202.912,540.211 204.149,539.524C205.34,538.928 206.645,537.073 208.065,533.958C209.164,531.531 209.714,530.019 209.714,529.424C209.714,528.874 209.416,528.301 208.821,527.706ZM228.128,523.652C229.96,522.461 231.884,521.866 233.9,521.866C236.19,521.866 238.206,522.69 239.946,524.339C241.641,526.034 242.489,527.339 242.489,528.256C242.489,528.897 242.053,529.378 241.183,529.698C241.091,529.744 240.931,529.767 240.702,529.767C239.74,529.767 238.71,529.172 237.61,527.981C236.419,526.744 235.16,526.126 233.831,526.126C232.045,526.126 230.212,527.202 228.334,529.355C226.869,531.004 226.136,532.493 226.136,533.821C226.136,534.829 226.594,535.974 227.51,537.257C228.426,538.585 229.823,539.249 231.701,539.249C233.121,539.249 234.472,538.791 235.755,537.875C236.9,537.005 237.954,536.569 238.916,536.569C240.107,536.569 240.702,537.165 240.702,538.356C240.702,539.73 239.775,540.91 237.919,541.894C236.064,542.879 233.854,543.372 231.289,543.372C229.365,543.372 227.991,543.223 227.166,542.925C226.342,542.627 225.471,541.929 224.555,540.829C223.09,539.089 222.357,536.936 222.357,534.371C222.357,532.264 222.872,530.225 223.903,528.256C224.933,526.286 226.342,524.751 228.128,523.652ZM250.253,512.246C250.94,511.376 251.833,510.941 252.932,510.941C252.978,510.941 253.047,510.952 253.139,510.975C253.23,510.998 253.299,511.009 253.345,511.009C254.078,511.101 254.581,511.364 254.856,511.8C255.131,512.235 255.269,512.979 255.269,514.033C255.269,515.178 255.131,515.922 254.856,516.266C254.581,516.609 253.986,516.781 253.07,516.781C252.062,516.781 251.226,516.495 250.562,515.922C249.898,515.35 249.566,514.697 249.566,513.964C249.566,513.323 249.795,512.75 250.253,512.246ZM250.665,522.003C250.894,521.362 251.444,521.041 252.314,521.041C252.36,521.041 252.429,521.052 252.52,521.075C252.612,521.098 252.68,521.11 252.726,521.11C253.459,521.247 253.917,521.9 254.1,523.068C254.284,524.236 254.375,527.042 254.375,531.485C254.375,536.157 254.284,538.997 254.1,540.005C253.917,541.013 253.39,541.517 252.52,541.517C251.696,541.517 251.169,541.036 250.94,540.074C250.711,539.112 250.528,536.569 250.39,532.447L250.39,529.011C250.39,524.843 250.482,522.507 250.665,522.003ZM267.43,522.965C269.125,521.637 271.278,520.972 273.889,520.972C275.492,520.972 276.82,521.27 277.874,521.866C279.157,522.553 280.668,524.671 282.409,528.221C284.149,531.771 285.02,534.462 285.02,536.295C285.02,536.615 284.997,536.844 284.951,536.982C284.31,539.455 282.924,541.402 280.794,542.822C278.664,544.242 276.294,544.952 273.683,544.952C269.927,544.952 266.949,543.624 264.75,540.967C263.147,539.089 262.346,536.73 262.346,533.89C262.346,531.783 262.792,529.744 263.685,527.775C264.579,525.805 265.827,524.202 267.43,522.965ZM275.469,528.324C274.095,527.683 272.652,527.362 271.14,527.362C269.079,527.362 267.865,527.843 267.499,528.805C267.132,529.905 266.949,531.577 266.949,533.821C266.949,536.02 267.568,537.783 268.804,539.112C270.041,540.44 271.553,541.104 273.339,541.104C275.08,541.104 276.752,540.463 278.355,539.18C279.821,537.989 280.554,536.615 280.554,535.058C280.554,533.821 280.107,532.596 279.214,531.382C278.321,530.168 277.072,529.149 275.469,528.324ZM292.166,528.462L292.166,526.538C292.166,524.477 292.269,523.182 292.475,522.656C292.681,522.129 293.128,521.866 293.815,521.866C294.318,521.866 294.811,522.037 295.292,522.381C295.773,522.724 296.082,523.148 296.219,523.652C296.494,524.568 296.792,525.026 297.113,525.026C297.433,525.026 297.983,524.728 298.762,524.133C299.907,523.308 301.189,522.896 302.609,522.896C305.129,522.896 307.362,524.202 309.309,526.813C311.255,529.424 312.229,532.584 312.229,536.295C312.229,541.333 311.29,543.853 309.412,543.853C308.633,543.853 308.152,543.543 307.969,542.925C307.786,542.307 307.694,540.784 307.694,538.356C307.694,535.195 307.259,532.573 306.388,530.489C305.518,528.404 304.442,527.362 303.159,527.362C301.831,527.362 300.823,528.015 300.136,529.321C299.449,530.626 298.808,533.088 298.212,536.707C297.708,539.547 297.284,541.368 296.941,542.169C296.597,542.971 296.059,543.372 295.326,543.372C293.265,543.372 292.211,538.402 292.166,528.462ZM276.123,294.148C275.343,294.73 274.237,294.569 273.655,293.788C273.073,293.008 273.234,291.902 274.014,291.32C275.537,290.184 276.678,288.762 277.87,287.9C278.658,287.329 279.762,287.506 280.332,288.294C280.903,289.083 280.726,290.186 279.938,290.757C278.758,291.611 277.631,293.023 276.123,294.148ZM279.084,515.621C278.304,516.203 277.198,516.042 276.616,515.261C276.034,514.481 276.195,513.375 276.975,512.793C278.498,511.657 279.639,510.235 280.831,509.373C281.619,508.802 282.722,508.979 283.293,509.767C283.864,510.556 283.687,511.659 282.899,512.23C281.719,513.084 280.592,514.496 279.084,515.621ZM262.219,182.007C261.439,182.589 260.333,182.428 259.751,181.647C259.169,180.867 259.33,179.761 260.11,179.179C261.633,178.044 262.775,176.621 263.966,175.759C264.754,175.188 265.858,175.365 266.428,176.153C266.999,176.942 266.822,178.045 266.034,178.616C264.854,179.47 263.727,180.882 262.219,182.007ZM304.268,71.212C303.487,71.794 302.382,71.633 301.8,70.853C301.218,70.073 301.379,68.967 302.159,68.385C303.682,67.249 304.823,65.826 306.014,64.964C306.803,64.394 307.906,64.57 308.477,65.359C309.048,66.147 308.871,67.251 308.082,67.821C306.903,68.675 305.776,70.087 304.268,71.212Z" style="fill:rgb(17,28,78);"/>
        </g>
    </g>
</svg>
