<svg width="100%" height="100%" viewBox="0 0 800 800" version="1.1" xmlns="http://www.w3.org/2000/svg" xmlns:xlink="http://www.w3.org/1999/xlink" xml:space="preserve" xmlns:serif="http://www.serif.com/" stroke-width="3" style="fill-rule:evenodd;clip-rule:evenodd;stroke-linejoin:round;stroke-miterlimit:2;">
	<style type="text/css">
		.step3d{fill:none; stroke:#CF5049;}
	</style>
    <g>
        <g transform="matrix(0.92435,0,0,0.92435,34.4064,53.8984)">
            <path class="step3d" d="M323.351,146.262C276.055,148.863 262.454,209.409 307.804,207.513C330.551,206.562 349.056,196.571 351.502,179.723C355.549,151.85 321.724,147.574 305.689,158.219" style="fill:none;"/>
        </g>
        <g transform="matrix(0.92435,0,0,0.92435,136.162,129.852)">
            <path class="step3d" d="M323.351,146.262C276.055,148.863 262.454,209.409 307.804,207.513C330.551,206.562 349.056,196.571 351.502,179.723C355.549,151.85 321.724,147.574 305.689,158.219" style="fill:none;"/>
        </g>
        <g transform="matrix(0.92435,0,0,0.92435,227.728,62.3118)">
            <path class="step3d" d="M323.351,146.262C276.055,148.863 262.454,209.409 307.804,207.513C330.551,206.562 349.056,196.571 351.502,179.723C355.549,151.85 321.724,147.574 305.689,158.219" style="fill:none;"/>
        </g>
        <g transform="matrix(0.92435,0,0,0.92435,315.222,129.852)">
            <path class="step3d" d="M323.351,146.262C276.055,148.863 262.454,209.409 307.804,207.513C330.551,206.562 349.056,196.571 351.502,179.723C355.549,151.85 321.724,147.574 305.689,158.219" style="fill:none;"/>
        </g>
        <g transform="matrix(0.92435,0,0,0.92435,-58.7913,200)">
            <path class="step3d" d="M323.351,146.262C276.055,148.863 262.454,209.409 307.804,207.513C330.551,206.562 349.056,196.571 351.502,179.723C355.549,151.85 321.724,147.574 305.689,158.219" style="fill:none;"/>
        </g>
        <g transform="matrix(0.92435,0,0,0.92435,33.2797,263.389)">
            <path class="step3d" d="M323.351,146.262C276.055,148.863 262.454,209.409 307.804,207.513C330.551,206.562 349.056,196.571 351.502,179.723C355.549,151.85 321.724,147.574 305.689,158.219" style="fill:none;"/>
        </g>
        <g transform="matrix(0.92435,0,0,0.92435,224.279,270.227)">
            <path class="step3d" d="M323.351,146.262C276.055,148.863 262.454,209.409 307.804,207.513C330.551,206.562 349.056,196.571 351.502,179.723C355.549,151.85 321.724,147.574 305.689,158.219" style="fill:none;"/>
        </g>
        <g transform="matrix(0.92435,0,0,0.92435,-60.5288,332.28)">
            <path class="step3d" d="M323.351,146.262C276.055,148.863 262.454,209.409 307.804,207.513C330.551,206.562 349.056,196.571 351.502,179.723C355.549,151.85 321.724,147.574 305.689,158.219" style="fill:none;"/>
        </g>
    </g>
</svg>
