<svg width="100%" height="100%" viewBox="0 0 800 800" version="1.1" xmlns="http://www.w3.org/2000/svg" xmlns:xlink="http://www.w3.org/1999/xlink" xml:space="preserve" xmlns:serif="http://www.serif.com/" style="fill-rule:evenodd;clip-rule:evenodd;stroke-linejoin:round;stroke-miterlimit:2;">
    <g transform="matrix(0.727975,0,0,0.727975,246.297,620.461)">
        <g>
            <path class="step3c" d="M129.676,-32.851C131.22,-34.395 132.317,-35.391 132.967,-35.838C133.617,-36.285 134.369,-36.508 135.222,-36.508C135.791,-36.508 136.502,-36.447 137.355,-36.325C139.062,-36.163 140.596,-35.665 141.957,-34.832C143.318,-33.999 143.999,-33.197 143.999,-32.424C143.999,-32.14 143.877,-31.876 143.633,-31.632C143.308,-31.307 142.881,-31.145 142.353,-31.145C141.825,-31.145 141.032,-31.327 139.976,-31.693C138.757,-32.099 137.538,-32.303 136.319,-32.303C135.953,-32.303 135.527,-32.262 135.039,-32.181C133.576,-31.815 132.134,-30.525 130.712,-28.31C129.29,-26.096 128.457,-23.831 128.213,-21.515C128.091,-20.661 128.03,-19.971 128.03,-19.443C128.03,-18.67 128.203,-18.01 128.548,-17.462C128.894,-16.913 129.594,-16.111 130.651,-15.054C132.52,-13.185 134.328,-12.251 136.075,-12.251C137.335,-12.251 138.716,-12.698 140.22,-13.591C141.276,-14.242 142.008,-14.567 142.414,-14.567C142.739,-14.567 143.064,-14.323 143.389,-13.835C143.552,-13.551 143.633,-13.266 143.633,-12.982C143.633,-12.373 143.145,-11.641 142.17,-10.788C140.423,-9.203 138.391,-8.411 136.075,-8.411C134.003,-8.411 132.022,-9.051 130.133,-10.331C128.243,-11.611 126.73,-13.388 125.592,-15.664C124.576,-17.817 124.068,-19.382 124.068,-20.357C124.068,-20.966 124.272,-22.246 124.678,-24.196C125.084,-26.066 125.612,-27.569 126.263,-28.707C126.913,-29.844 128.05,-31.226 129.676,-32.851ZM155.03,-29.072C156.534,-30.251 158.443,-30.84 160.759,-30.84C162.181,-30.84 163.36,-30.576 164.294,-30.048C165.432,-29.438 166.773,-27.559 168.317,-24.41C169.861,-21.261 170.633,-18.874 170.633,-17.248C170.633,-16.964 170.613,-16.761 170.572,-16.639C170.003,-14.445 168.774,-12.718 166.885,-11.458C164.995,-10.199 162.893,-9.569 160.576,-9.569C157.245,-9.569 154.604,-10.747 152.653,-13.104C151.231,-14.77 150.52,-16.862 150.52,-19.382C150.52,-21.251 150.916,-23.059 151.709,-24.806C152.501,-26.553 153.608,-27.975 155.03,-29.072ZM162.161,-24.318C160.942,-24.887 159.662,-25.172 158.321,-25.172C156.493,-25.172 155.416,-24.745 155.091,-23.892C154.766,-22.917 154.604,-21.433 154.604,-19.443C154.604,-17.492 155.152,-15.928 156.249,-14.749C157.346,-13.571 158.687,-12.982 160.272,-12.982C161.816,-12.982 163.299,-13.551 164.721,-14.689C166.021,-15.745 166.671,-16.964 166.671,-18.345C166.671,-19.443 166.275,-20.529 165.483,-21.606C164.691,-22.683 163.583,-23.587 162.161,-24.318ZM178.739,-28.829C180.039,-30.169 181.705,-30.84 183.737,-30.84C185.484,-30.84 187.252,-30.312 189.039,-29.255C192.615,-27.102 194.403,-23.953 194.403,-19.808C194.403,-17.167 193.702,-15.186 192.3,-13.866C190.898,-12.545 188.694,-11.763 185.687,-11.519L181.177,-11.214L181.177,-6.765C181.177,-3.921 180.73,-2.296 179.836,-1.889C179.674,-1.808 179.41,-1.768 179.044,-1.768C178.516,-1.768 178.13,-1.889 177.886,-2.133C177.398,-2.621 177.114,-6.847 177.033,-14.81C176.951,-18.63 176.911,-20.885 176.911,-21.576C176.911,-24.014 177.022,-25.629 177.246,-26.421C177.469,-27.213 177.967,-28.016 178.739,-28.829ZM188.796,-24.318C187.455,-25.984 185.85,-26.817 183.981,-26.817C182.843,-26.817 182.101,-26.685 181.756,-26.421C181.411,-26.157 181.136,-25.537 180.933,-24.562C180.811,-23.953 180.75,-23.079 180.75,-21.941C180.75,-20.844 180.811,-19.808 180.933,-18.833C181.177,-17.126 181.461,-16.131 181.787,-15.847C182.112,-15.562 183.127,-15.42 184.834,-15.42C186.703,-15.42 188.166,-15.816 189.222,-16.608C190.279,-17.401 190.807,-18.427 190.807,-19.686C190.807,-21.19 190.136,-22.734 188.796,-24.318ZM201.046,-24.318C201.046,-27.041 201.229,-28.585 201.595,-28.95C201.96,-29.316 202.509,-29.499 203.24,-29.499C203.972,-29.499 204.337,-29.316 204.337,-28.95C204.825,-21.677 205.353,-16.964 205.922,-14.81C206.369,-13.104 206.775,-12.251 207.141,-12.251C207.344,-12.251 207.791,-12.474 208.482,-12.921C209.62,-13.652 210.524,-14.973 211.194,-16.883C211.864,-18.792 212.2,-21.047 212.2,-23.648C212.281,-26.98 212.83,-28.646 213.845,-28.646C214.13,-28.646 214.434,-28.483 214.76,-28.158C215.653,-27.264 216.1,-23.607 216.1,-17.187C216.1,-13.693 215.897,-10.991 215.491,-9.081C214.963,-6.318 213.876,-3.951 212.23,-1.981C210.585,-0.01 208.888,0.975 207.141,0.975C205.394,0.975 203.88,0.559 202.6,-0.274C201.32,-1.107 200.68,-2.032 200.68,-3.047C200.68,-3.698 200.985,-4.287 201.595,-4.815C201.96,-5.14 202.306,-5.303 202.631,-5.303C202.956,-5.303 203.362,-4.998 203.85,-4.388C204.5,-3.494 205.536,-3.047 206.958,-3.047C207.852,-3.047 208.533,-3.261 209,-3.687C209.467,-4.114 210.026,-5.018 210.676,-6.4C211.407,-8.106 211.773,-9.284 211.773,-9.935C211.773,-10.219 211.692,-10.361 211.529,-10.361C211.326,-10.361 210.981,-10.117 210.493,-9.63C209.884,-9.02 208.969,-8.716 207.75,-8.716C206.125,-8.716 204.886,-9.183 204.033,-10.117C203.22,-10.93 202.509,-12.576 201.899,-15.054C201.331,-17.452 201.046,-20.54 201.046,-24.318ZM223.109,-29.743C223.719,-30.434 224.471,-30.779 225.365,-30.779C225.405,-30.779 225.476,-30.769 225.578,-30.748C225.679,-30.728 225.751,-30.718 225.791,-30.718C226.441,-30.637 226.888,-30.403 227.132,-30.017C227.376,-29.631 227.498,-28.971 227.498,-28.036C227.498,-26.939 227.366,-26.259 227.102,-25.994C226.837,-25.73 226.157,-25.598 225.06,-25.598C224.207,-25.598 223.526,-25.791 223.018,-26.177C222.51,-26.563 222.256,-27.061 222.256,-27.671C222.256,-28.28 222.541,-28.971 223.109,-29.743ZM222.561,-12.677C222.845,-13.449 223.658,-13.835 224.999,-13.835C225.771,-13.835 226.35,-13.673 226.736,-13.348C227.122,-13.023 227.416,-12.474 227.62,-11.702C227.742,-11.296 227.802,-10.869 227.802,-10.422C227.802,-8.959 227.01,-8.228 225.425,-8.228C225.06,-8.228 224.775,-8.248 224.572,-8.289C223.841,-8.37 223.272,-8.675 222.866,-9.203C222.459,-9.731 222.256,-10.361 222.256,-11.093C222.256,-11.54 222.358,-12.068 222.561,-12.677ZM-221.238,-35.35C-220.466,-36.813 -219.348,-37.544 -217.886,-37.544C-216.464,-37.544 -215.143,-36.874 -213.924,-35.533C-212.746,-34.273 -211.527,-31.551 -210.267,-27.366C-209.292,-23.953 -208.601,-22.246 -208.195,-22.246C-208.073,-22.246 -207.951,-22.388 -207.829,-22.673C-206.976,-25.07 -205.747,-27.874 -204.142,-31.084C-202.537,-34.294 -201.45,-36.142 -200.881,-36.63C-200.231,-37.158 -199.52,-37.422 -198.748,-37.422C-197.935,-37.422 -197.163,-37.138 -196.432,-36.569C-195.7,-36 -195.152,-35.228 -194.786,-34.253C-194.177,-32.424 -193.872,-27.894 -193.872,-20.661C-193.872,-16.395 -193.953,-13.459 -194.116,-11.854C-194.278,-10.249 -194.583,-9.366 -195.03,-9.203C-195.314,-9.081 -195.579,-9.02 -195.822,-9.02C-196.351,-9.02 -196.696,-9.549 -196.858,-10.605C-197.021,-11.661 -197.102,-13.795 -197.102,-17.005C-197.102,-21.433 -197.275,-25.161 -197.62,-28.189C-197.966,-31.216 -198.382,-32.729 -198.87,-32.729C-199.398,-32.729 -200.363,-31.043 -201.765,-27.671C-203.167,-24.298 -204.314,-20.905 -205.208,-17.492C-206.224,-13.551 -206.976,-11.336 -207.463,-10.849C-207.829,-10.483 -208.195,-10.3 -208.561,-10.3C-209.739,-10.3 -210.694,-12.21 -211.425,-16.029C-212.441,-21.068 -213.518,-25.172 -214.655,-28.341C-215.793,-31.51 -216.728,-33.095 -217.459,-33.095C-217.825,-33.095 -218.129,-32.648 -218.373,-31.754C-218.698,-30.454 -219.044,-26.756 -219.409,-20.661C-219.653,-16.923 -219.887,-14.455 -220.11,-13.256C-220.334,-12.058 -220.689,-11.458 -221.177,-11.458C-221.583,-11.458 -221.908,-12.555 -222.152,-14.749C-222.396,-16.944 -222.518,-19.544 -222.518,-22.551C-222.518,-29.54 -222.091,-33.806 -221.238,-35.35ZM-184.73,-26.025C-182.536,-28.178 -180.565,-29.255 -178.818,-29.255C-177.721,-29.255 -176.522,-28.829 -175.222,-27.975C-173.8,-27.081 -173.089,-25.436 -173.089,-23.038C-173.089,-21.982 -173.271,-20.946 -173.637,-19.93C-173.962,-19.158 -174.887,-18.356 -176.41,-17.523C-177.934,-16.69 -179.285,-16.273 -180.463,-16.273C-181.276,-16.273 -181.682,-16.131 -181.682,-15.847C-181.682,-15.643 -181.52,-15.217 -181.195,-14.567C-180.91,-14.038 -180.656,-13.683 -180.433,-13.5C-180.209,-13.317 -179.834,-13.226 -179.305,-13.226C-178.533,-13.226 -176.685,-13.591 -173.759,-14.323C-173.19,-14.445 -172.764,-14.506 -172.479,-14.506C-171.87,-14.506 -171.565,-14.038 -171.565,-13.104C-171.565,-11.438 -173.759,-10.138 -178.147,-9.203C-178.269,-9.163 -178.472,-9.142 -178.757,-9.142C-180.26,-9.142 -181.743,-9.853 -183.206,-11.275C-184.669,-12.698 -185.522,-14.303 -185.766,-16.09C-186.172,-18.203 -186.639,-19.808 -187.168,-20.905C-187.412,-21.393 -187.533,-21.819 -187.533,-22.185C-187.533,-22.876 -186.599,-24.156 -184.73,-26.025ZM-179.976,-20.479C-179.854,-20.438 -179.691,-20.418 -179.488,-20.418C-178.757,-20.418 -178.097,-20.692 -177.507,-21.24C-176.918,-21.789 -176.624,-22.429 -176.624,-23.16C-176.624,-23.485 -176.725,-23.892 -176.928,-24.379C-177.294,-25.151 -177.66,-25.537 -178.025,-25.537C-178.351,-25.537 -178.899,-25.334 -179.671,-24.928C-181.012,-24.237 -181.682,-23.323 -181.682,-22.185C-181.682,-21.169 -181.114,-20.601 -179.976,-20.479ZM-151.147,-38.458C-150.822,-38.865 -150.131,-39.068 -149.075,-39.068C-148.669,-39.068 -148.425,-38.987 -148.344,-38.824C-148.344,-38.783 -148.323,-38.133 -148.283,-36.874C-148.242,-35.614 -148.181,-33.755 -148.1,-31.297C-148.019,-28.839 -147.937,-26.452 -147.856,-24.136C-147.734,-20.113 -147.673,-17.106 -147.673,-15.115C-147.673,-12.921 -147.754,-11.438 -147.917,-10.666C-148.08,-9.894 -148.364,-9.427 -148.77,-9.264C-149.095,-9.183 -149.4,-9.142 -149.685,-9.142C-150.335,-9.142 -150.822,-9.284 -151.147,-9.569C-151.432,-9.813 -151.757,-9.935 -152.122,-9.935C-152.488,-9.935 -152.996,-9.711 -153.646,-9.264C-154.703,-8.492 -156.064,-8.106 -157.73,-8.106C-160.046,-8.106 -161.854,-8.817 -163.154,-10.239C-164.007,-11.133 -164.546,-12.047 -164.769,-12.982C-164.993,-13.917 -165.104,-15.684 -165.104,-18.284C-165.104,-21.738 -164.647,-24.329 -163.733,-26.055C-162.819,-27.782 -161.265,-28.95 -159.071,-29.56C-158.339,-29.804 -157.73,-29.926 -157.242,-29.926C-156.389,-29.926 -155.353,-29.458 -154.134,-28.524L-151.696,-26.756L-151.696,-32.364C-151.696,-36.142 -151.513,-38.174 -151.147,-38.458ZM-155.17,-24.806C-156.267,-25.537 -157.141,-25.903 -157.791,-25.903C-158.441,-25.903 -159.172,-25.476 -159.985,-24.623C-161.163,-23.282 -161.752,-21.149 -161.752,-18.224C-161.752,-16.639 -161.539,-15.217 -161.112,-13.957C-160.686,-12.698 -160.086,-11.926 -159.314,-11.641C-158.989,-11.56 -158.725,-11.519 -158.522,-11.519C-157.587,-11.519 -156.541,-11.926 -155.383,-12.738C-154.225,-13.551 -153.382,-14.526 -152.854,-15.664C-152.407,-16.558 -152.183,-17.533 -152.183,-18.589C-152.183,-21.312 -153.179,-23.384 -155.17,-24.806ZM-140.969,-38.58C-140.359,-39.352 -139.567,-39.738 -138.592,-39.738C-138.551,-39.738 -138.49,-39.728 -138.409,-39.708C-138.328,-39.688 -138.267,-39.677 -138.226,-39.677C-137.576,-39.596 -137.129,-39.362 -136.885,-38.976C-136.642,-38.59 -136.52,-37.93 -136.52,-36.996C-136.52,-35.98 -136.642,-35.32 -136.885,-35.015C-137.129,-34.71 -137.657,-34.558 -138.47,-34.558C-139.364,-34.558 -140.105,-34.812 -140.695,-35.32C-141.284,-35.827 -141.578,-36.406 -141.578,-37.057C-141.578,-37.625 -141.375,-38.133 -140.969,-38.58ZM-140.603,-29.926C-140.4,-30.494 -139.912,-30.779 -139.14,-30.779C-139.1,-30.779 -139.039,-30.769 -138.958,-30.748C-138.876,-30.728 -138.815,-30.718 -138.775,-30.718C-138.125,-30.596 -137.718,-30.017 -137.556,-28.981C-137.393,-27.945 -137.312,-25.456 -137.312,-21.515C-137.312,-17.37 -137.393,-14.851 -137.556,-13.957C-137.718,-13.063 -138.186,-12.616 -138.958,-12.616C-139.689,-12.616 -140.156,-13.043 -140.359,-13.896C-140.563,-14.749 -140.725,-17.005 -140.847,-20.661L-140.847,-23.709C-140.847,-27.406 -140.766,-29.479 -140.603,-29.926ZM-123.538,-29.194C-121.912,-29.885 -120.714,-30.23 -119.942,-30.23C-119.21,-30.23 -117.971,-29.885 -116.224,-29.194C-114.355,-28.422 -113.055,-27.132 -112.323,-25.324C-111.592,-23.516 -111.145,-20.499 -110.982,-16.273C-110.901,-13.591 -110.86,-12.108 -110.86,-11.824C-110.86,-10.605 -110.952,-9.843 -111.135,-9.538C-111.318,-9.234 -111.693,-9.081 -112.262,-9.081C-112.912,-9.081 -113.359,-9.284 -113.603,-9.691C-113.847,-10.097 -114.05,-10.95 -114.213,-12.251C-114.456,-13.917 -114.68,-14.749 -114.883,-14.749C-114.964,-14.749 -115.208,-14.424 -115.614,-13.774C-116.224,-12.677 -117.453,-11.682 -119.302,-10.788C-121.151,-9.894 -122.867,-9.447 -124.452,-9.447C-126.037,-9.447 -127.418,-10.097 -128.596,-11.397C-129.247,-12.088 -129.683,-12.718 -129.907,-13.287C-130.13,-13.856 -130.242,-14.648 -130.242,-15.664C-130.242,-15.989 -130.201,-16.801 -130.12,-18.102C-129.673,-23.75 -127.479,-27.447 -123.538,-29.194ZM-116.407,-24.867C-117.26,-25.842 -118.438,-26.33 -119.942,-26.33C-121.486,-26.33 -122.766,-25.822 -123.781,-24.806C-124.594,-23.993 -125.305,-22.713 -125.915,-20.966C-126.524,-19.219 -126.829,-17.675 -126.829,-16.334C-126.829,-15.847 -126.768,-15.42 -126.646,-15.054C-126.321,-13.998 -125.366,-13.47 -123.781,-13.47C-122.725,-13.47 -121.648,-13.774 -120.551,-14.384C-119.495,-14.912 -118.337,-16.558 -117.077,-19.321C-116.102,-21.474 -115.614,-22.815 -115.614,-23.343C-115.614,-23.831 -115.879,-24.339 -116.407,-24.867ZM-103.79,-29.743C-103.181,-30.434 -102.429,-30.779 -101.535,-30.779C-101.495,-30.779 -101.424,-30.769 -101.322,-30.748C-101.22,-30.728 -101.149,-30.718 -101.109,-30.718C-100.459,-30.637 -100.012,-30.403 -99.768,-30.017C-99.524,-29.631 -99.402,-28.971 -99.402,-28.036C-99.402,-26.939 -99.534,-26.259 -99.798,-25.994C-100.062,-25.73 -100.743,-25.598 -101.84,-25.598C-102.693,-25.598 -103.374,-25.791 -103.882,-26.177C-104.39,-26.563 -104.644,-27.061 -104.644,-27.671C-104.644,-28.28 -104.359,-28.971 -103.79,-29.743ZM-104.339,-12.677C-104.055,-13.449 -103.242,-13.835 -101.901,-13.835C-101.129,-13.835 -100.55,-13.673 -100.164,-13.348C-99.778,-13.023 -99.483,-12.474 -99.28,-11.702C-99.158,-11.296 -99.097,-10.869 -99.097,-10.422C-99.097,-8.959 -99.89,-8.228 -101.474,-8.228C-101.84,-8.228 -102.125,-8.248 -102.328,-8.289C-103.059,-8.37 -103.628,-8.675 -104.034,-9.203C-104.441,-9.731 -104.644,-10.361 -104.644,-11.093C-104.644,-11.54 -104.542,-12.068 -104.339,-12.677Z" style="fill:rgb(207,80,73);"/>
        </g>
    </g>
</svg>
