<svg width="100%" height="100%" viewBox="0 0 800 800" version="1.1" xmlns="http://www.w3.org/2000/svg" xmlns:xlink="http://www.w3.org/1999/xlink" xml:space="preserve" xmlns:serif="http://www.serif.com/" style="fill-rule:evenodd;clip-rule:evenodd;stroke-linejoin:round;stroke-miterlimit:2;">
    <g transform="matrix(0.989673,0,0,0.989673,220.23,157)">
        <g>
            <path class="step3a" d="M65.012,-42.669C66.706,-43.585 68.653,-44.043 70.852,-44.043C72.959,-44.043 74.906,-43.608 76.692,-42.737C78.479,-41.867 79.716,-40.676 80.403,-39.164C81.09,-37.699 81.433,-36.347 81.433,-35.111C81.433,-33.782 81.021,-32.133 80.196,-30.164C78.502,-26.087 75.387,-23.453 70.852,-22.262L67.004,-21.369L67.004,-16.628C67.004,-12.139 66.226,-9.894 64.668,-9.894C64.347,-9.894 64.096,-9.94 63.912,-10.032C63.271,-10.306 62.87,-11.383 62.71,-13.261C62.55,-15.139 62.469,-19.376 62.469,-25.972L62.469,-41.294L65.012,-42.669ZM76.898,-34.698C76.898,-36.576 76.555,-37.859 75.868,-38.546C75.181,-39.233 73.509,-39.577 70.852,-39.577L67.004,-39.577L67.004,-32.843C67.004,-30.095 67.096,-28.274 67.279,-27.381C67.462,-26.488 67.829,-26.041 68.378,-26.041C69.524,-26.041 70.944,-26.533 72.638,-27.518C74.333,-28.503 75.456,-29.476 76.005,-30.438C76.601,-31.584 76.898,-33.004 76.898,-34.698ZM88.716,-15.254C88.579,-16.903 88.51,-21.735 88.51,-29.751C88.51,-37.767 88.591,-42.6 88.751,-44.249C88.911,-45.898 89.404,-46.723 90.228,-46.723C90.915,-46.723 91.408,-46.368 91.705,-45.658C92.003,-44.948 92.289,-43.447 92.564,-41.157C92.931,-37.034 93.114,-33.233 93.114,-29.751C93.114,-26.316 92.931,-22.537 92.564,-18.414C92.289,-16.124 92.003,-14.624 91.705,-13.914C91.408,-13.204 90.915,-12.849 90.228,-12.849C89.404,-12.849 88.9,-13.65 88.716,-15.254ZM107.749,-32.912C109.581,-33.691 110.933,-34.08 111.803,-34.08C112.627,-34.08 114.025,-33.691 115.994,-32.912C118.101,-32.042 119.567,-30.587 120.392,-28.549C121.216,-26.51 121.72,-23.109 121.903,-18.345C121.995,-15.322 122.041,-13.65 122.041,-13.33C122.041,-11.955 121.938,-11.097 121.731,-10.753C121.525,-10.41 121.102,-10.238 120.46,-10.238C119.727,-10.238 119.224,-10.467 118.949,-10.925C118.674,-11.383 118.445,-12.345 118.262,-13.811C117.987,-15.689 117.735,-16.628 117.506,-16.628C117.414,-16.628 117.139,-16.261 116.681,-15.528C115.994,-14.292 114.609,-13.169 112.524,-12.162C110.44,-11.154 108.505,-10.65 106.718,-10.65C104.932,-10.65 103.375,-11.383 102.046,-12.849C101.313,-13.627 100.821,-14.337 100.569,-14.979C100.317,-15.62 100.191,-16.513 100.191,-17.658C100.191,-18.025 100.237,-18.941 100.328,-20.407C100.832,-26.774 103.306,-30.942 107.749,-32.912ZM115.788,-28.034C114.826,-29.133 113.498,-29.683 111.803,-29.683C110.062,-29.683 108.619,-29.11 107.474,-27.965C106.558,-27.049 105.756,-25.606 105.069,-23.636C104.382,-21.666 104.039,-19.926 104.039,-18.414C104.039,-17.864 104.107,-17.384 104.245,-16.971C104.611,-15.78 105.688,-15.185 107.474,-15.185C108.665,-15.185 109.879,-15.528 111.116,-16.215C112.307,-16.811 113.612,-18.666 115.032,-21.781C116.132,-24.209 116.681,-25.72 116.681,-26.316C116.681,-26.865 116.384,-27.438 115.788,-28.034ZM129.186,-27.278L129.186,-29.202C129.186,-31.263 129.289,-32.557 129.496,-33.084C129.702,-33.61 130.148,-33.874 130.835,-33.874C131.339,-33.874 131.832,-33.702 132.313,-33.359C132.794,-33.015 133.103,-32.591 133.24,-32.087C133.515,-31.171 133.813,-30.713 134.134,-30.713C134.454,-30.713 135.004,-31.011 135.783,-31.606C136.928,-32.431 138.21,-32.843 139.63,-32.843C142.15,-32.843 144.383,-31.538 146.329,-28.927C148.276,-26.316 149.25,-23.155 149.25,-19.445C149.25,-14.406 148.311,-11.887 146.433,-11.887C145.654,-11.887 145.173,-12.196 144.99,-12.814C144.806,-13.433 144.715,-14.956 144.715,-17.384C144.715,-20.544 144.28,-23.167 143.409,-25.251C142.539,-27.335 141.463,-28.377 140.18,-28.377C138.852,-28.377 137.844,-27.724 137.157,-26.419C136.47,-25.113 135.828,-22.651 135.233,-19.033C134.729,-16.193 134.305,-14.372 133.962,-13.57C133.618,-12.769 133.08,-12.368 132.347,-12.368C130.286,-12.368 129.232,-17.338 129.186,-27.278ZM159.625,-29.339C162.098,-31.767 164.32,-32.981 166.29,-32.981C167.526,-32.981 168.878,-32.5 170.343,-31.538C171.947,-30.53 172.748,-28.675 172.748,-25.972C172.748,-24.781 172.542,-23.613 172.13,-22.468C171.763,-21.598 170.721,-20.693 169.004,-19.754C167.286,-18.815 165.763,-18.345 164.434,-18.345C163.518,-18.345 163.06,-18.185 163.06,-17.864C163.06,-17.635 163.243,-17.154 163.61,-16.422C163.931,-15.826 164.217,-15.425 164.469,-15.219C164.721,-15.013 165.144,-14.91 165.74,-14.91C166.61,-14.91 168.694,-15.322 171.993,-16.147C172.634,-16.284 173.115,-16.353 173.435,-16.353C174.122,-16.353 174.466,-15.826 174.466,-14.773C174.466,-12.895 171.993,-11.429 167.045,-10.375C166.908,-10.329 166.679,-10.306 166.358,-10.306C164.663,-10.306 162.992,-11.108 161.343,-12.711C159.693,-14.314 158.732,-16.124 158.457,-18.139C157.999,-20.521 157.472,-22.331 156.876,-23.567C156.602,-24.117 156.464,-24.598 156.464,-25.01C156.464,-25.789 157.518,-27.232 159.625,-29.339ZM164.984,-23.086C165.122,-23.041 165.305,-23.018 165.534,-23.018C166.358,-23.018 167.103,-23.327 167.767,-23.945C168.431,-24.564 168.763,-25.285 168.763,-26.11C168.763,-26.476 168.649,-26.934 168.42,-27.484C168.007,-28.354 167.595,-28.789 167.183,-28.789C166.816,-28.789 166.198,-28.56 165.328,-28.102C163.816,-27.324 163.06,-26.293 163.06,-25.01C163.06,-23.865 163.702,-23.224 164.984,-23.086ZM189.376,-32.912C191.208,-33.691 192.56,-34.08 193.43,-34.08C194.254,-34.08 195.652,-33.691 197.621,-32.912C199.728,-32.042 201.194,-30.587 202.019,-28.549C202.843,-26.51 203.347,-23.109 203.53,-18.345C203.622,-15.322 203.668,-13.65 203.668,-13.33C203.668,-11.955 203.565,-11.097 203.358,-10.753C203.152,-10.41 202.729,-10.238 202.087,-10.238C201.354,-10.238 200.851,-10.467 200.576,-10.925C200.301,-11.383 200.072,-12.345 199.889,-13.811C199.614,-15.689 199.362,-16.628 199.133,-16.628C199.041,-16.628 198.766,-16.261 198.308,-15.528C197.621,-14.292 196.236,-13.169 194.151,-12.162C192.067,-11.154 190.132,-10.65 188.345,-10.65C186.559,-10.65 185.002,-11.383 183.673,-12.849C182.94,-13.627 182.448,-14.337 182.196,-14.979C181.944,-15.62 181.818,-16.513 181.818,-17.658C181.818,-18.025 181.864,-18.941 181.955,-20.407C182.459,-26.774 184.933,-30.942 189.376,-32.912ZM197.415,-28.034C196.453,-29.133 195.125,-29.683 193.43,-29.683C191.689,-29.683 190.246,-29.11 189.101,-27.965C188.185,-27.049 187.383,-25.606 186.696,-23.636C186.009,-21.666 185.666,-19.926 185.666,-18.414C185.666,-17.864 185.734,-17.384 185.872,-16.971C186.238,-15.78 187.315,-15.185 189.101,-15.185C190.292,-15.185 191.506,-15.528 192.743,-16.215C193.934,-16.811 195.239,-18.666 196.659,-21.781C197.759,-24.209 198.308,-25.72 198.308,-26.316C198.308,-26.865 198.011,-27.438 197.415,-28.034ZM216.722,-32.087C218.555,-33.278 220.479,-33.874 222.494,-33.874C224.784,-33.874 226.8,-33.049 228.541,-31.4C230.235,-29.705 231.083,-28.4 231.083,-27.484C231.083,-26.843 230.648,-26.362 229.777,-26.041C229.686,-25.995 229.525,-25.972 229.296,-25.972C228.334,-25.972 227.304,-26.568 226.204,-27.759C225.013,-28.995 223.754,-29.614 222.425,-29.614C220.639,-29.614 218.807,-28.537 216.929,-26.384C215.463,-24.735 214.73,-23.247 214.73,-21.918C214.73,-20.911 215.188,-19.765 216.104,-18.483C217.02,-17.154 218.417,-16.49 220.295,-16.49C221.715,-16.49 223.067,-16.948 224.349,-17.864C225.494,-18.735 226.548,-19.17 227.51,-19.17C228.701,-19.17 229.296,-18.574 229.296,-17.384C229.296,-16.009 228.369,-14.83 226.514,-13.845C224.658,-12.86 222.448,-12.368 219.883,-12.368C217.959,-12.368 216.585,-12.517 215.761,-12.814C214.936,-13.112 214.066,-13.811 213.15,-14.91C211.684,-16.651 210.951,-18.804 210.951,-21.369C210.951,-23.476 211.466,-25.514 212.497,-27.484C213.527,-29.454 214.936,-30.988 216.722,-32.087ZM238.847,-43.493C239.534,-44.363 240.427,-44.799 241.527,-44.799C241.572,-44.799 241.641,-44.787 241.733,-44.764C241.824,-44.741 241.893,-44.73 241.939,-44.73C242.672,-44.638 243.176,-44.375 243.45,-43.94C243.725,-43.505 243.863,-42.76 243.863,-41.707C243.863,-40.562 243.725,-39.817 243.45,-39.474C243.176,-39.13 242.58,-38.958 241.664,-38.958C240.656,-38.958 239.82,-39.245 239.156,-39.817C238.492,-40.39 238.16,-41.043 238.16,-41.775C238.16,-42.417 238.389,-42.989 238.847,-43.493ZM239.259,-33.736C239.488,-34.378 240.038,-34.698 240.908,-34.698C240.954,-34.698 241.023,-34.687 241.114,-34.664C241.206,-34.641 241.275,-34.63 241.32,-34.63C242.053,-34.492 242.511,-33.839 242.695,-32.671C242.878,-31.503 242.97,-28.698 242.97,-24.254C242.97,-19.582 242.878,-16.742 242.695,-15.734C242.511,-14.727 241.985,-14.223 241.114,-14.223C240.29,-14.223 239.763,-14.704 239.534,-15.666C239.305,-16.628 239.122,-19.17 238.984,-23.293L238.984,-26.728C238.984,-30.896 239.076,-33.233 239.259,-33.736ZM256.024,-32.774C257.719,-34.103 259.872,-34.767 262.483,-34.767C264.086,-34.767 265.415,-34.469 266.468,-33.874C267.751,-33.187 269.262,-31.068 271.003,-27.518C272.744,-23.968 273.614,-21.277 273.614,-19.445C273.614,-19.124 273.591,-18.895 273.545,-18.758C272.904,-16.284 271.518,-14.337 269.388,-12.917C267.258,-11.497 264.888,-10.787 262.277,-10.787C258.521,-10.787 255.543,-12.116 253.345,-14.773C251.741,-16.651 250.94,-19.01 250.94,-21.85C250.94,-23.957 251.386,-25.995 252.28,-27.965C253.173,-29.934 254.421,-31.538 256.024,-32.774ZM264.063,-27.415C262.689,-28.056 261.246,-28.377 259.735,-28.377C257.673,-28.377 256.46,-27.896 256.093,-26.934C255.727,-25.835 255.543,-24.163 255.543,-21.918C255.543,-19.72 256.162,-17.956 257.399,-16.628C258.635,-15.299 260.147,-14.635 261.933,-14.635C263.674,-14.635 265.346,-15.276 266.949,-16.559C268.415,-17.75 269.148,-19.124 269.148,-20.682C269.148,-21.918 268.701,-23.144 267.808,-24.358C266.915,-25.571 265.667,-26.591 264.063,-27.415ZM280.76,-27.278L280.76,-29.202C280.76,-31.263 280.863,-32.557 281.069,-33.084C281.275,-33.61 281.722,-33.874 282.409,-33.874C282.913,-33.874 283.405,-33.702 283.886,-33.359C284.367,-33.015 284.676,-32.591 284.814,-32.087C285.088,-31.171 285.386,-30.713 285.707,-30.713C286.028,-30.713 286.577,-31.011 287.356,-31.606C288.501,-32.431 289.784,-32.843 291.204,-32.843C293.723,-32.843 295.956,-31.538 297.903,-28.927C299.85,-26.316 300.823,-23.155 300.823,-19.445C300.823,-14.406 299.884,-11.887 298.006,-11.887C297.227,-11.887 296.746,-12.196 296.563,-12.814C296.38,-13.433 296.288,-14.956 296.288,-17.384C296.288,-20.544 295.853,-23.167 294.983,-25.251C294.112,-27.335 293.036,-28.377 291.753,-28.377C290.425,-28.377 289.417,-27.724 288.73,-26.419C288.043,-25.113 287.402,-22.651 286.806,-19.033C286.302,-16.193 285.879,-14.372 285.535,-13.57C285.192,-12.769 284.653,-12.368 283.92,-12.368C281.859,-12.368 280.806,-17.338 280.76,-27.278ZM269.963,-37.505C269.084,-36.85 267.839,-37.031 267.184,-37.91C266.529,-38.788 266.71,-40.033 267.589,-40.688C269.303,-41.967 270.588,-43.568 271.929,-44.539C272.817,-45.181 274.059,-44.982 274.701,-44.095C275.344,-43.207 275.145,-41.965 274.257,-41.322C272.929,-40.361 271.66,-38.772 269.963,-37.505Z" style="fill:rgb(0,83,191);"/>
        </g>
    </g>
</svg>
