<svg width="100%" height="100%" viewBox="0 0 800 800" version="1.1" xmlns="http://www.w3.org/2000/svg" xmlns:xlink="http://www.w3.org/1999/xlink" xml:space="preserve" xmlns:serif="http://www.serif.com/" style="fill-rule:evenodd;clip-rule:evenodd;stroke-linejoin:round;stroke-miterlimit:2;">
    <g transform="matrix(0.914804,0,0,0.914804,72.4253,234.371)">
        <g>
            <path class="step3e" d="M193.906,1.021C192.969,1.021 192.5,0.291 192.5,-1.169C192.5,-1.416 192.515,-1.677 192.545,-1.954L192.545,-2.102C193.068,-7.026 193.768,-11.959 194.646,-16.903C193.877,-16.41 193.117,-15.887 192.367,-15.334C190.551,-14.022 189.229,-13.366 188.4,-13.366C187.789,-13.366 187.483,-13.597 187.483,-14.061L187.483,-14.165C187.562,-15.102 188.489,-16.257 190.265,-17.628C191.716,-18.753 193.29,-19.775 194.987,-20.692C195.836,-21.146 196.507,-21.373 197,-21.373C197.918,-21.373 198.376,-20.702 198.376,-19.36C198.376,-19.173 198.367,-18.97 198.347,-18.753C198.317,-18.457 198.273,-18.146 198.214,-17.821C197.276,-12.561 196.502,-7.302 195.89,-2.043C195.653,0 194.992,1.021 193.906,1.021ZM286.601,0.636C286.088,0.636 285.684,0.41 285.388,-0.044C285.24,-0.281 285.166,-0.528 285.166,-0.784L285.166,-0.873C285.195,-1.179 285.329,-1.485 285.565,-1.791C286,-2.383 286.503,-2.926 287.075,-3.419C287.253,-3.567 287.411,-3.71 287.549,-3.848C288.091,-4.361 288.772,-4.968 289.591,-5.669C290.608,-6.557 291.666,-7.522 292.766,-8.563C293.866,-9.604 294.816,-10.64 295.615,-11.671C296.415,-12.702 296.849,-13.652 296.918,-14.52C296.928,-14.688 296.933,-14.846 296.933,-14.994C296.933,-16.711 296,-17.569 294.135,-17.569C293.247,-17.569 292.285,-17.461 291.249,-17.244C290.716,-17.135 290.247,-17.081 289.843,-17.081C289.182,-17.081 288.693,-17.204 288.378,-17.451C288.091,-17.688 287.948,-17.949 287.948,-18.235L287.948,-18.324C288.017,-19.212 288.935,-19.868 290.701,-20.293C291.935,-20.579 293.084,-20.722 294.15,-20.722C295.867,-20.722 297.249,-20.347 298.294,-19.597C299.706,-18.59 300.411,-17.17 300.411,-15.334C300.411,-15.117 300.401,-14.895 300.381,-14.668C300.194,-12.527 298.822,-10.178 296.267,-7.623C294.875,-6.231 293.277,-4.731 291.471,-3.123C291.964,-3.153 292.463,-3.167 292.966,-3.167C294.278,-3.167 295.65,-3.064 297.081,-2.857C298.679,-2.6 299.479,-2.052 299.479,-1.214L299.479,-1.095C299.459,-0.799 299.301,-0.523 299.005,-0.266C298.59,0.089 297.924,0.266 297.007,0.266C296.76,0.266 296.504,0.252 296.237,0.222C294.944,0.074 293.657,0 292.374,0C290.746,0 289.266,0.158 287.934,0.474C287.48,0.582 287.036,0.636 286.601,0.636ZM390.59,-0.044C388.685,-0.044 387.733,-0.444 387.733,-1.243L387.733,-1.347C387.753,-1.574 387.857,-1.806 388.044,-2.043C388.488,-2.575 389.401,-2.876 390.782,-2.945C393.989,-3.113 396.333,-3.745 397.813,-4.84C398.158,-5.097 398.341,-5.363 398.361,-5.639L398.361,-5.728C398.361,-5.886 398.316,-6.039 398.227,-6.187C397.951,-6.661 397.455,-7.114 396.74,-7.549C396.024,-7.983 395.302,-8.382 394.571,-8.748C393.18,-9.428 392.484,-10.085 392.484,-10.716L392.484,-10.79C392.514,-11.214 392.805,-11.604 393.358,-11.959C393.743,-12.196 394.132,-12.408 394.527,-12.596C395.139,-12.872 395.879,-13.326 396.747,-13.958C397.477,-14.481 398.087,-15.013 398.575,-15.556C399.064,-16.099 399.328,-16.568 399.367,-16.962L399.367,-17.036C399.367,-17.658 398.765,-17.969 397.561,-17.969C396.209,-17.969 394.433,-17.697 392.233,-17.155C391.562,-16.987 390.989,-16.903 390.516,-16.903C389.963,-16.903 389.544,-17.002 389.258,-17.199C388.932,-17.416 388.769,-17.683 388.769,-17.998L388.769,-18.072C388.838,-18.941 389.687,-19.607 391.315,-20.071C393.614,-20.732 395.662,-21.062 397.458,-21.062C400.497,-21.062 402.253,-20.021 402.727,-17.939C402.776,-17.722 402.801,-17.495 402.801,-17.258L402.786,-17.021C402.727,-16.429 402.52,-15.818 402.164,-15.186C401.602,-14.249 400.847,-13.39 399.9,-12.611C398.953,-11.831 397.961,-11.244 396.925,-10.849C400.29,-9.201 401.972,-7.593 401.972,-6.024C401.972,-5.965 401.967,-5.906 401.957,-5.847C401.809,-4.189 400.635,-2.797 398.435,-1.673C396.313,-0.587 393.698,-0.044 390.59,-0.044ZM499.315,0.459C498.348,0.459 497.864,-0.197 497.864,-1.51C497.864,-1.697 497.874,-1.89 497.894,-2.087C497.973,-2.896 498.096,-3.814 498.264,-4.84L497.376,-4.84C496.004,-4.84 494.613,-4.717 493.202,-4.47C492.422,-4.332 491.707,-4.263 491.056,-4.263C490.315,-4.263 489.945,-4.613 489.945,-5.314C489.945,-5.383 489.95,-5.457 489.96,-5.536C490.01,-6.078 490.311,-7.07 490.863,-8.511C492.077,-11.58 493.68,-15.048 495.674,-18.916C496.532,-20.584 497.366,-21.417 498.175,-21.417C498.945,-21.417 499.329,-20.993 499.329,-20.145C499.329,-20.046 499.325,-19.942 499.315,-19.834C499.275,-19.409 499.122,-18.926 498.856,-18.383C497.159,-14.969 495.6,-11.432 494.179,-7.771C495.284,-7.919 496.404,-7.993 497.539,-7.993L498.811,-7.993C499.473,-11.367 500.42,-15.3 501.653,-19.789C502.176,-21.733 502.941,-22.705 503.947,-22.705C504.757,-22.705 505.161,-22.128 505.161,-20.973C505.161,-20.816 505.151,-20.643 505.132,-20.455C505.102,-20.14 505.038,-19.784 504.939,-19.39C503.617,-14.288 502.694,-10.371 502.171,-7.637C503.582,-7.361 504.288,-6.833 504.288,-6.054L504.288,-5.921C504.209,-5.032 503.321,-4.588 501.624,-4.588C501.495,-3.74 501.372,-2.901 501.254,-2.072C501.037,-0.385 500.39,0.459 499.315,0.459ZM594.304,0.133C592.498,0.133 591.595,-0.306 591.595,-1.184L591.595,-1.317C591.674,-2.245 592.824,-2.802 595.044,-2.99C595.735,-3.049 596.44,-3.163 597.161,-3.33C599.233,-3.824 600.557,-4.354 601.135,-4.921C601.712,-5.489 602.02,-6.004 602.06,-6.468C602.07,-6.527 602.075,-6.582 602.075,-6.631C602.075,-6.858 602.025,-7.08 601.927,-7.297C601.295,-8.846 599.248,-10.267 595.784,-11.56C594.412,-12.073 593.727,-12.626 593.727,-13.218L593.727,-13.292C593.786,-14.041 594.403,-16.074 595.577,-19.39C595.902,-20.327 597.767,-20.801 601.172,-20.811C602.356,-20.811 603.555,-20.791 604.768,-20.751C607.225,-20.672 608.454,-20.164 608.454,-19.227L608.454,-19.123C608.365,-18.137 607.196,-17.643 604.946,-17.643L602.119,-17.658C600.925,-17.658 599.706,-17.618 598.463,-17.54C598.108,-16.503 597.767,-15.462 597.442,-14.416C599.997,-13.489 602.065,-12.285 603.643,-10.805C604.936,-9.601 605.582,-8.338 605.582,-7.016C605.582,-6.888 605.578,-6.764 605.568,-6.646C605.518,-6.093 605.351,-5.526 605.064,-4.944C604.048,-2.842 601.966,-1.381 598.818,-0.562C597.042,-0.099 595.537,0.133 594.304,0.133ZM701.963,0.326C700.789,0.326 699.674,0.069 698.618,-0.444C697.246,-1.095 696.245,-2.151 695.613,-3.612C695.317,-4.292 695.169,-5.042 695.169,-5.861C695.169,-6.059 695.179,-6.261 695.199,-6.468C695.228,-6.833 695.288,-7.213 695.376,-7.608C695.988,-10.321 697.488,-13.445 699.876,-16.977C701.09,-18.773 702.096,-20.14 702.895,-21.077C703.803,-22.162 704.706,-22.705 705.604,-22.705C706.265,-22.705 706.596,-22.414 706.596,-21.832L706.596,-21.684C706.546,-21.141 706.186,-20.411 705.515,-19.493C704.42,-17.984 703.147,-16.089 701.697,-13.81C703.305,-13.77 704.748,-13.464 706.026,-12.892C707.304,-12.32 708.249,-11.51 708.86,-10.465C709.364,-9.596 709.615,-8.619 709.615,-7.534C709.615,-7.307 709.605,-7.075 709.586,-6.838C709.388,-4.579 708.579,-2.832 707.158,-1.599C705.688,-0.316 703.956,0.326 701.963,0.326ZM702.289,-2.797C703.69,-2.797 704.775,-3.464 705.545,-4.796C705.969,-5.516 706.206,-6.187 706.255,-6.809C706.265,-6.917 706.27,-7.021 706.27,-7.119C706.27,-7.731 706.097,-8.289 705.752,-8.792C704.923,-10.035 703.344,-10.657 701.016,-10.657C700.631,-10.657 700.271,-10.637 699.935,-10.598C699.639,-9.986 699.397,-9.453 699.21,-8.999C698.894,-8.2 698.702,-7.376 698.633,-6.527C698.623,-6.389 698.618,-6.256 698.618,-6.128C698.618,-5.437 698.796,-4.85 699.151,-4.366C699.92,-3.32 700.966,-2.797 702.289,-2.797ZM85.759,76.942C85.048,76.942 84.693,76.518 84.693,75.669C84.693,75.57 84.698,75.467 84.708,75.358C84.738,75.013 84.851,74.623 85.048,74.189C87.663,68.426 90.421,62.703 93.322,57.019C91.378,57.059 89.356,57.079 87.254,57.079C85.626,57.079 84.812,56.644 84.812,55.776L84.812,55.658C84.9,54.651 85.833,54.104 87.609,54.015C90.263,53.886 92.242,53.822 93.544,53.822C96.288,53.822 97.659,54.271 97.659,55.169L97.659,55.243C97.61,55.776 97.23,56.723 96.519,58.085C93.668,63.562 90.999,68.984 88.512,74.352C87.713,76.079 86.795,76.942 85.759,76.942ZM189.229,75.699C188.055,75.699 186.935,75.494 185.869,75.084C184.804,74.675 183.975,74.021 183.383,73.123C183.008,72.541 182.82,71.875 182.82,71.125C182.82,70.977 182.825,70.824 182.835,70.666C182.963,69.206 183.718,67.943 185.1,66.877C186.225,66.028 187.478,65.224 188.859,64.464C187.991,63.764 187.271,62.974 186.698,62.096C186.215,61.346 185.973,60.508 185.973,59.58C185.973,59.422 185.978,59.259 185.988,59.092C186.116,57.611 186.644,56.437 187.571,55.569C188.884,54.335 190.507,53.719 192.441,53.719C194.671,53.719 196.304,54.513 197.34,56.102C197.794,56.822 198.021,57.592 198.021,58.411C198.021,58.529 198.016,58.652 198.006,58.781C197.908,59.896 197.562,60.917 196.97,61.845C196.309,62.871 195.485,63.759 194.498,64.509C195.308,65.14 195.993,65.826 196.556,66.566C197.178,67.385 197.488,68.263 197.488,69.201C197.488,69.339 197.483,69.472 197.474,69.601C197.404,70.37 197.084,71.209 196.511,72.117C194.992,74.505 192.564,75.699 189.229,75.699ZM189.496,72.561C190.996,72.561 192.234,72.092 193.211,71.155C193.704,70.671 193.975,70.197 194.025,69.734L194.025,69.586C194.025,69.053 193.768,68.515 193.255,67.972C192.791,67.479 192.204,66.981 191.494,66.477C191.267,66.616 191.035,66.749 190.798,66.877C187.838,68.535 186.318,69.803 186.239,70.681L186.239,70.785C186.239,71.465 186.757,71.974 187.793,72.309C188.326,72.477 188.894,72.561 189.496,72.561ZM191.893,62.555C193.561,61.351 194.459,60.068 194.587,58.707L194.587,58.588C194.587,58.095 194.343,57.685 193.855,57.36C193.366,57.034 192.782,56.871 192.101,56.871C191.203,56.871 190.497,57.103 189.984,57.567C189.609,57.903 189.397,58.347 189.348,58.899C189.338,58.978 189.333,59.057 189.333,59.136C189.333,59.846 189.624,60.503 190.206,61.105C190.67,61.588 191.232,62.072 191.893,62.555ZM294.18,52.475C295.354,52.475 296.474,52.732 297.54,53.245C298.901,53.896 299.898,54.952 300.529,56.413C300.825,57.093 300.974,57.843 300.974,58.662C300.974,58.86 300.964,59.062 300.944,59.269C300.914,59.634 300.855,60.014 300.766,60.409C300.154,63.122 298.655,66.246 296.267,69.778C295.053,71.574 294.046,72.941 293.247,73.878C292.339,74.964 291.437,75.506 290.539,75.506C289.877,75.506 289.547,75.215 289.547,74.633L289.547,74.485C289.596,73.942 289.956,73.212 290.627,72.294C291.733,70.785 293.01,68.89 294.461,66.611C292.843,66.571 291.395,66.265 290.117,65.693C288.839,65.121 287.894,64.312 287.282,63.266C286.779,62.387 286.527,61.401 286.527,60.305C286.527,60.088 286.537,59.866 286.557,59.639C286.754,57.38 287.564,55.633 288.984,54.4C290.455,53.117 292.186,52.475 294.18,52.475ZM293.869,55.598C292.468,55.598 291.377,56.265 290.598,57.597C290.183,58.317 289.947,58.988 289.887,59.61C289.877,59.708 289.873,59.802 289.873,59.891C289.873,60.513 290.045,61.08 290.391,61.593C291.219,62.836 292.803,63.458 295.142,63.458C295.517,63.458 295.877,63.438 296.222,63.399C296.518,62.787 296.755,62.254 296.933,61.8C297.249,61.001 297.446,60.177 297.525,59.328C297.535,59.2 297.54,59.077 297.54,58.958C297.54,58.258 297.362,57.661 297.007,57.167C296.237,56.121 295.191,55.598 293.869,55.598ZM381.635,75.699C380.698,75.699 380.229,74.968 380.229,73.508C380.229,73.261 380.244,73 380.273,72.724L380.273,72.576C380.796,67.652 381.497,62.718 382.375,57.774C381.605,58.268 380.846,58.791 380.096,59.343C378.28,60.656 376.958,61.312 376.129,61.312C375.517,61.312 375.211,61.08 375.211,60.616L375.211,60.513C375.29,59.575 376.218,58.421 377.994,57.049C379.444,55.924 381.018,54.903 382.716,53.985C383.564,53.531 384.235,53.304 384.729,53.304C385.646,53.304 386.105,53.975 386.105,55.317C386.105,55.505 386.095,55.707 386.075,55.924C386.046,56.22 386.001,56.531 385.942,56.857C385.005,62.116 384.23,67.375 383.618,72.635C383.382,74.677 382.72,75.699 381.635,75.699ZM394.231,75.003C393.067,75.003 391.991,74.682 391.004,74.041C389.672,73.182 388.745,71.934 388.222,70.296C387.827,69.063 387.63,67.745 387.63,66.344C387.63,65.89 387.649,65.431 387.689,64.968C387.857,63.044 388.325,61.201 389.095,59.439C389.865,57.678 390.881,56.232 392.144,55.103C393.407,53.973 394.867,53.408 396.525,53.408C398.242,53.408 399.554,53.923 400.462,54.955C401.37,55.986 401.967,57.276 402.253,58.825C402.451,59.871 402.549,60.927 402.549,61.993C402.549,62.506 402.525,63.019 402.475,63.532C402.219,66.472 401.424,69.082 400.092,71.362C399.461,72.437 398.632,73.301 397.606,73.952C396.52,74.653 395.395,75.003 394.231,75.003ZM394.631,71.85C395.41,71.85 396.101,71.446 396.703,70.637C397.226,69.946 397.655,69.142 397.99,68.224C398.563,66.685 398.933,64.953 399.101,63.029C399.13,62.683 399.145,62.343 399.145,62.007C399.145,60.557 398.869,59.23 398.316,58.026C397.833,56.98 397.181,56.457 396.362,56.457C396.007,56.457 395.612,56.565 395.178,56.783C394.241,57.256 393.442,58.1 392.78,59.314C391.863,61.001 391.31,62.915 391.123,65.057C391.083,65.51 391.063,65.945 391.063,66.359C391.063,68.382 391.547,69.901 392.514,70.918C393.106,71.539 393.812,71.85 394.631,71.85ZM488.436,75.699C487.498,75.699 487.03,74.968 487.03,73.508C487.03,73.261 487.044,73 487.074,72.724L487.074,72.576C487.597,67.652 488.298,62.718 489.176,57.774C488.406,58.268 487.646,58.791 486.896,59.343C485.081,60.656 483.758,61.312 482.93,61.312C482.318,61.312 482.012,61.08 482.012,60.616L482.012,60.513C482.091,59.575 483.018,58.421 484.795,57.049C486.245,55.924 487.819,54.903 489.516,53.985C490.365,53.531 491.036,53.304 491.529,53.304C492.447,53.304 492.906,53.975 492.906,55.317C492.906,55.505 492.896,55.707 492.876,55.924C492.846,56.22 492.802,56.531 492.743,56.857C491.805,62.116 491.031,67.375 490.419,72.635C490.182,74.677 489.521,75.699 488.436,75.699ZM500.454,75.699C499.517,75.699 499.048,74.968 499.048,73.508C499.048,73.261 499.063,73 499.093,72.724L499.093,72.576C499.616,67.652 500.316,62.718 501.194,57.774C500.425,58.268 499.665,58.791 498.915,59.343C497.099,60.656 495.777,61.312 494.948,61.312C494.336,61.312 494.031,61.08 494.031,60.616L494.031,60.513C494.11,59.575 495.037,58.421 496.813,57.049C498.264,55.924 499.838,54.903 501.535,53.985C502.383,53.531 503.054,53.304 503.548,53.304C504.466,53.304 504.924,53.975 504.924,55.317C504.924,55.505 504.914,55.707 504.895,55.924C504.865,56.22 504.821,56.531 504.762,56.857C503.824,62.116 503.05,67.375 502.438,72.635C502.201,74.677 501.54,75.699 500.454,75.699ZM587.836,75.699C586.898,75.699 586.43,74.968 586.43,73.508C586.43,73.261 586.444,73 586.474,72.724L586.474,72.576C586.997,67.652 587.698,62.718 588.576,57.774C587.806,58.268 587.046,58.791 586.296,59.343C584.481,60.656 583.158,61.312 582.33,61.312C581.718,61.312 581.412,61.08 581.412,60.616L581.412,60.513C581.491,59.575 582.418,58.421 584.195,57.049C585.645,55.924 587.219,54.903 588.916,53.985C589.765,53.531 590.436,53.304 590.929,53.304C591.847,53.304 592.306,53.975 592.306,55.317C592.306,55.505 592.296,55.707 592.276,55.924C592.246,56.22 592.202,56.531 592.143,56.857C591.205,62.116 590.431,67.375 589.819,72.635C589.582,74.677 588.921,75.699 587.836,75.699ZM593.149,75.314C592.636,75.314 592.232,75.087 591.936,74.633C591.788,74.396 591.714,74.149 591.714,73.893L591.714,73.804C591.743,73.498 591.876,73.192 592.113,72.886C592.547,72.294 593.051,71.752 593.623,71.258C593.801,71.11 593.959,70.967 594.097,70.829C594.639,70.316 595.32,69.709 596.139,69.008C597.156,68.12 598.214,67.156 599.314,66.115C600.414,65.074 601.364,64.038 602.163,63.007C602.963,61.975 603.397,61.026 603.466,60.157C603.476,59.99 603.481,59.832 603.481,59.684C603.481,57.967 602.548,57.108 600.683,57.108C599.795,57.108 598.833,57.217 597.797,57.434C597.264,57.542 596.795,57.597 596.391,57.597C595.73,57.597 595.241,57.473 594.926,57.227C594.639,56.99 594.496,56.728 594.496,56.442L594.496,56.353C594.565,55.465 595.483,54.809 597.249,54.385C598.483,54.099 599.632,53.956 600.698,53.956C602.415,53.956 603.796,54.33 604.842,55.08C606.253,56.087 606.959,57.508 606.959,59.343C606.959,59.56 606.949,59.782 606.929,60.009C606.742,62.151 605.37,64.499 602.815,67.055C601.423,68.446 599.825,69.946 598.019,71.554C598.512,71.525 599.011,71.51 599.514,71.51C600.826,71.51 602.198,71.613 603.629,71.821C605.227,72.077 606.027,72.625 606.027,73.464L606.027,73.582C606.007,73.878 605.849,74.154 605.553,74.411C605.138,74.766 604.472,74.944 603.555,74.944C603.308,74.944 603.051,74.929 602.785,74.899C601.492,74.751 600.205,74.677 598.922,74.677C597.294,74.677 595.814,74.835 594.481,75.151C594.028,75.26 593.584,75.314 593.149,75.314ZM689.101,75.699C688.163,75.699 687.695,74.968 687.695,73.508C687.695,73.261 687.709,73 687.739,72.724L687.739,72.576C688.262,67.652 688.963,62.718 689.841,57.774C689.071,58.268 688.311,58.791 687.561,59.343C685.746,60.656 684.423,61.312 683.595,61.312C682.983,61.312 682.677,61.08 682.677,60.616L682.677,60.513C682.756,59.575 683.683,58.421 685.46,57.049C686.91,55.924 688.484,54.903 690.181,53.985C691.03,53.531 691.701,53.304 692.194,53.304C693.112,53.304 693.571,53.975 693.571,55.317C693.571,55.505 693.561,55.707 693.541,55.924C693.511,56.22 693.467,56.531 693.408,56.857C692.47,62.116 691.696,67.375 691.084,72.635C690.847,74.677 690.186,75.699 689.101,75.699ZM697.138,74.633C695.233,74.633 694.281,74.233 694.281,73.434L694.281,73.33C694.301,73.103 694.404,72.872 694.592,72.635C695.036,72.102 695.949,71.801 697.33,71.732C700.537,71.564 702.881,70.933 704.361,69.837C704.706,69.581 704.889,69.314 704.908,69.038L704.908,68.949C704.908,68.791 704.864,68.638 704.775,68.49C704.499,68.017 704.003,67.563 703.288,67.129C702.572,66.695 701.85,66.295 701.119,65.93C699.728,65.249 699.032,64.593 699.032,63.961L699.032,63.887C699.062,63.463 699.353,63.073 699.906,62.718C700.29,62.481 700.68,62.269 701.075,62.081C701.687,61.805 702.427,61.351 703.295,60.72C704.025,60.197 704.635,59.664 705.123,59.121C705.612,58.578 705.875,58.11 705.915,57.715L705.915,57.641C705.915,57.019 705.313,56.709 704.109,56.709C702.757,56.709 700.981,56.98 698.781,57.523C698.11,57.69 697.537,57.774 697.064,57.774C696.511,57.774 696.092,57.676 695.806,57.478C695.48,57.261 695.317,56.995 695.317,56.679L695.317,56.605C695.386,55.737 696.235,55.071 697.863,54.607C700.162,53.946 702.21,53.615 704.006,53.615C707.045,53.615 708.801,54.656 709.275,56.738C709.324,56.955 709.349,57.182 709.349,57.419L709.334,57.656C709.275,58.248 709.068,58.86 708.712,59.491C708.15,60.429 707.395,61.287 706.448,62.067C705.501,62.846 704.509,63.433 703.473,63.828C706.838,65.476 708.52,67.084 708.52,68.653C708.52,68.712 708.515,68.772 708.505,68.831C708.357,70.489 707.183,71.88 704.982,73.005C702.861,74.09 700.246,74.633 697.138,74.633ZM678.695,151.273C678.182,151.273 677.778,151.046 677.482,150.592C677.334,150.356 677.26,150.109 677.26,149.852L677.26,149.763C677.289,149.458 677.422,149.152 677.659,148.846C678.093,148.254 678.597,147.711 679.169,147.218C679.347,147.07 679.504,146.927 679.643,146.788C680.185,146.275 680.866,145.668 681.685,144.968C682.702,144.08 683.76,143.115 684.86,142.074C685.96,141.033 686.91,139.997 687.709,138.966C688.509,137.935 688.943,136.985 689.012,136.117C689.022,135.949 689.027,135.791 689.027,135.643C689.027,133.926 688.094,133.068 686.229,133.068C685.341,133.068 684.379,133.176 683.343,133.393C682.81,133.502 682.341,133.556 681.937,133.556C681.276,133.556 680.787,133.433 680.472,133.186C680.185,132.949 680.042,132.688 680.042,132.402L680.042,132.313C680.111,131.425 681.029,130.768 682.795,130.344C684.029,130.058 685.178,129.915 686.244,129.915C687.961,129.915 689.342,130.29 690.388,131.04C691.799,132.046 692.505,133.467 692.505,135.303C692.505,135.52 692.495,135.742 692.475,135.969C692.288,138.11 690.916,140.458 688.361,143.014C686.969,144.405 685.371,145.905 683.565,147.514C684.058,147.484 684.557,147.469 685.06,147.469C686.372,147.469 687.744,147.573 689.175,147.78C690.773,148.037 691.572,148.584 691.572,149.423L691.572,149.541C691.553,149.837 691.395,150.114 691.099,150.37C690.684,150.726 690.018,150.903 689.101,150.903C688.854,150.903 688.597,150.888 688.331,150.859C687.038,150.711 685.751,150.637 684.468,150.637C682.84,150.637 681.36,150.795 680.027,151.11C679.574,151.219 679.13,151.273 678.695,151.273ZM700.779,150.962C699.615,150.962 698.539,150.642 697.552,150C696.22,149.142 695.293,147.894 694.77,146.256C694.375,145.022 694.178,143.705 694.178,142.304C694.178,141.85 694.197,141.391 694.237,140.927C694.404,139.003 694.873,137.16 695.643,135.399C696.413,133.637 697.429,132.192 698.692,131.062C699.955,129.932 701.415,129.367 703.073,129.367C704.79,129.367 706.102,129.883 707.01,130.914C707.918,131.945 708.515,133.235 708.801,134.785C708.999,135.831 709.097,136.886 709.097,137.952C709.097,138.465 709.073,138.978 709.023,139.491C708.767,142.432 707.972,145.042 706.64,147.321C706.009,148.397 705.18,149.26 704.154,149.911C703.068,150.612 701.943,150.962 700.779,150.962ZM701.179,147.81C701.958,147.81 702.649,147.405 703.251,146.596C703.774,145.905 704.203,145.101 704.538,144.183C705.111,142.644 705.481,140.912 705.649,138.988C705.678,138.643 705.693,138.302 705.693,137.967C705.693,136.516 705.417,135.189 704.864,133.985C704.381,132.939 703.729,132.416 702.91,132.416C702.555,132.416 702.16,132.525 701.726,132.742C700.789,133.216 699.989,134.059 699.328,135.273C698.411,136.96 697.858,138.875 697.671,141.016C697.631,141.47 697.611,141.904 697.611,142.318C697.611,144.341 698.095,145.861 699.062,146.877C699.654,147.499 700.36,147.81 701.179,147.81ZM75.96,151.658C75.023,151.658 74.554,150.928 74.554,149.467C74.554,149.221 74.569,148.959 74.599,148.683L74.599,148.535C75.122,143.611 75.822,138.677 76.7,133.734C75.931,134.227 75.171,134.75 74.421,135.303C72.605,136.615 71.283,137.271 70.454,137.271C69.843,137.271 69.537,137.039 69.537,136.576L69.537,136.472C69.616,135.534 70.543,134.38 72.319,133.008C73.77,131.883 75.344,130.862 77.041,129.945C77.89,129.491 78.56,129.264 79.054,129.264C79.972,129.264 80.43,129.935 80.43,131.277C80.43,131.464 80.421,131.666 80.401,131.883C80.371,132.18 80.327,132.49 80.268,132.816C79.33,138.075 78.556,143.335 77.944,148.594C77.707,150.637 77.046,151.658 75.96,151.658ZM90.584,151.096C89.617,151.096 89.134,150.439 89.134,149.127C89.134,148.94 89.143,148.747 89.163,148.55C89.242,147.741 89.365,146.823 89.533,145.797L88.645,145.797C87.274,145.797 85.882,145.92 84.471,146.167C83.692,146.305 82.976,146.374 82.325,146.374C81.585,146.374 81.215,146.024 81.215,145.323C81.215,145.254 81.22,145.18 81.23,145.101C81.279,144.558 81.58,143.567 82.133,142.126C83.346,139.057 84.95,135.589 86.943,131.721C87.801,130.053 88.635,129.219 89.444,129.219C90.214,129.219 90.599,129.644 90.599,130.492C90.599,130.591 90.594,130.694 90.584,130.803C90.545,131.227 90.392,131.711 90.125,132.254C88.428,135.668 86.869,139.205 85.448,142.866C86.553,142.718 87.673,142.644 88.808,142.644L90.081,142.644C90.742,139.269 91.689,135.337 92.923,130.847C93.446,128.903 94.21,127.932 95.217,127.932C96.026,127.932 96.431,128.509 96.431,129.663C96.431,129.821 96.421,129.994 96.401,130.181C96.371,130.497 96.307,130.852 96.209,131.247C94.886,136.349 93.964,140.266 93.441,142.999C94.852,143.276 95.557,143.803 95.557,144.583L95.557,144.716C95.478,145.604 94.59,146.048 92.893,146.048C92.765,146.897 92.641,147.736 92.523,148.565C92.306,150.252 91.66,151.096 90.584,151.096ZM178.631,151.658C177.694,151.658 177.225,150.928 177.225,149.467C177.225,149.221 177.24,148.959 177.27,148.683L177.27,148.535C177.793,143.611 178.493,138.677 179.372,133.734C178.602,134.227 177.842,134.75 177.092,135.303C175.277,136.615 173.954,137.271 173.125,137.271C172.514,137.271 172.208,137.039 172.208,136.576L172.208,136.472C172.287,135.534 173.214,134.38 174.99,133.008C176.441,131.883 178.015,130.862 179.712,129.945C180.561,129.491 181.232,129.264 181.725,129.264C182.643,129.264 183.101,129.935 183.101,131.277C183.101,131.464 183.092,131.666 183.072,131.883C183.042,132.18 182.998,132.49 182.939,132.816C182.001,138.075 181.227,143.335 180.615,148.594C180.378,150.637 179.717,151.658 178.631,151.658ZM185.573,150.77C183.768,150.77 182.865,150.331 182.865,149.453L182.865,149.319C182.944,148.392 184.093,147.834 186.313,147.647C187.004,147.588 187.71,147.474 188.43,147.306C190.502,146.813 191.827,146.283 192.404,145.715C192.981,145.148 193.29,144.632 193.329,144.169C193.339,144.109 193.344,144.055 193.344,144.006C193.344,143.779 193.295,143.557 193.196,143.34C192.564,141.79 190.517,140.37 187.053,139.077C185.682,138.564 184.996,138.011 184.996,137.419L184.996,137.345C185.055,136.595 185.672,134.563 186.846,131.247C187.172,130.31 189.037,129.836 192.441,129.826C193.625,129.826 194.824,129.846 196.038,129.885C198.495,129.964 199.723,130.472 199.723,131.41L199.723,131.513C199.635,132.5 198.465,132.994 196.215,132.994L193.388,132.979C192.194,132.979 190.976,133.018 189.732,133.097C189.377,134.133 189.037,135.174 188.711,136.22C191.267,137.148 193.334,138.352 194.913,139.832C196.206,141.036 196.852,142.299 196.852,143.621C196.852,143.749 196.847,143.873 196.837,143.991C196.788,144.544 196.62,145.111 196.334,145.693C195.317,147.795 193.235,149.255 190.088,150.074C188.312,150.538 186.807,150.77 185.573,150.77ZM280.785,151.658C279.847,151.658 279.378,150.928 279.378,149.467C279.378,149.221 279.393,148.959 279.423,148.683L279.423,148.535C279.946,143.611 280.646,138.677 281.525,133.734C280.755,134.227 279.995,134.75 279.245,135.303C277.43,136.615 276.107,137.271 275.278,137.271C274.667,137.271 274.361,137.039 274.361,136.576L274.361,136.472C274.44,135.534 275.367,134.38 277.143,133.008C278.594,131.883 280.168,130.862 281.865,129.945C282.714,129.491 283.385,129.264 283.878,129.264C284.796,129.264 285.255,129.935 285.255,131.277C285.255,131.464 285.245,131.666 285.225,131.883C285.195,132.18 285.151,132.49 285.092,132.816C284.154,138.075 283.38,143.335 282.768,148.594C282.531,150.637 281.87,151.658 280.785,151.658ZM293.232,150.962C292.058,150.962 290.943,150.706 289.887,150.193C288.516,149.541 287.514,148.486 286.883,147.025C286.587,146.344 286.439,145.594 286.439,144.775C286.439,144.578 286.448,144.376 286.468,144.169C286.498,143.803 286.557,143.424 286.646,143.029C287.258,140.315 288.757,137.192 291.145,133.66C292.359,131.864 293.366,130.497 294.165,129.56C295.073,128.474 295.976,127.932 296.874,127.932C297.535,127.932 297.865,128.223 297.865,128.805L297.865,128.953C297.816,129.496 297.456,130.226 296.785,131.143C295.689,132.653 294.417,134.548 292.966,136.827C294.574,136.867 296.018,137.172 297.295,137.745C298.573,138.317 299.518,139.126 300.13,140.172C300.633,141.041 300.885,142.017 300.885,143.103C300.885,143.33 300.875,143.562 300.855,143.799C300.658,146.058 299.849,147.805 298.428,149.038C296.957,150.321 295.226,150.962 293.232,150.962ZM293.558,147.839C294.959,147.839 296.045,147.173 296.814,145.841C297.239,145.121 297.475,144.45 297.525,143.828C297.535,143.72 297.54,143.616 297.54,143.517C297.54,142.906 297.367,142.348 297.022,141.845C296.193,140.601 294.614,139.98 292.285,139.98C291.9,139.98 291.54,140 291.205,140.039C290.909,140.651 290.667,141.184 290.479,141.638C290.164,142.437 289.971,143.261 289.902,144.109C289.892,144.248 289.887,144.381 289.887,144.509C289.887,145.2 290.065,145.787 290.42,146.27C291.19,147.316 292.236,147.839 293.558,147.839ZM385.158,151.658C384.22,151.658 383.752,150.928 383.752,149.467C383.752,149.221 383.766,148.959 383.796,148.683L383.796,148.535C384.319,143.611 385.02,138.677 385.898,133.734C385.128,134.227 384.368,134.75 383.618,135.303C381.803,136.615 380.481,137.271 379.652,137.271C379.04,137.271 378.734,137.039 378.734,136.576L378.734,136.472C378.813,135.534 379.74,134.38 381.517,133.008C382.967,131.883 384.541,130.862 386.238,129.945C387.087,129.491 387.758,129.264 388.251,129.264C389.169,129.264 389.628,129.935 389.628,131.277C389.628,131.464 389.618,131.666 389.598,131.883C389.569,132.18 389.524,132.49 389.465,132.816C388.528,138.075 387.753,143.335 387.141,148.594C386.904,150.637 386.243,151.658 385.158,151.658ZM392.307,152.901C391.596,152.901 391.241,152.477 391.241,151.628C391.241,151.53 391.246,151.426 391.256,151.318C391.286,150.972 391.399,150.582 391.596,150.148C394.211,144.386 396.969,138.662 399.87,132.979C397.926,133.018 395.904,133.038 393.802,133.038C392.174,133.038 391.36,132.604 391.36,131.735L391.36,131.617C391.448,130.611 392.381,130.063 394.157,129.974C396.811,129.846 398.79,129.782 400.092,129.782C402.835,129.782 404.207,130.231 404.207,131.129L404.207,131.203C404.158,131.735 403.778,132.683 403.067,134.044C400.216,139.521 397.546,144.943 395.06,150.311C394.261,152.038 393.343,152.901 392.307,152.901ZM484.425,151.658C483.487,151.658 483.018,150.928 483.018,149.467C483.018,149.221 483.033,148.959 483.063,148.683L483.063,148.535C483.586,143.611 484.286,138.677 485.165,133.734C484.395,134.227 483.635,134.75 482.885,135.303C481.07,136.615 479.747,137.271 478.918,137.271C478.307,137.271 478.001,137.039 478.001,136.576L478.001,136.472C478.08,135.534 479.007,134.38 480.783,133.008C482.234,131.883 483.808,130.862 485.505,129.945C486.354,129.491 487.025,129.264 487.518,129.264C488.436,129.264 488.895,129.935 488.895,131.277C488.895,131.464 488.885,131.666 488.865,131.883C488.835,132.18 488.791,132.49 488.732,132.816C487.794,138.075 487.02,143.335 486.408,148.594C486.171,150.637 485.51,151.658 484.425,151.658ZM495.777,151.658C494.603,151.658 493.483,151.453 492.417,151.044C491.352,150.634 490.523,149.981 489.931,149.083C489.556,148.5 489.368,147.834 489.368,147.084C489.368,146.936 489.373,146.783 489.383,146.626C489.511,145.165 490.266,143.902 491.648,142.836C492.772,141.988 494.026,141.184 495.407,140.424C494.539,139.723 493.818,138.934 493.246,138.056C492.763,137.306 492.521,136.467 492.521,135.539C492.521,135.382 492.526,135.219 492.536,135.051C492.664,133.571 493.192,132.397 494.119,131.528C495.432,130.295 497.055,129.678 498.989,129.678C501.219,129.678 502.852,130.472 503.888,132.061C504.342,132.781 504.569,133.551 504.569,134.37C504.569,134.489 504.564,134.612 504.554,134.74C504.456,135.855 504.11,136.876 503.518,137.804C502.857,138.83 502.033,139.718 501.046,140.468C501.856,141.1 502.541,141.786 503.104,142.526C503.725,143.345 504.036,144.223 504.036,145.16C504.036,145.298 504.031,145.432 504.021,145.56C503.952,146.33 503.632,147.168 503.059,148.076C501.54,150.464 499.112,151.658 495.777,151.658ZM498.441,138.514C500.109,137.311 501.007,136.028 501.135,134.666L501.135,134.548C501.135,134.054 500.891,133.645 500.403,133.319C499.914,132.994 499.329,132.831 498.649,132.831C497.751,132.831 497.045,133.063 496.532,133.526C496.157,133.862 495.945,134.306 495.896,134.859C495.886,134.937 495.881,135.016 495.881,135.095C495.881,135.806 496.172,136.462 496.754,137.064C497.218,137.547 497.78,138.031 498.441,138.514ZM496.044,148.52C497.543,148.52 498.782,148.051 499.759,147.114C500.252,146.631 500.523,146.157 500.573,145.693L500.573,145.545C500.573,145.012 500.316,144.474 499.803,143.932C499.339,143.438 498.752,142.94 498.042,142.437C497.815,142.575 497.583,142.708 497.346,142.836C494.386,144.494 492.866,145.762 492.787,146.64L492.787,146.744C492.787,147.425 493.305,147.933 494.341,148.269C494.874,148.436 495.442,148.52 496.044,148.52ZM586.637,151.658C585.699,151.658 585.231,150.928 585.231,149.467C585.231,149.221 585.245,148.959 585.275,148.683L585.275,148.535C585.798,143.611 586.499,138.677 587.377,133.734C586.607,134.227 585.847,134.75 585.097,135.303C583.282,136.615 581.96,137.271 581.131,137.271C580.519,137.271 580.213,137.039 580.213,136.576L580.213,136.472C580.292,135.534 581.22,134.38 582.996,133.008C584.446,131.883 586.02,130.862 587.717,129.945C588.566,129.491 589.237,129.264 589.73,129.264C590.648,129.264 591.107,129.935 591.107,131.277C591.107,131.464 591.097,131.666 591.077,131.883C591.048,132.18 591.003,132.49 590.944,132.816C590.007,138.075 589.232,143.335 588.62,148.594C588.383,150.637 587.722,151.658 586.637,151.658ZM600.728,128.435C601.902,128.435 603.022,128.691 604.088,129.204C605.449,129.856 606.446,130.912 607.077,132.372C607.373,133.053 607.521,133.803 607.521,134.622C607.521,134.819 607.512,135.021 607.492,135.229C607.462,135.594 607.403,135.974 607.314,136.368C606.702,139.082 605.203,142.205 602.815,145.738C601.601,147.533 600.594,148.9 599.795,149.837C598.887,150.923 597.984,151.466 597.087,151.466C596.425,151.466 596.095,151.175 596.095,150.592L596.095,150.444C596.144,149.902 596.504,149.171 597.175,148.254C598.28,146.744 599.558,144.849 601.009,142.57C599.391,142.531 597.943,142.225 596.665,141.652C595.387,141.08 594.442,140.271 593.83,139.225C593.327,138.347 593.075,137.36 593.075,136.265C593.075,136.048 593.085,135.826 593.105,135.599C593.302,133.339 594.111,131.592 595.532,130.359C597.003,129.076 598.734,128.435 600.728,128.435ZM600.417,131.558C599.016,131.558 597.925,132.224 597.146,133.556C596.731,134.276 596.494,134.947 596.435,135.569C596.425,135.668 596.42,135.761 596.42,135.85C596.42,136.472 596.593,137.039 596.939,137.552C597.767,138.796 599.351,139.417 601.69,139.417C602.065,139.417 602.425,139.398 602.77,139.358C603.066,138.746 603.303,138.214 603.481,137.76C603.796,136.96 603.994,136.136 604.073,135.288C604.083,135.16 604.088,135.036 604.088,134.918C604.088,134.217 603.91,133.62 603.555,133.127C602.785,132.081 601.739,131.558 600.417,131.558ZM70.217,228.8C69.704,228.8 69.3,228.573 69.004,228.119C68.856,227.882 68.782,227.635 68.782,227.379L68.782,227.29C68.811,226.984 68.945,226.678 69.181,226.372C69.616,225.78 70.119,225.237 70.691,224.744C70.869,224.596 71.027,224.453 71.165,224.315C71.707,223.802 72.388,223.195 73.207,222.494C74.224,221.606 75.282,220.642 76.382,219.601C77.482,218.559 78.432,217.523 79.231,216.492C80.031,215.461 80.465,214.511 80.534,213.643C80.544,213.475 80.549,213.317 80.549,213.169C80.549,211.452 79.616,210.594 77.751,210.594C76.863,210.594 75.901,210.702 74.865,210.92C74.332,211.028 73.864,211.082 73.459,211.082C72.798,211.082 72.309,210.959 71.994,210.712C71.707,210.476 71.564,210.214 71.564,209.928L71.564,209.839C71.633,208.951 72.551,208.295 74.317,207.87C75.551,207.584 76.7,207.441 77.766,207.441C79.483,207.441 80.865,207.816 81.911,208.566C83.322,209.573 84.027,210.994 84.027,212.829C84.027,213.046 84.017,213.268 83.998,213.495C83.81,215.636 82.438,217.985 79.883,220.54C78.491,221.932 76.893,223.432 75.087,225.04C75.581,225.01 76.079,224.996 76.582,224.996C77.894,224.996 79.266,225.099 80.697,225.306C82.295,225.563 83.095,226.111 83.095,226.949L83.095,227.068C83.075,227.364 82.917,227.64 82.621,227.897C82.207,228.252 81.54,228.429 80.623,228.429C80.376,228.429 80.12,228.415 79.853,228.385C78.56,228.237 77.273,228.163 75.99,228.163C74.362,228.163 72.882,228.321 71.55,228.637C71.096,228.745 70.652,228.8 70.217,228.8ZM91.724,229.184C90.786,229.184 90.318,228.454 90.318,226.994C90.318,226.747 90.332,226.486 90.362,226.209L90.362,226.061C90.885,221.137 91.586,216.204 92.464,211.26C91.694,211.753 90.934,212.276 90.184,212.829C88.369,214.141 87.047,214.797 86.218,214.797C85.606,214.797 85.3,214.566 85.3,214.102L85.3,213.998C85.379,213.061 86.307,211.906 88.083,210.535C89.533,209.41 91.107,208.389 92.804,207.471C93.653,207.017 94.324,206.79 94.817,206.79C95.735,206.79 96.194,207.461 96.194,208.803C96.194,208.99 96.184,209.193 96.164,209.41C96.135,209.706 96.09,210.017 96.031,210.342C95.094,215.602 94.319,220.861 93.707,226.12C93.47,228.163 92.809,229.184 91.724,229.184ZM169.617,228.8C169.104,228.8 168.7,228.573 168.404,228.119C168.256,227.882 168.182,227.635 168.182,227.379L168.182,227.29C168.211,226.984 168.345,226.678 168.581,226.372C169.016,225.78 169.519,225.237 170.091,224.744C170.269,224.596 170.427,224.453 170.565,224.315C171.107,223.802 171.788,223.195 172.607,222.494C173.624,221.606 174.682,220.642 175.782,219.601C176.882,218.559 177.832,217.523 178.631,216.492C179.431,215.461 179.865,214.511 179.934,213.643C179.944,213.475 179.949,213.317 179.949,213.169C179.949,211.452 179.016,210.594 177.151,210.594C176.263,210.594 175.301,210.702 174.265,210.92C173.732,211.028 173.264,211.082 172.859,211.082C172.198,211.082 171.709,210.959 171.394,210.712C171.107,210.476 170.964,210.214 170.964,209.928L170.964,209.839C171.033,208.951 171.951,208.295 173.717,207.87C174.951,207.584 176.1,207.441 177.166,207.441C178.883,207.441 180.265,207.816 181.311,208.566C182.722,209.573 183.427,210.994 183.427,212.829C183.427,213.046 183.417,213.268 183.398,213.495C183.21,215.636 181.838,217.985 179.283,220.54C177.891,221.932 176.293,223.432 174.487,225.04C174.981,225.01 175.479,224.996 175.982,224.996C177.294,224.996 178.666,225.099 180.097,225.306C181.695,225.563 182.495,226.111 182.495,226.949L182.495,227.068C182.475,227.364 182.317,227.64 182.021,227.897C181.607,228.252 180.94,228.429 180.023,228.429C179.776,228.429 179.52,228.415 179.253,228.385C177.96,228.237 176.673,228.163 175.39,228.163C173.762,228.163 172.282,228.321 170.95,228.637C170.496,228.745 170.052,228.8 169.617,228.8ZM184.419,228.8C183.906,228.8 183.501,228.573 183.205,228.119C183.057,227.882 182.983,227.635 182.983,227.379L182.983,227.29C183.013,226.984 183.146,226.678 183.383,226.372C183.817,225.78 184.32,225.237 184.892,224.744C185.07,224.596 185.228,224.453 185.366,224.315C185.909,223.802 186.59,223.195 187.409,222.494C188.425,221.606 189.483,220.642 190.584,219.601C191.684,218.559 192.634,217.523 193.433,216.492C194.232,215.461 194.666,214.511 194.735,213.643C194.745,213.475 194.75,213.317 194.75,213.169C194.75,211.452 193.818,210.594 191.953,210.594C191.065,210.594 190.102,210.702 189.066,210.92C188.534,211.028 188.065,211.082 187.66,211.082C186.999,211.082 186.511,210.959 186.195,210.712C185.909,210.476 185.766,210.214 185.766,209.928L185.766,209.839C185.835,208.951 186.752,208.295 188.519,207.87C189.752,207.584 190.902,207.441 191.967,207.441C193.684,207.441 195.066,207.816 196.112,208.566C197.523,209.573 198.228,210.994 198.228,212.829C198.228,213.046 198.219,213.268 198.199,213.495C198.011,215.636 196.64,217.985 194.084,220.54C192.693,221.932 191.094,223.432 189.288,225.04C189.782,225.01 190.28,224.996 190.783,224.996C192.096,224.996 193.467,225.099 194.898,225.306C196.497,225.563 197.296,226.111 197.296,226.949L197.296,227.068C197.276,227.364 197.118,227.64 196.822,227.897C196.408,228.252 195.742,228.429 194.824,228.429C194.577,228.429 194.321,228.415 194.054,228.385C192.762,228.237 191.474,228.163 190.191,228.163C188.563,228.163 187.083,228.321 185.751,228.637C185.297,228.745 184.853,228.8 184.419,228.8ZM270.882,228.8C270.369,228.8 269.965,228.573 269.669,228.119C269.521,227.882 269.447,227.635 269.447,227.379L269.447,227.29C269.476,226.984 269.61,226.678 269.846,226.372C270.281,225.78 270.784,225.237 271.356,224.744C271.534,224.596 271.692,224.453 271.83,224.315C272.372,223.802 273.053,223.195 273.872,222.494C274.889,221.606 275.947,220.642 277.047,219.601C278.147,218.559 279.097,217.523 279.896,216.492C280.696,215.461 281.13,214.511 281.199,213.643C281.209,213.475 281.214,213.317 281.214,213.169C281.214,211.452 280.281,210.594 278.416,210.594C277.528,210.594 276.566,210.702 275.53,210.92C274.997,211.028 274.529,211.082 274.124,211.082C273.463,211.082 272.974,210.959 272.659,210.712C272.372,210.476 272.229,210.214 272.229,209.928L272.229,209.839C272.298,208.951 273.216,208.295 274.982,207.87C276.216,207.584 277.365,207.441 278.431,207.441C280.148,207.441 281.53,207.816 282.575,208.566C283.987,209.573 284.692,210.994 284.692,212.829C284.692,213.046 284.682,213.268 284.662,213.495C284.475,215.636 283.103,217.985 280.548,220.54C279.156,221.932 277.558,223.432 275.752,225.04C276.245,225.01 276.744,224.996 277.247,224.996C278.559,224.996 279.931,225.099 281.362,225.306C282.96,225.563 283.76,226.111 283.76,226.949L283.76,227.068C283.74,227.364 283.582,227.64 283.286,227.897C282.872,228.252 282.205,228.429 281.288,228.429C281.041,228.429 280.785,228.415 280.518,228.385C279.225,228.237 277.938,228.163 276.655,228.163C275.027,228.163 273.547,228.321 272.215,228.637C271.761,228.745 271.317,228.8 270.882,228.8ZM288.407,228.119C286.503,228.119 285.551,227.719 285.551,226.92L285.551,226.816C285.57,226.589 285.674,226.357 285.861,226.12C286.305,225.588 287.218,225.287 288.6,225.218C291.807,225.05 294.15,224.418 295.63,223.323C295.976,223.066 296.158,222.8 296.178,222.524L296.178,222.435C296.178,222.277 296.133,222.124 296.045,221.976C295.768,221.502 295.273,221.049 294.557,220.614C293.842,220.18 293.119,219.781 292.389,219.415C290.997,218.735 290.302,218.078 290.302,217.447L290.302,217.373C290.331,216.949 290.622,216.559 291.175,216.204C291.56,215.967 291.95,215.755 292.344,215.567C292.956,215.291 293.696,214.837 294.565,214.205C295.295,213.682 295.904,213.15 296.392,212.607C296.881,212.064 297.145,211.595 297.184,211.201L297.184,211.127C297.184,210.505 296.582,210.194 295.379,210.194C294.027,210.194 292.251,210.466 290.05,211.008C289.379,211.176 288.807,211.26 288.333,211.26C287.781,211.26 287.361,211.161 287.075,210.964C286.749,210.747 286.587,210.48 286.587,210.165L286.587,210.091C286.656,209.222 287.504,208.556 289.132,208.092C291.432,207.431 293.479,207.101 295.275,207.101C298.314,207.101 300.071,208.142 300.544,210.224C300.594,210.441 300.618,210.668 300.618,210.905L300.603,211.142C300.544,211.734 300.337,212.345 299.982,212.977C299.419,213.914 298.664,214.773 297.717,215.552C296.77,216.332 295.778,216.919 294.742,217.314C298.107,218.962 299.789,220.57 299.789,222.139C299.789,222.198 299.784,222.257 299.775,222.317C299.627,223.974 298.452,225.366 296.252,226.491C294.13,227.576 291.515,228.119 288.407,228.119ZM373.021,228.8C372.508,228.8 372.103,228.573 371.807,228.119C371.659,227.882 371.585,227.635 371.585,227.379L371.585,227.29C371.615,226.984 371.748,226.678 371.985,226.372C372.419,225.78 372.922,225.237 373.494,224.744C373.672,224.596 373.83,224.453 373.968,224.315C374.511,223.802 375.192,223.195 376.011,222.494C377.027,221.606 378.085,220.642 379.185,219.601C380.286,218.559 381.235,217.523 382.035,216.492C382.834,215.461 383.268,214.511 383.337,213.643C383.347,213.475 383.352,213.317 383.352,213.169C383.352,211.452 382.42,210.594 380.555,210.594C379.666,210.594 378.704,210.702 377.668,210.92C377.135,211.028 376.667,211.082 376.262,211.082C375.601,211.082 375.113,210.959 374.797,210.712C374.511,210.476 374.368,210.214 374.368,209.928L374.368,209.839C374.437,208.951 375.354,208.295 377.121,207.87C378.354,207.584 379.504,207.441 380.569,207.441C382.286,207.441 383.668,207.816 384.714,208.566C386.125,209.573 386.83,210.994 386.83,212.829C386.83,213.046 386.82,213.268 386.801,213.495C386.613,215.636 385.242,217.985 382.686,220.54C381.295,221.932 379.696,223.432 377.89,225.04C378.384,225.01 378.882,224.996 379.385,224.996C380.698,224.996 382.069,225.099 383.5,225.306C385.099,225.563 385.898,226.111 385.898,226.949L385.898,227.068C385.878,227.364 385.72,227.64 385.424,227.897C385.01,228.252 384.344,228.429 383.426,228.429C383.179,228.429 382.923,228.415 382.656,228.385C381.364,228.237 380.076,228.163 378.793,228.163C377.165,228.163 375.685,228.321 374.353,228.637C373.899,228.745 373.455,228.8 373.021,228.8ZM397.132,228.622C396.165,228.622 395.681,227.966 395.681,226.653C395.681,226.466 395.691,226.273 395.711,226.076C395.79,225.267 395.913,224.349 396.081,223.323L395.193,223.323C393.821,223.323 392.43,223.446 391.019,223.693C390.24,223.831 389.524,223.9 388.873,223.9C388.133,223.9 387.763,223.55 387.763,222.849C387.763,222.78 387.768,222.706 387.778,222.627C387.827,222.085 388.128,221.093 388.68,219.652C389.894,216.584 391.498,213.115 393.491,209.247C394.349,207.579 395.183,206.746 395.992,206.746C396.762,206.746 397.147,207.17 397.147,208.018C397.147,208.117 397.142,208.221 397.132,208.329C397.093,208.754 396.94,209.237 396.673,209.78C394.976,213.194 393.417,216.732 391.996,220.392C393.101,220.244 394.221,220.17 395.356,220.17L396.629,220.17C397.29,216.796 398.237,212.863 399.471,208.374C399.994,206.43 400.758,205.458 401.765,205.458C402.574,205.458 402.979,206.035 402.979,207.19C402.979,207.347 402.969,207.52 402.949,207.708C402.919,208.023 402.855,208.379 402.757,208.773C401.434,213.875 400.512,217.792 399.989,220.526C401.4,220.802 402.105,221.33 402.105,222.109L402.105,222.243C402.026,223.131 401.138,223.575 399.441,223.575C399.313,224.423 399.189,225.262 399.071,226.091C398.854,227.778 398.208,228.622 397.132,228.622ZM475.692,228.8C475.179,228.8 474.774,228.573 474.478,228.119C474.33,227.882 474.256,227.635 474.256,227.379L474.256,227.29C474.286,226.984 474.419,226.678 474.656,226.372C475.09,225.78 475.593,225.237 476.165,224.744C476.343,224.596 476.501,224.453 476.639,224.315C477.182,223.802 477.863,223.195 478.682,222.494C479.698,221.606 480.756,220.642 481.857,219.601C482.957,218.559 483.907,217.523 484.706,216.492C485.505,215.461 485.939,214.511 486.008,213.643C486.018,213.475 486.023,213.317 486.023,213.169C486.023,211.452 485.091,210.594 483.226,210.594C482.338,210.594 481.375,210.702 480.339,210.92C479.807,211.028 479.338,211.082 478.933,211.082C478.272,211.082 477.784,210.959 477.468,210.712C477.182,210.476 477.039,210.214 477.039,209.928L477.039,209.839C477.108,208.951 478.025,208.295 479.792,207.87C481.025,207.584 482.175,207.441 483.24,207.441C484.957,207.441 486.339,207.816 487.385,208.566C488.796,209.573 489.501,210.994 489.501,212.829C489.501,213.046 489.492,213.268 489.472,213.495C489.284,215.636 487.913,217.985 485.357,220.54C483.966,221.932 482.367,223.432 480.561,225.04C481.055,225.01 481.553,224.996 482.056,224.996C483.369,224.996 484.74,225.099 486.171,225.306C487.77,225.563 488.569,226.111 488.569,226.949L488.569,227.068C488.549,227.364 488.391,227.64 488.095,227.897C487.681,228.252 487.015,228.429 486.097,228.429C485.85,228.429 485.594,228.415 485.327,228.385C484.035,228.237 482.747,228.163 481.464,228.163C479.836,228.163 478.356,228.321 477.024,228.637C476.57,228.745 476.126,228.8 475.692,228.8ZM492.121,228.296C490.315,228.296 489.413,227.857 489.413,226.979L489.413,226.846C489.492,225.918 490.641,225.361 492.861,225.173C493.552,225.114 494.258,225.001 494.978,224.833C497.05,224.339 498.375,223.809 498.952,223.242C499.529,222.674 499.838,222.159 499.877,221.695C499.887,221.636 499.892,221.581 499.892,221.532C499.892,221.305 499.843,221.083 499.744,220.866C499.112,219.317 497.065,217.896 493.601,216.603C492.23,216.09 491.544,215.538 491.544,214.945L491.544,214.871C491.603,214.122 492.22,212.089 493.394,208.773C493.72,207.836 495.585,207.362 498.989,207.352C500.173,207.352 501.372,207.372 502.586,207.412C505.043,207.491 506.271,207.999 506.271,208.936L506.271,209.04C506.182,210.027 505.013,210.52 502.763,210.52L499.936,210.505C498.742,210.505 497.524,210.545 496.28,210.624C495.925,211.66 495.585,212.701 495.259,213.747C497.815,214.674 499.882,215.878 501.461,217.358C502.753,218.562 503.4,219.825 503.4,221.147C503.4,221.276 503.395,221.399 503.385,221.517C503.336,222.07 503.168,222.637 502.882,223.219C501.865,225.321 499.783,226.782 496.636,227.601C494.859,228.064 493.355,228.296 492.121,228.296ZM577.845,228.8C577.332,228.8 576.927,228.573 576.631,228.119C576.483,227.882 576.409,227.635 576.409,227.379L576.409,227.29C576.439,226.984 576.572,226.678 576.809,226.372C577.243,225.78 577.746,225.237 578.318,224.744C578.496,224.596 578.654,224.453 578.792,224.315C579.335,223.802 580.016,223.195 580.835,222.494C581.851,221.606 582.909,220.642 584.01,219.601C585.11,218.559 586.06,217.523 586.859,216.492C587.658,215.461 588.092,214.511 588.161,213.643C588.171,213.475 588.176,213.317 588.176,213.169C588.176,211.452 587.244,210.594 585.379,210.594C584.491,210.594 583.529,210.702 582.492,210.92C581.96,211.028 581.491,211.082 581.086,211.082C580.425,211.082 579.937,210.959 579.621,210.712C579.335,210.476 579.192,210.214 579.192,209.928L579.192,209.839C579.261,208.951 580.179,208.295 581.945,207.87C583.178,207.584 584.328,207.441 585.393,207.441C587.11,207.441 588.492,207.816 589.538,208.566C590.949,209.573 591.654,210.994 591.654,212.829C591.654,213.046 591.645,213.268 591.625,213.495C591.437,215.636 590.066,217.985 587.51,220.54C586.119,221.932 584.52,223.432 582.714,225.04C583.208,225.01 583.706,224.996 584.209,224.996C585.522,224.996 586.893,225.099 588.324,225.306C589.923,225.563 590.722,226.111 590.722,226.949L590.722,227.068C590.702,227.364 590.544,227.64 590.248,227.897C589.834,228.252 589.168,228.429 588.25,228.429C588.003,228.429 587.747,228.415 587.48,228.385C586.188,228.237 584.9,228.163 583.617,228.163C581.989,228.163 580.509,228.321 579.177,228.637C578.723,228.745 578.279,228.8 577.845,228.8ZM599.78,228.489C598.606,228.489 597.491,228.232 596.435,227.719C595.064,227.068 594.062,226.012 593.431,224.552C593.135,223.871 592.987,223.121 592.987,222.302C592.987,222.104 592.996,221.902 593.016,221.695C593.046,221.33 593.105,220.95 593.194,220.555C593.806,217.842 595.305,214.719 597.693,211.186C598.907,209.39 599.914,208.023 600.713,207.086C601.621,206.001 602.524,205.458 603.421,205.458C604.083,205.458 604.413,205.749 604.413,206.331L604.413,206.479C604.364,207.022 604.004,207.752 603.333,208.67C602.237,210.179 600.964,212.074 599.514,214.353C601.122,214.393 602.565,214.699 603.843,215.271C605.121,215.843 606.066,216.653 606.678,217.699C607.181,218.567 607.433,219.544 607.433,220.629C607.433,220.856 607.423,221.088 607.403,221.325C607.206,223.585 606.397,225.331 604.976,226.565C603.505,227.847 601.774,228.489 599.78,228.489ZM600.106,225.366C601.507,225.366 602.593,224.7 603.362,223.367C603.787,222.647 604.023,221.976 604.073,221.354C604.083,221.246 604.088,221.142 604.088,221.044C604.088,220.432 603.915,219.874 603.569,219.371C602.741,218.128 601.162,217.506 598.833,217.506C598.448,217.506 598.088,217.526 597.753,217.565C597.457,218.177 597.215,218.71 597.027,219.164C596.712,219.963 596.519,220.787 596.45,221.636C596.44,221.774 596.435,221.907 596.435,222.035C596.435,222.726 596.613,223.313 596.968,223.797C597.738,224.843 598.784,225.366 600.106,225.366ZM682.218,228.8C681.705,228.8 681.3,228.573 681.004,228.119C680.856,227.882 680.782,227.635 680.782,227.379L680.782,227.29C680.812,226.984 680.945,226.678 681.182,226.372C681.616,225.78 682.119,225.237 682.692,224.744C682.869,224.596 683.027,224.453 683.165,224.315C683.708,223.802 684.389,223.195 685.208,222.494C686.224,221.606 687.283,220.642 688.383,219.601C689.483,218.559 690.433,217.523 691.232,216.492C692.031,215.461 692.466,214.511 692.535,213.643C692.544,213.475 692.549,213.317 692.549,213.169C692.549,211.452 691.617,210.594 689.752,210.594C688.864,210.594 687.902,210.702 686.866,210.92C686.333,211.028 685.864,211.082 685.46,211.082C684.798,211.082 684.31,210.959 683.994,210.712C683.708,210.476 683.565,210.214 683.565,209.928L683.565,209.839C683.634,208.951 684.552,208.295 686.318,207.87C687.551,207.584 688.701,207.441 689.767,207.441C691.484,207.441 692.865,207.816 693.911,208.566C695.322,209.573 696.028,210.994 696.028,212.829C696.028,213.046 696.018,213.268 695.998,213.495C695.811,215.636 694.439,217.985 691.883,220.54C690.492,221.932 688.893,223.432 687.088,225.04C687.581,225.01 688.079,224.996 688.583,224.996C689.895,224.996 691.267,225.099 692.697,225.306C694.296,225.563 695.095,226.111 695.095,226.949L695.095,227.068C695.075,227.364 694.918,227.64 694.622,227.897C694.207,228.252 693.541,228.429 692.623,228.429C692.377,228.429 692.12,228.415 691.854,228.385C690.561,228.237 689.273,228.163 687.991,228.163C686.362,228.163 684.882,228.321 683.55,228.637C683.096,228.745 682.652,228.8 682.218,228.8ZM698.855,230.428C698.144,230.428 697.789,230.003 697.789,229.155C697.789,229.056 697.794,228.952 697.804,228.844C697.833,228.499 697.947,228.109 698.144,227.675C700.759,221.912 703.517,216.189 706.418,210.505C704.474,210.545 702.451,210.564 700.35,210.564C698.722,210.564 697.907,210.13 697.907,209.262L697.907,209.143C697.996,208.137 698.929,207.589 700.705,207.5C703.359,207.372 705.338,207.308 706.64,207.308C709.383,207.308 710.755,207.757 710.755,208.655L710.755,208.729C710.706,209.262 710.326,210.209 709.615,211.571C706.764,217.047 704.094,222.469 701.608,227.837C700.808,229.564 699.891,230.428 698.855,230.428ZM66.206,303.829C65.693,303.829 65.289,303.602 64.993,303.148C64.845,302.911 64.771,302.665 64.771,302.408L64.771,302.319C64.8,302.013 64.933,301.707 65.17,301.402C65.604,300.809 66.108,300.267 66.68,299.773C66.858,299.625 67.015,299.482 67.154,299.344C67.696,298.831 68.377,298.224 69.196,297.524C70.213,296.635 71.271,295.671 72.371,294.63C73.471,293.589 74.421,292.553 75.22,291.522C76.02,290.49 76.454,289.541 76.523,288.672C76.533,288.505 76.538,288.347 76.538,288.199C76.538,286.482 75.605,285.623 73.74,285.623C72.852,285.623 71.89,285.732 70.854,285.949C70.321,286.057 69.852,286.112 69.448,286.112C68.787,286.112 68.298,285.988 67.983,285.742C67.696,285.505 67.553,285.243 67.553,284.957L67.553,284.868C67.622,283.98 68.54,283.324 70.306,282.9C71.54,282.614 72.689,282.471 73.755,282.471C75.472,282.471 76.853,282.846 77.899,283.596C79.31,284.602 80.016,286.023 80.016,287.858C80.016,288.075 80.006,288.297 79.986,288.524C79.799,290.666 78.427,293.014 75.872,295.57C74.48,296.961 72.882,298.461 71.076,300.069C71.569,300.04 72.068,300.025 72.571,300.025C73.883,300.025 75.255,300.129 76.686,300.336C78.284,300.592 79.083,301.14 79.083,301.979L79.083,302.097C79.064,302.393 78.906,302.669 78.61,302.926C78.195,303.281 77.529,303.459 76.612,303.459C76.365,303.459 76.108,303.444 75.842,303.414C74.549,303.266 73.262,303.192 71.979,303.192C70.351,303.192 68.871,303.35 67.538,303.666C67.085,303.775 66.641,303.829 66.206,303.829ZM87.047,304.214C85.872,304.214 84.752,304.009 83.687,303.599C82.621,303.19 81.792,302.536 81.2,301.638C80.825,301.056 80.638,300.39 80.638,299.64C80.638,299.492 80.643,299.339 80.652,299.181C80.781,297.721 81.536,296.458 82.917,295.392C84.042,294.544 85.295,293.739 86.677,292.98C85.808,292.279 85.088,291.49 84.516,290.611C84.032,289.861 83.79,289.023 83.79,288.095C83.79,287.937 83.795,287.774 83.805,287.607C83.933,286.127 84.461,284.952 85.389,284.084C86.701,282.851 88.324,282.234 90.258,282.234C92.489,282.234 94.122,283.028 95.158,284.617C95.612,285.337 95.839,286.107 95.839,286.926C95.839,287.044 95.834,287.168 95.824,287.296C95.725,288.411 95.38,289.432 94.788,290.36C94.127,291.386 93.303,292.274 92.316,293.024C93.125,293.655 93.811,294.341 94.373,295.081C94.995,295.9 95.306,296.779 95.306,297.716C95.306,297.854 95.301,297.987 95.291,298.116C95.222,298.885 94.901,299.724 94.329,300.632C92.809,303.02 90.382,304.214 87.047,304.214ZM89.711,291.07C91.378,289.866 92.276,288.584 92.405,287.222L92.405,287.103C92.405,286.61 92.16,286.201 91.672,285.875C91.184,285.549 90.599,285.386 89.918,285.386C89.02,285.386 88.315,285.618 87.801,286.082C87.426,286.418 87.214,286.862 87.165,287.414C87.155,287.493 87.15,287.572 87.15,287.651C87.15,288.362 87.441,289.018 88.023,289.62C88.487,290.103 89.05,290.587 89.711,291.07ZM87.313,301.076C88.813,301.076 90.051,300.607 91.028,299.67C91.521,299.186 91.793,298.713 91.842,298.249L91.842,298.101C91.842,297.568 91.586,297.03 91.073,296.487C90.609,295.994 90.022,295.496 89.311,294.993C89.084,295.131 88.852,295.264 88.616,295.392C85.655,297.05 84.136,298.318 84.057,299.196L84.057,299.3C84.057,299.981 84.575,300.489 85.611,300.824C86.144,300.992 86.711,301.076 87.313,301.076ZM168.419,303.829C167.905,303.829 167.501,303.602 167.205,303.148C167.057,302.911 166.983,302.665 166.983,302.408L166.983,302.319C167.012,302.013 167.146,301.707 167.383,301.402C167.817,300.809 168.32,300.267 168.892,299.773C169.07,299.625 169.228,299.482 169.366,299.344C169.909,298.831 170.589,298.224 171.408,297.524C172.425,296.635 173.483,295.671 174.583,294.63C175.684,293.589 176.633,292.553 177.433,291.522C178.232,290.49 178.666,289.541 178.735,288.672C178.745,288.505 178.75,288.347 178.75,288.199C178.75,286.482 177.817,285.623 175.952,285.623C175.064,285.623 174.102,285.732 173.066,285.949C172.533,286.057 172.065,286.112 171.66,286.112C170.999,286.112 170.511,285.988 170.195,285.742C169.909,285.505 169.766,285.243 169.766,284.957L169.766,284.868C169.835,283.98 170.752,283.324 172.519,282.9C173.752,282.614 174.902,282.471 175.967,282.471C177.684,282.471 179.066,282.846 180.112,283.596C181.523,284.602 182.228,286.023 182.228,287.858C182.228,288.075 182.218,288.297 182.199,288.524C182.011,290.666 180.64,293.014 178.084,295.57C176.693,296.961 175.094,298.461 173.288,300.069C173.782,300.04 174.28,300.025 174.783,300.025C176.096,300.025 177.467,300.129 178.898,300.336C180.496,300.592 181.296,301.14 181.296,301.979L181.296,302.097C181.276,302.393 181.118,302.669 180.822,302.926C180.408,303.281 179.742,303.459 178.824,303.459C178.577,303.459 178.321,303.444 178.054,303.414C176.762,303.266 175.474,303.192 174.191,303.192C172.563,303.192 171.083,303.35 169.751,303.666C169.297,303.775 168.853,303.829 168.419,303.829ZM191.997,280.991C193.171,280.991 194.291,281.247 195.357,281.76C196.719,282.411 197.715,283.467 198.347,284.928C198.643,285.609 198.791,286.358 198.791,287.177C198.791,287.375 198.781,287.577 198.761,287.784C198.732,288.149 198.672,288.529 198.584,288.924C197.972,291.638 196.472,294.761 194.084,298.293C192.87,300.089 191.864,301.456 191.065,302.393C190.157,303.479 189.254,304.021 188.356,304.021C187.695,304.021 187.364,303.73 187.364,303.148L187.364,303C187.414,302.457 187.774,301.727 188.445,300.809C189.55,299.3 190.828,297.405 192.278,295.126C190.66,295.086 189.212,294.78 187.934,294.208C186.656,293.636 185.711,292.827 185.1,291.781C184.596,290.902 184.345,289.916 184.345,288.82C184.345,288.603 184.355,288.381 184.374,288.154C184.572,285.895 185.381,284.148 186.802,282.915C188.272,281.632 190.004,280.991 191.997,280.991ZM191.686,284.114C190.285,284.114 189.195,284.78 188.415,286.112C188.001,286.832 187.764,287.503 187.705,288.125C187.695,288.223 187.69,288.317 187.69,288.406C187.69,289.028 187.863,289.595 188.208,290.108C189.037,291.351 190.621,291.973 192.959,291.973C193.334,291.973 193.694,291.953 194.04,291.914C194.336,291.302 194.572,290.769 194.75,290.315C195.066,289.516 195.263,288.692 195.342,287.844C195.352,287.715 195.357,287.592 195.357,287.473C195.357,286.773 195.179,286.176 194.824,285.683C194.054,284.637 193.008,284.114 191.686,284.114ZM271.771,303.148C269.866,303.148 268.914,302.748 268.914,301.949L268.914,301.846C268.934,301.619 269.037,301.387 269.225,301.15C269.669,300.617 270.582,300.316 271.963,300.247C275.17,300.079 277.513,299.448 278.994,298.352C279.339,298.096 279.521,297.829 279.541,297.553L279.541,297.464C279.541,297.306 279.497,297.154 279.408,297.006C279.132,296.532 278.636,296.078 277.92,295.644C277.205,295.21 276.482,294.81 275.752,294.445C274.361,293.764 273.665,293.108 273.665,292.476L273.665,292.402C273.695,291.978 273.986,291.588 274.538,291.233C274.923,290.996 275.313,290.784 275.708,290.597C276.319,290.32 277.06,289.866 277.928,289.235C278.658,288.712 279.267,288.179 279.756,287.636C280.244,287.094 280.508,286.625 280.548,286.23L280.548,286.156C280.548,285.535 279.946,285.224 278.742,285.224C277.39,285.224 275.614,285.495 273.413,286.038C272.742,286.206 272.17,286.289 271.697,286.289C271.144,286.289 270.725,286.191 270.438,285.993C270.113,285.776 269.95,285.51 269.95,285.194L269.95,285.12C270.019,284.252 270.868,283.586 272.496,283.122C274.795,282.461 276.842,282.13 278.638,282.13C281.678,282.13 283.434,283.171 283.908,285.253C283.957,285.47 283.982,285.697 283.982,285.934L283.967,286.171C283.908,286.763 283.7,287.375 283.345,288.006C282.783,288.944 282.028,289.802 281.081,290.582C280.133,291.361 279.142,291.948 278.105,292.343C281.47,293.991 283.153,295.599 283.153,297.168C283.153,297.228 283.148,297.287 283.138,297.346C282.99,299.004 281.816,300.395 279.615,301.52C277.494,302.605 274.879,303.148 271.771,303.148ZM292.048,303.518C290.884,303.518 289.808,303.197 288.822,302.556C287.49,301.698 286.562,300.449 286.039,298.811C285.644,297.578 285.447,296.261 285.447,294.859C285.447,294.405 285.467,293.947 285.506,293.483C285.674,291.559 286.143,289.716 286.912,287.955C287.682,286.193 288.698,284.748 289.961,283.618C291.224,282.488 292.685,281.923 294.343,281.923C296.059,281.923 297.372,282.439 298.28,283.47C299.187,284.501 299.784,285.791 300.071,287.34C300.268,288.386 300.367,289.442 300.367,290.508C300.367,291.021 300.342,291.534 300.293,292.047C300.036,294.988 299.242,297.598 297.91,299.877C297.278,300.953 296.449,301.816 295.423,302.467C294.338,303.168 293.213,303.518 292.048,303.518ZM292.448,300.365C293.227,300.365 293.918,299.961 294.52,299.152C295.043,298.461 295.472,297.657 295.808,296.739C296.38,295.2 296.75,293.468 296.918,291.544C296.948,291.198 296.962,290.858 296.962,290.523C296.962,289.072 296.686,287.745 296.133,286.541C295.65,285.495 294.999,284.972 294.18,284.972C293.824,284.972 293.43,285.081 292.996,285.298C292.058,285.771 291.259,286.615 290.598,287.829C289.68,289.516 289.128,291.43 288.94,293.572C288.901,294.026 288.881,294.46 288.881,294.874C288.881,296.897 289.364,298.417 290.331,299.433C290.923,300.055 291.629,300.365 292.448,300.365Z" style="fill:rgb(17,28,78);"/>
        </g>
    </g>
</svg>
