<svg width="100%" height="100%" viewBox="0 0 800 800" version="1.1" xmlns="http://www.w3.org/2000/svg" xmlns:xlink="http://www.w3.org/1999/xlink" xml:space="preserve" xmlns:serif="http://www.serif.com/" stroke-width="3" style="fill-rule:evenodd;clip-rule:evenodd;stroke-linejoin:round;stroke-miterlimit:2;">
	<style type="text/css">
		.step2c{fill:none; stroke:#0053bf;}
	</style>
    <g transform="matrix(1,0,0,1,0,5.66929)">
        <g transform="matrix(1,0,0,1,0,15.1402)">
            <path class="step2c" d="M364.345,183.318C304.786,177.976 305.067,183.956 233.484,187.693C230.72,219.324 235.436,219.112 234.248,250.779C351.945,254.195 368.193,252.558 407.749,255.538C459.422,259.43 493.528,246.773 569.206,249.216C567.947,233.774 566.532,190.566 561.375,189.351C546.286,185.797 546.122,194.112 367.611,188.1" style="fill:none;"/>
        </g>
        <g transform="matrix(1,0,0,1,0,32.9814)">
            <path class="step2c" d="M302.205,283.829C279.333,282.735 279.627,286.061 271.997,285.96C270.18,312.811 270.642,312.575 271.568,339.624C294.545,341.183 340.115,341.12 368.638,344.849C397.587,348.634 516.316,342.446 529.142,341.777C523.597,292.672 529.02,286.335 516.683,285.578C474.967,283.017 441.983,288.009 305.382,283.829" style="fill:none;"/>
        </g>
        <g transform="matrix(1,0,0,1,0,45.524)">
            <path class="step2c" d="M438.583,381.105C412.79,387.069 269.512,384.111 259.066,383.57C253.596,397.433 257.415,418.234 255.894,433.907C293.017,440.408 361.639,437.553 396.362,439.474C415.051,440.507 509.141,437.197 541.416,436.736C541.621,430.517 536,382.647 533.687,381.645C521.506,376.368 451.121,380.205 444.469,381.391" style="fill:none;"/>
        </g>
        <g transform="matrix(1,0,0,1,0,56.2038)">
            <path class="step2c" d="M331.095,476.562C325.784,476.782 265.133,479.296 264.717,479.45C259.986,481.205 264.148,513.262 262.484,531.602C411.773,538.451 411.733,531.633 525.293,535.13C536.792,535.484 533.191,524.879 532.076,497.583C531.135,474.555 521.92,479.671 498.819,478.71C419.693,475.417 419.755,478.701 340.57,475.631C340.144,475.614 338.021,475.532 335.246,475.89" style="fill:none;"/>
        </g>
        <g transform="matrix(1,0,0,1,0,75.1641)">
            <path class="step2c" d="M499.449,568.056C475.182,568.351 331.096,560.896 269.462,568C264.684,568.551 264.854,568.427 257.384,568.912C256.182,568.99 252.168,569.251 242.341,569.4C242.691,578.968 243.134,598.96 247.956,627.6C377.518,642.015 469.088,632.868 551.607,627.3C557.259,626.918 559.345,628.926 560.209,623.389C560.951,618.632 560.026,572.781 547.079,571.061C543.458,570.581 542.113,571.649 504.473,571.061" style="fill:none;"/>
        </g>
        <g transform="matrix(1,0,0,1,0,5.5629)">
            <path class="step2c" d="M414.397,85.89C336.881,90.889 261.168,83.736 258.777,96.627C254.751,118.338 259.409,142.441 260.076,147.114C260.882,152.754 264.498,147.452 330.836,155.11C400,163.095 463.288,153.507 474.667,151.783C479.049,151.12 479.042,151.427 539.67,152.454C542.091,120.345 539.288,119.811 534.757,91.15C505.186,89.402 505.373,90.855 475.901,89.397C464.729,88.844 419.756,89.593 400,91.15" style="fill:none;"/>
        </g>
    </g>
</svg>
