<svg width="100%" height="100%" viewBox="0 0 800 800" version="1.1" xmlns="http://www.w3.org/2000/svg" xmlns:xlink="http://www.w3.org/1999/xlink" xml:space="preserve" xmlns:serif="http://www.serif.com/" style="fill-rule:evenodd;clip-rule:evenodd;stroke-linejoin:round;stroke-miterlimit:2;">
    <g transform="matrix(0.989673,0,0,0.989673,220.298,138.176)">
        <g>
            <path class="step4a" d="M80.437,-39.852C81.307,-41.501 82.567,-42.325 84.216,-42.325C85.819,-42.325 87.308,-41.569 88.682,-40.058C90.011,-38.638 91.385,-35.569 92.805,-30.851C93.904,-27.003 94.683,-25.079 95.141,-25.079C95.278,-25.079 95.416,-25.239 95.553,-25.56C96.515,-28.263 97.901,-31.423 99.71,-35.042C101.519,-38.661 102.745,-40.745 103.386,-41.294C104.119,-41.89 104.92,-42.188 105.791,-42.188C106.707,-42.188 107.577,-41.867 108.402,-41.226C109.226,-40.584 109.845,-39.714 110.257,-38.615C110.944,-36.554 111.288,-31.446 111.288,-23.293C111.288,-18.483 111.196,-15.173 111.013,-13.364C110.83,-11.555 110.486,-10.558 109.982,-10.375C109.661,-10.238 109.364,-10.169 109.089,-10.169C108.493,-10.169 108.104,-10.765 107.921,-11.955C107.738,-13.146 107.646,-15.551 107.646,-19.17C107.646,-24.163 107.451,-28.366 107.062,-31.778C106.673,-35.191 106.203,-36.897 105.653,-36.897C105.058,-36.897 103.97,-34.996 102.39,-31.194C100.809,-27.392 99.515,-23.567 98.508,-19.72C97.362,-15.276 96.515,-12.78 95.965,-12.23C95.553,-11.818 95.141,-11.612 94.729,-11.612C93.4,-11.612 92.324,-13.765 91.499,-18.071C90.354,-23.751 89.14,-28.377 87.858,-31.95C86.575,-35.523 85.521,-37.309 84.697,-37.309C84.285,-37.309 83.941,-36.805 83.666,-35.798C83.3,-34.332 82.911,-30.164 82.498,-23.293C82.223,-19.078 81.96,-16.296 81.708,-14.944C81.456,-13.593 81.055,-12.917 80.506,-12.917C80.048,-12.917 79.681,-14.154 79.406,-16.628C79.131,-19.101 78.994,-22.033 78.994,-25.423C78.994,-33.301 79.475,-38.111 80.437,-39.852ZM121.594,-29.339C124.068,-31.767 126.289,-32.981 128.259,-32.981C129.496,-32.981 130.847,-32.5 132.313,-31.538C133.916,-30.53 134.718,-28.675 134.718,-25.972C134.718,-24.781 134.511,-23.613 134.099,-22.468C133.733,-21.598 132.691,-20.693 130.973,-19.754C129.255,-18.815 127.732,-18.345 126.404,-18.345C125.488,-18.345 125.029,-18.185 125.029,-17.864C125.029,-17.635 125.213,-17.154 125.579,-16.422C125.9,-15.826 126.186,-15.425 126.438,-15.219C126.69,-15.013 127.114,-14.91 127.709,-14.91C128.579,-14.91 130.664,-15.322 133.962,-16.147C134.603,-16.284 135.084,-16.353 135.405,-16.353C136.092,-16.353 136.435,-15.826 136.435,-14.773C136.435,-12.895 133.962,-11.429 129.015,-10.375C128.877,-10.329 128.648,-10.306 128.328,-10.306C126.633,-10.306 124.961,-11.108 123.312,-12.711C121.663,-14.314 120.701,-16.124 120.426,-18.139C119.968,-20.521 119.441,-22.331 118.846,-23.567C118.571,-24.117 118.433,-24.598 118.433,-25.01C118.433,-25.789 119.487,-27.232 121.594,-29.339ZM126.953,-23.086C127.091,-23.041 127.274,-23.018 127.503,-23.018C128.328,-23.018 129.072,-23.327 129.736,-23.945C130.4,-24.564 130.732,-25.285 130.732,-26.11C130.732,-26.476 130.618,-26.934 130.389,-27.484C129.977,-28.354 129.564,-28.789 129.152,-28.789C128.786,-28.789 128.167,-28.56 127.297,-28.102C125.785,-27.324 125.029,-26.293 125.029,-25.01C125.029,-23.865 125.671,-23.224 126.953,-23.086ZM151.414,-41.775C151.735,-42.096 152.422,-42.211 153.475,-42.119C154.391,-41.89 154.941,-40.378 155.124,-37.584C155.262,-35.66 155.468,-34.469 155.743,-34.011C156.018,-33.553 156.705,-33.255 157.804,-33.118C159.453,-32.935 160.278,-32.225 160.278,-30.988C160.278,-30.301 160.06,-29.809 159.625,-29.511C159.19,-29.213 158.377,-29.018 157.186,-28.927L154.094,-28.652L154.712,-21.85C155.033,-17.406 155.514,-14.589 156.155,-13.398C156.75,-12.253 157.506,-11.681 158.422,-11.681C159.338,-11.681 160.094,-12.253 160.69,-13.398C161.331,-14.589 162.064,-15.185 162.888,-15.185C163.85,-15.185 164.331,-14.498 164.331,-13.124C164.331,-11.658 163.69,-10.364 162.408,-9.241C161.125,-8.119 159.682,-7.558 158.079,-7.558C157.3,-7.558 156.59,-7.718 155.949,-8.039C154.3,-8.772 153.132,-9.997 152.445,-11.715C151.758,-13.433 151.208,-16.467 150.796,-20.819C150.2,-26.27 149.834,-29.064 149.696,-29.202C149.65,-29.202 149.479,-29.259 149.181,-29.373C148.883,-29.488 148.505,-29.637 148.047,-29.82C147.589,-30.003 147.131,-30.164 146.673,-30.301C144.887,-30.851 143.993,-31.538 143.993,-32.362C143.993,-33.233 145.139,-33.782 147.429,-34.011C149.032,-34.149 149.994,-34.401 150.315,-34.767C150.635,-35.134 150.796,-36.118 150.796,-37.722C150.796,-40.012 151.002,-41.363 151.414,-41.775ZM171.546,-24.392C171.546,-28.789 171.638,-31.469 171.821,-32.431C172.004,-33.393 172.531,-33.874 173.401,-33.874C174.134,-33.874 174.615,-33.679 174.844,-33.29C175.073,-32.9 175.187,-32.156 175.187,-31.057C175.187,-29.545 175.348,-28.789 175.668,-28.789C175.897,-28.789 176.424,-29.087 177.249,-29.683C178.623,-30.644 180.501,-31.125 182.883,-31.125C184.624,-31.125 186.067,-30.828 187.212,-30.232C188.403,-29.545 188.998,-28.469 188.998,-27.003C188.998,-25.491 188.38,-24.735 187.143,-24.735C185.906,-24.735 185.288,-25.033 185.288,-25.629C185.288,-26.27 184.372,-26.591 182.539,-26.591C180.799,-26.591 179.47,-25.881 178.554,-24.461C177.638,-23.041 176.974,-20.636 176.562,-17.246C176.333,-15.093 176.069,-13.662 175.772,-12.952C175.474,-12.242 174.981,-11.887 174.294,-11.887C173.103,-11.887 172.348,-12.62 172.027,-14.085C171.706,-15.551 171.546,-18.987 171.546,-24.392ZM196.694,-43.493C197.381,-44.363 198.274,-44.799 199.373,-44.799C199.419,-44.799 199.488,-44.787 199.579,-44.764C199.671,-44.741 199.74,-44.73 199.786,-44.73C200.518,-44.638 201.022,-44.375 201.297,-43.94C201.572,-43.505 201.709,-42.76 201.709,-41.707C201.709,-40.562 201.572,-39.817 201.297,-39.474C201.022,-39.13 200.427,-38.958 199.511,-38.958C198.503,-38.958 197.667,-39.245 197.003,-39.817C196.339,-40.39 196.007,-41.043 196.007,-41.775C196.007,-42.417 196.236,-42.989 196.694,-43.493ZM197.106,-33.736C197.335,-34.378 197.885,-34.698 198.755,-34.698C198.801,-34.698 198.869,-34.687 198.961,-34.664C199.053,-34.641 199.121,-34.63 199.167,-34.63C199.9,-34.492 200.358,-33.839 200.541,-32.671C200.725,-31.503 200.816,-28.698 200.816,-24.254C200.816,-19.582 200.725,-16.742 200.541,-15.734C200.358,-14.727 199.831,-14.223 198.961,-14.223C198.137,-14.223 197.61,-14.704 197.381,-15.666C197.152,-16.628 196.968,-19.17 196.831,-23.293L196.831,-26.728C196.831,-30.896 196.923,-33.233 197.106,-33.736ZM214.627,-32.087C216.459,-33.278 218.383,-33.874 220.398,-33.874C222.689,-33.874 224.704,-33.049 226.445,-31.4C228.14,-29.705 228.987,-28.4 228.987,-27.484C228.987,-26.843 228.552,-26.362 227.682,-26.041C227.59,-25.995 227.43,-25.972 227.201,-25.972C226.239,-25.972 225.208,-26.568 224.109,-27.759C222.918,-28.995 221.658,-29.614 220.33,-29.614C218.543,-29.614 216.711,-28.537 214.833,-26.384C213.367,-24.735 212.634,-23.247 212.634,-21.918C212.634,-20.911 213.092,-19.765 214.008,-18.483C214.925,-17.154 216.322,-16.49 218.2,-16.49C219.62,-16.49 220.971,-16.948 222.254,-17.864C223.399,-18.735 224.452,-19.17 225.414,-19.17C226.605,-19.17 227.201,-18.574 227.201,-17.384C227.201,-16.009 226.273,-14.83 224.418,-13.845C222.563,-12.86 220.353,-12.368 217.787,-12.368C215.864,-12.368 214.489,-12.517 213.665,-12.814C212.84,-13.112 211.97,-13.811 211.054,-14.91C209.588,-16.651 208.855,-18.804 208.855,-21.369C208.855,-23.476 209.371,-25.514 210.401,-27.484C211.432,-29.454 212.84,-30.988 214.627,-32.087ZM243.76,-32.912C245.592,-33.691 246.943,-34.08 247.814,-34.08C248.638,-34.08 250.035,-33.691 252.005,-32.912C254.112,-32.042 255.578,-30.587 256.402,-28.549C257.227,-26.51 257.731,-23.109 257.914,-18.345C258.005,-15.322 258.051,-13.65 258.051,-13.33C258.051,-11.955 257.948,-11.097 257.742,-10.753C257.536,-10.41 257.112,-10.238 256.471,-10.238C255.738,-10.238 255.234,-10.467 254.959,-10.925C254.685,-11.383 254.455,-12.345 254.272,-13.811C253.997,-15.689 253.745,-16.628 253.516,-16.628C253.425,-16.628 253.15,-16.261 252.692,-15.528C252.005,-14.292 250.619,-13.169 248.535,-12.162C246.451,-11.154 244.515,-10.65 242.729,-10.65C240.943,-10.65 239.385,-11.383 238.057,-12.849C237.324,-13.627 236.831,-14.337 236.58,-14.979C236.328,-15.62 236.202,-16.513 236.202,-17.658C236.202,-18.025 236.247,-18.941 236.339,-20.407C236.843,-26.774 239.316,-30.942 243.76,-32.912ZM251.799,-28.034C250.837,-29.133 249.508,-29.683 247.814,-29.683C246.073,-29.683 244.63,-29.11 243.485,-27.965C242.569,-27.049 241.767,-25.606 241.08,-23.636C240.393,-21.666 240.049,-19.926 240.049,-18.414C240.049,-17.864 240.118,-17.384 240.255,-16.971C240.622,-15.78 241.698,-15.185 243.485,-15.185C244.676,-15.185 245.89,-15.528 247.126,-16.215C248.317,-16.811 249.623,-18.666 251.043,-21.781C252.142,-24.209 252.692,-25.72 252.692,-26.316C252.692,-26.865 252.394,-27.438 251.799,-28.034ZM270.969,-36.073C271.656,-36.393 272.549,-36.554 273.648,-36.554C275.939,-36.554 278.263,-35.947 280.622,-34.733C282.981,-33.519 284.161,-32.248 284.161,-30.919C284.161,-29.683 283.565,-29.064 282.374,-29.064C281.413,-29.064 280.336,-29.522 279.145,-30.438C277.588,-31.675 275.916,-32.294 274.129,-32.294C273.167,-32.294 272.366,-32.064 271.724,-31.606C271.083,-31.148 270.763,-30.53 270.763,-29.751C270.763,-29.476 270.785,-29.27 270.831,-29.133C271.014,-28.034 272.274,-27.163 274.61,-26.522C276.809,-25.881 278.481,-24.85 279.626,-23.43C280.771,-22.01 281.344,-20.453 281.344,-18.758C281.344,-16.605 280.474,-14.715 278.733,-13.089C276.992,-11.463 274.656,-10.65 271.724,-10.65C270.259,-10.65 268.804,-11.234 267.361,-12.402C265.919,-13.57 265.197,-14.795 265.197,-16.078C265.197,-16.674 265.392,-17.132 265.781,-17.452C266.17,-17.773 266.617,-17.933 267.121,-17.933C268.174,-17.933 268.862,-17.475 269.182,-16.559C269.503,-15.689 270.602,-15.254 272.48,-15.254C274.038,-15.254 275.16,-15.597 275.847,-16.284C276.58,-17.017 276.946,-18.071 276.946,-19.445C276.946,-20.269 276.706,-20.876 276.225,-21.266C275.744,-21.655 274.725,-22.079 273.167,-22.537C270.511,-23.178 268.701,-23.957 267.739,-24.873C266.686,-25.789 266.159,-27.072 266.159,-28.721C266.159,-30.232 266.606,-31.687 267.499,-33.084C268.392,-34.481 269.549,-35.477 270.969,-36.073ZM131.125,-34.524C130.247,-33.869 129.002,-34.05 128.347,-34.928C127.692,-35.807 127.873,-37.052 128.751,-37.707C130.466,-38.985 131.751,-40.587 133.092,-41.558C133.979,-42.2 135.222,-42.001 135.864,-41.113C136.507,-40.226 136.308,-38.984 135.42,-38.341C134.092,-37.38 132.823,-35.79 131.125,-34.524Z" style="fill:rgb(17,28,78);"/>
        </g>
    </g>
</svg>
