<svg width="100%" height="100%" viewBox="0 0 800 800" version="1.1" xmlns="http://www.w3.org/2000/svg" xmlns:xlink="http://www.w3.org/1999/xlink" xml:space="preserve" xmlns:serif="http://www.serif.com/" stroke-width="3" style="fill-rule:evenodd;clip-rule:evenodd;stroke-linejoin:round;stroke-miterlimit:2;">
	<style type="text/css">
		.step3b{fill:none; stroke:#111C4E;}
	</style>
    <g>
        <g transform="matrix(0.92435,0,0,0.92435,56.807,53.8984)">
            <path class="step3b" d="M39.023,147.954C39.023,152.273 39.023,195.582 38.652,201.942C75.655,202.381 75.211,202.703 111.906,204.104" style="fill:none;"/>
        </g>
        <g transform="matrix(0.92435,0,0,0.92435,56.807,123.207)">
            <path class="step3b" d="M39.023,147.954C39.023,152.273 39.023,195.582 38.652,201.942C75.655,202.381 75.211,202.703 111.906,204.104" style="fill:none;"/>
        </g>
        <g transform="matrix(0.92435,0,0,0.92435,56.807,192.516)">
            <path class="step3b" d="M39.023,147.954C39.023,152.273 39.023,195.582 38.652,201.942C75.655,202.381 75.211,202.703 111.906,204.104" style="fill:none;"/>
        </g>
        <g transform="matrix(0.92435,0,0,0.92435,56.807,261.825)">
            <path class="step3b" d="M39.023,147.954C39.023,152.273 39.023,195.582 38.652,201.942C75.655,202.381 75.211,202.703 111.906,204.104" style="fill:none;"/>
        </g>
        <g transform="matrix(0.92435,0,0,0.92435,56.807,331.134)">
            <path class="step3b" d="M39.023,147.954C39.023,152.273 39.023,195.582 38.652,201.942C75.655,202.381 75.211,202.703 111.906,204.104" style="fill:none;"/>
        </g>
        <g transform="matrix(0.92435,0,0,0.92435,149.814,53.8984)">
            <path class="step3b" d="M39.023,147.954C39.023,152.273 39.023,195.582 38.652,201.942C75.655,202.381 75.211,202.703 111.906,204.104" style="fill:none;"/>
        </g>
        <g transform="matrix(0.92435,0,0,0.92435,149.814,123.207)">
            <path class="step3b" d="M39.023,147.954C39.023,152.273 39.023,195.582 38.652,201.942C75.655,202.381 75.211,202.703 111.906,204.104" style="fill:none;"/>
        </g>
        <g transform="matrix(0.92435,0,0,0.92435,149.814,192.516)">
            <path class="step3b" d="M39.023,147.954C39.023,152.273 39.023,195.582 38.652,201.942C75.655,202.381 75.211,202.703 111.906,204.104" style="fill:none;"/>
        </g>
        <g transform="matrix(0.92435,0,0,0.92435,149.814,261.825)">
            <path class="step3b" d="M39.023,147.954C39.023,152.273 39.023,195.582 38.652,201.942C75.655,202.381 75.211,202.703 111.906,204.104" style="fill:none;"/>
        </g>
        <g transform="matrix(0.92435,0,0,0.92435,149.814,331.134)">
            <path class="step3b" d="M39.023,147.954C39.023,152.273 39.023,195.582 38.652,201.942C75.655,202.381 75.211,202.703 111.906,204.104" style="fill:none;"/>
        </g>
        <g transform="matrix(0.92435,0,0,0.92435,242.82,53.8984)">
            <path class="step3b" d="M39.023,147.954C39.023,152.273 39.023,195.582 38.652,201.942C75.655,202.381 75.211,202.703 111.906,204.104" style="fill:none;"/>
        </g>
        <g transform="matrix(0.92435,0,0,0.92435,242.82,123.207)">
            <path class="step3b" d="M39.023,147.954C39.023,152.273 39.023,195.582 38.652,201.942C75.655,202.381 75.211,202.703 111.906,204.104" style="fill:none;"/>
        </g>
        <g transform="matrix(0.92435,0,0,0.92435,242.82,192.516)">
            <path class="step3b" d="M39.023,147.954C39.023,152.273 39.023,195.582 38.652,201.942C75.655,202.381 75.211,202.703 111.906,204.104" style="fill:none;"/>
        </g>
        <g transform="matrix(0.92435,0,0,0.92435,242.82,261.825)">
            <path class="step3b" d="M39.023,147.954C39.023,152.273 39.023,195.582 38.652,201.942C75.655,202.381 75.211,202.703 111.906,204.104" style="fill:none;"/>
        </g>
        <g transform="matrix(0.92435,0,0,0.92435,242.82,331.134)">
            <path class="step3b" d="M39.023,147.954C39.023,152.273 39.023,195.582 38.652,201.942C75.655,202.381 75.211,202.703 111.906,204.104" style="fill:none;"/>
        </g>
        <g transform="matrix(0.92435,0,0,0.92435,335.827,53.8984)">
            <path class="step3b" d="M39.023,147.954C39.023,152.273 39.023,195.582 38.652,201.942C75.655,202.381 75.211,202.703 111.906,204.104" style="fill:none;"/>
        </g>
        <g transform="matrix(0.92435,0,0,0.92435,335.827,123.207)">
            <path class="step3b" d="M39.023,147.954C39.023,152.273 39.023,195.582 38.652,201.942C75.655,202.381 75.211,202.703 111.906,204.104" style="fill:none;"/>
        </g>
        <g transform="matrix(0.92435,0,0,0.92435,335.827,192.516)">
            <path class="step3b" d="M39.023,147.954C39.023,152.273 39.023,195.582 38.652,201.942C75.655,202.381 75.211,202.703 111.906,204.104" style="fill:none;"/>
        </g>
        <g transform="matrix(0.92435,0,0,0.92435,335.827,261.825)">
            <path class="step3b" d="M39.023,147.954C39.023,152.273 39.023,195.582 38.652,201.942C75.655,202.381 75.211,202.703 111.906,204.104" style="fill:none;"/>
        </g>
        <g transform="matrix(0.92435,0,0,0.92435,335.827,331.134)">
            <path class="step3b" d="M39.023,147.954C39.023,152.273 39.023,195.582 38.652,201.942C75.655,202.381 75.211,202.703 111.906,204.104" style="fill:none;"/>
        </g>
        <g transform="matrix(0.92435,0,0,0.92435,428.833,53.8984)">
            <path class="step3b" d="M39.023,147.954C39.023,152.273 39.023,195.582 38.652,201.942C75.655,202.381 75.211,202.703 111.906,204.104" style="fill:none;"/>
        </g>
        <g transform="matrix(0.92435,0,0,0.92435,428.833,123.207)">
            <path class="step3b" d="M39.023,147.954C39.023,152.273 39.023,195.582 38.652,201.942C75.655,202.381 75.211,202.703 111.906,204.104" style="fill:none;"/>
        </g>
        <g transform="matrix(0.92435,0,0,0.92435,428.833,192.516)">
            <path class="step3b" d="M39.023,147.954C39.023,152.273 39.023,195.582 38.652,201.942C75.655,202.381 75.211,202.703 111.906,204.104" style="fill:none;"/>
        </g>
        <g transform="matrix(0.92435,0,0,0.92435,428.833,261.825)">
            <path class="step3b" d="M39.023,147.954C39.023,152.273 39.023,195.582 38.652,201.942C75.655,202.381 75.211,202.703 111.906,204.104" style="fill:none;"/>
        </g>
        <g transform="matrix(0.92435,0,0,0.92435,428.833,331.134)">
            <path class="step3b" d="M39.023,147.954C39.023,152.273 39.023,195.582 38.652,201.942C75.655,202.381 75.211,202.703 111.906,204.104" style="fill:none;"/>
        </g>
        <g transform="matrix(0.92435,0,0,0.92435,521.84,53.8984)">
            <path class="step3b" d="M39.023,147.954C39.023,152.273 39.023,195.582 38.652,201.942C75.655,202.381 75.211,202.703 111.906,204.104" style="fill:none;"/>
        </g>
        <g transform="matrix(0.92435,0,0,0.92435,521.84,123.207)">
            <path class="step3b" d="M39.023,147.954C39.023,152.273 39.023,195.582 38.652,201.942C75.655,202.381 75.211,202.703 111.906,204.104" style="fill:none;"/>
        </g>
        <g transform="matrix(0.92435,0,0,0.92435,521.84,192.516)">
            <path class="step3b" d="M39.023,147.954C39.023,152.273 39.023,195.582 38.652,201.942C75.655,202.381 75.211,202.703 111.906,204.104" style="fill:none;"/>
        </g>
        <g transform="matrix(0.92435,0,0,0.92435,521.84,261.825)">
            <path class="step3b" d="M39.023,147.954C39.023,152.273 39.023,195.582 38.652,201.942C75.655,202.381 75.211,202.703 111.906,204.104" style="fill:none;"/>
        </g>
        <g transform="matrix(0.92435,0,0,0.92435,521.84,331.134)">
            <path class="step3b" d="M39.023,147.954C39.023,152.273 39.023,195.582 38.652,201.942C75.655,202.381 75.211,202.703 111.906,204.104" style="fill:none;"/>
        </g>
        <g transform="matrix(0.92435,0,0,0.92435,614.847,53.8984)">
            <path class="step3b" d="M39.023,147.954C39.023,152.273 39.023,195.582 38.652,201.942C75.655,202.381 75.211,202.703 111.906,204.104" style="fill:none;"/>
        </g>
        <g transform="matrix(0.92435,0,0,0.92435,614.847,123.207)">
            <path class="step3b" d="M39.023,147.954C39.023,152.273 39.023,195.582 38.652,201.942C75.655,202.381 75.211,202.703 111.906,204.104" style="fill:none;"/>
        </g>
        <g transform="matrix(0.92435,0,0,0.92435,614.847,192.516)">
            <path class="step3b" d="M39.023,147.954C39.023,152.273 39.023,195.582 38.652,201.942C75.655,202.381 75.211,202.703 111.906,204.104" style="fill:none;"/>
        </g>
        <g transform="matrix(0.92435,0,0,0.92435,614.847,261.825)">
            <path class="step3b" d="M39.023,147.954C39.023,152.273 39.023,195.582 38.652,201.942C75.655,202.381 75.211,202.703 111.906,204.104" style="fill:none;"/>
        </g>
        <g transform="matrix(0.92435,0,0,0.92435,614.847,331.134)">
            <path class="step3b" d="M39.023,147.954C39.023,152.273 39.023,195.582 38.652,201.942C75.655,202.381 75.211,202.703 111.906,204.104" style="fill:none;"/>
        </g>
        <g transform="matrix(0.92435,0,0,0.92435,34.4064,53.8984)">
            <path class="step3b" d="M33.603,117.508C56.705,113.172 212.907,115.04 391.194,117.508C525.562,119.369 685.894,125.449 753.614,126.16C760.822,174.458 755.543,196.113 755.803,215.667C756.852,294.612 757.526,258.958 755.803,366.171C755.175,405.2 752.984,440.634 755.803,548.917C614.82,547.346 537.694,548.411 384.431,548.917C258.444,549.333 79.813,545.772 47.558,542.783C43.534,497.231 48.063,445.585 47.558,415.775C46.147,332.535 47.206,289.642 47.558,257.598C48.331,187.345 46.327,111.262 47.558,40.978" style="fill:none;"/>
        </g>
        <g transform="matrix(0.92435,0,0,0.92435,34.4064,10.4631)">
            <path class="step3b" d="M54.854,87.968C173.084,84.838 155.172,87.968 273.311,87.968C365.853,87.968 584.886,93.008 751.369,100.297C750.756,121.945 752.541,121.737 751.708,159.95" style="fill:none;"/>
        </g>
        <g transform="matrix(0.92435,0,0,0.92435,2.60984,19.3715)">
            <path class="step3b" d="M91.045,662.131C90.705,670.212 94.885,669.813 91.583,763.226C105.254,763.477 183.483,763.572 246.482,765.45C243.794,667.876 244.619,667.957 244.048,659.497C232.293,659.498 117.403,659.505 97.114,660.892" style="fill:none;"/>
        </g>
        <path class="step3b" d="M299.075,592.118C302.524,652.681 296.382,688.602 299.075,741.821" style="fill:none;"/>
        <path class="step3b" d="M84.31,751.257C181.276,750.276 432.797,750.693 478.823,750.871C545.05,751.128 601.857,756.724 726.525,750.871" style="fill:none;"/>
        <g transform="matrix(0.92435,0,0,0.92435,2.60984,19.3715)">
            <path class="step3b" d="M96.233,665.77C137.119,688.253 136.316,688.934 177.05,711.442C185.154,715.92 223.568,748.022 247.472,758.209" style="fill:none;"/>
        </g>
        <g transform="matrix(0.92435,0,0,0.92435,2.60984,19.3715)">
            <path class="step3b" d="M241.209,663.952C197.833,701.876 192.878,702.974 166.729,719.032C161.025,722.535 160.569,721.631 94.125,760.608" style="fill:none;"/>
        </g>
        <g transform="matrix(0.92435,0,0,0.92435,34.4064,40.9096)">
            <path class="step3b" d="M330.026,680.572C336.872,672.807 337.032,672.377 341.846,667.271C344.038,675.421 344.387,680.9 344.93,680.048C347.746,675.627 346.666,674.48 354.845,666.939C355.276,668.152 358.928,678.422 360.645,681.939C366.263,675.826 365.919,675.856 371.783,669.823C369.858,674.722 370.072,674.615 367.939,681.411C378.04,677.161 377.527,676.82 385.948,669.599C383.623,676.234 383.75,675.944 381.35,682.445C395.061,671.074 394.914,671.145 396.523,669.934L396.322,682.089C401.3,676.527 400.43,678.86 411.625,669.934L413.925,680.572C421.427,674.123 424.626,670.901 430.36,666.823C430.812,673.754 430.579,673.437 429.685,680.071C430.743,678.989 437.907,672.267 446.89,667.271C449.062,670.2 444.607,673.613 446.89,680.572C451.526,677.412 457.6,671.572 462.608,668.074C463.155,671.542 463.702,675.009 464.249,678.477C471.027,671.785 470.817,671.883 478.71,666.517C481.135,673.716 481.237,680.569 485.611,679.117C486.903,678.689 485.107,674.558 498.835,666.814C499.912,670.811 500.989,674.807 502.066,678.804C509.126,671.513 508.721,671.492 517.4,665.727C519.498,672.583 519.304,672.378 522.417,679.117C527.894,674.974 533.371,670.83 538.847,666.687C540.415,671.005 541.097,678.022 542.802,679.117C547.038,676.728 550.64,674.534 561.05,667.271L565.388,679.117C570.758,675.936 577.482,670.121 582.852,666.939L586.909,678.477C589.101,676.509 594.214,670.968 602.411,666.517C603.574,669.605 604.403,674.62 604.51,678.477C606.609,676.816 621.002,664.424 622.186,666.823C624.885,672.297 622.542,687.346 635.079,667.271C636.754,670.438 637.599,679.364 639.968,678.477C642.031,677.704 648.656,667.469 651.203,665.77C654.002,677.617 656.843,675.016 660.88,678.477C665.082,675.821 670.319,670.194 673.896,668.074" style="fill:none;"/>
        </g>
        <g transform="matrix(0.92435,0,0,0.92435,-109.408,71.2949)">
            <path class="step3b" d="M485.611,679.117C486.903,678.689 485.107,674.558 498.835,666.814C499.912,670.811 500.989,674.807 502.066,678.804C509.126,671.513 508.721,671.492 517.4,665.727C519.498,672.583 519.304,672.378 522.417,679.117C527.894,674.974 533.371,670.83 538.847,666.687C540.415,671.005 541.097,678.022 542.802,679.117C547.038,676.728 550.64,674.534 561.05,667.271L565.388,679.117C570.758,675.936 577.482,670.121 582.852,666.939L586.909,678.477C589.101,676.509 594.214,670.968 602.411,666.517C603.574,669.605 604.403,674.62 604.51,678.477C606.609,676.816 621.002,664.424 622.186,666.823C624.885,672.297 622.542,687.346 635.079,667.271C636.754,670.438 637.599,679.364 639.968,678.477C642.031,677.704 648.656,667.469 651.203,665.77C654.002,677.617 656.843,675.016 660.88,678.477C665.082,675.821 670.319,670.194 673.896,668.074" style="fill:none;"/>
        </g>
    </g>
</svg>
