<svg width="100%" height="100%" viewBox="0 0 800 800" version="1.1" xmlns="http://www.w3.org/2000/svg" xmlns:xlink="http://www.w3.org/1999/xlink" xml:space="preserve" xmlns:serif="http://www.serif.com/" style="fill-rule:evenodd;clip-rule:evenodd;stroke-linejoin:round;stroke-miterlimit:2;">
    <g transform="matrix(0.989673,0,0,0.989673,220.196,128.944)">
        <g>
            <path class="step1a" d="M56.526,-42.325C57.809,-42.6 59.137,-42.737 60.511,-42.737C62.481,-42.737 64.164,-42.474 65.561,-41.947C66.958,-41.42 67.657,-40.768 67.657,-39.989C67.657,-39.76 67.588,-39.508 67.451,-39.233C67.039,-38.729 65.206,-38.477 61.954,-38.477L57.007,-38.477L57.007,-28.514L60.923,-28.24C62.435,-28.148 63.454,-27.953 63.981,-27.656C64.508,-27.358 64.771,-26.843 64.771,-26.11C64.771,-25.377 64.508,-24.861 63.981,-24.564C63.454,-24.266 62.435,-24.071 60.923,-23.98L57.007,-23.705L57.007,-18.964C57.007,-15.757 57.488,-13.444 58.45,-12.024C58.954,-11.291 59.423,-10.799 59.858,-10.547C60.294,-10.295 60.923,-10.169 61.748,-10.169C62.435,-10.169 63.351,-10.238 64.496,-10.375C66.054,-10.558 66.97,-10.65 67.245,-10.65C68.481,-10.65 69.26,-10.284 69.581,-9.551C69.672,-9.367 69.718,-9.07 69.718,-8.657C69.718,-7.741 69.191,-6.985 68.138,-6.39C67.084,-5.795 65.687,-5.497 63.947,-5.497C61.29,-5.497 59.022,-6.138 57.144,-7.421C55.266,-8.703 54.03,-10.421 53.434,-12.574C52.839,-14.544 52.541,-18.62 52.541,-24.804C52.541,-29.705 52.747,-33.805 53.159,-37.103C53.434,-39.164 53.755,-40.481 54.121,-41.054C54.488,-41.627 55.289,-42.05 56.526,-42.325ZM82.979,-36.073C83.666,-36.393 84.56,-36.554 85.659,-36.554C87.949,-36.554 90.274,-35.947 92.633,-34.733C94.992,-33.519 96.171,-32.248 96.171,-30.919C96.171,-29.683 95.576,-29.064 94.385,-29.064C93.423,-29.064 92.347,-29.522 91.156,-30.438C89.598,-31.675 87.926,-32.294 86.14,-32.294C85.178,-32.294 84.376,-32.064 83.735,-31.606C83.094,-31.148 82.773,-30.53 82.773,-29.751C82.773,-29.476 82.796,-29.27 82.842,-29.133C83.025,-28.034 84.285,-27.163 86.621,-26.522C88.82,-25.881 90.491,-24.85 91.637,-23.43C92.782,-22.01 93.354,-20.453 93.354,-18.758C93.354,-16.605 92.484,-14.715 90.743,-13.089C89.003,-11.463 86.667,-10.65 83.735,-10.65C82.269,-10.65 80.815,-11.234 79.372,-12.402C77.929,-13.57 77.208,-14.795 77.208,-16.078C77.208,-16.674 77.402,-17.132 77.792,-17.452C78.181,-17.773 78.628,-17.933 79.131,-17.933C80.185,-17.933 80.872,-17.475 81.193,-16.559C81.513,-15.689 82.613,-15.254 84.491,-15.254C86.048,-15.254 87.171,-15.597 87.858,-16.284C88.591,-17.017 88.957,-18.071 88.957,-19.445C88.957,-20.269 88.716,-20.876 88.236,-21.266C87.755,-21.655 86.735,-22.079 85.178,-22.537C82.521,-23.178 80.712,-23.957 79.75,-24.873C78.696,-25.789 78.17,-27.072 78.17,-28.721C78.17,-30.232 78.616,-31.687 79.509,-33.084C80.403,-34.481 81.559,-35.477 82.979,-36.073ZM111.081,-41.775C111.402,-42.096 112.089,-42.211 113.143,-42.119C114.059,-41.89 114.609,-40.378 114.792,-37.584C114.929,-35.66 115.135,-34.469 115.41,-34.011C115.685,-33.553 116.372,-33.255 117.471,-33.118C119.12,-32.935 119.945,-32.225 119.945,-30.988C119.945,-30.301 119.727,-29.809 119.292,-29.511C118.857,-29.213 118.044,-29.018 116.853,-28.927L113.761,-28.652L114.38,-21.85C114.7,-17.406 115.181,-14.589 115.822,-13.398C116.418,-12.253 117.174,-11.681 118.09,-11.681C119.006,-11.681 119.762,-12.253 120.357,-13.398C120.999,-14.589 121.731,-15.185 122.556,-15.185C123.518,-15.185 123.999,-14.498 123.999,-13.124C123.999,-11.658 123.358,-10.364 122.075,-9.241C120.792,-8.119 119.349,-7.558 117.746,-7.558C116.968,-7.558 116.258,-7.718 115.616,-8.039C113.967,-8.772 112.799,-9.997 112.112,-11.715C111.425,-13.433 110.875,-16.467 110.463,-20.819C109.868,-26.27 109.501,-29.064 109.364,-29.202C109.318,-29.202 109.146,-29.259 108.848,-29.373C108.551,-29.488 108.173,-29.637 107.715,-29.82C107.257,-30.003 106.799,-30.164 106.34,-30.301C104.554,-30.851 103.661,-31.538 103.661,-32.362C103.661,-33.233 104.806,-33.782 107.096,-34.011C108.7,-34.149 109.661,-34.401 109.982,-34.767C110.303,-35.134 110.463,-36.118 110.463,-37.722C110.463,-40.012 110.669,-41.363 111.081,-41.775ZM131.213,-24.392C131.213,-28.789 131.305,-31.469 131.488,-32.431C131.671,-33.393 132.198,-33.874 133.069,-33.874C133.801,-33.874 134.282,-33.679 134.511,-33.29C134.74,-32.9 134.855,-32.156 134.855,-31.057C134.855,-29.545 135.015,-28.789 135.336,-28.789C135.565,-28.789 136.092,-29.087 136.916,-29.683C138.29,-30.644 140.169,-31.125 142.55,-31.125C144.291,-31.125 145.734,-30.828 146.879,-30.232C148.07,-29.545 148.666,-28.469 148.666,-27.003C148.666,-25.491 148.047,-24.735 146.81,-24.735C145.574,-24.735 144.955,-25.033 144.955,-25.629C144.955,-26.27 144.039,-26.591 142.207,-26.591C140.466,-26.591 139.138,-25.881 138.222,-24.461C137.306,-23.041 136.641,-20.636 136.229,-17.246C136,-15.093 135.737,-13.662 135.439,-12.952C135.141,-12.242 134.649,-11.887 133.962,-11.887C132.771,-11.887 132.015,-12.62 131.694,-14.085C131.374,-15.551 131.213,-18.987 131.213,-24.392ZM155.88,-32.156C156.201,-34.126 156.957,-35.111 158.148,-35.111C158.926,-35.111 159.43,-34.813 159.659,-34.217C159.888,-33.622 160.003,-32.248 160.003,-30.095C160.003,-25.423 160.575,-21.495 161.72,-18.311C162.866,-15.128 164.24,-13.536 165.843,-13.536C166.164,-13.536 166.461,-13.605 166.736,-13.742C167.927,-14.2 168.912,-15.666 169.691,-18.139C170.469,-20.613 170.859,-23.544 170.859,-26.934C170.859,-29.499 170.95,-31.24 171.134,-32.156C171.317,-33.072 171.706,-33.645 172.302,-33.874C172.485,-33.965 172.76,-34.011 173.126,-34.011C174.592,-34.011 175.325,-31.721 175.325,-27.14C175.325,-21.918 174.397,-17.59 172.542,-14.154C170.687,-10.719 168.431,-9.001 165.774,-9.001C164.446,-9.001 163.186,-9.436 161.995,-10.306C160.713,-11.223 159.59,-12.528 158.628,-14.223C157.896,-15.643 157.22,-18.013 156.602,-21.334C155.983,-24.655 155.674,-27.507 155.674,-29.889C155.674,-30.759 155.743,-31.515 155.88,-32.156ZM188.311,-32.087C190.143,-33.278 192.067,-33.874 194.083,-33.874C196.373,-33.874 198.388,-33.049 200.129,-31.4C201.824,-29.705 202.671,-28.4 202.671,-27.484C202.671,-26.843 202.236,-26.362 201.366,-26.041C201.274,-25.995 201.114,-25.972 200.885,-25.972C199.923,-25.972 198.892,-26.568 197.793,-27.759C196.602,-28.995 195.342,-29.614 194.014,-29.614C192.227,-29.614 190.395,-28.537 188.517,-26.384C187.051,-24.735 186.318,-23.247 186.318,-21.918C186.318,-20.911 186.777,-19.765 187.693,-18.483C188.609,-17.154 190.006,-16.49 191.884,-16.49C193.304,-16.49 194.655,-16.948 195.938,-17.864C197.083,-18.735 198.137,-19.17 199.098,-19.17C200.289,-19.17 200.885,-18.574 200.885,-17.384C200.885,-16.009 199.957,-14.83 198.102,-13.845C196.247,-12.86 194.037,-12.368 191.472,-12.368C189.548,-12.368 188.174,-12.517 187.349,-12.814C186.525,-13.112 185.654,-13.811 184.738,-14.91C183.272,-16.651 182.539,-18.804 182.539,-21.369C182.539,-23.476 183.055,-25.514 184.085,-27.484C185.116,-29.454 186.525,-30.988 188.311,-32.087ZM217.513,-41.775C217.833,-42.096 218.52,-42.211 219.574,-42.119C220.49,-41.89 221.04,-40.378 221.223,-37.584C221.36,-35.66 221.566,-34.469 221.841,-34.011C222.116,-33.553 222.803,-33.255 223.903,-33.118C225.552,-32.935 226.376,-32.225 226.376,-30.988C226.376,-30.301 226.159,-29.809 225.723,-29.511C225.288,-29.213 224.475,-29.018 223.284,-28.927L220.192,-28.652L220.811,-21.85C221.131,-17.406 221.612,-14.589 222.254,-13.398C222.849,-12.253 223.605,-11.681 224.521,-11.681C225.437,-11.681 226.193,-12.253 226.788,-13.398C227.43,-14.589 228.163,-15.185 228.987,-15.185C229.949,-15.185 230.43,-14.498 230.43,-13.124C230.43,-11.658 229.789,-10.364 228.506,-9.241C227.224,-8.119 225.781,-7.558 224.177,-7.558C223.399,-7.558 222.689,-7.718 222.047,-8.039C220.398,-8.772 219.23,-9.997 218.543,-11.715C217.856,-13.433 217.306,-16.467 216.894,-20.819C216.299,-26.27 215.932,-29.064 215.795,-29.202C215.749,-29.202 215.577,-29.259 215.28,-29.373C214.982,-29.488 214.604,-29.637 214.146,-29.82C213.688,-30.003 213.23,-30.164 212.772,-30.301C210.985,-30.851 210.092,-31.538 210.092,-32.362C210.092,-33.233 211.237,-33.782 213.527,-34.011C215.131,-34.149 216.093,-34.401 216.413,-34.767C216.734,-35.134 216.894,-36.118 216.894,-37.722C216.894,-40.012 217.1,-41.363 217.513,-41.775ZM237.851,-32.156C238.171,-34.126 238.927,-35.111 240.118,-35.111C240.897,-35.111 241.401,-34.813 241.63,-34.217C241.859,-33.622 241.973,-32.248 241.973,-30.095C241.973,-25.423 242.546,-21.495 243.691,-18.311C244.836,-15.128 246.21,-13.536 247.814,-13.536C248.134,-13.536 248.432,-13.605 248.707,-13.742C249.898,-14.2 250.883,-15.666 251.661,-18.139C252.44,-20.613 252.829,-23.544 252.829,-26.934C252.829,-29.499 252.921,-31.24 253.104,-32.156C253.287,-33.072 253.677,-33.645 254.272,-33.874C254.455,-33.965 254.73,-34.011 255.097,-34.011C256.563,-34.011 257.295,-31.721 257.295,-27.14C257.295,-21.918 256.368,-17.59 254.513,-14.154C252.658,-10.719 250.402,-9.001 247.745,-9.001C246.416,-9.001 245.157,-9.436 243.966,-10.306C242.683,-11.223 241.561,-12.528 240.599,-14.223C239.866,-15.643 239.19,-18.013 238.572,-21.334C237.954,-24.655 237.645,-27.507 237.645,-29.889C237.645,-30.759 237.713,-31.515 237.851,-32.156ZM264.304,-24.392C264.304,-28.789 264.395,-31.469 264.579,-32.431C264.762,-33.393 265.289,-33.874 266.159,-33.874C266.892,-33.874 267.373,-33.679 267.602,-33.29C267.831,-32.9 267.945,-32.156 267.945,-31.057C267.945,-29.545 268.106,-28.789 268.426,-28.789C268.655,-28.789 269.182,-29.087 270.007,-29.683C271.381,-30.644 273.259,-31.125 275.641,-31.125C277.382,-31.125 278.824,-30.828 279.97,-30.232C281.161,-29.545 281.756,-28.469 281.756,-27.003C281.756,-25.491 281.138,-24.735 279.901,-24.735C278.664,-24.735 278.046,-25.033 278.046,-25.629C278.046,-26.27 277.13,-26.591 275.297,-26.591C273.557,-26.591 272.228,-25.881 271.312,-24.461C270.396,-23.041 269.732,-20.636 269.32,-17.246C269.091,-15.093 268.827,-13.662 268.529,-12.952C268.232,-12.242 267.739,-11.887 267.052,-11.887C265.861,-11.887 265.105,-12.62 264.785,-14.085C264.464,-15.551 264.304,-18.987 264.304,-24.392ZM296.46,-32.912C298.292,-33.691 299.643,-34.08 300.514,-34.08C301.338,-34.08 302.735,-33.691 304.705,-32.912C306.812,-32.042 308.278,-30.587 309.103,-28.549C309.927,-26.51 310.431,-23.109 310.614,-18.345C310.706,-15.322 310.752,-13.65 310.752,-13.33C310.752,-11.955 310.648,-11.097 310.442,-10.753C310.236,-10.41 309.813,-10.238 309.171,-10.238C308.438,-10.238 307.934,-10.467 307.66,-10.925C307.385,-11.383 307.156,-12.345 306.973,-13.811C306.698,-15.689 306.446,-16.628 306.217,-16.628C306.125,-16.628 305.85,-16.261 305.392,-15.528C304.705,-14.292 303.319,-13.169 301.235,-12.162C299.151,-11.154 297.216,-10.65 295.429,-10.65C293.643,-10.65 292.085,-11.383 290.757,-12.849C290.024,-13.627 289.532,-14.337 289.28,-14.979C289.028,-15.62 288.902,-16.513 288.902,-17.658C288.902,-18.025 288.948,-18.941 289.039,-20.407C289.543,-26.774 292.017,-30.942 296.46,-32.912ZM304.499,-28.034C303.537,-29.133 302.209,-29.683 300.514,-29.683C298.773,-29.683 297.33,-29.11 296.185,-27.965C295.269,-27.049 294.467,-25.606 293.78,-23.636C293.093,-21.666 292.75,-19.926 292.75,-18.414C292.75,-17.864 292.818,-17.384 292.956,-16.971C293.322,-15.78 294.399,-15.185 296.185,-15.185C297.376,-15.185 298.59,-15.528 299.827,-16.215C301.018,-16.811 302.323,-18.666 303.743,-21.781C304.843,-24.209 305.392,-25.72 305.392,-26.316C305.392,-26.865 305.094,-27.438 304.499,-28.034ZM55.908,2.099C56.274,1.641 57.053,1.412 58.244,1.412C58.702,1.412 58.977,1.503 59.068,1.686C59.068,1.732 59.091,2.465 59.137,3.885C59.183,5.305 59.252,7.401 59.343,10.172C59.435,12.943 59.526,15.634 59.618,18.245C59.755,22.78 59.824,26.17 59.824,28.414C59.824,30.888 59.732,32.56 59.549,33.43C59.366,34.301 59.045,34.827 58.587,35.011C58.221,35.102 57.877,35.148 57.557,35.148C56.824,35.148 56.274,34.988 55.908,34.667C55.587,34.392 55.221,34.255 54.808,34.255C54.396,34.255 53.823,34.507 53.091,35.011C51.9,35.881 50.365,36.316 48.487,36.316C45.876,36.316 43.838,35.514 42.372,33.911C41.41,32.903 40.803,31.873 40.551,30.819C40.299,29.766 40.173,27.773 40.173,24.842C40.173,20.948 40.688,18.028 41.719,16.081C42.75,14.134 44.502,12.817 46.975,12.13C47.8,11.855 48.487,11.718 49.037,11.718C49.999,11.718 51.167,12.245 52.541,13.298L55.289,15.291L55.289,8.97C55.289,4.71 55.495,2.419 55.908,2.099ZM51.373,17.49C50.136,16.665 49.151,16.253 48.418,16.253C47.685,16.253 46.861,16.734 45.945,17.696C44.616,19.207 43.952,21.612 43.952,24.91C43.952,26.697 44.193,28.3 44.674,29.72C45.155,31.14 45.83,32.01 46.701,32.331C47.067,32.422 47.365,32.468 47.594,32.468C48.647,32.468 49.827,32.01 51.132,31.094C52.438,30.178 53.388,29.079 53.984,27.796C54.488,26.788 54.74,25.689 54.74,24.498C54.74,21.429 53.617,19.093 51.373,17.49ZM70.062,16.115C72.535,13.688 74.757,12.474 76.727,12.474C77.963,12.474 79.315,12.955 80.781,13.917C82.384,14.924 83.185,16.78 83.185,19.482C83.185,20.673 82.979,21.841 82.567,22.986C82.201,23.857 81.158,24.761 79.441,25.7C77.723,26.639 76.2,27.109 74.871,27.109C73.955,27.109 73.497,27.269 73.497,27.59C73.497,27.819 73.681,28.3 74.047,29.033C74.368,29.628 74.654,30.029 74.906,30.235C75.158,30.441 75.581,30.544 76.177,30.544C77.047,30.544 79.131,30.132 82.43,29.308C83.071,29.17 83.552,29.101 83.872,29.101C84.56,29.101 84.903,29.628 84.903,30.682C84.903,32.56 82.43,34.026 77.482,35.079C77.345,35.125 77.116,35.148 76.795,35.148C75.101,35.148 73.429,34.346 71.78,32.743C70.131,31.14 69.169,29.331 68.894,27.315C68.436,24.933 67.909,23.124 67.313,21.887C67.039,21.337 66.901,20.856 66.901,20.444C66.901,19.665 67.955,18.222 70.062,16.115ZM75.421,22.368C75.559,22.414 75.742,22.437 75.971,22.437C76.795,22.437 77.54,22.127 78.204,21.509C78.868,20.891 79.2,20.169 79.2,19.345C79.2,18.978 79.086,18.52 78.857,17.971C78.444,17.1 78.032,16.665 77.62,16.665C77.253,16.665 76.635,16.894 75.765,17.352C74.253,18.131 73.497,19.162 73.497,20.444C73.497,21.589 74.139,22.231 75.421,22.368ZM109.432,30.201C109.295,28.552 109.226,23.719 109.226,15.703C109.226,7.687 109.306,2.854 109.467,1.205C109.627,-0.444 110.12,-1.268 110.944,-1.268C111.631,-1.268 112.124,-0.913 112.421,-0.203C112.719,0.507 113.005,2.007 113.28,4.297C113.647,8.42 113.83,12.222 113.83,15.703C113.83,19.139 113.647,22.918 113.28,27.04C113.005,29.331 112.719,30.831 112.421,31.541C112.124,32.251 111.631,32.606 110.944,32.606C110.12,32.606 109.616,31.804 109.432,30.201ZM128.465,12.542C130.297,11.764 131.649,11.374 132.519,11.374C133.343,11.374 134.74,11.764 136.71,12.542C138.817,13.413 140.283,14.867 141.108,16.906C141.932,18.944 142.436,22.345 142.619,27.109C142.711,30.132 142.757,31.804 142.757,32.125C142.757,33.499 142.654,34.358 142.447,34.701C142.241,35.045 141.818,35.217 141.176,35.217C140.443,35.217 139.939,34.988 139.665,34.53C139.39,34.071 139.161,33.11 138.978,31.644C138.703,29.766 138.451,28.827 138.222,28.827C138.13,28.827 137.855,29.193 137.397,29.926C136.71,31.163 135.324,32.285 133.24,33.293C131.156,34.301 129.221,34.804 127.434,34.804C125.648,34.804 124.09,34.071 122.762,32.606C122.029,31.827 121.537,31.117 121.285,30.476C121.033,29.834 120.907,28.941 120.907,27.796C120.907,27.43 120.953,26.513 121.044,25.048C121.548,18.681 124.022,14.512 128.465,12.542ZM136.504,17.421C135.542,16.322 134.214,15.772 132.519,15.772C130.778,15.772 129.335,16.344 128.19,17.49C127.274,18.406 126.472,19.849 125.785,21.818C125.098,23.788 124.755,25.529 124.755,27.04C124.755,27.59 124.823,28.071 124.961,28.483C125.327,29.674 126.404,30.27 128.19,30.27C129.381,30.27 130.595,29.926 131.832,29.239C133.023,28.643 134.328,26.788 135.748,23.673C136.848,21.246 137.397,19.734 137.397,19.139C137.397,18.589 137.099,18.016 136.504,17.421ZM172.233,12.68C173.928,11.352 176.081,10.687 178.692,10.687C180.295,10.687 181.623,10.985 182.677,11.581C183.959,12.268 185.471,14.386 187.212,17.936C188.952,21.486 189.823,24.177 189.823,26.01C189.823,26.33 189.8,26.559 189.754,26.697C189.113,29.17 187.727,31.117 185.597,32.537C183.467,33.957 181.097,34.667 178.486,34.667C174.729,34.667 171.752,33.339 169.553,30.682C167.95,28.804 167.148,26.445 167.148,23.605C167.148,21.498 167.595,19.459 168.488,17.49C169.382,15.52 170.63,13.917 172.233,12.68ZM180.272,18.039C178.898,17.398 177.455,17.077 175.943,17.077C173.882,17.077 172.668,17.558 172.302,18.52C171.935,19.62 171.752,21.292 171.752,23.536C171.752,25.735 172.37,27.498 173.607,28.827C174.844,30.155 176.356,30.819 178.142,30.819C179.883,30.819 181.555,30.178 183.158,28.895C184.624,27.704 185.357,26.33 185.357,24.773C185.357,23.536 184.91,22.311 184.017,21.097C183.123,19.883 181.875,18.864 180.272,18.039ZM205.351,1.205C206.634,-0.444 208.145,-1.268 209.886,-1.268C211.489,-1.268 212.932,-0.696 214.215,0.45C215.497,1.595 216.138,2.74 216.138,3.885C216.138,4.847 215.68,5.488 214.764,5.809C214.627,5.855 214.421,5.878 214.146,5.878L211.672,4.229C210.894,3.267 210.229,2.786 209.68,2.786C208.718,2.786 207.847,4.114 207.069,6.771C206.519,8.878 206.244,10.183 206.244,10.687C206.244,11.42 206.508,11.913 207.034,12.165C207.561,12.417 208.58,12.588 210.092,12.68C211.649,12.772 212.68,12.955 213.184,13.23C213.688,13.504 213.94,14.008 213.94,14.741C213.94,15.474 213.665,15.989 213.115,16.287C212.566,16.585 211.489,16.78 209.886,16.871L205.969,17.146L206.588,26.147C206.817,29.353 206.931,31.461 206.931,32.468C206.931,33.797 206.805,34.759 206.553,35.354C206.301,35.95 205.763,36.751 204.939,37.759C203.702,39.133 202.786,39.82 202.19,39.82C201.824,39.82 201.412,39.683 200.954,39.408C199.854,38.721 199.305,37.644 199.305,36.179C199.305,34.804 199.808,34.117 200.816,34.117L201.228,34.117C201.778,34.117 202.122,33.625 202.259,32.64C202.396,31.655 202.465,29.445 202.465,26.01L202.465,17.902L199.648,16.871C197.999,16.322 197.175,15.566 197.175,14.604C197.175,13.596 198.022,12.886 199.717,12.474C201.228,12.153 202.099,11.237 202.328,9.725C202.557,7.527 202.877,5.855 203.29,4.71C203.702,3.564 204.389,2.396 205.351,1.205ZM226.788,16.115C229.262,13.688 231.484,12.474 233.453,12.474C234.69,12.474 236.041,12.955 237.507,13.917C239.11,14.924 239.912,16.78 239.912,19.482C239.912,20.673 239.706,21.841 239.294,22.986C238.927,23.857 237.885,24.761 236.167,25.7C234.45,26.639 232.926,27.109 231.598,27.109C230.682,27.109 230.224,27.269 230.224,27.59C230.224,27.819 230.407,28.3 230.774,29.033C231.094,29.628 231.38,30.029 231.632,30.235C231.884,30.441 232.308,30.544 232.904,30.544C233.774,30.544 235.858,30.132 239.156,29.308C239.797,29.17 240.278,29.101 240.599,29.101C241.286,29.101 241.63,29.628 241.63,30.682C241.63,32.56 239.156,34.026 234.209,35.079C234.072,35.125 233.843,35.148 233.522,35.148C231.827,35.148 230.155,34.346 228.506,32.743C226.857,31.14 225.895,29.331 225.62,27.315C225.162,24.933 224.636,23.124 224.04,21.887C223.765,21.337 223.628,20.856 223.628,20.444C223.628,19.665 224.681,18.222 226.788,16.115ZM232.148,22.368C232.285,22.414 232.468,22.437 232.697,22.437C233.522,22.437 234.266,22.127 234.93,21.509C235.595,20.891 235.927,20.169 235.927,19.345C235.927,18.978 235.812,18.52 235.583,17.971C235.171,17.1 234.759,16.665 234.346,16.665C233.98,16.665 233.362,16.894 232.491,17.352C230.98,18.131 230.224,19.162 230.224,20.444C230.224,21.589 230.865,22.231 232.148,22.368ZM248.844,21.062C248.844,16.665 248.936,13.985 249.119,13.023C249.302,12.062 249.829,11.581 250.699,11.581C251.432,11.581 251.913,11.775 252.142,12.165C252.371,12.554 252.486,13.298 252.486,14.398C252.486,15.909 252.646,16.665 252.967,16.665C253.196,16.665 253.723,16.367 254.547,15.772C255.921,14.81 257.799,14.329 260.181,14.329C261.922,14.329 263.365,14.627 264.51,15.222C265.701,15.909 266.296,16.986 266.296,18.452C266.296,19.963 265.678,20.719 264.441,20.719C263.204,20.719 262.586,20.421 262.586,19.826C262.586,19.184 261.67,18.864 259.838,18.864C258.097,18.864 256.769,19.574 255.853,20.994C254.936,22.414 254.272,24.819 253.86,28.208C253.631,30.361 253.368,31.793 253.07,32.503C252.772,33.213 252.28,33.568 251.593,33.568C250.402,33.568 249.646,32.835 249.325,31.369C249.005,29.903 248.844,26.468 248.844,21.062ZM281.069,3.679C281.39,3.358 282.077,3.244 283.13,3.335C284.046,3.564 284.596,5.076 284.779,7.87C284.917,9.794 285.123,10.985 285.398,11.443C285.673,11.901 286.36,12.199 287.459,12.336C289.108,12.52 289.933,13.23 289.933,14.466C289.933,15.153 289.715,15.646 289.28,15.944C288.845,16.241 288.032,16.436 286.841,16.528L283.749,16.802L284.367,23.605C284.688,28.048 285.169,30.865 285.81,32.056C286.405,33.201 287.161,33.774 288.077,33.774C288.993,33.774 289.749,33.201 290.345,32.056C290.986,30.865 291.719,30.27 292.543,30.27C293.505,30.27 293.986,30.957 293.986,32.331C293.986,33.797 293.345,35.091 292.063,36.213C290.78,37.335 289.337,37.896 287.734,37.896C286.955,37.896 286.245,37.736 285.604,37.415C283.955,36.682 282.787,35.457 282.1,33.739C281.413,32.022 280.863,28.987 280.451,24.635C279.855,19.184 279.489,16.39 279.351,16.253C279.305,16.253 279.134,16.196 278.836,16.081C278.538,15.967 278.16,15.818 277.702,15.634C277.244,15.451 276.786,15.291 276.328,15.153C274.542,14.604 273.648,13.917 273.648,13.092C273.648,12.222 274.794,11.672 277.084,11.443C278.687,11.306 279.649,11.054 279.97,10.687C280.29,10.321 280.451,9.336 280.451,7.733C280.451,5.442 280.657,4.091 281.069,3.679ZM308.896,12.542C310.729,11.764 312.08,11.374 312.95,11.374C313.775,11.374 315.172,11.764 317.142,12.542C319.249,13.413 320.714,14.867 321.539,16.906C322.363,18.944 322.867,22.345 323.051,27.109C323.142,30.132 323.188,31.804 323.188,32.125C323.188,33.499 323.085,34.358 322.879,34.701C322.673,35.045 322.249,35.217 321.608,35.217C320.875,35.217 320.371,34.988 320.096,34.53C319.821,34.071 319.592,33.11 319.409,31.644C319.134,29.766 318.882,28.827 318.653,28.827C318.562,28.827 318.287,29.193 317.829,29.926C317.142,31.163 315.756,32.285 313.672,33.293C311.588,34.301 309.652,34.804 307.866,34.804C306.079,34.804 304.522,34.071 303.193,32.606C302.461,31.827 301.968,31.117 301.716,30.476C301.464,29.834 301.338,28.941 301.338,27.796C301.338,27.43 301.384,26.513 301.476,25.048C301.98,18.681 304.453,14.512 308.896,12.542ZM316.935,17.421C315.973,16.322 314.645,15.772 312.95,15.772C311.21,15.772 309.767,16.344 308.622,17.49C307.705,18.406 306.904,19.849 306.217,21.818C305.53,23.788 305.186,25.529 305.186,27.04C305.186,27.59 305.255,28.071 305.392,28.483C305.759,29.674 306.835,30.27 308.622,30.27C309.813,30.27 311.026,29.926 312.263,29.239C313.454,28.643 314.76,26.788 316.18,23.673C317.279,21.246 317.829,19.734 317.829,19.139C317.829,18.589 317.531,18.016 316.935,17.421ZM62.664,384.714C63.816,383.562 64.634,382.819 65.119,382.486C65.604,382.152 66.165,381.986 66.802,381.986C67.226,381.986 67.757,382.031 68.393,382.122C69.666,382.243 70.811,382.615 71.826,383.236C72.842,383.858 73.349,384.456 73.349,385.032C73.349,385.244 73.258,385.441 73.076,385.623C72.834,385.866 72.516,385.987 72.122,385.987C71.728,385.987 71.136,385.851 70.348,385.578C69.439,385.275 68.529,385.123 67.62,385.123C67.347,385.123 67.029,385.153 66.665,385.214C65.574,385.487 64.498,386.449 63.437,388.101C62.376,389.753 61.755,391.443 61.573,393.171C61.482,393.808 61.436,394.323 61.436,394.717C61.436,395.293 61.565,395.786 61.823,396.195C62.08,396.604 62.603,397.203 63.391,397.991C64.786,399.385 66.135,400.083 67.438,400.083C68.378,400.083 69.409,399.749 70.53,399.082C71.318,398.597 71.864,398.355 72.167,398.355C72.41,398.355 72.652,398.537 72.895,398.9C73.016,399.113 73.076,399.325 73.076,399.537C73.076,399.992 72.713,400.537 71.985,401.174C70.682,402.356 69.166,402.947 67.438,402.947C65.892,402.947 64.414,402.47 63.005,401.515C61.595,400.56 60.466,399.234 59.617,397.536C58.86,395.93 58.481,394.763 58.481,394.035C58.481,393.58 58.632,392.626 58.935,391.171C59.239,389.776 59.633,388.655 60.118,387.806C60.603,386.957 61.451,385.926 62.664,384.714ZM83.216,387.442C84.429,386.927 85.323,386.669 85.899,386.669C86.445,386.669 87.369,386.927 88.673,387.442C90.067,388.018 91.037,388.98 91.583,390.329C92.128,391.678 92.462,393.929 92.583,397.082C92.644,399.082 92.674,400.189 92.674,400.401C92.674,401.31 92.606,401.879 92.469,402.106C92.333,402.333 92.052,402.447 91.628,402.447C91.143,402.447 90.81,402.295 90.628,401.992C90.446,401.689 90.294,401.053 90.173,400.083C89.991,398.84 89.824,398.218 89.673,398.218C89.612,398.218 89.43,398.461 89.127,398.946C88.673,399.764 87.756,400.507 86.376,401.174C84.997,401.841 83.716,402.174 82.534,402.174C81.352,402.174 80.321,401.689 79.442,400.719C78.957,400.204 78.631,399.734 78.465,399.31C78.298,398.885 78.215,398.294 78.215,397.536C78.215,397.294 78.245,396.688 78.305,395.718C78.639,391.504 80.276,388.746 83.216,387.442ZM88.536,390.67C87.9,389.943 87.02,389.579 85.899,389.579C84.747,389.579 83.792,389.958 83.034,390.716C82.428,391.322 81.898,392.277 81.443,393.58C80.988,394.884 80.761,396.036 80.761,397.036C80.761,397.4 80.806,397.718 80.897,397.991C81.14,398.779 81.852,399.173 83.034,399.173C83.822,399.173 84.626,398.946 85.444,398.491C86.232,398.097 87.096,396.869 88.036,394.808C88.763,393.202 89.127,392.201 89.127,391.807C89.127,391.443 88.93,391.064 88.536,390.67ZM97.357,393.08C97.357,390.17 97.418,388.397 97.539,387.76C97.66,387.124 98.009,386.805 98.585,386.805C99.07,386.805 99.388,386.934 99.54,387.192C99.691,387.45 99.767,387.942 99.767,388.67C99.767,389.67 99.873,390.17 100.085,390.17C100.237,390.17 100.586,389.973 101.131,389.579C102.041,388.943 103.283,388.624 104.86,388.624C106.012,388.624 106.966,388.821 107.724,389.215C108.512,389.67 108.906,390.382 108.906,391.352C108.906,392.353 108.497,392.853 107.679,392.853C106.86,392.853 106.451,392.656 106.451,392.262C106.451,391.837 105.845,391.625 104.632,391.625C103.48,391.625 102.601,392.095 101.995,393.035C101.389,393.975 100.949,395.566 100.676,397.809C100.525,399.234 100.351,400.181 100.154,400.651C99.957,401.121 99.631,401.356 99.176,401.356C98.388,401.356 97.888,400.871 97.675,399.901C97.463,398.931 97.357,396.657 97.357,393.08ZM118.637,387.442C119.849,386.927 120.744,386.669 121.32,386.669C121.865,386.669 122.79,386.927 124.093,387.442C125.488,388.018 126.458,388.98 127.003,390.329C127.549,391.678 127.882,393.929 128.004,397.082C128.064,399.082 128.095,400.189 128.095,400.401C128.095,401.31 128.026,401.879 127.89,402.106C127.754,402.333 127.473,402.447 127.049,402.447C126.564,402.447 126.23,402.295 126.049,401.992C125.867,401.689 125.715,401.053 125.594,400.083C125.412,398.84 125.245,398.218 125.094,398.218C125.033,398.218 124.851,398.461 124.548,398.946C124.093,399.764 123.176,400.507 121.797,401.174C120.418,401.841 119.137,402.174 117.955,402.174C116.773,402.174 115.742,401.689 114.863,400.719C114.378,400.204 114.052,399.734 113.885,399.31C113.719,398.885 113.635,398.294 113.635,397.536C113.635,397.294 113.666,396.688 113.726,395.718C114.06,391.504 115.697,388.746 118.637,387.442ZM123.957,390.67C123.32,389.943 122.441,389.579 121.32,389.579C120.168,389.579 119.213,389.958 118.455,390.716C117.849,391.322 117.318,392.277 116.864,393.58C116.409,394.884 116.182,396.036 116.182,397.036C116.182,397.4 116.227,397.718 116.318,397.991C116.561,398.779 117.273,399.173 118.455,399.173C119.243,399.173 120.047,398.946 120.865,398.491C121.653,398.097 122.517,396.869 123.457,394.808C124.184,393.202 124.548,392.201 124.548,391.807C124.548,391.443 124.351,391.064 123.957,390.67ZM136.734,387.988C137.946,387.2 139.22,386.805 140.553,386.805C142.069,386.805 143.403,387.351 144.555,388.442C145.676,389.564 146.237,390.428 146.237,391.034C146.237,391.459 145.949,391.777 145.373,391.989C145.312,392.019 145.206,392.034 145.055,392.034C144.418,392.034 143.736,391.64 143.009,390.852C142.221,390.034 141.387,389.625 140.508,389.625C139.326,389.625 138.113,390.337 136.87,391.762C135.9,392.853 135.415,393.838 135.415,394.717C135.415,395.384 135.718,396.142 136.325,396.991C136.931,397.87 137.855,398.309 139.098,398.309C140.038,398.309 140.932,398.006 141.781,397.4C142.539,396.824 143.236,396.536 143.873,396.536C144.661,396.536 145.055,396.93 145.055,397.718C145.055,398.628 144.441,399.408 143.213,400.06C141.986,400.712 140.523,401.037 138.825,401.037C137.552,401.037 136.643,400.939 136.097,400.742C135.552,400.545 134.976,400.083 134.369,399.355C133.399,398.203 132.914,396.778 132.914,395.081C132.914,393.687 133.255,392.338 133.937,391.034C134.62,389.731 135.552,388.715 136.734,387.988ZM156.058,381.576C156.271,381.364 156.725,381.288 157.423,381.349C158.029,381.501 158.393,382.501 158.514,384.35C158.605,385.623 158.741,386.411 158.923,386.715C159.105,387.018 159.56,387.215 160.287,387.306C161.378,387.427 161.924,387.897 161.924,388.715C161.924,389.17 161.78,389.496 161.492,389.693C161.204,389.89 160.666,390.019 159.878,390.079L157.832,390.261L158.241,394.763C158.453,397.703 158.771,399.567 159.196,400.355C159.59,401.113 160.09,401.492 160.696,401.492C161.303,401.492 161.803,401.113 162.197,400.355C162.621,399.567 163.106,399.173 163.652,399.173C164.288,399.173 164.607,399.628 164.607,400.537C164.607,401.507 164.182,402.364 163.334,403.106C162.485,403.849 161.53,404.22 160.469,404.22C159.954,404.22 159.484,404.114 159.059,403.902C157.968,403.417 157.195,402.606 156.74,401.469C156.286,400.333 155.922,398.324 155.649,395.445C155.255,391.837 155.013,389.988 154.922,389.897C154.891,389.897 154.778,389.86 154.581,389.784C154.384,389.708 154.134,389.609 153.83,389.488C153.527,389.367 153.224,389.261 152.921,389.17C151.739,388.806 151.148,388.351 151.148,387.806C151.148,387.23 151.906,386.866 153.421,386.715C154.482,386.624 155.119,386.457 155.331,386.214C155.543,385.972 155.649,385.32 155.649,384.259C155.649,382.744 155.786,381.849 156.058,381.576ZM171.609,389.806C173.246,388.2 174.716,387.397 176.02,387.397C176.838,387.397 177.732,387.715 178.702,388.351C179.763,389.018 180.294,390.246 180.294,392.034C180.294,392.823 180.157,393.596 179.885,394.353C179.642,394.929 178.952,395.528 177.816,396.149C176.679,396.771 175.671,397.082 174.792,397.082C174.186,397.082 173.883,397.188 173.883,397.4C173.883,397.551 174.004,397.87 174.246,398.355C174.458,398.749 174.648,399.014 174.815,399.15C174.981,399.287 175.262,399.355 175.656,399.355C176.232,399.355 177.611,399.082 179.794,398.537C180.218,398.446 180.536,398.4 180.748,398.4C181.203,398.4 181.43,398.749 181.43,399.446C181.43,400.689 179.794,401.659 176.52,402.356C176.429,402.386 176.277,402.402 176.065,402.402C174.943,402.402 173.837,401.871 172.746,400.81C171.655,399.749 171.018,398.552 170.836,397.218C170.533,395.642 170.184,394.444 169.79,393.626C169.608,393.262 169.517,392.944 169.517,392.671C169.517,392.156 170.215,391.201 171.609,389.806ZM175.156,393.944C175.247,393.975 175.368,393.99 175.519,393.99C176.065,393.99 176.558,393.785 176.997,393.376C177.437,392.967 177.656,392.489 177.656,391.944C177.656,391.701 177.581,391.398 177.429,391.034C177.156,390.458 176.884,390.17 176.611,390.17C176.368,390.17 175.959,390.322 175.383,390.625C174.383,391.14 173.883,391.822 173.883,392.671C173.883,393.429 174.307,393.853 175.156,393.944ZM186.205,393.08C186.205,390.17 186.265,388.397 186.387,387.76C186.508,387.124 186.857,386.805 187.432,386.805C187.917,386.805 188.236,386.934 188.387,387.192C188.539,387.45 188.615,387.942 188.615,388.67C188.615,389.67 188.721,390.17 188.933,390.17C189.085,390.17 189.433,389.973 189.979,389.579C190.888,388.943 192.131,388.624 193.707,388.624C194.859,388.624 195.814,388.821 196.572,389.215C197.36,389.67 197.754,390.382 197.754,391.352C197.754,392.353 197.345,392.853 196.526,392.853C195.708,392.853 195.299,392.656 195.299,392.262C195.299,391.837 194.692,391.625 193.48,391.625C192.328,391.625 191.449,392.095 190.843,393.035C190.236,393.975 189.797,395.566 189.524,397.809C189.372,399.234 189.198,400.181 189.001,400.651C188.804,401.121 188.478,401.356 188.024,401.356C187.235,401.356 186.735,400.871 186.523,399.901C186.311,398.931 186.205,396.657 186.205,393.08ZM203.119,386.896C203.271,386.472 203.635,386.26 204.211,386.26C204.241,386.26 204.287,386.267 204.347,386.283C204.408,386.298 204.453,386.305 204.484,386.305C204.969,386.396 205.272,386.828 205.393,387.601C205.514,388.374 205.575,390.231 205.575,393.171C205.575,396.263 205.514,398.143 205.393,398.809C205.272,399.476 204.923,399.81 204.347,399.81C203.802,399.81 203.453,399.491 203.301,398.855C203.15,398.218 203.029,396.536 202.938,393.808L202.938,391.534C202.938,388.776 202.998,387.23 203.119,386.896ZM214.623,385.35C215.078,385.138 215.669,385.032 216.397,385.032C217.912,385.032 219.451,385.434 221.012,386.237C222.573,387.04 223.353,387.882 223.353,388.761C223.353,389.579 222.959,389.988 222.171,389.988C221.535,389.988 220.822,389.685 220.034,389.079C219.004,388.261 217.897,387.851 216.715,387.851C216.078,387.851 215.548,388.003 215.123,388.306C214.699,388.609 214.487,389.018 214.487,389.534C214.487,389.716 214.502,389.852 214.532,389.943C214.654,390.67 215.487,391.246 217.033,391.671C218.488,392.095 219.595,392.777 220.352,393.717C221.11,394.657 221.489,395.687 221.489,396.809C221.489,398.233 220.913,399.484 219.761,400.56C218.609,401.636 217.063,402.174 215.123,402.174C214.153,402.174 213.191,401.788 212.236,401.015C211.281,400.242 210.804,399.431 210.804,398.582C210.804,398.188 210.933,397.885 211.19,397.673C211.448,397.461 211.744,397.354 212.077,397.354C212.774,397.354 213.229,397.658 213.441,398.264C213.653,398.84 214.381,399.128 215.624,399.128C216.654,399.128 217.397,398.9 217.852,398.446C218.337,397.961 218.579,397.263 218.579,396.354C218.579,395.808 218.42,395.407 218.102,395.149C217.783,394.891 217.109,394.611 216.078,394.308C214.32,393.884 213.123,393.368 212.486,392.762C211.789,392.156 211.44,391.307 211.44,390.216C211.44,389.215 211.736,388.253 212.327,387.328C212.918,386.404 213.684,385.745 214.623,385.35ZM233.22,381.576C233.433,381.364 233.887,381.288 234.584,381.349C235.191,381.501 235.554,382.501 235.676,384.35C235.767,385.623 235.903,386.411 236.085,386.715C236.267,387.018 236.721,387.215 237.449,387.306C238.54,387.427 239.086,387.897 239.086,388.715C239.086,389.17 238.942,389.496 238.654,389.693C238.366,389.89 237.828,390.019 237.04,390.079L234.994,390.261L235.403,394.763C235.615,397.703 235.933,399.567 236.358,400.355C236.752,401.113 237.252,401.492 237.858,401.492C238.464,401.492 238.965,401.113 239.359,400.355C239.783,399.567 240.268,399.173 240.814,399.173C241.45,399.173 241.769,399.628 241.769,400.537C241.769,401.507 241.344,402.364 240.495,403.106C239.647,403.849 238.692,404.22 237.631,404.22C237.116,404.22 236.646,404.114 236.221,403.902C235.13,403.417 234.357,402.606 233.902,401.469C233.448,400.333 233.084,398.324 232.811,395.445C232.417,391.837 232.175,389.988 232.084,389.897C232.053,389.897 231.94,389.86 231.743,389.784C231.546,389.708 231.295,389.609 230.992,389.488C230.689,389.367 230.386,389.261 230.083,389.17C228.901,388.806 228.31,388.351 228.31,387.806C228.31,387.23 229.067,386.866 230.583,386.715C231.644,386.624 232.281,386.457 232.493,386.214C232.705,385.972 232.811,385.32 232.811,384.259C232.811,382.744 232.948,381.849 233.22,381.576ZM246.998,380.44C247.452,379.864 248.043,379.576 248.771,379.576C248.801,379.576 248.847,379.583 248.907,379.599C248.968,379.614 249.013,379.621 249.044,379.621C249.529,379.682 249.862,379.856 250.044,380.144C250.226,380.432 250.317,380.925 250.317,381.622C250.317,382.38 250.226,382.872 250.044,383.1C249.862,383.327 249.468,383.441 248.862,383.441C248.195,383.441 247.642,383.251 247.202,382.872C246.763,382.493 246.543,382.061 246.543,381.576C246.543,381.152 246.694,380.773 246.998,380.44ZM247.27,386.896C247.422,386.472 247.786,386.26 248.362,386.26C248.392,386.26 248.437,386.267 248.498,386.283C248.559,386.298 248.604,386.305 248.635,386.305C249.12,386.396 249.423,386.828 249.544,387.601C249.665,388.374 249.726,390.231 249.726,393.171C249.726,396.263 249.665,398.143 249.544,398.809C249.423,399.476 249.074,399.81 248.498,399.81C247.952,399.81 247.604,399.491 247.452,398.855C247.301,398.218 247.179,396.536 247.089,393.808L247.089,391.534C247.089,388.776 247.149,387.23 247.27,386.896ZM258.865,387.988C260.078,387.2 261.351,386.805 262.685,386.805C264.2,386.805 265.534,387.351 266.686,388.442C267.808,389.564 268.368,390.428 268.368,391.034C268.368,391.459 268.08,391.777 267.504,391.989C267.444,392.019 267.338,392.034 267.186,392.034C266.55,392.034 265.867,391.64 265.14,390.852C264.352,390.034 263.518,389.625 262.639,389.625C261.457,389.625 260.244,390.337 259.002,391.762C258.032,392.853 257.547,393.838 257.547,394.717C257.547,395.384 257.85,396.142 258.456,396.991C259.062,397.87 259.987,398.309 261.23,398.309C262.169,398.309 263.064,398.006 263.912,397.4C264.67,396.824 265.367,396.536 266.004,396.536C266.792,396.536 267.186,396.93 267.186,397.718C267.186,398.628 266.572,399.408 265.345,400.06C264.117,400.712 262.654,401.037 260.957,401.037C259.684,401.037 258.774,400.939 258.229,400.742C257.683,400.545 257.107,400.083 256.501,399.355C255.531,398.203 255.046,396.778 255.046,395.081C255.046,393.687 255.387,392.338 256.069,391.034C256.751,389.731 257.683,388.715 258.865,387.988ZM278.144,387.442C279.357,386.927 280.251,386.669 280.827,386.669C281.373,386.669 282.297,386.927 283.601,387.442C284.995,388.018 285.965,388.98 286.511,390.329C287.056,391.678 287.39,393.929 287.511,397.082C287.572,399.082 287.602,400.189 287.602,400.401C287.602,401.31 287.534,401.879 287.397,402.106C287.261,402.333 286.981,402.447 286.556,402.447C286.071,402.447 285.738,402.295 285.556,401.992C285.374,401.689 285.222,401.053 285.101,400.083C284.919,398.84 284.753,398.218 284.601,398.218C284.54,398.218 284.358,398.461 284.055,398.946C283.601,399.764 282.684,400.507 281.304,401.174C279.925,401.841 278.644,402.174 277.462,402.174C276.28,402.174 275.249,401.689 274.37,400.719C273.885,400.204 273.559,399.734 273.393,399.31C273.226,398.885 273.143,398.294 273.143,397.536C273.143,397.294 273.173,396.688 273.234,395.718C273.567,391.504 275.204,388.746 278.144,387.442ZM283.464,390.67C282.828,389.943 281.949,389.579 280.827,389.579C279.675,389.579 278.72,389.958 277.962,390.716C277.356,391.322 276.826,392.277 276.371,393.58C275.916,394.884 275.689,396.036 275.689,397.036C275.689,397.4 275.734,397.718 275.825,397.991C276.068,398.779 276.78,399.173 277.962,399.173C278.751,399.173 279.554,398.946 280.372,398.491C281.16,398.097 282.024,396.869 282.964,394.808C283.692,393.202 284.055,392.201 284.055,391.807C284.055,391.443 283.858,391.064 283.464,390.67ZM296.15,385.35C296.605,385.138 297.196,385.032 297.924,385.032C299.439,385.032 300.978,385.434 302.539,386.237C304.1,387.04 304.88,387.882 304.88,388.761C304.88,389.579 304.486,389.988 303.698,389.988C303.062,389.988 302.349,389.685 301.561,389.079C300.53,388.261 299.424,387.851 298.242,387.851C297.605,387.851 297.075,388.003 296.65,388.306C296.226,388.609 296.014,389.018 296.014,389.534C296.014,389.716 296.029,389.852 296.059,389.943C296.181,390.67 297.014,391.246 298.56,391.671C300.015,392.095 301.122,392.777 301.879,393.717C302.637,394.657 303.016,395.687 303.016,396.809C303.016,398.233 302.44,399.484 301.288,400.56C300.136,401.636 298.59,402.174 296.65,402.174C295.68,402.174 294.718,401.788 293.763,401.015C292.808,400.242 292.331,399.431 292.331,398.582C292.331,398.188 292.46,397.885 292.717,397.673C292.975,397.461 293.27,397.354 293.604,397.354C294.301,397.354 294.756,397.658 294.968,398.264C295.18,398.84 295.908,399.128 297.151,399.128C298.181,399.128 298.924,398.9 299.379,398.446C299.864,397.961 300.106,397.263 300.106,396.354C300.106,395.808 299.947,395.407 299.629,395.149C299.31,394.891 298.636,394.611 297.605,394.308C295.847,393.884 294.65,393.368 294.013,392.762C293.316,392.156 292.967,391.307 292.967,390.216C292.967,389.215 293.263,388.253 293.854,387.328C294.445,386.404 295.211,385.745 296.15,385.35ZM204.796,383.244C204.167,383.714 203.275,383.584 202.805,382.955C202.336,382.325 202.466,381.433 203.095,380.964C204.323,380.048 205.244,378.9 206.205,378.205C206.841,377.745 207.731,377.887 208.191,378.523C208.651,379.159 208.509,380.049 207.873,380.509C206.922,381.198 206.012,382.337 204.796,383.244ZM104.86,484.558C105.133,484.285 105.815,484.149 106.906,484.149C108.816,484.149 110.574,484.452 112.18,485.058C115.454,486.453 117.091,488.12 117.091,490.06C117.091,490.696 116.909,491.363 116.545,492.061C116.333,492.394 116.227,492.727 116.227,493.061C116.227,493.485 116.439,493.985 116.864,494.561C117.47,495.44 117.773,496.38 117.773,497.381C117.773,498.593 117.326,499.73 116.432,500.791C115.537,501.852 114.302,502.67 112.726,503.246C111.241,503.792 109.77,504.065 108.315,504.065C108.224,504.065 108.111,504.057 107.974,504.042C107.838,504.027 107.739,504.019 107.679,504.019C106.648,503.928 105.974,503.769 105.655,503.542C105.337,503.314 105.102,502.807 104.951,502.018C104.647,500.503 104.496,497.017 104.496,491.56C104.496,487.104 104.617,484.77 104.86,484.558ZM114.636,497.29C114.636,496.714 114.423,496.213 113.999,495.789C113.575,495.365 112.65,495.153 111.225,495.153C110.255,495.153 109.361,495.259 108.543,495.471C108.118,495.562 107.83,495.819 107.679,496.244C107.527,496.668 107.451,497.396 107.451,498.426C107.451,499.73 107.542,500.503 107.724,500.745C107.906,500.988 108.497,501.109 109.498,501.109C110.862,501.109 112.059,500.707 113.09,499.904C114.12,499.101 114.636,498.229 114.636,497.29ZM112.317,488.059C111.165,487.453 110.043,487.15 108.952,487.15C108.255,487.15 107.83,487.279 107.679,487.536C107.527,487.794 107.451,488.484 107.451,489.605C107.451,490.757 107.542,491.447 107.724,491.674C107.906,491.901 108.421,492.015 109.27,492.015C110.392,492.015 111.483,491.78 112.544,491.31C113.605,490.84 114.135,490.348 114.135,489.833C114.135,489.287 113.529,488.696 112.317,488.059ZM124.684,492.606C126.321,491 127.792,490.196 129.095,490.196C129.913,490.196 130.808,490.515 131.778,491.151C132.839,491.818 133.369,493.046 133.369,494.834C133.369,495.622 133.233,496.395 132.96,497.153C132.717,497.729 132.028,498.328 130.891,498.949C129.754,499.571 128.746,499.881 127.867,499.881C127.261,499.881 126.958,499.987 126.958,500.2C126.958,500.351 127.079,500.669 127.322,501.154C127.534,501.549 127.723,501.814 127.89,501.95C128.057,502.087 128.337,502.155 128.731,502.155C129.307,502.155 130.686,501.882 132.869,501.336C133.293,501.245 133.612,501.2 133.824,501.2C134.279,501.2 134.506,501.549 134.506,502.246C134.506,503.489 132.869,504.459 129.595,505.156C129.504,505.186 129.353,505.201 129.14,505.201C128.019,505.201 126.912,504.671 125.821,503.61C124.73,502.549 124.093,501.352 123.911,500.018C123.608,498.441 123.26,497.244 122.866,496.426C122.684,496.062 122.593,495.744 122.593,495.471C122.593,494.955 123.29,494.001 124.684,492.606ZM128.231,496.744C128.322,496.774 128.443,496.789 128.595,496.789C129.14,496.789 129.633,496.585 130.073,496.176C130.512,495.766 130.732,495.289 130.732,494.743C130.732,494.501 130.656,494.198 130.505,493.834C130.232,493.258 129.959,492.97 129.686,492.97C129.444,492.97 129.034,493.122 128.458,493.425C127.458,493.94 126.958,494.622 126.958,495.471C126.958,496.229 127.382,496.653 128.231,496.744ZM139.326,493.97L139.326,492.697C139.326,491.333 139.394,490.477 139.53,490.128C139.667,489.78 139.962,489.605 140.417,489.605C140.75,489.605 141.076,489.719 141.395,489.946C141.713,490.174 141.917,490.454 142.008,490.787C142.19,491.394 142.387,491.697 142.599,491.697C142.812,491.697 143.175,491.5 143.691,491.106C144.449,490.56 145.297,490.287 146.237,490.287C147.904,490.287 149.382,491.151 150.67,492.879C151.959,494.607 152.603,496.698 152.603,499.154C152.603,502.488 151.981,504.155 150.739,504.155C150.223,504.155 149.905,503.951 149.784,503.542C149.662,503.132 149.602,502.125 149.602,500.518C149.602,498.426 149.314,496.691 148.738,495.312C148.162,493.932 147.45,493.243 146.601,493.243C145.722,493.243 145.055,493.675 144.6,494.539C144.145,495.403 143.721,497.032 143.327,499.427C142.994,501.306 142.713,502.511 142.486,503.041C142.258,503.572 141.902,503.837 141.417,503.837C140.053,503.837 139.356,500.548 139.326,493.97ZM159.469,492.606C161.106,491 162.576,490.196 163.879,490.196C164.698,490.196 165.592,490.515 166.562,491.151C167.623,491.818 168.153,493.046 168.153,494.834C168.153,495.622 168.017,496.395 167.744,497.153C167.502,497.729 166.812,498.328 165.675,498.949C164.539,499.571 163.531,499.881 162.652,499.881C162.045,499.881 161.742,499.987 161.742,500.2C161.742,500.351 161.863,500.669 162.106,501.154C162.318,501.549 162.508,501.814 162.674,501.95C162.841,502.087 163.121,502.155 163.515,502.155C164.091,502.155 165.471,501.882 167.653,501.336C168.078,501.245 168.396,501.2 168.608,501.2C169.063,501.2 169.29,501.549 169.29,502.246C169.29,503.489 167.653,504.459 164.379,505.156C164.288,505.186 164.137,505.201 163.925,505.201C162.803,505.201 161.697,504.671 160.605,503.61C159.514,502.549 158.878,501.352 158.696,500.018C158.393,498.441 158.044,497.244 157.65,496.426C157.468,496.062 157.377,495.744 157.377,495.471C157.377,494.955 158.074,494.001 159.469,492.606ZM163.015,496.744C163.106,496.774 163.227,496.789 163.379,496.789C163.925,496.789 164.417,496.585 164.857,496.176C165.296,495.766 165.516,495.289 165.516,494.743C165.516,494.501 165.44,494.198 165.289,493.834C165.016,493.258 164.743,492.97 164.47,492.97C164.228,492.97 163.819,493.122 163.243,493.425C162.242,493.94 161.742,494.622 161.742,495.471C161.742,496.229 162.167,496.653 163.015,496.744ZM179.657,482.739C180.506,481.648 181.506,481.102 182.658,481.102C183.719,481.102 184.674,481.481 185.523,482.239C186.372,482.997 186.796,483.755 186.796,484.513C186.796,485.149 186.493,485.574 185.886,485.786C185.796,485.816 185.659,485.831 185.477,485.831L183.84,484.74C183.325,484.103 182.885,483.785 182.522,483.785C181.885,483.785 181.309,484.664 180.794,486.422C180.43,487.817 180.248,488.681 180.248,489.014C180.248,489.499 180.423,489.825 180.771,489.992C181.12,490.158 181.794,490.272 182.795,490.333C183.825,490.393 184.507,490.515 184.841,490.696C185.174,490.878 185.341,491.212 185.341,491.697C185.341,492.182 185.159,492.523 184.795,492.72C184.431,492.917 183.719,493.046 182.658,493.106L180.066,493.288L180.476,499.245C180.627,501.367 180.703,502.761 180.703,503.428C180.703,504.307 180.62,504.944 180.453,505.338C180.286,505.732 179.93,506.262 179.384,506.929C178.566,507.839 177.96,508.293 177.566,508.293C177.323,508.293 177.05,508.202 176.747,508.02C176.02,507.566 175.656,506.853 175.656,505.883C175.656,504.974 175.989,504.519 176.656,504.519L176.929,504.519C177.293,504.519 177.52,504.193 177.611,503.542C177.702,502.89 177.747,501.427 177.747,499.154L177.747,493.788L175.883,493.106C174.792,492.743 174.246,492.242 174.246,491.606C174.246,490.939 174.807,490.469 175.929,490.196C176.929,489.984 177.505,489.378 177.656,488.378C177.808,486.923 178.02,485.816 178.293,485.058C178.566,484.3 179.021,483.527 179.657,482.739ZM192.07,483.239C192.525,482.664 193.116,482.376 193.844,482.376C193.874,482.376 193.919,482.383 193.98,482.398C194.041,482.413 194.086,482.421 194.116,482.421C194.601,482.482 194.935,482.656 195.117,482.944C195.299,483.232 195.39,483.724 195.39,484.422C195.39,485.18 195.299,485.672 195.117,485.899C194.935,486.127 194.541,486.24 193.935,486.24C193.268,486.24 192.715,486.051 192.275,485.672C191.835,485.293 191.616,484.861 191.616,484.376C191.616,483.952 191.767,483.573 192.07,483.239ZM192.343,489.696C192.495,489.272 192.858,489.06 193.434,489.06C193.465,489.06 193.51,489.067 193.571,489.082C193.631,489.097 193.677,489.105 193.707,489.105C194.192,489.196 194.495,489.628 194.617,490.401C194.738,491.174 194.799,493.031 194.799,495.971C194.799,499.063 194.738,500.942 194.617,501.609C194.495,502.276 194.147,502.61 193.571,502.61C193.025,502.61 192.677,502.291 192.525,501.655C192.373,501.018 192.252,499.336 192.161,496.608L192.161,494.334C192.161,491.576 192.222,490.03 192.343,489.696ZM203.938,490.787C205.15,489.999 206.424,489.605 207.757,489.605C209.273,489.605 210.607,490.151 211.759,491.242C212.88,492.364 213.441,493.228 213.441,493.834C213.441,494.258 213.153,494.577 212.577,494.789C212.517,494.819 212.41,494.834 212.259,494.834C211.622,494.834 210.94,494.44 210.213,493.652C209.425,492.834 208.591,492.424 207.712,492.424C206.53,492.424 205.317,493.137 204.074,494.561C203.104,495.653 202.619,496.638 202.619,497.517C202.619,498.184 202.922,498.942 203.529,499.79C204.135,500.669 205.06,501.109 206.302,501.109C207.242,501.109 208.136,500.806 208.985,500.2C209.743,499.624 210.44,499.336 211.077,499.336C211.865,499.336 212.259,499.73 212.259,500.518C212.259,501.427 211.645,502.208 210.417,502.86C209.19,503.511 207.727,503.837 206.03,503.837C204.756,503.837 203.847,503.739 203.301,503.542C202.756,503.345 202.18,502.882 201.573,502.155C200.603,501.003 200.118,499.578 200.118,497.881C200.118,496.486 200.459,495.137 201.142,493.834C201.824,492.53 202.756,491.515 203.938,490.787ZM218.579,483.239C219.034,482.664 219.625,482.376 220.352,482.376C220.383,482.376 220.428,482.383 220.489,482.398C220.549,482.413 220.595,482.421 220.625,482.421C221.11,482.482 221.444,482.656 221.626,482.944C221.807,483.232 221.898,483.724 221.898,484.422C221.898,485.18 221.807,485.672 221.626,485.899C221.444,486.127 221.05,486.24 220.443,486.24C219.776,486.24 219.223,486.051 218.784,485.672C218.344,485.293 218.124,484.861 218.124,484.376C218.124,483.952 218.276,483.573 218.579,483.239ZM218.852,489.696C219.004,489.272 219.367,489.06 219.943,489.06C219.974,489.06 220.019,489.067 220.08,489.082C220.14,489.097 220.186,489.105 220.216,489.105C220.701,489.196 221.004,489.628 221.125,490.401C221.247,491.174 221.307,493.031 221.307,495.971C221.307,499.063 221.247,500.942 221.125,501.609C221.004,502.276 220.656,502.61 220.08,502.61C219.534,502.61 219.185,502.291 219.034,501.655C218.882,501.018 218.761,499.336 218.67,496.608L218.67,494.334C218.67,491.576 218.731,490.03 218.852,489.696ZM229.947,490.333C231.068,489.454 232.493,489.014 234.221,489.014C235.282,489.014 236.161,489.211 236.858,489.605C237.707,490.06 238.707,491.462 239.859,493.811C241.011,496.16 241.587,497.941 241.587,499.154C241.587,499.366 241.572,499.518 241.541,499.609C241.117,501.245 240.2,502.534 238.79,503.473C237.381,504.413 235.812,504.883 234.084,504.883C231.599,504.883 229.628,504.004 228.173,502.246C227.112,501.003 226.582,499.442 226.582,497.562C226.582,496.168 226.877,494.819 227.468,493.516C228.06,492.212 228.886,491.151 229.947,490.333ZM235.266,493.879C234.357,493.455 233.402,493.243 232.402,493.243C231.038,493.243 230.234,493.561 229.992,494.198C229.749,494.925 229.628,496.032 229.628,497.517C229.628,498.972 230.037,500.139 230.856,501.018C231.674,501.897 232.675,502.337 233.857,502.337C235.009,502.337 236.115,501.912 237.176,501.064C238.146,500.275 238.631,499.366 238.631,498.335C238.631,497.517 238.336,496.706 237.745,495.903C237.153,495.099 236.327,494.425 235.266,493.879ZM250.135,488.15C250.59,487.938 251.181,487.832 251.908,487.832C253.424,487.832 254.962,488.234 256.523,489.037C258.085,489.84 258.865,490.681 258.865,491.56C258.865,492.379 258.471,492.788 257.683,492.788C257.046,492.788 256.334,492.485 255.546,491.879C254.515,491.06 253.409,490.651 252.227,490.651C251.59,490.651 251.06,490.803 250.635,491.106C250.211,491.409 249.999,491.818 249.999,492.333C249.999,492.515 250.014,492.652 250.044,492.743C250.165,493.47 250.999,494.046 252.545,494.47C254,494.895 255.106,495.577 255.864,496.517C256.622,497.456 257.001,498.487 257.001,499.609C257.001,501.033 256.425,502.284 255.273,503.36C254.121,504.436 252.575,504.974 250.635,504.974C249.665,504.974 248.703,504.587 247.748,503.814C246.793,503.041 246.316,502.231 246.316,501.382C246.316,500.988 246.444,500.685 246.702,500.472C246.96,500.26 247.255,500.154 247.589,500.154C248.286,500.154 248.741,500.457 248.953,501.064C249.165,501.64 249.893,501.927 251.135,501.927C252.166,501.927 252.909,501.7 253.363,501.245C253.848,500.76 254.091,500.063 254.091,499.154C254.091,498.608 253.932,498.207 253.613,497.949C253.295,497.691 252.621,497.411 251.59,497.108C249.832,496.683 248.635,496.168 247.998,495.562C247.301,494.955 246.952,494.107 246.952,493.015C246.952,492.015 247.248,491.053 247.839,490.128C248.43,489.204 249.195,488.544 250.135,488.15ZM126.139,585.251C126.382,584.706 126.685,584.433 127.049,584.433C127.413,584.433 127.792,584.675 128.186,585.16C128.61,585.585 129.55,588.464 131.005,593.8C132.46,598.892 133.354,601.438 133.687,601.438C133.96,601.438 134.764,598.65 136.097,593.072C137.31,587.737 138.128,584.918 138.553,584.615C138.674,584.554 138.795,584.524 138.916,584.524C139.31,584.524 139.644,584.66 139.917,584.933C140.159,585.115 140.28,585.494 140.28,586.07C140.28,586.949 139.841,589.237 138.962,592.936C137.901,597.513 136.916,600.772 136.006,602.712C135.097,604.652 134.127,605.622 133.096,605.622C132.733,605.622 132.452,605.576 132.255,605.485C132.058,605.394 131.823,605.084 131.55,604.553C131.278,604.023 131.02,603.363 130.777,602.575C130.535,601.787 130.156,600.514 129.641,598.756C129.247,597.392 128.701,595.535 128.004,593.186C127.307,590.836 126.882,589.419 126.731,588.934C126.306,587.601 126.094,586.524 126.094,585.706C126.094,585.463 126.109,585.312 126.139,585.251ZM150.147,590.617C151.36,590.101 152.254,589.844 152.83,589.844C153.376,589.844 154.3,590.101 155.604,590.617C156.998,591.193 157.968,592.155 158.514,593.504C159.059,594.853 159.393,597.104 159.514,600.256C159.575,602.257 159.605,603.363 159.605,603.576C159.605,604.485 159.537,605.053 159.4,605.281C159.264,605.508 158.984,605.622 158.559,605.622C158.074,605.622 157.741,605.47 157.559,605.167C157.377,604.864 157.225,604.227 157.104,603.257C156.922,602.014 156.756,601.393 156.604,601.393C156.543,601.393 156.362,601.635 156.058,602.12C155.604,602.939 154.687,603.682 153.308,604.349C151.928,605.015 150.648,605.349 149.465,605.349C148.283,605.349 147.252,604.864 146.373,603.894C145.888,603.378 145.563,602.909 145.396,602.484C145.229,602.06 145.146,601.469 145.146,600.711C145.146,600.468 145.176,599.862 145.237,598.892C145.57,594.679 147.207,591.92 150.147,590.617ZM155.467,593.845C154.831,593.118 153.952,592.754 152.83,592.754C151.678,592.754 150.723,593.133 149.966,593.89C149.359,594.497 148.829,595.452 148.374,596.755C147.919,598.059 147.692,599.21 147.692,600.211C147.692,600.575 147.738,600.893 147.828,601.166C148.071,601.954 148.783,602.348 149.966,602.348C150.754,602.348 151.557,602.12 152.375,601.666C153.164,601.272 154.027,600.044 154.967,597.983C155.695,596.376 156.058,595.376 156.058,594.982C156.058,594.618 155.861,594.239 155.467,593.845ZM164.379,602.302C164.288,601.211 164.243,598.013 164.243,592.708C164.243,587.404 164.296,584.205 164.402,583.114C164.508,582.023 164.834,581.477 165.38,581.477C165.834,581.477 166.16,581.712 166.357,582.182C166.554,582.652 166.744,583.645 166.926,585.16C167.168,587.889 167.289,590.404 167.289,592.708C167.289,594.982 167.168,597.483 166.926,600.211C166.744,601.726 166.554,602.719 166.357,603.189C166.16,603.659 165.834,603.894 165.38,603.894C164.834,603.894 164.501,603.363 164.379,602.302ZM175.338,590.708C176.459,589.829 177.884,589.389 179.612,589.389C180.673,589.389 181.552,589.586 182.249,589.98C183.098,590.435 184.098,591.837 185.25,594.186C186.402,596.535 186.978,598.316 186.978,599.529C186.978,599.741 186.963,599.892 186.932,599.983C186.508,601.62 185.591,602.909 184.181,603.848C182.772,604.788 181.203,605.258 179.475,605.258C176.99,605.258 175.019,604.379 173.564,602.621C172.503,601.378 171.973,599.817 171.973,597.937C171.973,596.543 172.268,595.194 172.859,593.89C173.451,592.587 174.277,591.526 175.338,590.708ZM180.657,594.254C179.748,593.83 178.793,593.618 177.793,593.618C176.429,593.618 175.626,593.936 175.383,594.573C175.141,595.3 175.019,596.406 175.019,597.892C175.019,599.347 175.428,600.514 176.247,601.393C177.065,602.272 178.066,602.712 179.248,602.712C180.4,602.712 181.506,602.287 182.567,601.438C183.537,600.65 184.022,599.741 184.022,598.71C184.022,597.892 183.727,597.081 183.136,596.278C182.544,595.474 181.718,594.8 180.657,594.254ZM191.661,596.255C191.661,593.345 191.722,591.572 191.843,590.935C191.964,590.298 192.313,589.98 192.889,589.98C193.374,589.98 193.692,590.109 193.844,590.367C193.995,590.624 194.071,591.117 194.071,591.844C194.071,592.845 194.177,593.345 194.389,593.345C194.541,593.345 194.889,593.148 195.435,592.754C196.344,592.117 197.587,591.799 199.164,591.799C200.316,591.799 201.27,591.996 202.028,592.39C202.816,592.845 203.21,593.557 203.21,594.527C203.21,595.527 202.801,596.028 201.983,596.028C201.164,596.028 200.755,595.831 200.755,595.436C200.755,595.012 200.149,594.8 198.936,594.8C197.784,594.8 196.905,595.27 196.299,596.209C195.693,597.149 195.253,598.741 194.98,600.984C194.829,602.408 194.655,603.356 194.458,603.826C194.26,604.295 193.935,604.53 193.48,604.53C192.692,604.53 192.192,604.045 191.979,603.075C191.767,602.105 191.661,599.832 191.661,596.255ZM210.076,592.981C211.713,591.375 213.183,590.571 214.487,590.571C215.305,590.571 216.2,590.89 217.17,591.526C218.231,592.193 218.761,593.421 218.761,595.209C218.761,595.997 218.625,596.77 218.352,597.528C218.109,598.104 217.42,598.703 216.283,599.324C215.146,599.946 214.138,600.256 213.259,600.256C212.653,600.256 212.35,600.362 212.35,600.575C212.35,600.726 212.471,601.044 212.714,601.529C212.926,601.923 213.115,602.189 213.282,602.325C213.449,602.462 213.729,602.53 214.123,602.53C214.699,602.53 216.078,602.257 218.261,601.711C218.685,601.62 219.004,601.575 219.216,601.575C219.67,601.575 219.898,601.923 219.898,602.621C219.898,603.863 218.261,604.834 214.987,605.531C214.896,605.561 214.745,605.576 214.532,605.576C213.411,605.576 212.304,605.046 211.213,603.985C210.122,602.924 209.485,601.726 209.303,600.393C209,598.816 208.652,597.619 208.258,596.801C208.076,596.437 207.985,596.119 207.985,595.846C207.985,595.33 208.682,594.376 210.076,592.981ZM213.623,597.119C213.714,597.149 213.835,597.164 213.987,597.164C214.532,597.164 215.025,596.96 215.464,596.55C215.904,596.141 216.124,595.664 216.124,595.118C216.124,594.876 216.048,594.573 215.896,594.209C215.624,593.633 215.351,593.345 215.078,593.345C214.835,593.345 214.426,593.496 213.85,593.8C212.85,594.315 212.35,594.997 212.35,595.846C212.35,596.604 212.774,597.028 213.623,597.119ZM228.537,588.525C228.992,588.313 229.583,588.207 230.31,588.207C231.826,588.207 233.364,588.608 234.925,589.412C236.487,590.215 237.267,591.056 237.267,591.935C237.267,592.754 236.873,593.163 236.085,593.163C235.448,593.163 234.736,592.86 233.948,592.254C232.917,591.435 231.811,591.026 230.629,591.026C229.992,591.026 229.462,591.177 229.037,591.481C228.613,591.784 228.401,592.193 228.401,592.708C228.401,592.89 228.416,593.027 228.446,593.118C228.567,593.845 229.401,594.421 230.947,594.845C232.402,595.27 233.508,595.952 234.266,596.891C235.024,597.831 235.403,598.862 235.403,599.983C235.403,601.408 234.827,602.659 233.675,603.735C232.523,604.811 230.977,605.349 229.037,605.349C228.067,605.349 227.105,604.962 226.15,604.189C225.195,603.416 224.718,602.606 224.718,601.757C224.718,601.363 224.846,601.06 225.104,600.847C225.362,600.635 225.657,600.529 225.991,600.529C226.688,600.529 227.143,600.832 227.355,601.438C227.567,602.014 228.294,602.302 229.537,602.302C230.568,602.302 231.311,602.075 231.765,601.62C232.25,601.135 232.493,600.438 232.493,599.529C232.493,598.983 232.334,598.581 232.015,598.324C231.697,598.066 231.023,597.786 229.992,597.483C228.234,597.058 227.036,596.543 226.4,595.937C225.703,595.33 225.354,594.482 225.354,593.39C225.354,592.39 225.65,591.428 226.241,590.503C226.832,589.578 227.597,588.919 228.537,588.525Z" style="fill:rgb(0,83,191);"/>
        </g>
    </g>
</svg>
