<svg width="100%" height="100%" viewBox="0 0 800 800" version="1.1" xmlns="http://www.w3.org/2000/svg" xmlns:xlink="http://www.w3.org/1999/xlink" xml:space="preserve" xmlns:serif="http://www.serif.com/" stroke-width="3" style="fill-rule:evenodd;clip-rule:evenodd;stroke-linejoin:round;stroke-miterlimit:2;">
	<style type="text/css">
		.step4b{fill:none; stroke:#111C4E;}
	</style>
    <g>
        <g transform="matrix(1,0,0,1,-6.7957,57.9185)">
            <path class="step4b" d="M406.823,453.494C427.672,452.751 500.345,452.713 543.017,452.621C580.056,452.541 690.126,452.739 743.72,452.621" style="fill:none;"/>
        </g>
        <g transform="matrix(1,0,0,1,-6.7957,57.9185)">
            <path class="step4b" d="M407.143,404.568C426.728,404.292 462.182,403.968 485.139,403.647C509.167,403.311 602.596,405.052 636.07,404.568C679.011,403.947 722.483,404.894 744.16,403.647" style="fill:none;"/>
        </g>
        <g transform="matrix(1,0,0,1,-6.7957,57.9185)">
            <path class="step4b" d="M405.882,354.447C496.602,355.052 512.289,355.013 531.883,354.447C547.918,353.984 599.409,354.875 658.709,355.141C706.569,355.356 729.474,354.871 743.72,355.141" style="fill:none;"/>
        </g>
        <g transform="matrix(1,0,0,1,-6.7957,57.9185)">
            <path class="step4b" d="M407.108,306.365C443.756,305.841 443.632,306.644 480.4,306.111C540.925,305.233 643.068,307.32 691.844,306.365C715.411,305.903 740.376,306.954 743.72,305.718" style="fill:none;"/>
        </g>
        <g transform="matrix(1,0,0,1,-6.7957,57.9185)">
            <path class="step4b" d="M407.46,257.754C421.653,257.754 466.818,258.04 496.692,257.968C587.774,257.749 654.525,257.824 661.743,257.968C740.021,259.528 736.931,257.569 743.72,257.968" style="fill:none;"/>
        </g>
        <g transform="matrix(1,0,0,1,-5.65946,41.691)">
            <path class="step4b" d="M191.242,263.79C129.008,261.123 75.44,320.69 93.929,393.596C101.063,421.728 131.892,465.75 183.877,467.89C215.619,469.197 251.849,454.62 277.348,422.248C304.019,388.387 295.831,327.644 277.348,306.726C243.61,268.545 217.602,264.92 191.242,263.79Z" style="fill:none;"/>
        </g>
        <g transform="matrix(1,0,0,1,-5.65946,41.691)">
            <path class="step4b" d="M225.713,320.576C196.787,299.589 142.548,309.294 136.106,356.917C132.116,386.413 154.793,410.017 169.005,416.695C188.165,425.698 227.541,422.665 242.186,390.907C259.527,353.305 234.612,327.033 225.713,320.576Z" style="fill:none;"/>
        </g>
    </g>
</svg>
