<svg width="100%" height="100%" viewBox="0 0 800 800" version="1.1" xmlns="http://www.w3.org/2000/svg" xmlns:xlink="http://www.w3.org/1999/xlink" xml:space="preserve" xmlns:serif="http://www.serif.com/" stroke-width="3" style="fill-rule:evenodd;clip-rule:evenodd;stroke-linejoin:round;stroke-miterlimit:2;">
	<style type="text/css">
		.step4d{fill:none; stroke:#0053bf;}
	</style>
    <g>
        <g transform="matrix(1,0,0,1,-6.7957,57.9185)">
            <path class="step4d" d="M418.984,453.295C418.226,435.541 419.553,415.374 418.984,379.032C421.05,378.965 444.783,378.197 444.817,378.385C446.613,388.13 447.22,400.908 446.793,415.97C446.562,424.104 447.641,440.032 446.793,452.64" style="fill:none;"/>
        </g>
        <g transform="matrix(1,0,0,1,-6.7957,57.9185)">
            <path class="step4d" d="M474.8,451.926C474.493,421.939 474.125,325.855 474.8,323.107C475.186,321.54 500.817,321.081 505.981,323.107C506.17,331.324 503.027,360.419 503.147,381.757C503.268,403.409 503.766,446.231 503.147,451.104" style="fill:none;"/>
        </g>
        <g transform="matrix(1,0,0,1,-6.7957,57.9185)">
            <path class="step4d" d="M532.395,451.104C532.609,423.337 533.854,376.795 532.395,342.686C539.214,342.065 546.495,342.962 559.983,342.686C560.861,360.877 560.271,428.452 559.983,451.104" style="fill:none;"/>
        </g>
        <g transform="matrix(1,0,0,1,-6.7957,57.9185)">
            <path class="step4d" d="M589.812,450.648C590.457,449.337 589.969,372.159 589.812,364.195C589.248,335.478 590.541,321.982 588.527,293.096C603.497,293.339 602.978,293.566 618.116,293.096C617.437,302.802 617.863,344.14 618.116,371.173C618.574,420.062 619.206,427.62 618.116,451.926" style="fill:none;"/>
        </g>
        <g transform="matrix(1,0,0,1,-6.7957,57.9185)">
            <path class="step4d" d="M645.543,452.621C646.046,424.458 645.51,385.242 645.543,379.693C645.625,366.091 645.256,342.257 645.543,320.11C656.806,320.108 668.5,320.039 674.597,320.11C674.503,330.381 673.994,355.763 674.597,389.6C675.104,417.998 674.074,449.549 674.597,452.621" style="fill:none;"/>
        </g>
        <g transform="matrix(1,0,0,1,-6.7957,57.9185)">
            <path class="step4d" d="M703.51,451.532C702.74,429.724 702.492,389.63 702.316,371.132C702.042,342.313 701.789,294.678 702.316,269.711C711.162,268.893 724.137,268.585 730.206,269.711C730.62,287.381 730.804,323.415 730.206,353.726C729.783,375.239 729.765,436.223 730.206,451.532" style="fill:none;"/>
        </g>
        <g transform="matrix(1,0,0,1,-5.65946,41.691)">
            <path class="step4d" d="M238.7,277.609C237.227,281.018 227.15,304.343 218.483,319.392" style="fill:none;"/>
        </g>
        <g transform="matrix(1,0,0,1,-5.65946,41.691)">
            <path class="step4d" d="M98.903,318.4C115.861,330.378 126.52,328.033 140.915,342.156" style="fill:none;"/>
        </g>
        <g transform="matrix(1,0,0,1,-5.65946,41.691)">
            <path class="step4d" d="M190.876,420.282C190.876,467.161 189.727,467.694 189.376,470.977" style="fill:none;"/>
        </g>
        <g transform="matrix(1,0,0,1,-15.2365,10.256)">
            <path class="step4d" d="M86.521,648.937C185.277,648.937 238.514,645.243 397.637,646.318C492.468,646.958 575.598,646.921 585.36,647.66C654.623,652.903 736.527,646.54 743.952,647.2" style="fill:none;"/>
        </g>
        <g transform="matrix(1,0,0,1,-13.7124,13.0906)">
            <path class="step4d" d="M87.432,679.931C211.361,674.503 257.858,681.897 473.693,679.877C543.586,679.224 733.305,679.151 739.993,677.453" style="fill:none;"/>
        </g>
        <g transform="matrix(1,0,0,1,-15.6494,18.7599)">
            <path class="step4d" d="M86.934,710.301C124.14,712.583 190.787,711.062 265.346,709.875C351.731,708.501 386.402,713.16 426.844,710.471" style="fill:none;"/>
        </g>
    </g>
</svg>
