<svg width="100%" height="100%" viewBox="0 0 800 800" version="1.1" xmlns="http://www.w3.org/2000/svg" xmlns:xlink="http://www.w3.org/1999/xlink" xml:space="preserve" xmlns:serif="http://www.serif.com/" style="fill-rule:evenodd;clip-rule:evenodd;stroke-linejoin:round;stroke-miterlimit:2;">
    <g>
        <g transform="matrix(1,0,0,1,198.896,-272.08)">
            <path class="step1c" d="M200.915,474.915C200.745,520.011 200.381,572.203 201.104,633.492" style="fill:none;"/>
        </g>
        <g transform="matrix(1,0,0,1,70.9922,-338.152)">
            <path class="step1c" d="M227.85,532.55C201.144,556.347 168.711,582.528 136.77,629.723C115.603,660.998 93.29,698.152 79.654,745.185" style="fill:none;"/>
        </g>
        <path class="step1c" d="M656.974,387.148C627.111,327.638 605.198,297.853 571.242,263.157C545.18,236.529 522.68,215.711 489.923,195.993" style="fill:none;"/>
        <g transform="matrix(1,0,0,1,171.758,-111.258)">
            <path class="step1c" d="M285.244,163.615C282.521,162.663 187.718,145.256 112.023,172.319C24.604,203.574 23.235,245.966 50.58,271.144C76.93,295.406 125.725,312.819 205.951,313.123C332.037,313.602 355.015,299.733 387.026,282.401C420.387,264.337 408.596,220.925 363.879,197.981C344.498,188.037 332.606,180.813 248.478,172.319C213.348,168.772 160.327,171.011 154.436,172.319" style="fill:none;"/>
        </g>
        <g transform="matrix(1,0,0,1,0,-9.38825)">
            <path class="step1c" d="M387.775,352.061C388.23,353.916 391.894,368.866 399.874,372.641C400.911,373.131 409.415,355.798 411.847,351.644" style="fill:none;"/>
        </g>
        <path class="step1c" d="M633.457,376.19C655.438,386.347 655.067,386.328 656.974,387.148C656.405,373.002 656.584,373.354 655.273,359.344" style="fill:none;"/>
        <path class="step1c" d="M146.215,375.765C146.753,389.821 148.089,393.266 149.975,407.033C160.778,400.992 174.907,394.018 178.251,392.495" style="fill:none;"/>
        <g transform="matrix(1,0,0,1,0,-6.85541)">
            <path class="step1c" d="M398.092,439.979C396.46,471.904 397.501,471.609 399.22,503.719" style="fill:none;"/>
        </g>
        <g transform="matrix(1,0,0,1,0.260836,-5.56225)">
            <path class="step1c" d="M395.524,549.418C396.629,595.525 396.912,595.428 397.004,599.43" style="fill:none;"/>
        </g>
        <g transform="matrix(1,0,0,1,0,4.37922)">
            <path class="step1c" d="M395.139,640.89C395.99,676.702 394.555,685.857 393.903,691.856" style="fill:none;"/>
        </g>
        <g transform="matrix(1,0,0,1,0,-6.85541)">
            <path class="step1c" d="M387.396,489.324C390.478,493.049 390.943,496.447 399.22,505.848C405.983,495.292 407.076,493.979 411.099,489.324" style="fill:none;"/>
        </g>
        <g transform="matrix(1,0,0,1,0.260836,-5.56225)">
            <path class="step1c" d="M384.403,588.578C387.765,589.99 387.154,590.556 396.495,601.141C397.261,600.43 406.989,592.178 409.626,589.023" style="fill:none;"/>
        </g>
        <g transform="matrix(1,0,0,1,0,4.37922)">
            <path class="step1c" d="M381.985,678.409C386.955,685.606 388.801,689.469 393.741,694.108C400.375,689.066 403.575,683.185 406.295,678.409" style="fill:none;"/>
        </g>
    </g>
</svg>