<svg width="100%" height="100%" viewBox="0 0 800 800" version="1.1" xmlns="http://www.w3.org/2000/svg" xmlns:xlink="http://www.w3.org/1999/xlink" xml:space="preserve" xmlns:serif="http://www.serif.com/" style="fill-rule:evenodd;clip-rule:evenodd;stroke-linejoin:round;stroke-miterlimit:2;">
    <g transform="matrix(0.727975,0,0,0.727975,-5.76663,234.836)">
        <g>
            <path class="step4c" d="M204.488,-36.386C205.26,-36.955 206.641,-37.239 208.632,-37.239C209.079,-37.239 209.953,-37.199 211.253,-37.118C215.926,-36.792 219.603,-35.533 222.284,-33.339C224.966,-31.145 226.307,-28.422 226.307,-25.172C226.307,-22.368 225.332,-19.524 223.382,-16.639C220.578,-12.576 216.616,-10.544 211.497,-10.544C210.278,-10.544 208.957,-10.666 207.535,-10.91L204.183,-11.458L203.634,-23.404C203.431,-27.752 203.33,-30.555 203.33,-31.815C203.33,-33.359 203.411,-34.426 203.573,-35.015C203.736,-35.604 204.041,-36.061 204.488,-36.386ZM217.409,-31.998C215.54,-32.892 213.386,-33.339 210.948,-33.339L207.169,-33.339L207.169,-14.689L210.034,-14.14C210.684,-14.059 211.151,-14.018 211.436,-14.018C213.224,-14.018 214.971,-14.556 216.677,-15.633C218.384,-16.71 219.745,-18.142 220.761,-19.93C221.939,-22.043 222.528,-23.892 222.528,-25.476C222.528,-28.199 220.822,-30.373 217.409,-31.998ZM239.35,-29.194C240.975,-29.885 242.174,-30.23 242.946,-30.23C243.677,-30.23 244.917,-29.885 246.664,-29.194C248.533,-28.422 249.833,-27.132 250.565,-25.324C251.296,-23.516 251.743,-20.499 251.905,-16.273C251.987,-13.591 252.027,-12.108 252.027,-11.824C252.027,-10.605 251.936,-9.843 251.753,-9.538C251.57,-9.234 251.194,-9.081 250.625,-9.081C249.975,-9.081 249.528,-9.284 249.285,-9.691C249.041,-10.097 248.838,-10.95 248.675,-12.251C248.431,-13.917 248.208,-14.749 248.005,-14.749C247.923,-14.749 247.68,-14.424 247.273,-13.774C246.664,-12.677 245.435,-11.682 243.586,-10.788C241.737,-9.894 240.02,-9.447 238.436,-9.447C236.851,-9.447 235.47,-10.097 234.291,-11.397C233.641,-12.088 233.204,-12.718 232.981,-13.287C232.757,-13.856 232.646,-14.648 232.646,-15.664C232.646,-15.989 232.686,-16.801 232.768,-18.102C233.215,-23.75 235.409,-27.447 239.35,-29.194ZM246.481,-24.867C245.628,-25.842 244.449,-26.33 242.946,-26.33C241.402,-26.33 240.122,-25.822 239.106,-24.806C238.294,-23.993 237.583,-22.713 236.973,-20.966C236.364,-19.219 236.059,-17.675 236.059,-16.334C236.059,-15.847 236.12,-15.42 236.242,-15.054C236.567,-13.998 237.522,-13.47 239.106,-13.47C240.163,-13.47 241.239,-13.774 242.336,-14.384C243.393,-14.912 244.551,-16.558 245.811,-19.321C246.786,-21.474 247.273,-22.815 247.273,-23.343C247.273,-23.831 247.009,-24.339 246.481,-24.867ZM265.192,-37.057C265.477,-37.341 266.086,-37.443 267.021,-37.361C267.833,-37.158 268.321,-35.817 268.483,-33.339C268.605,-31.632 268.788,-30.576 269.032,-30.169C269.276,-29.763 269.885,-29.499 270.86,-29.377C272.323,-29.215 273.054,-28.585 273.054,-27.488C273.054,-26.878 272.861,-26.441 272.475,-26.177C272.089,-25.913 271.368,-25.74 270.312,-25.659L267.569,-25.415L268.118,-19.382C268.402,-15.44 268.829,-12.941 269.398,-11.885C269.926,-10.869 270.596,-10.361 271.409,-10.361C272.221,-10.361 272.892,-10.869 273.42,-11.885C273.989,-12.941 274.639,-13.47 275.37,-13.47C276.224,-13.47 276.65,-12.86 276.65,-11.641C276.65,-10.341 276.082,-9.193 274.944,-8.198C273.806,-7.202 272.526,-6.704 271.104,-6.704C270.413,-6.704 269.784,-6.847 269.215,-7.131C267.752,-7.781 266.716,-8.868 266.106,-10.392C265.497,-11.915 265.009,-14.607 264.644,-18.467C264.115,-23.303 263.79,-25.781 263.668,-25.903C263.628,-25.903 263.475,-25.954 263.211,-26.055C262.947,-26.157 262.612,-26.289 262.206,-26.452C261.799,-26.614 261.393,-26.756 260.987,-26.878C259.402,-27.366 258.61,-27.975 258.61,-28.707C258.61,-29.479 259.625,-29.966 261.657,-30.169C263.079,-30.291 263.932,-30.515 264.217,-30.84C264.501,-31.165 264.644,-32.038 264.644,-33.461C264.644,-35.492 264.826,-36.691 265.192,-37.057ZM287.682,-29.072C289.185,-30.251 291.095,-30.84 293.411,-30.84C294.833,-30.84 296.012,-30.576 296.946,-30.048C298.084,-29.438 299.425,-27.559 300.969,-24.41C302.513,-21.261 303.285,-18.874 303.285,-17.248C303.285,-16.964 303.264,-16.761 303.224,-16.639C302.655,-14.445 301.426,-12.718 299.536,-11.458C297.647,-10.199 295.544,-9.569 293.228,-9.569C289.896,-9.569 287.255,-10.747 285.305,-13.104C283.883,-14.77 283.172,-16.862 283.172,-19.382C283.172,-21.251 283.568,-23.059 284.36,-24.806C285.153,-26.553 286.26,-27.975 287.682,-29.072ZM294.813,-24.318C293.594,-24.887 292.314,-25.172 290.973,-25.172C289.145,-25.172 288.068,-24.745 287.743,-23.892C287.418,-22.917 287.255,-21.433 287.255,-19.443C287.255,-17.492 287.804,-15.928 288.901,-14.749C289.998,-13.571 291.339,-12.982 292.924,-12.982C294.468,-12.982 295.951,-13.551 297.373,-14.689C298.673,-15.745 299.323,-16.964 299.323,-18.345C299.323,-19.443 298.927,-20.529 298.135,-21.606C297.342,-22.683 296.235,-23.587 294.813,-24.318ZM314.743,-31.998C315.353,-32.282 316.145,-32.424 317.12,-32.424C319.152,-32.424 321.214,-31.886 323.306,-30.809C325.399,-29.733 326.445,-28.605 326.445,-27.427C326.445,-26.33 325.917,-25.781 324.86,-25.781C324.007,-25.781 323.052,-26.187 321.996,-27C320.614,-28.097 319.131,-28.646 317.547,-28.646C316.693,-28.646 315.982,-28.443 315.413,-28.036C314.845,-27.63 314.56,-27.081 314.56,-26.391C314.56,-26.147 314.581,-25.964 314.621,-25.842C314.784,-24.867 315.901,-24.095 317.973,-23.526C319.924,-22.957 321.407,-22.043 322.423,-20.783C323.438,-19.524 323.946,-18.142 323.946,-16.639C323.946,-14.729 323.174,-13.053 321.63,-11.611C320.086,-10.168 318.014,-9.447 315.413,-9.447C314.113,-9.447 312.823,-9.965 311.543,-11.001C310.263,-12.037 309.623,-13.124 309.623,-14.262C309.623,-14.79 309.796,-15.196 310.141,-15.481C310.487,-15.765 310.883,-15.908 311.33,-15.908C312.265,-15.908 312.874,-15.501 313.158,-14.689C313.443,-13.917 314.418,-13.531 316.084,-13.531C317.465,-13.531 318.461,-13.835 319.07,-14.445C319.721,-15.095 320.046,-16.029 320.046,-17.248C320.046,-17.98 319.832,-18.518 319.406,-18.863C318.979,-19.209 318.075,-19.585 316.693,-19.991C314.337,-20.56 312.732,-21.251 311.878,-22.063C310.944,-22.876 310.477,-24.014 310.477,-25.476C310.477,-26.817 310.873,-28.107 311.665,-29.347C312.458,-30.586 313.483,-31.47 314.743,-31.998ZM138.755,6.996C139.08,6.59 139.771,6.387 140.827,6.387C141.233,6.387 141.477,6.468 141.558,6.63C141.558,6.671 141.579,7.321 141.619,8.581C141.66,9.84 141.721,11.699 141.802,14.157C141.884,16.616 141.965,19.003 142.046,21.319C142.168,25.341 142.229,28.348 142.229,30.339C142.229,32.533 142.148,34.016 141.985,34.788C141.823,35.56 141.538,36.028 141.132,36.19C140.807,36.272 140.502,36.312 140.218,36.312C139.567,36.312 139.08,36.17 138.755,35.885C138.47,35.642 138.145,35.52 137.78,35.52C137.414,35.52 136.906,35.743 136.256,36.19C135.2,36.962 133.838,37.348 132.172,37.348C129.856,37.348 128.048,36.637 126.748,35.215C125.895,34.321 125.356,33.407 125.133,32.472C124.909,31.538 124.798,29.77 124.798,27.17C124.798,23.716 125.255,21.126 126.169,19.399C127.083,17.672 128.637,16.504 130.832,15.894C131.563,15.651 132.172,15.529 132.66,15.529C133.513,15.529 134.549,15.996 135.768,16.931L138.206,18.698L138.206,13.091C138.206,9.312 138.389,7.28 138.755,6.996ZM134.732,20.648C133.635,19.917 132.762,19.551 132.111,19.551C131.461,19.551 130.73,19.978 129.917,20.831C128.739,22.172 128.15,24.305 128.15,27.231C128.15,28.815 128.363,30.238 128.79,31.497C129.216,32.757 129.816,33.529 130.588,33.813C130.913,33.895 131.177,33.935 131.38,33.935C132.315,33.935 133.361,33.529 134.519,32.716C135.677,31.904 136.52,30.928 137.048,29.791C137.495,28.897 137.719,27.922 137.719,26.865C137.719,24.143 136.723,22.071 134.732,20.648ZM151.31,19.429C153.504,17.276 155.475,16.199 157.222,16.199C158.319,16.199 159.518,16.626 160.818,17.479C162.24,18.373 162.951,20.019 162.951,22.416C162.951,23.472 162.768,24.508 162.403,25.524C162.078,26.296 161.153,27.099 159.63,27.932C158.106,28.765 156.755,29.181 155.577,29.181C154.764,29.181 154.358,29.323 154.358,29.608C154.358,29.811 154.52,30.238 154.845,30.888C155.13,31.416 155.384,31.771 155.607,31.954C155.831,32.137 156.206,32.229 156.735,32.229C157.507,32.229 159.355,31.863 162.281,31.132C162.85,31.01 163.276,30.949 163.561,30.949C164.17,30.949 164.475,31.416 164.475,32.35C164.475,34.016 162.281,35.317 157.893,36.251C157.771,36.292 157.568,36.312 157.283,36.312C155.78,36.312 154.297,35.601 152.834,34.179C151.371,32.757 150.518,31.152 150.274,29.364C149.868,27.251 149.4,25.646 148.872,24.549C148.628,24.062 148.507,23.635 148.507,23.269C148.507,22.578 149.441,21.299 151.31,19.429ZM156.064,24.976C156.186,25.016 156.349,25.037 156.552,25.037C157.283,25.037 157.943,24.762 158.533,24.214C159.122,23.665 159.416,23.025 159.416,22.294C159.416,21.969 159.315,21.563 159.112,21.075C158.746,20.303 158.38,19.917 158.015,19.917C157.689,19.917 157.141,20.12 156.369,20.527C155.028,21.217 154.358,22.131 154.358,23.269C154.358,24.285 154.926,24.854 156.064,24.976ZM171.301,15.163C171.708,14.35 172.155,13.944 172.642,13.944C173.495,13.944 174.085,15.204 174.41,17.723L174.775,21.258L176.665,18.698C177.924,16.951 179.529,16.077 181.48,16.077C183.024,16.077 184.324,16.666 185.38,17.845L186.843,19.429L189.037,17.418C190.541,15.955 191.942,15.224 193.243,15.224C194.746,15.224 195.945,16.199 196.839,18.15C197.732,20.1 198.179,22.843 198.179,26.378C198.179,31.457 197.468,33.996 196.046,33.996C195.802,33.996 195.518,33.935 195.193,33.813C194.583,33.529 194.279,32.676 194.279,31.253C194.279,30.075 194.319,29.059 194.401,28.206C194.482,26.987 194.523,26.073 194.523,25.463C194.523,23.391 194.319,21.786 193.913,20.648L192.938,18.21L191.597,20.161C190.744,21.258 189.85,23.696 188.915,27.475C188.387,29.669 187.95,31.111 187.605,31.802C187.26,32.493 186.762,32.838 186.112,32.838C185.462,32.838 185.004,32.493 184.74,31.802C184.476,31.111 184.202,29.567 183.918,27.17C183.308,22.335 182.455,19.917 181.358,19.917C181.073,19.917 180.728,20.08 180.322,20.405C178.615,21.827 177.173,24.976 175.994,29.852C175.222,33.143 174.43,34.788 173.617,34.788C173.292,34.788 172.927,34.585 172.52,34.179C172.114,33.773 171.738,31.954 171.393,28.724C171.047,25.494 170.875,22.457 170.875,19.612C170.875,17.174 171.017,15.691 171.301,15.163ZM209.028,16.382C210.532,15.204 212.441,14.615 214.757,14.615C216.18,14.615 217.358,14.879 218.292,15.407C219.43,16.016 220.771,17.896 222.315,21.045C223.859,24.194 224.631,26.581 224.631,28.206C224.631,28.49 224.611,28.694 224.57,28.815C224.001,31.01 222.772,32.737 220.883,33.996C218.993,35.256 216.891,35.885 214.575,35.885C211.243,35.885 208.602,34.707 206.651,32.35C205.229,30.685 204.518,28.592 204.518,26.073C204.518,24.204 204.914,22.396 205.707,20.648C206.499,18.901 207.606,17.479 209.028,16.382ZM216.159,21.136C214.94,20.567 213.66,20.283 212.319,20.283C210.491,20.283 209.414,20.709 209.089,21.563C208.764,22.538 208.602,24.021 208.602,26.012C208.602,27.962 209.15,29.527 210.247,30.705C211.344,31.883 212.685,32.472 214.27,32.472C215.814,32.472 217.297,31.904 218.719,30.766C220.019,29.709 220.669,28.49 220.669,27.109C220.669,26.012 220.273,24.925 219.481,23.848C218.689,22.771 217.581,21.867 216.159,21.136ZM232.615,19.064C233.712,16.951 235.155,15.407 236.943,14.432C238.73,13.457 239.97,12.969 240.66,12.969C241.514,12.969 242.59,13.284 243.891,13.914C245.191,14.543 246.308,15.285 247.243,16.138C248.055,16.951 248.553,17.875 248.736,18.911C248.919,19.948 249.01,22.375 249.01,26.195C248.97,31.396 248.523,35.408 247.669,38.232C246.816,41.056 245.394,43.118 243.403,44.418C241.697,45.597 239.848,46.186 237.857,46.186C236.069,46.186 234.627,45.718 233.529,44.784C232.595,44.012 232.128,43.138 232.128,42.163C232.128,41.269 232.534,40.822 233.347,40.822C233.469,40.822 233.773,40.904 234.261,41.066C235.358,41.554 236.516,41.797 237.735,41.797C239.97,41.797 241.615,41.086 242.672,39.664C243.241,38.933 243.789,37.653 244.317,35.825C244.846,33.996 245.11,32.594 245.11,31.619C245.11,31.091 245.008,30.827 244.805,30.827C244.399,30.827 243.281,31.233 241.453,32.046C239.543,32.818 238.08,33.204 237.064,33.204C235.724,33.204 234.423,32.554 233.164,31.253C231.742,29.831 231.031,27.881 231.031,25.402C231.031,23.249 231.559,21.136 232.615,19.064ZM243.769,18.393C242.915,17.54 242.001,17.113 241.026,17.113C239.766,17.113 238.487,17.764 237.186,19.064C236.455,19.795 235.957,20.455 235.693,21.045C235.429,21.634 235.297,22.436 235.297,23.452C235.297,24.062 235.317,24.569 235.358,24.976C235.48,26.682 235.673,27.759 235.937,28.206C236.201,28.653 236.8,28.937 237.735,29.059L238.222,29.059C239.888,29.059 241.412,28.216 242.794,26.53C244.175,24.844 244.866,23.107 244.866,21.319C244.866,20.1 244.5,19.125 243.769,18.393ZM255.166,23.818C255.166,19.917 255.247,17.54 255.41,16.687C255.572,15.834 256.04,15.407 256.812,15.407C257.462,15.407 257.888,15.58 258.092,15.925C258.295,16.27 258.396,16.931 258.396,17.906C258.396,19.247 258.539,19.917 258.823,19.917C259.026,19.917 259.493,19.653 260.225,19.125C261.444,18.271 263.11,17.845 265.223,17.845C266.767,17.845 268.047,18.109 269.062,18.637C270.119,19.247 270.647,20.201 270.647,21.502C270.647,22.843 270.098,23.513 269.001,23.513C267.904,23.513 267.356,23.249 267.356,22.721C267.356,22.152 266.543,21.867 264.918,21.867C263.374,21.867 262.195,22.497 261.383,23.757C260.57,25.016 259.981,27.15 259.615,30.156C259.412,32.066 259.179,33.336 258.914,33.966C258.65,34.595 258.214,34.91 257.604,34.91C256.548,34.91 255.877,34.26 255.593,32.96C255.308,31.66 255.166,28.612 255.166,23.818ZM283.69,16.26C285.315,15.569 286.514,15.224 287.286,15.224C288.017,15.224 289.257,15.569 291.004,16.26C292.873,17.032 294.173,18.322 294.904,20.13C295.636,21.938 296.083,24.955 296.245,29.181C296.327,31.863 296.367,33.346 296.367,33.63C296.367,34.849 296.276,35.611 296.093,35.916C295.91,36.221 295.534,36.373 294.965,36.373C294.315,36.373 293.868,36.17 293.624,35.764C293.381,35.357 293.178,34.504 293.015,33.204C292.771,31.538 292.548,30.705 292.345,30.705C292.263,30.705 292.02,31.03 291.613,31.68C291.004,32.777 289.775,33.773 287.926,34.667C286.077,35.56 284.36,36.007 282.776,36.007C281.191,36.007 279.81,35.357 278.631,34.057C277.981,33.366 277.544,32.737 277.321,32.168C277.097,31.599 276.986,30.806 276.986,29.791C276.986,29.466 277.026,28.653 277.107,27.353C277.554,21.705 279.749,18.007 283.69,16.26ZM290.821,20.587C289.968,19.612 288.789,19.125 287.286,19.125C285.742,19.125 284.462,19.633 283.446,20.648C282.633,21.461 281.922,22.741 281.313,24.488C280.703,26.235 280.399,27.779 280.399,29.12C280.399,29.608 280.46,30.034 280.582,30.4C280.907,31.457 281.861,31.985 283.446,31.985C284.503,31.985 285.579,31.68 286.676,31.071C287.733,30.542 288.891,28.897 290.15,26.134C291.126,23.98 291.613,22.639 291.613,22.111C291.613,21.624 291.349,21.116 290.821,20.587ZM310.141,6.204C311.279,4.741 312.62,4.01 314.164,4.01C315.586,4.01 316.866,4.517 318.004,5.533C319.142,6.549 319.71,7.565 319.71,8.581C319.71,9.434 319.304,10.003 318.491,10.287C318.369,10.328 318.187,10.348 317.943,10.348L315.749,8.885C315.058,8.032 314.469,7.605 313.981,7.605C313.128,7.605 312.356,8.784 311.665,11.14C311.178,13.01 310.934,14.168 310.934,14.615C310.934,15.265 311.167,15.701 311.635,15.925C312.102,16.148 313.006,16.301 314.347,16.382C315.728,16.463 316.643,16.626 317.09,16.87C317.537,17.113 317.76,17.56 317.76,18.21C317.76,18.861 317.516,19.318 317.029,19.582C316.541,19.846 315.586,20.019 314.164,20.1L310.69,20.344L311.239,28.328C311.442,31.172 311.543,33.041 311.543,33.935C311.543,35.113 311.432,35.967 311.208,36.495C310.985,37.023 310.507,37.734 309.776,38.628C308.679,39.847 307.866,40.457 307.338,40.457C307.013,40.457 306.647,40.335 306.241,40.091C305.266,39.481 304.778,38.527 304.778,37.226C304.778,36.007 305.225,35.398 306.119,35.398L306.485,35.398C306.972,35.398 307.277,34.961 307.399,34.088C307.521,33.214 307.582,31.253 307.582,28.206L307.582,21.014L305.083,20.1C303.62,19.612 302.889,18.942 302.889,18.089C302.889,17.195 303.64,16.565 305.144,16.199C306.485,15.915 307.257,15.102 307.46,13.761C307.663,11.811 307.947,10.328 308.313,9.312C308.679,8.296 309.288,7.26 310.141,6.204ZM326.78,6.874C327.39,6.102 328.182,5.716 329.157,5.716C329.198,5.716 329.259,5.726 329.34,5.747C329.421,5.767 329.482,5.777 329.523,5.777C330.173,5.858 330.62,6.092 330.864,6.478C331.108,6.864 331.23,7.524 331.23,8.459C331.23,9.475 331.108,10.135 330.864,10.44C330.62,10.744 330.092,10.897 329.279,10.897C328.385,10.897 327.644,10.643 327.055,10.135C326.465,9.627 326.171,9.048 326.171,8.398C326.171,7.829 326.374,7.321 326.78,6.874ZM327.146,15.529C327.349,14.96 327.837,14.675 328.609,14.675C328.649,14.675 328.71,14.686 328.792,14.706C328.873,14.726 328.934,14.736 328.974,14.736C329.625,14.858 330.031,15.437 330.193,16.473C330.356,17.51 330.437,19.998 330.437,23.94C330.437,28.084 330.356,30.603 330.193,31.497C330.031,32.391 329.564,32.838 328.792,32.838C328.06,32.838 327.593,32.411 327.39,31.558C327.187,30.705 327.024,28.45 326.902,24.793L326.902,21.745C326.902,18.048 326.984,15.976 327.146,15.529ZM342.688,16.992C344.313,15.935 346.02,15.407 347.808,15.407C349.839,15.407 351.627,16.138 353.171,17.601C354.674,19.104 355.426,20.262 355.426,21.075C355.426,21.644 355.04,22.071 354.268,22.355C354.187,22.396 354.045,22.416 353.841,22.416C352.988,22.416 352.074,21.888 351.099,20.831C350.042,19.734 348.925,19.186 347.747,19.186C346.162,19.186 344.537,20.141 342.871,22.05C341.57,23.513 340.92,24.834 340.92,26.012C340.92,26.906 341.327,27.922 342.139,29.059C342.952,30.238 344.191,30.827 345.857,30.827C347.117,30.827 348.315,30.42 349.453,29.608C350.469,28.836 351.403,28.45 352.257,28.45C353.313,28.45 353.841,28.978 353.841,30.034C353.841,31.253 353.019,32.3 351.373,33.173C349.727,34.047 347.767,34.484 345.491,34.484C343.785,34.484 342.566,34.352 341.835,34.088C341.103,33.823 340.331,33.204 339.519,32.229C338.218,30.685 337.568,28.775 337.568,26.499C337.568,24.63 338.025,22.822 338.94,21.075C339.854,19.328 341.103,17.967 342.688,16.992ZM366.336,16.382C367.839,15.204 369.749,14.615 372.065,14.615C373.487,14.615 374.665,14.879 375.6,15.407C376.738,16.016 378.079,17.896 379.623,21.045C381.167,24.194 381.939,26.581 381.939,28.206C381.939,28.49 381.918,28.694 381.878,28.815C381.309,31.01 380.08,32.737 378.19,33.996C376.301,35.256 374.198,35.885 371.882,35.885C368.55,35.885 365.909,34.707 363.959,32.35C362.537,30.685 361.826,28.592 361.826,26.073C361.826,24.204 362.222,22.396 363.014,20.648C363.806,18.901 364.914,17.479 366.336,16.382ZM373.467,21.136C372.248,20.567 370.968,20.283 369.627,20.283C367.799,20.283 366.722,20.709 366.397,21.563C366.072,22.538 365.909,24.021 365.909,26.012C365.909,27.962 366.458,29.527 367.555,30.705C368.652,31.883 369.993,32.472 371.577,32.472C373.121,32.472 374.604,31.904 376.027,30.766C377.327,29.709 377.977,28.49 377.977,27.109C377.977,26.012 377.581,24.925 376.788,23.848C375.996,22.771 374.889,21.867 373.467,21.136ZM393.397,13.457C394.006,13.172 394.799,13.03 395.774,13.03C397.805,13.03 399.868,13.568 401.96,14.645C404.053,15.722 405.099,16.849 405.099,18.028C405.099,19.125 404.571,19.673 403.514,19.673C402.661,19.673 401.706,19.267 400.65,18.454C399.268,17.357 397.785,16.809 396.2,16.809C395.347,16.809 394.636,17.012 394.067,17.418C393.498,17.824 393.214,18.373 393.214,19.064C393.214,19.308 393.234,19.49 393.275,19.612C393.437,20.587 394.555,21.359 396.627,21.928C398.577,22.497 400.061,23.411 401.076,24.671C402.092,25.931 402.6,27.312 402.6,28.815C402.6,30.725 401.828,32.401 400.284,33.844C398.74,35.286 396.668,36.007 394.067,36.007C392.767,36.007 391.477,35.489 390.197,34.453C388.917,33.417 388.277,32.33 388.277,31.192C388.277,30.664 388.45,30.258 388.795,29.974C389.141,29.689 389.537,29.547 389.984,29.547C390.918,29.547 391.528,29.953 391.812,30.766C392.097,31.538 393.072,31.924 394.738,31.924C396.119,31.924 397.115,31.619 397.724,31.01C398.374,30.36 398.699,29.425 398.699,28.206C398.699,27.475 398.486,26.936 398.059,26.591C397.633,26.246 396.729,25.87 395.347,25.463C392.991,24.894 391.386,24.204 390.532,23.391C389.598,22.578 389.13,21.441 389.13,19.978C389.13,18.637 389.527,17.347 390.319,16.108C391.111,14.868 392.137,13.985 393.397,13.457ZM110.953,507.692C112.345,506.3 113.335,505.402 113.921,504.999C114.507,504.596 115.184,504.395 115.954,504.395C116.467,504.395 117.108,504.45 117.877,504.56C119.415,504.706 120.798,505.155 122.025,505.906C123.252,506.657 123.866,507.38 123.866,508.076C123.866,508.333 123.756,508.571 123.536,508.791C123.243,509.084 122.859,509.23 122.382,509.23C121.906,509.23 121.192,509.065 120.24,508.736C119.141,508.369 118.042,508.186 116.943,508.186C116.613,508.186 116.228,508.223 115.789,508.296C114.47,508.626 113.17,509.789 111.888,511.785C110.605,513.782 109.855,515.824 109.635,517.912C109.525,518.681 109.47,519.304 109.47,519.78C109.47,520.476 109.626,521.071 109.937,521.566C110.248,522.06 110.88,522.784 111.833,523.736C113.518,525.421 115.148,526.264 116.723,526.264C117.858,526.264 119.104,525.861 120.459,525.055C121.412,524.469 122.071,524.176 122.437,524.176C122.73,524.176 123.024,524.396 123.317,524.835C123.463,525.092 123.536,525.348 123.536,525.604C123.536,526.154 123.097,526.813 122.218,527.582C120.642,529.011 118.811,529.725 116.723,529.725C114.855,529.725 113.069,529.148 111.366,527.995C109.662,526.841 108.298,525.238 107.272,523.187C106.356,521.245 105.898,519.835 105.898,518.956C105.898,518.406 106.082,517.252 106.448,515.494C106.814,513.809 107.29,512.454 107.876,511.428C108.463,510.402 109.488,509.157 110.953,507.692ZM133.811,511.098C135.167,510.036 136.888,509.505 138.976,509.505C140.259,509.505 141.321,509.743 142.163,510.219C143.189,510.769 144.398,512.463 145.79,515.302C147.182,518.141 147.878,520.293 147.878,521.758C147.878,522.015 147.86,522.198 147.823,522.308C147.31,524.286 146.202,525.842 144.499,526.978C142.795,528.114 140.9,528.681 138.812,528.681C135.808,528.681 133.427,527.619 131.668,525.494C130.386,523.993 129.745,522.106 129.745,519.835C129.745,518.15 130.103,516.52 130.817,514.945C131.531,513.37 132.529,512.087 133.811,511.098ZM140.24,515.384C139.141,514.871 137.987,514.615 136.779,514.615C135.13,514.615 134.159,515 133.866,515.769C133.573,516.648 133.427,517.985 133.427,519.78C133.427,521.538 133.921,522.949 134.91,524.011C135.899,525.073 137.108,525.604 138.537,525.604C139.929,525.604 141.266,525.092 142.548,524.066C143.72,523.113 144.306,522.015 144.306,520.769C144.306,519.78 143.949,518.8 143.235,517.829C142.521,516.859 141.522,516.044 140.24,515.384ZM153.592,515.494L153.592,513.956C153.592,512.307 153.675,511.272 153.84,510.851C154.004,510.43 154.362,510.219 154.911,510.219C155.314,510.219 155.708,510.357 156.092,510.631C156.477,510.906 156.724,511.245 156.834,511.648C157.054,512.38 157.292,512.747 157.549,512.747C157.805,512.747 158.245,512.509 158.867,512.032C159.783,511.373 160.809,511.043 161.944,511.043C163.959,511.043 165.745,512.087 167.302,514.175C168.858,516.263 169.637,518.791 169.637,521.758C169.637,525.788 168.886,527.802 167.384,527.802C166.761,527.802 166.377,527.555 166.23,527.06C166.084,526.566 166.01,525.348 166.01,523.407C166.01,520.879 165.662,518.782 164.966,517.115C164.27,515.448 163.41,514.615 162.384,514.615C161.322,514.615 160.516,515.137 159.966,516.181C159.417,517.225 158.904,519.194 158.428,522.088C158.025,524.359 157.686,525.815 157.411,526.456C157.136,527.097 156.706,527.418 156.12,527.418C154.471,527.418 153.629,523.443 153.592,515.494ZM180.022,511.648C181.487,510.695 183.026,510.219 184.637,510.219C186.469,510.219 188.081,510.879 189.473,512.197C190.828,513.553 191.506,514.597 191.506,515.329C191.506,515.842 191.158,516.227 190.462,516.483C190.388,516.52 190.26,516.538 190.077,516.538C189.308,516.538 188.484,516.062 187.605,515.11C186.652,514.12 185.645,513.626 184.582,513.626C183.154,513.626 181.689,514.487 180.187,516.208C179.014,517.527 178.428,518.718 178.428,519.78C178.428,520.586 178.795,521.502 179.527,522.527C180.26,523.59 181.377,524.121 182.879,524.121C184.015,524.121 185.095,523.754 186.121,523.022C187.037,522.326 187.879,521.978 188.649,521.978C189.601,521.978 190.077,522.454 190.077,523.407C190.077,524.505 189.335,525.449 187.852,526.236C186.368,527.024 184.601,527.418 182.549,527.418C181.011,527.418 179.912,527.299 179.253,527.06C178.593,526.822 177.897,526.264 177.165,525.385C175.992,523.993 175.406,522.271 175.406,520.22C175.406,518.535 175.818,516.904 176.643,515.329C177.467,513.754 178.593,512.527 180.022,511.648ZM197.275,525.11C197.165,523.791 197.11,519.927 197.11,513.516C197.11,507.106 197.174,503.241 197.303,501.922C197.431,500.604 197.825,499.944 198.484,499.944C199.033,499.944 199.427,500.228 199.665,500.796C199.903,501.364 200.132,502.563 200.352,504.395C200.645,507.692 200.792,510.732 200.792,513.516C200.792,516.263 200.645,519.285 200.352,522.582C200.132,524.414 199.903,525.614 199.665,526.181C199.427,526.749 199.033,527.033 198.484,527.033C197.825,527.033 197.422,526.392 197.275,525.11ZM206.506,511.593C206.763,510.018 207.367,509.23 208.32,509.23C208.942,509.23 209.345,509.468 209.528,509.944C209.712,510.421 209.803,511.52 209.803,513.241C209.803,516.978 210.261,520.119 211.177,522.665C212.093,525.211 213.191,526.484 214.474,526.484C214.73,526.484 214.968,526.429 215.188,526.319C216.14,525.952 216.928,524.78 217.551,522.802C218.173,520.824 218.485,518.48 218.485,515.769C218.485,513.718 218.558,512.326 218.704,511.593C218.851,510.86 219.162,510.402 219.639,510.219C219.785,510.146 220.005,510.109 220.298,510.109C221.47,510.109 222.056,511.941 222.056,515.604C222.056,519.78 221.314,523.242 219.831,525.989C218.347,528.736 216.543,530.11 214.419,530.11C213.356,530.11 212.349,529.762 211.397,529.066C210.371,528.333 209.473,527.289 208.704,525.934C208.118,524.798 207.578,522.903 207.083,520.247C206.589,517.591 206.341,515.311 206.341,513.406C206.341,512.71 206.396,512.106 206.506,511.593ZM232.331,508.461C232.881,508.205 233.595,508.076 234.474,508.076C236.306,508.076 238.165,508.562 240.051,509.532C241.938,510.503 242.881,511.52 242.881,512.582C242.881,513.571 242.405,514.066 241.453,514.066C240.683,514.066 239.822,513.699 238.87,512.967C237.625,511.978 236.288,511.483 234.859,511.483C234.09,511.483 233.449,511.666 232.936,512.032C232.423,512.399 232.167,512.893 232.167,513.516C232.167,513.736 232.185,513.901 232.221,514.011C232.368,514.89 233.375,515.586 235.244,516.099C237.002,516.611 238.339,517.436 239.255,518.571C240.17,519.707 240.628,520.952 240.628,522.308C240.628,524.029 239.932,525.54 238.54,526.841C237.148,528.141 235.28,528.791 232.936,528.791C231.764,528.791 230.601,528.324 229.447,527.39C228.293,526.456 227.716,525.476 227.716,524.45C227.716,523.974 227.871,523.608 228.183,523.352C228.494,523.095 228.851,522.967 229.254,522.967C230.097,522.967 230.646,523.333 230.903,524.066C231.159,524.762 232.038,525.11 233.54,525.11C234.786,525.11 235.683,524.835 236.233,524.286C236.819,523.7 237.112,522.857 237.112,521.758C237.112,521.099 236.919,520.613 236.535,520.302C236.15,519.991 235.335,519.652 234.09,519.285C231.965,518.773 230.518,518.15 229.749,517.417C228.906,516.685 228.485,515.659 228.485,514.34C228.485,513.131 228.842,511.968 229.557,510.851C230.271,509.734 231.196,508.937 232.331,508.461ZM249.145,502.527C249.695,501.831 250.409,501.483 251.288,501.483C251.325,501.483 251.38,501.492 251.453,501.51C251.526,501.528 251.581,501.538 251.618,501.538C252.204,501.611 252.607,501.822 252.827,502.169C253.046,502.517 253.156,503.113 253.156,503.955C253.156,504.871 253.046,505.466 252.827,505.741C252.607,506.016 252.131,506.153 251.398,506.153C250.592,506.153 249.924,505.924 249.392,505.466C248.861,505.008 248.596,504.486 248.596,503.9C248.596,503.387 248.779,502.93 249.145,502.527ZM249.475,510.329C249.658,509.816 250.098,509.56 250.794,509.56C250.83,509.56 250.885,509.569 250.958,509.587C251.032,509.606 251.087,509.615 251.123,509.615C251.709,509.725 252.076,510.247 252.222,511.181C252.369,512.115 252.442,514.359 252.442,517.912C252.442,521.648 252.369,523.919 252.222,524.725C252.076,525.531 251.654,525.934 250.958,525.934C250.299,525.934 249.878,525.549 249.695,524.78C249.511,524.011 249.365,521.978 249.255,518.681L249.255,515.934C249.255,512.6 249.328,510.732 249.475,510.329ZM262.882,511.098C264.237,510.036 265.959,509.505 268.047,509.505C269.329,509.505 270.391,509.743 271.234,510.219C272.259,510.769 273.468,512.463 274.86,515.302C276.252,518.141 276.948,520.293 276.948,521.758C276.948,522.015 276.93,522.198 276.893,522.308C276.38,524.286 275.272,525.842 273.569,526.978C271.866,528.114 269.97,528.681 267.882,528.681C264.878,528.681 262.497,527.619 260.739,525.494C259.457,523.993 258.816,522.106 258.816,519.835C258.816,518.15 259.173,516.52 259.887,514.945C260.602,513.37 261.6,512.087 262.882,511.098ZM269.311,515.384C268.212,514.871 267.058,514.615 265.849,514.615C264.201,514.615 263.23,515 262.937,515.769C262.644,516.648 262.497,517.985 262.497,519.78C262.497,521.538 262.992,522.949 263.981,524.011C264.97,525.073 266.179,525.604 267.607,525.604C268.999,525.604 270.336,525.092 271.618,524.066C272.791,523.113 273.377,522.015 273.377,520.769C273.377,519.78 273.02,518.8 272.305,517.829C271.591,516.859 270.593,516.044 269.311,515.384ZM282.663,515.494L282.663,513.956C282.663,512.307 282.745,511.272 282.91,510.851C283.075,510.43 283.432,510.219 283.981,510.219C284.384,510.219 284.778,510.357 285.163,510.631C285.547,510.906 285.795,511.245 285.905,511.648C286.124,512.38 286.363,512.747 286.619,512.747C286.875,512.747 287.315,512.509 287.938,512.032C288.853,511.373 289.879,511.043 291.015,511.043C293.029,511.043 294.815,512.087 296.372,514.175C297.929,516.263 298.707,518.791 298.707,521.758C298.707,525.788 297.956,527.802 296.454,527.802C295.832,527.802 295.447,527.555 295.301,527.06C295.154,526.566 295.081,525.348 295.081,523.407C295.081,520.879 294.733,518.782 294.037,517.115C293.341,515.448 292.48,514.615 291.454,514.615C290.392,514.615 289.586,515.137 289.037,516.181C288.487,517.225 287.974,519.194 287.498,522.088C287.095,524.359 286.756,525.815 286.482,526.456C286.207,527.097 285.776,527.418 285.19,527.418C283.542,527.418 282.699,523.443 282.663,515.494ZM307.004,513.846C308.982,511.904 310.759,510.934 312.334,510.934C313.323,510.934 314.404,511.318 315.576,512.087C316.858,512.893 317.499,514.377 317.499,516.538C317.499,517.491 317.334,518.425 317.005,519.34C316.712,520.036 315.878,520.76 314.505,521.511C313.131,522.262 311.913,522.637 310.851,522.637C310.118,522.637 309.752,522.765 309.752,523.022C309.752,523.205 309.898,523.59 310.191,524.176C310.448,524.652 310.677,524.972 310.878,525.137C311.08,525.302 311.418,525.385 311.895,525.385C312.591,525.385 314.257,525.055 316.895,524.396C317.408,524.286 317.792,524.231 318.049,524.231C318.598,524.231 318.873,524.652 318.873,525.494C318.873,526.996 316.895,528.169 312.939,529.011C312.829,529.048 312.645,529.066 312.389,529.066C311.034,529.066 309.697,528.425 308.378,527.143C307.059,525.861 306.29,524.414 306.07,522.802C305.704,520.897 305.283,519.45 304.806,518.461C304.587,518.022 304.477,517.637 304.477,517.307C304.477,516.685 305.319,515.531 307.004,513.846ZM311.29,518.846C311.4,518.883 311.547,518.901 311.73,518.901C312.389,518.901 312.984,518.654 313.515,518.159C314.047,517.665 314.312,517.088 314.312,516.428C314.312,516.135 314.221,515.769 314.037,515.329C313.708,514.633 313.378,514.285 313.048,514.285C312.755,514.285 312.261,514.468 311.565,514.835C310.356,515.458 309.752,516.282 309.752,517.307C309.752,518.223 310.264,518.736 311.29,518.846ZM329.313,508.461C329.862,508.205 330.577,508.076 331.456,508.076C333.287,508.076 335.146,508.562 337.033,509.532C338.919,510.503 339.863,511.52 339.863,512.582C339.863,513.571 339.386,514.066 338.434,514.066C337.665,514.066 336.804,513.699 335.851,512.967C334.606,511.978 333.269,511.483 331.84,511.483C331.071,511.483 330.43,511.666 329.917,512.032C329.404,512.399 329.148,512.893 329.148,513.516C329.148,513.736 329.166,513.901 329.203,514.011C329.349,514.89 330.357,515.586 332.225,516.099C333.983,516.611 335.32,517.436 336.236,518.571C337.152,519.707 337.61,520.952 337.61,522.308C337.61,524.029 336.914,525.54 335.522,526.841C334.13,528.141 332.262,528.791 329.917,528.791C328.745,528.791 327.582,528.324 326.428,527.39C325.274,526.456 324.697,525.476 324.697,524.45C324.697,523.974 324.853,523.608 325.164,523.352C325.476,523.095 325.833,522.967 326.236,522.967C327.078,522.967 327.628,523.333 327.884,524.066C328.141,524.762 329.02,525.11 330.522,525.11C331.767,525.11 332.665,524.835 333.214,524.286C333.8,523.7 334.093,522.857 334.093,521.758C334.093,521.099 333.901,520.613 333.516,520.302C333.132,519.991 332.317,519.652 331.071,519.285C328.946,518.773 327.499,518.15 326.73,517.417C325.888,516.685 325.466,515.659 325.466,514.34C325.466,513.131 325.824,511.968 326.538,510.851C327.252,509.734 328.177,508.937 329.313,508.461ZM346.291,510.494C346.841,509.871 347.519,509.56 348.324,509.56C348.361,509.56 348.425,509.569 348.517,509.587C348.608,509.606 348.672,509.615 348.709,509.615C349.295,509.688 349.698,509.899 349.918,510.247C350.138,510.595 350.248,511.19 350.248,512.032C350.248,513.022 350.128,513.635 349.89,513.873C349.652,514.111 349.039,514.23 348.05,514.23C347.28,514.23 346.667,514.056 346.209,513.708C345.751,513.36 345.522,512.912 345.522,512.362C345.522,511.813 345.779,511.19 346.291,510.494ZM345.797,525.879C346.053,525.183 346.786,524.835 347.995,524.835C348.691,524.835 349.213,524.982 349.561,525.275C349.909,525.568 350.174,526.062 350.357,526.758C350.467,527.125 350.522,527.509 350.522,527.912C350.522,529.231 349.808,529.89 348.379,529.89C348.05,529.89 347.793,529.872 347.61,529.835C346.951,529.762 346.438,529.487 346.072,529.011C345.705,528.535 345.522,527.967 345.522,527.308C345.522,526.905 345.614,526.429 345.797,525.879ZM159.138,282.188C159.91,280.725 161.027,279.994 162.49,279.994C163.912,279.994 165.233,280.664 166.452,282.005C167.63,283.265 168.849,285.987 170.109,290.172C171.084,293.585 171.775,295.292 172.181,295.292C172.303,295.292 172.425,295.15 172.547,294.865C173.4,292.468 174.629,289.664 176.234,286.455C177.839,283.245 178.926,281.396 179.495,280.908C180.145,280.38 180.856,280.116 181.628,280.116C182.44,280.116 183.212,280.4 183.944,280.969C184.675,281.538 185.224,282.31 185.589,283.285C186.199,285.114 186.504,289.644 186.504,296.877C186.504,301.143 186.422,304.079 186.26,305.684C186.097,307.289 185.793,308.172 185.346,308.335C185.061,308.457 184.797,308.518 184.553,308.518C184.025,308.518 183.68,307.99 183.517,306.933C183.355,305.877 183.273,303.744 183.273,300.534C183.273,296.105 183.101,292.377 182.755,289.35C182.41,286.322 181.994,284.809 181.506,284.809C180.978,284.809 180.013,286.495 178.611,289.868C177.209,293.24 176.061,296.633 175.167,300.046C174.152,303.987 173.4,306.202 172.912,306.689C172.547,307.055 172.181,307.238 171.815,307.238C170.637,307.238 169.682,305.328 168.951,301.509C167.935,296.47 166.858,292.367 165.72,289.197C164.583,286.028 163.648,284.443 162.917,284.443C162.551,284.443 162.246,284.89 162.002,285.784C161.677,287.084 161.332,290.782 160.966,296.877C160.723,300.615 160.489,303.083 160.265,304.282C160.042,305.481 159.686,306.08 159.199,306.08C158.793,306.08 158.467,304.983 158.224,302.789C157.98,300.595 157.858,297.994 157.858,294.987C157.858,287.999 158.285,283.732 159.138,282.188ZM370.69,249.093C372.03,248.971 373.392,248.91 374.773,248.91C378.755,248.91 381.152,249.276 381.965,250.007C382.209,250.17 382.331,250.515 382.331,251.044C382.331,251.409 382.29,251.694 382.209,251.897C381.924,252.547 381.051,252.872 379.588,252.872C379.263,252.872 378.085,252.791 376.053,252.628L370.263,252.141L370.263,260.43L373.371,260.673C375.403,260.795 376.419,261.263 376.419,262.075C376.419,262.847 375.362,263.477 373.249,263.965L370.08,264.696L370.263,271.4C370.344,274.57 370.385,276.337 370.385,276.703C370.385,278.206 370.293,279.131 370.111,279.476C369.928,279.821 369.511,279.994 368.861,279.994L368.739,279.994C368.048,279.994 367.581,279.537 367.337,278.623C367.094,277.708 366.85,275.382 366.606,271.644C366.403,267.987 366.301,264.188 366.301,260.247C366.301,258.418 366.322,257.138 366.362,256.407L366.606,249.52L370.69,249.093ZM230.571,121.866C230.856,121.134 231.363,120.769 232.095,120.769C232.136,120.769 232.186,120.779 232.247,120.799C232.308,120.819 232.359,120.83 232.4,120.83C232.928,120.952 233.304,121.724 233.527,123.146C233.751,124.568 233.964,127.615 234.167,132.288C234.452,139.886 234.878,144.315 235.447,145.575C236.219,147.403 237.235,148.317 238.494,148.317C239.835,148.317 241.095,147.281 242.273,145.209C242.842,144.193 243.431,140.557 244.041,134.299C244.447,130.114 244.782,127.524 245.046,126.528C245.31,125.533 245.808,125.035 246.54,125.035C247.108,125.035 247.494,125.218 247.698,125.584C247.901,125.949 248.002,126.843 248.002,128.265C248.002,128.672 247.962,130.134 247.88,132.654C247.637,139.358 246.773,144.244 245.29,147.312C243.807,150.379 241.562,151.913 238.555,151.913C235.752,151.913 233.354,148.886 231.363,142.832C230.47,140.069 230.023,135.254 230.023,128.387C230.023,125.015 230.205,122.841 230.571,121.866ZM728.048,-36.386C728.82,-36.955 730.202,-37.239 732.193,-37.239C732.64,-37.239 733.513,-37.199 734.813,-37.118C739.486,-36.792 743.163,-35.533 745.845,-33.339C748.527,-31.145 749.868,-28.422 749.868,-25.172C749.868,-22.368 748.892,-19.524 746.942,-16.639C744.138,-12.576 740.177,-10.544 735.057,-10.544C733.838,-10.544 732.518,-10.666 731.096,-10.91L727.743,-11.458L727.195,-23.404C726.992,-27.752 726.89,-30.555 726.89,-31.815C726.89,-33.359 726.971,-34.426 727.134,-35.015C727.296,-35.604 727.601,-36.061 728.048,-36.386ZM740.969,-31.998C739.1,-32.892 736.947,-33.339 734.509,-33.339L730.73,-33.339L730.73,-14.689L733.594,-14.14C734.245,-14.059 734.712,-14.018 734.996,-14.018C736.784,-14.018 738.531,-14.556 740.238,-15.633C741.944,-16.71 743.306,-18.142 744.321,-19.93C745.5,-22.043 746.089,-23.892 746.089,-25.476C746.089,-28.199 744.382,-30.373 740.969,-31.998ZM762.911,-29.194C764.536,-29.885 765.734,-30.23 766.506,-30.23C767.238,-30.23 768.477,-29.885 770.224,-29.194C772.093,-28.422 773.394,-27.132 774.125,-25.324C774.856,-23.516 775.303,-20.499 775.466,-16.273C775.547,-13.591 775.588,-12.108 775.588,-11.824C775.588,-10.605 775.496,-9.843 775.314,-9.538C775.131,-9.234 774.755,-9.081 774.186,-9.081C773.536,-9.081 773.089,-9.284 772.845,-9.691C772.601,-10.097 772.398,-10.95 772.236,-12.251C771.992,-13.917 771.768,-14.749 771.565,-14.749C771.484,-14.749 771.24,-14.424 770.834,-13.774C770.224,-12.677 768.995,-11.682 767.146,-10.788C765.298,-9.894 763.581,-9.447 761.996,-9.447C760.412,-9.447 759.03,-10.097 757.852,-11.397C757.202,-12.088 756.765,-12.718 756.541,-13.287C756.318,-13.856 756.206,-14.648 756.206,-15.664C756.206,-15.989 756.247,-16.801 756.328,-18.102C756.775,-23.75 758.969,-27.447 762.911,-29.194ZM770.041,-24.867C769.188,-25.842 768.01,-26.33 766.506,-26.33C764.962,-26.33 763.683,-25.822 762.667,-24.806C761.854,-23.993 761.143,-22.713 760.534,-20.966C759.924,-19.219 759.619,-17.675 759.619,-16.334C759.619,-15.847 759.68,-15.42 759.802,-15.054C760.127,-13.998 761.082,-13.47 762.667,-13.47C763.723,-13.47 764.8,-13.774 765.897,-14.384C766.953,-14.912 768.111,-16.558 769.371,-19.321C770.346,-21.474 770.834,-22.815 770.834,-23.343C770.834,-23.831 770.57,-24.339 770.041,-24.867ZM788.753,-37.057C789.037,-37.341 789.647,-37.443 790.581,-37.361C791.394,-37.158 791.881,-35.817 792.044,-33.339C792.166,-31.632 792.349,-30.576 792.592,-30.169C792.836,-29.763 793.446,-29.499 794.421,-29.377C795.884,-29.215 796.615,-28.585 796.615,-27.488C796.615,-26.878 796.422,-26.441 796.036,-26.177C795.65,-25.913 794.929,-25.74 793.872,-25.659L791.13,-25.415L791.678,-19.382C791.963,-15.44 792.389,-12.941 792.958,-11.885C793.486,-10.869 794.157,-10.361 794.969,-10.361C795.782,-10.361 796.452,-10.869 796.981,-11.885C797.549,-12.941 798.2,-13.47 798.931,-13.47C799.784,-13.47 800.211,-12.86 800.211,-11.641C800.211,-10.341 799.642,-9.193 798.504,-8.198C797.367,-7.202 796.087,-6.704 794.665,-6.704C793.974,-6.704 793.344,-6.847 792.775,-7.131C791.312,-7.781 790.276,-8.868 789.667,-10.392C789.057,-11.915 788.57,-14.607 788.204,-18.467C787.676,-23.303 787.351,-25.781 787.229,-25.903C787.188,-25.903 787.036,-25.954 786.772,-26.055C786.508,-26.157 786.172,-26.289 785.766,-26.452C785.36,-26.614 784.954,-26.756 784.547,-26.878C782.963,-27.366 782.17,-27.975 782.17,-28.707C782.17,-29.479 783.186,-29.966 785.218,-30.169C786.64,-30.291 787.493,-30.515 787.777,-30.84C788.062,-31.165 788.204,-32.038 788.204,-33.461C788.204,-35.492 788.387,-36.691 788.753,-37.057ZM811.243,-29.072C812.746,-30.251 814.656,-30.84 816.972,-30.84C818.394,-30.84 819.572,-30.576 820.507,-30.048C821.644,-29.438 822.985,-27.559 824.529,-24.41C826.073,-21.261 826.845,-18.874 826.845,-17.248C826.845,-16.964 826.825,-16.761 826.784,-16.639C826.216,-14.445 824.986,-12.718 823.097,-11.458C821.208,-10.199 819.105,-9.569 816.789,-9.569C813.457,-9.569 810.816,-10.747 808.866,-13.104C807.443,-14.77 806.732,-16.862 806.732,-19.382C806.732,-21.251 807.129,-23.059 807.921,-24.806C808.713,-26.553 809.82,-27.975 811.243,-29.072ZM818.373,-24.318C817.155,-24.887 815.875,-25.172 814.534,-25.172C812.705,-25.172 811.629,-24.745 811.303,-23.892C810.978,-22.917 810.816,-21.433 810.816,-19.443C810.816,-17.492 811.364,-15.928 812.462,-14.749C813.559,-13.571 814.899,-12.982 816.484,-12.982C818.028,-12.982 819.511,-13.551 820.933,-14.689C822.234,-15.745 822.884,-16.964 822.884,-18.345C822.884,-19.443 822.488,-20.529 821.695,-21.606C820.903,-22.683 819.796,-23.587 818.373,-24.318ZM838.304,-31.998C838.913,-32.282 839.705,-32.424 840.681,-32.424C842.712,-32.424 844.774,-31.886 846.867,-30.809C848.959,-29.733 850.006,-28.605 850.006,-27.427C850.006,-26.33 849.477,-25.781 848.421,-25.781C847.568,-25.781 846.613,-26.187 845.556,-27C844.175,-28.097 842.692,-28.646 841.107,-28.646C840.254,-28.646 839.543,-28.443 838.974,-28.036C838.405,-27.63 838.121,-27.081 838.121,-26.391C838.121,-26.147 838.141,-25.964 838.182,-25.842C838.344,-24.867 839.462,-24.095 841.534,-23.526C843.484,-22.957 844.967,-22.043 845.983,-20.783C846.999,-19.524 847.507,-18.142 847.507,-16.639C847.507,-14.729 846.735,-13.053 845.191,-11.611C843.647,-10.168 841.574,-9.447 838.974,-9.447C837.674,-9.447 836.384,-9.965 835.104,-11.001C833.824,-12.037 833.184,-13.124 833.184,-14.262C833.184,-14.79 833.357,-15.196 833.702,-15.481C834.047,-15.765 834.444,-15.908 834.89,-15.908C835.825,-15.908 836.435,-15.501 836.719,-14.689C837.003,-13.917 837.979,-13.531 839.644,-13.531C841.026,-13.531 842.021,-13.835 842.631,-14.445C843.281,-15.095 843.606,-16.029 843.606,-17.248C843.606,-17.98 843.393,-18.518 842.966,-18.863C842.539,-19.209 841.635,-19.585 840.254,-19.991C837.897,-20.56 836.292,-21.251 835.439,-22.063C834.504,-22.876 834.037,-24.014 834.037,-25.476C834.037,-26.817 834.433,-28.107 835.226,-29.347C836.018,-30.586 837.044,-31.47 838.304,-31.998ZM648.724,16.626C650.024,15.285 651.69,14.615 653.722,14.615C655.469,14.615 657.236,15.143 659.024,16.199C662.6,18.353 664.388,21.502 664.388,25.646C664.388,28.287 663.687,30.268 662.285,31.589C660.883,32.909 658.679,33.691 655.672,33.935L651.162,34.24L651.162,38.689C651.162,41.533 650.715,43.159 649.821,43.565C649.658,43.646 649.394,43.687 649.029,43.687C648.5,43.687 648.114,43.565 647.871,43.321C647.383,42.834 647.099,38.608 647.017,30.644C646.936,26.825 646.895,24.569 646.895,23.879C646.895,21.441 647.007,19.826 647.231,19.033C647.454,18.241 647.952,17.438 648.724,16.626ZM658.78,21.136C657.439,19.47 655.835,18.637 653.965,18.637C652.828,18.637 652.086,18.769 651.741,19.033C651.395,19.297 651.121,19.917 650.918,20.892C650.796,21.502 650.735,22.375 650.735,23.513C650.735,24.61 650.796,25.646 650.918,26.621C651.162,28.328 651.446,29.323 651.771,29.608C652.096,29.892 653.112,30.034 654.819,30.034C656.688,30.034 658.151,29.638 659.207,28.846C660.263,28.054 660.792,27.028 660.792,25.768C660.792,24.265 660.121,22.721 658.78,21.136ZM675.785,13.457C676.394,13.172 677.187,13.03 678.162,13.03C680.194,13.03 682.256,13.568 684.348,14.645C686.441,15.722 687.487,16.849 687.487,18.028C687.487,19.125 686.959,19.673 685.902,19.673C685.049,19.673 684.094,19.267 683.038,18.454C681.656,17.357 680.173,16.809 678.589,16.809C677.735,16.809 677.024,17.012 676.455,17.418C675.887,17.824 675.602,18.373 675.602,19.064C675.602,19.308 675.622,19.49 675.663,19.612C675.826,20.587 676.943,21.359 679.015,21.928C680.966,22.497 682.449,23.411 683.464,24.671C684.48,25.931 684.988,27.312 684.988,28.815C684.988,30.725 684.216,32.401 682.672,33.844C681.128,35.286 679.056,36.007 676.455,36.007C675.155,36.007 673.865,35.489 672.585,34.453C671.305,33.417 670.665,32.33 670.665,31.192C670.665,30.664 670.838,30.258 671.183,29.974C671.529,29.689 671.925,29.547 672.372,29.547C673.306,29.547 673.916,29.953 674.2,30.766C674.485,31.538 675.46,31.924 677.126,31.924C678.507,31.924 679.503,31.619 680.112,31.01C680.762,30.36 681.087,29.425 681.087,28.206C681.087,27.475 680.874,26.936 680.447,26.591C680.021,26.246 679.117,25.87 677.735,25.463C675.379,24.894 673.774,24.204 672.92,23.391C671.986,22.578 671.519,21.441 671.519,19.978C671.519,18.637 671.915,17.347 672.707,16.108C673.499,14.868 674.525,13.985 675.785,13.457ZM694.435,6.874C695.045,6.102 695.837,5.716 696.812,5.716C696.853,5.716 696.914,5.726 696.995,5.747C697.076,5.767 697.137,5.777 697.178,5.777C697.828,5.858 698.275,6.092 698.519,6.478C698.762,6.864 698.884,7.524 698.884,8.459C698.884,9.475 698.762,10.135 698.519,10.44C698.275,10.744 697.747,10.897 696.934,10.897C696.04,10.897 695.299,10.643 694.709,10.135C694.12,9.627 693.826,9.048 693.826,8.398C693.826,7.829 694.029,7.321 694.435,6.874ZM694.801,15.529C695.004,14.96 695.492,14.675 696.264,14.675C696.304,14.675 696.365,14.686 696.446,14.706C696.528,14.726 696.589,14.736 696.629,14.736C697.279,14.858 697.686,15.437 697.848,16.473C698.011,17.51 698.092,19.998 698.092,23.94C698.092,28.084 698.011,30.603 697.848,31.497C697.686,32.391 697.218,32.838 696.446,32.838C695.715,32.838 695.248,32.411 695.045,31.558C694.841,30.705 694.679,28.45 694.557,24.793L694.557,21.745C694.557,18.048 694.638,15.976 694.801,15.529ZM710.343,16.992C711.968,15.935 713.674,15.407 715.462,15.407C717.494,15.407 719.282,16.138 720.826,17.601C722.329,19.104 723.081,20.262 723.081,21.075C723.081,21.644 722.695,22.071 721.923,22.355C721.842,22.396 721.699,22.416 721.496,22.416C720.643,22.416 719.729,21.888 718.753,20.831C717.697,19.734 716.58,19.186 715.401,19.186C713.817,19.186 712.191,20.141 710.525,22.05C709.225,23.513 708.575,24.834 708.575,26.012C708.575,26.906 708.981,27.922 709.794,29.059C710.607,30.238 711.846,30.827 713.512,30.827C714.772,30.827 715.97,30.42 717.108,29.608C718.124,28.836 719.058,28.45 719.912,28.45C720.968,28.45 721.496,28.978 721.496,30.034C721.496,31.253 720.673,32.3 719.028,33.173C717.382,34.047 715.422,34.484 713.146,34.484C711.44,34.484 710.221,34.352 709.489,34.088C708.758,33.823 707.986,33.204 707.173,32.229C705.873,30.685 705.223,28.775 705.223,26.499C705.223,24.63 705.68,22.822 706.594,21.075C707.509,19.328 708.758,17.967 710.343,16.992ZM733.991,16.382C735.494,15.204 737.404,14.615 739.72,14.615C741.142,14.615 742.32,14.879 743.255,15.407C744.392,16.016 745.733,17.896 747.277,21.045C748.821,24.194 749.593,26.581 749.593,28.206C749.593,28.49 749.573,28.694 749.532,28.815C748.964,31.01 747.734,32.737 745.845,33.996C743.956,35.256 741.853,35.885 739.537,35.885C736.205,35.885 733.564,34.707 731.614,32.35C730.191,30.685 729.48,28.592 729.48,26.073C729.48,24.204 729.877,22.396 730.669,20.648C731.461,18.901 732.568,17.479 733.991,16.382ZM741.122,21.136C739.903,20.567 738.623,20.283 737.282,20.283C735.453,20.283 734.377,20.709 734.052,21.563C733.726,22.538 733.564,24.021 733.564,26.012C733.564,27.962 734.112,29.527 735.21,30.705C736.307,31.883 737.647,32.472 739.232,32.472C740.776,32.472 742.259,31.904 743.681,30.766C744.982,29.709 745.632,28.49 745.632,27.109C745.632,26.012 745.236,24.925 744.443,23.848C743.651,22.771 742.544,21.867 741.122,21.136ZM757.578,19.064C758.675,16.951 760.117,15.407 761.905,14.432C763.693,13.457 764.932,12.969 765.623,12.969C766.476,12.969 767.553,13.284 768.853,13.914C770.153,14.543 771.271,15.285 772.205,16.138C773.018,16.951 773.516,17.875 773.698,18.911C773.881,19.948 773.973,22.375 773.973,26.195C773.932,31.396 773.485,35.408 772.632,38.232C771.779,41.056 770.356,43.118 768.365,44.418C766.659,45.597 764.81,46.186 762.819,46.186C761.031,46.186 759.589,45.718 758.492,44.784C757.557,44.012 757.09,43.138 757.09,42.163C757.09,41.269 757.496,40.822 758.309,40.822C758.431,40.822 758.736,40.904 759.223,41.066C760.32,41.554 761.478,41.797 762.697,41.797C764.932,41.797 766.578,41.086 767.634,39.664C768.203,38.933 768.751,37.653 769.28,35.825C769.808,33.996 770.072,32.594 770.072,31.619C770.072,31.091 769.97,30.827 769.767,30.827C769.361,30.827 768.244,31.233 766.415,32.046C764.505,32.818 763.043,33.204 762.027,33.204C760.686,33.204 759.386,32.554 758.126,31.253C756.704,29.831 755.993,27.881 755.993,25.402C755.993,23.249 756.521,21.136 757.578,19.064ZM768.731,18.393C767.878,17.54 766.964,17.113 765.988,17.113C764.729,17.113 763.449,17.764 762.149,19.064C761.417,19.795 760.92,20.455 760.655,21.045C760.391,21.634 760.259,22.436 760.259,23.452C760.259,24.062 760.28,24.569 760.32,24.976C760.442,26.682 760.635,27.759 760.899,28.206C761.163,28.653 761.763,28.937 762.697,29.059L763.185,29.059C764.851,29.059 766.374,28.216 767.756,26.53C769.137,24.844 769.828,23.107 769.828,21.319C769.828,20.1 769.462,19.125 768.731,18.393ZM780.128,23.818C780.128,19.917 780.21,17.54 780.372,16.687C780.535,15.834 781.002,15.407 781.774,15.407C782.424,15.407 782.851,15.58 783.054,15.925C783.257,16.27 783.359,16.931 783.359,17.906C783.359,19.247 783.501,19.917 783.785,19.917C783.988,19.917 784.456,19.653 785.187,19.125C786.406,18.271 788.072,17.845 790.185,17.845C791.729,17.845 793.009,18.109 794.025,18.637C795.081,19.247 795.609,20.201 795.609,21.502C795.609,22.843 795.061,23.513 793.964,23.513C792.867,23.513 792.318,23.249 792.318,22.721C792.318,22.152 791.505,21.867 789.88,21.867C788.336,21.867 787.158,22.497 786.345,23.757C785.533,25.016 784.943,27.15 784.578,30.156C784.374,32.066 784.141,33.336 783.877,33.966C783.613,34.595 783.176,34.91 782.566,34.91C781.51,34.91 780.839,34.26 780.555,32.96C780.271,31.66 780.128,28.612 780.128,23.818ZM808.652,16.26C810.278,15.569 811.476,15.224 812.248,15.224C812.98,15.224 814.219,15.569 815.966,16.26C817.835,17.032 819.135,18.322 819.867,20.13C820.598,21.938 821.045,24.955 821.208,29.181C821.289,31.863 821.329,33.346 821.329,33.63C821.329,34.849 821.238,35.611 821.055,35.916C820.872,36.221 820.497,36.373 819.928,36.373C819.278,36.373 818.831,36.17 818.587,35.764C818.343,35.357 818.14,34.504 817.977,33.204C817.734,31.538 817.51,30.705 817.307,30.705C817.226,30.705 816.982,31.03 816.576,31.68C815.966,32.777 814.737,33.773 812.888,34.667C811.039,35.56 809.323,36.007 807.738,36.007C806.153,36.007 804.772,35.357 803.594,34.057C802.943,33.366 802.507,32.737 802.283,32.168C802.06,31.599 801.948,30.806 801.948,29.791C801.948,29.466 801.989,28.653 802.07,27.353C802.517,21.705 804.711,18.007 808.652,16.26ZM815.783,20.587C814.93,19.612 813.752,19.125 812.248,19.125C810.704,19.125 809.424,19.633 808.408,20.648C807.596,21.461 806.885,22.741 806.275,24.488C805.666,26.235 805.361,27.779 805.361,29.12C805.361,29.608 805.422,30.034 805.544,30.4C805.869,31.457 806.824,31.985 808.408,31.985C809.465,31.985 810.542,31.68 811.639,31.071C812.695,30.542 813.853,28.897 815.113,26.134C816.088,23.98 816.576,22.639 816.576,22.111C816.576,21.624 816.311,21.116 815.783,20.587ZM835.104,6.204C836.242,4.741 837.582,4.01 839.126,4.01C840.549,4.01 841.828,4.517 842.966,5.533C844.104,6.549 844.673,7.565 844.673,8.581C844.673,9.434 844.266,10.003 843.454,10.287C843.332,10.328 843.149,10.348 842.905,10.348L840.711,8.885C840.02,8.032 839.431,7.605 838.944,7.605C838.09,7.605 837.318,8.784 836.628,11.14C836.14,13.01 835.896,14.168 835.896,14.615C835.896,15.265 836.13,15.701 836.597,15.925C837.064,16.148 837.968,16.301 839.309,16.382C840.691,16.463 841.605,16.626 842.052,16.87C842.499,17.113 842.722,17.56 842.722,18.21C842.722,18.861 842.479,19.318 841.991,19.582C841.503,19.846 840.549,20.019 839.126,20.1L835.652,20.344L836.201,28.328C836.404,31.172 836.506,33.041 836.506,33.935C836.506,35.113 836.394,35.967 836.17,36.495C835.947,37.023 835.469,37.734 834.738,38.628C833.641,39.847 832.828,40.457 832.3,40.457C831.975,40.457 831.609,40.335 831.203,40.091C830.228,39.481 829.74,38.527 829.74,37.226C829.74,36.007 830.187,35.398 831.081,35.398L831.447,35.398C831.934,35.398 832.239,34.961 832.361,34.088C832.483,33.214 832.544,31.253 832.544,28.206L832.544,21.014L830.045,20.1C828.582,19.612 827.851,18.942 827.851,18.089C827.851,17.195 828.603,16.565 830.106,16.199C831.447,15.915 832.219,15.102 832.422,13.761C832.625,11.811 832.91,10.328 833.275,9.312C833.641,8.296 834.251,7.26 835.104,6.204ZM851.743,6.874C852.352,6.102 853.145,5.716 854.12,5.716C854.16,5.716 854.221,5.726 854.303,5.747C854.384,5.767 854.445,5.777 854.485,5.777C855.135,5.858 855.582,6.092 855.826,6.478C856.07,6.864 856.192,7.524 856.192,8.459C856.192,9.475 856.07,10.135 855.826,10.44C855.582,10.744 855.054,10.897 854.242,10.897C853.348,10.897 852.606,10.643 852.017,10.135C851.428,9.627 851.133,9.048 851.133,8.398C851.133,7.829 851.336,7.321 851.743,6.874ZM852.108,15.529C852.312,14.96 852.799,14.675 853.571,14.675C853.612,14.675 853.673,14.686 853.754,14.706C853.835,14.726 853.896,14.736 853.937,14.736C854.587,14.858 854.993,15.437 855.156,16.473C855.318,17.51 855.4,19.998 855.4,23.94C855.4,28.084 855.318,30.603 855.156,31.497C854.993,32.391 854.526,32.838 853.754,32.838C853.023,32.838 852.555,32.411 852.352,31.558C852.149,30.705 851.986,28.45 851.865,24.793L851.865,21.745C851.865,18.048 851.946,15.976 852.108,15.529ZM867.65,16.992C869.275,15.935 870.982,15.407 872.77,15.407C874.801,15.407 876.589,16.138 878.133,17.601C879.637,19.104 880.388,20.262 880.388,21.075C880.388,21.644 880.002,22.071 879.23,22.355C879.149,22.396 879.007,22.416 878.804,22.416C877.95,22.416 877.036,21.888 876.061,20.831C875.005,19.734 873.887,19.186 872.709,19.186C871.124,19.186 869.499,20.141 867.833,22.05C866.533,23.513 865.883,24.834 865.883,26.012C865.883,26.906 866.289,27.922 867.102,29.059C867.914,30.238 869.154,30.827 870.82,30.827C872.079,30.827 873.278,30.42 874.415,29.608C875.431,28.836 876.366,28.45 877.219,28.45C878.276,28.45 878.804,28.978 878.804,30.034C878.804,31.253 877.981,32.3 876.335,33.173C874.69,34.047 872.729,34.484 870.454,34.484C868.747,34.484 867.528,34.352 866.797,34.088C866.066,33.823 865.294,33.204 864.481,32.229C863.181,30.685 862.531,28.775 862.531,26.499C862.531,24.63 862.988,22.822 863.902,21.075C864.816,19.328 866.066,17.967 867.65,16.992ZM891.298,16.382C892.802,15.204 894.711,14.615 897.027,14.615C898.449,14.615 899.628,14.879 900.562,15.407C901.7,16.016 903.041,17.896 904.585,21.045C906.129,24.194 906.901,26.581 906.901,28.206C906.901,28.49 906.881,28.694 906.84,28.815C906.271,31.01 905.042,32.737 903.153,33.996C901.263,35.256 899.16,35.885 896.844,35.885C893.513,35.885 890.871,34.707 888.921,32.35C887.499,30.685 886.788,28.592 886.788,26.073C886.788,24.204 887.184,22.396 887.976,20.648C888.769,18.901 889.876,17.479 891.298,16.382ZM898.429,21.136C897.21,20.567 895.93,20.283 894.589,20.283C892.761,20.283 891.684,20.709 891.359,21.563C891.034,22.538 890.871,24.021 890.871,26.012C890.871,27.962 891.42,29.527 892.517,30.705C893.614,31.883 894.955,32.472 896.54,32.472C898.084,32.472 899.567,31.904 900.989,30.766C902.289,29.709 902.939,28.49 902.939,27.109C902.939,26.012 902.543,24.925 901.751,23.848C900.958,22.771 899.851,21.867 898.429,21.136ZM918.359,13.457C918.969,13.172 919.761,13.03 920.736,13.03C922.768,13.03 924.83,13.568 926.922,14.645C929.015,15.722 930.061,16.849 930.061,18.028C930.061,19.125 929.533,19.673 928.477,19.673C927.623,19.673 926.668,19.267 925.612,18.454C924.231,17.357 922.747,16.809 921.163,16.809C920.31,16.809 919.598,17.012 919.03,17.418C918.461,17.824 918.176,18.373 918.176,19.064C918.176,19.308 918.197,19.49 918.237,19.612C918.4,20.587 919.517,21.359 921.589,21.928C923.54,22.497 925.023,23.411 926.039,24.671C927.054,25.931 927.562,27.312 927.562,28.815C927.562,30.725 926.79,32.401 925.246,33.844C923.702,35.286 921.63,36.007 919.03,36.007C917.729,36.007 916.439,35.489 915.159,34.453C913.879,33.417 913.24,32.33 913.24,31.192C913.24,30.664 913.412,30.258 913.758,29.974C914.103,29.689 914.499,29.547 914.946,29.547C915.881,29.547 916.49,29.953 916.775,30.766C917.059,31.538 918.034,31.924 919.7,31.924C921.082,31.924 922.077,31.619 922.687,31.01C923.337,30.36 923.662,29.425 923.662,28.206C923.662,27.475 923.448,26.936 923.022,26.591C922.595,26.246 921.691,25.87 920.31,25.463C917.953,24.894 916.348,24.204 915.495,23.391C914.56,22.578 914.093,21.441 914.093,19.978C914.093,18.637 914.489,17.347 915.281,16.108C916.074,14.868 917.1,13.985 918.359,13.457ZM817.077,11.711C816.336,12.264 815.285,12.111 814.732,11.37C814.179,10.628 814.332,9.577 815.073,9.024C816.52,7.945 817.605,6.593 818.737,5.773C819.487,5.231 820.535,5.399 821.078,6.148C821.62,6.897 821.452,7.946 820.703,8.489C819.582,9.3 818.51,10.642 817.077,11.711ZM293.209,11.711C292.467,12.264 291.416,12.111 290.863,11.37C290.31,10.628 290.463,9.577 291.204,9.024C292.652,7.945 293.737,6.593 294.869,5.773C295.618,5.231 296.667,5.399 297.209,6.148C297.751,6.897 297.583,7.946 296.834,8.489C295.713,9.3 294.642,10.642 293.209,11.711Z" style="fill:rgb(207,80,73);"/>
        </g>
    </g>
</svg>
