<svg width="100%" height="100%" viewBox="0 0 800 800" version="1.1" xmlns="http://www.w3.org/2000/svg" xmlns:xlink="http://www.w3.org/1999/xlink" xml:space="preserve" xmlns:serif="http://www.serif.com/" style="fill-rule:evenodd;clip-rule:evenodd;stroke-linejoin:round;stroke-miterlimit:2;">
    <g transform="matrix(0.852011,0,0,0.852011,-9.50679,469.856)">
        <g>
            <path class="step1b" d="M93.513,-43.45C94.264,-43.826 95.766,-44.014 98.02,-44.014C98.912,-44.014 99.592,-43.99 100.062,-43.943C102.128,-43.802 103.606,-43.485 104.498,-42.992C105.39,-42.499 106.588,-41.361 108.09,-39.577C112.034,-35.07 114.005,-30.234 114.005,-25.07C114.005,-20.986 112.691,-17.488 110.062,-14.577C108.372,-12.652 107.527,-11.291 107.527,-10.493C107.527,-9.554 108.606,-9.084 110.766,-9.084C111.799,-9.084 112.491,-9.002 112.843,-8.838C113.196,-8.674 113.372,-8.333 113.372,-7.817C113.372,-7.488 113.348,-7.23 113.301,-7.042C113.019,-5.399 112.034,-4.577 110.343,-4.577C108.7,-4.577 106.987,-5.329 105.203,-6.831C103.559,-8.192 102.175,-8.873 101.048,-8.873C100.813,-8.873 100.508,-8.826 100.132,-8.732C99.569,-8.591 99.006,-8.521 98.442,-8.521C96.236,-8.521 94.006,-9.39 91.752,-11.127C89.499,-12.864 87.738,-15.117 86.471,-17.887C85.344,-20.281 84.78,-23.544 84.78,-27.676C84.78,-30.54 85.109,-32.887 85.766,-34.718C86.33,-36.22 87.433,-37.899 89.076,-39.753C90.719,-41.607 92.198,-42.84 93.513,-43.45ZM105.132,-36.338C103.959,-37.652 102.937,-38.532 102.069,-38.978C101.2,-39.424 100.085,-39.647 98.724,-39.647C96.47,-39.647 94.651,-39.107 93.266,-38.028C91.881,-36.948 90.743,-35.164 89.851,-32.676C89.1,-30.704 88.724,-28.873 88.724,-27.183C88.724,-24.507 89.593,-21.502 91.33,-18.169C92.316,-16.244 93.395,-14.871 94.569,-14.049C95.743,-13.228 97.198,-12.817 98.935,-12.817C99.686,-12.817 100.191,-12.875 100.449,-12.993C100.707,-13.11 100.837,-13.404 100.837,-13.873C100.837,-14.53 100.672,-15.587 100.344,-17.042C100.015,-18.685 99.851,-19.835 99.851,-20.493C99.851,-21.338 100.015,-21.925 100.344,-22.253C100.766,-22.676 101.236,-22.887 101.752,-22.887C102.409,-22.887 102.984,-22.617 103.477,-22.077C103.97,-21.537 104.217,-20.845 104.217,-20C104.217,-18.638 104.498,-17.512 105.062,-16.62C105.203,-16.338 105.414,-16.197 105.696,-16.197C106.494,-16.197 107.374,-17.206 108.336,-19.225C109.299,-21.244 109.78,-23.169 109.78,-25C109.78,-27.253 109.451,-29.19 108.794,-30.809C108.137,-32.429 106.916,-34.272 105.132,-36.338ZM121.4,-32.957C121.728,-34.976 122.503,-35.985 123.724,-35.985C124.522,-35.985 125.038,-35.68 125.273,-35.07C125.508,-34.46 125.625,-33.051 125.625,-30.845C125.625,-26.056 126.212,-22.03 127.385,-18.767C128.559,-15.504 129.968,-13.873 131.611,-13.873C131.939,-13.873 132.245,-13.943 132.526,-14.084C133.747,-14.554 134.756,-16.056 135.554,-18.591C136.353,-21.126 136.752,-24.131 136.752,-27.605C136.752,-30.234 136.845,-32.018 137.033,-32.957C137.221,-33.896 137.62,-34.483 138.23,-34.718C138.418,-34.812 138.7,-34.859 139.075,-34.859C140.578,-34.859 141.329,-32.511 141.329,-27.817C141.329,-22.464 140.378,-18.028 138.477,-14.507C136.576,-10.986 134.263,-9.225 131.54,-9.225C130.179,-9.225 128.888,-9.671 127.667,-10.563C126.353,-11.502 125.202,-12.84 124.217,-14.577C123.465,-16.033 122.773,-18.462 122.139,-21.866C121.505,-25.27 121.188,-28.192 121.188,-30.633C121.188,-31.525 121.259,-32.3 121.4,-32.957ZM149.216,-44.577C149.92,-45.469 150.836,-45.915 151.963,-45.915C152.01,-45.915 152.08,-45.903 152.174,-45.88C152.268,-45.856 152.338,-45.844 152.385,-45.844C153.136,-45.751 153.653,-45.481 153.934,-45.035C154.216,-44.589 154.357,-43.826 154.357,-42.746C154.357,-41.572 154.216,-40.809 153.934,-40.457C153.653,-40.105 153.042,-39.929 152.103,-39.929C151.071,-39.929 150.214,-40.222 149.533,-40.809C148.852,-41.396 148.512,-42.065 148.512,-42.816C148.512,-43.474 148.747,-44.06 149.216,-44.577ZM149.639,-34.577C149.873,-35.234 150.437,-35.563 151.329,-35.563C151.376,-35.563 151.446,-35.551 151.54,-35.528C151.634,-35.504 151.704,-35.492 151.751,-35.492C152.503,-35.352 152.972,-34.683 153.16,-33.485C153.348,-32.288 153.441,-29.413 153.441,-24.859C153.441,-20.07 153.348,-17.159 153.16,-16.127C152.972,-15.094 152.432,-14.577 151.54,-14.577C150.695,-14.577 150.155,-15.07 149.92,-16.056C149.686,-17.042 149.498,-19.648 149.357,-23.873L149.357,-27.394C149.357,-31.666 149.451,-34.061 149.639,-34.577ZM164.92,-30.07C167.455,-32.558 169.732,-33.802 171.751,-33.802C173.019,-33.802 174.404,-33.309 175.906,-32.324C177.549,-31.291 178.371,-29.389 178.371,-26.619C178.371,-25.399 178.159,-24.202 177.737,-23.028C177.361,-22.136 176.293,-21.209 174.533,-20.246C172.772,-19.284 171.211,-18.803 169.85,-18.803C168.911,-18.803 168.441,-18.638 168.441,-18.31C168.441,-18.075 168.629,-17.582 169.005,-16.831C169.333,-16.22 169.627,-15.81 169.885,-15.598C170.143,-15.387 170.577,-15.281 171.188,-15.281C172.08,-15.281 174.216,-15.704 177.596,-16.549C178.253,-16.69 178.746,-16.76 179.075,-16.76C179.779,-16.76 180.131,-16.22 180.131,-15.141C180.131,-13.216 177.596,-11.713 172.526,-10.634C172.385,-10.587 172.15,-10.563 171.822,-10.563C170.084,-10.563 168.371,-11.385 166.681,-13.028C164.991,-14.671 164.005,-16.526 163.723,-18.591C163.254,-21.033 162.714,-22.887 162.103,-24.155C161.822,-24.718 161.681,-25.211 161.681,-25.633C161.681,-26.432 162.761,-27.91 164.92,-30.07ZM170.413,-23.662C170.554,-23.615 170.742,-23.591 170.976,-23.591C171.822,-23.591 172.584,-23.908 173.265,-24.542C173.946,-25.176 174.286,-25.915 174.286,-26.76C174.286,-27.136 174.169,-27.605 173.934,-28.169C173.512,-29.061 173.089,-29.507 172.667,-29.507C172.291,-29.507 171.657,-29.272 170.765,-28.802C169.216,-28.004 168.441,-26.948 168.441,-25.633C168.441,-24.46 169.099,-23.803 170.413,-23.662ZM187.596,-27.957L187.596,-29.929C187.596,-32.042 187.702,-33.368 187.913,-33.908C188.124,-34.448 188.582,-34.718 189.286,-34.718C189.803,-34.718 190.307,-34.542 190.8,-34.19C191.293,-33.838 191.61,-33.403 191.751,-32.887C192.033,-31.948 192.338,-31.478 192.666,-31.478C192.995,-31.478 193.558,-31.784 194.356,-32.394C195.53,-33.239 196.845,-33.662 198.3,-33.662C200.882,-33.662 203.171,-32.324 205.166,-29.648C207.161,-26.971 208.159,-23.732 208.159,-19.929C208.159,-14.765 207.197,-12.183 205.272,-12.183C204.474,-12.183 203.981,-12.5 203.793,-13.134C203.605,-13.767 203.511,-15.328 203.511,-17.817C203.511,-21.056 203.065,-23.744 202.173,-25.88C201.281,-28.016 200.178,-29.084 198.863,-29.084C197.502,-29.084 196.469,-28.415 195.765,-27.077C195.061,-25.739 194.403,-23.216 193.793,-19.507C193.277,-16.596 192.842,-14.73 192.49,-13.908C192.138,-13.087 191.587,-12.676 190.835,-12.676C188.723,-12.676 187.643,-17.77 187.596,-27.957ZM236.398,-30.07C238.933,-32.558 241.21,-33.802 243.229,-33.802C244.497,-33.802 245.882,-33.309 247.384,-32.324C249.027,-31.291 249.849,-29.389 249.849,-26.619C249.849,-25.399 249.637,-24.202 249.215,-23.028C248.839,-22.136 247.771,-21.209 246.011,-20.246C244.25,-19.284 242.689,-18.803 241.328,-18.803C240.389,-18.803 239.919,-18.638 239.919,-18.31C239.919,-18.075 240.107,-17.582 240.483,-16.831C240.811,-16.22 241.105,-15.81 241.363,-15.598C241.621,-15.387 242.055,-15.281 242.666,-15.281C243.558,-15.281 245.694,-15.704 249.074,-16.549C249.731,-16.69 250.224,-16.76 250.553,-16.76C251.257,-16.76 251.609,-16.22 251.609,-15.141C251.609,-13.216 249.074,-11.713 244.004,-10.634C243.863,-10.587 243.628,-10.563 243.299,-10.563C241.562,-10.563 239.849,-11.385 238.159,-13.028C236.469,-14.671 235.483,-16.526 235.201,-18.591C234.732,-21.033 234.192,-22.887 233.581,-24.155C233.3,-24.718 233.159,-25.211 233.159,-25.633C233.159,-26.432 234.239,-27.91 236.398,-30.07ZM241.891,-23.662C242.032,-23.615 242.22,-23.591 242.454,-23.591C243.299,-23.591 244.062,-23.908 244.743,-24.542C245.424,-25.176 245.764,-25.915 245.764,-26.76C245.764,-27.136 245.647,-27.605 245.412,-28.169C244.99,-29.061 244.567,-29.507 244.145,-29.507C243.769,-29.507 243.135,-29.272 242.243,-28.802C240.694,-28.004 239.919,-26.948 239.919,-25.633C239.919,-24.46 240.577,-23.803 241.891,-23.662ZM264.989,-36.971C265.694,-37.3 266.609,-37.464 267.736,-37.464C270.083,-37.464 272.466,-36.842 274.884,-35.598C277.301,-34.354 278.51,-33.051 278.51,-31.69C278.51,-30.422 277.9,-29.788 276.679,-29.788C275.693,-29.788 274.59,-30.258 273.37,-31.197C271.773,-32.464 270.06,-33.098 268.229,-33.098C267.243,-33.098 266.421,-32.863 265.764,-32.394C265.107,-31.924 264.778,-31.291 264.778,-30.493C264.778,-30.211 264.802,-30 264.848,-29.859C265.036,-28.732 266.327,-27.84 268.722,-27.183C270.975,-26.525 272.689,-25.469 273.862,-24.014C275.036,-22.558 275.623,-20.962 275.623,-19.225C275.623,-17.019 274.731,-15.082 272.947,-13.415C271.163,-11.749 268.769,-10.915 265.764,-10.915C264.262,-10.915 262.771,-11.514 261.292,-12.711C259.813,-13.908 259.074,-15.164 259.074,-16.479C259.074,-17.089 259.273,-17.558 259.673,-17.887C260.072,-18.216 260.529,-18.38 261.046,-18.38C262.126,-18.38 262.83,-17.911 263.158,-16.972C263.487,-16.08 264.614,-15.634 266.539,-15.634C268.135,-15.634 269.285,-15.986 269.989,-16.69C270.74,-17.441 271.116,-18.521 271.116,-19.929C271.116,-20.774 270.87,-21.396 270.377,-21.795C269.884,-22.195 268.839,-22.629 267.243,-23.098C264.52,-23.756 262.665,-24.554 261.68,-25.493C260.6,-26.432 260.06,-27.746 260.06,-29.436C260.06,-30.986 260.518,-32.476 261.433,-33.908C262.349,-35.34 263.534,-36.361 264.989,-36.971ZM384.088,-101.877C384.839,-102.253 386.341,-102.441 388.594,-102.441C389.486,-102.441 390.167,-102.417 390.637,-102.37C392.702,-102.229 394.181,-101.913 395.073,-101.42C395.965,-100.927 397.162,-99.788 398.665,-98.004C402.608,-93.497 404.58,-88.662 404.58,-83.497C404.58,-79.413 403.266,-75.915 400.637,-73.005C398.946,-71.08 398.101,-69.718 398.101,-68.92C398.101,-67.981 399.181,-67.512 401.341,-67.512C402.374,-67.512 403.066,-67.429 403.418,-67.265C403.77,-67.101 403.946,-66.76 403.946,-66.244C403.946,-65.915 403.923,-65.657 403.876,-65.469C403.594,-63.826 402.608,-63.005 400.918,-63.005C399.275,-63.005 397.562,-63.756 395.777,-65.258C394.134,-66.62 392.749,-67.3 391.623,-67.3C391.388,-67.3 391.083,-67.253 390.707,-67.16C390.144,-67.019 389.58,-66.948 389.017,-66.948C386.81,-66.948 384.58,-67.817 382.327,-69.554C380.073,-71.291 378.313,-73.544 377.045,-76.314C375.919,-78.709 375.355,-81.972 375.355,-86.103C375.355,-88.967 375.684,-91.314 376.341,-93.145C376.904,-94.647 378.008,-96.326 379.651,-98.18C381.294,-100.035 382.773,-101.267 384.088,-101.877ZM395.707,-94.765C394.533,-96.079 393.512,-96.96 392.644,-97.406C391.775,-97.852 390.66,-98.075 389.299,-98.075C387.045,-98.075 385.226,-97.535 383.841,-96.455C382.456,-95.375 381.318,-93.591 380.426,-91.103C379.674,-89.131 379.299,-87.3 379.299,-85.61C379.299,-82.934 380.167,-79.929 381.904,-76.596C382.89,-74.671 383.97,-73.298 385.144,-72.476C386.318,-71.655 387.773,-71.244 389.51,-71.244C390.261,-71.244 390.766,-71.303 391.024,-71.42C391.282,-71.537 391.411,-71.831 391.411,-72.3C391.411,-72.958 391.247,-74.014 390.918,-75.469C390.59,-77.112 390.425,-78.263 390.425,-78.92C390.425,-79.765 390.59,-80.352 390.918,-80.68C391.341,-81.103 391.81,-81.314 392.327,-81.314C392.984,-81.314 393.559,-81.044 394.052,-80.504C394.545,-79.965 394.792,-79.272 394.792,-78.427C394.792,-77.065 395.073,-75.939 395.637,-75.047C395.777,-74.765 395.989,-74.624 396.27,-74.624C397.069,-74.624 397.949,-75.634 398.911,-77.652C399.874,-79.671 400.355,-81.596 400.355,-83.427C400.355,-85.68 400.026,-87.617 399.369,-89.237C398.712,-90.856 397.491,-92.699 395.707,-94.765ZM411.974,-91.385C412.303,-93.403 413.078,-94.413 414.298,-94.413C415.096,-94.413 415.613,-94.108 415.848,-93.497C416.082,-92.887 416.2,-91.478 416.2,-89.272C416.2,-84.483 416.787,-80.457 417.96,-77.195C419.134,-73.932 420.542,-72.3 422.186,-72.3C422.514,-72.3 422.819,-72.371 423.101,-72.512C424.322,-72.981 425.331,-74.483 426.129,-77.019C426.927,-79.554 427.326,-82.558 427.326,-86.033C427.326,-88.662 427.42,-90.446 427.608,-91.385C427.796,-92.324 428.195,-92.91 428.805,-93.145C428.993,-93.239 429.275,-93.286 429.65,-93.286C431.153,-93.286 431.904,-90.939 431.904,-86.244C431.904,-80.892 430.953,-76.455 429.052,-72.934C427.15,-69.413 424.838,-67.652 422.115,-67.652C420.754,-67.652 419.463,-68.098 418.242,-68.99C416.927,-69.929 415.777,-71.267 414.791,-73.005C414.04,-74.46 413.348,-76.889 412.714,-80.293C412.08,-83.697 411.763,-86.619 411.763,-89.061C411.763,-89.953 411.834,-90.727 411.974,-91.385ZM442.537,-88.497C445.073,-90.985 447.35,-92.23 449.368,-92.23C450.636,-92.23 452.021,-91.737 453.523,-90.751C455.166,-89.718 455.988,-87.817 455.988,-85.047C455.988,-83.826 455.777,-82.629 455.354,-81.455C454.979,-80.563 453.911,-79.636 452.15,-78.673C450.389,-77.711 448.828,-77.23 447.467,-77.23C446.528,-77.23 446.059,-77.065 446.059,-76.737C446.059,-76.502 446.246,-76.009 446.622,-75.258C446.951,-74.648 447.244,-74.237 447.502,-74.026C447.76,-73.814 448.195,-73.709 448.805,-73.709C449.697,-73.709 451.833,-74.131 455.213,-74.976C455.871,-75.117 456.364,-75.188 456.692,-75.188C457.396,-75.188 457.749,-74.648 457.749,-73.568C457.749,-71.643 455.213,-70.141 450.143,-69.061C450.002,-69.014 449.767,-68.99 449.439,-68.99C447.702,-68.99 445.988,-69.812 444.298,-71.455C442.608,-73.098 441.622,-74.953 441.34,-77.019C440.871,-79.46 440.331,-81.314 439.721,-82.582C439.439,-83.145 439.298,-83.638 439.298,-84.061C439.298,-84.859 440.378,-86.338 442.537,-88.497ZM448.03,-82.089C448.171,-82.042 448.359,-82.018 448.594,-82.018C449.439,-82.018 450.202,-82.335 450.882,-82.969C451.563,-83.603 451.904,-84.342 451.904,-85.187C451.904,-85.563 451.786,-86.033 451.551,-86.596C451.129,-87.488 450.706,-87.934 450.284,-87.934C449.908,-87.934 449.274,-87.699 448.382,-87.23C446.833,-86.432 446.059,-85.375 446.059,-84.061C446.059,-82.887 446.716,-82.23 448.03,-82.089ZM482.819,-104.413C483.147,-104.976 483.711,-105.258 484.509,-105.258C484.743,-105.258 484.908,-105.234 485.002,-105.187C485.659,-105.046 486.117,-104.506 486.375,-103.567C486.633,-102.629 486.809,-100.798 486.903,-98.075C487.185,-93.568 487.396,-91.314 487.537,-91.314C487.866,-91.314 489.016,-91.924 490.988,-93.145C492.959,-94.366 494.814,-94.976 496.551,-94.976C498.429,-94.976 499.837,-94.225 500.776,-92.723C501.762,-91.22 502.255,-87.183 502.255,-80.61C502.255,-74.131 502.067,-70.516 501.692,-69.765C501.269,-69.108 500.424,-68.779 499.156,-68.779C498.499,-68.779 498.065,-68.885 497.854,-69.096C497.642,-69.307 497.537,-69.836 497.537,-70.681C497.537,-71.338 497.654,-73.005 497.889,-75.681C498.124,-78.169 498.241,-80.234 498.241,-81.878C498.241,-87.511 497.372,-90.328 495.635,-90.328C493.898,-90.328 492.349,-88.896 490.988,-86.033C489.626,-83.169 488.945,-79.859 488.945,-76.103C488.945,-73.85 488.734,-72.218 488.312,-71.209C487.889,-70.199 487.161,-69.695 486.128,-69.695C485.424,-69.695 484.92,-70.622 484.614,-72.476C484.309,-74.331 483.898,-79.014 483.382,-86.525C482.913,-93.802 482.678,-98.99 482.678,-102.089C482.678,-103.45 482.725,-104.225 482.819,-104.413ZM517.255,-92.159C519.133,-92.957 520.518,-93.356 521.41,-93.356C522.255,-93.356 523.687,-92.957 525.705,-92.159C527.865,-91.267 529.367,-89.777 530.212,-87.687C531.057,-85.598 531.574,-82.112 531.762,-77.23C531.856,-74.131 531.902,-72.418 531.902,-72.089C531.902,-70.681 531.797,-69.8 531.586,-69.448C531.374,-69.096 530.94,-68.92 530.283,-68.92C529.532,-68.92 529.015,-69.155 528.734,-69.624C528.452,-70.094 528.217,-71.08 528.029,-72.582C527.748,-74.507 527.489,-75.469 527.255,-75.469C527.161,-75.469 526.879,-75.094 526.41,-74.343C525.705,-73.075 524.285,-71.925 522.149,-70.892C520.013,-69.859 518.029,-69.343 516.198,-69.343C514.368,-69.343 512.771,-70.094 511.41,-71.596C510.659,-72.394 510.154,-73.122 509.896,-73.779C509.638,-74.436 509.508,-75.352 509.508,-76.526C509.508,-76.901 509.555,-77.84 509.649,-79.342C510.166,-85.868 512.701,-90.14 517.255,-92.159ZM525.494,-87.159C524.508,-88.286 523.147,-88.849 521.41,-88.849C519.626,-88.849 518.147,-88.263 516.973,-87.089C516.034,-86.15 515.213,-84.671 514.508,-82.652C513.804,-80.634 513.452,-78.849 513.452,-77.3C513.452,-76.737 513.522,-76.244 513.663,-75.821C514.039,-74.601 515.142,-73.99 516.973,-73.99C518.194,-73.99 519.438,-74.343 520.705,-75.047C521.926,-75.657 523.264,-77.558 524.719,-80.751C525.846,-83.239 526.41,-84.788 526.41,-85.399C526.41,-85.962 526.104,-86.549 525.494,-87.159ZM545.283,-91.314C547.161,-92.535 549.132,-93.145 551.198,-93.145C553.545,-93.145 555.611,-92.3 557.395,-90.61C559.132,-88.873 560.001,-87.535 560.001,-86.596C560.001,-85.939 559.555,-85.446 558.663,-85.117C558.569,-85.07 558.404,-85.047 558.17,-85.047C557.184,-85.047 556.128,-85.657 555.001,-86.878C553.78,-88.145 552.489,-88.779 551.128,-88.779C549.297,-88.779 547.419,-87.676 545.494,-85.469C543.992,-83.779 543.24,-82.253 543.24,-80.892C543.24,-79.859 543.71,-78.685 544.649,-77.371C545.588,-76.009 547.02,-75.328 548.945,-75.328C550.4,-75.328 551.785,-75.798 553.099,-76.737C554.273,-77.629 555.353,-78.075 556.339,-78.075C557.559,-78.075 558.17,-77.465 558.17,-76.244C558.17,-74.835 557.219,-73.627 555.318,-72.617C553.416,-71.608 551.151,-71.103 548.522,-71.103C546.55,-71.103 545.142,-71.256 544.297,-71.561C543.452,-71.866 542.56,-72.582 541.621,-73.709C540.118,-75.493 539.367,-77.699 539.367,-80.328C539.367,-82.488 539.895,-84.577 540.952,-86.596C542.008,-88.615 543.452,-90.187 545.283,-91.314ZM570.705,-88.497C573.24,-90.985 575.517,-92.23 577.536,-92.23C578.803,-92.23 580.188,-91.737 581.691,-90.751C583.334,-89.718 584.155,-87.817 584.155,-85.047C584.155,-83.826 583.944,-82.629 583.522,-81.455C583.146,-80.563 582.078,-79.636 580.317,-78.673C578.557,-77.711 576.996,-77.23 575.634,-77.23C574.695,-77.23 574.226,-77.065 574.226,-76.737C574.226,-76.502 574.414,-76.009 574.789,-75.258C575.118,-74.648 575.411,-74.237 575.67,-74.026C575.928,-73.814 576.362,-73.709 576.972,-73.709C577.864,-73.709 580,-74.131 583.381,-74.976C584.038,-75.117 584.531,-75.188 584.86,-75.188C585.564,-75.188 585.916,-74.648 585.916,-73.568C585.916,-71.643 583.381,-70.141 578.31,-69.061C578.17,-69.014 577.935,-68.99 577.606,-68.99C575.869,-68.99 574.155,-69.812 572.465,-71.455C570.775,-73.098 569.789,-74.953 569.508,-77.019C569.038,-79.46 568.498,-81.314 567.888,-82.582C567.606,-83.145 567.465,-83.638 567.465,-84.061C567.465,-84.859 568.545,-86.338 570.705,-88.497ZM576.198,-82.089C576.339,-82.042 576.526,-82.018 576.761,-82.018C577.606,-82.018 578.369,-82.335 579.05,-82.969C579.731,-83.603 580.071,-84.342 580.071,-85.187C580.071,-85.563 579.954,-86.033 579.719,-86.596C579.296,-87.488 578.874,-87.934 578.451,-87.934C578.076,-87.934 577.442,-87.699 576.55,-87.23C575.001,-86.432 574.226,-85.375 574.226,-84.061C574.226,-82.887 574.883,-82.23 576.198,-82.089ZM660.244,-56.69C661.981,-57.629 663.977,-58.098 666.23,-58.098C668.39,-58.098 670.385,-57.652 672.216,-56.76C674.047,-55.868 675.314,-54.648 676.019,-53.098C676.723,-51.596 677.075,-50.211 677.075,-48.943C677.075,-47.582 676.652,-45.892 675.807,-43.873C674.07,-39.695 670.878,-36.995 666.23,-35.775L662.286,-34.859L662.286,-30C662.286,-25.399 661.488,-23.099 659.892,-23.099C659.564,-23.099 659.305,-23.146 659.118,-23.24C658.46,-23.521 658.049,-24.625 657.885,-26.549C657.721,-28.474 657.639,-32.817 657.639,-39.577L657.639,-55.281L660.244,-56.69ZM672.427,-48.521C672.427,-50.446 672.075,-51.76 671.371,-52.465C670.667,-53.169 668.953,-53.521 666.23,-53.521L662.286,-53.521L662.286,-46.62C662.286,-43.803 662.38,-41.936 662.568,-41.021C662.756,-40.106 663.132,-39.648 663.695,-39.648C664.869,-39.648 666.324,-40.152 668.061,-41.162C669.798,-42.171 670.948,-43.169 671.512,-44.155C672.122,-45.328 672.427,-46.784 672.427,-48.521ZM692.286,-46.69C694.164,-47.488 695.549,-47.887 696.441,-47.887C697.286,-47.887 698.718,-47.488 700.737,-46.69C702.896,-45.798 704.399,-44.307 705.244,-42.218C706.089,-40.129 706.605,-36.643 706.793,-31.761C706.887,-28.662 706.934,-26.948 706.934,-26.62C706.934,-25.211 706.828,-24.331 706.617,-23.979C706.406,-23.627 705.971,-23.451 705.314,-23.451C704.563,-23.451 704.046,-23.686 703.765,-24.155C703.483,-24.625 703.248,-25.61 703.061,-27.113C702.779,-29.038 702.521,-30 702.286,-30C702.192,-30 701.91,-29.624 701.441,-28.873C700.737,-27.606 699.317,-26.455 697.18,-25.423C695.044,-24.39 693.061,-23.873 691.23,-23.873C689.399,-23.873 687.803,-24.625 686.441,-26.127C685.69,-26.925 685.185,-27.653 684.927,-28.31C684.669,-28.967 684.54,-29.883 684.54,-31.056C684.54,-31.432 684.587,-32.371 684.681,-33.873C685.197,-40.399 687.732,-44.671 692.286,-46.69ZM700.525,-41.69C699.54,-42.817 698.178,-43.38 696.441,-43.38C694.657,-43.38 693.178,-42.793 692.004,-41.62C691.065,-40.681 690.244,-39.202 689.54,-37.183C688.835,-35.164 688.483,-33.38 688.483,-31.831C688.483,-31.268 688.554,-30.775 688.695,-30.352C689.07,-29.131 690.173,-28.521 692.004,-28.521C693.225,-28.521 694.469,-28.873 695.737,-29.577C696.957,-30.188 698.295,-32.089 699.751,-35.282C700.878,-37.77 701.441,-39.319 701.441,-39.929C701.441,-40.493 701.136,-41.08 700.525,-41.69ZM714.187,-37.958C714.187,-42.465 714.281,-45.211 714.469,-46.197C714.657,-47.183 715.197,-47.676 716.089,-47.676C716.84,-47.676 717.333,-47.476 717.567,-47.077C717.802,-46.678 717.92,-45.915 717.92,-44.789C717.92,-43.239 718.084,-42.465 718.413,-42.465C718.647,-42.465 719.187,-42.77 720.032,-43.38C721.441,-44.366 723.365,-44.859 725.807,-44.859C727.591,-44.859 729.07,-44.554 730.243,-43.944C731.464,-43.239 732.074,-42.136 732.074,-40.634C732.074,-39.084 731.441,-38.31 730.173,-38.31C728.905,-38.31 728.272,-38.615 728.272,-39.225C728.272,-39.883 727.333,-40.211 725.455,-40.211C723.671,-40.211 722.309,-39.483 721.37,-38.028C720.431,-36.573 719.751,-34.108 719.328,-30.634C719.093,-28.427 718.823,-26.96 718.518,-26.232C718.213,-25.505 717.708,-25.141 717.004,-25.141C715.783,-25.141 715.009,-25.892 714.68,-27.394C714.352,-28.897 714.187,-32.418 714.187,-37.958ZM747.145,-46.69C749.022,-47.488 750.407,-47.887 751.299,-47.887C752.144,-47.887 753.576,-47.488 755.595,-46.69C757.755,-45.798 759.257,-44.307 760.102,-42.218C760.947,-40.129 761.464,-36.643 761.651,-31.761C761.745,-28.662 761.792,-26.948 761.792,-26.62C761.792,-25.211 761.687,-24.331 761.475,-23.979C761.264,-23.627 760.83,-23.451 760.173,-23.451C759.421,-23.451 758.905,-23.686 758.623,-24.155C758.342,-24.625 758.107,-25.61 757.919,-27.113C757.637,-29.038 757.379,-30 757.144,-30C757.051,-30 756.769,-29.624 756.299,-28.873C755.595,-27.606 754.175,-26.455 752.039,-25.423C749.903,-24.39 747.919,-23.873 746.088,-23.873C744.257,-23.873 742.661,-24.625 741.3,-26.127C740.548,-26.925 740.044,-27.653 739.785,-28.31C739.527,-28.967 739.398,-29.883 739.398,-31.056C739.398,-31.432 739.445,-32.371 739.539,-33.873C740.055,-40.399 742.591,-44.671 747.145,-46.69ZM755.384,-41.69C754.398,-42.817 753.036,-43.38 751.299,-43.38C749.515,-43.38 748.037,-42.793 746.863,-41.62C745.924,-40.681 745.102,-39.202 744.398,-37.183C743.694,-35.164 743.342,-33.38 743.342,-31.831C743.342,-31.268 743.412,-30.775 743.553,-30.352C743.929,-29.131 745.032,-28.521 746.863,-28.521C748.083,-28.521 749.328,-28.873 750.595,-29.577C751.816,-30.188 753.154,-32.089 754.609,-35.282C755.736,-37.77 756.299,-39.319 756.299,-39.929C756.299,-40.493 755.994,-41.08 755.384,-41.69ZM793.482,-45.986C795.548,-47.066 797.05,-47.605 797.989,-47.605C798.834,-47.605 800.195,-47.206 802.073,-46.408C804.796,-45.282 806.557,-44.026 807.355,-42.641C808.153,-41.256 808.552,-38.545 808.552,-34.507C808.552,-32.676 808.529,-31.197 808.482,-30.07L808.2,-19.155C808.2,-19.155 808.667,-15.956 808.2,-14.084C807.348,-10.669 806.557,-11.268 805.665,-11.268C804.914,-11.268 804.397,-11.949 804.116,-13.31C803.834,-14.672 803.693,-16.902 803.693,-20L803.693,-27.958L800.665,-26.127C798.74,-24.953 796.627,-24.366 794.327,-24.366C792.731,-24.366 791.44,-24.718 790.454,-25.423C788.013,-27.301 786.792,-30.117 786.792,-33.873C786.792,-36.361 787.39,-38.744 788.588,-41.021C789.785,-43.298 791.416,-44.953 793.482,-45.986ZM802.003,-41.408C800.876,-42.394 799.679,-42.887 798.411,-42.887C796.815,-42.887 795.266,-42.136 793.764,-40.634C792.919,-39.789 792.343,-39.026 792.038,-38.345C791.733,-37.664 791.581,-36.737 791.581,-35.563C791.581,-34.859 791.604,-34.272 791.651,-33.803C791.792,-31.69 792.015,-30.411 792.32,-29.965C792.625,-29.519 793.529,-29.225 795.031,-29.085C795.266,-29.038 795.595,-29.014 796.017,-29.014C796.909,-29.014 797.696,-29.214 798.376,-29.613C799.057,-30.012 799.89,-30.728 800.876,-31.761C802.707,-33.732 803.623,-35.728 803.623,-37.746C803.623,-39.202 803.083,-40.422 802.003,-41.408ZM822.777,-45.915C823.106,-47.934 823.881,-48.943 825.101,-48.943C825.899,-48.943 826.416,-48.638 826.651,-48.028C826.885,-47.418 827.003,-46.009 827.003,-43.803C827.003,-39.014 827.59,-34.988 828.763,-31.725C829.937,-28.462 831.345,-26.831 832.988,-26.831C833.317,-26.831 833.622,-26.901 833.904,-27.042C835.125,-27.512 836.134,-29.014 836.932,-31.549C837.73,-34.084 838.129,-37.089 838.129,-40.563C838.129,-43.192 838.223,-44.976 838.411,-45.915C838.599,-46.854 838.998,-47.441 839.608,-47.676C839.796,-47.77 840.078,-47.817 840.453,-47.817C841.956,-47.817 842.707,-45.469 842.707,-40.775C842.707,-35.422 841.756,-30.986 839.855,-27.465C837.953,-23.944 835.641,-22.183 832.918,-22.183C831.557,-22.183 830.266,-22.629 829.045,-23.521C827.73,-24.46 826.58,-25.798 825.594,-27.535C824.843,-28.991 824.151,-31.42 823.517,-34.824C822.883,-38.228 822.566,-41.15 822.566,-43.591C822.566,-44.483 822.637,-45.258 822.777,-45.915ZM850.594,-57.535C851.298,-58.427 852.214,-58.873 853.34,-58.873C853.387,-58.873 853.458,-58.861 853.552,-58.838C853.646,-58.814 853.716,-58.802 853.763,-58.802C854.514,-58.709 855.03,-58.439 855.312,-57.993C855.594,-57.547 855.735,-56.784 855.735,-55.704C855.735,-54.53 855.594,-53.767 855.312,-53.415C855.03,-53.063 854.42,-52.887 853.481,-52.887C852.448,-52.887 851.592,-53.18 850.911,-53.767C850.23,-54.354 849.89,-55.023 849.89,-55.774C849.89,-56.432 850.124,-57.018 850.594,-57.535ZM851.016,-47.535C851.251,-48.192 851.815,-48.521 852.707,-48.521C852.753,-48.521 852.824,-48.509 852.918,-48.486C853.012,-48.462 853.082,-48.45 853.129,-48.45C853.88,-48.31 854.35,-47.641 854.538,-46.443C854.725,-45.246 854.819,-42.371 854.819,-37.817C854.819,-33.028 854.725,-30.117 854.538,-29.085C854.35,-28.052 853.81,-27.535 852.918,-27.535C852.073,-27.535 851.533,-28.028 851.298,-29.014C851.063,-30 850.876,-32.606 850.735,-36.831L850.735,-40.352C850.735,-44.624 850.829,-47.019 851.016,-47.535ZM866.298,-43.028C868.833,-45.516 871.11,-46.76 873.129,-46.76C874.396,-46.76 875.781,-46.267 877.284,-45.282C878.927,-44.249 879.748,-42.347 879.748,-39.577C879.748,-38.357 879.537,-37.16 879.115,-35.986C878.739,-35.094 877.671,-34.167 875.91,-33.204C874.15,-32.242 872.589,-31.761 871.227,-31.761C870.288,-31.761 869.819,-31.596 869.819,-31.268C869.819,-31.033 870.007,-30.54 870.382,-29.789C870.711,-29.178 871.004,-28.768 871.263,-28.556C871.521,-28.345 871.955,-28.239 872.565,-28.239C873.457,-28.239 875.594,-28.662 878.974,-29.507C879.631,-29.648 880.124,-29.718 880.453,-29.718C881.157,-29.718 881.509,-29.178 881.509,-28.099C881.509,-26.174 878.974,-24.671 873.903,-23.592C873.763,-23.545 873.528,-23.521 873.199,-23.521C871.462,-23.521 869.749,-24.343 868.058,-25.986C866.368,-27.629 865.382,-29.484 865.101,-31.549C864.631,-33.991 864.091,-35.845 863.481,-37.113C863.199,-37.676 863.059,-38.169 863.059,-38.591C863.059,-39.39 864.138,-40.868 866.298,-43.028ZM871.791,-36.62C871.932,-36.573 872.119,-36.549 872.354,-36.549C873.199,-36.549 873.962,-36.866 874.643,-37.5C875.324,-38.134 875.664,-38.873 875.664,-39.718C875.664,-40.094 875.547,-40.563 875.312,-41.127C874.889,-42.019 874.467,-42.465 874.044,-42.465C873.669,-42.465 873.035,-42.23 872.143,-41.76C870.594,-40.962 869.819,-39.906 869.819,-38.591C869.819,-37.418 870.476,-36.761 871.791,-36.62ZM888.974,-40.915L888.974,-42.887C888.974,-45 889.079,-46.326 889.291,-46.866C889.502,-47.406 889.96,-47.676 890.664,-47.676C891.18,-47.676 891.685,-47.5 892.178,-47.148C892.671,-46.796 892.988,-46.361 893.129,-45.845C893.41,-44.906 893.715,-44.436 894.044,-44.436C894.373,-44.436 894.936,-44.742 895.734,-45.352C896.908,-46.197 898.222,-46.62 899.678,-46.62C902.26,-46.62 904.549,-45.282 906.544,-42.605C908.539,-39.929 909.537,-36.69 909.537,-32.887C909.537,-27.723 908.574,-25.141 906.65,-25.141C905.851,-25.141 905.358,-25.458 905.171,-26.092C904.983,-26.725 904.889,-28.286 904.889,-30.775C904.889,-34.014 904.443,-36.702 903.551,-38.838C902.659,-40.974 901.556,-42.042 900.241,-42.042C898.88,-42.042 897.847,-41.373 897.143,-40.035C896.438,-38.697 895.781,-36.174 895.171,-32.465C894.654,-29.554 894.22,-27.688 893.868,-26.866C893.516,-26.045 892.964,-25.634 892.213,-25.634C890.1,-25.634 889.021,-30.728 888.974,-40.915ZM702.075,18.356C701.934,16.666 701.863,11.713 701.863,3.497C701.863,-4.719 701.946,-9.672 702.11,-11.362C702.274,-13.052 702.779,-13.897 703.624,-13.897C704.328,-13.897 704.833,-13.533 705.138,-12.805C705.443,-12.078 705.737,-10.54 706.018,-8.193C706.394,-3.967 706.582,-0.071 706.582,3.497C706.582,7.018 706.394,10.891 706.018,15.117C705.737,17.464 705.443,19.002 705.138,19.729C704.833,20.457 704.328,20.821 703.624,20.821C702.779,20.821 702.262,19.999 702.075,18.356ZM719.046,0.399C720.783,-0.963 722.99,-1.644 725.666,-1.644C727.309,-1.644 728.671,-1.338 729.75,-0.728C731.065,-0.024 732.614,2.147 734.398,5.786C736.182,9.424 737.074,12.183 737.074,14.06C737.074,14.389 737.051,14.624 737.004,14.765C736.347,17.3 734.926,19.295 732.743,20.75C730.56,22.206 728.131,22.934 725.455,22.934C721.605,22.934 718.553,21.572 716.3,18.849C714.657,16.924 713.835,14.506 713.835,11.596C713.835,9.436 714.293,7.347 715.208,5.328C716.124,3.309 717.403,1.666 719.046,0.399ZM727.286,5.892C725.877,5.234 724.398,4.906 722.849,4.906C720.736,4.906 719.492,5.399 719.117,6.384C718.741,7.511 718.553,9.225 718.553,11.525C718.553,13.779 719.187,15.586 720.455,16.948C721.722,18.309 723.272,18.99 725.103,18.99C726.887,18.99 728.6,18.333 730.243,17.018C731.746,15.798 732.497,14.389 732.497,12.793C732.497,11.525 732.039,10.269 731.124,9.025C730.208,7.781 728.929,6.737 727.286,5.892ZM762.003,-11.996C762.332,-12.559 762.896,-12.841 763.694,-12.841C763.928,-12.841 764.093,-12.817 764.187,-12.77C764.844,-12.629 765.302,-12.089 765.56,-11.151C765.818,-10.212 765.994,-8.381 766.088,-5.658C766.37,-1.151 766.581,1.103 766.722,1.103C767.05,1.103 768.201,0.493 770.172,-0.728C772.144,-1.949 773.999,-2.559 775.736,-2.559C777.614,-2.559 779.022,-1.808 779.961,-0.306C780.947,1.197 781.44,5.234 781.44,11.807C781.44,18.286 781.252,21.901 780.876,22.652C780.454,23.309 779.609,23.638 778.341,23.638C777.684,23.638 777.25,23.532 777.039,23.321C776.827,23.11 776.722,22.581 776.722,21.736C776.722,21.079 776.839,19.412 777.074,16.736C777.308,14.248 777.426,12.183 777.426,10.539C777.426,4.906 776.557,2.089 774.82,2.089C773.083,2.089 771.534,3.521 770.172,6.384C768.811,9.248 768.13,12.558 768.13,16.314C768.13,18.567 767.919,20.199 767.496,21.208C767.074,22.218 766.346,22.722 765.313,22.722C764.609,22.722 764.104,21.795 763.799,19.941C763.494,18.086 763.083,13.403 762.567,5.892C762.097,-1.385 761.863,-6.573 761.863,-9.672C761.863,-11.033 761.91,-11.808 762.003,-11.996ZM796.44,0.258C798.318,-0.54 799.703,-0.939 800.595,-0.939C801.44,-0.939 802.872,-0.54 804.89,0.258C807.05,1.15 808.552,2.64 809.397,4.73C810.242,6.819 810.759,10.305 810.947,15.187C811.04,18.286 811.087,19.999 811.087,20.328C811.087,21.736 810.982,22.617 810.77,22.969C810.559,23.321 810.125,23.497 809.468,23.497C808.717,23.497 808.2,23.262 807.918,22.793C807.637,22.323 807.402,21.337 807.214,19.835C806.932,17.91 806.674,16.948 806.44,16.948C806.346,16.948 806.064,17.323 805.594,18.074C804.89,19.342 803.47,20.492 801.334,21.525C799.198,22.558 797.214,23.074 795.383,23.074C793.552,23.074 791.956,22.323 790.595,20.821C789.844,20.023 789.339,19.295 789.081,18.638C788.822,17.981 788.693,17.065 788.693,15.891C788.693,15.516 788.74,14.577 788.834,13.075C789.351,6.549 791.886,2.277 796.44,0.258ZM804.679,5.258C803.693,4.131 802.332,3.568 800.595,3.568C798.811,3.568 797.332,4.154 796.158,5.328C795.219,6.267 794.397,7.746 793.693,9.765C792.989,11.783 792.637,13.567 792.637,15.117C792.637,15.68 792.707,16.173 792.848,16.596C793.224,17.816 794.327,18.427 796.158,18.427C797.379,18.427 798.623,18.074 799.89,17.37C801.111,16.76 802.449,14.859 803.904,11.666C805.031,9.178 805.594,7.629 805.594,7.018C805.594,6.455 805.289,5.868 804.679,5.258ZM824.467,1.103C826.345,-0.118 828.317,-0.728 830.383,-0.728C832.73,-0.728 834.796,0.117 836.58,1.807C838.317,3.544 839.186,4.882 839.186,5.821C839.186,6.478 838.74,6.971 837.848,7.3C837.754,7.347 837.589,7.37 837.355,7.37C836.369,7.37 835.312,6.76 834.186,5.539C832.965,4.272 831.674,3.638 830.312,3.638C828.482,3.638 826.604,4.741 824.679,6.948C823.176,8.638 822.425,10.164 822.425,11.525C822.425,12.558 822.895,13.732 823.834,15.046C824.773,16.408 826.205,17.089 828.129,17.089C829.585,17.089 830.97,16.619 832.284,15.68C833.458,14.788 834.538,14.342 835.524,14.342C836.744,14.342 837.355,14.952 837.355,16.173C837.355,17.582 836.404,18.79 834.503,19.8C832.601,20.809 830.336,21.314 827.707,21.314C825.735,21.314 824.327,21.161 823.482,20.856C822.637,20.551 821.745,19.835 820.806,18.708C819.303,16.924 818.552,14.718 818.552,12.089C818.552,9.929 819.08,7.84 820.137,5.821C821.193,3.802 822.637,2.23 824.467,1.103ZM849.89,3.92C852.425,1.431 854.702,0.187 856.721,0.187C857.988,0.187 859.373,0.68 860.875,1.666C862.519,2.699 863.34,4.6 863.34,7.37C863.34,8.591 863.129,9.788 862.706,10.962C862.331,11.854 861.263,12.781 859.502,13.744C857.742,14.706 856.181,15.187 854.819,15.187C853.88,15.187 853.411,15.352 853.411,15.68C853.411,15.915 853.599,16.408 853.974,17.159C854.303,17.769 854.596,18.18 854.854,18.391C855.113,18.603 855.547,18.708 856.157,18.708C857.049,18.708 859.185,18.286 862.566,17.441C863.223,17.3 863.716,17.229 864.044,17.229C864.749,17.229 865.101,17.769 865.101,18.849C865.101,20.774 862.566,22.276 857.495,23.356C857.354,23.403 857.12,23.427 856.791,23.427C855.054,23.427 853.34,22.605 851.65,20.962C849.96,19.319 848.974,17.464 848.693,15.398C848.223,12.957 847.683,11.103 847.073,9.835C846.791,9.272 846.65,8.779 846.65,8.356C846.65,7.558 847.73,6.079 849.89,3.92ZM855.383,10.328C855.523,10.375 855.711,10.399 855.946,10.399C856.791,10.399 857.554,10.082 858.235,9.448C858.915,8.814 859.256,8.075 859.256,7.23C859.256,6.854 859.138,6.384 858.904,5.821C858.481,4.929 858.059,4.483 857.636,4.483C857.26,4.483 856.627,4.718 855.735,5.187C854.185,5.985 853.411,7.042 853.411,8.356C853.411,9.53 854.068,10.187 855.383,10.328ZM876.296,-50.765C875.335,-50.048 873.973,-50.247 873.256,-51.207C872.539,-52.168 872.737,-53.53 873.698,-54.247C875.574,-55.646 876.98,-57.399 878.447,-58.461C879.418,-59.163 880.777,-58.946 881.48,-57.975C882.183,-57.003 881.965,-55.644 880.994,-54.941C879.541,-53.89 878.153,-52.151 876.296,-50.765ZM178.061,-37.577C177.133,-36.885 175.818,-37.076 175.125,-38.004C174.433,-38.932 174.625,-40.247 175.553,-40.939C177.364,-42.29 178.722,-43.982 180.138,-45.008C181.076,-45.687 182.389,-45.476 183.067,-44.539C183.746,-43.601 183.536,-42.288 182.598,-41.61C181.195,-40.594 179.854,-38.915 178.061,-37.577ZM453.959,-95.737C453.053,-95.061 451.768,-95.248 451.092,-96.155C450.416,-97.061 450.603,-98.345 451.509,-99.021C453.278,-100.341 454.604,-101.993 455.988,-102.995C456.904,-103.658 458.186,-103.452 458.848,-102.537C459.511,-101.621 459.306,-100.339 458.39,-99.676C457.02,-98.684 455.711,-97.044 453.959,-95.737Z" style="fill:rgb(17,28,78);"/>
        </g>
    </g>
</svg>
