<?xml version="1.0" encoding="UTF-8" standalone="no"?>
<!DOCTYPE svg PUBLIC "-//W3C//DTD SVG 1.1//EN" "http://www.w3.org/Graphics/SVG/1.1/DTD/svg11.dtd">
<svg width="100%" height="100%" viewBox="0 0 100 100" version="1.1" xmlns="http://www.w3.org/2000/svg" xmlns:xlink="http://www.w3.org/1999/xlink" xml:space="preserve" xmlns:serif="http://www.serif.com/" style="fill-rule:evenodd;clip-rule:evenodd;stroke-linejoin:round;stroke-miterlimit:2;">
    <g transform="matrix(2,0,0,2,-738.859,-740.583)">
        <path d="M418.261,395.291C418.261,408.453 407.591,419.123 394.429,419.123C381.268,419.123 370.598,408.453 370.598,395.291C370.598,382.13 381.268,371.46 394.429,371.46C407.591,371.46 418.261,382.13 418.261,395.291ZM380.768,394.729C377.943,395.831 379.596,396.865 379.596,396.865C379.596,396.865 382.008,397.692 384.076,398.312C386.143,398.932 387.246,398.243 387.246,398.243C387.246,398.243 392.07,395.073 396.963,391.696C400.408,389.353 399.581,391.283 398.754,392.11C396.963,393.902 393.999,396.727 391.518,399.001C390.416,399.966 390.967,400.793 391.45,401.206C393.241,402.722 398.134,405.824 398.41,406.03C398.754,406.306 400.684,407.546 401.855,407.271C403.027,406.995 403.165,405.41 403.165,405.41C403.165,405.41 404.061,399.759 404.887,394.591C405.439,390.938 405.99,387.562 406.059,386.597C406.266,384.254 403.785,385.219 403.785,385.219C403.785,385.219 398.41,387.424 396.825,388.113C392.69,389.836 380.768,394.729 380.768,394.729Z" style="fill:rgb(147,157,171);"/>
    </g>
</svg>
