<?xml version="1.0" encoding="UTF-8" standalone="no"?>
<!DOCTYPE svg PUBLIC "-//W3C//DTD SVG 1.1//EN" "http://www.w3.org/Graphics/SVG/1.1/DTD/svg11.dtd">
<svg width="100%" height="100%" viewBox="0 0 100 100" version="1.1" xmlns="http://www.w3.org/2000/svg" xmlns:xlink="http://www.w3.org/1999/xlink" xml:space="preserve" xmlns:serif="http://www.serif.com/" style="fill-rule:evenodd;clip-rule:evenodd;stroke-linejoin:round;stroke-miterlimit:2;">
    <g transform="matrix(2,0,0,2,2.337,-473.587)">
        <path d="M47.663,261.793C47.663,274.955 36.993,285.625 23.831,285.625C10.669,285.625 0,274.955 0,261.793C0,248.632 10.669,237.962 23.831,237.962C36.993,237.962 47.663,248.632 47.663,261.793ZM26.017,274.382L26.017,263.367L29.69,263.367L30.389,258.811L26.017,258.811L26.017,255.854C26.017,254.607 26.628,253.392 28.586,253.392L30.573,253.392L30.573,249.512C30.573,249.512 28.769,249.205 27.045,249.205C23.445,249.205 21.091,251.387 21.091,255.338L21.091,258.811L17.089,258.811L17.089,263.367L21.091,263.367L21.091,274.382L26.017,274.382Z" style="fill:rgb(147,157,171);"/>
    </g>
</svg>
