<?xml version="1.0" encoding="UTF-8" standalone="no"?>
<!DOCTYPE svg PUBLIC "-//W3C//DTD SVG 1.1//EN" "http://www.w3.org/Graphics/SVG/1.1/DTD/svg11.dtd">
<svg width="100%" height="100%" viewBox="0 0 100 100" version="1.1" xmlns="http://www.w3.org/2000/svg" xmlns:xlink="http://www.w3.org/1999/xlink" xml:space="preserve" xmlns:serif="http://www.serif.com/" style="fill-rule:evenodd;clip-rule:evenodd;stroke-linejoin:round;stroke-miterlimit:2;">
    <g transform="matrix(0.706118,0,0,0.706118,-531.958,-560.536)">
        <path d="M891.665,864.637C891.665,901.916 861.444,932.137 824.165,932.137C786.886,932.137 756.665,901.916 756.665,864.637C756.665,827.357 786.886,797.137 824.165,797.137C861.444,797.137 891.665,827.357 891.665,864.637ZM864.392,864.563C864.392,859.701 860.452,855.761 855.591,855.761C853.217,855.761 851.069,856.705 849.485,858.231C843.47,853.888 835.18,851.084 825.948,850.763L829.957,831.899L843.056,834.684C843.216,838.014 845.944,840.672 849.314,840.672C852.785,840.672 855.6,837.858 855.6,834.386C855.6,830.914 852.785,828.098 849.314,828.098C846.844,828.098 844.728,829.536 843.7,831.608L829.073,828.499C828.666,828.41 828.241,828.49 827.891,828.718C827.541,828.945 827.296,829.302 827.209,829.708L822.732,850.757C813.364,851.016 804.942,853.825 798.849,858.214C797.267,856.698 795.126,855.761 792.762,855.761C787.9,855.761 783.96,859.701 783.96,864.563C783.96,868.139 786.097,871.21 789.16,872.587C789.024,873.463 788.95,874.351 788.95,875.25C788.95,888.791 804.713,899.769 824.156,899.769C843.6,899.769 859.363,888.791 859.363,875.25C859.363,874.356 859.289,873.474 859.156,872.605C862.239,871.236 864.392,868.152 864.392,864.563ZM804.048,870.85C804.048,867.383 806.869,864.563 810.338,864.563C813.802,864.563 816.622,867.383 816.622,870.85C816.622,874.316 813.802,877.136 810.338,877.136C806.869,877.136 804.048,874.316 804.048,870.85ZM837.997,877.137C834.531,877.137 831.711,874.317 831.711,870.851C831.711,867.383 834.531,864.563 837.997,864.563C841.464,864.563 844.284,867.383 844.284,870.851C844.284,874.317 841.464,877.137 837.997,877.137ZM839.104,887.462C834.813,891.747 826.591,892.08 824.173,892.08C821.756,892.08 813.532,891.747 809.247,887.461C808.611,886.825 808.611,885.794 809.247,885.157C809.882,884.521 810.915,884.521 811.552,885.158C814.256,887.862 820.042,888.822 824.173,888.822C828.306,888.822 834.093,887.862 836.802,885.157C837.44,884.521 838.47,884.522 839.106,885.158C839.742,885.795 839.741,886.826 839.104,887.462Z" style="fill:rgb(147,157,171);"/>
    </g>
</svg>
