<?xml version="1.0" encoding="UTF-8" standalone="no"?>
<!DOCTYPE svg PUBLIC "-//W3C//DTD SVG 1.1//EN" "http://www.w3.org/Graphics/SVG/1.1/DTD/svg11.dtd">
<svg width="100%" height="100%" viewBox="0 0 100 100" version="1.1" xmlns="http://www.w3.org/2000/svg" xmlns:xlink="http://www.w3.org/1999/xlink" xml:space="preserve" xmlns:serif="http://www.serif.com/" style="fill-rule:evenodd;clip-rule:evenodd;stroke-linejoin:round;stroke-miterlimit:2;">
    <g transform="matrix(2,0,0,2,-182.961,-473.587)">
        <path d="M140.312,261.793C140.312,274.955 129.643,285.625 116.481,285.625C103.319,285.625 92.649,274.955 92.649,261.793C92.649,248.632 103.319,237.962 116.481,237.962C129.643,237.962 140.312,248.632 140.312,261.793ZM118.501,260.12L126.405,250.932L124.532,250.932L117.669,258.91L112.187,250.932L105.865,250.932L114.154,262.996L105.865,272.631L107.738,272.631L114.986,264.206L120.775,272.631L127.097,272.631L118.5,260.12L118.501,260.12ZM115.935,263.102L115.096,261.901L108.413,252.342L111.29,252.342L116.683,260.056L117.523,261.258L124.533,271.285L121.656,271.285L115.935,263.103L115.935,263.102Z" style="fill:rgb(147,157,171);"/>
    </g>
</svg>
