<?xml version="1.0" encoding="UTF-8" standalone="no"?>
<!DOCTYPE svg PUBLIC "-//W3C//DTD SVG 1.1//EN" "http://www.w3.org/Graphics/SVG/1.1/DTD/svg11.dtd">
<svg width="100%" height="100%" viewBox="0 0 100 100" version="1.1" xmlns="http://www.w3.org/2000/svg" xmlns:xlink="http://www.w3.org/1999/xlink" xml:space="preserve" xmlns:serif="http://www.serif.com/" style="fill-rule:evenodd;clip-rule:evenodd;stroke-linejoin:round;stroke-miterlimit:2;">
    <g transform="matrix(2,0,0,2,-368.261,-607.085)">
        <path d="M232.962,328.542C232.962,341.704 222.292,352.374 209.13,352.374C195.969,352.374 185.299,341.704 185.299,328.542C185.299,315.381 195.969,304.711 209.13,304.711C222.292,304.711 232.962,315.381 232.962,328.542ZM196.86,340.843L203.474,339.071C205.252,340.036 207.239,340.544 209.25,340.544C215.95,340.544 221.401,335.093 221.401,328.392C221.401,321.692 215.95,316.241 209.25,316.241C202.55,316.241 197.099,321.692 197.099,328.392C197.099,330.442 197.625,332.461 198.623,334.262L196.86,340.843ZM203.803,336.605L200.108,337.595L201.093,333.921L200.837,333.502C199.894,331.953 199.396,330.187 199.396,328.392C199.396,322.959 203.817,318.538 209.25,318.538C214.684,318.538 219.105,322.959 219.105,328.392C219.105,333.826 214.684,338.247 209.25,338.247C207.489,338.247 205.749,337.765 204.22,336.854L203.803,336.605ZM213.77,330.082C213.27,329.783 212.62,329.449 212.03,329.69C211.578,329.875 211.29,330.583 210.997,330.944C210.846,331.13 210.667,331.158 210.436,331.066C208.739,330.39 207.439,329.257 206.503,327.696C206.344,327.454 206.373,327.262 206.564,327.037C206.847,326.705 207.202,326.326 207.278,325.877C207.355,325.429 207.144,324.904 206.959,324.504C206.722,323.994 206.457,323.265 205.945,322.977C205.475,322.711 204.856,322.86 204.437,323.201C203.714,323.79 203.365,324.712 203.375,325.627C203.378,325.887 203.41,326.146 203.471,326.397C203.617,327 203.896,327.563 204.209,328.099C204.446,328.503 204.703,328.894 204.98,329.271C205.888,330.504 207.017,331.575 208.324,332.376C208.978,332.776 209.681,333.127 210.41,333.368C211.227,333.638 211.955,333.919 212.837,333.751C213.761,333.576 214.672,333.004 215.039,332.114C215.147,331.85 215.201,331.557 215.141,331.278C215.015,330.703 214.236,330.361 213.77,330.082Z" style="fill:rgb(147,157,171);"/>
    </g>
</svg>
