<?xml version="1.0" encoding="UTF-8" standalone="no"?>
<!DOCTYPE svg PUBLIC "-//W3C//DTD SVG 1.1//EN" "http://www.w3.org/Graphics/SVG/1.1/DTD/svg11.dtd">
<svg width="100%" height="100%" viewBox="0 0 100 100" version="1.1" xmlns="http://www.w3.org/2000/svg" xmlns:xlink="http://www.w3.org/1999/xlink" xml:space="preserve" xmlns:serif="http://www.serif.com/" style="fill-rule:evenodd;clip-rule:evenodd;stroke-linejoin:round;stroke-miterlimit:2;">
    <g transform="matrix(2,0,0,2,2.337,-740.583)">
        <path d="M47.663,395.291C47.663,408.453 36.993,419.123 23.831,419.123C10.669,419.123 0,408.453 0,395.291C0,382.13 10.669,371.46 23.831,371.46C36.993,371.46 47.663,382.13 47.663,395.291ZM15.709,382.352C14.287,382.352 13.137,383.503 13.137,384.918C13.137,386.337 14.287,387.49 15.709,387.49C17.129,387.49 18.278,386.337 18.278,384.918C18.278,383.503 17.129,382.352 15.709,382.352ZM13.49,389.435L13.49,403.69L17.927,403.69L17.927,389.435L13.49,389.435ZM20.707,389.435L20.707,403.69L25.136,403.69L25.136,396.64C25.136,394.78 25.488,392.98 27.794,392.98C30.065,392.98 30.098,395.106 30.098,396.76L30.098,403.69L34.525,403.69L34.525,395.872C34.525,392.033 33.698,389.083 29.212,389.083C27.054,389.083 25.608,390.263 25.016,391.386L24.957,391.386L24.957,389.435L20.707,389.435Z" style="fill:rgb(147,157,171);"/>
    </g>
</svg>
